<svg width="52" height="52" viewBox="0 0 52 52" fill="none" xmlns="http://www.w3.org/2000/svg">
<path d="M31.4539 44.7344H33.4448C34.3431 44.7344 35.0713 45.4357 35.0713 46.3008C35.0713 47.1659 34.3431 47.8672 33.4448 47.8672H24.4219" stroke="#008037" stroke-width="2" stroke-miterlimit="10" stroke-linecap="round" stroke-linejoin="round"/>
<path d="M25.2891 44.7344H28.0399" stroke="#008037" stroke-width="2" stroke-miterlimit="10" stroke-linecap="round" stroke-linejoin="round"/>
<path d="M31.6331 47.8672V49.4872C31.6331 50.3227 30.9297 51.0001 30.0622 51.0001H18.9434" stroke="#008037" stroke-width="2" stroke-miterlimit="10" stroke-linecap="round" stroke-linejoin="round"/>
<path d="M1.11251 19.7751C1.68236 17.7698 3.26686 16.1682 5.30161 15.5142C5.26787 15.2054 5.25053 14.8919 5.25053 14.5745C5.25053 9.67513 9.37455 5.70347 14.4618 5.70347C14.5167 5.70347 14.5714 5.70397 14.6259 5.70488C14.8892 4.60165 15.4738 3.62548 16.2389 2.81713C17.0852 1.92296 18.1627 1.43774 19.1273 1.17577C19.3542 1.1141 19.6784 1.0648 20.06 1.02546C22.7692 0.746085 25.1285 2.80153 25.1285 5.4256V45.131C25.1285 48.3724 22.4 51 19.0344 51C16.255 51 13.8852 49.3114 12.9707 46.9412C12.4177 47.0552 11.8427 47.1118 11.2526 47.1043C7.15187 47.052 3.78333 43.8479 3.68106 39.8995C3.63395 38.0788 4.27045 36.4024 5.36084 35.0914C2.93373 34.9848 1 33.0561 1 30.6924C1 28.8646 2.15621 27.297 3.80266 26.6308C2.50303 25.808 1.52974 24.546 1.11052 23.0641" stroke="#008037" stroke-width="2" stroke-miterlimit="10" stroke-linecap="round" stroke-linejoin="round"/>
<path d="M15.8041 45.7394C14.5494 46.5991 13.0148 47.1048 11.3576 47.1048C7.11717 47.1048 3.67969 43.7943 3.67969 39.7105C3.67969 37.1582 5.02246 34.9079 7.06484 33.5791" stroke="#008037" stroke-width="2" stroke-miterlimit="10" stroke-linecap="round" stroke-linejoin="round"/>
<path d="M3.01605 34.3435C1.79967 33.5521 1 32.2119 1 30.6918C1 28.2597 3.04728 26.2881 5.57269 26.2881" stroke="#008037" stroke-width="2" stroke-miterlimit="10" stroke-linecap="round" stroke-linejoin="round"/>
<path d="M14.4609 5.70312C15.7213 5.70312 16.9226 5.94689 18.0167 6.38824" stroke="#008037" stroke-width="2" stroke-miterlimit="10" stroke-linecap="round" stroke-linejoin="round"/>
<path d="M5.9614 17.9987C5.50312 16.9451 5.25 15.7881 5.25 14.5742" stroke="#008037" stroke-width="2" stroke-miterlimit="10" stroke-linecap="round" stroke-linejoin="round"/>
<path d="M15.1816 19.0221C15.5767 17.1695 17.4564 15.9763 19.3799 16.3569" stroke="#008037" stroke-width="2" stroke-miterlimit="10" stroke-linecap="round" stroke-linejoin="round"/>
<path d="M14.9094 38.7735C13.8687 36.5095 14.9307 33.8617 17.2815 32.8594" stroke="#008037" stroke-width="2" stroke-miterlimit="10" stroke-linecap="round" stroke-linejoin="round"/>
<path d="M15.7126 33.8706C14.6662 33.5502 14.0875 32.4736 14.4201 31.4658" stroke="#008037" stroke-width="2" stroke-miterlimit="10" stroke-linecap="round" stroke-linejoin="round"/>
<path d="M34.6657 7.46167C31.8803 5.84445 28.6165 4.91406 25.127 4.91406" stroke="#008037" stroke-width="2" stroke-miterlimit="10" stroke-linecap="round" stroke-linejoin="round"/>
<path d="M32.916 41.6016V39.3411C32.916 39.0741 33.0719 38.8291 33.3204 38.7107C39.4281 35.8006 43.628 29.7384 43.628 22.7315C43.628 17.4668 41.257 12.7354 37.4872 9.47363" stroke="#008037" stroke-width="2" stroke-miterlimit="10" stroke-linecap="round" stroke-linejoin="round"/>
<path d="M25.127 41.6016H33.4447C34.343 41.6016 35.0712 42.3029 35.0712 43.168C35.0712 44.0331 34.343 44.7344 33.4447 44.7344" stroke="#008037" stroke-width="2" stroke-miterlimit="10" stroke-linecap="round" stroke-linejoin="round"/>
<path d="M47.0527 23.0566H50.9999" stroke="#008037" stroke-width="2" stroke-miterlimit="10" stroke-linecap="round" stroke-linejoin="round"/>
<path d="M45.4258 13.6581L49.4965 9.74609" stroke="#008037" stroke-width="2" stroke-miterlimit="10" stroke-linecap="round" stroke-linejoin="round"/>
<path d="M49.4965 34.8099L45.4258 32.4561" stroke="#008037" stroke-width="2" stroke-miterlimit="10" stroke-linecap="round" stroke-linejoin="round"/>
<path d="M25.1289 33.1187C25.5786 33.1709 26.0364 33.1978 26.5007 33.1978C26.9651 33.1978 27.4228 33.1709 27.8725 33.1187L28.8713 30.4139C29.5501 30.2308 30.1957 29.971 30.7973 29.645L33.4897 30.8775C34.212 30.3322 34.8639 29.7043 35.4301 29.0087L34.1503 26.416C34.489 25.8366 34.7586 25.2148 34.9487 24.5611L37.7573 23.5992C37.8115 23.1661 37.8394 22.7253 37.8394 22.2781C37.8394 21.8309 37.8115 21.3901 37.7573 20.957L34.9487 19.9951C34.7586 19.3414 34.4889 18.7196 34.1503 18.1402L35.4301 15.5475C34.8639 14.8518 34.212 14.224 33.4897 13.6787L30.7973 14.9112C30.1957 14.5852 29.5501 14.3254 28.8713 14.1423L27.8725 11.4375C27.4228 11.3853 26.9651 11.3584 26.5007 11.3584C26.0364 11.3584 25.5786 11.3853 25.1289 11.4375" stroke="#008037" stroke-width="2" stroke-miterlimit="10" stroke-linecap="round" stroke-linejoin="round"/>
<path d="M25.1289 27.4117C25.5737 27.5233 26.0404 27.5828 26.5214 27.5828C29.5634 27.5828 32.0295 25.2078 32.0295 22.2782C32.0295 19.3486 29.5634 16.9736 26.5214 16.9736C26.0404 16.9736 25.5737 17.033 25.1289 17.1447" stroke="#008037" stroke-width="2" stroke-miterlimit="10" stroke-linecap="round" stroke-linejoin="round"/>
</svg>
