<svg width="516" height="264" viewBox="0 0 516 264" fill="none" xmlns="http://www.w3.org/2000/svg">
<g clip-path="url(#clip0_6263_27131)">
<path d="M493.097 145.954L491.48 158.838L487.468 190.837H406.877C407.506 183.665 408.367 173.342 409.286 162.197C409.376 161.084 409.471 159.964 409.562 158.838C411.867 130.824 414.389 99.124 414.389 99.124L424.984 101.1L445.54 104.926L453.917 106.484L476.348 110.665C487.532 112.745 495.225 128.953 493.097 145.954Z" fill="#F2F2F2"/>
<path d="M432.14 47.2842L442.051 64.6435L423.003 78.1556L414.877 56.8177L432.14 47.2842Z" fill="#FFB6B6"/>
<path d="M419.522 63.7068C433.081 63.7068 444.074 52.7042 444.074 39.1317C444.074 25.5593 433.081 14.5566 419.522 14.5566C405.962 14.5566 394.97 25.5593 394.97 39.1317C394.97 52.7042 405.962 63.7068 419.522 63.7068Z" fill="#FFB6B6"/>
<path d="M417.757 44.6259C415.808 41.6561 416.573 40.1027 414.941 39.0113C414.941 39.0113 414.284 38.5721 409.584 38.3217C408.531 30.7403 407.217 29.8209 407.217 29.8208C405.703 28.7612 403.456 29.1055 402.058 29.7536C399.102 31.1243 399.445 34.0851 397.454 34.6516C394.704 35.4343 389.701 31.022 389.208 25.9708C388.806 21.8504 391.458 17.8486 392.51 18.0603C393.553 18.2702 396.05 15.0793 397.399 15.1285C398.319 15.1621 402.081 13.5253 403.094 13.6533C404.199 13.7931 407.843 15.6966 407.995 15.2617C409.05 12.2396 408.74 11.401 409.635 10.5365C411.222 9.00447 413.818 10.0713 417.89 10.6441C426.268 11.8225 427.73 9.05736 432.024 10.9316C434.193 11.8784 436.008 14.4317 439.549 19.4997C444.501 26.5873 446.978 30.1311 446.993 34.2644C447.01 38.4797 444.97 38.2121 444.075 44.4524C443.077 51.399 445.196 54.5753 442.882 56.8321C441.093 58.5763 437.457 58.9903 435.546 57.4595C432.276 54.8387 436.556 48.5145 432.937 43.8941C430.715 41.0579 426.247 39.7959 424.2 41.1979C421.886 42.7831 423.161 47.436 421.533 47.8772C420.14 48.255 418.097 45.1434 417.757 44.6259Z" fill="#2F2E41"/>
<path d="M474.951 141.417C474.266 153.137 471.546 156.837 470.593 170.679C470.385 173.718 470.26 177.245 470.26 181.452C470.26 182.524 470.266 183.561 470.266 184.574C470.266 186.731 470.225 188.769 469.974 190.836C469.784 192.487 469.457 194.149 468.915 195.901H416.036C416.03 195.889 416.03 195.877 416.024 195.865C415.714 194.519 415.518 193.232 415.369 191.998C415.321 191.605 415.28 191.218 415.244 190.836C415.196 190.39 415.155 189.949 415.113 189.514C414.952 187.78 414.792 186.141 414.41 184.574C413.899 182.411 412.97 180.373 411.065 178.407C410.285 177.603 409.506 176.977 408.744 176.429C408.595 176.328 408.452 176.226 408.303 176.125C406.196 174.677 404.202 173.634 402.475 170.679C402.445 170.637 402.422 170.59 402.398 170.548C402.1 170.03 401.326 168.671 400.767 166.86C400.177 164.977 399.82 162.611 400.463 160.192C401.993 154.46 407.66 153.888 412.291 148.096C412.791 147.471 413.286 146.78 413.756 146.011C415.851 142.603 416.417 139.6 417.083 136.031C417.19 135.452 417.286 134.88 417.363 134.327C417.423 133.909 417.476 133.498 417.518 133.093C417.887 129.691 417.708 126.759 417.274 124.138C415.857 115.551 411.678 110.236 414.631 102.532C415.56 100.113 416.875 98.2956 418.202 96.7405C421.012 93.4454 423.9 91.3064 423.4 87.0522C422.893 82.762 419.643 82.172 419.28 78.4241C419.095 76.5295 419.715 74.5333 420.875 72.573V72.5672C424.59 66.257 433.865 60.4475 439.758 60.6322C440.847 60.6622 441.812 60.9063 442.615 61.377C445.526 63.093 444.312 66.8409 448.771 72.0964C452.086 75.9991 455.836 77.5603 457.259 78.299C462.897 81.2427 467.48 89.9241 470.593 101.025C470.617 101.108 470.641 101.191 470.665 101.281C472.588 108.234 473.945 116.129 474.618 124.138C474.903 127.528 475.07 130.936 475.106 134.309C475.136 137.002 475.076 139.338 474.951 141.417Z" fill="#008037"/>
<path d="M435.358 181.571L434.28 184.574L433.602 186.457L432.03 190.836L430.208 195.901H418.499L420.463 190.836L421.374 188.477L422.886 184.574L425.422 178.02L435.358 181.571Z" fill="#FFB6B6"/>
<path d="M470.783 99.9988C470.753 100.386 470.711 100.815 470.669 101.28C470.206 106.011 469.11 114.478 467.509 124.137C466.663 129.231 465.675 134.659 464.562 140.052C462.169 151.688 459.193 163.147 455.829 170.678C455.228 172.037 454.609 173.264 453.978 174.349C453.496 175.177 452.989 175.993 452.46 176.797C450.745 179.437 448.822 181.94 446.828 184.275C446.751 184.377 446.662 184.472 446.573 184.573C446.251 184.955 445.917 185.33 445.584 185.705C443.953 187.547 442.286 189.262 440.673 190.836C438.709 192.754 436.815 194.453 435.119 195.9H416.105L416.028 195.865L413.29 194.649C413.29 194.649 414.07 193.731 415.374 191.998C415.642 191.646 415.927 191.259 416.237 190.836C416.618 190.317 417.029 189.745 417.469 189.125C418.385 187.827 419.427 186.301 420.546 184.573C422.713 181.23 425.184 177.119 427.678 172.359C427.964 171.804 428.255 171.244 428.547 170.678C428.553 170.66 428.565 170.642 428.571 170.625C429.065 169.659 429.553 168.664 430.041 167.651C434.179 159.035 435.363 151.885 435.703 149.567C436.179 146.29 436.839 141.708 436.661 136.667C436.542 133.343 436.06 129.827 434.911 126.335V126.329C434.673 125.597 434.405 124.864 434.101 124.137C433.559 122.832 432.916 121.545 432.154 120.276C428.791 114.687 426.059 114.454 423.886 108.364C423.243 106.559 421.784 102.484 422.231 98.1816V98.1757C422.285 97.6454 422.374 97.1092 422.493 96.5727V96.5668C422.523 96.4179 422.565 96.2631 422.606 96.1141C422.945 94.7973 423.505 93.4922 424.356 92.2528C426.017 89.8458 428.285 88.4156 430.315 87.5637L430.321 87.5576C432.666 86.5806 434.691 86.372 435.084 86.3362C443.78 85.5617 450.525 92.8786 454.21 96.8767C455.633 98.4198 456.937 99.7131 458.127 100.767C467.395 109.05 469.938 103.759 470.598 101.024C470.699 100.601 470.753 100.237 470.783 99.9988Z" fill="#008037"/>
<path d="M470.812 99.6895C470.812 99.7191 470.806 99.8205 470.782 99.9876C470.794 99.8979 470.8 99.8085 470.806 99.725C470.806 99.7072 470.806 99.6953 470.812 99.6895Z" fill="#008037"/>
<path d="M423.528 225.419H104.425C101.461 225.419 99.0439 227.832 99.0439 230.8C99.0439 233.773 101.461 236.186 104.425 236.186H423.528C426.493 236.186 428.904 233.773 428.904 230.8C428.904 227.832 426.493 225.419 423.528 225.419Z" fill="#E6E6E6"/>
<path d="M352.712 253.233H175.234C172.269 253.233 169.858 255.646 169.858 258.614C169.858 261.581 172.269 264 175.234 264H352.712C355.677 264 358.094 261.581 358.094 258.614C358.094 255.646 355.677 253.233 352.712 253.233Z" fill="#E6E6E6"/>
<path d="M139.937 48.4276L160.047 39.9561L168.673 57.6559L147.54 66.29L139.937 48.4276Z" fill="#FFB6B6"/>
<path opacity="0.1" d="M139.937 48.4276L160.047 39.9561L168.673 57.6559L147.54 66.29L139.937 48.4276Z" fill="black"/>
<path d="M142.794 41.6829L162.634 64.5632C162.634 64.5632 148.832 108.165 135.03 112.051C121.229 115.936 95.7823 134.931 95.7823 134.931L63.8662 114.209L79.393 91.3288C79.393 91.3288 116.916 39.9561 126.836 39.9561C136.756 39.9561 142.794 41.6829 142.794 41.6829Z" fill="#008037"/>
<path d="M115.99 190.837H69.8067L66.8868 186.93L54.9657 170.979L52.2227 167.309C52.2227 167.309 41.8715 148.314 44.028 131.046C46.1845 113.778 68.612 109.893 68.612 109.893H69.535L96.9915 134.042L95.3525 156.517L104.048 170.979L115.99 190.837Z" fill="#2F2E41"/>
<path d="M79.265 190.836H66.8867V172.488L79.265 190.836Z" fill="#2F2E41"/>
<path d="M346.248 162.983L344.708 170.978L340.887 190.837H264.12C264.72 186.386 265.539 179.979 266.415 173.064C266.501 172.373 266.591 171.678 266.678 170.978C268.873 153.594 271.275 133.921 271.275 133.921L281.368 135.147L300.949 137.521L308.928 138.488L330.294 141.083C340.947 142.374 348.275 152.432 346.248 162.983Z" fill="#F2F2F2"/>
<path d="M454.889 190.837H413.251C413.885 190.09 414.243 189.658 414.243 189.658L426.725 187.595L452.443 183.347C452.443 183.347 453.616 186.382 454.889 190.837Z" fill="#2F2E41"/>
<path d="M278.268 57.0615L296.375 82.6936L264.79 83.6378L261.399 59.5496L278.268 57.0615Z" fill="#A0616A"/>
<path opacity="0.1" d="M278.268 57.0615L296.375 82.6936L264.79 83.6378L261.399 59.5496L278.268 57.0615Z" fill="black"/>
<path d="M188.971 110.17C186.648 103.461 181.306 99.2235 177.041 100.704C172.776 102.185 171.203 108.823 173.528 115.534C174.42 118.227 175.943 120.668 177.971 122.651L188.174 150.951L201.34 145.876L189.884 118.515C190.25 115.701 189.937 112.839 188.971 110.17Z" fill="#A0616A"/>
<path d="M311.54 97.1095L311.516 123.232L309.087 132.881L304.093 152.726L300.457 170.978L297.749 184.577L296.782 189.434C296.054 189.922 295.329 190.388 294.604 190.837H231.518C227.934 188.683 225.929 187.008 225.929 187.008C225.929 187.008 226.921 186.075 228.055 184.577C229.97 182.047 232.286 177.903 230.867 173.944C230.569 173.115 230.492 172.105 230.582 170.978C231.16 163.544 238.95 150.973 238.95 150.973L237.337 132.315L236.629 124.138L241.616 84.2704L257.872 74.8118L260.678 74.54L288.381 73.042L299.831 73.7025L300.353 73.845L311.54 97.1095Z" fill="#CCCCCC"/>
<path d="M312.771 190.836H298.97L298.362 184.576L298.349 184.451L302.256 184.183L312.422 183.488L312.599 187.235L312.737 190.111L312.771 190.836Z" fill="#FFB6B6"/>
<path d="M316.168 103.425L321.966 137.474L317.234 170.978L316.497 176.193L315.194 185.402L314.793 188.234L314.806 188.54L314.905 190.837H298.516L297.912 184.577L297.86 184.016L296.627 171.194L296.605 170.978L293.987 143.79L299.12 124.138L299.499 122.692V122.688L301.732 89.0409L300.003 73.7499L299.986 73.6074C300.02 73.629 300.05 73.6506 300.085 73.6722C300.175 73.7283 300.266 73.7844 300.352 73.8449C310.427 80.2428 316.431 91.4671 316.168 103.425Z" fill="#CCCCCC"/>
<path d="M247.49 90.7944L241.187 84.2695C241.187 84.2695 227.695 90.3576 227.023 93.7352C226.35 97.1129 202.529 146.721 202.529 146.721L192.165 119.015L178.675 128.03C178.675 128.03 189.499 171.046 199.623 173.065C209.746 175.084 243.675 122.152 243.675 122.152L247.49 90.7944Z" fill="#CCCCCC"/>
<path d="M503.398 170.679H12.5963C5.64941 170.679 0 176.339 0 183.293C0 190.246 5.6494 195.901 12.5963 195.901H503.398C510.345 195.901 516 190.246 516 183.293C516 176.339 510.345 170.679 503.398 170.679Z" fill="#E6E6E6"/>
<path d="M308.671 132.242L307.717 176.812C307.625 181.127 304.104 184.576 299.793 184.576H217.88C213.67 184.576 210.195 181.283 209.965 177.075L207.531 132.505C207.282 127.96 210.898 124.138 215.445 124.138H300.747C305.191 124.138 308.767 127.794 308.671 132.242Z" fill="#3F3D56"/>
<path d="M176.436 59.1858C187.259 59.1858 196.034 50.4032 196.034 39.5695C196.034 28.7357 187.259 19.9531 176.436 19.9531C165.612 19.9531 156.838 28.7357 156.838 39.5695C156.838 50.4032 165.612 59.1858 176.436 59.1858Z" fill="#FFB6B6"/>
<path d="M143.657 90.897L145.814 114.209L160.478 173.352L147.809 177.797L126.405 113.346L123.449 87.4434L143.657 90.897Z" fill="#FFB6B6"/>
<path d="M137.824 132.242L136.869 176.812C136.777 181.127 133.256 184.576 128.945 184.576H47.0319C42.8224 184.576 39.3471 181.283 39.1173 177.075L36.683 132.505C36.4347 127.96 40.0499 124.138 44.5976 124.138H129.899C134.343 124.138 137.919 127.794 137.824 132.242Z" fill="#3F3D56"/>
<path d="M162.815 184.878C171.363 184.878 178.293 181.81 178.293 178.026C178.293 174.242 171.363 171.174 162.815 171.174C154.267 171.174 147.338 174.242 147.338 178.026C147.338 181.81 154.267 184.878 162.815 184.878Z" fill="#FFB6B6"/>
<path d="M113.249 94.4602L122.091 47.294C122.091 47.294 146.675 43.8404 147.537 52.0428C148.4 60.2451 146.921 100.331 146.921 100.331L113.249 94.4602Z" fill="#008037"/>
<path d="M168.525 42.6552C168.525 42.6552 180.648 38.3244 185.762 35.9942C190.876 33.664 201.035 49.9169 201.261 41.3332C201.487 32.7495 197.977 29.1498 197.977 29.1498C197.977 29.1498 197.1 10.3717 178.199 12.7194C178.199 12.7194 182.357 3.32451 168.71 1.87176C155.063 0.419012 133.832 33.4045 135.734 38.334C137.635 43.2635 139.914 47.3389 134.52 52.6097C129.126 57.8804 119.025 87.627 126.71 95.6316C134.395 103.636 134.9 107.11 129.634 112.09C124.368 117.07 111.922 127.898 125.379 129.777C138.837 131.657 124.148 130.253 134.181 121.42C144.214 112.587 158.854 112.947 153.388 98.775C147.921 84.6027 157.418 64.2939 156.23 61.2129C155.042 58.132 158.892 38.5678 158.892 38.5678C158.892 38.5678 167.855 37.2499 168.525 42.6552Z" fill="#2F2E41"/>
<path d="M268.584 66.3394C280.366 66.3394 289.917 56.779 289.917 44.9856C289.917 33.1923 280.366 23.6318 268.584 23.6318C256.801 23.6318 247.25 33.1923 247.25 44.9856C247.25 56.779 256.801 66.3394 268.584 66.3394Z" fill="#A0616A"/>
<path d="M270.287 16.277C269.67 16.6377 268.843 16.0919 268.645 15.4045C268.447 14.717 268.678 13.9871 268.906 13.3092L270.057 9.89668C270.874 7.47646 271.74 4.97166 273.508 3.12956C276.177 0.349197 280.418 -0.358113 284.235 0.154308C289.138 0.812361 293.975 3.46962 296.255 7.86376C298.535 12.2579 297.564 18.3893 293.445 21.1308C299.316 27.8658 301.362 35.3718 301.039 44.3041C300.716 53.2364 290.991 61.4571 284.649 67.7495C283.233 66.8902 281.945 62.863 282.724 61.4C283.503 59.937 282.387 58.2421 283.352 56.8946C284.316 55.547 285.123 57.6927 284.148 56.3528C283.533 55.5073 285.934 53.5622 285.02 53.0561C280.596 50.6084 279.124 45.089 276.346 40.8623C272.994 35.7642 267.258 32.3117 261.188 31.7389C257.845 31.4234 254.313 31.9949 251.572 33.938C248.831 35.8811 247.057 39.3533 247.692 42.6544C246.046 40.9815 245.227 38.5299 245.536 36.2024C245.845 33.8749 247.276 31.7226 249.301 30.5382C248.07 26.4617 249.125 21.7727 251.983 18.6182C254.841 15.4637 266.437 16.0009 270.61 16.8312L270.287 16.277Z" fill="#2F2E41"/>
<path d="M270.936 31.8623C276.463 32.4595 280.453 37.2518 283.823 41.6774C285.766 44.2282 287.8 47.0452 287.751 50.2521C287.702 53.4943 285.536 56.2752 284.501 59.3479C282.81 64.3702 284.458 70.3457 288.486 73.787C284.506 74.5428 280.204 71.5563 279.518 67.5608C278.718 62.9096 282.24 58.4205 281.823 53.7195C281.456 49.5778 278.195 46.3902 275.423 43.2935C272.651 40.1968 270.047 36.0875 271.322 32.1303L270.936 31.8623Z" fill="#2F2E41"/>
<path d="M353.57 173.377C348.096 176.494 345.265 181.848 347.247 185.335C349.229 188.822 355.273 189.122 360.75 186.003C362.954 184.787 364.836 183.061 366.237 180.968L389.267 167.469L382.708 156.786L360.701 171.228C358.187 171.364 355.742 172.101 353.57 173.377Z" fill="#FFB6B6"/>
<path d="M431.541 74.3858C430.853 74.1128 424.814 71.8238 419.301 74.8459C412.968 78.3175 411.99 86.2423 411.647 89.0219C410.855 95.4427 413.189 96.8819 413.682 103.382C414.604 115.543 417.036 101.67 413.153 107.221C411.809 109.142 398.082 138.919 390.511 144.751C375.788 156.094 366.438 164.083 366.438 164.083L377.112 175.688C377.112 175.688 393.979 171.19 408.886 161.501C424.178 151.563 431.824 146.593 437.739 136.872C438.249 136.035 450.438 115.317 443.892 92.4072C442.399 87.1817 439.663 77.6073 431.541 74.3858Z" fill="#008037"/>
<path d="M486.659 132.242L485.704 176.812C485.612 181.127 482.091 184.576 477.78 184.576H395.867C391.657 184.576 388.182 181.283 387.952 177.075L385.518 132.505C385.27 127.96 388.885 124.138 393.433 124.138H478.734C483.178 124.138 486.754 127.794 486.659 132.242Z" fill="#3F3D56"/>
</g>
<defs>
<clipPath id="clip0_6263_27131">
<rect width="516" height="264" fill="white"/>
</clipPath>
</defs>
</svg>
