<svg width="400" height="262" viewBox="0 0 400 262" fill="none" xmlns="http://www.w3.org/2000/svg">
<g clip-path="url(#clip0_6263_26917)">
<path d="M197.943 44.5405C204.645 44.5405 210.078 39.1055 210.078 32.4011C210.078 25.6967 204.645 20.2617 197.943 20.2617C191.241 20.2617 185.809 25.6967 185.809 32.4011C185.809 39.1055 191.241 44.5405 197.943 44.5405Z" fill="#FD6584"/>
<path d="M225.101 26.6527C224.758 25.5301 224.095 24.5322 223.193 23.7817C222.291 23.0313 221.19 22.5611 220.024 22.429C219.997 22.4267 219.97 22.4267 219.942 22.429C219.91 22.4188 219.876 22.4112 219.842 22.4063C215.779 21.8789 211.262 23.161 208.222 25.9525C207.093 26.9725 206.191 28.2177 205.572 29.6079C205.009 28.8377 204.266 28.2166 203.408 27.7983C202.551 27.3801 201.604 27.1772 200.65 27.2073C199.421 27.2887 198.246 27.7475 197.286 28.5212C196.326 29.295 195.629 30.346 195.288 31.531C195.25 31.6758 195.261 31.8288 195.317 31.9672C195.374 32.1057 195.473 32.2222 195.601 32.2994C195.967 32.6121 196.401 32.8334 196.869 32.945C197.874 33.1586 198.887 33.3542 199.901 33.5315C201.882 33.877 203.874 34.1574 205.877 34.3726C207.199 34.5135 208.525 34.6256 209.853 34.709C212.598 34.8818 215.357 34.9227 218.106 34.8363C219.47 34.7908 220.779 34.7454 222.024 34.1452C222.931 33.6988 223.707 33.0234 224.273 32.1857C224.807 31.3799 225.158 30.4669 225.301 29.511C225.443 28.555 225.375 27.5794 225.101 26.6527Z" fill="#E6E6E6"/>
<path d="M200.135 44.3382C200.112 43.8295 200.026 43.3256 199.88 42.8379C199.537 41.7154 198.873 40.7178 197.97 39.9675C197.067 39.2172 195.966 38.7468 194.8 38.6142C194.774 38.6119 194.748 38.6119 194.722 38.6142C194.688 38.6044 194.653 38.5969 194.618 38.5915C192.369 38.3159 190.087 38.5505 187.942 39.278C184.642 40.3828 181.747 42.6105 180.352 45.7931C179.788 45.0224 179.044 44.401 178.186 43.9827C177.328 43.5644 176.38 43.3619 175.426 43.3925C174.196 43.4739 173.021 43.9327 172.061 44.7064C171.102 45.4802 170.404 46.5312 170.063 47.7162C170.028 47.861 170.039 48.0133 170.095 48.1513C170.152 48.2892 170.25 48.4059 170.377 48.4846C170.743 48.7964 171.177 49.0176 171.645 49.1302C172.654 49.3438 173.662 49.5393 174.68 49.7167C176.662 50.0622 178.652 50.3426 180.652 50.5578C184.715 50.994 188.802 51.149 192.886 51.0215C194.245 50.976 195.558 50.9305 196.804 50.3304C197.71 49.8838 198.484 49.2084 199.049 48.3709C199.845 47.1832 200.227 45.7655 200.135 44.3382Z" fill="#E6E6E6"/>
<path d="M358.177 191.639C358.352 199.916 357.21 208.168 354.795 216.086C354.71 216.374 354.609 216.662 354.507 216.949H304.719C305.43 213.443 306.56 210.035 308.084 206.798C312.228 198 318.992 190.471 325.673 182.993C334.873 172.69 343.853 162.471 345.274 149.071C348.92 154.633 351.831 160.644 353.933 166.954C351.36 167.908 348.998 169.356 346.982 171.218C346.424 171.742 345.832 172.504 346.119 173.231C346.39 173.84 347.134 174.043 347.793 174.179C349.383 174.483 350.973 174.788 352.563 175.075C353.814 175.329 355.082 175.566 356.351 175.803C357.466 181.011 358.077 186.314 358.177 191.639Z" fill="#F2F2F2"/>
<path d="M399.998 186.158C392.016 191.013 386.942 198.525 382.799 206.934C379.193 207.756 375.865 209.505 373.142 212.009C372.567 212.534 371.975 213.295 372.28 214.023C372.533 214.632 373.294 214.835 373.954 214.97C375.527 215.275 377.133 215.579 378.706 215.867C378.554 216.222 378.402 216.594 378.25 216.95H325.484C327.88 213.718 330.532 210.685 333.416 207.881C334.042 207.255 334.684 206.663 335.344 206.054C342.07 199.973 349.794 195.097 358.175 191.639C371.379 186.117 385.818 184.225 399.998 186.158Z" fill="#F2F2F2"/>
<path d="M334.279 216.949H287.298C287.041 213.186 287.064 209.408 287.366 205.648C289.243 182.418 301.876 160.288 320.936 146.889C318.5 155.568 319.752 164.197 322.289 172.859C321.934 172.977 321.578 173.079 321.257 173.214C318.684 174.168 316.323 175.616 314.306 177.478C313.748 178.002 313.156 178.764 313.444 179.491C313.697 180.1 314.458 180.303 315.118 180.439C316.708 180.743 318.297 181.048 319.87 181.335C321.139 181.589 322.407 181.826 323.675 182.08C324.267 182.181 324.859 182.3 325.451 182.418C325.536 182.621 325.587 182.807 325.671 182.993C328.648 191.199 331.895 199.472 333.417 207.881C333.793 209.991 334.053 212.12 334.195 214.259C334.245 215.156 334.279 216.053 334.279 216.949Z" fill="#F2F2F2"/>
<path d="M78.2282 191.639C78.4025 199.916 77.2608 208.168 74.8458 216.086C74.7612 216.374 74.6597 216.662 74.5582 216.949H24.7695C25.4813 213.443 26.6112 210.035 28.1351 206.798C32.2784 198 39.0432 190.471 45.7234 182.993C54.9235 172.69 63.9037 162.471 65.3244 149.071C68.9711 154.633 71.8817 160.644 73.9833 166.954C71.4103 167.908 69.0489 169.356 67.0325 171.218C66.4744 171.742 65.8824 172.504 66.17 173.231C66.4405 173.84 67.1847 174.043 67.8442 174.179C69.4339 174.483 71.0237 174.788 72.6134 175.075C73.8649 175.329 75.1333 175.566 76.4017 175.803C77.5165 181.011 78.1282 186.314 78.2282 191.639Z" fill="#F2F2F2"/>
<path d="M120.049 186.158C112.067 191.013 106.993 198.525 102.85 206.934C99.244 207.756 95.9154 209.505 93.1929 212.009C92.6179 212.534 92.026 213.295 92.3304 214.023C92.5841 214.632 93.3452 214.835 94.0047 214.97C95.5775 215.275 97.1841 215.579 98.7569 215.867C98.6048 216.222 98.4525 216.594 98.3004 216.95H45.5352C47.9304 213.718 50.583 210.685 53.4669 207.881C54.0926 207.255 54.7353 206.663 55.3948 206.054C62.1211 199.973 69.8444 195.097 78.2259 191.639C91.4298 186.117 105.869 184.225 120.049 186.158Z" fill="#F2F2F2"/>
<path d="M54.3301 216.949H7.34871C7.09215 213.186 7.11479 209.408 7.41643 205.648C9.29363 182.418 21.9268 160.288 40.9865 146.889C38.5512 155.568 39.8027 164.197 42.3395 172.859C41.9844 172.977 41.6292 173.079 41.3079 173.214C38.7349 174.168 36.3735 175.616 34.3571 177.478C33.799 178.002 33.2071 178.764 33.4946 179.491C33.7482 180.1 34.5092 180.303 35.1688 180.439C36.7585 180.743 38.3483 181.048 39.9211 181.335C41.1895 181.589 42.4579 181.826 43.7262 182.08C44.3181 182.181 44.9101 182.3 45.502 182.418C45.5865 182.621 45.6373 182.807 45.7218 182.993C48.6984 191.199 51.9454 199.472 53.4675 207.881C53.8443 209.991 54.104 212.12 54.2455 214.259C54.2962 215.156 54.3301 216.053 54.3301 216.949Z" fill="#F2F2F2"/>
<path d="M229.234 197.216L271.213 200.944L271.663 200.985V21.7907C271.513 21.6862 271.363 21.5816 271.213 21.477C262.464 15.3551 253 10.3258 243.032 6.50098L240.887 36.0984L240.691 38.8081L238.569 68.1601L237.915 77.1894L229.312 196.17L229.234 197.216Z" fill="#E6E6E6"/>
<path d="M125.423 18.4544C125.123 18.6454 124.823 18.8363 124.523 19.0364V200.986L125.423 200.904L166.948 197.217L166.87 196.171L158.267 77.1902L157.613 68.1609L155.49 38.8089L155.295 36.0992L153.045 5.06055C143.344 8.42464 134.073 12.9202 125.423 18.4544Z" fill="#E6E6E6"/>
<path d="M124.519 19.036C123.915 19.427 123.31 19.8271 122.715 20.2318V203.468C122.715 208.046 125.428 211.883 129.055 212.861C129.647 213.021 130.259 213.102 130.872 213.102H265.757C266.369 213.103 266.979 213.022 267.57 212.861C268.918 212.487 270.14 211.755 271.106 210.742C272.948 208.772 273.955 206.165 273.915 203.468V23.4188C273.169 22.8687 272.419 22.3231 271.66 21.7912C271.511 21.6866 271.361 21.5821 271.211 21.4775V203.468C271.212 204.058 271.141 204.645 271.001 205.218C270.361 207.923 268.247 209.906 265.757 209.906H130.872C127.864 209.906 125.419 207.019 125.419 203.468V18.4541C125.119 18.6451 124.819 18.836 124.519 19.036Z" fill="#E6E6E6"/>
<path d="M272.563 36.1006H124.066V38.8098H272.563V36.1006Z" fill="#E6E6E6"/>
<path d="M227.084 1.54148C226.184 1.3187 225.284 1.10956 224.375 0.914062V74.4804H227.084V1.54148Z" fill="#E6E6E6"/>
<path d="M172.255 0C171.351 0.168219 170.447 0.340986 169.547 0.527391V74.4802H172.255V0Z" fill="#E6E6E6"/>
<path d="M94.9531 208.36C94.9525 209.915 95.2502 211.455 95.8302 212.897C96.053 213.457 96.3189 213.998 96.6255 214.516C97.0216 215.192 97.4812 215.828 97.998 216.416C99.1397 217.718 100.546 218.761 102.123 219.475C103.7 220.189 105.411 220.559 107.142 220.558H284.978C288.21 220.558 291.311 219.273 293.596 216.987C295.882 214.7 297.166 211.598 297.166 208.365C297.166 205.131 295.882 202.029 293.596 199.742C291.311 197.456 288.21 196.171 284.978 196.171H107.142C103.911 196.174 100.813 197.459 98.5282 199.744C96.2432 202.029 94.9575 205.128 94.9531 208.36Z" fill="#E6E6E6"/>
<path d="M124.07 77.1914L271.664 77.1914V68.1606L124.07 68.1606V77.1914Z" fill="#E6E6E6"/>
<path d="M204.184 70.418H191.546C191.546 69.1007 192.069 67.8373 193 66.9058C193.931 65.9743 195.194 65.451 196.51 65.451H199.219C199.871 65.451 200.516 65.5795 201.119 65.8291C201.721 66.0787 202.268 66.4446 202.729 66.9058C203.19 67.367 203.556 67.9146 203.806 68.5172C204.055 69.1198 204.184 69.7657 204.184 70.418Z" fill="#E6E6E6"/>
<path d="M0 215.324C3.94803 220.004 8.21827 224.402 12.7795 228.486H379.34C383.901 224.402 388.172 220.004 392.12 215.324H0Z" fill="#008037"/>
<path d="M180.277 171.31V217.939H212.93V171.31C212.931 170.975 212.824 170.648 212.625 170.378C212.427 170.108 212.146 169.909 211.826 169.81C211.675 169.76 211.517 169.736 211.358 169.737H181.854C181.647 169.737 181.443 169.777 181.251 169.856C181.06 169.935 180.886 170.051 180.74 170.197C180.593 170.343 180.477 170.517 180.398 170.708C180.318 170.899 180.278 171.104 180.277 171.31ZM193.02 187.332C193.029 186.413 193.4 185.534 194.053 184.888C194.706 184.241 195.587 183.878 196.506 183.878C197.425 183.878 198.307 184.241 198.959 184.888C199.612 185.534 199.983 186.413 199.992 187.332V192.743C199.987 193.664 199.618 194.547 198.965 195.197C198.312 195.847 197.428 196.212 196.506 196.212C195.585 196.212 194.701 195.847 194.048 195.197C193.395 194.547 193.025 193.664 193.02 192.743V187.332Z" fill="#2F2E41"/>
<path d="M180.18 216.448V220.945C180.18 221.178 180.273 221.401 180.437 221.566C180.601 221.731 180.824 221.825 181.057 221.827H212.156C212.389 221.826 212.612 221.732 212.776 221.567C212.941 221.402 213.033 221.178 213.033 220.945V216.448H180.18Z" fill="#008037"/>
<path d="M128.91 101.058V186.195C128.911 187.28 129.342 188.32 130.109 189.087C130.876 189.855 131.916 190.286 133 190.287H259.114C260.198 190.286 261.238 189.855 262.005 189.087C262.772 188.32 263.203 187.28 263.204 186.195V101.058C263.201 99.974 262.769 98.9352 262.003 98.1691C261.236 97.403 260.197 96.9721 259.114 96.9707H133C131.917 96.9721 130.878 97.403 130.111 98.1691C129.345 98.9352 128.913 99.974 128.91 101.058Z" fill="#008037"/>
<path d="M131.871 102.118V185.146C131.872 185.725 132.102 186.281 132.512 186.691C132.922 187.101 133.477 187.331 134.057 187.332H258.066C258.646 187.331 259.201 187.101 259.611 186.691C260.02 186.281 260.251 185.725 260.252 185.146V102.118C260.252 101.538 260.022 100.981 259.612 100.57C259.202 100.159 258.646 99.928 258.066 99.9268H134.057C133.477 99.928 132.921 100.159 132.511 100.57C132.101 100.981 131.871 101.538 131.871 102.118Z" fill="#F0FFE7" fill-opacity="0.14"/>
<path d="M157.157 222.886C157.283 223.044 157.443 223.172 157.626 223.259C157.809 223.347 158.009 223.392 158.211 223.391H231.989C232.19 223.39 232.39 223.345 232.572 223.258C232.754 223.171 232.914 223.045 233.041 222.888C233.168 222.731 233.259 222.548 233.306 222.352C233.354 222.156 233.357 221.952 233.316 221.754L232.17 216.312C232.123 216.09 232.021 215.883 231.873 215.711C231.725 215.539 231.537 215.406 231.325 215.325C231.172 215.265 231.008 215.234 230.843 215.234H159.352C159.187 215.234 159.024 215.265 158.87 215.325C158.658 215.406 158.47 215.539 158.322 215.711C158.175 215.883 158.072 216.09 158.025 216.312L156.88 221.754C156.839 221.951 156.843 222.155 156.891 222.351C156.938 222.547 157.029 222.73 157.157 222.886Z" fill="#2F2E41"/>
<path d="M228.269 217.578H230.098C230.221 217.578 230.32 217.479 230.32 217.356V216.436C230.32 216.314 230.221 216.214 230.098 216.214H228.269C228.146 216.214 228.047 216.314 228.047 216.436V217.356C228.047 217.479 228.146 217.578 228.269 217.578Z" fill="#008037"/>
<path d="M223.722 217.578H225.551C225.674 217.578 225.773 217.479 225.773 217.356V216.436C225.773 216.314 225.674 216.214 225.551 216.214H223.722C223.6 216.214 223.5 216.314 223.5 216.436V217.356C223.5 217.479 223.6 217.578 223.722 217.578Z" fill="#008037"/>
<path d="M219.179 217.578H221.009C221.131 217.578 221.23 217.479 221.23 217.356V216.436C221.23 216.314 221.131 216.214 221.009 216.214H219.179C219.057 216.214 218.957 216.314 218.957 216.436V217.356C218.957 217.479 219.057 217.578 219.179 217.578Z" fill="#008037"/>
<path d="M214.632 217.578H216.462C216.584 217.578 216.684 217.479 216.684 217.356V216.436C216.684 216.314 216.584 216.214 216.462 216.214H214.632C214.51 216.214 214.41 216.314 214.41 216.436V217.356C214.41 217.479 214.51 217.578 214.632 217.578Z" fill="#008037"/>
<path d="M210.089 217.578H211.919C212.041 217.578 212.141 217.479 212.141 217.356V216.436C212.141 216.314 212.041 216.214 211.919 216.214H210.089C209.967 216.214 209.867 216.314 209.867 216.436V217.356C209.867 217.479 209.967 217.578 210.089 217.578Z" fill="#008037"/>
<path d="M205.546 217.578H207.376C207.498 217.578 207.598 217.479 207.598 217.356V216.436C207.598 216.314 207.498 216.214 207.376 216.214H205.546C205.424 216.214 205.324 216.314 205.324 216.436V217.356C205.324 217.479 205.424 217.578 205.546 217.578Z" fill="#008037"/>
<path d="M200.999 217.578H202.829C202.951 217.578 203.051 217.479 203.051 217.356V216.436C203.051 216.314 202.951 216.214 202.829 216.214H200.999C200.877 216.214 200.777 216.314 200.777 216.436V217.356C200.777 217.479 200.877 217.578 200.999 217.578Z" fill="#008037"/>
<path d="M196.453 217.578H198.282C198.405 217.578 198.504 217.479 198.504 217.356V216.436C198.504 216.314 198.405 216.214 198.282 216.214H196.453C196.33 216.214 196.231 216.314 196.231 216.436V217.356C196.231 217.479 196.33 217.578 196.453 217.578Z" fill="#008037"/>
<path d="M191.91 217.578H193.739C193.862 217.578 193.961 217.479 193.961 217.356V216.436C193.961 216.314 193.862 216.214 193.739 216.214H191.91C191.787 216.214 191.688 216.314 191.688 216.436V217.356C191.688 217.479 191.787 217.578 191.91 217.578Z" fill="#008037"/>
<path d="M187.367 217.578H189.196C189.319 217.578 189.418 217.479 189.418 217.356V216.436C189.418 216.314 189.319 216.214 189.196 216.214H187.367C187.244 216.214 187.145 216.314 187.145 216.436V217.356C187.145 217.479 187.244 217.578 187.367 217.578Z" fill="#008037"/>
<path d="M182.82 217.578H184.649C184.772 217.578 184.871 217.479 184.871 217.356V216.436C184.871 216.314 184.772 216.214 184.649 216.214H182.82C182.697 216.214 182.598 216.314 182.598 216.436V217.356C182.598 217.479 182.697 217.578 182.82 217.578Z" fill="#008037"/>
<path d="M178.277 217.578H180.106C180.229 217.578 180.328 217.479 180.328 217.356V216.436C180.328 216.314 180.229 216.214 180.106 216.214H178.277C178.154 216.214 178.055 216.314 178.055 216.436V217.356C178.055 217.479 178.154 217.578 178.277 217.578Z" fill="#008037"/>
<path d="M173.734 217.578H175.563C175.686 217.578 175.785 217.479 175.785 217.356V216.436C175.785 216.314 175.686 216.214 175.563 216.214H173.734C173.611 216.214 173.512 216.314 173.512 216.436V217.356C173.512 217.479 173.611 217.578 173.734 217.578Z" fill="#008037"/>
<path d="M169.187 217.578H171.016C171.139 217.578 171.238 217.479 171.238 217.356V216.436C171.238 216.314 171.139 216.214 171.016 216.214H169.187C169.064 216.214 168.965 216.314 168.965 216.436V217.356C168.965 217.479 169.064 217.578 169.187 217.578Z" fill="#008037"/>
<path d="M164.644 217.578H166.473C166.596 217.578 166.695 217.479 166.695 217.356V216.436C166.695 216.314 166.596 216.214 166.473 216.214H164.644C164.521 216.214 164.422 216.314 164.422 216.436V217.356C164.422 217.479 164.521 217.578 164.644 217.578Z" fill="#008037"/>
<path d="M160.101 217.578H161.93C162.053 217.578 162.152 217.479 162.152 217.356V216.436C162.152 216.314 162.053 216.214 161.93 216.214H160.101C159.978 216.214 159.879 216.314 159.879 216.436V217.356C159.879 217.479 159.978 217.578 160.101 217.578Z" fill="#008037"/>
<path d="M228.32 219.852H230.149C230.272 219.852 230.371 219.752 230.371 219.63V218.71C230.371 218.587 230.272 218.488 230.149 218.488H228.32C228.197 218.488 228.098 218.587 228.098 218.71V219.63C228.098 219.752 228.197 219.852 228.32 219.852Z" fill="#008037"/>
<path d="M223.777 219.852H225.606C225.729 219.852 225.828 219.752 225.828 219.63V218.71C225.828 218.587 225.729 218.488 225.606 218.488H223.777C223.654 218.488 223.555 218.587 223.555 218.71V219.63C223.555 219.752 223.654 219.852 223.777 219.852Z" fill="#008037"/>
<path d="M219.23 219.852H221.059C221.182 219.852 221.281 219.752 221.281 219.63V218.71C221.281 218.587 221.182 218.488 221.059 218.488H219.23C219.107 218.488 219.008 218.587 219.008 218.71V219.63C219.008 219.752 219.107 219.852 219.23 219.852Z" fill="#008037"/>
<path d="M214.687 219.852H216.516C216.639 219.852 216.738 219.752 216.738 219.63V218.71C216.738 218.587 216.639 218.488 216.516 218.488H214.687C214.564 218.488 214.465 218.587 214.465 218.71V219.63C214.465 219.752 214.564 219.852 214.687 219.852Z" fill="#008037"/>
<path d="M210.144 219.852H211.973C212.096 219.852 212.195 219.752 212.195 219.63V218.71C212.195 218.587 212.096 218.488 211.973 218.488H210.144C210.021 218.488 209.922 218.587 209.922 218.71V219.63C209.922 219.752 210.021 219.852 210.144 219.852Z" fill="#008037"/>
<path d="M205.597 219.852H207.426C207.549 219.852 207.648 219.752 207.648 219.63V218.71C207.648 218.587 207.549 218.488 207.426 218.488H205.597C205.475 218.488 205.375 218.587 205.375 218.71V219.63C205.375 219.752 205.475 219.852 205.597 219.852Z" fill="#008037"/>
<path d="M201.054 219.852H202.884C203.006 219.852 203.105 219.752 203.105 219.63V218.71C203.105 218.587 203.006 218.488 202.884 218.488H201.054C200.932 218.488 200.832 218.587 200.832 218.71V219.63C200.832 219.752 200.932 219.852 201.054 219.852Z" fill="#008037"/>
<path d="M196.511 219.852H198.341C198.463 219.852 198.562 219.752 198.562 219.63V218.71C198.562 218.587 198.463 218.488 198.341 218.488H196.511C196.389 218.488 196.289 218.587 196.289 218.71V219.63C196.289 219.752 196.389 219.852 196.511 219.852Z" fill="#008037"/>
<path d="M191.964 219.852H193.794C193.916 219.852 194.016 219.752 194.016 219.63V218.71C194.016 218.587 193.916 218.488 193.794 218.488H191.964C191.842 218.488 191.742 218.587 191.742 218.71V219.63C191.742 219.752 191.842 219.852 191.964 219.852Z" fill="#008037"/>
<path d="M187.417 219.852H189.247C189.369 219.852 189.469 219.752 189.469 219.63V218.71C189.469 218.587 189.369 218.488 189.247 218.488H187.417C187.295 218.488 187.196 218.587 187.196 218.71V219.63C187.196 219.752 187.295 219.852 187.417 219.852Z" fill="#008037"/>
<path d="M182.874 219.852H184.704C184.826 219.852 184.926 219.752 184.926 219.63V218.71C184.926 218.587 184.826 218.488 184.704 218.488H182.874C182.752 218.488 182.653 218.587 182.653 218.71V219.63C182.653 219.752 182.752 219.852 182.874 219.852Z" fill="#008037"/>
<path d="M178.332 219.852H180.161C180.283 219.852 180.383 219.752 180.383 219.63V218.71C180.383 218.587 180.283 218.488 180.161 218.488H178.332C178.209 218.488 178.11 218.587 178.11 218.71V219.63C178.11 219.752 178.209 219.852 178.332 219.852Z" fill="#008037"/>
<path d="M173.785 219.852H175.614C175.737 219.852 175.836 219.752 175.836 219.63V218.71C175.836 218.587 175.737 218.488 175.614 218.488H173.785C173.662 218.488 173.563 218.587 173.563 218.71V219.63C173.563 219.752 173.662 219.852 173.785 219.852Z" fill="#008037"/>
<path d="M169.242 219.852H171.071C171.194 219.852 171.293 219.752 171.293 219.63V218.71C171.293 218.587 171.194 218.488 171.071 218.488H169.242C169.119 218.488 169.02 218.587 169.02 218.71V219.63C169.02 219.752 169.119 219.852 169.242 219.852Z" fill="#008037"/>
<path d="M164.695 219.852H166.524C166.647 219.852 166.746 219.752 166.746 219.63V218.71C166.746 218.587 166.647 218.488 166.524 218.488H164.695C164.572 218.488 164.473 218.587 164.473 218.71V219.63C164.473 219.752 164.572 219.852 164.695 219.852Z" fill="#008037"/>
<path d="M160.152 219.852H161.981C162.104 219.852 162.203 219.752 162.203 219.63V218.71C162.203 218.587 162.104 218.488 161.981 218.488H160.152C160.029 218.488 159.93 218.587 159.93 218.71V219.63C159.93 219.752 160.029 219.852 160.152 219.852Z" fill="#008037"/>
<path d="M190.602 222.58H208.337C208.459 222.58 208.559 222.481 208.559 222.358V221.438C208.559 221.316 208.459 221.216 208.337 221.216H190.602C190.479 221.216 190.38 221.316 190.38 221.438V222.358C190.38 222.481 190.479 222.58 190.602 222.58Z" fill="#008037"/>
<path d="M140.287 111.365H256.322C256.443 111.362 256.558 111.312 256.642 111.226C256.726 111.14 256.774 111.024 256.774 110.903C256.774 110.782 256.726 110.666 256.642 110.58C256.558 110.494 256.443 110.444 256.322 110.441H140.287C140.167 110.444 140.052 110.494 139.968 110.58C139.883 110.666 139.836 110.782 139.836 110.903C139.836 111.024 139.883 111.14 139.968 111.226C140.052 111.312 140.167 111.362 140.287 111.365Z" fill="#008037"/>
<path d="M248.423 108.084C249.916 108.084 251.127 106.846 251.127 105.318C251.127 103.791 249.916 102.553 248.423 102.553C246.929 102.553 245.719 103.791 245.719 105.318C245.719 106.846 246.929 108.084 248.423 108.084Z" fill="#008037"/>
<path d="M239.083 108.084C240.577 108.084 241.787 106.846 241.787 105.318C241.787 103.791 240.577 102.553 239.083 102.553C237.59 102.553 236.379 103.791 236.379 105.318C236.379 106.846 237.59 108.084 239.083 108.084Z" fill="#008037"/>
<path d="M229.739 108.084C231.233 108.084 232.444 106.846 232.444 105.318C232.444 103.791 231.233 102.553 229.739 102.553C228.246 102.553 227.035 103.791 227.035 105.318C227.035 106.846 228.246 108.084 229.739 108.084Z" fill="#008037"/>
<path d="M145.418 103.741C145.418 103.806 145.43 103.871 145.455 103.932C145.48 103.992 145.516 104.047 145.562 104.094C145.608 104.14 145.663 104.177 145.723 104.202C145.783 104.228 145.848 104.241 145.913 104.241H152.548C152.68 104.238 152.804 104.184 152.896 104.09C152.988 103.996 153.039 103.87 153.039 103.739C153.039 103.607 152.988 103.481 152.896 103.388C152.804 103.294 152.68 103.239 152.548 103.236H145.913C145.781 103.238 145.654 103.292 145.562 103.386C145.469 103.481 145.417 103.608 145.418 103.741Z" fill="#008037"/>
<path d="M145.418 105.628C145.418 105.693 145.43 105.758 145.455 105.818C145.48 105.879 145.516 105.934 145.562 105.98C145.608 106.027 145.663 106.064 145.723 106.089C145.783 106.114 145.848 106.128 145.913 106.128H152.548C152.68 106.125 152.805 106.071 152.896 105.977C152.988 105.883 153.04 105.757 153.04 105.625C153.04 105.494 152.988 105.368 152.896 105.274C152.805 105.18 152.68 105.126 152.548 105.123H145.913C145.781 105.125 145.654 105.179 145.562 105.273C145.469 105.368 145.417 105.495 145.418 105.628Z" fill="#008037"/>
<path d="M145.418 107.51C145.417 107.642 145.469 107.77 145.562 107.864C145.654 107.959 145.781 108.013 145.913 108.015H152.548C152.68 108.011 152.804 107.957 152.896 107.863C152.988 107.769 153.039 107.643 153.039 107.512C153.039 107.381 152.988 107.255 152.896 107.161C152.804 107.067 152.68 107.013 152.548 107.01H145.913C145.848 107.01 145.783 107.023 145.723 107.049C145.663 107.074 145.608 107.111 145.562 107.157C145.516 107.204 145.48 107.259 145.455 107.319C145.43 107.38 145.418 107.444 145.418 107.51Z" fill="#008037"/>
<path d="M147.47 122.092H145.086C144.363 122.092 143.777 122.678 143.777 123.401C143.777 124.124 144.363 124.711 145.086 124.711H147.47C148.193 124.711 148.779 124.124 148.779 123.401C148.779 122.678 148.193 122.092 147.47 122.092Z" fill="#E6E6E6"/>
<path d="M174.736 122.092H172.352C171.629 122.092 171.043 122.678 171.043 123.401C171.043 124.124 171.629 124.711 172.352 124.711H174.736C175.459 124.711 176.045 124.124 176.045 123.401C176.045 122.678 175.459 122.092 174.736 122.092Z" fill="#E6E6E6"/>
<path d="M182.463 122.092H180.078C179.356 122.092 178.77 122.678 178.77 123.401C178.77 124.124 179.356 124.711 180.078 124.711H182.463C183.185 124.711 183.771 124.124 183.771 123.401C183.771 122.678 183.185 122.092 182.463 122.092Z" fill="#E6E6E6"/>
<path d="M167.318 121.874H152.5C151.777 121.874 151.191 122.46 151.191 123.183C151.191 123.907 151.777 124.493 152.5 124.493H167.318C168.041 124.493 168.627 123.907 168.627 123.183C168.627 122.46 168.041 121.874 167.318 121.874Z" fill="#E6E6E6"/>
<path d="M203.678 121.874H188.86C188.137 121.874 187.551 122.46 187.551 123.183C187.551 123.907 188.137 124.493 188.86 124.493H203.678C204.401 124.493 204.987 123.907 204.987 123.183C204.987 122.46 204.401 121.874 203.678 121.874Z" fill="#E6E6E6"/>
<path d="M154.74 128.002H152.356C151.633 128.002 151.047 128.588 151.047 129.311C151.047 130.034 151.633 130.621 152.356 130.621H154.74C155.463 130.621 156.049 130.034 156.049 129.311C156.049 128.588 155.463 128.002 154.74 128.002Z" fill="#E6E6E6"/>
<path d="M182.009 128.002H179.625C178.902 128.002 178.316 128.588 178.316 129.311C178.316 130.034 178.902 130.621 179.625 130.621H182.009C182.732 130.621 183.318 130.034 183.318 129.311C183.318 128.588 182.732 128.002 182.009 128.002Z" fill="#E6E6E6"/>
<path d="M189.732 128.002H187.348C186.625 128.002 186.039 128.588 186.039 129.311C186.039 130.034 186.625 130.621 187.348 130.621H189.732C190.455 130.621 191.041 130.034 191.041 129.311C191.041 128.588 190.455 128.002 189.732 128.002Z" fill="#E6E6E6"/>
<path d="M174.592 127.784H159.774C159.051 127.784 158.465 128.37 158.465 129.094C158.465 129.817 159.051 130.403 159.774 130.403H174.592C175.315 130.403 175.901 129.817 175.901 129.094C175.901 128.37 175.315 127.784 174.592 127.784Z" fill="#E6E6E6"/>
<path d="M210.947 127.784H196.129C195.406 127.784 194.82 128.37 194.82 129.094C194.82 129.817 195.406 130.403 196.129 130.403H210.947C211.67 130.403 212.256 129.817 212.256 129.094C212.256 128.37 211.67 127.784 210.947 127.784Z" fill="#E6E6E6"/>
<path d="M162.013 133.913H159.629C158.906 133.913 158.32 134.499 158.32 135.222C158.32 135.946 158.906 136.532 159.629 136.532H162.013C162.736 136.532 163.322 135.946 163.322 135.222C163.322 134.499 162.736 133.913 162.013 133.913Z" fill="#E6E6E6"/>
<path d="M189.279 133.913H186.895C186.172 133.913 185.586 134.499 185.586 135.222C185.586 135.946 186.172 136.532 186.895 136.532H189.279C190.002 136.532 190.588 135.946 190.588 135.222C190.588 134.499 190.002 133.913 189.279 133.913Z" fill="#E6E6E6"/>
<path d="M197.006 133.913H194.621C193.898 133.913 193.312 134.499 193.312 135.222C193.312 135.946 193.898 136.532 194.621 136.532H197.006C197.728 136.532 198.314 135.946 198.314 135.222C198.314 134.499 197.728 133.913 197.006 133.913Z" fill="#E6E6E6"/>
<path d="M181.865 133.694H167.047C166.324 133.694 165.738 134.281 165.738 135.004C165.738 135.727 166.324 136.313 167.047 136.313H181.865C182.588 136.313 183.174 135.727 183.174 135.004C183.174 134.281 182.588 133.694 181.865 133.694Z" fill="#E6E6E6"/>
<path d="M218.221 133.694H203.403C202.68 133.694 202.094 134.281 202.094 135.004C202.094 135.727 202.68 136.313 203.403 136.313H218.221C218.944 136.313 219.53 135.727 219.53 135.004C219.53 134.281 218.944 133.694 218.221 133.694Z" fill="#E6E6E6"/>
<path d="M169.283 139.824H166.899C166.176 139.824 165.59 140.41 165.59 141.134C165.59 141.857 166.176 142.443 166.899 142.443H169.283C170.006 142.443 170.592 141.857 170.592 141.134C170.592 140.41 170.006 139.824 169.283 139.824Z" fill="#E6E6E6"/>
<path d="M196.552 139.824H194.168C193.445 139.824 192.859 140.41 192.859 141.134C192.859 141.857 193.445 142.443 194.168 142.443H196.552C197.275 142.443 197.861 141.857 197.861 141.134C197.861 140.41 197.275 139.824 196.552 139.824Z" fill="#E6E6E6"/>
<path d="M204.275 139.824H201.891C201.168 139.824 200.582 140.41 200.582 141.134C200.582 141.857 201.168 142.443 201.891 142.443H204.275C204.998 142.443 205.584 141.857 205.584 141.134C205.584 140.41 204.998 139.824 204.275 139.824Z" fill="#E6E6E6"/>
<path d="M189.135 139.605H174.317C173.594 139.605 173.008 140.192 173.008 140.915C173.008 141.638 173.594 142.224 174.317 142.224H189.135C189.858 142.224 190.444 141.638 190.444 140.915C190.444 140.192 189.858 139.605 189.135 139.605Z" fill="#E6E6E6"/>
<path d="M174.736 163.326H172.352C171.629 163.326 171.043 163.912 171.043 164.636C171.043 165.359 171.629 165.945 172.352 165.945H174.736C175.459 165.945 176.045 165.359 176.045 164.636C176.045 163.912 175.459 163.326 174.736 163.326Z" fill="#E6E6E6"/>
<path d="M182.463 163.326H180.078C179.356 163.326 178.77 163.912 178.77 164.636C178.77 165.359 179.356 165.945 180.078 165.945H182.463C183.185 165.945 183.771 165.359 183.771 164.636C183.771 163.912 183.185 163.326 182.463 163.326Z" fill="#E6E6E6"/>
<path d="M203.678 163.544H188.86C188.137 163.544 187.551 164.13 187.551 164.853C187.551 165.576 188.137 166.163 188.86 166.163H203.678C204.401 166.163 204.987 165.576 204.987 164.853C204.987 164.13 204.401 163.544 203.678 163.544Z" fill="#E6E6E6"/>
<path d="M147.47 163.326H145.086C144.363 163.326 143.777 163.912 143.777 164.636C143.777 165.359 144.363 165.945 145.086 165.945H147.47C148.193 165.945 148.779 165.359 148.779 164.636C148.779 163.912 148.193 163.326 147.47 163.326Z" fill="#E6E6E6"/>
<path d="M167.318 163.544H152.5C151.777 163.544 151.191 164.13 151.191 164.853C151.191 165.576 151.777 166.163 152.5 166.163H167.318C168.041 166.163 168.627 165.576 168.627 164.853C168.627 164.13 168.041 163.544 167.318 163.544Z" fill="#E6E6E6"/>
<path d="M154.74 157.415H152.356C151.633 157.415 151.047 158.001 151.047 158.724C151.047 159.448 151.633 160.034 152.356 160.034H154.74C155.463 160.034 156.049 159.448 156.049 158.724C156.049 158.001 155.463 157.415 154.74 157.415Z" fill="#E6E6E6"/>
<path d="M182.009 157.415H179.625C178.902 157.415 178.316 158.001 178.316 158.724C178.316 159.448 178.902 160.034 179.625 160.034H182.009C182.732 160.034 183.318 159.448 183.318 158.724C183.318 158.001 182.732 157.415 182.009 157.415Z" fill="#E6E6E6"/>
<path d="M189.732 157.415H187.348C186.625 157.415 186.039 158.001 186.039 158.724C186.039 159.448 186.625 160.034 187.348 160.034H189.732C190.455 160.034 191.041 159.448 191.041 158.724C191.041 158.001 190.455 157.415 189.732 157.415Z" fill="#E6E6E6"/>
<path d="M174.592 157.634H159.774C159.051 157.634 158.465 158.22 158.465 158.943C158.465 159.666 159.051 160.253 159.774 160.253H174.592C175.315 160.253 175.901 159.666 175.901 158.943C175.901 158.22 175.315 157.634 174.592 157.634Z" fill="#E6E6E6"/>
<path d="M162.013 151.505H159.629C158.906 151.505 158.32 152.091 158.32 152.814C158.32 153.537 158.906 154.124 159.629 154.124H162.013C162.736 154.124 163.322 153.537 163.322 152.814C163.322 152.091 162.736 151.505 162.013 151.505Z" fill="#E6E6E6"/>
<path d="M189.279 151.505H186.895C186.172 151.505 185.586 152.091 185.586 152.814C185.586 153.537 186.172 154.124 186.895 154.124H189.279C190.002 154.124 190.588 153.537 190.588 152.814C190.588 152.091 190.002 151.505 189.279 151.505Z" fill="#E6E6E6"/>
<path d="M197.006 151.505H194.621C193.898 151.505 193.312 152.091 193.312 152.814C193.312 153.537 193.898 154.124 194.621 154.124H197.006C197.728 154.124 198.314 153.537 198.314 152.814C198.314 152.091 197.728 151.505 197.006 151.505Z" fill="#E6E6E6"/>
<path d="M181.865 151.723H167.047C166.324 151.723 165.738 152.309 165.738 153.032C165.738 153.755 166.324 154.341 167.047 154.341H181.865C182.588 154.341 183.174 153.755 183.174 153.032C183.174 152.309 182.588 151.723 181.865 151.723Z" fill="#E6E6E6"/>
<path d="M169.283 145.595H166.899C166.176 145.595 165.59 146.181 165.59 146.904C165.59 147.627 166.176 148.213 166.899 148.213H169.283C170.006 148.213 170.592 147.627 170.592 146.904C170.592 146.181 170.006 145.595 169.283 145.595Z" fill="#E6E6E6"/>
<path d="M196.552 145.595H194.168C193.445 145.595 192.859 146.181 192.859 146.904C192.859 147.627 193.445 148.213 194.168 148.213H196.552C197.275 148.213 197.861 147.627 197.861 146.904C197.861 146.181 197.275 145.595 196.552 145.595Z" fill="#E6E6E6"/>
<path d="M204.275 145.595H201.891C201.168 145.595 200.582 146.181 200.582 146.904C200.582 147.627 201.168 148.213 201.891 148.213H204.275C204.998 148.213 205.584 147.627 205.584 146.904C205.584 146.181 204.998 145.595 204.275 145.595Z" fill="#E6E6E6"/>
<path d="M189.135 145.812H174.317C173.594 145.812 173.008 146.399 173.008 147.122C173.008 147.845 173.594 148.431 174.317 148.431H189.135C189.858 148.431 190.444 147.845 190.444 147.122C190.444 146.399 189.858 145.812 189.135 145.812Z" fill="#E6E6E6"/>
<path d="M159.022 248.216C158.922 248.266 158.822 248.316 158.722 248.361C158.09 248.675 157.454 248.984 156.813 249.289C154.895 250.203 152.953 251.071 150.987 251.894C145.813 254.059 140.504 255.886 135.094 257.363C134.185 251.694 133.304 238.323 132.458 228.489C132.299 226.638 132.14 224.915 131.981 223.392C131.83 221.393 131.543 219.406 131.122 217.445C131.081 217.292 131.022 217.144 130.945 217.004C131.031 217.791 131.122 220.137 131.209 223.392C131.254 224.915 131.295 226.638 131.34 228.489C131.554 237.954 131.777 250.834 131.999 258.168C131.368 258.323 130.731 258.477 130.095 258.623C129.695 258.718 129.291 258.809 128.886 258.895C128.396 259.004 127.905 259.114 127.414 259.214C126.9 259.323 126.387 259.427 125.873 259.527C117.481 261.177 108.949 262.005 100.396 262.001C99.828 262.001 99.2644 261.996 98.6964 261.991C98.5237 261.991 98.351 261.987 98.1737 261.982C97.6738 261.973 97.1557 261.964 96.6286 261.951C86.5217 261.671 76.4811 260.223 66.7067 257.636L67.1021 228.489L67.1703 223.392L67.1975 221.46C66.9724 222.081 66.8377 222.732 66.7976 223.392C66.6385 224.633 66.475 226.393 66.3113 228.489C65.6887 236.563 65.0479 249.589 64.3844 256.999C56.5268 254.763 50.7824 252.721 43.6018 249.13C43.3246 248.993 43.0428 248.852 42.7656 248.711C42.8156 248.361 42.8702 248.011 42.9201 247.652C43.7336 241.996 42.7747 234.635 43.6746 228.489C44.3608 223.747 45.0698 219.191 45.7833 215.327C46.6467 210.676 47.5238 207.02 48.3919 205.243C49.3917 203.192 50.3915 201.173 51.3595 199.241C51.7776 198.409 52.1882 197.592 52.5911 196.791C52.8093 196.359 53.0274 195.931 53.241 195.513C54.2135 193.608 55.1316 191.849 55.9723 190.289C56.5631 189.194 57.1085 188.202 57.6084 187.334C58.1946 186.311 58.7127 185.465 59.1399 184.824C62.2953 180.039 66.9902 176.477 72.4466 174.727L72.5829 174.69L72.7147 174.745L72.8647 174.813L81.5267 171.644L85.3942 162.328L105.259 161.105L108.467 163.547L110.108 164.797L111.858 166.129L115.075 168.58L115.989 168.862L117.347 169.28L126.641 172.135L126.737 172.094L126.873 172.131C131.838 173.721 136.185 176.82 139.307 180.996C139.616 181.396 139.902 181.81 140.18 182.228C140.934 183.347 141.952 185.115 143.152 187.334C143.647 188.248 144.17 189.239 144.72 190.289C145.052 190.921 147.915 199.86 150.701 208.989C153.305 217.536 155.84 226.252 156.172 228.489C156.231 228.902 156.295 229.321 156.354 229.734C156.731 232.321 157.104 234.926 157.463 237.468C157.995 241.237 158.513 244.874 159.008 248.125C159.013 248.157 159.017 248.184 159.022 248.216Z" fill="#008037"/>
<path opacity="0.2" d="M137.967 215.305L134.105 200.396L130.695 213.261L137.967 215.305Z" fill="black"/>
<path d="M7.19017 215.132C7.3904 215.715 7.77021 216.22 8.27507 216.573C8.77993 216.927 9.38387 217.112 10.0002 217.101L22.0397 216.791C22.6605 216.779 23.2607 216.566 23.7507 216.184C24.2406 215.803 24.5939 215.273 24.7578 214.673L26.4615 196.448C27.066 196.722 27.724 196.857 28.3875 196.844C29.5516 196.815 30.6564 196.324 31.4589 195.48C32.2614 194.636 32.6959 193.507 32.6666 192.343C32.6374 191.178 32.1469 190.073 31.3031 189.27C30.4593 188.467 29.3313 188.032 28.1671 188.062C27.9019 188.061 27.6374 188.088 27.3781 188.144C27.0961 187.839 26.7533 187.596 26.3718 187.431C25.9903 187.266 25.5785 187.183 25.163 187.188L6.64343 187.666C6.4898 187.672 6.33695 187.691 6.1866 187.723C5.78047 187.799 5.39527 187.96 5.05692 188.198C4.71858 188.435 4.43493 188.742 4.2251 189.098C4.01526 189.454 3.88409 189.851 3.84042 190.262C3.79675 190.673 3.8416 191.088 3.97193 191.48L7.19017 215.132ZM26.8109 195.211L28.0232 190.867C28.1611 190.366 28.1643 189.836 28.0325 189.333C28.0913 189.333 28.1432 189.305 28.202 189.305C29.0333 189.288 29.8375 189.601 30.4382 190.176C31.0389 190.751 31.3872 191.541 31.4067 192.373C31.4262 193.204 31.1152 194.009 30.542 194.612C29.9689 195.215 29.1802 195.565 28.3491 195.587C27.8117 195.604 27.2799 195.474 26.8109 195.211Z" fill="#2F2E41"/>
<path d="M6.19141 187.723C6.58596 189.98 11.0219 191.567 16.3559 191.291C21.2607 191.065 25.2713 189.342 26.006 187.3C25.7341 187.22 25.4513 187.182 25.1678 187.188L6.64823 187.667C6.4946 187.672 6.34176 187.691 6.19141 187.723Z" fill="#008037"/>
<path d="M17.3281 205.117C17.3525 205.11 17.3757 205.1 17.3967 205.086L20.0113 203.374C20.0429 203.354 20.0689 203.326 20.0868 203.292C20.1048 203.259 20.1142 203.222 20.1143 203.184C20.1143 203.147 20.1049 203.109 20.0869 203.076C20.069 203.043 20.043 203.015 20.0114 202.994L17.2938 201.214C17.2689 201.197 17.2409 201.186 17.2116 201.18C17.1822 201.174 17.152 201.174 17.1227 201.18C17.0934 201.186 17.0656 201.198 17.0409 201.215C17.0161 201.232 16.995 201.253 16.9786 201.278C16.9622 201.303 16.9509 201.331 16.9453 201.361C16.9398 201.39 16.9401 201.42 16.9463 201.45C16.9524 201.479 16.9643 201.507 16.9812 201.531C16.9981 201.556 17.0197 201.577 17.0448 201.594L19.4721 203.184L17.148 204.706C17.103 204.736 17.0698 204.78 17.0545 204.832C17.0392 204.883 17.0426 204.938 17.0643 204.988C17.0859 205.037 17.1242 205.077 17.1725 205.101C17.2208 205.124 17.276 205.13 17.3281 205.117Z" fill="#4BB609"/>
<path d="M13.2011 205.307C13.245 205.296 13.2845 205.272 13.3147 205.239C13.3449 205.205 13.3643 205.163 13.3704 205.118C13.3766 205.073 13.3692 205.027 13.3492 204.987C13.3293 204.946 13.2976 204.912 13.2584 204.89L10.8483 203.508L13.1777 201.777C13.2017 201.759 13.2219 201.737 13.2372 201.711C13.2525 201.685 13.2626 201.657 13.2669 201.627C13.2713 201.598 13.2698 201.568 13.2625 201.539C13.2552 201.51 13.2423 201.483 13.2246 201.459C13.2068 201.435 13.1844 201.415 13.1589 201.399C13.1333 201.384 13.1049 201.374 13.0754 201.37C13.0459 201.365 13.0158 201.367 12.9869 201.374C12.958 201.381 12.9308 201.394 12.9069 201.412L10.2989 203.35C10.2686 203.372 10.2443 203.402 10.2284 203.436C10.2124 203.471 10.2052 203.508 10.2074 203.546C10.2096 203.584 10.2212 203.62 10.2411 203.652C10.2609 203.684 10.2885 203.711 10.3212 203.73L13.0322 205.284C13.0834 205.314 13.1439 205.322 13.2011 205.307Z" fill="#4BB609"/>
<path d="M17.071 206.617C17.093 206.612 17.114 206.603 17.1332 206.591C17.1588 206.575 17.181 206.555 17.1986 206.531C17.2163 206.507 17.229 206.479 17.236 206.45C17.2431 206.421 17.2444 206.391 17.2398 206.362C17.2352 206.332 17.2249 206.304 17.2094 206.278L13.503 200.182C13.4715 200.131 13.421 200.095 13.3625 200.081C13.3041 200.066 13.2424 200.076 13.1911 200.107C13.1398 200.139 13.1029 200.189 13.0886 200.247C13.0743 200.306 13.0837 200.368 13.1147 200.419L16.821 206.515C16.8463 206.557 16.8843 206.589 16.9292 206.607C16.9742 206.626 17.0239 206.629 17.071 206.617Z" fill="#4BB609"/>
<path d="M356.819 248.709C356.541 248.85 356.26 248.991 355.982 249.128C348.802 252.719 343.058 254.761 335.2 256.997C334.536 249.587 333.896 236.561 333.273 228.487C333.109 226.391 332.946 224.631 332.787 223.39C332.747 222.73 332.612 222.079 332.387 221.458L332.414 223.39L332.482 228.487L332.878 257.634C323.103 260.221 313.063 261.669 302.956 261.949C302.429 261.962 301.91 261.971 301.411 261.98C301.233 261.985 301.061 261.99 300.888 261.99C300.32 261.994 299.756 261.999 299.188 261.999C288.537 262.006 277.925 260.72 267.585 258.166C267.808 250.832 268.03 237.952 268.244 228.487C268.289 226.636 268.33 224.913 268.376 223.39C268.462 220.135 268.553 217.789 268.639 217.002C268.563 217.142 268.503 217.29 268.462 217.443C268.041 219.404 267.754 221.391 267.603 223.39C267.444 224.913 267.285 226.636 267.126 228.487C266.281 238.321 265.399 251.692 264.49 257.361C259.08 255.884 253.771 254.057 248.597 251.892C245.871 250.755 243.192 249.529 240.562 248.214C241.062 244.94 241.585 241.271 242.121 237.466C242.539 234.515 242.971 231.483 243.412 228.487C244.094 223.858 267.253 173.879 272.711 172.129L272.848 172.092L272.943 172.133L282.237 169.278L283.596 168.86L284.509 168.578L287.727 166.127L289.476 164.795L291.117 163.545L294.325 161.104L314.19 162.327L318.057 171.642L326.72 174.811L326.87 174.743L327.001 174.688L327.138 174.725C332.594 176.475 337.289 180.038 340.444 184.822C340.872 185.463 341.39 186.309 341.976 187.332C342.476 188.2 343.021 189.192 343.612 190.287C344.453 191.847 345.371 193.606 346.343 195.511C346.557 195.929 346.775 196.357 346.993 196.789C347.398 197.589 347.808 198.406 348.225 199.239C349.193 201.171 350.193 203.19 351.192 205.241C352.06 207.018 352.938 210.674 353.801 215.325C354.514 219.189 355.223 223.745 355.91 228.487C356.81 234.633 355.851 241.994 356.664 247.65C356.714 248.009 356.769 248.359 356.819 248.709Z" fill="#008037"/>
<path d="M298.56 157.76C311.32 157.76 321.664 147.412 321.664 134.648C321.664 121.883 311.32 111.535 298.56 111.535C285.801 111.535 275.457 121.883 275.457 134.648C275.457 147.412 285.801 157.76 298.56 157.76Z" fill="#FFB6B6"/>
<path opacity="0.2" d="M261.613 215.305L265.475 200.396L268.885 213.261L261.613 215.305Z" fill="black"/>
<path d="M364.372 205.591C362.991 224.632 364.422 233.016 356.797 248.715C349.858 252.112 342.631 254.884 335.2 256.998C334.428 257.217 333.654 257.429 332.878 257.635C323.104 260.222 313.063 261.67 302.956 261.949C302.429 261.963 301.911 261.972 301.411 261.981C301.234 261.986 301.061 261.99 300.889 261.99C300.32 261.995 299.757 261.999 299.189 261.999C288.538 262.007 277.926 260.72 267.586 258.167C266.549 257.912 265.518 257.644 264.491 257.362C259.08 255.884 253.772 254.057 248.598 251.893C245.871 250.756 243.193 249.53 240.563 248.215C239.968 247.915 239.372 247.614 238.786 247.305C235.773 242.004 234.06 235.557 234.023 227.81C236.109 214.462 359.764 194.08 364.372 205.591Z" fill="#2F2E41"/>
<path opacity="0.2" d="M364.369 208.852C364.44 207.673 364.519 206.455 364.611 205.187C360.002 193.676 236.348 214.057 234.262 227.406C234.267 228.63 234.32 229.817 234.408 230.977C239.459 217.802 356.933 198.43 364.369 208.852Z" fill="black"/>
<path d="M230.947 206.489L241.097 201.412L232.639 178.566L230.41 167.044C230.12 165.548 229.443 164.153 228.446 163C227.449 161.847 226.167 160.976 224.727 160.474C223.288 159.972 221.743 159.857 220.245 160.139C218.748 160.422 217.35 161.093 216.193 162.086C214.479 163.556 213.402 165.635 213.191 167.885C212.979 170.134 213.65 172.378 215.061 174.142L223.335 184.489L230.947 206.489Z" fill="#FFB6B6"/>
<path d="M241.099 197.181L227.566 203.951L237.837 236.144C238.574 238.455 239.896 240.537 241.675 242.188C243.453 243.838 245.628 245 247.987 245.562C250.897 246.255 253.952 246.003 256.708 244.843C259.465 243.682 261.781 241.673 263.32 239.108L290.553 192.409C292.483 189.191 293.079 185.346 292.213 181.695C291.347 178.043 289.089 174.875 285.92 172.868C284.215 171.788 282.303 171.079 280.307 170.787C278.31 170.496 276.275 170.628 274.333 171.176C272.391 171.723 270.586 172.674 269.036 173.965C267.486 175.256 266.224 176.86 265.334 178.671L248.712 214.105L241.099 197.181Z" fill="#008037"/>
<path d="M95.2134 156.165C109.253 156.165 120.634 144.779 120.634 130.734C120.634 116.689 109.253 105.304 95.2134 105.304C81.1741 105.304 69.793 116.689 69.793 130.734C69.793 144.779 81.1741 156.165 95.2134 156.165Z" fill="#A0616A"/>
<path d="M70.0943 113.209C72.1612 110.422 75.1319 108.441 77.4043 105.819C78.6511 104.38 79.6863 102.75 81.088 101.462C83.6922 99.0696 87.3342 98.0891 90.8681 97.9671C94.7411 97.8676 98.583 98.6816 102.083 100.343C105.583 102.005 108.643 104.468 111.015 107.532C112.862 106.449 114.709 105.365 116.557 104.282C117.286 106.203 118.016 108.125 118.746 110.047C119.345 109.526 120.109 109.234 120.902 109.223C121.696 109.212 122.467 109.482 123.081 109.986C123.694 110.489 124.109 111.194 124.253 111.975C124.396 112.756 124.259 113.562 123.865 114.251C124.304 112.892 126.318 112.604 127.429 113.502C128.539 114.399 128.837 115.997 128.656 117.413C128.428 118.968 127.741 120.418 126.683 121.579C125.625 122.74 124.244 123.557 122.718 123.927C120.308 124.464 117.502 123.9 115.573 125.442C114.026 126.678 113.559 128.93 111.981 130.125C110.035 131.598 107.286 130.917 104.868 131.243C100.638 131.812 97.2886 136.141 97.797 140.38C97.4143 139.042 97.0121 137.666 96.1434 136.579C95.2747 135.493 93.8117 134.758 92.4794 135.157C90.2771 135.817 89.9168 138.821 90.4506 141.058C91.8661 146.991 97.2308 156.581 97.2308 156.581C90.265 159.33 81.966 156.731 76.5913 151.514C71.2167 146.298 68.4175 138.912 67.1982 131.521C66.1642 125.253 66.3107 118.311 70.0943 113.209Z" fill="#2F2E41"/>
<path d="M327.512 147.388C332.348 136.296 329.608 126.088 323.713 120.673V120.669C321.395 115.472 318.314 111.462 314.787 110.521C313.083 109.425 311.429 108.139 309.593 107.484C308.737 107.164 307.826 107.02 306.914 107.061C306.002 107.103 305.107 107.329 304.284 107.725L303.348 107.475C302.553 105.443 301.621 105.402 300.585 106.738C296.595 104.879 293 104.047 289.801 104.047C279.366 104.047 273.195 112.885 271.559 123.569L280.28 125.893L283.311 121.06L281.911 126.329L286.724 127.607C294.05 137.15 285.283 159.164 274.172 171.412C276.817 170.68 279.451 170.062 282.075 169.557L291.609 155.572L285.701 168.302C288.769 167.852 292.682 168.284 296.959 169.152C298.399 167.27 299.158 164.76 298.413 162.523C299.631 164.883 300.472 167.419 300.903 170.039C309.929 172.244 322.24 173.376 328.875 174.212C334.236 172.462 334.251 152.69 327.512 147.388Z" fill="#2F2E41"/>
<path d="M330.657 109.657C334.199 117.592 327.051 121.005 320.503 120.908C314.587 120.821 309.558 116.663 309.256 110.751C309.111 107.912 310.099 105.132 312.003 103.021C313.908 100.911 316.572 99.6443 319.409 99.4992C325.319 99.197 328.244 104.251 330.657 109.657Z" fill="#2F2E41"/>
<path d="M166.323 238.83L160.488 229.094L179.89 214.368L187.957 205.848C189.005 204.741 190.325 203.929 191.785 203.492C193.245 203.055 194.794 203.01 196.278 203.36C197.761 203.709 199.126 204.443 200.238 205.486C201.349 206.529 202.167 207.846 202.611 209.305C203.267 211.467 203.059 213.799 202.03 215.81C201 217.821 199.23 219.353 197.092 220.083L184.557 224.364L166.323 238.83Z" fill="#A0616A"/>
<path d="M170.541 238.508L161.456 246.083L159.007 248.124L158.72 248.36C158.089 248.674 157.453 248.983 156.812 249.288C154.894 250.202 152.952 251.07 150.986 251.893C145.812 254.058 140.503 255.885 135.093 257.362C134.066 257.644 133.034 257.912 131.998 258.167C131.366 258.322 130.73 258.476 130.094 258.622C129.694 258.717 129.289 258.808 128.885 258.894C128.394 259.004 127.903 259.113 127.413 259.213C126.899 259.322 126.385 259.426 125.872 259.526C124.49 258.211 123.39 256.628 122.638 254.875C121.887 253.121 121.499 251.232 121.5 249.324C121.5 249.201 121.5 249.074 121.505 248.947L122.963 211.516L123.609 194.926C123.708 191.174 125.27 187.61 127.961 184.995C130.652 182.38 134.259 180.922 138.011 180.932C138.447 180.932 138.879 180.954 139.306 180.995C139.615 181.395 139.901 181.809 140.178 182.227C140.933 183.346 141.951 185.114 143.151 187.333C143.646 188.247 144.169 189.238 144.719 190.288C145.05 190.92 147.913 199.859 150.699 208.988L149.472 218.522L147.254 235.707L156.353 229.733L162.761 225.523L163.52 226.792L165.497 230.093L169.314 236.458L170.541 238.508Z" fill="#008037"/>
<path d="M165.56 227.81C165.555 228.583 165.537 229.343 165.496 230.093C165.402 232.162 165.162 234.222 164.778 236.258C164.151 239.676 163.032 242.985 161.456 246.083C161.247 246.496 161.024 246.906 160.797 247.306C160.211 247.615 159.616 247.915 159.02 248.215C158.92 248.265 158.82 248.315 158.72 248.36C156.189 249.62 153.611 250.797 150.985 251.893C145.812 254.058 140.503 255.885 135.093 257.362C134.066 257.644 133.034 257.913 131.998 258.167C129.976 258.667 127.933 259.12 125.872 259.527C117.48 261.176 108.947 262.004 100.395 262C99.8264 262 99.2629 261.995 98.6948 261.991C98.5221 261.991 98.3495 261.986 98.1722 261.982C97.6723 261.973 97.1542 261.963 96.627 261.95C86.5202 261.67 76.4796 260.222 66.7052 257.635C65.9281 257.431 65.154 257.218 64.3829 256.999C56.9526 254.885 49.7253 252.112 42.7868 248.715C35.1609 233.016 36.5925 224.632 35.2109 205.592C38.0468 198.504 86.0244 203.51 122.963 211.516C132.989 213.689 142.196 216.085 149.472 218.522C156.989 221.036 162.438 223.591 164.574 225.992C165.073 226.489 165.416 227.121 165.56 227.81Z" fill="#2F2E41"/>
<path opacity="0.2" d="M35.2139 208.852C35.1433 207.673 35.0644 206.455 34.9724 205.187C39.5807 193.676 163.235 214.057 165.321 227.406C165.316 228.63 165.263 229.817 165.175 230.977C160.124 217.802 42.6501 198.43 35.2139 208.852Z" fill="black"/>
</g>
<defs>
<clipPath id="clip0_6263_26917">
<rect width="400" height="262" fill="white"/>
</clipPath>
</defs>
</svg>
