<svg width="400" height="300" viewBox="0 0 400 300" fill="none" xmlns="http://www.w3.org/2000/svg">
<g clip-path="url(#clip0_6263_27041)">
<path d="M378.077 300L378.532 299.139C372.424 295.764 364.823 291.564 360.852 284.671C356.939 277.876 356.851 268.65 360.623 260.591C363.834 253.733 369.731 247.589 377.678 242.823C379.246 241.883 380.891 240.992 382.482 240.13C386.329 238.047 390.306 235.893 393.586 232.838C398.103 228.629 401.521 221.566 398.973 215.275C398.136 213.267 396.763 211.54 395.013 210.288C393.263 209.037 391.204 208.312 389.07 208.196L389.016 209.173C390.971 209.279 392.857 209.943 394.461 211.089C396.065 212.235 397.323 213.817 398.091 215.656C400.458 221.502 397.21 228.136 392.94 232.115C389.751 235.087 385.828 237.211 382.034 239.265C380.434 240.132 378.779 241.028 377.193 241.979C369.081 246.844 363.052 253.134 359.759 260.169C355.851 268.517 355.954 278.096 360.027 285.168C364.133 292.295 371.864 296.567 378.077 300Z" fill="#F1F1F1"/>
<path d="M383.002 213.354C387.631 213.354 391.383 211.491 391.383 209.194C391.383 206.897 387.631 205.035 383.002 205.035C378.373 205.035 374.621 206.897 374.621 209.194C374.621 211.491 378.373 213.354 383.002 213.354Z" fill="#F1F1F1"/>
<path d="M376.297 240.757C380.925 240.757 384.678 238.895 384.678 236.598C384.678 234.301 380.925 232.438 376.297 232.438C371.668 232.438 367.916 234.301 367.916 236.598C367.916 238.895 371.668 240.757 376.297 240.757Z" fill="#F1F1F1"/>
<path d="M391.622 245.161C396.251 245.161 400.003 243.299 400.003 241.002C400.003 238.705 396.251 236.843 391.622 236.843C386.993 236.843 383.241 238.705 383.241 241.002C383.241 243.299 386.993 245.161 391.622 245.161Z" fill="#F1F1F1"/>
<path d="M367.673 268.156C372.301 268.156 376.054 266.294 376.054 263.997C376.054 261.7 372.301 259.838 367.673 259.838C363.044 259.838 359.292 261.7 359.292 263.997C359.292 266.294 363.044 268.156 367.673 268.156Z" fill="#F1F1F1"/>
<path d="M350.914 268.156C355.543 268.156 359.295 266.294 359.295 263.997C359.295 261.7 355.543 259.838 350.914 259.838C346.285 259.838 342.533 261.7 342.533 263.997C342.533 266.294 346.285 268.156 350.914 268.156Z" fill="#F1F1F1"/>
<path d="M65.7515 215.046H36.0131C35.2078 215.045 34.4358 214.718 33.8663 214.136C33.2969 213.555 32.9765 212.766 32.9756 211.943V111.83C32.9765 111.007 33.2969 110.218 33.8663 109.636C34.4358 109.055 35.2078 108.727 36.0131 108.727H65.7515C66.5568 108.727 67.3288 109.055 67.8982 109.636C68.4677 110.218 68.788 111.007 68.789 111.83V211.943C68.788 212.766 68.4677 213.555 67.8982 214.136C67.3288 214.718 66.5568 215.045 65.7515 215.046Z" fill="#008037"/>
<path d="M119.98 215.046H90.2416C89.4363 215.045 88.6643 214.718 88.0948 214.136C87.5254 213.555 87.2051 212.766 87.2041 211.943V72.1022C87.2051 71.2795 87.5254 70.4907 88.0948 69.9089C88.6643 69.3272 89.4363 68.9999 90.2416 68.999H119.98C120.785 68.9999 121.557 69.3272 122.127 69.9089C122.696 70.4907 123.017 71.2795 123.017 72.1022V211.943C123.017 212.766 122.696 213.555 122.127 214.136C121.557 214.718 120.785 215.045 119.98 215.046Z" fill="#008037"/>
<path d="M174.212 215.048H144.474C143.669 215.047 142.897 214.72 142.327 214.138C141.758 213.557 141.437 212.768 141.437 211.945V111.832C141.437 111.009 141.758 110.22 142.327 109.638C142.897 109.057 143.669 108.729 144.474 108.729H174.212C175.018 108.729 175.79 109.057 176.359 109.638C176.929 110.22 177.249 111.009 177.25 111.832V211.945C177.249 212.768 176.929 213.557 176.359 214.138C175.79 214.72 175.018 215.047 174.212 215.048Z" fill="#008037"/>
<path d="M228.445 215.046H198.706C197.92 215.063 197.158 214.761 196.589 214.206C196.019 213.651 195.689 212.887 195.669 212.084V56.2797C195.689 55.4758 196.019 54.7125 196.589 54.1572C197.158 53.6019 197.92 53.2998 198.706 53.3171H228.445C229.232 53.2998 229.993 53.6019 230.563 54.1572C231.132 54.7125 231.463 55.4758 231.482 56.2797V212.084C231.463 212.887 231.132 213.651 230.563 214.206C229.993 214.761 229.232 215.063 228.445 215.046Z" fill="#008037"/>
<path d="M282.677 215.047H252.939C252.134 215.046 251.362 214.719 250.792 214.137C250.223 213.556 249.902 212.767 249.901 211.944V28.194C249.902 27.3713 250.223 26.5825 250.792 26.0007C251.362 25.419 252.134 25.0917 252.939 25.0908H282.677C283.483 25.0917 284.255 25.419 284.824 26.0007C285.393 26.5825 285.714 27.3713 285.715 28.194V211.944C285.714 212.767 285.393 213.556 284.824 214.137C284.255 214.719 283.483 215.046 282.677 215.047Z" fill="#008037"/>
<path d="M50.8831 96.1812C54.2738 96.1812 57.0225 93.3728 57.0225 89.9085C57.0225 86.4441 54.2738 83.6357 50.8831 83.6357C47.4924 83.6357 44.7437 86.4441 44.7437 89.9085C44.7437 93.3728 47.4924 96.1812 50.8831 96.1812Z" fill="#3F3D56"/>
<path d="M105.116 55.4078C108.506 55.4078 111.255 52.5994 111.255 49.135C111.255 45.6707 108.506 42.8623 105.116 42.8623C101.725 42.8623 98.9761 45.6707 98.9761 49.135C98.9761 52.5994 101.725 55.4078 105.116 55.4078Z" fill="#3F3D56"/>
<path d="M159.344 96.1812C162.735 96.1812 165.483 93.3728 165.483 89.9085C165.483 86.4441 162.735 83.6357 159.344 83.6357C155.953 83.6357 153.205 86.4441 153.205 89.9085C153.205 93.3728 155.953 96.1812 159.344 96.1812Z" fill="#3F3D56"/>
<path d="M213.576 35.5445C216.967 35.5445 219.716 32.7361 219.716 29.2718C219.716 25.8074 216.967 22.999 213.576 22.999C210.186 22.999 207.437 25.8074 207.437 29.2718C207.437 32.7361 210.186 35.5445 213.576 35.5445Z" fill="#3F3D56"/>
<path d="M267.809 12.5455C271.2 12.5455 273.948 9.73708 273.948 6.27274C273.948 2.8084 271.2 0 267.809 0C264.418 0 261.669 2.8084 261.669 6.27274C261.669 9.73708 264.418 12.5455 267.809 12.5455Z" fill="#3F3D56"/>
<path d="M317.524 216.212H0.47892C0.351902 216.212 0.230087 216.16 0.140272 216.069C0.0504571 215.977 0 215.852 0 215.723C0 215.593 0.0504571 215.468 0.140272 215.377C0.230087 215.285 0.351902 215.233 0.47892 215.233H317.524C317.651 215.233 317.773 215.285 317.862 215.377C317.952 215.468 318.003 215.593 318.003 215.723C318.003 215.852 317.952 215.977 317.862 216.069C317.773 216.16 317.651 216.212 317.524 216.212Z" fill="#CBCBCB"/>
<path d="M396.547 299.884H241.377C241.25 299.884 241.128 299.832 241.038 299.741C240.948 299.649 240.898 299.524 240.898 299.395C240.898 299.265 240.948 299.14 241.038 299.049C241.128 298.957 241.25 298.905 241.377 298.905H396.547C396.674 298.905 396.796 298.957 396.886 299.049C396.975 299.14 397.026 299.265 397.026 299.395C397.026 299.524 396.975 299.649 396.886 299.741C396.796 299.832 396.674 299.884 396.547 299.884Z" fill="#CBCBCB"/>
<path d="M296.902 208.258C297.296 207.858 297.599 207.375 297.791 206.842C297.982 206.31 298.056 205.741 298.009 205.176C297.962 204.61 297.794 204.063 297.517 203.571C297.24 203.079 296.861 202.655 296.407 202.33L298.29 193.674L293.421 191.222L290.929 203.484C290.444 204.3 290.269 205.27 290.437 206.209C290.605 207.149 291.104 207.993 291.84 208.581C292.577 209.17 293.498 209.462 294.431 209.402C295.364 209.343 296.244 208.936 296.902 208.258Z" fill="#FFB7B7"/>
<path d="M350.147 208.447C350.51 208.017 350.776 207.512 350.926 206.966C351.076 206.42 351.108 205.846 351.018 205.287C350.928 204.727 350.719 204.194 350.406 203.726C350.092 203.257 349.682 202.865 349.205 202.576L350.426 193.797L345.386 191.737L343.831 204.159C343.409 205.012 343.308 205.992 343.546 206.916C343.785 207.839 344.347 208.641 345.125 209.17C345.904 209.698 346.845 209.917 347.771 209.784C348.696 209.65 349.542 209.175 350.147 208.447Z" fill="#FFB7B7"/>
<path d="M312.19 294.607L307.224 294.607L304.862 275.039L312.19 275.04L312.19 294.607Z" fill="#FFB7B7"/>
<path d="M313.454 299.524L297.444 299.523V299.316C297.444 297.628 298.101 296.008 299.269 294.814C300.438 293.62 302.023 292.949 303.676 292.949L313.455 292.95L313.454 299.524Z" fill="#2F2E41"/>
<path d="M328.797 294.607L323.831 294.607L321.469 275.039L328.798 275.04L328.797 294.607Z" fill="#FFB7B7"/>
<path d="M330.062 299.524L314.051 299.523V299.316C314.051 297.628 314.708 296.008 315.876 294.814C317.045 293.62 318.63 292.949 320.283 292.949L330.062 292.95L330.062 299.524Z" fill="#2F2E41"/>
<path d="M338.796 129.976L344.15 128.002C344.15 128.002 346.423 128.495 346.423 134.792C346.423 141.088 352.458 199.813 352.458 199.813L341.896 202.655L335.926 146.94L338.796 129.976Z" fill="#2F2E41"/>
<path d="M303.017 129.978L297.662 128.004C297.662 128.004 295.39 128.497 295.39 134.794C295.39 141.09 289.354 199.815 289.354 199.815L299.917 202.657L305.887 146.941L303.017 129.978Z" fill="#2F2E41"/>
<path d="M303.087 196.952L301.623 241.065L304.863 289.862L313.212 290.059L314.427 244.54L321.312 221.781L320.617 288.863L330.071 288.747L335.926 242.595C335.926 242.595 343.658 204.401 339.37 196.952L319.623 190.243L303.087 196.952Z" fill="#2F2E41"/>
<path d="M303.245 191.638L302.769 202.249C302.769 202.249 309.431 205.637 321.142 203.573C332.853 201.51 340.637 202.87 340.637 202.87L339.738 189.343L303.245 191.638Z" fill="#E5E5E5"/>
<path d="M297.448 128.161L312.847 121.266L313.765 117.655L328.746 118.099L329.393 121.788L344.147 128.004L337.647 151.098L338.314 167.344L346.42 196.954C346.42 196.954 339.582 202.887 323.155 200.334L320.321 194.499L318.587 200.67C318.587 200.67 304.183 206.084 300.19 199.036L303.083 148.125L297.448 128.161Z" fill="#2F2E41"/>
<path d="M321.12 114.264C326.614 114.264 331.068 109.713 331.068 104.1C331.068 98.4869 326.614 93.9365 321.12 93.9365C315.626 93.9365 311.173 98.4869 311.173 104.1C311.173 109.713 315.626 114.264 321.12 114.264Z" fill="#FFB7B7"/>
<path d="M332.94 100.161C332.762 99.3336 332.42 98.5526 331.935 97.8659C331.742 95.9671 331.122 94.1397 330.124 92.5259C329.733 91.7696 329.177 91.1149 328.501 90.6118C327.725 90.1557 326.841 89.9304 325.947 89.9614C325.785 89.9586 325.493 90.0088 325.231 90.021C325.063 89.9679 324.893 89.9205 324.723 89.8759C324.624 89.6504 324.427 88.9934 324.373 89.0379L323.632 89.6394C323.318 89.5838 323.003 89.5405 322.687 89.5061C322.572 89.1708 322.457 88.8354 322.342 88.5C322.155 88.8 321.992 89.1143 321.853 89.4401C321.538 89.4243 321.223 89.4188 320.908 89.4235L320.278 88.8054C320.241 88.9778 320.156 89.1354 320.032 89.2589C319.909 89.3824 319.753 89.4664 319.583 89.5007C319.294 89.5311 319.005 89.5708 318.717 89.6181C318.694 89.6179 318.67 89.6181 318.647 89.6175C317.096 89.578 315.427 89.5069 314.13 90.3769C313.524 90.8026 313.03 91.3755 312.693 92.0442C312.534 92.1545 312.375 92.264 312.22 92.3809C311.7 92.7434 311.249 93.2001 310.89 93.7284C310.629 94.1841 310.431 94.6745 310.301 95.1858C309.806 96.7245 309.577 98.3394 309.624 99.9584C309.677 101.588 310.279 103.15 311.328 104.379C311.993 105.109 312.839 105.648 313.505 106.378C314.876 107.88 315.133 109.974 316.306 111.563C317.547 113.244 319.812 114.35 321.8 114.667C322.996 114.851 324.216 114.792 325.389 114.493C326.562 114.194 327.666 113.661 328.637 112.925C329.103 112.593 329.499 112.169 329.801 111.678C330.492 110.458 330.199 108.925 330.455 107.54C330.936 104.945 333.36 102.767 332.94 100.161Z" fill="#2F2E41"/>
<path d="M50.5528 90.3017L49.981 89.5168L105.112 47.5808L159.168 88.7765L213.965 27.9915L214.063 27.9503L267.242 5.52539L267.607 6.43014L214.526 28.8135L159.288 90.0884L105.112 48.8012L50.5528 90.3017Z" fill="#3F3D56"/>
</g>
<defs>
<clipPath id="clip0_6263_27041">
<rect width="400" height="300" fill="white"/>
</clipPath>
</defs>
</svg>
