<svg width="400" height="310" viewBox="0 0 400 310" fill="none" xmlns="http://www.w3.org/2000/svg">
<g clip-path="url(#clip0_6263_27077)">
<path d="M333.07 307.488C329.414 303.469 327.193 297.119 327.776 290.938C328.358 284.756 331.965 279.074 336.644 277.761C341.323 276.449 346.657 280.082 348.078 286.029C348.86 274.564 349.761 262.618 354.446 252.855C358.688 244.014 366.036 237.688 373.999 236.556C381.962 235.425 390.346 239.699 395.312 247.877C400.279 256.054 401.495 267.942 398.016 277.331C395.454 284.247 390.733 289.394 385.787 293.581C369.805 306.998 350.636 312.455 331.807 308.946" fill="#008037"/>
<path d="M387.44 239.935C380.869 246.898 374.842 254.686 369.444 263.185C360.996 276.441 354.161 291.304 349.175 307.256C348.81 308.419 350.262 308.926 350.623 307.775C358.781 281.851 371.804 259.001 388.502 241.317C389.252 240.522 388.184 239.147 387.44 239.935Z" fill="white"/>
<path d="M196.573 19.5719C196.572 19.7121 196.529 19.8464 196.453 19.9455C196.377 20.0446 196.274 20.1005 196.166 20.1009H195.971C195.67 19.7624 195.377 19.408 195.093 19.043H196.166C196.274 19.0434 196.377 19.0993 196.453 19.1984C196.529 19.2975 196.572 19.4318 196.573 19.5719Z" fill="#F2F2F2"/>
<path d="M206.329 0H104.282C103.528 0.00109068 102.804 0.39155 102.271 1.08572C101.737 1.77989 101.437 2.72108 101.436 3.70278V75.6425C101.437 76.6243 101.737 77.5654 102.271 78.2596C102.804 78.9538 103.528 79.3442 104.282 79.3453H206.329C207.083 79.3442 207.807 78.9538 208.34 78.2596C208.874 77.5654 209.174 76.6243 209.175 75.6425V3.70278C209.174 2.72108 208.874 1.77989 208.34 1.08572C207.807 0.39155 207.083 0.00109068 206.329 0ZM208.362 75.6425C208.361 76.3439 208.147 77.0165 207.766 77.5124C207.385 78.0084 206.868 78.2871 206.329 78.2874H104.282C103.743 78.2871 103.226 78.0084 102.845 77.5124C102.464 77.0165 102.25 76.3439 102.249 75.6425V3.70278C102.25 3.00141 102.464 2.32884 102.845 1.8329C103.226 1.33696 103.743 1.05822 104.282 1.05794H206.329C206.868 1.05822 207.385 1.33696 207.766 1.8329C208.147 2.32884 208.361 3.00141 208.362 3.70278V75.6425Z" fill="#3F3D56"/>
<path d="M144.418 31.2923C143.203 27.4943 141.312 24.3311 138.564 22.2364C135.681 20.0306 132.384 18.1951 129.067 17.5339C125.746 16.8951 122.359 17.1416 119.114 18.2586C118.691 18.4014 118.252 18.5548 117.813 18.7241C116.672 19.1075 115.586 19.733 114.601 20.5755C114.569 20.6019 114.536 20.6284 114.504 20.6601C113.243 21.8661 112.381 23.8551 111.674 25.6377C111.003 27.3462 110.58 29.2294 110.946 31.139C111.343 32.8808 112.169 34.4048 113.296 35.4765C114.081 36.2805 115.109 37.2962 116.158 37.3173C116.406 37.3245 116.653 37.2707 116.886 37.1586C116.959 37.1253 117.028 37.0809 117.093 37.0264C117.516 37.1915 117.953 37.2857 118.394 37.3067C120.179 37.4125 121.964 36.4286 123.798 35.6246C124.227 35.4295 124.668 35.2757 125.115 35.1644C125.915 34.9377 126.747 34.974 127.534 35.2702C127.679 35.3236 127.822 35.389 127.961 35.4659C129.319 36.2946 130.465 37.6151 131.262 39.2692C132.039 40.7715 132.551 42.4801 133.405 43.9241C133.828 44.6684 134.368 45.2884 134.988 45.744C135.607 46.1996 136.294 46.4807 137.003 46.569C139.133 46.8758 141.808 46.7277 143.642 45.0614C144.139 44.6192 144.566 44.055 144.898 43.4005C144.931 43.337 144.963 43.2735 144.991 43.21C146.679 39.5971 145.573 34.8841 144.418 31.2923ZM116.329 25.7434C116.736 25.8016 117.146 25.8651 117.553 25.9233C116.775 26.104 116.048 26.5473 115.443 27.2087C115.213 27.4625 115 27.7403 114.804 28.0392C114.813 28.018 114.813 27.9916 114.821 27.9704C114.94 27.4836 115.136 27.0343 115.395 26.6509C115.655 26.2676 115.973 25.9585 116.329 25.7434ZM140.841 39.1793C140.914 39.1581 140.991 39.1422 141.064 39.1264C141.181 39.1026 141.292 39.0447 141.389 38.9571C141.389 38.973 141.394 38.9941 141.394 39.01C141.394 39.0808 141.398 39.1515 141.406 39.2216C141.385 39.2639 141.369 39.3062 141.349 39.3485C141.178 39.2904 141.011 39.2321 140.841 39.1793ZM139.706 26.3147C140.606 27.4208 141.373 28.6977 141.979 30.1022C141.261 28.9614 140.468 27.9047 139.609 26.9442C139.673 26.745 139.707 26.5309 139.706 26.3147ZM138.718 41.3216C138.683 41.399 138.657 41.4828 138.641 41.5702C138.531 41.5755 138.418 41.5808 138.304 41.5808H138.247C138.243 41.5596 138.234 41.5332 138.231 41.512C138.206 41.4168 138.186 41.3216 138.161 41.2264C138.348 41.2581 138.531 41.2899 138.718 41.3216ZM130.026 29.4568C130.037 29.3499 130.04 29.2418 130.034 29.1341C130.124 29.222 130.228 29.2801 130.339 29.3034C130.351 29.3087 130.368 29.3087 130.38 29.314C130.457 29.3722 130.53 29.4251 130.607 29.4833L130.583 29.5309C130.396 29.5044 130.209 29.4832 130.026 29.4568ZM136.466 26.8225H136.454C136.186 26.6057 135.917 26.3888 135.645 26.1825C135.921 26.3835 136.198 26.6004 136.466 26.8225ZM134.97 36.7354C134.928 36.7902 134.892 36.8525 134.864 36.9206C134.844 36.8835 134.828 36.8518 134.807 36.8148C134.858 36.7788 134.913 36.7521 134.97 36.7354ZM131.327 26.3729C131.237 26.2796 131.137 26.203 131.03 26.1455C130.507 25.8826 129.97 25.6652 129.424 25.4948C129.343 25.3943 129.262 25.2938 129.185 25.188C129.646 25.3042 130.102 25.4543 130.55 25.6377C131.125 25.8773 131.688 26.1599 132.238 26.484C131.933 26.4417 131.632 26.4047 131.327 26.3729ZM128.229 19.7397C129.399 19.9428 130.552 20.2864 131.673 20.7659C131.559 20.7288 131.445 20.6971 131.331 20.6601C130.254 20.3427 129.156 20.0041 128.05 19.7132C128.111 19.7238 128.168 19.7291 128.229 19.7397Z" fill="#CCCCCC"/>
<path d="M132.61 60.8204C131.585 60.7832 130.308 60.7365 129.326 59.8026C129.033 59.513 128.793 59.1436 128.621 58.7203C128.45 58.297 128.351 57.83 128.333 57.3522C128.315 57.0126 128.358 56.6722 128.458 56.3577C128.559 56.0433 128.713 55.7631 128.91 55.5393C129.203 55.2548 129.546 55.0703 129.908 55.0025C130.27 54.9347 130.639 54.9859 130.981 55.1514L130.144 47.1916L130.759 47.082L131.743 56.4397L131.23 56.1333C130.635 55.7783 129.818 55.5978 129.311 56.1556C129.186 56.3014 129.089 56.4826 129.027 56.6852C128.965 56.8878 128.94 57.1062 128.953 57.3236C128.968 57.6793 129.042 58.0266 129.169 58.3419C129.297 58.6572 129.475 58.9331 129.692 59.1508C130.456 59.8778 131.474 59.9716 132.627 60.0138L132.61 60.8204Z" fill="#3F3D56"/>
<path d="M127.102 47.877H123.762V48.684H127.102V47.877Z" fill="#3F3D56"/>
<path d="M137.649 47.877H134.309V48.684H137.649V47.877Z" fill="#3F3D56"/>
<path d="M117.959 36.7331C115.269 36.334 113.186 32.9803 112.957 29.5776C112.685 25.5295 114.497 21.6847 116.982 19.4131C119.582 17.0375 122.821 16.0455 125.955 15.8271C132.068 15.4313 138.076 18.0078 142.81 23.0555C145.158 25.593 147.351 28.8253 148.183 32.7295C148.904 36.1202 148.317 39.9614 146.221 42.3361C145.703 42.918 145.097 43.3538 144.443 43.616C143.788 43.8782 143.099 43.961 142.419 43.8592C140.792 43.6395 139.292 42.5269 137.993 41.2982C135.466 38.908 133.392 35.5782 130.314 34.3292C128.057 33.4134 125.128 34.2195 123.748 36.8752C123.435 37.4831 123.233 38.1755 123.155 38.9003C123.127 39.0549 123.144 39.2178 123.205 39.356C123.265 39.4942 123.364 39.5975 123.48 39.6448C123.599 39.6865 123.726 39.6655 123.833 39.5864C123.94 39.5073 124.019 39.3764 124.052 39.2221C124.415 35.8772 127.576 34.6291 129.794 35.3929C133.028 36.5067 135.199 40.2618 137.853 42.6476C139.226 43.9801 140.845 44.8205 142.546 45.0848C144.021 45.2354 145.485 44.6502 146.641 43.4481C148.908 41.119 149.775 37.1132 149.273 33.5065C148.693 29.33 146.532 25.7504 144.162 22.9791C139.356 17.4203 133.117 14.4214 126.687 14.5802C123.408 14.6782 119.987 15.559 117.162 17.8141C114.421 20.0015 112.303 23.661 112.026 27.9148C111.783 31.659 113.327 35.5752 115.977 37.2156C116.602 37.6007 117.272 37.8468 117.959 37.9437C118.553 38.0318 118.548 36.8205 117.959 36.7331Z" fill="#3F3D56"/>
<path d="M196.573 19.5719C196.573 19.7121 196.53 19.8464 196.454 19.9455C196.377 20.0446 196.274 20.1005 196.166 20.1009H162.828C162.721 20.1009 162.617 20.0452 162.541 19.946C162.465 19.8468 162.422 19.7122 162.422 19.5719C162.422 19.4316 162.465 19.2971 162.541 19.1979C162.617 19.0987 162.721 19.043 162.828 19.043H196.166C196.274 19.0434 196.377 19.0993 196.454 19.1984C196.53 19.2975 196.573 19.4318 196.573 19.5719Z" fill="#3F3D56"/>
<path d="M196.166 28.0345H162.828C162.721 28.0345 162.617 27.9788 162.541 27.8796C162.465 27.7804 162.422 27.6458 162.422 27.5055C162.422 27.3652 162.465 27.2307 162.541 27.1315C162.617 27.0323 162.721 26.9766 162.828 26.9766H196.166C196.274 26.9766 196.378 27.0323 196.454 27.1315C196.53 27.2307 196.573 27.3652 196.573 27.5055C196.573 27.6458 196.53 27.7804 196.454 27.8796C196.378 27.9788 196.274 28.0345 196.166 28.0345Z" fill="#3F3D56"/>
<path d="M196.166 35.97H162.828C162.721 35.97 162.617 35.9143 162.541 35.8151C162.465 35.7159 162.422 35.5814 162.422 35.4411C162.422 35.3008 162.465 35.1662 162.541 35.067C162.617 34.9678 162.721 34.9121 162.828 34.9121H196.166C196.274 34.9121 196.378 34.9678 196.454 35.067C196.53 35.1662 196.573 35.3008 196.573 35.4411C196.573 35.5814 196.53 35.7159 196.454 35.8151C196.378 35.9143 196.274 35.97 196.166 35.97Z" fill="#3F3D56"/>
<path d="M196.166 43.9056H162.828C162.721 43.9056 162.617 43.8499 162.541 43.7507C162.465 43.6515 162.422 43.5169 162.422 43.3766C162.422 43.2363 162.465 43.1018 162.541 43.0026C162.617 42.9034 162.721 42.8477 162.828 42.8477H196.166C196.274 42.8477 196.378 42.9034 196.454 43.0026C196.53 43.1018 196.573 43.2363 196.573 43.3766C196.573 43.5169 196.53 43.6515 196.454 43.7507C196.378 43.8499 196.274 43.9056 196.166 43.9056Z" fill="#3F3D56"/>
<path d="M196.166 51.8392H162.828C162.721 51.8392 162.617 51.7834 162.541 51.6842C162.465 51.585 162.422 51.4505 162.422 51.3102C162.422 51.1699 162.465 51.0354 162.541 50.9362C162.617 50.837 162.721 50.7812 162.828 50.7812H196.166C196.274 50.7812 196.378 50.837 196.454 50.9362C196.53 51.0354 196.573 51.1699 196.573 51.3102C196.573 51.4505 196.53 51.585 196.454 51.6842C196.378 51.7834 196.274 51.8392 196.166 51.8392Z" fill="#3F3D56"/>
<path d="M196.166 59.7728H162.828C162.721 59.7728 162.617 59.7171 162.541 59.6179C162.465 59.5187 162.422 59.3841 162.422 59.2438C162.422 59.1035 162.465 58.969 162.541 58.8698C162.617 58.7706 162.721 58.7148 162.828 58.7148H196.166C196.274 58.7148 196.378 58.7706 196.454 58.8698C196.53 58.969 196.573 59.1035 196.573 59.2438C196.573 59.3841 196.53 59.5187 196.454 59.6179C196.378 59.7171 196.274 59.7728 196.166 59.7728Z" fill="#3F3D56"/>
<path d="M75.6757 130.42C74.5427 130.424 73.4488 129.881 72.6059 128.896C72.1342 128.348 71.7534 127.681 71.487 126.935C71.2205 126.19 71.074 125.381 71.0565 124.559L53.0149 107.487C52.4705 106.972 52.0184 106.309 51.6898 105.545C51.3611 104.781 51.1636 103.933 51.111 103.06C51.0583 102.187 51.1517 101.309 51.3848 100.488C51.6178 99.6661 51.985 98.92 52.461 98.3008L65.8929 80.8246C66.4464 80.1045 67.1516 79.6141 67.9193 79.4154C68.687 79.2167 69.4828 79.3186 70.206 79.7084C70.9291 80.0981 71.5472 80.7581 71.9821 81.6049C72.417 82.4517 72.649 83.4473 72.649 84.4657C72.5393 87.1373 71.73 89.6795 70.3556 91.6695L61.2355 103.536L75.5499 118.381C75.5939 118.377 75.6381 118.374 75.6829 118.374C76.8647 118.374 78.0019 118.962 78.8613 120.018C79.7206 121.073 80.2372 122.517 80.305 124.052C80.3728 125.587 79.9867 127.098 79.2259 128.275C78.4651 129.451 77.3872 130.205 76.2131 130.381C76.0346 130.407 75.8552 130.42 75.6757 130.42Z" fill="#FFB8B8"/>
<path d="M97.1125 231.257L101.953 228.905L97.2865 203.492L90.1416 206.963L97.1125 231.257Z" fill="#FFB8B8"/>
<path d="M112.966 230.219L97.7513 237.609L95.5568 229.961L105.101 225.325C106.605 224.594 108.27 224.671 109.731 225.538C111.191 226.405 112.327 227.991 112.888 229.948L112.966 230.219Z" fill="#2F2E41"/>
<path d="M53.5616 232.409H58.729L61.187 206.477L53.5608 206.477L53.5616 232.409Z" fill="#FFB8B8"/>
<path d="M68.6963 238.652L52.4562 238.653L52.4559 230.49L62.6436 230.489C64.2488 230.489 65.7883 231.318 66.9234 232.795C68.0585 234.272 68.6962 236.275 68.6963 238.363L68.6963 238.652Z" fill="#2F2E41"/>
<path d="M59.138 225.332C59.0801 225.332 59.0219 225.328 58.9635 225.321L53.486 224.642C53.0417 224.587 52.6282 224.323 52.3234 223.898C52.0185 223.474 51.8432 222.92 51.8306 222.34C51.5145 206.906 50.7183 129.014 66.1242 111.164C66.3912 110.859 66.7224 110.664 67.0751 110.605C69.8656 110.107 79.2801 108.887 83.2651 114.102C83.5179 114.43 83.6931 114.846 83.7697 115.3L101.214 220.241C101.268 220.564 101.27 220.898 101.219 221.221C101.168 221.545 101.066 221.851 100.919 222.121C100.772 222.39 100.584 222.617 100.366 222.787C100.148 222.956 99.9052 223.065 99.6532 223.106L92.9647 224.194C92.7232 224.233 92.478 224.21 92.2435 224.125C92.0091 224.039 91.7901 223.894 91.5995 223.697C91.4088 223.5 91.2503 223.255 91.1334 222.977C91.0164 222.7 90.9432 222.394 90.9182 222.079C90.2527 213.644 86.2538 170.796 72.8525 155.607C72.6711 155.4 72.4526 155.255 72.217 155.186C71.9814 155.117 71.7363 155.127 71.5042 155.213C71.2768 155.295 71.0692 155.451 70.901 155.666C70.7328 155.882 70.6096 156.149 70.5429 156.444C68.062 167.005 60.0392 203.004 60.9612 222.809C60.9766 223.133 60.9409 223.457 60.8562 223.763C60.7715 224.068 60.6397 224.347 60.4689 224.583C60.2981 224.82 60.0919 225.008 59.863 225.137C59.6341 225.266 59.3874 225.332 59.138 225.332Z" fill="#2F2E41"/>
<path d="M69.6821 68.2262C75.1969 68.2262 79.6676 62.4095 79.6676 55.2342C79.6676 48.0589 75.1969 42.2422 69.6821 42.2422C64.1672 42.2422 59.6965 48.0589 59.6965 55.2342C59.6965 62.4095 64.1672 68.2262 69.6821 68.2262Z" fill="#FFB8B8"/>
<path d="M59.8767 79.7035C59.8767 79.7035 69.1494 65.4454 76.7361 76.9615C81.6176 84.3713 84.1994 93.8837 83.9767 103.639L83.6906 116.171L66.199 112.607L59.8767 79.7035Z" fill="#008037"/>
<path d="M84.244 107.33C84.1713 107.33 84.0984 107.328 84.0255 107.324C83.2782 107.284 82.5465 107.033 81.881 106.589C81.2154 106.145 80.6319 105.519 80.1707 104.752L68.8213 85.925C68.3383 85.1236 68.0487 84.1539 67.9892 83.1384C67.9298 82.123 68.103 81.1073 68.4872 80.22C68.8714 79.3327 69.4491 78.6135 70.1474 78.1534C70.8457 77.6932 71.6332 77.5129 72.4103 77.635L74.0082 77.8863C75.0285 78.1193 75.9569 78.7998 76.6388 79.8144L85.5916 94.6664L98.6371 77.9584C98.6395 77.9011 98.6425 77.8437 98.6478 77.7859C98.7569 76.61 99.1299 75.5021 99.7204 74.6006C100.311 73.6992 101.092 73.0443 101.967 72.7178C102.843 72.3913 103.772 72.4077 104.64 72.7649C105.508 73.1222 106.276 73.8045 106.847 74.7264C107.418 75.6484 107.768 76.769 107.853 77.9483C107.937 79.1276 107.753 80.3131 107.322 81.3566C106.891 82.4 106.234 83.2551 105.432 83.8149C104.629 84.3747 103.718 84.6144 102.812 84.5039L88.0323 105.182C87.5484 105.86 86.9622 106.401 86.3104 106.77C85.6586 107.14 84.9551 107.331 84.244 107.33Z" fill="#FFB8B8"/>
<path d="M71.2998 57.4828L75.5899 50.9069C76.6955 49.2122 77.852 47.3663 78.0083 45.1527C78.1797 42.7262 77.0454 40.3676 75.4945 39.0015C73.9437 37.6353 72.0394 37.1212 70.1721 36.9326C66.709 36.5827 63.0648 37.3274 60.2178 39.9167C57.3709 42.5061 55.5083 47.1809 56.2025 51.6091C56.7491 55.0959 58.7631 58.4361 57.9803 61.8457C57.1238 65.5766 53.6111 66.7212 50.7432 67.8338C45.9294 69.7012 41.3328 73.3775 38.81 79.0291C36.2873 84.6808 36.2983 92.4737 39.6612 97.3287C41.8388 100.472 45.1231 102.062 48.3706 102.301C51.6181 102.541 54.8504 101.545 57.9303 100.184C60.7667 98.9308 63.5725 97.3184 65.8056 94.7205C68.0386 92.1226 69.6473 88.4049 69.5776 84.5084C69.5113 80.7951 67.9825 77.4126 67.3544 73.7893C66.859 70.7552 66.989 67.6047 67.7312 64.6571C68.4735 61.7094 69.8015 59.0696 71.5807 57.0051" fill="#2F2E41"/>
<path d="M279.511 188.841H177.464C176.71 188.84 175.986 188.45 175.453 187.756C174.919 187.062 174.619 186.12 174.618 185.139V113.199C174.619 112.217 174.919 111.276 175.453 110.582C175.986 109.888 176.71 109.497 177.464 109.496H279.511C280.266 109.497 280.989 109.888 281.522 110.582C282.056 111.276 282.356 112.217 282.357 113.199V185.139C282.356 186.12 282.056 187.062 281.522 187.756C280.989 188.45 280.266 188.84 279.511 188.841ZM177.464 110.554C176.925 110.555 176.409 110.834 176.028 111.33C175.647 111.825 175.432 112.498 175.432 113.199V185.139C175.432 185.84 175.647 186.512 176.028 187.008C176.409 187.504 176.925 187.783 177.464 187.783H279.511C280.05 187.783 280.567 187.504 280.948 187.008C281.329 186.512 281.543 185.84 281.544 185.139V113.199C281.543 112.498 281.329 111.825 280.948 111.33C280.567 110.834 280.05 110.555 279.511 110.554H177.464Z" fill="#3F3D56"/>
<path d="M217.602 140.788C216.384 136.994 214.492 133.83 211.746 131.732C208.861 129.529 205.568 127.694 202.25 127.032C198.928 126.393 195.542 126.64 192.296 127.757C190.731 128.284 189.006 128.896 187.687 130.159C186.425 131.365 185.561 133.351 184.858 135.134C184.184 136.843 183.763 138.724 184.128 140.638C184.525 142.38 185.351 143.905 186.48 144.975C187.44 145.963 188.783 147.269 190.068 146.658C190.141 146.623 190.211 146.577 190.275 146.521C192.494 147.4 194.7 146.122 196.977 145.122C198.362 144.514 199.753 144.207 201.143 144.966C202.501 145.793 203.648 147.112 204.445 148.764C205.222 150.27 205.734 151.98 206.586 153.423C207.011 154.166 207.55 154.785 208.169 155.24C208.789 155.695 209.475 155.976 210.183 156.065C212.935 156.466 216.587 156.097 218.172 152.707C219.862 149.094 218.756 144.384 217.602 140.788ZM189.511 135.24C189.919 135.3 190.328 135.361 190.736 135.421C189.958 135.603 189.231 136.047 188.625 136.708C188.395 136.961 188.182 137.238 187.988 137.537C187.993 137.513 187.996 137.49 188.002 137.466C188.122 136.979 188.318 136.531 188.578 136.148C188.838 135.765 189.155 135.456 189.511 135.24ZM203.214 138.631C203.305 138.72 203.41 138.779 203.522 138.802C203.535 138.805 203.548 138.808 203.561 138.811C203.637 138.868 203.713 138.924 203.789 138.98C203.781 138.995 203.774 139.012 203.766 139.028C203.579 139.003 203.393 138.979 203.206 138.955C203.219 138.848 203.222 138.739 203.214 138.631ZM208.154 146.231C208.112 146.288 208.076 146.35 208.045 146.417C208.027 146.383 208.008 146.348 207.99 146.314C208.041 146.275 208.096 146.247 208.154 146.231ZM211.344 150.723C211.529 150.755 211.714 150.786 211.898 150.818C211.864 150.896 211.839 150.98 211.823 151.068C211.692 151.074 211.56 151.077 211.428 151.077L211.344 150.723ZM214.023 148.675L214.246 148.625C214.363 148.6 214.474 148.543 214.572 148.456C214.573 148.473 214.574 148.49 214.574 148.507C214.576 148.565 214.58 148.638 214.586 148.72C214.568 148.762 214.549 148.803 214.53 148.844C214.361 148.787 214.192 148.731 214.023 148.675ZM204.509 135.873C204.42 135.777 204.319 135.7 204.211 135.646C203.688 135.382 203.151 135.164 202.605 134.992C202.523 134.892 202.444 134.789 202.366 134.684C202.827 134.802 203.282 134.953 203.731 135.136C204.305 135.376 204.869 135.658 205.419 135.981C205.116 135.937 204.812 135.901 204.509 135.873ZM209.634 136.32C209.366 136.102 209.097 135.889 208.826 135.679C209.104 135.883 209.378 136.096 209.647 136.319L209.634 136.32ZM215.16 139.601C214.443 138.46 213.649 137.403 212.789 136.443C212.856 136.244 212.889 136.03 212.888 135.813C213.789 136.918 214.555 138.196 215.16 139.601ZM204.854 130.261C204.741 130.227 204.627 130.192 204.514 130.159C203.436 129.843 202.339 129.502 201.232 129.213C201.291 129.222 201.35 129.229 201.41 129.239C202.58 129.441 203.733 129.783 204.854 130.261Z" fill="#008037"/>
<path d="M205.792 170.317C204.767 170.279 203.491 170.233 202.508 169.299C202.215 169.009 201.975 168.64 201.803 168.216C201.632 167.793 201.534 167.326 201.516 166.848C201.498 166.509 201.541 166.168 201.641 165.854C201.741 165.539 201.896 165.259 202.093 165.035C202.385 164.751 202.728 164.566 203.09 164.499C203.452 164.431 203.821 164.482 204.164 164.647L203.327 156.688L203.941 156.578L204.925 165.936L204.412 165.629C203.817 165.274 203.001 165.094 202.493 165.652C202.368 165.798 202.271 165.979 202.209 166.181C202.147 166.384 202.122 166.602 202.136 166.82C202.151 167.175 202.224 167.523 202.352 167.838C202.479 168.153 202.657 168.429 202.874 168.647C203.639 169.374 204.656 169.468 205.81 169.51L205.792 170.317Z" fill="#3F3D56"/>
<path d="M200.285 157.373H196.944V158.18H200.285V157.373Z" fill="#3F3D56"/>
<path d="M210.829 157.373H207.488V158.18H210.829V157.373Z" fill="#3F3D56"/>
<path d="M191.142 146.229C188.452 145.83 186.368 142.476 186.139 139.074C185.867 135.026 187.679 131.181 190.165 128.909C192.764 126.534 196.003 125.542 199.137 125.323C205.25 124.927 211.258 127.504 215.993 132.552C218.341 135.089 220.534 138.321 221.365 142.226C222.087 145.616 221.499 149.457 219.403 151.832C218.885 152.414 218.279 152.85 217.625 153.112C216.971 153.374 216.281 153.457 215.601 153.355C213.975 153.136 212.474 152.023 211.175 150.794C208.649 148.404 206.574 145.074 203.496 143.825C201.239 142.909 198.31 143.716 196.931 146.371C196.618 146.979 196.415 147.672 196.338 148.396C196.309 148.551 196.327 148.714 196.387 148.852C196.447 148.99 196.546 149.094 196.663 149.141C196.781 149.183 196.908 149.162 197.015 149.082C197.123 149.003 197.201 148.872 197.235 148.718C197.597 145.373 200.758 144.125 202.976 144.889C206.21 146.003 208.382 149.758 211.035 152.144C212.409 153.476 214.027 154.317 215.728 154.581C217.204 154.731 218.667 154.146 219.823 152.944C222.09 150.615 222.957 146.609 222.456 143.003C221.875 138.826 219.715 135.247 217.344 132.475C212.538 126.916 206.299 123.918 199.87 124.076C196.591 124.174 193.169 125.055 190.344 127.31C187.604 129.498 185.486 133.157 185.209 137.411C184.965 141.155 186.509 145.071 189.159 146.712C189.784 147.097 190.454 147.343 191.142 147.44C191.736 147.528 191.731 146.317 191.142 146.229Z" fill="#3F3D56"/>
<path d="M269.345 129.597H236.007C235.899 129.597 235.796 129.541 235.72 129.442C235.643 129.343 235.601 129.208 235.601 129.068C235.601 128.928 235.643 128.793 235.72 128.694C235.796 128.595 235.899 128.539 236.007 128.539H269.345C269.453 128.539 269.556 128.595 269.633 128.694C269.709 128.793 269.752 128.928 269.752 129.068C269.752 129.208 269.709 129.343 269.633 129.442C269.556 129.541 269.453 129.597 269.345 129.597Z" fill="#3F3D56"/>
<path d="M269.345 137.531H236.007C235.899 137.531 235.796 137.475 235.72 137.376C235.643 137.276 235.601 137.142 235.601 137.002C235.601 136.861 235.643 136.727 235.72 136.628C235.796 136.528 235.899 136.473 236.007 136.473H269.345C269.453 136.473 269.556 136.528 269.633 136.628C269.709 136.727 269.752 136.861 269.752 137.002C269.752 137.142 269.709 137.276 269.633 137.376C269.556 137.475 269.453 137.531 269.345 137.531Z" fill="#3F3D56"/>
<path d="M269.345 145.466H236.007C235.899 145.466 235.796 145.41 235.72 145.311C235.643 145.212 235.601 145.077 235.601 144.937C235.601 144.797 235.643 144.662 235.72 144.563C235.796 144.464 235.899 144.408 236.007 144.408H269.345C269.453 144.408 269.556 144.464 269.633 144.563C269.709 144.662 269.752 144.797 269.752 144.937C269.752 145.077 269.709 145.212 269.633 145.311C269.556 145.41 269.453 145.466 269.345 145.466Z" fill="#3F3D56"/>
<path d="M269.345 153.402H236.007C235.899 153.402 235.796 153.346 235.72 153.247C235.643 153.148 235.601 153.013 235.601 152.873C235.601 152.732 235.643 152.598 235.72 152.499C235.796 152.399 235.899 152.344 236.007 152.344H269.345C269.453 152.344 269.556 152.399 269.633 152.499C269.709 152.598 269.752 152.732 269.752 152.873C269.752 153.013 269.709 153.148 269.633 153.247C269.556 153.346 269.453 153.402 269.345 153.402Z" fill="#3F3D56"/>
<path d="M269.345 161.335H236.007C235.899 161.335 235.796 161.28 235.72 161.18C235.643 161.081 235.601 160.947 235.601 160.806C235.601 160.666 235.643 160.531 235.72 160.432C235.796 160.333 235.899 160.277 236.007 160.277H269.345C269.453 160.277 269.556 160.333 269.633 160.432C269.709 160.531 269.752 160.666 269.752 160.806C269.752 160.947 269.709 161.081 269.633 161.18C269.556 161.28 269.453 161.335 269.345 161.335Z" fill="#3F3D56"/>
<path d="M269.345 169.269H236.007C235.899 169.269 235.796 169.213 235.72 169.114C235.643 169.015 235.601 168.88 235.601 168.74C235.601 168.6 235.643 168.465 235.72 168.366C235.796 168.267 235.899 168.211 236.007 168.211H269.345C269.453 168.211 269.556 168.267 269.633 168.366C269.709 168.465 269.752 168.6 269.752 168.74C269.752 168.88 269.709 169.015 269.633 169.114C269.556 169.213 269.453 169.269 269.345 169.269Z" fill="#3F3D56"/>
<path d="M331.627 111.97C337.518 111.97 342.294 105.756 342.294 98.0904C342.294 90.425 337.518 84.2109 331.627 84.2109C325.735 84.2109 320.959 90.425 320.959 98.0904C320.959 105.756 325.735 111.97 331.627 111.97Z" fill="#FFB8B8"/>
<path d="M299.833 302.581L294.76 300.477L298.582 274.016L306.07 277.121L299.833 302.581Z" fill="#FFB8B8"/>
<path d="M291.369 296.99L301.383 301.144L299.42 309.159L283.475 302.547L283.549 302.247C283.797 301.234 284.196 300.294 284.723 299.481C285.251 298.669 285.896 297.999 286.622 297.511C287.348 297.023 288.141 296.726 288.956 296.637C289.77 296.547 290.59 296.668 291.369 296.99Z" fill="#2F2E41"/>
<path d="M336.744 302.445H331.419L328.885 275.723H336.744V302.445Z" fill="#FFB8B8"/>
<path d="M327.374 300.465H337.886V308.877H321.15V308.563C321.15 307.499 321.311 306.446 321.624 305.464C321.937 304.481 322.395 303.589 322.973 302.837C323.551 302.085 324.237 301.488 324.993 301.081C325.748 300.674 326.557 300.465 327.374 300.465Z" fill="#2F2E41"/>
<path d="M336.589 293.771L334.791 293.422C329.341 292.366 329.014 292.302 328.149 291.808C327.707 291.555 327.676 287.738 327.941 266.282C328.136 250.532 328.378 230.931 327.908 220.409C327.888 219.993 327.762 219.599 327.549 219.288C327.336 218.978 327.049 218.77 326.735 218.698C326.42 218.626 326.095 218.694 325.814 218.891C325.532 219.088 325.31 219.402 325.183 219.784C321.127 231.97 314.323 259.24 309.82 277.285C308.254 283.562 307.017 288.52 306.234 291.492C306.083 292.054 305.776 292.522 305.374 292.806C304.971 293.089 304.502 293.167 304.057 293.025C300.352 291.82 300.6 291.307 295.322 289.531C294.866 289.38 294.472 289.004 294.223 288.484C293.974 287.963 293.89 287.337 293.988 286.737C294.943 280.88 312.411 185.916 313.748 176.889C313.793 176.58 313.885 176.285 314.018 176.023C314.152 175.76 314.323 175.535 314.524 175.359C314.724 175.183 314.95 175.061 315.187 174.999C315.424 174.938 315.668 174.938 315.905 174.999C319.838 176.03 322.231 177.124 326.117 178.182C330.311 179.323 334.648 180.504 338.878 181.605C339.299 181.715 339.676 182.016 339.943 182.455C340.989 184.174 342.541 185.14 344.185 186.162C345.292 186.851 342.782 186.789 343.747 187.783C347.654 191.807 342.036 273.522 338.641 291.978C338.532 292.556 338.261 293.06 337.881 293.391C337.502 293.723 337.041 293.858 336.589 293.771Z" fill="#2F2E41"/>
<path d="M333.374 201.156C333.253 200.439 333.254 199.695 333.378 198.979C333.501 198.262 333.744 197.589 334.088 197.008C334.433 196.426 334.872 195.95 335.373 195.613C335.875 195.276 336.427 195.086 336.991 195.057L345.613 182.395L350.968 190.811L341.052 200.235C341.027 201.471 340.655 202.653 340.005 203.555C339.355 204.458 338.474 205.019 337.527 205.133C336.581 205.246 335.636 204.904 334.87 204.171C334.105 203.438 333.572 202.365 333.374 201.156Z" fill="#FFB8B8"/>
<path d="M336.173 110.234C335.551 106.796 338.699 99.3975 338.076 95.9592C337.655 93.6306 333.446 95.2135 332.464 93.1911C331.482 91.1686 329.837 89.5301 327.998 89.5033C325.885 89.4724 323.806 91.512 321.804 90.6305C319.78 89.7392 319.133 86.1327 320.027 83.608C320.922 81.0832 322.85 79.4743 324.755 78.2137C327.998 76.0669 331.775 74.4992 335.246 75.9195C337.344 76.7781 339.099 78.6386 340.797 80.4582C342.344 82.1169 343.918 83.8132 345 86.0097C347.12 90.3128 346.992 96.1107 345.181 100.646C343.369 105.181 340.069 108.509 336.432 110.441" fill="#2F2E41"/>
<path d="M309.978 190.25C311.13 187.747 312.878 176.022 315.034 156.341C316.501 142.906 317.78 129.255 318.414 122.282C318.464 121.717 318.622 121.178 318.875 120.716C319.129 120.253 319.468 119.881 319.862 119.636C320.273 119.377 320.683 119.133 321.089 118.902C326.343 115.929 331.668 114.943 336.914 115.973C342.153 117.02 347.067 119.933 351.111 124.39L351.159 124.449L351.171 124.532C351.194 124.687 353.397 140.136 348.884 150.573C344.433 160.872 344.381 188.144 344.381 188.418V188.769L344.122 188.673C337.197 186.098 310.449 190.602 310.179 190.648L309.763 190.719L309.978 190.25Z" fill="#CCCCCC"/>
<path d="M338.392 192.341L351.995 168.744L344.98 149.189L345.49 125.996L351.24 124.613L351.301 124.653C354.095 126.779 356.26 130.061 357.452 133.976C358.729 138.131 361.379 152.268 363.376 163.396C363.898 166.26 363.846 169.25 363.225 172.081C362.604 174.911 361.435 177.486 359.83 179.56L343.144 201.271L338.392 192.341Z" fill="#CCCCCC"/>
<path d="M281.292 145.579C281.617 144.979 282.039 144.478 282.529 144.113C283.019 143.748 283.564 143.528 284.127 143.467C284.69 143.406 285.256 143.506 285.785 143.76C286.315 144.014 286.795 144.417 287.192 144.939L300.193 144.678L299.029 155.498L286.993 152.332C286.275 153.142 285.354 153.581 284.403 153.566C283.453 153.551 282.54 153.083 281.837 152.25C281.134 151.418 280.691 150.279 280.59 149.05C280.49 147.82 280.739 146.585 281.292 145.579Z" fill="#FFB8B8"/>
<path d="M287.815 155.041L289.675 144.454L312.239 141.6L318.425 122.244L318.606 121.672L321.037 118.944L321.089 118.902C326.343 115.929 331.667 114.944 336.914 115.973L337.098 116.01L337.087 116.251C336.968 118.728 336.48 121.152 335.648 123.385C333.314 129.684 318.953 156.461 318.808 156.73L318.744 156.85L287.815 155.041Z" fill="#CCCCCC"/>
<path d="M395.992 309.976H241.092C240.984 309.976 240.881 309.92 240.805 309.821C240.728 309.722 240.686 309.587 240.686 309.447C240.686 309.307 240.728 309.172 240.805 309.073C240.881 308.974 240.984 308.918 241.092 308.918H395.992C396.099 308.918 396.203 308.974 396.279 309.073C396.355 309.172 396.398 309.307 396.398 309.447C396.398 309.587 396.355 309.722 396.279 309.821C396.203 309.92 396.099 309.976 395.992 309.976Z" fill="#3F3D56"/>
<path d="M155.306 238.566H0.40656C0.298734 238.566 0.195326 238.51 0.119082 238.411C0.0428367 238.312 0 238.177 0 238.037C0 237.896 0.0428367 237.762 0.119082 237.663C0.195326 237.564 0.298734 237.508 0.40656 237.508H155.306C155.414 237.508 155.517 237.564 155.594 237.663C155.67 237.762 155.713 237.896 155.713 238.037C155.713 238.177 155.67 238.312 155.594 238.411C155.517 238.51 155.414 238.566 155.306 238.566Z" fill="#3F3D56"/>
</g>
<defs>
<clipPath id="clip0_6263_27077">
<rect width="400" height="310" fill="white"/>
</clipPath>
</defs>
</svg>
