<svg width="400" height="300" viewBox="0 0 400 300" fill="none" xmlns="http://www.w3.org/2000/svg">
<g clip-path="url(#clip0_6263_27176)">
<path d="M365.498 267.434L366.099 253.945C372.358 250.602 379.339 248.836 386.437 248.801C376.669 256.78 377.889 272.161 371.267 282.891C369.176 286.221 366.361 289.039 363.032 291.136C359.702 293.232 355.943 294.553 352.034 295L343.859 300.001C342.738 293.753 342.985 287.337 344.584 281.194C346.183 275.051 349.097 269.328 353.123 264.418C355.409 261.686 358.03 259.253 360.925 257.175C362.883 262.333 365.498 267.434 365.498 267.434Z" fill="#F2F2F2"/>
<path d="M84.8643 147.514C84.3242 147.021 83.8988 146.416 83.6179 145.742C83.337 145.067 83.2076 144.339 83.2388 143.61C83.2699 142.88 83.4609 142.165 83.7981 141.517C84.1354 140.869 84.6109 140.303 85.191 139.858L79.5908 123.004L88.5109 125.398L92.4614 141.036C93.1446 142.059 93.4284 143.297 93.2591 144.515C93.0898 145.734 92.479 146.848 91.5426 147.646C90.6061 148.445 89.4091 148.872 88.1782 148.848C86.9474 148.823 85.7683 148.349 84.8643 147.514Z" fill="#A0616A"/>
<path d="M101.028 55.9436C102.508 56.7914 111.265 54.6908 112.976 55.2884C112.032 61.0434 117.159 58.8838 111.591 66.4417C106.023 73.9995 94.808 96.6601 92.2604 105.129C89.7127 113.599 92.2343 125.534 91.8527 129.548C91.6683 131.874 91.6798 134.211 91.8871 136.535C88.8787 136.497 85.9135 137.12 82.8581 136.722C79.5997 127.51 77.4089 114.398 75.9212 107.151C74.4336 99.9048 74.3791 102.969 75.0614 99.3458C75.7437 95.7223 75.909 98.3554 75.1922 94.8889C74.4755 91.4224 77.3741 87.067 80.0524 84.5836C81.2072 81.2651 82.6996 78.1709 83.8429 74.887C92.2207 67.5851 92.7715 63.367 101.028 55.9436Z" fill="#008037"/>
<path d="M344.438 290.653H337.037L333.516 262.129H344.44L344.438 290.653Z" fill="#FFB6B6"/>
<path d="M346.325 297.821L322.459 297.821V297.519C322.459 295.058 323.438 292.697 325.18 290.956C326.922 289.216 329.285 288.238 331.748 288.238L336.108 284.934L344.242 288.238L346.326 288.239L346.325 297.821Z" fill="#2F2E41"/>
<path d="M310.051 290.653H302.649L299.128 262.129H310.052L310.051 290.653Z" fill="#FFB6B6"/>
<path d="M311.941 297.821L288.075 297.821V297.519C288.075 295.058 289.054 292.697 290.796 290.956C292.538 289.216 294.901 288.238 297.365 288.238L301.725 284.934L309.859 288.238L311.942 288.239L311.941 297.821Z" fill="#2F2E41"/>
<path d="M306.847 134.709L354.992 135.912C364.135 140.873 364.274 151.613 361.278 164.364C361.278 164.364 362.289 171.942 360.267 173.963C358.244 175.984 357.232 175.984 358.244 179.521C359.255 183.058 353.912 188.834 354.561 189.483C355.21 190.131 356.727 193.668 356.727 193.668L351.67 222.467C351.67 222.467 348.13 272.486 347.119 273.496C346.107 274.507 345.096 273.496 346.107 276.022C347.119 278.549 348.13 277.538 347.119 278.549C346.223 279.514 345.379 280.526 344.59 281.58H332.364C332.364 281.58 331.442 276.528 331.442 276.022C331.442 275.517 330.431 272.486 330.431 271.98C330.431 271.475 331.325 270.582 331.325 270.582C331.634 269.555 331.842 268.5 331.948 267.433C331.948 266.423 334.982 227.519 334.982 227.519L328.914 176.995L314.249 226.509C314.249 226.509 314.249 269.959 313.237 270.97C312.226 271.98 312.226 271.475 312.731 273.496C313.237 275.517 315.26 275.012 313.743 276.528C312.226 278.043 311.72 275.517 312.226 278.043L312.731 280.57L297.561 280.786C297.561 280.786 295.538 276.528 296.549 275.012C297.561 273.496 297.5 273.91 296.266 271.429C295.032 268.949 294.527 268.444 295.032 267.938C295.538 267.433 295.538 264.746 295.538 264.746L298.066 216.404C298.066 216.404 298.572 165.374 298.572 163.858C298.61 163.078 298.466 162.3 298.152 161.585V159.528L300.089 152.238L306.847 134.709Z" fill="#2F2E41"/>
<path d="M335.768 34.6915C344.03 34.6915 350.727 28.0002 350.727 19.7461C350.727 11.492 344.03 4.80078 335.768 4.80078C327.507 4.80078 320.81 11.492 320.81 19.7461C320.81 28.0002 327.507 34.6915 335.768 34.6915Z" fill="#FFB6B6"/>
<path d="M328.287 44.5667C325.065 46.4808 323.137 49.9979 322.03 53.5767C319.982 60.2026 318.748 67.0532 318.358 73.9771L317.189 94.7059L302.713 138.844C315.259 149.45 362.417 141.254 362.417 141.254C362.417 141.254 363.865 140.772 362.417 139.326C360.97 137.879 359.56 139.161 361.008 137.714C362.456 136.268 361.458 137.879 360.975 136.433C360.493 134.987 360.975 135.951 361.458 135.469C361.94 134.987 357.722 130.648 357.722 130.648L361.582 105.312L366.408 54.2088C360.617 46.9771 348.972 42.7141 348.972 42.7141L345.963 37.3027L330.918 38.5053L328.287 44.5667Z" fill="#3F3D56"/>
<path d="M326.236 10.9738C326.814 10.9783 327.391 11.0538 327.951 11.1986C329.056 11.464 330.177 11.652 331.308 11.7612C334.771 12.0867 338.025 13.5622 340.55 15.9521C343.076 18.342 344.726 21.5084 345.239 24.9456C346.108 24.1884 348.086 22.7956 349.707 24.0901C349.732 24.1106 349.746 24.1212 349.803 24.0942C350.88 23.5839 352.791 17.3029 352.849 11.7726C352.88 8.83732 352.417 5.0891 350.041 3.90213L349.916 3.83959L349.883 3.70365C349.724 3.04338 347.951 1.9163 344.868 1.03906C339.266 -0.555116 331.081 -0.785584 326.379 3.78469C326.023 5.32544 324.7 5.74762 323.531 6.12135C322.236 6.53503 321.117 6.89202 320.941 8.47915C320.794 10.7378 320.804 13.0039 320.973 15.261C321.412 13.8799 322.273 12.671 323.436 11.8046C324.262 11.2486 325.239 10.9587 326.236 10.9738Z" fill="#2F2E41"/>
<path d="M298.394 93.5548L322.83 77.9198L310.522 61.5742L298.37 76.5097L260.505 78.8299C259.509 77.8463 258.248 77.1735 256.876 76.8935C255.504 76.6135 254.08 76.7383 252.778 77.2529C251.476 77.7674 250.352 78.6494 249.543 79.7913C248.733 80.9332 248.274 82.2857 248.221 83.6838C248.168 85.0819 248.523 86.4653 249.243 87.6652C249.963 88.8652 251.017 89.8298 252.277 90.4416C253.536 91.0533 254.947 91.2858 256.336 91.1106C257.725 90.9353 259.034 90.36 260.101 89.4547L298.394 93.5548Z" fill="#FFB6B6"/>
<path d="M345.509 56.0948C346.927 64.6699 320.146 81.0446 320.146 81.0446C320.145 79.0319 304.161 94.2264 303.439 92.5572C301.389 87.813 299.947 76.5762 297.082 74.7776C295.443 73.7491 306.951 64.0867 306.951 64.0867C306.951 64.0867 312.975 58.0236 320.879 50.3759C323.074 48.1724 325.791 46.5595 328.778 45.6873C331.764 44.8151 334.923 44.7121 337.96 45.3877C337.96 45.3877 344.091 47.5197 345.509 56.0948Z" fill="#3F3D56"/>
<path d="M318.278 154.55C318.289 163.726 316.751 172.839 313.729 181.504C313.59 181.907 313.446 182.304 313.301 182.707C307.115 199.493 295.608 213.799 280.533 223.449C279.504 224.11 278.463 224.741 277.404 225.355C265.36 232.331 251.725 236.103 237.805 236.31C237.348 236.316 236.89 236.322 236.433 236.322C235.843 236.322 235.26 236.316 234.676 236.304C220.737 236.027 207.102 232.18 195.077 225.132C194.018 224.513 192.975 223.87 191.948 223.202C175.211 212.362 163.007 195.794 157.626 176.604C152.244 157.415 154.055 136.923 162.718 118.973C162.911 118.57 163.109 118.173 163.314 117.77C170.137 104.242 180.586 92.872 193.496 84.9279C206.406 76.9838 221.271 72.7773 236.433 72.7773C251.595 72.7773 266.46 76.9838 279.37 84.9279C292.28 92.872 302.729 104.242 309.552 117.77C309.757 118.173 309.955 118.57 310.148 118.973C315.517 130.064 318.297 142.229 318.278 154.55Z" fill="#F2F2F2"/>
<path d="M292.959 181.506V182.708H300.288V181.506H292.959ZM278.299 181.506V182.708H285.629V181.506H278.299ZM263.639 181.506V182.708H270.969V181.506H263.639ZM248.979 181.506V182.708H256.309V181.506H248.979ZM234.319 181.506V182.708H241.649V181.506H234.319ZM219.659 181.506V182.708H226.989V181.506H219.659ZM204.999 181.506V182.708H212.329V181.506H204.999ZM190.345 181.506V182.708H197.669V181.506H190.345ZM175.685 181.506V182.708H183.015V181.506H175.685ZM161.025 181.506V182.708H168.355V181.506H161.025ZM313.733 181.506H307.618V182.708H313.305L313.733 181.506Z" fill="#E6E6E6"/>
<path d="M307.618 173.088V174.29H314.948V173.088H307.618ZM292.959 173.088V174.29H300.288V173.088H292.959ZM278.299 173.088V174.29H285.629V173.088H278.299ZM263.639 173.088V174.29H270.969V173.088H263.639ZM248.979 173.088V174.29H256.309V173.088H248.979ZM234.319 173.088V174.29H241.649V173.088H234.319ZM219.659 173.088V174.29H226.989V173.088H219.659ZM204.999 173.088V174.29H212.329V173.088H204.999ZM190.345 173.088V174.29H197.669V173.088H190.345ZM175.685 173.088V174.29H183.015V173.088H175.685ZM161.025 173.088V174.29H168.355V173.088H161.025Z" fill="#E6E6E6"/>
<path d="M307.618 155.652V156.855H314.948V155.652H307.618ZM292.959 155.652V156.855H300.288V155.652H292.959ZM278.299 155.652V156.855H285.629V155.652H278.299ZM263.639 155.652V156.855H270.969V155.652H263.639ZM248.979 155.652V156.855H256.309V155.652H248.979ZM234.319 155.652V156.855H241.649V155.652H234.319ZM219.659 155.652V156.855H226.989V155.652H219.659ZM204.999 155.652V156.855H212.329V155.652H204.999ZM190.345 155.652V156.855H197.669V155.652H190.345ZM175.685 155.652V156.855H183.015V155.652H175.685ZM161.025 155.652V156.855H168.355V155.652H161.025Z" fill="#E6E6E6"/>
<path d="M307.618 143.625V144.828H314.948V143.625H307.618ZM292.959 143.625V144.828H300.288V143.625H292.959ZM278.299 143.625V144.828H285.629V143.625H278.299ZM263.639 143.625V144.828H270.969V143.625H263.639ZM248.979 143.625V144.828H256.309V143.625H248.979ZM234.319 143.625V144.828H241.649V143.625H234.319ZM219.659 143.625V144.828H226.989V143.625H219.659ZM204.999 143.625V144.828H212.329V143.625H204.999ZM190.345 143.625V144.828H197.669V143.625H190.345ZM175.685 143.625V144.828H183.015V143.625H175.685ZM161.025 143.625V144.828H168.355V143.625H161.025Z" fill="#E6E6E6"/>
<path d="M309.552 117.771H307.615V118.974H310.148C309.956 118.571 309.757 118.174 309.552 117.771ZM292.955 117.771V118.974H300.285V117.771H292.955ZM278.295 117.771V118.974H285.625V117.771H278.295ZM263.635 117.771V118.974H270.965V117.771H263.635ZM248.975 117.771V118.974H256.305V117.771H248.975ZM234.315 117.771V118.974H241.645V117.771H234.315ZM219.655 117.771V118.974H226.985V117.771H219.655ZM204.995 117.771V118.974H212.325V117.771H204.995ZM190.341 117.771V118.974H197.665V117.771H190.341ZM175.682 117.771V118.974H183.012V117.771H175.682ZM163.315 117.771C163.11 118.174 162.911 118.571 162.719 118.974H168.352V117.771H163.315Z" fill="#E6E6E6"/>
<path d="M280.536 121.824V223.45C279.507 224.112 278.465 224.743 277.406 225.356V121.824H280.536Z" fill="#3F3D56"/>
<path d="M237.811 155.496V236.312C237.354 236.318 236.896 236.324 236.439 236.324C235.849 236.324 235.265 236.318 234.682 236.306V155.496H237.811Z" fill="#3F3D56"/>
<path d="M195.08 121.824V225.134C194.02 224.515 192.977 223.871 191.95 223.204V121.824H195.08Z" fill="#3F3D56"/>
<path d="M41.7396 260.145L40.5459 243.557C32.7264 239.652 24.0709 237.713 15.3311 237.908C27.6269 247.404 26.642 266.382 35.1575 279.371C37.8445 283.402 41.4049 286.777 45.5748 289.246C49.7447 291.715 54.4173 293.215 59.2463 293.634L69.4793 299.516C70.6499 291.786 70.1293 283.894 67.9533 276.385C65.7774 268.875 61.9978 261.926 56.875 256.017C53.9683 252.73 50.6589 249.822 47.0248 247.361C44.7881 253.778 41.7396 260.145 41.7396 260.145Z" fill="#F2F2F2"/>
<path d="M278.559 129.899C284.874 129.899 289.993 124.784 289.993 118.475C289.993 112.166 284.874 107.051 278.559 107.051C272.244 107.051 267.125 112.166 267.125 118.475C267.125 124.784 272.244 129.899 278.559 129.899Z" fill="#008037"/>
<path d="M284.43 113.714C284.258 113.55 284.029 113.459 283.792 113.459C283.554 113.459 283.325 113.55 283.153 113.714C280.727 115.648 278.548 117.872 276.665 120.336C276.202 119.442 275.74 118.549 275.278 117.655C274.744 116.623 273.186 117.535 273.719 118.565C274.395 119.872 275.071 121.18 275.747 122.487C275.829 122.62 275.944 122.731 276.08 122.807C276.217 122.884 276.37 122.924 276.527 122.924C276.683 122.924 276.837 122.884 276.974 122.807C277.11 122.731 277.225 122.62 277.306 122.487C279.313 119.663 281.712 117.139 284.43 114.99C284.598 114.82 284.692 114.591 284.692 114.352C284.692 114.113 284.598 113.884 284.43 113.714Z" fill="white"/>
<path d="M236.434 163.571C242.749 163.571 247.868 158.456 247.868 152.147C247.868 145.837 242.749 140.723 236.434 140.723C230.119 140.723 225 145.837 225 152.147C225 158.456 230.119 163.571 236.434 163.571Z" fill="#008037"/>
<path d="M242.305 147.384C242.133 147.22 241.904 147.129 241.667 147.129C241.429 147.129 241.2 147.22 241.028 147.384C238.602 149.318 236.423 151.541 234.54 154.006C234.077 153.112 233.615 152.219 233.153 151.325C232.619 150.293 231.061 151.204 231.594 152.235C232.27 153.542 232.946 154.85 233.622 156.157C233.704 156.29 233.819 156.401 233.955 156.477C234.092 156.554 234.245 156.594 234.402 156.594C234.558 156.594 234.712 156.554 234.849 156.477C234.985 156.401 235.1 156.29 235.181 156.157C237.188 153.333 239.587 150.809 242.305 148.66C242.473 148.49 242.567 148.261 242.567 148.022C242.567 147.783 242.473 147.554 242.305 147.384Z" fill="white"/>
<path d="M193.71 132.305C200.025 132.305 205.144 127.19 205.144 120.881C205.144 114.572 200.025 109.457 193.71 109.457C187.395 109.457 182.275 114.572 182.275 120.881C182.275 127.19 187.395 132.305 193.71 132.305Z" fill="#008037"/>
<path d="M199.576 116.119C199.404 115.955 199.176 115.863 198.938 115.863C198.7 115.863 198.472 115.955 198.3 116.119C195.874 118.052 193.694 120.276 191.811 122.74C191.349 121.847 190.887 120.953 190.424 120.059C189.891 119.028 188.332 119.939 188.865 120.97C189.542 122.277 190.218 123.584 190.894 124.891C190.976 125.025 191.09 125.135 191.227 125.211C191.363 125.288 191.517 125.328 191.673 125.328C191.83 125.328 191.984 125.288 192.12 125.211C192.257 125.135 192.371 125.025 192.453 124.891C194.46 122.067 196.858 119.543 199.576 117.394C199.744 117.224 199.839 116.995 199.839 116.756C199.839 116.518 199.744 116.289 199.576 116.119Z" fill="white"/>
<path d="M357.684 112.756L365.212 84.7575L345.097 80.9531L346.178 100.171L319.749 127.361C318.349 127.303 316.964 127.654 315.761 128.37C314.558 129.086 313.589 130.137 312.973 131.393C312.357 132.65 312.12 134.058 312.292 135.447C312.463 136.835 313.035 138.144 313.938 139.214C314.841 140.283 316.036 141.067 317.377 141.469C318.718 141.872 320.148 141.876 321.491 141.481C322.835 141.086 324.034 140.309 324.943 139.245C325.852 138.18 326.432 136.875 326.611 135.487L357.684 112.756Z" fill="#FFB6B6"/>
<path d="M367.269 53.3652C374.097 58.7506 365.333 88.8744 365.333 88.8744C363.976 87.3867 362.4 109.374 360.741 108.625C356.028 106.498 347.389 99.1602 344.058 99.7582C342.153 100.1 344.149 85.2147 344.149 85.2147C344.149 85.2147 344.516 76.6796 345.206 65.7075C345.343 62.6019 346.265 59.5815 347.885 56.9275C349.505 54.2735 351.771 52.0722 354.471 50.5284C354.471 50.5284 360.441 47.9797 367.269 53.3652Z" fill="#3F3D56"/>
<path d="M131.439 116.225L139.714 153.123L86.6846 149.827L101.105 113.59L131.439 116.225Z" fill="#A0616A"/>
<path d="M122.611 286.523L128.567 286.522L131.401 263.566H122.609L122.611 286.523Z" fill="#A0616A"/>
<path d="M120.59 283.585L130.007 283.023V287.054L138.96 293.232C139.402 293.537 139.735 293.975 139.91 294.483C140.085 294.99 140.094 295.54 139.934 296.053C139.774 296.566 139.454 297.014 139.021 297.332C138.588 297.65 138.065 297.822 137.528 297.822H126.317L124.384 293.834L123.63 297.822H119.403L120.59 283.585Z" fill="#2F2E41"/>
<path d="M66.3093 283.559L72.1312 284.821L79.7716 262.987L71.1797 261.125L66.3093 283.559Z" fill="#A0616A"/>
<path d="M64.9596 280.264L74.2813 281.709L73.426 285.649L80.8642 293.582C81.2317 293.974 81.4641 294.473 81.5277 295.006C81.5912 295.539 81.4826 296.078 81.2175 296.546C80.9525 297.013 80.5449 297.383 80.0544 297.602C79.5638 297.821 79.016 297.878 78.4909 297.764L67.5349 295.39L66.4925 291.084L64.9092 294.821L60.7783 293.925L64.9596 280.264Z" fill="#2F2E41"/>
<path d="M141.071 183.978C136.891 206.933 135.845 216.844 135.845 216.844C135.845 216.844 138.981 220.496 136.891 222.584C134.8 224.673 136.891 228.844 136.891 228.844L132.19 279.45L128.407 278.838L119.292 277.374L116.005 276.843L118.095 229.369C118.095 229.369 116.005 225.192 117.05 224.148C118.095 223.104 116.005 216.844 116.005 216.844L113.395 167.282L97.2042 221.54C97.2042 221.54 98.7748 223.629 97.2042 225.192C95.6394 226.755 92.5098 234.584 92.5098 234.584L82.8816 268.244L82.0642 271.102L77.0428 270.163L71.5777 269.137L70.5734 268.95L68.7867 268.612L67.6365 268.396L67.2453 268.326L65.3535 267.97L65.9257 265.432L66.2235 264.096L74.3686 227.951L74.5555 227.117L74.754 226.236C74.754 226.236 73.7089 223.629 75.2737 222.059C75.7315 221.581 76.0658 220.999 76.2479 220.362C76.43 219.726 76.4544 219.055 76.3188 218.408C76.2676 218.353 76.2207 218.294 76.1787 218.233C75.9939 217.979 75.8664 217.688 75.805 217.381C75.6649 216.727 75.7875 215.812 76.8443 214.756C77.1419 214.44 77.3917 214.082 77.5859 213.694C79.174 210.69 79.9739 204.325 79.9739 204.325C79.9739 204.325 81.3869 153.917 86.0112 146.217C86.2565 145.814 91.1656 138.087 91.4225 137.929C96.6424 134.802 137.31 139.121 137.31 139.121C137.31 139.121 139.773 145.732 139.884 146.421C140.486 150.288 144.615 164.505 141.071 183.978Z" fill="#2F2E41"/>
<path d="M128.716 62.5579C128.716 62.5579 129.596 57.9942 121.14 49.546C116.663 48.0552 108.907 48.9241 106.218 49.546C93.7834 65.9454 96.0098 63.0518 92.773 72.2147C91.9336 74.5907 91.5139 76.8736 91.887 78.7371C93.3792 86.1914 95.8017 124.456 95.3043 126.444C94.8069 128.431 91.3252 130.916 94.8069 130.916C98.2886 130.916 143.189 130.131 142.194 128.64C141.199 127.149 128.716 62.5579 128.716 62.5579Z" fill="#008037"/>
<path d="M182.037 123.192C181.355 123.456 180.624 123.567 179.894 123.518C179.165 123.469 178.455 123.261 177.815 122.908C177.174 122.555 176.619 122.066 176.189 121.475C175.758 120.885 175.462 120.207 175.322 119.49L157.725 116.993L163.843 110.08L179.616 113.511C180.837 113.356 182.073 113.654 183.09 114.348C184.106 115.042 184.832 116.084 185.131 117.278C185.429 118.471 185.279 119.732 184.709 120.822C184.139 121.912 183.188 122.756 182.037 123.192Z" fill="#A0616A"/>
<path d="M107.588 59.6194C109.007 58.673 110.618 58.2285 111.916 56.9648C116.652 60.3727 117.001 54.824 121.294 63.1712C125.586 71.5184 140.898 91.6436 147.353 97.6949C153.807 103.746 165.626 106.807 169.053 108.936C171.055 110.137 173.155 111.167 175.329 112.017C173.955 114.691 173.193 117.621 171.476 120.177C161.769 118.989 149.044 115.108 141.887 113.211C134.731 111.314 137.453 112.728 134.509 110.504C131.566 108.28 133.999 109.305 130.574 108.402C127.148 107.499 124.536 102.966 123.503 99.464C121.044 96.9529 118.936 94.2397 116.502 91.7544C113.691 81.0079 110.563 70.3118 107.588 59.6194Z" fill="#008037"/>
<path d="M118.7 43.1842C126.654 43.1842 133.102 36.7416 133.102 28.7943C133.102 20.8469 126.654 14.4043 118.7 14.4043C110.745 14.4043 104.297 20.8469 104.297 28.7943C104.297 36.7416 110.745 43.1842 118.7 43.1842Z" fill="#A0616A"/>
<path d="M128.32 55.0992C127.637 54.1251 122.533 44.4667 121.016 40.8143C120.86 41.6053 120.762 42.4065 120.721 43.2116L120.706 43.5116L120.408 43.5502C119.96 43.6074 109.367 44.8921 103.854 38.6465C100.588 34.947 99.8469 29.398 101.649 22.1503C101.321 22.086 101.007 21.9652 100.721 21.7931C100.244 21.4635 99.8453 21.0339 99.5518 20.5343C99.2584 20.0348 99.0775 19.4773 99.0219 18.9007L98.7167 18.9825C88.909 14.2142 97.3585 0.265537 106.317 7.20055C107.103 7.02513 107.922 7.07216 108.682 7.33635C109.416 7.63448 110.055 8.12531 110.532 8.75684C111.008 9.38836 111.305 10.137 111.391 10.9235C116.02 8.49111 122.145 8.88692 125.313 10.7119C126.64 11.4762 127.402 12.4387 127.537 13.5124C131.279 13.7212 135.304 17.3631 135.304 22.523V22.8823H134.944C133.439 22.9143 131.97 23.3548 130.696 24.1567C129.422 24.9586 128.39 26.0916 127.711 27.4344C126.791 29.0955 126.335 30.9736 126.393 32.8714C126.45 34.7691 127.018 36.6164 128.036 38.2191C129.145 39.9191 129.902 41.8236 130.263 43.8204C130.624 45.8172 130.581 47.866 130.137 49.8459L128.785 55.7624L128.32 55.0992Z" fill="#2F2E41"/>
<path d="M170.111 297.94C170.112 298.034 170.093 298.127 170.058 298.214C170.022 298.301 169.969 298.38 169.902 298.447C169.836 298.513 169.757 298.566 169.67 298.602C169.583 298.638 169.489 298.656 169.395 298.656H0.716146C0.526213 298.656 0.344056 298.58 0.209753 298.446C0.0754497 298.312 0 298.13 0 297.94C0 297.75 0.0754497 297.568 0.209753 297.434C0.344056 297.3 0.526213 297.225 0.716146 297.225H169.395C169.489 297.224 169.583 297.243 169.67 297.279C169.757 297.314 169.836 297.367 169.902 297.434C169.969 297.5 170.022 297.579 170.058 297.666C170.093 297.753 170.112 297.846 170.111 297.94Z" fill="#CCCCCC"/>
<path d="M399.999 297.94C399.999 298.034 399.981 298.127 399.945 298.214C399.909 298.301 399.857 298.38 399.79 298.447C399.723 298.513 399.644 298.566 399.557 298.602C399.47 298.638 399.377 298.656 399.283 298.656H230.604C230.414 298.656 230.232 298.58 230.097 298.446C229.963 298.312 229.888 298.13 229.888 297.94C229.888 297.75 229.963 297.568 230.097 297.434C230.232 297.3 230.414 297.225 230.604 297.225H399.283C399.377 297.224 399.47 297.243 399.557 297.279C399.644 297.314 399.723 297.367 399.79 297.434C399.857 297.5 399.909 297.579 399.945 297.666C399.981 297.753 399.999 297.846 399.999 297.94Z" fill="#CCCCCC"/>
<path d="M193.352 246.376C196.872 246.376 199.725 243.525 199.725 240.008C199.725 236.492 196.872 233.641 193.352 233.641C189.832 233.641 186.979 236.492 186.979 240.008C186.979 243.525 189.832 246.376 193.352 246.376Z" fill="#E6E6E6"/>
<path d="M236.079 252.989C239.599 252.989 242.453 250.138 242.453 246.622C242.453 243.105 239.599 240.254 236.079 240.254C232.56 240.254 229.706 243.105 229.706 246.622C229.706 250.138 232.56 252.989 236.079 252.989Z" fill="#E6E6E6"/>
<path d="M278.808 245.173C282.328 245.173 285.181 242.322 285.181 238.805C285.181 235.288 282.328 232.438 278.808 232.438C275.288 232.438 272.434 235.288 272.434 238.805C272.434 242.322 275.288 245.173 278.808 245.173Z" fill="#E6E6E6"/>
</g>
<defs>
<clipPath id="clip0_6263_27176">
<rect width="400" height="300" fill="white"/>
</clipPath>
</defs>
</svg>
