<svg width="50" height="50" viewBox="0 0 50 50" fill="none" xmlns="http://www.w3.org/2000/svg">
<path d="M13.6076 46.5434C13.6075 46.5434 13.6075 46.5434 13.6076 46.5434V46.5434ZM49.8261 33.4174C49.606 33.9205 49.2044 34.3074 48.6952 34.5066L45.8299 35.6277C45.5886 35.722 45.3365 35.7692 45.0845 35.7692C44.8047 35.7692 44.525 35.711 44.2602 35.5952C43.8693 35.4242 43.5501 35.1427 43.333 34.7872L40.0739 36.1769C40.1775 36.809 40.0804 37.4754 39.7523 38.0718C39.366 38.7743 38.7265 39.2824 37.9517 39.5025C37.9437 39.5047 37.9356 39.5063 37.9275 39.5084C38.219 40.2927 38.1839 41.1911 37.7539 41.9729C37.213 42.9563 36.1934 43.513 35.1432 43.513C34.9259 43.513 34.7074 43.4878 34.4915 43.439C34.5168 43.9665 34.4027 44.5055 34.1317 44.9981C33.5909 45.9814 32.5713 46.5382 31.521 46.5382C31.3933 46.5382 31.2654 46.5294 31.1377 46.5128C31.1773 47.0645 31.065 47.6328 30.7797 48.1516C30.2389 49.1349 29.2193 49.6917 28.169 49.6917C27.6848 49.6917 27.1943 49.5734 26.7409 49.3241L25.7125 48.7586C25.3339 49.2881 24.7937 49.6773 24.1576 49.87C23.8708 49.9569 23.578 50 23.2872 50C22.8053 50 22.3288 49.8818 21.8933 49.6488C21.2105 49.2837 20.7284 48.6882 20.4909 48.0092C20.3652 48.0671 20.2349 48.1172 20.1001 48.1581C19.8133 48.2451 19.5205 48.2881 19.2298 48.2881C18.7478 48.2881 18.2713 48.17 17.8357 47.937C17.2179 47.6065 16.7649 47.0873 16.508 46.4884C16.3098 46.6031 16.0971 46.6965 15.872 46.7646C15.5852 46.8515 15.2925 46.8946 15.0017 46.8946C14.5199 46.8946 14.0433 46.7763 13.6078 46.5434C12.9095 46.1699 12.3977 45.5447 12.1668 44.7828C12.025 44.3151 12.0004 43.8315 12.0886 43.3662C12.0298 43.3697 11.9711 43.3727 11.9125 43.3727C11.4306 43.3727 10.9542 43.2545 10.5186 43.0216C9.8203 42.6481 9.3085 42.0228 9.07765 41.2609C8.84679 40.4991 8.9253 39.695 9.29883 38.9966L10.0493 37.5934C9.85507 37.1605 9.76816 36.6858 9.68359 36.2227C9.52627 35.3602 9.4125 34.9384 9.05011 34.7977C8.78234 34.6938 7.97445 34.3388 6.46276 33.6605C6.07039 34.1589 5.46972 34.4439 4.84747 34.4439C4.56242 34.4439 4.27316 34.3843 3.99749 34.2583L1.19911 32.9794C0.169937 32.5091 -0.28474 31.289 0.185562 30.2598L5.9368 17.6756C6.4071 16.6463 7.62729 16.1917 8.65637 16.6621L11.4547 17.9409C12.4839 18.4114 12.9386 19.6314 12.4683 20.6606L12.2942 21.0415L14.8273 22.2102C14.8463 22.219 14.8649 22.2285 14.8832 22.2387C15.891 22.806 16.9365 22.559 18.2599 22.2463C19.9849 21.8388 22.1085 21.3382 24.5954 22.8061C28.0154 20.6893 30.6416 21.7601 32.5817 22.553C33.9922 23.1296 34.9012 23.4599 35.7783 23.0038L38.183 21.7166L38.1294 21.5795C37.7171 20.5257 38.239 19.333 39.2927 18.9206L42.158 17.7994C43.212 17.3873 44.4045 17.9092 44.817 18.9627C44.8171 18.9627 44.8171 18.9627 44.8171 18.9628L49.8587 31.8476C50.0578 32.3568 50.0461 32.9142 49.8261 33.4174ZM5.2958 32.5954L11.0469 20.0112C11.1573 19.7697 11.0465 19.4724 10.8049 19.3621L8.00667 18.0833C7.8889 18.0294 7.75609 18.0251 7.63266 18.0712C7.50913 18.1172 7.41147 18.2074 7.35776 18.3251L1.60643 30.9093C1.49608 31.1508 1.60682 31.448 1.84832 31.5583L4.64669 32.8372C4.88829 32.9476 5.18545 32.8367 5.2958 32.5954ZM12.3295 41.7474C12.6904 41.6381 12.9861 41.3973 13.1629 41.0691C13.1629 41.0691 14.557 38.463 14.5578 38.4617C14.9179 37.7884 14.6535 36.9108 13.98 36.5521C13.3081 36.1943 12.4319 36.4512 12.0687 37.1303C12.0687 37.1303 10.677 39.7323 10.6763 39.7335C10.3154 40.4084 10.5816 41.2836 11.2552 41.6438C11.5857 41.8205 11.9673 41.8572 12.3295 41.7474ZM16.2546 44.5868C16.2546 44.5868 18.1405 41.0608 18.1412 41.0594C18.5008 40.3872 18.2362 39.5081 17.5635 39.1498C16.8962 38.7945 16.0203 39.0468 15.655 39.7231L13.7655 43.2553C13.5888 43.5856 13.552 43.9672 13.6618 44.3296C13.7717 44.692 14.0141 44.9889 14.3444 45.1656C14.6748 45.3423 15.0561 45.3791 15.4186 45.2693C15.7811 45.1596 16.0781 44.9171 16.2546 44.5868ZM20.4827 45.9804C20.4827 45.9804 22.0074 43.1292 22.0082 43.1277C22.3684 42.4542 22.1041 41.5767 21.4305 41.2181C20.7538 40.8577 19.8803 41.1207 19.5191 41.7962L17.9936 44.6488C17.6265 45.3352 17.8862 46.1921 18.5725 46.5592C18.9029 46.7358 19.2843 46.7727 19.6468 46.6628C20.0092 46.553 20.3061 46.3106 20.4827 45.9804ZM24.5402 47.6922C24.5402 47.6922 25.8748 45.1966 25.8752 45.1959C26.2319 44.5289 25.9667 43.6427 25.2975 43.2864C24.6209 42.9261 23.7474 43.1888 23.3861 43.8645L22.0509 46.3611C21.6842 47.0473 21.944 47.9041 22.6301 48.271C22.9605 48.4478 23.3422 48.4847 23.7044 48.3746C24.0667 48.2649 24.3635 48.0225 24.5402 47.6922ZM28.9617 45.5487L27.6122 44.8066C27.6053 44.8027 27.599 44.7982 27.5922 44.7943C27.5579 45.1884 27.4445 45.5746 27.253 45.9328L26.472 47.3933L27.4937 47.9552C28.1758 48.3303 29.0356 48.0807 29.4106 47.3988C29.7639 46.7565 29.5597 45.954 28.9617 45.5487ZM37.8164 35.3962L30.2329 31.0738C28.9365 30.3347 27.3234 30.9879 25.4561 31.7439C22.6403 32.8839 19.1359 34.3026 16.1718 30.218C16.0415 30.0385 15.9937 29.8121 16.0402 29.5953C16.0867 29.3785 16.2233 29.1916 16.4158 29.0813C18.6665 27.792 20.558 26.38 22.0378 24.8846C22.416 24.5024 22.7994 24.1508 23.1844 23.8301C21.5176 23.0826 20.1027 23.4164 18.6189 23.767C17.1714 24.1089 15.6751 24.4624 14.1454 23.6164L11.6445 22.4626L7.16538 32.2635C8.05872 32.6642 9.31289 33.2238 9.61523 33.3412C10.7363 33.7764 11.0149 34.8546 11.18 35.7241C11.5267 35.3673 11.9604 35.1013 12.4514 34.9525C13.2135 34.7216 14.0175 34.8001 14.7158 35.1737C15.4121 35.5445 15.9238 36.1687 16.1553 36.9305C16.2115 37.1152 16.2492 37.3024 16.2692 37.49C16.9597 37.3392 17.6721 37.4359 18.2993 37.7714C18.9956 38.1422 19.5073 38.7663 19.7388 39.5282C19.7521 39.572 19.7642 39.6159 19.7754 39.66C19.8172 39.6453 19.8592 39.6313 19.9019 39.6183C20.6638 39.3874 21.468 39.466 22.1663 39.8395C22.8626 40.2104 23.3742 40.8345 23.6058 41.5963C23.6192 41.6401 23.6312 41.6842 23.6425 41.7282C23.6841 41.7136 23.7262 41.6994 23.7688 41.6865C24.5304 41.4557 25.3347 41.5342 26.0332 41.9077C26.3733 42.0888 26.669 42.3307 26.91 42.6193L30.8457 44.8014C31.5273 45.1762 32.3875 44.927 32.7627 44.245C33.1341 43.5698 32.8815 42.7082 32.1995 42.3244L27.5185 39.6898C27.1425 39.4782 27.0093 39.0018 27.2209 38.6257C27.4325 38.2498 27.9088 38.1165 28.2849 38.3281L34.4679 41.7763C35.1495 42.1511 36.0097 41.9017 36.3848 41.2198C36.7537 40.5492 36.5065 39.6952 35.835 39.3077C35.7916 39.2859 30.2693 36.1692 30.2693 36.1692C29.8936 35.957 29.7611 35.4805 29.9733 35.1048C30.1854 34.7292 30.6618 34.5963 31.0377 34.8088L36.4741 37.8796C36.792 38.059 37.1651 38.1016 37.5245 37.9995C37.8947 37.8943 38.1996 37.6525 38.3832 37.3188C38.7526 36.6475 38.4984 35.7849 37.8164 35.3962ZM42.7329 33.3446L38.7564 23.1819L36.5073 24.3857C34.9356 25.2032 33.4383 24.5913 31.9903 23.9994C30.0126 23.191 27.9675 22.3552 25.0119 24.3984C24.3927 24.8263 23.7658 25.3597 23.1484 25.9836C21.7477 27.399 20.0127 28.738 17.9823 29.9711C20.072 32.2376 22.3105 31.3317 24.8698 30.2957C26.926 29.4633 29.0521 28.6024 31.0067 29.7165L38.5902 34.0388C38.9218 34.2278 39.2042 34.4713 39.4326 34.7518L42.7329 33.3446ZM48.4034 32.417C48.4034 32.417 43.3641 19.5379 43.3618 19.5322C43.2663 19.2881 42.9713 19.159 42.7273 19.2546L39.862 20.3756C39.6148 20.4724 39.4876 20.763 39.5844 21.0103L44.6261 33.8951C44.6731 34.0156 44.7657 34.1111 44.8864 34.1639C45.0072 34.2168 45.1401 34.22 45.2605 34.1727L48.1258 33.0516C48.2463 33.0045 48.3418 32.912 48.3946 32.7912C48.4475 32.6704 48.4507 32.5375 48.4034 32.417ZM42.0283 20.5414C41.4289 20.5414 40.9399 21.0302 40.9399 21.6296C40.9399 22.229 41.4289 22.718 42.0283 22.718C42.6277 22.718 43.1166 22.229 43.1166 21.6296C43.1166 21.0302 42.6278 20.5414 42.0283 20.5414ZM8.63283 19.4071C8.03265 19.3736 7.51909 19.833 7.48559 20.4332C7.4521 21.0333 7.91146 21.5469 8.51164 21.5804C9.11182 21.6139 9.62539 21.1545 9.65888 20.5543C9.69238 19.9542 9.23301 19.4405 8.63283 19.4071ZM8.7424 14.2728C8.35657 13.7494 8.25003 13.1192 8.4424 12.4982C8.97814 10.7682 10.2167 9.42187 11.7905 8.72745C11.1771 8.10158 10.7979 7.24535 10.7979 6.30192C10.7979 4.38955 12.3538 2.83363 14.2662 2.83363C16.1786 2.83363 17.7343 4.38946 17.7343 6.30182C17.7343 7.24486 17.3555 8.10071 16.7427 8.72647C17.5145 9.06787 18.2093 9.56942 18.7836 10.2068C19.6586 9.0877 20.8281 8.2174 22.1714 7.70355C21.2275 6.90083 20.6271 5.70583 20.6271 4.37266C20.6271 1.96158 22.5888 0 24.9998 0C27.4109 0 29.3725 1.96158 29.3725 4.37276C29.3725 5.70603 28.772 6.90102 27.8282 7.70374C29.1715 8.2176 30.341 9.08799 31.216 10.2071C31.7904 9.56972 32.4851 9.06816 33.2569 8.72677C32.6441 8.1009 32.2652 7.24506 32.2652 6.30201C32.2652 4.38965 33.8211 2.83383 35.7335 2.83383C37.6458 2.83383 39.2018 4.38965 39.2018 6.30201C39.2018 7.24555 38.8226 8.10178 38.2092 8.72764C39.7829 9.42206 41.0215 10.7683 41.5572 12.4984C41.7496 13.1193 41.643 13.7496 41.2572 14.273C40.8712 14.7965 40.3007 15.0847 39.6506 15.0847H32.8435V15.739C32.8434 17.2165 31.6413 18.4186 30.164 18.4186H19.8356C18.3581 18.4186 17.1562 17.2165 17.1562 15.739V15.0845H10.349C9.69863 15.0844 9.12813 14.7963 8.7424 14.2728ZM35.7327 8.20773H35.7334H35.7342C36.7846 8.20734 37.6393 7.35258 37.6393 6.30201C37.6393 5.25116 36.7843 4.39629 35.7335 4.39629C34.6826 4.39629 33.8277 5.25116 33.8277 6.30201C33.8277 7.35258 34.6822 8.20734 35.7327 8.20773ZM32.0897 11.6091C32.3802 12.2067 32.5989 12.8474 32.7322 13.5223H39.6506C39.7999 13.5223 39.9108 13.4662 39.9996 13.3459C40.0882 13.2258 40.1089 13.1032 40.0647 12.9606C39.4739 11.0527 37.7338 9.77079 35.7346 9.7703C35.7343 9.7703 35.7339 9.7703 35.7336 9.7703C35.7333 9.7703 35.733 9.7703 35.7327 9.7703C34.2743 9.77049 32.9428 10.4514 32.0897 11.6091ZM24.9978 7.18295H24.9997H25.0018C26.5505 7.18188 27.8101 5.92165 27.8101 4.37276C27.81 2.82318 26.5494 1.56247 24.9998 1.56247C23.4503 1.56247 22.1896 2.82318 22.1896 4.37276C22.1896 5.92165 23.4492 7.18188 24.9978 7.18295ZM18.7186 14.3461V15.7389C18.7186 16.3549 19.2197 16.856 19.8356 16.856H30.1639C30.7799 16.856 31.2809 16.3548 31.281 15.7389V14.3461C30.9188 11.1507 28.2265 8.74639 25.0017 8.74542C25.0011 8.74542 25.0004 8.74542 24.9997 8.74542C24.9991 8.74542 24.9984 8.74532 24.9977 8.74532C21.7729 8.74639 19.0806 11.1508 18.7186 14.3461ZM14.2654 8.20754H14.2661C14.2661 8.20754 14.2666 8.20754 14.2668 8.20754C15.3173 8.20715 16.1718 7.35238 16.1718 6.30182C16.1718 5.25096 15.317 4.396 14.2661 4.396C13.2152 4.396 12.3603 5.25096 12.3603 6.30182C12.3603 7.35248 13.2149 8.20715 14.2654 8.20754ZM9.99999 13.3458C10.0887 13.466 10.1995 13.5221 10.3489 13.5221H17.2674C17.4007 12.8473 17.6193 12.2065 17.9098 11.609C17.0567 10.4513 15.7251 9.7704 14.2668 9.7701C14.2666 9.7701 14.2663 9.7701 14.266 9.7701C14.2657 9.7701 14.2653 9.7701 14.2649 9.7701C12.2656 9.77059 10.5255 11.0525 9.93466 12.9604C9.89061 13.1029 9.91132 13.2255 9.99999 13.3458Z" fill="#008037"/>
</svg>
