<svg width="50" height="50" viewBox="0 0 50 50" fill="none" xmlns="http://www.w3.org/2000/svg">
<path d="M31.6673 21.6667H35.834C36.055 21.6667 36.267 21.5789 36.4232 21.4226C36.5795 21.2663 36.6673 21.0543 36.6673 20.8333C36.6673 20.6123 36.5795 20.4004 36.4232 20.2441C36.267 20.0878 36.055 20 35.834 20H31.6673C31.4463 20 31.2343 20.0878 31.0781 20.2441C30.9218 20.4004 30.834 20.6123 30.834 20.8333C30.834 21.0543 30.9218 21.2663 31.0781 21.4226C31.2343 21.5789 31.4463 21.6667 31.6673 21.6667Z" fill="#008037"/>
<path d="M49.1667 20.0003C48.9457 20.0003 48.7337 20.0881 48.5774 20.2444C48.4211 20.4007 48.3333 20.6126 48.3333 20.8337V48.3337H5.83333C5.00924 48.3337 4.20366 48.0893 3.51846 47.6314C2.83325 47.1736 2.2992 46.5229 1.98384 45.7615C1.66847 45.0001 1.58596 44.1624 1.74673 43.3541C1.9075 42.5459 2.30434 41.8034 2.88705 41.2207C3.46977 40.638 4.2122 40.2412 5.02046 40.0804C5.82871 39.9196 6.66649 40.0021 7.42785 40.3175C8.18921 40.6329 8.83995 41.1669 9.29779 41.8521C9.75563 42.5373 10 43.3429 10 44.167C10 44.388 10.0878 44.6 10.2441 44.7562C10.4004 44.9125 10.6123 45.0003 10.8333 45.0003C11.0543 45.0003 11.2663 44.9125 11.4226 44.7562C11.5789 44.6 11.6667 44.388 11.6667 44.167V21.667H14.1667C14.3877 21.667 14.5996 21.5792 14.7559 21.4229C14.9122 21.2666 15 21.0547 15 20.8337C15 20.6126 14.9122 20.4007 14.7559 20.2444C14.5996 20.0881 14.3877 20.0003 14.1667 20.0003H11.6667V17.5003C11.6667 15.9532 11.0521 14.4695 9.95812 13.3755C8.86416 12.2816 7.38043 11.667 5.83333 11.667C4.28624 11.667 2.80251 12.2816 1.70854 13.3755C0.614581 14.4695 0 15.9532 0 17.5003V44.167C0.00176447 45.7135 0.616913 47.1963 1.71049 48.2898C2.80407 49.3834 4.28678 49.9986 5.83333 50.0003H49.1667C49.3877 50.0003 49.5996 49.9125 49.7559 49.7562C49.9122 49.6 50 49.388 50 49.167V20.8337C50 20.6126 49.9122 20.4007 49.7559 20.2444C49.5996 20.0881 49.3877 20.0003 49.1667 20.0003ZM1.66667 17.5003C1.66667 16.3953 2.10565 15.3354 2.88705 14.554C3.66846 13.7726 4.72826 13.3337 5.83333 13.3337C6.9384 13.3337 7.99821 13.7726 8.77961 14.554C9.56101 15.3354 10 16.3953 10 17.5003V40.0837C9.45739 39.5284 8.80928 39.0872 8.09375 38.786C7.37821 38.4848 6.60969 38.3296 5.83333 38.3296C5.05698 38.3296 4.28845 38.4848 3.57292 38.786C2.85738 39.0872 2.20927 39.5284 1.66667 40.0837V17.5003Z" fill="#008037"/>
<path d="M38.3932 30.31L39.7265 33.6433L41.7265 38.6433C41.7882 38.7982 41.895 38.9311 42.033 39.0247C42.171 39.1182 42.3339 39.1683 42.5007 39.1683C42.6674 39.1683 42.8303 39.1182 42.9683 39.0247C43.1063 38.9311 43.2131 38.7982 43.2748 38.6433L45.2748 33.6433L46.6082 30.31C46.6416 30.221 46.6594 30.1268 46.6607 30.0317C46.6607 30.0208 46.6673 30.0117 46.6673 30V15.8333C46.6673 15.6123 46.5795 15.4004 46.4232 15.2441C46.267 15.0878 46.055 15 45.834 15C45.613 15 45.401 15.0878 45.2447 15.2441C45.0884 15.4004 45.0007 15.6123 45.0007 15.8333V29.1667H43.334V10H45.0007V12.5C45.0007 12.721 45.0884 12.933 45.2447 13.0893C45.401 13.2455 45.613 13.3333 45.834 13.3333C46.055 13.3333 46.267 13.2455 46.4232 13.0893C46.5795 12.933 46.6673 12.721 46.6673 12.5V4.16667C46.6673 3.0616 46.2283 2.00179 45.4469 1.22039C44.6655 0.438987 43.6057 0 42.5007 0C41.3956 0 40.3358 0.438987 39.5544 1.22039C38.773 2.00179 38.334 3.0616 38.334 4.16667V30C38.334 30.0117 38.3398 30.0208 38.3407 30.0325C38.342 30.1273 38.3598 30.2212 38.3932 30.31ZM41.7315 34.1667H43.2698L42.5007 36.09L41.7315 34.1667ZM43.9365 32.5H41.0648L40.3982 30.8333H44.6031L43.9365 32.5ZM41.6673 29.1667H40.0007V10H41.6673V29.1667ZM40.0007 8.33333V6.66667H45.0007V8.33333H40.0007ZM40.0007 4.16667C40.0007 3.50363 40.264 2.86774 40.7329 2.3989C41.2017 1.93006 41.8376 1.66667 42.5007 1.66667C43.1637 1.66667 43.7996 1.93006 44.2684 2.3989C44.7373 2.86774 45.0007 3.50363 45.0007 4.16667V5H40.0007V4.16667Z" fill="#008037"/>
<path d="M18.3327 16.417V16.8179C17.8456 16.9876 17.4234 17.3046 17.1246 17.7251C16.8258 18.1456 16.6653 18.6487 16.6653 19.1645C16.6653 19.6804 16.8258 20.1834 17.1246 20.6039C17.4234 21.0244 17.8456 21.3415 18.3327 21.5112V21.667C18.3343 22.721 18.6685 23.7476 19.2876 24.6005C19.9068 25.4534 20.7794 26.0891 21.7811 26.417C20.891 27.3116 19.7731 27.9456 18.5486 28.2504L17.2777 28.5687C16.3023 28.8097 15.449 29.3998 14.8791 30.2273C14.3093 31.0549 14.0623 32.0625 14.1851 33.0598C14.3078 34.057 14.7917 34.9748 15.5452 35.6395C16.2987 36.3041 17.2696 36.6697 18.2744 36.667H19.9994C20.2204 36.667 20.4324 36.5792 20.5887 36.4229C20.7449 36.2667 20.8327 36.0547 20.8327 35.8337C20.8327 35.6127 20.7449 35.4007 20.5887 35.2444C20.4324 35.0881 20.2204 35.0004 19.9994 35.0004H18.2744C17.6786 34.9998 17.1036 34.7815 16.6576 34.3865C16.2115 33.9916 15.9252 33.4473 15.8525 32.8559C15.7798 32.2646 15.9257 31.6671 16.2628 31.1759C16.5999 30.6847 17.1049 30.3336 17.6827 30.1887L18.9536 29.8712C20.8843 29.3869 22.5867 28.2465 23.7694 26.6454C25.0143 26.5353 26.173 25.9633 27.0175 25.042C27.862 24.1207 28.3311 22.9168 28.3327 21.667V21.5137C28.8199 21.344 29.2421 21.0269 29.5409 20.6064C29.8397 20.1859 30.0002 19.6829 30.0002 19.167C30.0002 18.6512 29.8397 18.1481 29.5409 17.7276C29.2421 17.3071 28.8199 16.9901 28.3327 16.8204V16.417C29.6264 15.2632 30.479 13.6957 30.7445 11.9826C31.0101 10.2696 30.6722 8.51756 29.7886 7.02618C29.6762 6.83578 29.4928 6.69782 29.2787 6.64265C29.0646 6.58749 28.8373 6.61963 28.6469 6.73202C28.4565 6.8444 28.3185 7.02782 28.2634 7.24193C28.2082 7.45603 28.2403 7.68328 28.3527 7.87368C29.0685 9.0802 29.3236 10.505 29.0709 11.8849C28.8182 13.2648 28.0747 14.5067 26.9777 15.3812C26.8804 15.4593 26.8019 15.5582 26.748 15.6707C26.694 15.7832 26.666 15.9064 26.6661 16.0312V16.667H25.9302L26.6611 10.092C26.6765 9.95305 26.6567 9.81243 26.6035 9.68312C26.5503 9.55381 26.4654 9.43996 26.3567 9.35206C26.248 9.26416 26.1189 9.20503 25.9813 9.18012C25.8437 9.15521 25.7021 9.16532 25.5694 9.20952L23.3327 9.95535L21.0961 9.20952C20.9634 9.16532 20.8218 9.15521 20.6842 9.18012C20.5466 9.20503 20.4175 9.26416 20.3088 9.35206C20.2 9.43996 20.1152 9.55381 20.062 9.68312C20.0088 9.81243 19.989 9.95305 20.0044 10.092L20.7352 16.667H19.9994V16.0337C19.9994 15.9089 19.9714 15.7857 19.9175 15.6732C19.8635 15.5607 19.785 15.4618 19.6877 15.3837C18.5334 14.4638 17.7712 13.1401 17.5549 11.68C17.3387 10.2199 17.6846 8.73217 18.5227 7.5172C19.3609 6.30223 20.6289 5.45058 22.0706 5.13424C23.5123 4.81789 25.0204 5.06042 26.2902 5.81285C26.4806 5.92524 26.7079 5.95738 26.922 5.90222C27.1361 5.84705 27.3195 5.70909 27.4319 5.51868C27.5443 5.32828 27.5764 5.10103 27.5213 4.88693C27.4661 4.67282 27.3281 4.4894 27.1377 4.37702C25.5357 3.43384 23.6402 3.11973 21.8195 3.49571C19.9989 3.87168 18.3829 4.91089 17.2854 6.41152C16.188 7.91215 15.6875 9.76709 15.881 11.6161C16.0745 13.4651 16.9483 15.1762 18.3327 16.417ZM23.3327 25.0004C22.4487 25.0004 21.6008 24.6492 20.9757 24.024C20.3506 23.3989 19.9994 22.5511 19.9994 21.667H26.6661C26.6661 22.5511 26.3149 23.3989 25.6898 24.024C25.0646 24.6492 24.2168 25.0004 23.3327 25.0004ZM21.8052 11.2029L23.0694 11.6245C23.2403 11.6815 23.4251 11.6815 23.5961 11.6245L24.8602 11.2029L24.2536 16.667H22.4161L21.8052 11.2029ZM21.6661 18.3337H27.4994C27.7204 18.3337 27.9324 18.4215 28.0887 18.5778C28.2449 18.734 28.3327 18.946 28.3327 19.167C28.3327 19.388 28.2449 19.6 28.0887 19.7563C27.9324 19.9126 27.7204 20.0004 27.4994 20.0004H19.1661C18.9451 20.0004 18.7331 19.9126 18.5768 19.7563C18.4205 19.6 18.3327 19.388 18.3327 19.167C18.3327 18.946 18.4205 18.734 18.5768 18.5778C18.7331 18.4215 18.9451 18.3337 19.1661 18.3337H21.6661Z" fill="#008037"/>
<path d="M13.3333 11.6667C13.7936 11.6667 14.1667 11.2936 14.1667 10.8333C14.1667 10.3731 13.7936 10 13.3333 10C12.8731 10 12.5 10.3731 12.5 10.8333C12.5 11.2936 12.8731 11.6667 13.3333 11.6667Z" fill="#008037"/>
<path d="M33.3333 11.6667C33.7936 11.6667 34.1667 11.2936 34.1667 10.8333C34.1667 10.3731 33.7936 10 33.3333 10C32.8731 10 32.5 10.3731 32.5 10.8333C32.5 11.2936 32.8731 11.6667 33.3333 11.6667Z" fill="#008037"/>
<path d="M23.3333 1.66667C23.7936 1.66667 24.1667 1.29357 24.1667 0.833333C24.1667 0.373096 23.7936 0 23.3333 0C22.8731 0 22.5 0.373096 22.5 0.833333C22.5 1.29357 22.8731 1.66667 23.3333 1.66667Z" fill="#008037"/>
<path d="M14.2565 6.55501C14.3992 6.63742 14.5632 6.67566 14.7277 6.66488C14.8921 6.65411 15.0497 6.59481 15.1805 6.49447C15.3112 6.39414 15.4093 6.25729 15.4623 6.10121C15.5153 5.94514 15.5208 5.77687 15.4781 5.61766C15.4355 5.45846 15.3466 5.31548 15.2226 5.2068C15.0987 5.09813 14.9454 5.02864 14.782 5.00713C14.6185 4.98562 14.4524 5.01304 14.3046 5.08594C14.1568 5.15884 14.0339 5.27394 13.9515 5.41667C13.841 5.60807 13.811 5.83553 13.8682 6.04901C13.9254 6.26248 14.0651 6.4445 14.2565 6.55501Z" fill="#008037"/>
<path d="M31.5768 16.555C31.7195 16.6374 31.8835 16.6757 32.048 16.6649C32.2124 16.6541 32.37 16.5948 32.5008 16.4945C32.6315 16.3941 32.7296 16.2573 32.7826 16.1012C32.8356 15.9451 32.8411 15.7769 32.7984 15.6177C32.7558 15.4585 32.6669 15.3155 32.5429 15.2068C32.419 15.0981 32.2657 15.0286 32.1023 15.0071C31.9389 14.9856 31.7727 15.013 31.6249 15.0859C31.4771 15.1588 31.3542 15.2739 31.2718 15.4167C31.1613 15.6081 31.1314 15.8355 31.1886 16.049C31.2457 16.2625 31.3854 16.4445 31.5768 16.555Z" fill="#008037"/>
<path d="M28.5488 2.97818C28.9934 2.85906 29.2572 2.40211 29.1381 1.95756C29.0189 1.513 28.562 1.24918 28.1174 1.3683C27.6729 1.48742 27.4091 1.94437 27.5282 2.38892C27.6473 2.83348 28.1042 3.0973 28.5488 2.97818Z" fill="#008037"/>
<path d="M32.4101 6.55503C32.5529 6.47262 32.668 6.34973 32.7409 6.20191C32.8138 6.05409 32.8412 5.88797 32.8197 5.72456C32.7982 5.56115 32.7287 5.40779 32.62 5.28387C32.5113 5.15996 32.3684 5.07105 32.2092 5.02839C32.05 4.98574 31.8817 4.99125 31.7256 5.04423C31.5695 5.09721 31.4327 5.19529 31.3324 5.32605C31.232 5.45681 31.1727 5.61439 31.1619 5.77886C31.1512 5.94332 31.1894 6.10729 31.2718 6.25003C31.3823 6.44142 31.5643 6.58108 31.7778 6.63828C31.9913 6.69547 32.2188 6.66553 32.4101 6.55503Z" fill="#008037"/>
<path d="M15.3949 15.4167C15.3125 15.2739 15.1896 15.1588 15.0418 15.0859C14.8939 15.013 14.7278 14.9856 14.5644 15.0071C14.401 15.0286 14.2476 15.0981 14.1237 15.2068C13.9998 15.3155 13.9109 15.4585 13.8682 15.6177C13.8256 15.7769 13.8311 15.9451 13.8841 16.1012C13.9371 16.2573 14.0351 16.3941 14.1659 16.4945C14.2967 16.5948 14.4542 16.6541 14.6187 16.6649C14.7832 16.6757 14.9471 16.6374 15.0899 16.555C15.2813 16.4445 15.4209 16.2625 15.4781 16.049C15.5353 15.8355 15.5054 15.6081 15.3949 15.4167Z" fill="#008037"/>
<path d="M18.75 2.89487C18.8927 2.81246 19.0078 2.68958 19.0807 2.54175C19.1536 2.39393 19.1811 2.22781 19.1595 2.0644C19.138 1.90099 19.0685 1.74763 18.9599 1.62372C18.8512 1.4998 18.7082 1.41089 18.549 1.36824C18.3898 1.32558 18.2215 1.33109 18.0655 1.38407C17.9094 1.43706 17.7725 1.53513 17.6722 1.66589C17.5719 1.79665 17.5126 1.95423 17.5018 2.1187C17.491 2.28317 17.5292 2.44713 17.6117 2.58987C17.7222 2.78126 17.9042 2.92092 18.1177 2.97812C18.3311 3.03532 18.5586 3.00537 18.75 2.89487Z" fill="#008037"/>
<path d="M27.5008 43.333H30.8341C31.0551 43.333 31.2671 43.2452 31.4234 43.0889C31.5796 42.9327 31.6674 42.7207 31.6674 42.4997V41.0988C31.9503 40.9654 32.2218 40.8091 32.4791 40.6313L33.6908 41.3313C33.8822 41.4418 34.1096 41.4718 34.3231 41.4146C34.5366 41.3574 34.7186 41.2177 34.8291 41.0263L36.4958 38.1397C36.6063 37.9483 36.6362 37.7208 36.579 37.5073C36.5218 37.2939 36.3822 37.1119 36.1908 37.0013L34.9808 36.3022C34.9941 36.1447 35.0008 35.9888 35.0008 35.833C35.0008 35.6772 34.9941 35.5213 34.9808 35.3638L36.1908 34.6647C36.3822 34.5542 36.5218 34.3722 36.579 34.1587C36.6362 33.9452 36.6063 33.7177 36.4958 33.5263L34.8291 30.6397C34.7186 30.4483 34.5366 30.3086 34.3231 30.2514C34.1096 30.1942 33.8822 30.2242 33.6908 30.3347L32.4791 31.0347C32.2218 30.8569 31.9503 30.7006 31.6674 30.5672V29.1663C31.6674 28.9453 31.5796 28.7334 31.4234 28.5771C31.2671 28.4208 31.0551 28.333 30.8341 28.333H27.5008C27.2798 28.333 27.0678 28.4208 26.9115 28.5771C26.7552 28.7334 26.6674 28.9453 26.6674 29.1663V30.5672C26.3846 30.7006 26.1131 30.8569 25.8558 31.0347L24.6441 30.3347C24.4527 30.2242 24.2253 30.1942 24.0118 30.2514C23.7983 30.3086 23.6163 30.4483 23.5058 30.6397L21.8391 33.5263C21.7286 33.7177 21.6987 33.9452 21.7559 34.1587C21.8131 34.3722 21.9527 34.5542 22.1441 34.6647L23.3541 35.3638C23.3408 35.5213 23.3341 35.6772 23.3341 35.833C23.3341 35.9888 23.3408 36.1447 23.3541 36.3022L22.1441 37.0013C22.0486 37.0557 21.9647 37.1283 21.8974 37.2152C21.8301 37.3021 21.7806 37.4014 21.7518 37.5074C21.723 37.6135 21.7154 37.7242 21.7296 37.8332C21.7438 37.9422 21.7794 38.0473 21.8343 38.1424C21.8893 38.2376 21.9625 38.321 22.0498 38.3877C22.1371 38.4545 22.2367 38.5033 22.343 38.5314C22.4492 38.5595 22.56 38.5663 22.6689 38.5514C22.7778 38.5365 22.8826 38.5003 22.9774 38.4447L24.6674 37.4663C24.8165 37.3804 24.9354 37.2503 25.0076 37.0941C25.0798 36.9379 25.1019 36.7631 25.0708 36.5938C24.973 36.0913 24.973 35.5747 25.0708 35.0722C25.1019 34.9029 25.0798 34.7281 25.0076 34.5719C24.9354 34.4157 24.8165 34.2857 24.6674 34.1997L23.6958 33.638L24.5291 32.1947L25.5008 32.7563C25.65 32.8425 25.8224 32.8803 25.994 32.8645C26.1656 32.8487 26.3281 32.78 26.4591 32.668C26.8477 32.3363 27.294 32.0789 27.7758 31.9088C27.9387 31.8519 28.0799 31.7458 28.1799 31.6052C28.2799 31.4646 28.3338 31.2964 28.3341 31.1238V29.9997H30.0008V31.1238C30.0009 31.296 30.0543 31.4639 30.1537 31.6044C30.253 31.745 30.3935 31.8513 30.5558 31.9088C31.0375 32.0789 31.4839 32.3363 31.8724 32.668C32.0034 32.78 32.1659 32.8487 32.3376 32.8645C32.5092 32.8803 32.6815 32.8425 32.8308 32.7563L33.8024 32.1947L34.6358 33.638L33.6674 34.1997C33.5183 34.2857 33.3995 34.4157 33.3273 34.5719C33.2551 34.7281 33.233 34.9029 33.2641 35.0722C33.3619 35.5747 33.3619 36.0913 33.2641 36.5938C33.233 36.7631 33.2551 36.9379 33.3273 37.0941C33.3995 37.2503 33.5183 37.3804 33.6674 37.4663L34.6391 38.028L33.8058 39.4713L32.8341 38.9097C32.6849 38.8235 32.5125 38.7857 32.3409 38.8015C32.1693 38.8173 32.0068 38.886 31.8758 38.998C31.4872 39.3297 31.0409 39.5871 30.5591 39.7572C30.3968 39.8147 30.2564 39.921 30.157 40.0616C30.0576 40.2021 30.0042 40.37 30.0041 40.5422V41.6663H28.3341V40.5422C28.334 40.37 28.2806 40.2021 28.1812 40.0616C28.0818 39.921 27.9414 39.8147 27.7791 39.7572C27.2973 39.5871 26.851 39.3297 26.4624 38.998C26.3315 38.886 26.169 38.8173 25.9973 38.8015C25.8257 38.7857 25.6534 38.8235 25.5041 38.9097L23.8108 39.888C23.7152 39.9423 23.6314 40.015 23.5641 40.1019C23.4967 40.1887 23.4472 40.288 23.4184 40.3941C23.3896 40.5002 23.3821 40.6109 23.3963 40.7199C23.4104 40.8288 23.446 40.9339 23.501 41.0291C23.5559 41.1243 23.6292 41.2077 23.7165 41.2744C23.8038 41.3412 23.9034 41.39 24.0097 41.4181C24.1159 41.4462 24.2267 41.453 24.3355 41.4381C24.4444 41.4232 24.5493 41.3869 24.6441 41.3313L25.8558 40.6313C26.1131 40.8091 26.3846 40.9654 26.6674 41.0988V42.4997C26.6674 42.7207 26.7552 42.9327 26.9115 43.0889C27.0678 43.2452 27.2798 43.333 27.5008 43.333Z" fill="#008037"/>
<path d="M31.666 35.833C31.666 35.3386 31.5194 34.8552 31.2447 34.4441C30.97 34.033 30.5795 33.7125 30.1227 33.5233C29.6659 33.3341 29.1632 33.2846 28.6783 33.381C28.1933 33.4775 27.7479 33.7156 27.3983 34.0652C27.0486 34.4149 26.8105 34.8603 26.7141 35.3453C26.6176 35.8302 26.6671 36.3329 26.8563 36.7897C27.0455 37.2465 27.366 37.637 27.7771 37.9117C28.1882 38.1864 28.6716 38.333 29.166 38.333C29.8291 38.333 30.4649 38.0696 30.9338 37.6008C31.4026 37.1319 31.666 36.4961 31.666 35.833ZM28.3327 35.833C28.3327 35.6682 28.3816 35.5071 28.4731 35.37C28.5647 35.233 28.6948 35.1262 28.8471 35.0631C28.9994 35 29.1669 34.9835 29.3286 35.0157C29.4902 35.0478 29.6387 35.1272 29.7553 35.2438C29.8718 35.3603 29.9512 35.5088 29.9833 35.6704C30.0155 35.8321 29.999 35.9996 29.9359 36.1519C29.8728 36.3042 29.766 36.4343 29.629 36.5259C29.4919 36.6175 29.3308 36.6663 29.166 36.6663C28.945 36.6663 28.733 36.5785 28.5768 36.4223C28.4205 36.266 28.3327 36.054 28.3327 35.833Z" fill="#008037"/>
<path d="M29.9993 46.6663H39.9993C40.8834 46.6663 41.7312 46.3152 42.3564 45.69C42.9815 45.0649 43.3327 44.2171 43.3327 43.333V41.6663C43.3327 41.4453 43.2449 41.2334 43.0886 41.0771C42.9323 40.9208 42.7204 40.833 42.4993 40.833C42.2783 40.833 42.0664 40.9208 41.9101 41.0771C41.7538 41.2334 41.666 41.4453 41.666 41.6663V43.333C41.666 43.775 41.4904 44.199 41.1779 44.5115C40.8653 44.8241 40.4414 44.9997 39.9993 44.9997H29.9993C29.7783 44.9997 29.5664 45.0875 29.4101 45.2438C29.2538 45.4 29.166 45.612 29.166 45.833C29.166 46.054 29.2538 46.266 29.4101 46.4223C29.5664 46.5785 29.7783 46.6663 29.9993 46.6663Z" fill="#008037"/>
<path d="M15 43.333C15 43.8275 15.1466 44.3108 15.4213 44.7219C15.696 45.1331 16.0865 45.4535 16.5433 45.6427C17.0001 45.8319 17.5028 45.8814 17.9877 45.785C18.4727 45.6885 18.9181 45.4504 19.2678 45.1008C19.6174 44.7511 19.8555 44.3057 19.952 43.8207C20.0484 43.3358 19.9989 42.8331 19.8097 42.3763C19.6205 41.9195 19.3 41.529 18.8889 41.2543C18.4778 40.9796 17.9945 40.833 17.5 40.833C16.837 40.833 16.2011 41.0964 15.7322 41.5652C15.2634 42.0341 15 42.67 15 43.333ZM18.3333 43.333C18.3333 43.4978 18.2845 43.6589 18.1929 43.796C18.1013 43.933 17.9712 44.0398 17.8189 44.1029C17.6666 44.166 17.4991 44.1825 17.3374 44.1503C17.1758 44.1182 17.0273 44.0388 16.9107 43.9223C16.7942 43.8057 16.7148 43.6572 16.6827 43.4956C16.6505 43.3339 16.667 43.1664 16.7301 43.0141C16.7932 42.8618 16.9 42.7317 17.037 42.6401C17.1741 42.5485 17.3352 42.4997 17.5 42.4997C17.721 42.4997 17.933 42.5875 18.0893 42.7438C18.2455 42.9 18.3333 43.112 18.3333 43.333Z" fill="#008037"/>
</svg>
