<svg width="52" height="40" viewBox="0 0 52 40" fill="none" xmlns="http://www.w3.org/2000/svg">
<path d="M9.74176 10.8148C11.5378 10.8148 12.9938 9.48732 12.9938 7.84979C12.9938 6.21225 11.5378 4.88477 9.74176 4.88477C7.94572 4.88477 6.48975 6.21225 6.48975 7.84979C6.48975 9.48732 7.94572 10.8148 9.74176 10.8148Z" stroke="#008037" stroke-width="1.8" stroke-miterlimit="10" stroke-linecap="round" stroke-linejoin="round"/>
<path d="M15.3307 16.7445V13.7795C15.3307 12.1419 13.8748 10.8145 12.0787 10.8145H7.40387C5.60779 10.8145 4.15186 12.1419 4.15186 13.7795V16.7445C4.15186 17.2562 4.60689 17.6711 5.16815 17.6711H14.3145C14.8757 17.671 15.3307 17.2562 15.3307 16.7445Z" stroke="#008037" stroke-width="1.8" stroke-miterlimit="10" stroke-linecap="round" stroke-linejoin="round"/>
<path d="M0.899902 27.0962V2.75324C0.899902 1.72959 1.81037 0.900391 2.9321 0.900391H48.8677C49.9894 0.900391 50.8999 1.72959 50.8999 2.75324V7.8495" stroke="#008037" stroke-width="1.8" stroke-miterlimit="10" stroke-linecap="round" stroke-linejoin="round"/>
<path d="M50.8999 11.0693V37.0478C50.8999 38.0714 49.9894 38.9006 48.8677 38.9006H2.9321C1.81037 38.9006 0.899902 38.0714 0.899902 37.0478V30.3161" stroke="#008037" stroke-width="1.8" stroke-miterlimit="10" stroke-linecap="round" stroke-linejoin="round"/>
<path d="M39.8218 21.666V28.8006L45.3551 33.8456" stroke="#008037" stroke-width="1.8" stroke-miterlimit="10" stroke-linecap="round" stroke-linejoin="round"/>
<path d="M47.647 28.8008H39.8218" stroke="#008037" stroke-width="1.8" stroke-miterlimit="10" stroke-linecap="round" stroke-linejoin="round"/>
<path d="M34.9865 23.1914C36.3175 22.2365 37.9966 21.666 39.8225 21.666C44.1444 21.666 47.6475 24.8608 47.6475 28.8004C47.6475 32.7409 44.1444 35.9357 39.8225 35.9357C35.5006 35.9357 31.9976 32.7409 31.9976 28.8004C31.9976 27.685 32.2793 26.6284 32.7803 25.6873" stroke="#008037" stroke-width="1.8" stroke-miterlimit="10" stroke-linecap="round" stroke-linejoin="round"/>
<path d="M21.0224 6.83016H19.3965C18.9475 6.83016 18.5835 6.4983 18.5835 6.08893V4.60647C18.5835 4.1971 18.9475 3.86523 19.3965 3.86523H21.0225C21.4715 3.86523 21.8355 4.1971 21.8355 4.60647V6.08902C21.8354 6.4983 21.4714 6.83016 21.0224 6.83016Z" stroke="#008037" stroke-width="1.8" stroke-miterlimit="10" stroke-linecap="round" stroke-linejoin="round"/>
<path d="M21.0224 12.7609H19.3965C18.9475 12.7609 18.5835 12.4291 18.5835 12.0197V10.5371C18.5835 10.1278 18.9475 9.7959 19.3965 9.7959H21.0225C21.4715 9.7959 21.8355 10.1278 21.8355 10.5371V12.0197C21.8354 12.4291 21.4714 12.7609 21.0224 12.7609Z" stroke="#008037" stroke-width="1.8" stroke-miterlimit="10" stroke-linecap="round" stroke-linejoin="round"/>
<path d="M21.0224 18.6906H19.3965C18.9475 18.6906 18.5835 18.3587 18.5835 17.9494V16.4668C18.5835 16.0574 18.9475 15.7256 19.3965 15.7256H21.0225C21.4715 15.7256 21.8355 16.0574 21.8355 16.4668V17.9494C21.8354 18.3587 21.4714 18.6906 21.0224 18.6906Z" stroke="#008037" stroke-width="1.8" stroke-miterlimit="10" stroke-linecap="round" stroke-linejoin="round"/>
<path d="M40.7378 3.86523C41.1868 3.86523 41.5508 4.1971 41.5508 4.60647V6.08902C41.5508 6.49839 41.1868 6.83026 40.7378 6.83026" stroke="#008037" stroke-width="1.8" stroke-miterlimit="10" stroke-linecap="round" stroke-linejoin="round"/>
<path d="M35.6558 9.7959C36.1048 9.7959 36.4687 10.1278 36.4687 10.5371V12.0197C36.4687 12.4291 36.1048 12.7609 35.6558 12.7609" stroke="#008037" stroke-width="1.8" stroke-miterlimit="10" stroke-linecap="round" stroke-linejoin="round"/>
<path d="M38.7046 15.7256C39.1536 15.7256 39.5176 16.0574 39.5176 16.4668V17.9494C39.5176 18.3587 39.1536 18.6906 38.7046 18.6906" stroke="#008037" stroke-width="1.8" stroke-miterlimit="10" stroke-linecap="round" stroke-linejoin="round"/>
<path d="M46.8354 6.83016H25.9004C25.4514 6.83016 25.0874 6.4983 25.0874 6.08893V4.60647C25.0874 4.1971 25.4514 3.86523 25.9004 3.86523H46.8354C47.2844 3.86523 47.6484 4.1971 47.6484 4.60647V6.08902C47.6484 6.4983 47.2844 6.83016 46.8354 6.83016Z" stroke="#008037" stroke-width="1.8" stroke-miterlimit="10" stroke-linecap="round" stroke-linejoin="round"/>
<path d="M46.8354 12.7609H25.9004C25.4514 12.7609 25.0874 12.4291 25.0874 12.0197V10.5371C25.0874 10.1278 25.4514 9.7959 25.9004 9.7959H46.8354C47.2844 9.7959 47.6484 10.1278 47.6484 10.5371V12.0197C47.6484 12.4291 47.2844 12.7609 46.8354 12.7609Z" stroke="#008037" stroke-width="1.8" stroke-miterlimit="10" stroke-linecap="round" stroke-linejoin="round"/>
<path d="M46.8354 18.6906H25.9004C25.4514 18.6906 25.0874 18.3587 25.0874 17.9494V16.4668C25.0874 16.0574 25.4514 15.7256 25.9004 15.7256H46.8354C47.2844 15.7256 47.6484 16.0574 47.6484 16.4668V17.9494C47.6484 18.3587 47.2844 18.6906 46.8354 18.6906Z" stroke="#008037" stroke-width="1.8" stroke-miterlimit="10" stroke-linecap="round" stroke-linejoin="round"/>
<path d="M4.15186 35.9355H25.2901" stroke="#008037" stroke-width="1.8" stroke-miterlimit="10" stroke-linecap="round" stroke-linejoin="round"/>
<path d="M6.59131 35.9356V27.4112C6.59131 27.0018 6.95529 26.6699 7.40429 26.6699H9.03034C9.47934 26.6699 9.84332 27.0018 9.84332 27.4112V35.9356" stroke="#008037" stroke-width="1.8" stroke-miterlimit="10" stroke-linecap="round" stroke-linejoin="round"/>
<path d="M13.0952 35.9352V30.1905C13.0952 29.7811 13.4592 29.4492 13.9082 29.4492H15.5342C15.9832 29.4492 16.3472 29.7811 16.3472 30.1905V35.9352" stroke="#008037" stroke-width="1.8" stroke-miterlimit="10" stroke-linecap="round" stroke-linejoin="round"/>
<path d="M19.5991 35.9348V25.9278C19.5991 25.5184 19.9631 25.1865 20.4121 25.1865H22.0382C22.4871 25.1865 22.8511 25.5184 22.8511 25.9278V35.9348" stroke="#008037" stroke-width="1.8" stroke-miterlimit="10" stroke-linecap="round" stroke-linejoin="round"/>
<path d="M15.3307 21.666H4.15186" stroke="#008037" stroke-width="1.8" stroke-miterlimit="10" stroke-linecap="round" stroke-linejoin="round"/>
</svg>
