<svg width="24" height="28" viewBox="0 0 24 28" fill="none" xmlns="http://www.w3.org/2000/svg">
<path d="M11.9681 15.862C12.4891 15.862 13.005 15.7571 13.4863 15.5532C13.9676 15.3493 14.405 15.0505 14.7733 14.6737C15.1417 14.297 15.434 13.8498 15.6333 13.3576C15.8327 12.8653 15.9353 12.3378 15.9353 11.805C15.9353 11.2723 15.8327 10.7447 15.6333 10.2525C15.434 9.76027 15.1417 9.31303 14.7733 8.93631C14.405 8.55958 13.9676 8.26075 13.4863 8.05687C13.005 7.85298 12.4891 7.74805 11.9681 7.74805C10.916 7.74805 9.90692 8.17548 9.16293 8.93631C8.41894 9.69714 8.00098 10.729 8.00098 11.805C8.00098 12.881 8.41894 13.9129 9.16293 14.6737C9.90692 15.4346 10.916 15.862 11.9681 15.862Z" stroke="#797979" stroke-width="2"/>
<path d="M1.30965 9.43903C3.81455 -1.82168 20.1282 -1.80867 22.6204 9.45204C24.0827 16.0576 20.0647 21.649 16.5425 25.1078C15.3118 26.3217 13.6686 27 11.9587 27C10.2488 27 8.60557 26.3217 7.37483 25.1078C3.86542 21.649 -0.152609 16.0446 1.30965 9.43903Z" stroke="#797979" stroke-width="2"/>
</svg>
