<svg width="50" height="50" viewBox="0 0 50 50" fill="none" xmlns="http://www.w3.org/2000/svg">
<mask id="mask0_6263_27271" style="mask-type:luminance" maskUnits="userSpaceOnUse" x="0" y="0" width="50" height="50">
<path d="M49 49V1H1V49H49Z" fill="white" stroke="white" stroke-width="2"/>
</mask>
<g mask="url(#mask0_6263_27271)">
<path d="M34.9024 49.2676L15.6425 49.2492C14.6865 49.2482 13.9121 48.473 13.9121 47.5171V45.1349C13.9121 44.1152 14.7884 43.3163 15.8036 43.4102L35.0636 45.191C35.9546 45.2734 36.6361 46.0209 36.6361 46.9157V47.5355C36.6361 48.4928 35.8597 49.2685 34.9024 49.2676Z" stroke="#008037" stroke-width="2" stroke-miterlimit="10" stroke-linecap="round" stroke-linejoin="round"/>
<path d="M15.8124 17.6142C14.812 17.6142 14.0011 16.8032 14.0011 15.8028C14.0011 14.8024 14.812 13.9915 15.8124 13.9915C16.8128 13.9915 17.6237 14.8024 17.6237 15.8028C17.6237 16.8032 16.8128 17.6142 15.8124 17.6142ZM21.1643 14.5026C20.3477 14.5026 19.9387 13.5153 20.5161 12.9379C20.9164 12.5376 20.9164 11.8886 20.5161 11.4883L20.1271 11.0991C19.7268 10.6988 19.0777 10.6988 18.6773 11.0991C18.0999 11.6766 17.1126 11.2676 17.1126 10.451C17.1126 9.88486 16.6537 9.42598 16.0875 9.42598H15.5373C14.9712 9.42598 14.5122 9.88486 14.5122 10.451C14.5122 11.2676 13.5249 11.6766 12.9475 11.0991C12.5472 10.6988 11.8981 10.6988 11.4979 11.0991L11.1087 11.4883C10.7084 11.8886 10.7084 12.5376 11.1087 12.9379C11.6862 13.5153 11.2772 14.5026 10.4605 14.5026C9.89443 14.5026 9.43555 14.9615 9.43555 15.5277V16.078C9.43555 16.644 9.89443 17.103 10.4605 17.103C11.2772 17.103 11.6862 18.0903 11.1087 18.6679C10.7084 19.0682 10.7084 19.7171 11.1087 20.1174L11.4979 20.5065C11.8981 20.9068 12.5472 20.9068 12.9475 20.5065C13.5249 19.9291 14.5122 20.3381 14.5122 21.1547C14.5122 21.7208 14.9712 22.1797 15.5373 22.1797H16.0875C16.6537 22.1797 17.1126 21.7208 17.1126 21.1547C17.1126 20.3381 18.0999 19.9291 18.6773 20.5065C19.0777 20.9068 19.7268 20.9068 20.1271 20.5065L20.5161 20.1174C20.9164 19.7171 20.9164 19.0682 20.5161 18.6679C19.9387 18.0903 20.3477 17.103 21.1643 17.103C21.7304 17.103 22.1893 16.644 22.1893 16.078V15.5277C22.1893 14.9615 21.7304 14.5026 21.1643 14.5026Z" stroke="#008037" stroke-width="2" stroke-miterlimit="10" stroke-linecap="round" stroke-linejoin="round"/>
<path d="M33.8211 45.0762V42.6529C33.8211 41.5317 34.8163 40.6718 35.9256 40.8345L41.0427 41.585C42.8853 41.8553 44.5384 40.4271 44.5385 38.5647L44.5387 32.645C44.5388 31.4804 45.4889 30.5395 46.6534 30.5507C48.2024 30.5507 49.222 28.9356 48.5559 27.5372L46.3696 22.9478C46.2394 22.6743 46.1699 22.3759 46.1662 22.0729L46.1244 18.7021C46.1244 8.87734 38.2354 0.766601 28.4105 0.732519C25.0985 0.721093 21.9966 1.61572 19.3379 3.18242" stroke="#008037" stroke-width="2" stroke-miterlimit="10" stroke-linecap="round" stroke-linejoin="round"/>
<path d="M16.873 40.4108V43.5078" stroke="#008037" stroke-width="2" stroke-miterlimit="10" stroke-linecap="round" stroke-linejoin="round"/>
<path d="M20.5442 28.3648C21.0813 26.1144 22.1399 24.0035 23.6484 22.2059C25.1389 20.4297 26.0365 18.1394 26.0365 15.6392C26.0365 9.94443 21.3804 5.33721 15.6673 5.41689C10.0625 5.49502 5.53124 10.1444 5.59042 15.7493C5.6161 18.1833 6.49247 20.4131 7.93632 22.1559C9.44647 23.9789 10.5258 26.1008 11.0746 28.3652" stroke="#008037" stroke-width="2" stroke-miterlimit="10" stroke-linecap="round" stroke-linejoin="round"/>
<path d="M20.4952 33.7715H11.1317C10.6146 33.7715 10.1953 33.3522 10.1953 32.8352V29.2969C10.1953 28.7797 10.6146 28.3605 11.1317 28.3605H20.4952C21.0123 28.3605 21.4315 28.7797 21.4315 29.2969V32.8352C21.4315 33.3522 21.0123 33.7715 20.4952 33.7715Z" stroke="#008037" stroke-width="2" stroke-miterlimit="10" stroke-linecap="round" stroke-linejoin="round"/>
<path d="M11.375 33.7705V33.9911C11.375 35.6442 12.7151 36.9844 14.3682 36.9844H17.463C19.1161 36.9844 20.4562 35.6442 20.4562 33.9911V33.7705" stroke="#008037" stroke-width="2" stroke-miterlimit="10" stroke-linecap="round" stroke-linejoin="round"/>
</g>
</svg>
