<svg width="52" height="52" viewBox="0 0 52 52" fill="none" xmlns="http://www.w3.org/2000/svg">
<path d="M26.001 36.9708C28.7911 36.9708 31.0529 34.709 31.0529 31.919C31.0529 29.129 28.7911 26.8672 26.001 26.8672C23.211 26.8672 20.9492 29.129 20.9492 31.919C20.9492 34.709 23.211 36.9708 26.001 36.9708Z" stroke="#008037" stroke-width="2" stroke-miterlimit="10" stroke-linecap="round" stroke-linejoin="round"/>
<path d="M12.9858 35.4383C15.4621 35.4383 17.4696 33.4308 17.4696 30.9545C17.4696 28.4782 15.4621 26.4707 12.9858 26.4707C10.5094 26.4707 8.50195 28.4782 8.50195 30.9545C8.50195 33.4308 10.5094 35.4383 12.9858 35.4383Z" stroke="#008037" stroke-width="2" stroke-miterlimit="10" stroke-linecap="round" stroke-linejoin="round"/>
<path d="M38.9246 35.4381C35.7614 35.4806 33.1565 37.7587 32.5059 40.7388C33.145 41.8424 33.5116 43.1212 33.5116 44.4816V47.8734C33.5779 47.8833 33.6452 47.8901 33.7142 47.8901H44.3155C45.0702 47.8901 45.6821 47.2783 45.6821 46.5236V42.1047C45.6821 38.4077 42.6324 35.3883 38.9246 35.4381Z" stroke="#008037" stroke-width="2" stroke-miterlimit="10" stroke-linecap="round" stroke-linejoin="round"/>
<path d="M18.4888 44.5801C18.4888 43.1911 18.8625 41.8818 19.514 40.7529C18.8789 37.6999 16.139 35.3946 12.8952 35.4381C9.23399 35.4872 6.31836 38.5307 6.31836 42.1922V46.5236C6.31836 47.2784 6.93024 47.8901 7.68488 47.8901H18.2861C18.3552 47.8901 18.4225 47.8834 18.4887 47.8734V44.5801H18.4888Z" stroke="#008037" stroke-width="2" stroke-miterlimit="10" stroke-linecap="round" stroke-linejoin="round"/>
<path d="M43.6775 7.90776C44.9492 7.90776 45.98 6.87689 45.98 5.60525C45.98 4.33361 44.9492 3.30273 43.6775 3.30273C42.4059 3.30273 41.375 4.33361 41.375 5.60525C41.375 6.87689 42.4059 7.90776 43.6775 7.90776Z" stroke="#008037" stroke-width="2" stroke-miterlimit="10" stroke-linecap="round" stroke-linejoin="round"/>
<path d="M43.6771 8.01953V12.7881H36.6562V22.9326" stroke="#008037" stroke-width="2" stroke-miterlimit="10" stroke-linecap="round" stroke-linejoin="round"/>
<path d="M48.6971 19.6363C49.9687 19.6363 50.9996 18.6054 50.9996 17.3338C50.9996 16.0621 49.9687 15.0312 48.6971 15.0312C47.4254 15.0312 46.3945 16.0621 46.3945 17.3338C46.3945 18.6054 47.4254 19.6363 48.6971 19.6363Z" stroke="#008037" stroke-width="2" stroke-miterlimit="10" stroke-linecap="round" stroke-linejoin="round"/>
<path d="M46.2823 17.334H41.5137V22.9329" stroke="#008037" stroke-width="2" stroke-miterlimit="10" stroke-linecap="round" stroke-linejoin="round"/>
<path d="M3.30252 19.6363C4.57417 19.6363 5.60504 18.6054 5.60504 17.3338C5.60504 16.0621 4.57417 15.0312 3.30252 15.0312C2.03087 15.0312 1 16.0621 1 17.3338C1 18.6054 2.03087 19.6363 3.30252 19.6363Z" stroke="#008037" stroke-width="2" stroke-miterlimit="10" stroke-linecap="round" stroke-linejoin="round"/>
<path d="M5.7168 17.334H10.4853V22.9329" stroke="#008037" stroke-width="2" stroke-miterlimit="10" stroke-linecap="round" stroke-linejoin="round"/>
<path d="M8.32205 7.90776C9.5937 7.90776 10.6246 6.87689 10.6246 5.60525C10.6246 4.33361 9.5937 3.30273 8.32205 3.30273C7.0504 3.30273 6.01953 4.33361 6.01953 5.60525C6.01953 6.87689 7.0504 7.90776 8.32205 7.90776Z" stroke="#008037" stroke-width="2" stroke-miterlimit="10" stroke-linecap="round" stroke-linejoin="round"/>
<path d="M8.32227 8.01953V12.7881H15.3431V22.9326" stroke="#008037" stroke-width="2" stroke-miterlimit="10" stroke-linecap="round" stroke-linejoin="round"/>
<path d="M21.3006 5.60503C22.5722 5.60503 23.6031 4.57416 23.6031 3.30251C23.6031 2.03087 22.5722 1 21.3006 1C20.0289 1 18.998 2.03087 18.998 3.30251C18.998 4.57416 20.0289 5.60503 21.3006 5.60503Z" stroke="#008037" stroke-width="2" stroke-miterlimit="10" stroke-linecap="round" stroke-linejoin="round"/>
<path d="M21.3008 22.9324V5.94043" stroke="#008037" stroke-width="2" stroke-miterlimit="10" stroke-linecap="round" stroke-linejoin="round"/>
<path d="M30.699 5.60503C31.9707 5.60503 33.0015 4.57416 33.0015 3.30251C33.0015 2.03087 31.9707 1 30.699 1C29.4274 1 28.3965 2.03087 28.3965 3.30251C28.3965 4.57416 29.4274 5.60503 30.699 5.60503Z" stroke="#008037" stroke-width="2" stroke-miterlimit="10" stroke-linecap="round" stroke-linejoin="round"/>
<path d="M30.6992 22.9324V5.94043" stroke="#008037" stroke-width="2" stroke-miterlimit="10" stroke-linecap="round" stroke-linejoin="round"/>
<path d="M27.7605 50.9996C29.747 50.9996 31.4637 50.9996 31.972 50.9996C32.8223 50.9996 33.5116 50.3103 33.5116 49.46V44.4813C33.5116 40.3161 30.0758 36.9144 25.8982 36.9704C21.7732 37.0257 18.4883 40.4546 18.4883 44.5799V49.46C18.4883 50.3103 19.1776 50.9996 20.0279 50.9996C20.5311 50.9996 22.2496 50.9996 24.2394 50.9996" stroke="#008037" stroke-width="2" stroke-miterlimit="10" stroke-linecap="round" stroke-linejoin="round"/>
<path d="M43.1396 29.1939C42.4553 27.5928 40.8664 26.4707 39.0151 26.4707C36.5387 26.4707 34.5312 28.4781 34.5312 30.9545C34.5312 33.4309 36.5387 35.4383 39.0151 35.4383C40.8664 35.4383 42.4553 34.3162 43.1396 32.7151" stroke="#008037" stroke-width="2" stroke-miterlimit="10" stroke-linecap="round" stroke-linejoin="round"/>
</svg>
