<svg width="30" height="30" viewBox="0 0 30 30" fill="none" xmlns="http://www.w3.org/2000/svg">
<mask id="mask0_6263_26571" style="mask-type:luminance" maskUnits="userSpaceOnUse" x="0" y="0" width="30" height="30">
<path d="M29.25 29.25V0.75H0.75V29.25H29.25Z" fill="white" stroke="white" stroke-width="1.5"/>
</mask>
<g mask="url(#mask0_6263_26571)">
<path d="M15.9134 6.85938L17.6941 5.8317L15.8387 5.33406C15.0399 5.12049 14.5664 4.29988 14.7805 3.50166C14.8875 3.10223 15.1457 2.784 15.4776 2.59281C15.8093 2.40104 16.214 2.33635 16.6135 2.4434L20.9741 3.61223C21.4323 3.73463 21.8476 3.93578 22.21 4.19816L23.35 3.53992" stroke="#2E9459" stroke-width="1.5" stroke-miterlimit="10" stroke-linecap="round" stroke-linejoin="round"/>
<path d="M27.1433 10.1296L25.7969 10.9072" stroke="#008037" stroke-width="1.5" stroke-miterlimit="10" stroke-linecap="round" stroke-linejoin="round"/>
<path d="M25.7949 10.9077H25.7956C25.7485 12.166 25.0756 13.3719 23.9049 14.0478L20.1572 16.2119" stroke="#2E9459" stroke-width="1.5" stroke-miterlimit="10" stroke-linecap="round" stroke-linejoin="round"/>
<path d="M26.254 2.68895L29.3501 8.05157C29.7803 8.79671 29.525 9.7495 28.7799 10.1797C28.0349 10.6099 27.082 10.3546 26.6518 9.60946L23.5557 4.24684C23.1254 3.50171 23.3808 2.54891 24.1259 2.11872C24.871 1.68852 25.8238 1.94382 26.254 2.68895Z" stroke="#2E9459" stroke-width="1.5" stroke-miterlimit="10" stroke-linecap="round" stroke-linejoin="round"/>
<path d="M2.83887 10.1406L3.97828 10.7988C3.93299 11.2441 3.96592 11.7042 4.08885 12.1618L5.25715 16.5231C5.3642 16.9225 5.62307 17.2407 5.95482 17.4319C6.286 17.6236 6.6907 17.6884 7.09014 17.5813C7.88895 17.3672 8.3625 16.5472 8.1484 15.7484L7.65129 13.893L9.93779 15.213" stroke="#72B38C" stroke-width="1.5" stroke-miterlimit="10" stroke-linecap="round" stroke-linejoin="round"/>
<path d="M6.64746 3.55893L7.99395 4.33658H7.99453C9.10811 3.74771 10.4881 3.72773 11.6587 4.40367L18.5988 8.4102C19.1577 8.73311 19.3977 9.41666 19.1636 10.002" stroke="#72B38C" stroke-width="1.5" stroke-miterlimit="10" stroke-linecap="round" stroke-linejoin="round"/>
<path d="M15.569 9.61328L13.7666 8.57266" stroke="#008037" stroke-width="1.5" stroke-miterlimit="10" stroke-linecap="round" stroke-linejoin="round"/>
<path d="M3.34941 3.37123L3.74375 2.68862C4.17383 1.94389 5.12656 1.68842 5.87188 2.1185C6.37168 2.40678 6.65059 2.9312 6.65059 3.46967C6.65059 3.73393 6.58379 4.0017 6.44199 4.24662L3.3459 9.60913C2.91582 10.3544 1.96309 10.6099 1.21777 10.1798C0.717969 9.89096 0.438477 9.36713 0.438477 8.82924C0.438477 8.56498 0.505859 8.29721 0.647656 8.0517L2.4752 4.88647" stroke="#72B38C" stroke-width="1.5" stroke-miterlimit="10" stroke-linecap="round" stroke-linejoin="round"/>
<path d="M15.0476 15.0977V11.2485C15.0476 10.5429 14.4756 9.97076 13.7699 9.97076C13.0642 9.97076 12.4922 10.5429 12.4922 11.2485V15.0977" stroke="#008037" stroke-width="1.5" stroke-miterlimit="10" stroke-linecap="round" stroke-linejoin="round"/>
<path d="M17.6028 15.0984V10.6432C17.6028 9.93754 17.0307 9.36549 16.3251 9.36549C15.6194 9.36549 15.0474 9.93754 15.0474 10.6432V16.4688" stroke="#008037" stroke-width="1.5" stroke-miterlimit="10" stroke-linecap="round" stroke-linejoin="round"/>
<path d="M19.314 25.1484V23.8324C19.7224 23.649 20.1044 23.3906 20.4396 23.0549L20.9499 22.5451" stroke="#008037" stroke-width="1.5" stroke-miterlimit="10" stroke-linecap="round" stroke-linejoin="round"/>
<path d="M17.6045 16.4682V11.2486C17.6045 10.8953 17.7474 10.576 17.9794 10.3451C18.2104 10.1137 18.5297 9.9707 18.8824 9.9707C19.5879 9.9707 20.1603 10.5432 20.1603 11.2486V19.1049L21.5186 17.7467C22.1027 17.1619 23.0501 17.1619 23.635 17.7467C23.9273 18.0391 24.0732 18.4217 24.0732 18.8049C24.0732 19.1875 23.9273 19.5707 23.635 19.8631L22.1895 21.3086" stroke="#008037" stroke-width="1.5" stroke-miterlimit="10" stroke-linecap="round" stroke-linejoin="round"/>
<path d="M12.4924 16.4689V12.3439C12.4924 11.9911 12.3491 11.6715 12.1181 11.4405C11.8799 11.2013 11.5473 11.0571 11.1802 11.0666C10.4848 11.0849 9.93701 11.669 9.93701 12.3645V20.3782C9.93701 21.7302 10.6449 22.9154 11.7112 23.5854M11.7112 23.5854V23.5849M11.7112 23.5854V25.1406" stroke="#008037" stroke-width="1.5" stroke-miterlimit="10" stroke-linecap="round" stroke-linejoin="round"/>
<path d="M18.6017 28.0908H12.4094C11.5491 28.0908 10.8516 27.3933 10.8516 26.5329C10.8516 25.6725 11.5491 24.975 12.4094 24.975H18.6017C19.4621 24.975 20.1595 25.6725 20.1595 26.5329C20.1595 27.3933 19.4621 28.0908 18.6017 28.0908Z" stroke="#008037" stroke-width="1.5" stroke-miterlimit="10" stroke-linecap="round" stroke-linejoin="round"/>
</g>
</svg>
