<svg width="31" height="36" viewBox="0 0 31 36" fill="none" xmlns="http://www.w3.org/2000/svg">
<path d="M14.2169 5.10476C15.3404 4.33311 16.687 3.88379 18.1347 3.88379C22.0622 3.88379 25.246 7.19064 25.246 11.2698C25.246 15.3489 22.0622 18.6558 18.1347 18.6558C14.2073 18.6558 11.0234 15.3489 11.0234 11.2698C11.0234 9.82724 11.4216 8.48133 12.11 7.34409" stroke="white" stroke-miterlimit="10" stroke-linecap="round" stroke-linejoin="round"/>
<path d="M5.40555 6.25911H1.4954C0.945626 6.25911 0.5 5.79627 0.5 5.22526C0.5 4.65424 0.945626 4.19141 1.4954 4.19141H5.40555C5.95533 4.19141 6.40095 4.65424 6.40095 5.22526C6.40095 5.79627 5.95526 6.25911 5.40555 6.25911Z" stroke="white" stroke-miterlimit="10" stroke-linecap="round" stroke-linejoin="round"/>
<path d="M5.49923 11.3675H1.58915C1.03938 11.3675 0.59375 10.9047 0.59375 10.3337C0.59375 9.76264 1.03938 9.2998 1.58915 9.2998H5.4993C6.04908 9.2998 6.4947 9.76264 6.4947 10.3337C6.49464 10.9046 6.04901 11.3675 5.49923 11.3675Z" stroke="white" stroke-miterlimit="10" stroke-linecap="round" stroke-linejoin="round"/>
<path d="M5.58524 16.4798H1.67509C1.12531 16.4798 0.679688 16.017 0.679688 15.446C0.679688 14.8749 1.12531 14.4121 1.67509 14.4121H5.58524C6.13501 14.4121 6.58064 14.8749 6.58064 15.446C6.58064 16.017 6.13495 16.4798 5.58524 16.4798Z" stroke="white" stroke-miterlimit="10" stroke-linecap="round" stroke-linejoin="round"/>
<path d="M5.6868 21.5911H1.77665C1.22688 21.5911 0.78125 21.1283 0.78125 20.5573C0.78125 19.9863 1.22688 19.5234 1.77665 19.5234H5.6868C6.23658 19.5234 6.6822 19.9863 6.6822 20.5573C6.6822 21.1282 6.23651 21.5911 5.6868 21.5911Z" stroke="white" stroke-miterlimit="10" stroke-linecap="round" stroke-linejoin="round"/>
<path d="M5.77267 26.6995H1.86259C1.31281 26.6995 0.867188 26.2367 0.867188 25.6657C0.867188 25.0947 1.31281 24.6318 1.86259 24.6318H5.77274C6.32252 24.6318 6.76814 25.0947 6.76814 25.6657C6.76807 26.2367 6.32245 26.6995 5.77267 26.6995Z" stroke="white" stroke-miterlimit="10" stroke-linecap="round" stroke-linejoin="round"/>
<path d="M5.86649 31.8118H1.95634C1.40656 31.8118 0.960938 31.349 0.960938 30.778C0.960938 30.207 1.40656 29.7441 1.95634 29.7441H5.86649C6.41627 29.7441 6.86189 30.207 6.86189 30.778C6.86189 31.3489 6.4162 31.8118 5.86649 31.8118Z" stroke="white" stroke-miterlimit="10" stroke-linecap="round" stroke-linejoin="round"/>
<path d="M19.0656 15.7731H17.2175C16.9334 15.7731 16.7031 15.534 16.7031 15.2389V12.5534C16.7031 12.3186 16.8507 12.1114 17.0668 12.0426L18.9149 11.4545C19.2455 11.3492 19.58 11.6061 19.58 11.9653V15.2389C19.58 15.534 19.3498 15.7731 19.0656 15.7731Z" stroke="white" stroke-miterlimit="10" stroke-linecap="round" stroke-linejoin="round"/>
<path d="M18.1416 9.75463C18.936 9.75463 19.58 9.08574 19.58 8.26062C19.58 7.43549 18.936 6.7666 18.1416 6.7666C17.3471 6.7666 16.7031 7.43549 16.7031 8.26062C16.7031 9.08574 17.3471 9.75463 18.1416 9.75463Z" stroke="white" stroke-miterlimit="10" stroke-linecap="round" stroke-linejoin="round"/>
<path d="M25.8488 24.6328H10.4382C10.1142 24.6328 9.85156 24.36 9.85156 24.0235V22.7919C9.85156 22.4554 10.1142 22.1826 10.4382 22.1826H25.8488C26.1728 22.1826 26.4355 22.4554 26.4355 22.7919V24.0235C26.4355 24.36 26.1728 24.6328 25.8488 24.6328Z" stroke="white" stroke-miterlimit="10" stroke-linecap="round" stroke-linejoin="round"/>
<path d="M12.2578 27.249H23.7237" stroke="white" stroke-miterlimit="10" stroke-linecap="round" stroke-linejoin="round"/>
<path d="M12.2578 30.2793H23.7237" stroke="white" stroke-miterlimit="10" stroke-linecap="round" stroke-linejoin="round"/>
<path d="M3.59375 9.12479V6.43945" stroke="white" stroke-miterlimit="10" stroke-linecap="round" stroke-linejoin="round"/>
<path d="M3.59375 14.2424V11.4307" stroke="white" stroke-miterlimit="10" stroke-linecap="round" stroke-linejoin="round"/>
<path d="M3.59375 24.6311V21.8252" stroke="white" stroke-miterlimit="10" stroke-linecap="round" stroke-linejoin="round"/>
<path d="M3.59375 29.3019V26.9795" stroke="white" stroke-miterlimit="10" stroke-linecap="round" stroke-linejoin="round"/>
<path d="M30.4981 33.1009V34.0276C30.4981 34.8406 29.8636 35.4997 29.0808 35.4997H5.01112C4.22835 35.4997 3.59375 34.8406 3.59375 34.0276V32.0947" stroke="white" stroke-miterlimit="10" stroke-linecap="round" stroke-linejoin="round"/>
<path d="M3.59375 3.62409V1.97211C3.59375 1.15912 4.22829 0.5 5.01112 0.5H29.0808C29.8635 0.5 30.4981 1.15905 30.4981 1.97211V30.5675" stroke="white" stroke-miterlimit="10" stroke-linecap="round" stroke-linejoin="round"/>
<path d="M3.53906 16.4785V19.5216" stroke="white" stroke-miterlimit="10" stroke-linecap="round" stroke-linejoin="round"/>
</svg>
