<svg width="25" height="25" viewBox="0 0 25 25" fill="none" xmlns="http://www.w3.org/2000/svg">
<path d="M13.9554 10.2959H19.0133V12.8416L21.661 10.2959H22.3449C23.5352 10.2959 24.5 9.33106 24.5 8.14081V2.6551C24.5 1.46485 23.5352 0.5 22.3449 0.5H2.6551C1.46485 0.5 0.5 1.46485 0.5 2.6551V8.14081C0.5 9.33106 1.46485 10.2959 2.6551 10.2959H12.4703" stroke="#008037" stroke-miterlimit="10" stroke-linejoin="round"/>
<path d="M15.0766 16.6329C15.2534 16.6548 15.4363 16.6513 15.6208 16.6188C16.6167 16.4432 17.2816 15.4935 17.1061 14.4977C16.9305 13.5019 15.9808 12.8369 14.985 13.0125C14.8004 13.045 14.6273 13.1043 14.4688 13.1853" stroke="#008037" stroke-miterlimit="10" stroke-linejoin="round"/>
<path d="M20.1328 16.0234H21.5221" stroke="#008037" stroke-miterlimit="10" stroke-linecap="round" stroke-linejoin="round"/>
<path d="M18.7656 18.4141L19.4603 19.6172" stroke="#008037" stroke-miterlimit="10" stroke-linecap="round" stroke-linejoin="round"/>
<path d="M13.8438 7.55239V3.25022L16.5994 7.46212C16.6505 7.54005 16.7052 7.50184 16.7052 7.40712V3.24219" stroke="black" stroke-miterlimit="10" stroke-linecap="round" stroke-linejoin="round"/>
<path d="M6.71875 3.24219V7.55239" stroke="black" stroke-miterlimit="10" stroke-linecap="round" stroke-linejoin="round"/>
<path d="M12.1406 3.24219V7.55239" stroke="black" stroke-miterlimit="10" stroke-linecap="round" stroke-linejoin="round"/>
<path d="M2.65625 3.24219V7.55239" stroke="black" stroke-miterlimit="10" stroke-linecap="round" stroke-linejoin="round"/>
<path d="M5.00781 3.24219V7.55239" stroke="black" stroke-miterlimit="10" stroke-linecap="round" stroke-linejoin="round"/>
<path d="M2.65625 5.32422H5.00727" stroke="black" stroke-miterlimit="10" stroke-linecap="round" stroke-linejoin="round"/>
<path d="M21.6882 3.61027C21.3442 3.37786 20.9296 3.24219 20.4832 3.24219C19.293 3.24219 18.3281 4.20704 18.3281 5.39729C18.3281 6.58754 19.293 7.55239 20.4832 7.55239C21.6735 7.55239 22.3436 6.58754 22.3436 5.39729H21.0542" stroke="black" stroke-miterlimit="10" stroke-linecap="round" stroke-linejoin="round"/>
<path d="M8.75781 5.49609L10.5684 7.55328" stroke="black" stroke-miterlimit="10" stroke-linecap="round" stroke-linejoin="round"/>
<path d="M8.33594 3.24219V7.55239" stroke="black" stroke-miterlimit="10" stroke-linecap="round" stroke-linejoin="round"/>
<path d="M10.5747 4.36235C10.5747 4.98101 10.0323 5.48251 9.39118 5.48251C9.07325 5.48251 8.34375 5.48746 8.34375 5.48746C8.34375 5.48746 8.34659 4.6742 8.34659 4.36235C8.34659 4.10624 8.34375 3.24219 8.34375 3.24219C8.34375 3.24219 9.01546 3.24219 9.39118 3.24219C10.0323 3.24219 10.5747 3.74369 10.5747 4.36235Z" stroke="black" stroke-miterlimit="10" stroke-linecap="round" stroke-linejoin="round"/>
<path d="M13.8388 9.66406L4.95312 13.7643L5.93673 19.3426L15.6889 20.1564L13.8388 9.66406Z" stroke="black" stroke-miterlimit="10" stroke-linejoin="round"/>
<path d="M5.94189 19.3439L4.58227 19.5837C3.04186 19.8553 1.57296 18.8267 1.30132 17.2863C1.02968 15.7459 2.05825 14.277 3.59866 14.0054L4.95828 13.7656L5.94189 19.3439Z" stroke="black" stroke-miterlimit="10" stroke-linejoin="round"/>
<path d="M5.94252 19.3438L6.60702 23.1124C6.72061 23.7567 6.29042 24.3711 5.64614 24.4847C5.00186 24.5983 4.38746 24.1681 4.27388 23.5238L3.60938 19.7551" stroke="black" stroke-miterlimit="10" stroke-linejoin="round"/>
</svg>
