<svg width="26" height="26" viewBox="0 0 26 26" fill="none" xmlns="http://www.w3.org/2000/svg">
<path d="M5.66804 20.1663L4.08896 20.8171C3.1857 21.1894 2.15172 20.7589 1.77946 19.8557L0.735481 17.3226C0.363216 16.4193 0.79367 15.3854 1.69693 15.0131L3.276 14.3623L5.66804 20.1663Z" stroke="#008037" stroke-width="1.2" stroke-miterlimit="10" stroke-linecap="round" stroke-linejoin="round"/>
<path d="M4.6129 13.8104L3.27344 14.3623L5.66523 20.1666L7.00469 19.6147L4.6129 13.8104Z" stroke="#008037" stroke-width="1.2" stroke-miterlimit="10" stroke-linecap="round" stroke-linejoin="round"/>
<path d="M14.5717 18.9558L14.9016 19.7562C15.0541 20.126 14.8778 20.5494 14.5079 20.7019C14.138 20.8543 13.7146 20.6781 13.5622 20.3082L8.91406 9.03027" stroke="#008037" stroke-width="1.2" stroke-miterlimit="10" stroke-linecap="round" stroke-linejoin="round"/>
<path d="M10.5078 9.08887L13.9377 17.411" stroke="#008037" stroke-width="1.2" stroke-miterlimit="10" stroke-linecap="round" stroke-linejoin="round"/>
<path d="M14.2088 14.896L13.2455 15.738L11.7734 12.1663L13.0503 12.0852C13.5041 12.0563 13.9259 12.3197 14.0991 12.7401L14.4916 13.6922C14.6648 14.1126 14.5512 14.5967 14.2088 14.896Z" stroke="#008037" stroke-width="1.2" stroke-miterlimit="10" stroke-linecap="round" stroke-linejoin="round"/>
<path d="M8.39913 24.263L7.82187 24.5009C7.15451 24.7759 6.39056 24.4579 6.11551 23.7905L4.77344 20.5343L7.00578 19.6143L8.66173 23.6322C8.76342 23.8789 8.64584 24.1613 8.39913 24.263Z" stroke="#008037" stroke-width="1.2" stroke-miterlimit="10" stroke-linecap="round" stroke-linejoin="round"/>
<path d="M8.63914 19.7704L8.85871 20.3032C8.9692 20.5713 8.84142 20.8781 8.57337 20.9886L7.71931 21.3406L7.00781 19.6143" stroke="#008037" stroke-width="1.2" stroke-miterlimit="10" stroke-linecap="round" stroke-linejoin="round"/>
<path d="M13.4525 20.0401L7.00927 19.614L4.61719 13.81L8.88909 8.96777L13.4525 20.0401Z" stroke="#008037" stroke-width="1.2" stroke-miterlimit="10" stroke-linecap="round" stroke-linejoin="round"/>
<path d="M10.5312 6.07014C10.5312 6.07014 10.8917 6.43285 11.2842 6.21496C11.4779 6.10747 11.5947 5.90007 11.5947 5.67856V3.26562" stroke="#008037" stroke-width="1.2" stroke-miterlimit="10" stroke-linecap="round" stroke-linejoin="round"/>
<path d="M18.4466 3.96027C18.4466 4.34393 18.1356 4.65497 17.7519 4.65497C17.5617 4.65497 16.875 4.65806 16.875 4.65806C16.875 4.65806 16.875 4.15372 16.875 3.96032C16.875 3.8015 16.875 3.26563 16.875 3.26563C16.875 3.26563 17.5271 3.26563 17.7519 3.26563C18.1356 3.26558 18.4466 3.57661 18.4466 3.96027Z" stroke="#008037" stroke-width="1.2" stroke-miterlimit="10" stroke-linecap="round" stroke-linejoin="round"/>
<path d="M18.7177 5.46789C18.7177 5.9167 18.3539 6.28051 17.9051 6.28051C17.6825 6.28051 16.875 6.28408 16.875 6.28408C16.875 6.28408 16.875 5.69408 16.875 5.46789C16.875 5.28207 16.875 4.65527 16.875 4.65527C16.875 4.65527 17.6421 4.65527 17.9051 4.65527C18.3539 4.65527 18.7177 5.01914 18.7177 5.46789Z" stroke="#008037" stroke-width="1.2" stroke-miterlimit="10" stroke-linecap="round" stroke-linejoin="round"/>
<path d="M21.4935 3.57599C21.4935 3.57599 20.9518 3.12061 20.313 3.31305C19.7264 3.48974 19.6444 4.16613 20.0687 4.44278C20.0687 4.44278 20.4851 4.62856 20.947 4.79892C22.0588 5.209 21.5799 6.28465 20.6849 6.28465C20.2366 6.28465 19.8605 6.08835 19.6328 5.83715" stroke="#008037" stroke-width="1.2" stroke-miterlimit="10" stroke-linecap="round" stroke-linejoin="round"/>
<path d="M14.2361 6.2846C15.0697 6.2846 15.7455 5.60878 15.7455 4.77511C15.7455 3.94144 15.0697 3.26562 14.2361 3.26562C13.4024 3.26562 12.7266 3.94144 12.7266 4.77511C12.7266 5.60878 13.4024 6.2846 14.2361 6.2846Z" stroke="#008037" stroke-width="1.2" stroke-miterlimit="10" stroke-linecap="round" stroke-linejoin="round"/>
<path d="M21.8125 0.599609H23.3176C24.0288 0.599609 24.6053 1.17614 24.6053 1.88735V7.68003C24.6053 8.39124 24.0288 8.96777 23.3176 8.96777H18.5496C18.462 8.96777 18.376 8.99076 18.3002 9.03436L15.831 10.4541C15.7328 10.5106 15.6115 10.4338 15.6204 10.3208L15.697 9.3593C15.7138 9.14828 15.547 8.96777 15.3354 8.96777H9.23306C8.52184 8.96777 7.94531 8.39124 7.94531 7.68003V1.88735C7.94531 1.17614 8.52184 0.599609 9.23306 0.599609H20.1224" stroke="#008037" stroke-width="1.2" stroke-miterlimit="10" stroke-linecap="round" stroke-linejoin="round"/>
<path d="M22.8169 11.3866L20.0243 12.1215C19.8356 12.1711 19.8356 12.439 20.0243 12.4886L22.8169 13.2235C22.9078 13.2474 22.9968 13.1788 22.9968 13.0847V11.5253C22.9968 11.4313 22.9078 11.3627 22.8169 11.3866Z" stroke="#008037" stroke-width="1.2" stroke-miterlimit="10" stroke-linecap="round" stroke-linejoin="round"/>
<path d="M22.1781 15.0998L19.3668 14.4401C19.1769 14.3955 19.0514 14.6321 19.1948 14.7643L21.3172 16.7224C21.3863 16.7862 21.4971 16.7673 21.5412 16.6842L22.2721 15.3067C22.3161 15.2236 22.2697 15.1213 22.1781 15.0998Z" stroke="#008037" stroke-width="1.2" stroke-miterlimit="10" stroke-linecap="round" stroke-linejoin="round"/>
<path d="M19.8994 18.2858L17.8056 16.2973C17.6641 16.163 17.4364 16.3038 17.4933 16.4904L18.3372 19.252C18.3646 19.342 18.4698 19.3816 18.5498 19.3321L19.8761 18.5119C19.9561 18.4624 19.9677 18.3506 19.8994 18.2858Z" stroke="#008037" stroke-width="1.2" stroke-miterlimit="10" stroke-linecap="round" stroke-linejoin="round"/>
</svg>
