<svg width="31" height="31" viewBox="0 0 31 31" fill="none" xmlns="http://www.w3.org/2000/svg">
<path d="M7.07812 0.5H28.2869C29.5084 0.5 30.4986 1.61291 30.4986 2.98578V10.7135C30.4986 12.0864 29.5084 13.1993 28.2869 13.1993H19.0376" stroke="#008037" stroke-miterlimit="10" stroke-linecap="round" stroke-linejoin="round"/>
<path d="M16.7984 13.1993H2.71179C1.49024 13.1993 0.5 12.0864 0.5 10.7135V2.98578C0.5 1.61291 1.49024 0.5 2.71179 0.5H5.14789" stroke="#008037" stroke-miterlimit="10" stroke-linecap="round" stroke-linejoin="round"/>
<path d="M4.11719 9.80488L6.08469 3.97778C6.12489 3.86693 6.26403 3.86673 6.30447 3.97751L8.25405 9.80488" stroke="#008037" stroke-miterlimit="10" stroke-linecap="round" stroke-linejoin="round"/>
<path d="M4.73438 8.35156H7.65391" stroke="#008037" stroke-miterlimit="10" stroke-linecap="round" stroke-linejoin="round"/>
<path d="M20.4688 3.89453V9.79991C20.5266 9.81111 22.3035 9.79991 22.3035 9.79991" stroke="#008037" stroke-miterlimit="10" stroke-linecap="round" stroke-linejoin="round"/>
<path d="M23.5469 3.89453L25.2205 6.78586L26.8805 3.90952" stroke="#008037" stroke-miterlimit="10" stroke-linecap="round" stroke-linejoin="round"/>
<path d="M25.2188 9.80423L25.2253 6.78516" stroke="#008037" stroke-miterlimit="10" stroke-linecap="round" stroke-linejoin="round"/>
<path d="M10.3438 3.89453V9.80493" stroke="#008037" stroke-miterlimit="10" stroke-linecap="round" stroke-linejoin="round"/>
<path d="M10.3438 3.89453H11.8027C12.6193 3.89453 13.3103 4.64131 13.3103 5.56244C13.3103 6.48357 12.6193 7.23035 11.8027 7.23035L10.3539 7.23774" stroke="#008037" stroke-miterlimit="10" stroke-linecap="round" stroke-linejoin="round"/>
<path d="M15.4062 3.89453V9.80493" stroke="#008037" stroke-miterlimit="10" stroke-linecap="round" stroke-linejoin="round"/>
<path d="M15.4062 3.89453H16.8652C17.6818 3.89453 18.3728 4.64131 18.3728 5.56244C18.3728 6.48357 17.6818 7.23035 16.8652 7.23035L15.4164 7.23774" stroke="#008037" stroke-miterlimit="10" stroke-linecap="round" stroke-linejoin="round"/>
<path d="M25.0154 27.4857C25.4903 26.5786 25.763 25.5218 25.763 24.3933V19.0429C25.7649 18.3474 25.2649 17.7853 24.6461 17.7874C24.0333 17.7896 23.5348 18.3446 23.5237 19.0309V18.3544C23.5257 17.6589 23.0255 17.0968 22.4067 17.099C21.7882 17.1012 21.2853 17.6663 21.2834 18.3614V17.6839C21.2853 16.9884 20.7851 16.4263 20.1663 16.4285C19.5478 16.4306 19.045 16.9957 19.043 17.6909V10.9078C19.045 10.2123 18.5448 9.65018 17.926 9.65235C17.3075 9.65452 16.8046 10.2196 16.8027 10.9148L16.8018 21.1192C16.8018 21.4985 16.5332 21.8091 16.1958 21.8199L16.1813 21.8204C15.9335 21.8283 15.705 21.6703 15.5996 21.4181L14.1916 18.0494C13.9557 17.4851 13.3931 17.1929 12.8578 17.3568C12.1723 17.5668 11.822 18.4219 12.1258 19.1437L15.3862 26.9685C16.2843 29.1239 18.2108 30.5009 20.3285 30.5009C21.6773 30.5009 22.9112 29.9484 23.8612 29.034" stroke="#008037" stroke-miterlimit="10" stroke-linecap="round" stroke-linejoin="round"/>
<path d="M21.2822 17.6836L21.2812 19.0896" stroke="#008037" stroke-miterlimit="10" stroke-linecap="round" stroke-linejoin="round"/>
<path d="M19.0469 19.0314V17.6914" stroke="#008037" stroke-miterlimit="10" stroke-linecap="round" stroke-linejoin="round"/>
<path d="M23.5234 19.0312V19.1494" stroke="#008037" stroke-miterlimit="10" stroke-linecap="round" stroke-linejoin="round"/>
</svg>
