<svg width="17" height="17" viewBox="0 0 17 17" fill="none" xmlns="http://www.w3.org/2000/svg">
<path d="M2.42969 1.72558V1.18848" stroke="white" stroke-width="0.6" stroke-miterlimit="10" stroke-linecap="round" stroke-linejoin="round"/>
<path d="M3.38368 1.72572V1.25612C3.38368 0.728063 2.9568 0.299805 2.43012 0.299805C1.90344 0.299805 1.47656 0.728063 1.47656 1.25612V1.72572" stroke="white" stroke-width="0.6" stroke-miterlimit="10" stroke-linecap="round" stroke-linejoin="round"/>
<path d="M9.28906 1.72558V1.18848" stroke="white" stroke-width="0.6" stroke-miterlimit="10" stroke-linecap="round" stroke-linejoin="round"/>
<path d="M10.2431 1.72572V1.25612C10.2431 0.728063 9.81617 0.299805 9.28949 0.299805C8.76282 0.299805 8.33594 0.728063 8.33594 1.25612V1.72572" stroke="white" stroke-width="0.6" stroke-miterlimit="10" stroke-linecap="round" stroke-linejoin="round"/>
<path d="M11.4224 4.73205V2.04856C11.4224 1.87018 11.2783 1.72559 11.1005 1.72559H0.618805C0.441003 1.72559 0.296875 1.87018 0.296875 2.04856V4.01179" stroke="white" stroke-width="0.6" stroke-miterlimit="10" stroke-linecap="round" stroke-linejoin="round"/>
<path d="M0.296875 7.93652V3.15527H11.4225V5.53265" stroke="white" stroke-width="0.6" stroke-miterlimit="10" stroke-linecap="round" stroke-linejoin="round"/>
<path d="M0.296875 9.06738V10.2869C0.296875 10.4655 0.4411 10.6099 0.618805 10.6099H5.41267" stroke="white" stroke-width="0.6" stroke-miterlimit="10" stroke-linecap="round" stroke-linejoin="round"/>
<path d="M6.82812 4.83105H7.51867V9.10814" stroke="white" stroke-width="0.6" stroke-miterlimit="10" stroke-linecap="round" stroke-linejoin="round"/>
<path d="M3.76562 5.66725C3.86462 5.16167 4.30879 4.78027 4.84174 4.78027C5.44742 4.78027 5.93843 5.27287 5.93843 5.8805C5.93843 6.48814 5.44742 6.98073 4.84174 6.98073" stroke="white" stroke-width="0.6" stroke-miterlimit="10" stroke-linecap="round" stroke-linejoin="round"/>
<path d="M4.83888 6.98145C5.44455 6.98145 5.93556 7.47404 5.93556 8.08167C5.93556 8.68931 5.44455 9.1819 4.83888 9.1819C4.28509 9.1819 3.82718 8.77012 3.75278 8.23512C3.74579 8.18496 3.74219 8.13374 3.74219 8.08167" stroke="white" stroke-width="0.6" stroke-miterlimit="10" stroke-linecap="round" stroke-linejoin="round"/>
<path d="M5.41406 13.7124V10.5806C5.41406 10.4452 5.48553 10.3199 5.60143 10.2511L8.34652 8.62207" stroke="white" stroke-width="0.6" stroke-miterlimit="10" stroke-linecap="round" stroke-linejoin="round"/>
<path d="M13.9375 8.95996L16.1086 10.2483C16.2248 10.3171 16.296 10.4424 16.296 10.5777V11.7139" stroke="white" stroke-width="0.6" stroke-miterlimit="10" stroke-linecap="round" stroke-linejoin="round"/>
<path d="M12.4766 4.47357C12.9812 4.97979 13.7993 4.97979 14.3039 4.47357C14.3052 4.47231 14.3063 4.47099 14.3075 4.46973" stroke="white" stroke-width="0.6" stroke-miterlimit="10" stroke-linecap="round" stroke-linejoin="round"/>
<path d="M9.07812 9.71482C9.07938 9.71356 9.0807 9.71243 9.08196 9.71117C9.58658 9.20492 9.58655 8.38415 9.08196 7.87793" stroke="white" stroke-width="0.6" stroke-miterlimit="10" stroke-linecap="round" stroke-linejoin="round"/>
<path d="M15.4448 5.6123C15.4435 5.61356 15.4422 5.61469 15.4409 5.61595C14.9364 6.12218 14.9364 6.94297 15.4409 7.4492" stroke="white" stroke-width="0.6" stroke-miterlimit="10" stroke-linecap="round" stroke-linejoin="round"/>
<path d="M12.0497 10.8553C11.5451 10.349 10.727 10.349 10.2224 10.8553C10.2211 10.8565 10.22 10.8578 10.2188 10.8591" stroke="white" stroke-width="0.6" stroke-miterlimit="10" stroke-linecap="round" stroke-linejoin="round"/>
<path d="M12.1381 6.83105C12.1381 6.83105 11.7394 6.86571 11.5609 7.19914C11.397 7.50532 11.6402 7.83155 11.915 7.75029C12.0435 7.71228 12.1557 7.65776 12.4085 7.54085C13.017 7.25938 13.2556 7.88294 12.8977 8.24195C12.7185 8.42175 12.4896 8.4939 12.2981 8.48443" stroke="white" stroke-width="0.6" stroke-miterlimit="10" stroke-linecap="round" stroke-linejoin="round"/>
<path d="M13.1076 8.50972L12.8672 8.26855" stroke="white" stroke-width="0.6" stroke-miterlimit="10" stroke-linecap="round" stroke-linejoin="round"/>
<path d="M11.6617 7.058L11.4219 6.81738" stroke="white" stroke-width="0.6" stroke-miterlimit="10" stroke-linecap="round" stroke-linejoin="round"/>
<path d="M8.28037 8.91166L11.0247 11.6649C11.0861 11.7264 11.1854 11.7264 11.2468 11.6649L16.2533 6.64221C16.3146 6.58072 16.3146 6.48098 16.2533 6.41946L13.5089 3.66624C13.4476 3.60474 13.3482 3.60474 13.2869 3.66624L8.28037 8.6889C8.21904 8.7504 8.21904 8.85013 8.28037 8.91166Z" stroke="white" stroke-width="0.6" stroke-miterlimit="10" stroke-linecap="round" stroke-linejoin="round"/>
<path d="M16.2982 13.9243V15.9764C16.2982 16.0736 16.2552 16.1605 16.1878 16.2195C16.1313 16.2691 16.0574 16.2994 15.9763 16.2994H5.73599C5.65487 16.2994 5.58102 16.2691 5.52452 16.2195C5.45714 16.1605 5.41406 16.0736 5.41406 15.9764V11.0537H6.54436C6.72883 11.0537 6.90814 11.1138 7.05558 11.2249L9.68382 13.204" stroke="white" stroke-width="0.6" stroke-miterlimit="10" stroke-linecap="round" stroke-linejoin="round"/>
<path d="M12.0312 13.204L14.6592 11.2249C14.8066 11.1138 14.9862 11.0537 15.1704 11.0537H16.3007V12.7939" stroke="white" stroke-width="0.6" stroke-miterlimit="10" stroke-linecap="round" stroke-linejoin="round"/>
<path d="M16.1868 16.2198L11.1243 12.5493C10.9636 12.4328 10.7466 12.4328 10.586 12.5493L5.52344 16.2198" stroke="white" stroke-width="0.6" stroke-miterlimit="10" stroke-linecap="round" stroke-linejoin="round"/>
</svg>
