<svg width="37" height="37" viewBox="0 0 37 37" fill="none" xmlns="http://www.w3.org/2000/svg">
<path d="M25.8792 6.84127C26.0032 7.39693 26.068 7.97513 26.068 8.56812C26.068 12.9683 22.5004 16.5361 18.1004 16.5361C13.7004 16.5361 10.1328 12.9683 10.1328 8.56812C10.1328 4.16719 13.7004 0.600102 18.1004 0.600102C21.0363 0.600102 23.6011 2.18821 24.9835 4.55242" stroke="white" stroke-width="1.2" stroke-miterlimit="10" stroke-linecap="round" stroke-linejoin="round"/>
<path d="M20.9488 5.71881C20.9488 7.29037 19.6748 8.56445 18.1033 8.56445C16.5318 8.56445 15.2578 7.29037 15.2578 5.71881C15.2578 4.14718 16.5318 2.8731 18.1033 2.8731C19.6748 2.8731 20.9488 4.14718 20.9488 5.71881Z" stroke="white" stroke-width="1.2" stroke-miterlimit="10" stroke-linecap="round" stroke-linejoin="round"/>
<path d="M18.1046 8.56549C16.025 8.56549 14.1773 9.55737 13.0078 11.0935C13.9406 12.9664 15.8743 14.2568 18.1046 14.2568C20.335 14.2568 22.2687 12.9664 23.2014 11.0935C22.0319 9.55737 20.1843 8.56549 18.1046 8.56549Z" stroke="white" stroke-width="1.2" stroke-miterlimit="10" stroke-linecap="round" stroke-linejoin="round"/>
<path d="M34.3506 23.3476C35.1415 24.585 35.5992 26.0548 35.5992 27.6316C35.5992 32.0325 32.0323 35.5996 27.6316 35.5996C23.2317 35.5996 19.6641 32.0325 19.6641 27.6316C19.6641 23.2314 23.2317 19.6636 27.6316 19.6636C29.5682 19.6636 31.3436 20.3545 32.7239 21.5038" stroke="white" stroke-width="1.2" stroke-miterlimit="10" stroke-linecap="round" stroke-linejoin="round"/>
<path d="M30.4801 24.7861C30.4801 26.3578 29.2062 27.6318 27.6346 27.6318C26.0631 27.6318 24.7891 26.3578 24.7891 24.7861C24.7891 23.2145 26.0631 21.9405 27.6346 21.9405C29.2062 21.9405 30.4801 23.2145 30.4801 24.7861Z" stroke="white" stroke-width="1.2" stroke-miterlimit="10" stroke-linecap="round" stroke-linejoin="round"/>
<path d="M27.6359 27.6329C25.5562 27.6329 23.7086 28.6248 22.5391 30.1609C23.4718 32.0338 25.4055 33.3242 27.6359 33.3242C29.8662 33.3242 31.7999 32.0338 32.7327 30.1609C31.5632 28.6248 29.7155 27.6329 27.6359 27.6329Z" stroke="white" stroke-width="1.2" stroke-miterlimit="10" stroke-linecap="round" stroke-linejoin="round"/>
<path d="M1.56635 23.8286C2.91634 21.3475 5.54591 19.6636 8.56913 19.6636C12.9691 19.6636 16.5367 23.2314 16.5367 27.6316C16.5367 32.0325 12.9691 35.5996 8.56913 35.5996C4.16845 35.5996 0.601562 32.0325 0.601562 27.6316C0.601562 27.1231 0.64945 26.6259 0.740998 26.1435" stroke="white" stroke-width="1.2" stroke-miterlimit="10" stroke-linecap="round" stroke-linejoin="round"/>
<path d="M11.4176 24.7861C11.4176 26.3578 10.1436 27.6318 8.57204 27.6318C7.0005 27.6318 5.72656 26.3578 5.72656 24.7861C5.72656 23.2145 7.0005 21.9405 8.57204 21.9405C10.1436 21.9405 11.4176 23.2145 11.4176 24.7861Z" stroke="white" stroke-width="1.2" stroke-miterlimit="10" stroke-linecap="round" stroke-linejoin="round"/>
<path d="M8.57337 27.6329C6.49373 27.6329 4.64606 28.6248 3.47656 30.1609C4.4093 32.0338 6.34303 33.3242 8.57337 33.3242C10.8037 33.3242 12.7374 32.0338 13.6702 30.1609C12.5007 28.6248 10.653 27.6329 8.57337 27.6329Z" stroke="white" stroke-width="1.2" stroke-miterlimit="10" stroke-linecap="round" stroke-linejoin="round"/>
<path d="M18.1016 16.5336V20.3041L21.5873 22.3672" stroke="white" stroke-width="1.2" stroke-miterlimit="10" stroke-linecap="round" stroke-linejoin="round"/>
<path d="M18.1029 20.3041L14.6172 22.3672" stroke="white" stroke-width="1.2" stroke-miterlimit="10" stroke-linecap="round" stroke-linejoin="round"/>
</svg>
