<svg width="25" height="23" viewBox="0 0 25 23" fill="none" xmlns="http://www.w3.org/2000/svg">
<path d="M24.2969 12.8952V20.6204C24.2969 21.5479 23.6483 22.2998 22.8482 22.2998H1.74557C0.945454 22.2998 0.296875 21.5479 0.296875 20.6204V9.25656C0.296875 8.32904 0.945454 7.57717 1.74557 7.57717H22.8482C23.6483 7.57717 24.2969 8.32904 24.2969 9.25656V10.9359" stroke="white" stroke-width="0.6" stroke-miterlimit="10" stroke-linecap="round" stroke-linejoin="round"/>
<path d="M3.60134 20.6211H1.98364C1.85026 20.6211 1.74219 20.4958 1.74219 20.3412V9.53714C1.74219 9.38258 1.85026 9.25724 1.98364 9.25724H22.6034C22.7367 9.25724 22.8448 9.38258 22.8448 9.53714V20.3412C22.8448 20.4958 22.7367 20.6211 22.6034 20.6211H5.29148" stroke="white" stroke-width="0.6" stroke-miterlimit="10" stroke-linecap="round" stroke-linejoin="round"/>
<path d="M12.2967 3.37891C11.5633 3.37891 10.9688 2.68969 10.9688 1.83947C10.9688 0.98925 11.5633 0.300029 12.2967 0.300029C13.0301 0.300029 13.6247 0.98925 13.6247 1.83947C13.6247 2.68969 13.0301 3.37891 12.2967 3.37891Z" stroke="white" stroke-width="0.6" stroke-miterlimit="10" stroke-linecap="round" stroke-linejoin="round"/>
<path d="M11.0718 2.75146L4.64062 7.53223" stroke="white" stroke-width="0.6" stroke-miterlimit="10" stroke-linecap="round" stroke-linejoin="round"/>
<path d="M13.5234 2.74974L19.949 7.52637" stroke="white" stroke-width="0.6" stroke-miterlimit="10" stroke-linecap="round" stroke-linejoin="round"/>
<path d="M7.17969 13.2575V16.6134C7.2117 16.6198 8.19425 16.6134 8.19425 16.6134" stroke="white" stroke-width="0.6" stroke-miterlimit="10" stroke-linecap="round" stroke-linejoin="round"/>
<path d="M17.8269 13.2754H16.6172V16.6035H17.8269" stroke="white" stroke-width="0.6" stroke-miterlimit="10" stroke-linecap="round" stroke-linejoin="round"/>
<path d="M17.7377 14.9375H16.6172" stroke="white" stroke-width="0.6" stroke-miterlimit="10" stroke-linecap="round" stroke-linejoin="round"/>
<path d="M20.9865 14.9386C20.9865 15.8367 20.5565 16.5474 19.8743 16.5611C19.6473 16.5658 19.0604 16.5684 19.0604 16.5684C19.0604 16.5684 19.0568 15.3877 19.0568 14.935C19.0568 14.5632 19.0547 13.3089 19.0547 13.3089H19.851C20.5992 13.3089 20.9865 14.0405 20.9865 14.9386Z" stroke="white" stroke-width="0.6" stroke-miterlimit="10" stroke-linecap="round" stroke-linejoin="round"/>
<path d="M5.86803 13.5443C5.63682 13.3632 5.35809 13.2574 5.05807 13.2574C4.25795 13.2574 3.60938 14.0094 3.60938 14.9368C3.60938 15.8643 4.25795 16.6162 5.05807 16.6162C5.38301 16.6162 5.65029 16.4922 5.85316 16.2828C5.89512 16.2395 5.93433 16.1924 5.97069 16.1422" stroke="white" stroke-width="0.6" stroke-miterlimit="10" stroke-linecap="round" stroke-linejoin="round"/>
<path d="M15.317 13.6027C15.317 13.6027 14.7971 13.0961 14.184 13.3102C13.6211 13.5068 13.5423 14.2592 13.9496 14.5671C13.9496 14.5671 14.3492 14.7738 14.7925 14.9633C15.8595 15.4195 15.3999 16.6162 14.5409 16.6162C14.1108 16.6162 13.7498 16.3978 13.5312 16.1183" stroke="white" stroke-width="0.6" stroke-miterlimit="10" stroke-linecap="round" stroke-linejoin="round"/>
<path d="M12.3036 14.9368C12.3036 15.8643 11.6551 16.6162 10.8549 16.6162C10.0548 16.6162 9.40625 15.8643 9.40625 14.9368C9.40625 14.0093 10.0548 13.2574 10.8549 13.2574C11.6551 13.2574 12.3036 14.0093 12.3036 14.9368Z" stroke="white" stroke-width="0.6" stroke-miterlimit="10" stroke-linecap="round" stroke-linejoin="round"/>
</svg>
