<svg width="31" height="31" viewBox="0 0 31 31" fill="none" xmlns="http://www.w3.org/2000/svg">
<path d="M0.5 23.2647V18.8909C0.5 18.6794 0.671549 18.5078 0.883119 18.5078H4.34223C4.5538 18.5078 4.72535 18.6794 4.72535 18.8909V26.4547C4.72535 26.6662 4.5538 26.8378 4.34223 26.8378H0.883119C0.671549 26.8378 0.5 26.6662 0.5 26.4547V25.3974" stroke="#008037" stroke-miterlimit="10" stroke-linecap="round" stroke-linejoin="round"/>
<path d="M16.6328 23.947L19.5661 27.0701C20.0024 27.5346 20.7231 27.5843 21.2191 27.184C21.765 26.7433 21.8267 25.9337 21.3539 25.4153L19.1007 22.9453" stroke="#008037" stroke-miterlimit="10" stroke-linecap="round" stroke-linejoin="round"/>
<path d="M18.6549 26.0915C19.1436 26.6119 19.0678 27.4423 18.493 27.8657C18.0097 28.2215 17.3372 28.1622 16.9237 27.7272L14.9219 25.6211" stroke="#008037" stroke-miterlimit="10" stroke-linecap="round" stroke-linejoin="round"/>
<path d="M16.6867 27.4815C17.1344 27.9525 17.0849 28.7051 16.5796 29.1135C16.1411 29.4679 15.5068 29.4382 15.1033 29.0445L13.0156 27.0078" stroke="#008037" stroke-miterlimit="10" stroke-linecap="round" stroke-linejoin="round"/>
<path d="M14.5657 28.5209C15.0623 29.0054 15.0216 29.8157 14.479 30.248C14.0344 30.6022 13.3981 30.5796 12.9798 30.1947L8.77892 26.4061C8.44463 26.1075 8.01183 25.9426 7.56352 25.9433L4.72656 25.9475V19.4854C5.97678 19.4854 7.21373 19.2809 7.77177 18.9724C8.94401 18.3245 11.2177 17.2538 12.7187 17.2697C13.0929 17.2737 13.4733 17.3612 13.8534 17.5127" stroke="#008037" stroke-miterlimit="10" stroke-linecap="round" stroke-linejoin="round"/>
<path d="M26.2703 19.5046V25.862H24.7367C24.4465 25.862 24.1636 25.9397 23.9065 26.074C22.7978 26.6535 21.78 25.862 21.78 25.862L16.6618 20.2997C16.2025 19.8005 15.4655 19.6719 14.8643 19.9864L13.0709 20.9232C12.8892 21.018 12.6936 21.0638 12.4999 21.0638C12.1329 21.0638 11.7731 20.8997 11.5323 20.596C11.0681 20.0099 11.228 19.1486 11.8715 18.7683L14.8238 17.0232C15.7335 16.486 16.8598 16.4709 17.7834 16.9834L21.9031 19.2717C22.1578 19.4129 22.4445 19.4878 22.7361 19.4878L26.2703 19.5046Z" stroke="#008037" stroke-miterlimit="10" stroke-linecap="round" stroke-linejoin="round"/>
<path d="M30.1157 26.8378H26.6566C26.445 26.8378 26.2734 26.6662 26.2734 26.4547V18.8909C26.2734 18.6794 26.445 18.5078 26.6566 18.5078H30.1157C30.3272 18.5078 30.4988 18.6794 30.4988 18.8909V26.4547C30.4988 26.6663 30.3272 26.8378 30.1157 26.8378Z" stroke="#008037" stroke-miterlimit="10" stroke-linecap="round" stroke-linejoin="round"/>
<path d="M11.2656 4.41406V8.29118" stroke="#008037" stroke-miterlimit="10" stroke-linecap="round" stroke-linejoin="round"/>
<path d="M6.9375 4.41406V8.29118" stroke="#008037" stroke-miterlimit="10" stroke-linecap="round" stroke-linejoin="round"/>
<path d="M9.625 4.41406V8.29118" stroke="#008037" stroke-miterlimit="10" stroke-linecap="round" stroke-linejoin="round"/>
<path d="M6.9375 6.28516H9.6241" stroke="#008037" stroke-miterlimit="10" stroke-linecap="round" stroke-linejoin="round"/>
<path d="M18.1209 4.41406H16.5V8.29118H18.1209" stroke="#008037" stroke-miterlimit="10" stroke-linecap="round" stroke-linejoin="round"/>
<path d="M18.0014 6.35156H16.5" stroke="#008037" stroke-miterlimit="10" stroke-linecap="round" stroke-linejoin="round"/>
<path d="M22.0885 6.35265C22.0885 7.42094 21.5124 8.26625 20.5983 8.28267C20.294 8.28817 19.5077 8.29118 19.5077 8.29118L19.5 4.41406C19.5 4.41406 20.2074 4.41406 20.567 4.41406C21.5696 4.41406 22.0885 5.28436 22.0885 6.35265Z" stroke="#008037" stroke-miterlimit="10" stroke-linecap="round" stroke-linejoin="round"/>
<path d="M13.3594 6.44141L14.9902 8.29187" stroke="#008037" stroke-miterlimit="10" stroke-linecap="round" stroke-linejoin="round"/>
<path d="M12.9872 6.43324C13.1917 6.43209 13.6978 6.42931 13.9235 6.42931C14.501 6.42931 14.9896 5.97817 14.9896 5.42169C14.9896 4.86521 14.501 4.41406 13.9235 4.41406H12.8919L12.8906 8.29118" stroke="#008037" stroke-miterlimit="10" stroke-linecap="round" stroke-linejoin="round"/>
<path d="M24.0625 4.41406V7.19398" stroke="#008037" stroke-miterlimit="10" stroke-linecap="round" stroke-linejoin="round"/>
<path d="M23.2727 0.5H24.8848C25.8021 0.5 26.5457 1.2436 26.5457 2.16093V10.5415C26.5457 11.4589 25.8021 12.2025 24.8848 12.2025H17.4317C17.3022 12.2025 17.1816 12.2683 17.1116 12.3772L15.7556 14.4849C15.6357 14.6713 15.3632 14.6713 15.2433 14.4849L13.8873 12.3772C13.8172 12.2683 13.6967 12.2025 13.5672 12.2025H6.11405C5.19673 12.2025 4.45312 11.4588 4.45312 10.5415V2.16093C4.45312 1.2436 5.19673 0.5 6.11405 0.5H21.1801" stroke="#008037" stroke-miterlimit="10" stroke-linecap="round" stroke-linejoin="round"/>
</svg>
