<svg width="25" height="25" viewBox="0 0 25 25" fill="none" xmlns="http://www.w3.org/2000/svg">
<path d="M12.3984 24.4004C19.0259 24.4004 24.3984 19.0278 24.3984 12.4004C24.3984 5.77297 19.0259 0.400391 12.3984 0.400391C5.77102 0.400391 0.398438 5.77297 0.398438 12.4004C0.398438 19.0278 5.77102 24.4004 12.3984 24.4004Z" stroke="white" stroke-width="0.8" stroke-miterlimit="10" stroke-linecap="round" stroke-linejoin="round"/>
<path d="M17.6785 8.37563L19.9249 6.12916C20.0489 6.00517 20.2542 6.01623 20.3625 6.15412C21.7133 7.87423 22.5186 10.043 22.5186 12.4C22.5186 18.0038 18 22.5225 12.3963 22.5226C10.0392 22.5226 7.87033 21.7172 6.15021 20.3664C6.01232 20.2581 6.00126 20.0529 6.12525 19.9289L7.97041 18.0837L17.6785 8.37563Z" stroke="white" stroke-width="0.8" stroke-miterlimit="10" stroke-linecap="round" stroke-linejoin="round"/>
<path d="M18.5062 12.7012V17.2902C18.5062 17.7285 18.1509 18.0837 17.7127 18.0837H15.0859" stroke="white" stroke-width="0.8" stroke-miterlimit="10" stroke-linecap="round" stroke-linejoin="round"/>
<path d="M6.28906 17.1925V12.7012" stroke="white" stroke-width="0.8" stroke-miterlimit="10" stroke-linecap="round" stroke-linejoin="round"/>
<path d="M13.4215 18.084H7.97656" stroke="white" stroke-width="0.8" stroke-miterlimit="10" stroke-linecap="round" stroke-linejoin="round"/>
<path d="M9.84375 8.37616V7.10941C9.84375 6.59434 10.2613 6.17676 10.7764 6.17676H14.0178C14.5328 6.17676 14.9504 6.59434 14.9504 7.10941V8.37616" stroke="white" stroke-width="0.8" stroke-miterlimit="10" stroke-linecap="round" stroke-linejoin="round"/>
<path d="M15.1667 8.37598H6.69194C6.25369 8.37598 5.89844 8.73123 5.89844 9.16948V11.7775C5.89844 12.2199 6.19802 12.6062 6.62652 12.7163L9.9219 13.5629" stroke="white" stroke-width="0.8" stroke-miterlimit="10" stroke-linecap="round" stroke-linejoin="round"/>
<path d="M13.9297 13.8059L18.1708 12.7163C18.5993 12.6062 18.8989 12.2199 18.8989 11.7775V9.16948C18.8989 8.73123 18.5436 8.37598 18.1054 8.37598H17.6794" stroke="white" stroke-width="0.8" stroke-miterlimit="10" stroke-linecap="round" stroke-linejoin="round"/>
<path d="M13.2998 12.7607H13.48C13.6758 12.7607 13.8345 12.9195 13.8345 13.1153V14.6179C13.8345 14.8138 13.6758 14.9725 13.48 14.9725H11.3239C11.2535 14.9725 11.1879 14.952 11.1328 14.9167" stroke="white" stroke-width="0.8" stroke-miterlimit="10" stroke-linecap="round" stroke-linejoin="round"/>
<path d="M5.23356 5.23791C3.40322 7.0681 2.27344 9.59886 2.27344 12.4009C2.27344 14.7579 3.07882 16.9267 4.42963 18.6468C4.53792 18.7847 4.74317 18.7957 4.86715 18.6718L18.6669 4.87203C18.7909 4.74805 18.7798 4.5428 18.6419 4.43451C16.9218 3.0837 14.753 2.27827 12.3959 2.27832C10.2 2.27832 8.17069 2.97222 6.51465 4.15337" stroke="white" stroke-width="0.8" stroke-miterlimit="10" stroke-linecap="round" stroke-linejoin="round"/>
</svg>
