<svg width="31" height="31" viewBox="0 0 31 31" fill="none" xmlns="http://www.w3.org/2000/svg">
<path d="M6.42863 15.6211L3.28716 16.7844C2.33953 17.1353 1.71094 18.036 1.71094 19.043V23.3922" stroke="#008037" stroke-miterlimit="10" stroke-linecap="round" stroke-linejoin="round"/>
<path d="M9.09375 15.6211L12.2352 16.7844C13.1829 17.1353 13.8114 18.036 13.8114 19.043V23.3922" stroke="#008037" stroke-miterlimit="10" stroke-linecap="round" stroke-linejoin="round"/>
<path d="M11.2656 20.8008V23.3924" stroke="#008037" stroke-miterlimit="10" stroke-linecap="round" stroke-linejoin="round"/>
<path d="M4.25 20.8008V23.3924" stroke="#008037" stroke-miterlimit="10" stroke-linecap="round" stroke-linejoin="round"/>
<path d="M17.5781 19.3102C17.7801 18.574 18.3263 17.962 19.0691 17.6867L22.2106 16.5234H24.8719L28.0134 17.6867C28.7561 17.962 29.3023 18.574 29.5044 19.3102" stroke="#008037" stroke-miterlimit="10" stroke-linecap="round" stroke-linejoin="round"/>
<path d="M7.76108 15.9822C9.13066 15.9822 10.2409 14.8764 10.2409 13.5123V11.0424L10.8457 8.63281H7.09575C6.09363 8.63281 5.28125 9.44194 5.28125 10.44V13.5123C5.28125 14.8764 6.39149 15.9822 7.76108 15.9822Z" stroke="#008037" stroke-miterlimit="10" stroke-linecap="round" stroke-linejoin="round"/>
<path d="M10.2409 11.043H7.03526L5.28125 12.6695" stroke="#008037" stroke-miterlimit="10" stroke-linecap="round" stroke-linejoin="round"/>
<path d="M16.2886 23.3906H0.5V26.5034H16.3653" stroke="#008037" stroke-miterlimit="10" stroke-linecap="round" stroke-linejoin="round"/>
<path d="M1.59375 26.5156V30.474" stroke="#008037" stroke-miterlimit="10" stroke-linecap="round" stroke-linejoin="round"/>
<path d="M23.5454 16.5252C22.1758 16.5252 21.0655 15.4194 21.0655 14.0553V11.5854L20.2188 9.17578H23.6058C24.942 9.17578 26.0251 10.2546 26.0251 11.5854V14.0553C26.0252 15.4194 24.915 16.5252 23.5454 16.5252Z" stroke="#008037" stroke-miterlimit="10" stroke-linecap="round" stroke-linejoin="round"/>
<path d="M21.0625 11.5859L22.877 11.8269L23.292 12.9398C23.5212 13.5544 24.0665 13.9972 24.7171 14.0968L26.0222 14.2967" stroke="#008037" stroke-miterlimit="10" stroke-linecap="round" stroke-linejoin="round"/>
<path d="M30.505 30.4988V20.9205C30.505 19.9224 29.6926 19.1133 28.6905 19.1133H18.4083C17.4061 19.1133 16.5938 19.9224 16.5938 20.9205V30.4988" stroke="#008037" stroke-miterlimit="10" stroke-linecap="round" stroke-linejoin="round"/>
<path d="M12.8425 7.12649H13.8707V9.23495L18.286 7.12649H21.3102C21.9782 7.12649 22.5198 6.58707 22.5198 5.92167V1.70482C22.5198 1.03942 21.9782 0.5 21.3102 0.5H12.8425C12.1744 0.5 11.6328 1.03942 11.6328 1.70482V5.92167C11.6328 6.58707 12.1744 7.12649 12.8425 7.12649Z" stroke="#008037" stroke-miterlimit="10" stroke-linecap="round" stroke-linejoin="round"/>
<path d="M20.0906 2.73047H14.0469" stroke="#008037" stroke-miterlimit="10" stroke-linecap="round" stroke-linejoin="round"/>
<path d="M18.2778 4.89844H14.0469" stroke="#008037" stroke-miterlimit="10" stroke-linecap="round" stroke-linejoin="round"/>
</svg>
