<svg width="28" height="31" viewBox="0 0 28 31" fill="none" xmlns="http://www.w3.org/2000/svg">
<path d="M27.3997 14.6172L27.3938 14.6106L25.1562 12.2764" stroke="#008037" stroke-miterlimit="10" stroke-linecap="round" stroke-linejoin="round"/>
<path d="M2.96522 12.1096L0.609375 14.6172" stroke="#008037" stroke-miterlimit="10" stroke-linecap="round" stroke-linejoin="round"/>
<path d="M2.96094 15.7656V12.1106V2.20282C2.96094 1.26254 3.69972 0.500328 4.61129 0.500328H13.8671H23.5034C24.4149 0.500328 25.1537 1.26254 25.1537 2.20282V12.2773V15.6986" stroke="#008037" stroke-miterlimit="10" stroke-linecap="round" stroke-linejoin="round"/>
<path d="M11.2422 17.9453H16.862" stroke="#008037" stroke-miterlimit="10" stroke-linecap="round" stroke-linejoin="round"/>
<path d="M12.0501 11.0291H10.7109V14.4375" stroke="#008037" stroke-miterlimit="10" stroke-linecap="round" stroke-linejoin="round"/>
<path d="M10.7109 12.7031H11.9436" stroke="#008037" stroke-miterlimit="10" stroke-linecap="round" stroke-linejoin="round"/>
<path d="M15.4563 11.0291H14.1172V14.4375" stroke="#008037" stroke-miterlimit="10" stroke-linecap="round" stroke-linejoin="round"/>
<path d="M14.1172 12.7031H15.3499" stroke="#008037" stroke-miterlimit="10" stroke-linecap="round" stroke-linejoin="round"/>
<path d="M18.6709 10.9963H17.2812V14.3984H18.6709" stroke="#008037" stroke-miterlimit="10" stroke-linecap="round" stroke-linejoin="round"/>
<path d="M18.5684 12.7031H17.2812" stroke="#008037" stroke-miterlimit="10" stroke-linecap="round" stroke-linejoin="round"/>
<path d="M21.2656 12.7792L22.6637 14.418" stroke="#008037" stroke-miterlimit="10" stroke-linecap="round" stroke-linejoin="round"/>
<path d="M20.8672 10.9844V14.418" stroke="#008037" stroke-miterlimit="10" stroke-linecap="round" stroke-linejoin="round"/>
<path d="M22.6655 11.8771C22.6655 12.3699 22.2467 12.7695 21.7516 12.7695C21.5061 12.7695 20.8733 12.7734 20.8733 12.7734C20.8733 12.7734 20.8694 12.1255 20.8694 11.8771C20.8694 11.6731 20.8672 10.9848 20.8672 10.9848H21.7516C22.2467 10.9848 22.6655 11.3843 22.6655 11.8771Z" stroke="#008037" stroke-miterlimit="10" stroke-linecap="round" stroke-linejoin="round"/>
<path d="M8.66427 12.7325C8.66427 13.6807 7.91922 14.4492 7.0001 14.4492C6.08104 14.4492 5.33594 13.6807 5.33594 12.7325C5.33594 11.7844 6.08104 11.0157 7.0001 11.0157C7.91922 11.0157 8.66427 11.7844 8.66427 12.7325Z" stroke="#008037" stroke-miterlimit="10" stroke-linecap="round" stroke-linejoin="round"/>
<path d="M23.9332 16.4296L27.0214 14.5752C27.2337 14.4478 27.5 14.6058 27.5 14.8591V28.7564C27.5 29.7193 26.7433 30.5 25.8098 30.5H2.19014C1.25669 30.5 0.5 29.7193 0.5 28.7564V14.8656C0.5 14.6094 0.769276 14.4496 0.98396 14.5785L13.7217 22.2269C13.8938 22.3302 14.1062 22.3302 14.2782 22.2269L22.3812 17.3615" stroke="#008037" stroke-miterlimit="10" stroke-linecap="round" stroke-linejoin="round"/>
<path d="M15.0783 4.18359H13.0391V3.24754C13.0391 2.90962 13.3047 2.63557 13.6323 2.63557H14.4851C14.8127 2.63557 15.0783 2.90962 15.0783 3.24754V4.18359Z" stroke="#008037" stroke-miterlimit="10" stroke-linecap="round" stroke-linejoin="round"/>
<path d="M16.6042 8.67969H11.5061C11.2223 8.67969 10.9922 8.44228 10.9922 8.14952V4.71466C10.9922 4.42184 11.2223 4.18449 11.5061 4.18449H16.6042C16.8881 4.18449 17.1181 4.42184 17.1181 4.71466V8.14952C17.1181 8.44228 16.8881 8.67969 16.6042 8.67969Z" stroke="#008037" stroke-miterlimit="10" stroke-linecap="round" stroke-linejoin="round"/>
<path d="M23.3765 28.0234L12.8672 21.7131" stroke="#008037" stroke-miterlimit="10" stroke-linecap="round" stroke-linejoin="round"/>
</svg>
