<svg width="21" height="24" viewBox="0 0 21 24" fill="none" xmlns="http://www.w3.org/2000/svg">
<mask id="mask0_249_7538" style="mask-type:luminance" maskUnits="userSpaceOnUse" x="0" y="0" width="21" height="24">
<path d="M20.5 23.5V0.5H0.5V23.5H20.5Z" fill="white" stroke="white"/>
</mask>
<g mask="url(#mask0_249_7538)">
<path d="M2.65625 6.15942V4.64625C2.65625 4.44628 2.79808 4.28419 2.97305 4.28419H4.29708C4.47205 4.28419 4.61388 4.44628 4.61388 4.64625V6.15942C4.61388 6.35939 4.47205 6.52148 4.29708 6.52148H2.97305C2.79808 6.52148 2.65625 6.35939 2.65625 6.15942Z" stroke="#008037" stroke-miterlimit="10" stroke-linecap="round" stroke-linejoin="round"/>
<path d="M5.94531 6.15942V4.64625C5.94531 4.44628 6.08714 4.28419 6.26212 4.28419H7.58614C7.76112 4.28419 7.90295 4.44628 7.90295 4.64625V6.15942C7.90295 6.35939 7.76112 6.52148 7.58614 6.52148H6.26212C6.08714 6.52148 5.94531 6.35939 5.94531 6.15942Z" stroke="#008037" stroke-miterlimit="10" stroke-linecap="round" stroke-linejoin="round"/>
<path d="M9.24219 6.15942V4.64625C9.24219 4.44628 9.38402 4.28419 9.55899 4.28419H10.883C11.058 4.28419 11.1998 4.44628 11.1998 4.64625V6.15942C11.1998 6.35939 11.058 6.52148 10.883 6.52148H9.55899C9.38402 6.52148 9.24219 6.35939 9.24219 6.15942Z" stroke="#008037" stroke-miterlimit="10" stroke-linecap="round" stroke-linejoin="round"/>
<path d="M2.65625 10.0462V8.53297C2.65625 8.33305 2.79808 8.17095 2.97305 8.17095H4.29708C4.47205 8.17095 4.61388 8.33305 4.61388 8.53297V10.0462C4.61388 10.2462 4.47205 10.4082 4.29708 10.4082H2.97305C2.79808 10.4082 2.65625 10.2462 2.65625 10.0462Z" stroke="#008037" stroke-miterlimit="10" stroke-linecap="round" stroke-linejoin="round"/>
<path d="M5.94531 10.0462V8.53297C5.94531 8.33305 6.08714 8.17095 6.26212 8.17095H7.58614C7.76112 8.17095 7.90295 8.33305 7.90295 8.53297V10.0462C7.90295 10.2462 7.76112 10.4082 7.58614 10.4082H6.26212C6.08714 10.4082 5.94531 10.2462 5.94531 10.0462Z" stroke="#008037" stroke-miterlimit="10" stroke-linecap="round" stroke-linejoin="round"/>
<path d="M2.65625 13.9368V12.4236C2.65625 12.2236 2.79808 12.0615 2.97305 12.0615H4.29708C4.47205 12.0615 4.61388 12.2236 4.61388 12.4236V13.9368C4.61388 14.1367 4.47205 14.2988 4.29708 14.2988H2.97305C2.79808 14.2988 2.65625 14.1367 2.65625 13.9368Z" stroke="#008037" stroke-miterlimit="10" stroke-linecap="round" stroke-linejoin="round"/>
<path d="M5.94531 13.9368V12.4236C5.94531 12.2236 6.08714 12.0615 6.26212 12.0615H7.58614C7.76112 12.0615 7.90295 12.2236 7.90295 12.4236V13.9368C7.90295 14.1367 7.76112 14.2988 7.58614 14.2988H6.26212C6.08714 14.2988 5.94531 14.1367 5.94531 13.9368Z" stroke="#008037" stroke-miterlimit="10" stroke-linecap="round" stroke-linejoin="round"/>
<path d="M11.0217 12.0985C10.9798 12.0751 10.9329 12.0616 10.883 12.0616H9.55899C9.38402 12.0616 9.24219 12.2237 9.24219 12.4236V13.9368C9.24219 14.1367 9.38402 14.2988 9.55899 14.2988H10.883C11.058 14.2988 11.1998 14.1367 11.1998 13.9368V12.7696" stroke="#008037" stroke-miterlimit="10" stroke-linecap="round" stroke-linejoin="round"/>
<path d="M9.60156 21V22.1152" stroke="#008037" stroke-miterlimit="10" stroke-linecap="round" stroke-linejoin="round"/>
<path d="M17.3281 21V22.1152" stroke="#008037" stroke-miterlimit="10" stroke-linecap="round" stroke-linejoin="round"/>
<path d="M12.8107 4.781V3.35553C12.8107 2.86817 12.465 2.47306 12.0386 2.47306H1.81118C1.38478 2.47306 1.03906 2.86817 1.03906 3.35553V22.1152" stroke="#008037" stroke-miterlimit="10" stroke-linecap="round" stroke-linejoin="round"/>
<path d="M20.0173 23.6484H0.975047C0.604799 23.6484 0.304688 23.3054 0.304688 22.8823C0.304688 22.4591 0.604799 22.1161 0.975047 22.1161H20.0173C20.3876 22.1161 20.6877 22.4591 20.6877 22.8823C20.6877 23.3054 20.3876 23.6484 20.0173 23.6484Z" stroke="#008037" stroke-miterlimit="10" stroke-linecap="round" stroke-linejoin="round"/>
<path d="M19.2554 22.1152V18.7932C19.2554 17.7577 18.6583 16.8462 17.789 16.5545L15.8438 15.9018" stroke="#008037" stroke-miterlimit="10" stroke-linecap="round" stroke-linejoin="round"/>
<path d="M7.67188 20.6754V22.1152" stroke="#008037" stroke-miterlimit="10" stroke-linecap="round" stroke-linejoin="round"/>
<path d="M11.095 15.8995L9.13847 16.5558C8.26906 16.8474 7.67188 17.759 7.67188 18.7946V19.0332" stroke="#008037" stroke-miterlimit="10" stroke-linecap="round" stroke-linejoin="round"/>
<path d="M11.1303 16.4005L12.181 17.6031C12.3142 17.7514 12.524 17.7605 12.6668 17.6243L13.1451 17.1676L13.4906 16.8378L12.1301 15.6759L12.086 15.6382C11.9489 15.5211 11.767 15.4982 11.6108 15.5783L11.2314 15.7729C11.1748 15.802 11.1297 15.8458 11.0966 15.8979C11.0029 16.0449 11.0064 16.2587 11.1303 16.4005Z" stroke="#008037" stroke-miterlimit="10" stroke-linecap="round" stroke-linejoin="round"/>
<path d="M13.4922 16.8391L13.8211 17.1605L14.2666 17.5958C14.4084 17.7344 14.6192 17.7274 14.7538 17.5796L15.805 16.4097C15.9322 16.2682 15.9368 16.0512 15.8418 15.9028C15.8086 15.8507 15.7633 15.8069 15.7064 15.7779L15.3197 15.581C15.161 15.5002 14.9765 15.5256 14.8392 15.6471L14.7958 15.6855L13.4922 16.8391Z" stroke="#008037" stroke-miterlimit="10" stroke-linecap="round" stroke-linejoin="round"/>
<path d="M14.7969 15.6855V14.0094" stroke="#008037" stroke-miterlimit="10" stroke-linecap="round" stroke-linejoin="round"/>
<path d="M12.1328 14.0098V15.6777" stroke="#008037" stroke-miterlimit="10" stroke-linecap="round" stroke-linejoin="round"/>
<path d="M15.7153 7.57433H15.6905C15.553 7.57433 15.4416 7.44697 15.4416 7.28984C15.4416 6.8247 15.1116 6.44759 14.7046 6.44759H12.1649C11.2282 6.44759 10.4688 7.31548 10.4688 8.38606V10.2559H10.978C11.2612 10.2559 11.4908 9.99345 11.4908 9.66978V9.34887C11.4908 8.92728 11.8517 8.62916 12.202 8.76144L12.2029 8.76181C13.0199 9.07025 13.902 9.07016 14.719 8.76158C15.0693 8.62925 15.4302 8.92737 15.4302 9.34902V9.66978C15.4302 9.99345 15.6598 10.2559 15.9431 10.2559H16.4523V8.41658C16.4523 7.95139 16.1223 7.57433 15.7153 7.57433Z" stroke="#008037" stroke-miterlimit="10" stroke-linecap="round" stroke-linejoin="round"/>
<path d="M10.4688 10.2557V10.5381V11.2141C10.4688 11.459 10.6425 11.6575 10.8568 11.6575C10.9244 11.6575 10.9794 11.7181 10.9836 11.7952C11.0654 13.2776 12.1427 14.4512 13.4605 14.4512C14.7783 14.4512 15.8556 13.2776 15.9374 11.7952C15.9417 11.7181 15.9967 11.6575 16.0643 11.6575C16.2786 11.6575 16.4523 11.459 16.4523 11.2141V10.5381V10.2557" stroke="#008037" stroke-miterlimit="10" stroke-linecap="round" stroke-linejoin="round"/>
<path d="M12.6797 17.6125L13.093 18.4238H13.8329L14.2463 17.5773" stroke="#008037" stroke-miterlimit="10" stroke-linecap="round" stroke-linejoin="round"/>
<path d="M13.0959 18.4238L12.5234 22.1152" stroke="#008037" stroke-miterlimit="10" stroke-linecap="round" stroke-linejoin="round"/>
<path d="M14.4088 22.1152L13.8359 18.4238" stroke="#008037" stroke-miterlimit="10" stroke-linecap="round" stroke-linejoin="round"/>
<path d="M11.8724 2.47461V0.865531C11.8724 0.582031 11.6714 0.35225 11.4233 0.35225H2.4335C2.18543 0.35225 1.98438 0.582031 1.98438 0.865531V2.47461" stroke="#008037" stroke-miterlimit="10" stroke-linecap="round" stroke-linejoin="round"/>
<path d="M10.4862 8.17095H9.55899C9.38402 8.17095 9.24219 8.33305 9.24219 8.53297V10.0462C9.24219 10.2462 9.38402 10.4082 9.55899 10.4082H10.4756" stroke="#008037" stroke-miterlimit="10" stroke-linecap="round" stroke-linejoin="round"/>
<path d="M2.76562 17.31V22.1152" stroke="#008037" stroke-miterlimit="10" stroke-linecap="round" stroke-linejoin="round"/>
<path d="M5.78125 22.1152V17.31" stroke="#008037" stroke-miterlimit="10" stroke-linecap="round" stroke-linejoin="round"/>
</g>
</svg>
