<svg width="14" height="16" viewBox="0 0 14 16" fill="none" xmlns="http://www.w3.org/2000/svg">
<path d="M4.08603 11.541H1.61719" stroke="white" stroke-width="0.5" stroke-miterlimit="10" stroke-linecap="round" stroke-linejoin="round"/>
<mask id="mask0_249_5111" style="mask-type:luminance" maskUnits="userSpaceOnUse" x="0" y="0" width="14" height="16">
<path d="M13.75 15.75V0.25H0.25V15.75H13.75Z" fill="white" stroke="white" stroke-width="0.5"/>
</mask>
<g mask="url(#mask0_249_5111)">
<path d="M1.76562 4.10628V3.0975C1.76562 2.96419 1.86018 2.85612 1.97683 2.85612H2.85951C2.97616 2.85612 3.07071 2.96419 3.07071 3.0975V4.10628C3.07071 4.23959 2.97616 4.34766 2.85951 4.34766H1.97683C1.86018 4.34766 1.76562 4.23959 1.76562 4.10628Z" stroke="white" stroke-width="0.5" stroke-miterlimit="10" stroke-linecap="round" stroke-linejoin="round"/>
<path d="M3.96094 4.10628V3.0975C3.96094 2.96419 4.05549 2.85612 4.17214 2.85612H5.05482C5.17147 2.85612 5.26603 2.96419 5.26603 3.0975V4.10628C5.26603 4.23959 5.17147 4.34766 5.05482 4.34766H4.17214C4.05549 4.34766 3.96094 4.23959 3.96094 4.10628Z" stroke="white" stroke-width="0.5" stroke-miterlimit="10" stroke-linecap="round" stroke-linejoin="round"/>
<path d="M6.15625 4.10628V3.0975C6.15625 2.96419 6.2508 2.85612 6.36745 2.85612H7.25014C7.36679 2.85612 7.46134 2.96419 7.46134 3.0975V4.10628C7.46134 4.23959 7.36679 4.34766 7.25014 4.34766H6.36745C6.2508 4.34766 6.15625 4.23959 6.15625 4.10628Z" stroke="white" stroke-width="0.5" stroke-miterlimit="10" stroke-linecap="round" stroke-linejoin="round"/>
<path d="M1.76562 6.69811V5.6893C1.76562 5.55602 1.86018 5.44795 1.97683 5.44795H2.85951C2.97616 5.44795 3.07071 5.55602 3.07071 5.6893V6.69811C3.07071 6.83142 2.97616 6.93945 2.85951 6.93945H1.97683C1.86018 6.93945 1.76562 6.83142 1.76562 6.69811Z" stroke="white" stroke-width="0.5" stroke-miterlimit="10" stroke-linecap="round" stroke-linejoin="round"/>
<path d="M3.96094 6.69811V5.6893C3.96094 5.55602 4.05549 5.44795 4.17214 5.44795H5.05482C5.17147 5.44795 5.26603 5.55602 5.26603 5.6893V6.69811C5.26603 6.83142 5.17147 6.93945 5.05482 6.93945H4.17214C4.05549 6.93945 3.96094 6.83142 3.96094 6.69811Z" stroke="white" stroke-width="0.5" stroke-miterlimit="10" stroke-linecap="round" stroke-linejoin="round"/>
<path d="M1.76562 9.29183V8.28305C1.76562 8.14973 1.86018 8.04167 1.97683 8.04167H2.85951C2.97616 8.04167 3.07071 8.14973 3.07071 8.28305V9.29183C3.07071 9.42514 2.97616 9.5332 2.85951 9.5332H1.97683C1.86018 9.5332 1.76562 9.42514 1.76562 9.29183Z" stroke="white" stroke-width="0.5" stroke-miterlimit="10" stroke-linecap="round" stroke-linejoin="round"/>
<path d="M3.96094 9.29183V8.28305C3.96094 8.14973 4.05549 8.04167 4.17214 8.04167H5.05482C5.17147 8.04167 5.26603 8.14973 5.26603 8.28305V9.29183C5.26603 9.42514 5.17147 9.5332 5.05482 9.5332H4.17214C4.05549 9.5332 3.96094 9.42514 3.96094 9.29183Z" stroke="white" stroke-width="0.5" stroke-miterlimit="10" stroke-linecap="round" stroke-linejoin="round"/>
<path d="M7.34256 8.0663C7.31464 8.0507 7.28336 8.0417 7.25014 8.0417H6.36745C6.2508 8.0417 6.15625 8.14977 6.15625 8.28308V9.29186C6.15625 9.42514 6.2508 9.5332 6.36745 9.5332H7.25014C7.36679 9.5332 7.46134 9.42514 7.46134 9.29186V8.51373" stroke="white" stroke-width="0.5" stroke-miterlimit="10" stroke-linecap="round" stroke-linejoin="round"/>
<path d="M6.39844 14.0006V14.7441" stroke="white" stroke-width="0.5" stroke-miterlimit="10" stroke-linecap="round" stroke-linejoin="round"/>
<path d="M11.5547 14.0006V14.7441" stroke="white" stroke-width="0.5" stroke-miterlimit="10" stroke-linecap="round" stroke-linejoin="round"/>
<path d="M8.54308 3.18798V2.23767C8.54308 1.91277 8.3126 1.64936 8.02831 1.64936H1.21006C0.925793 1.64936 0.695312 1.91277 0.695312 2.23767V14.7441" stroke="white" stroke-width="0.5" stroke-miterlimit="10" stroke-linecap="round" stroke-linejoin="round"/>
<path d="M13.3449 15.7656H0.650031C0.403199 15.7656 0.203125 15.5369 0.203125 15.2548C0.203125 14.9728 0.403199 14.7441 0.650031 14.7441H13.3449C13.5917 14.7441 13.7918 14.9728 13.7918 15.2548C13.7918 15.5369 13.5917 15.7656 13.3449 15.7656Z" stroke="white" stroke-width="0.5" stroke-miterlimit="10" stroke-linecap="round" stroke-linejoin="round"/>
<path d="M12.837 14.7441V12.5294C12.837 11.8391 12.4389 11.2314 11.8593 11.037L10.5625 10.6019" stroke="white" stroke-width="0.5" stroke-miterlimit="10" stroke-linecap="round" stroke-linejoin="round"/>
<path d="M5.11719 13.7842V14.7441" stroke="white" stroke-width="0.5" stroke-miterlimit="10" stroke-linecap="round" stroke-linejoin="round"/>
<path d="M7.3993 10.6003L6.09492 11.0379C5.51531 11.2323 5.11719 11.84 5.11719 12.5304V12.6895" stroke="white" stroke-width="0.5" stroke-miterlimit="10" stroke-linecap="round" stroke-linejoin="round"/>
<path d="M7.41761 10.9343L8.11805 11.7361C8.20688 11.8349 8.34675 11.841 8.4419 11.7502L8.76081 11.4457L8.99116 11.2258L8.08414 10.4512L8.05474 10.4261C7.96333 10.348 7.84204 10.3328 7.73794 10.3862L7.48501 10.5159C7.44728 10.5353 7.41722 10.5645 7.39513 10.5992C7.33265 10.6972 7.335 10.8398 7.41761 10.9343Z" stroke="white" stroke-width="0.5" stroke-miterlimit="10" stroke-linecap="round" stroke-linejoin="round"/>
<path d="M8.99219 11.2261L9.21148 11.4403L9.50844 11.7305C9.60302 11.823 9.74351 11.8183 9.83325 11.7198L10.5341 10.9398C10.6188 10.8455 10.6219 10.7008 10.5586 10.6019C10.5365 10.5671 10.5062 10.5379 10.4683 10.5186L10.2105 10.3873C10.1047 10.3335 9.9817 10.3504 9.89021 10.4314L9.86128 10.457L8.99219 11.2261Z" stroke="white" stroke-width="0.5" stroke-miterlimit="10" stroke-linecap="round" stroke-linejoin="round"/>
<path d="M9.86719 10.457V9.33959" stroke="white" stroke-width="0.5" stroke-miterlimit="10" stroke-linecap="round" stroke-linejoin="round"/>
<path d="M8.08594 9.3392V10.4512" stroke="white" stroke-width="0.5" stroke-miterlimit="10" stroke-linecap="round" stroke-linejoin="round"/>
<path d="M10.4821 5.0502H10.4656C10.3739 5.0502 10.2996 4.9653 10.2996 4.86055C10.2996 4.55045 10.0796 4.29905 9.80827 4.29905H8.11515C7.49064 4.29905 6.98438 4.87764 6.98438 5.59136V6.83789H7.32388C7.51268 6.83789 7.66575 6.66295 7.66575 6.44717V6.23323C7.66575 5.95217 7.90635 5.75342 8.13987 5.84161L8.1405 5.84186C8.68516 6.04748 9.27324 6.04742 9.81787 5.8417C10.0514 5.75348 10.292 5.95223 10.292 6.23333V6.44717C10.292 6.66295 10.4451 6.83789 10.6339 6.83789H10.9734V5.6117C10.9734 5.30158 10.7534 5.0502 10.4821 5.0502Z" stroke="white" stroke-width="0.5" stroke-miterlimit="10" stroke-linecap="round" stroke-linejoin="round"/>
<path d="M6.98438 6.8378V7.02608V7.47673C6.98438 7.63998 7.10018 7.77233 7.24305 7.77233C7.28811 7.77233 7.32478 7.8127 7.32762 7.86411C7.38217 8.85239 8.10036 9.63477 8.97888 9.63477C9.85741 9.63477 10.5756 8.85239 10.6302 7.86411C10.633 7.8127 10.6697 7.77233 10.7147 7.77233C10.8576 7.77233 10.9734 7.63998 10.9734 7.47673V7.02608V6.8378" stroke="white" stroke-width="0.5" stroke-miterlimit="10" stroke-linecap="round" stroke-linejoin="round"/>
<path d="M8.45312 11.7423L8.7287 12.2832H9.22195L9.49752 11.7188" stroke="white" stroke-width="0.5" stroke-miterlimit="10" stroke-linecap="round" stroke-linejoin="round"/>
<path d="M8.72541 12.2832L8.34375 14.7441" stroke="white" stroke-width="0.5" stroke-miterlimit="10" stroke-linecap="round" stroke-linejoin="round"/>
<path d="M9.60063 14.7441L9.21875 12.2832" stroke="white" stroke-width="0.5" stroke-miterlimit="10" stroke-linecap="round" stroke-linejoin="round"/>
<path d="M7.91234 1.65039V0.577672C7.91234 0.388672 7.7783 0.235484 7.61293 0.235484H1.61973C1.45435 0.235484 1.32031 0.388672 1.32031 0.577672V1.65039" stroke="white" stroke-width="0.5" stroke-miterlimit="10" stroke-linecap="round" stroke-linejoin="round"/>
<path d="M6.98561 5.44795H6.36745C6.2508 5.44795 6.15625 5.55602 6.15625 5.6893V6.69811C6.15625 6.83142 6.2508 6.93945 6.36745 6.93945H6.97853" stroke="white" stroke-width="0.5" stroke-miterlimit="10" stroke-linecap="round" stroke-linejoin="round"/>
<path d="M1.84375 11.5406V14.7441" stroke="white" stroke-width="0.5" stroke-miterlimit="10" stroke-linecap="round" stroke-linejoin="round"/>
<path d="M3.85156 14.7441V11.5406" stroke="white" stroke-width="0.5" stroke-miterlimit="10" stroke-linecap="round" stroke-linejoin="round"/>
</g>
</svg>
