<svg width="23" height="23" viewBox="0 0 23 23" fill="none" xmlns="http://www.w3.org/2000/svg">
<path d="M15.9702 20.6982V21.5275C15.9702 21.9821 15.6019 22.3509 15.1473 22.3509H1.17487C0.719839 22.3509 0.351562 21.9821 0.351562 21.5275V13.0176H15.9702V18.9576" stroke="white" stroke-width="0.7" stroke-miterlimit="10" stroke-linecap="round" stroke-linejoin="round"/>
<path d="M15.9702 11.745V13.0161H0.351562V10.7628C0.351562 10.3077 0.719839 9.93945 1.17487 9.93945H1.91753" stroke="white" stroke-width="0.7" stroke-miterlimit="10" stroke-linecap="round" stroke-linejoin="round"/>
<path d="M3.46094 9.93945H10.4994" stroke="white" stroke-width="0.7" stroke-miterlimit="10" stroke-linecap="round" stroke-linejoin="round"/>
<path d="M13.9664 14.5557H2.34847C2.10856 14.5557 1.91406 14.7502 1.91406 14.9901V20.3747C1.91406 20.6146 2.10856 20.8091 2.34847 20.8091H13.9664C14.2063 20.8091 14.4008 20.6146 14.4008 20.3747V14.9901C14.4008 14.7502 14.2064 14.5557 13.9664 14.5557Z" stroke="white" stroke-width="0.7" stroke-miterlimit="10" stroke-linecap="round" stroke-linejoin="round"/>
<path d="M1.91406 17.6807H14.4008" stroke="white" stroke-width="0.7" stroke-miterlimit="10" stroke-linecap="round" stroke-linejoin="round"/>
<path d="M5.03125 14.5547V20.8082" stroke="white" stroke-width="0.7" stroke-miterlimit="10" stroke-linecap="round" stroke-linejoin="round"/>
<path d="M8.15625 14.5547V20.8082" stroke="white" stroke-width="0.7" stroke-miterlimit="10" stroke-linecap="round" stroke-linejoin="round"/>
<path d="M11.2812 14.5547V20.8082" stroke="white" stroke-width="0.7" stroke-miterlimit="10" stroke-linecap="round" stroke-linejoin="round"/>
<path d="M2.68399 11.6123C2.25875 11.6123 1.91406 11.2676 1.91406 10.8424V9.0336C1.91406 8.60836 2.25879 8.26367 2.68399 8.26367C3.10924 8.26367 3.45392 8.6084 3.45392 9.0336V10.8424C3.45392 11.2676 3.10924 11.6123 2.68399 11.6123Z" stroke="white" stroke-width="0.7" stroke-miterlimit="10" stroke-linecap="round" stroke-linejoin="round"/>
<path d="M9.67969 7.97571V9.12087C9.67969 9.57272 10.046 9.939 10.4978 9.939H14.3117C14.5598 9.939 14.7903 10.0675 14.9207 10.2787L15.8256 11.7446C15.8929 11.8536 16.0514 11.8536 16.1187 11.7446L17.0236 10.2787C17.154 10.0675 17.3844 9.939 17.6326 9.939H21.5347C21.9865 9.939 22.3528 9.57272 22.3528 9.12087V1.1677C22.3528 0.715851 21.9865 0.349609 21.5347 0.349609H10.4979C10.0461 0.349609 9.67978 0.715895 9.67978 1.16774V6.34139" stroke="white" stroke-width="0.7" stroke-miterlimit="10" stroke-linecap="round" stroke-linejoin="round"/>
<path d="M18.6577 4.31066C18.6577 4.31066 18.2092 3.93366 17.6803 4.09297C17.1947 4.23926 17.1267 4.79925 17.4781 5.02827C17.4781 5.02827 17.8229 5.18209 18.2052 5.32312C19.1257 5.66262 18.7292 6.55317 17.9882 6.55317C17.6172 6.55317 17.3057 6.39068 17.1172 6.18268" stroke="white" stroke-width="0.7" stroke-miterlimit="10" stroke-linecap="round" stroke-linejoin="round"/>
<path d="M19.6172 4.05371H20.9975" stroke="white" stroke-width="0.7" stroke-miterlimit="10" stroke-linecap="round" stroke-linejoin="round"/>
<path d="M20.3047 4.13184V6.55149" stroke="white" stroke-width="0.7" stroke-miterlimit="10" stroke-linecap="round" stroke-linejoin="round"/>
<path d="M11.3516 4.05371V6.55318" stroke="white" stroke-width="0.7" stroke-miterlimit="10" stroke-linecap="round" stroke-linejoin="round"/>
<path d="M12.7666 4.75906C12.7666 5.14863 12.437 5.46441 12.0475 5.46441C11.8543 5.46441 11.3564 5.46751 11.3564 5.46751C11.3564 5.46751 11.3533 4.95542 11.3533 4.75906C11.3533 4.59781 11.3516 4.05371 11.3516 4.05371C11.3516 4.05371 11.8193 4.05371 12.0475 4.05371C12.437 4.05371 12.7666 4.36949 12.7666 4.75906Z" stroke="white" stroke-width="0.7" stroke-miterlimit="10" stroke-linecap="round" stroke-linejoin="round"/>
<path d="M14.9763 6.5542C15.6665 6.5542 16.2261 5.99466 16.2261 5.30444C16.2261 4.61422 15.6665 4.05469 14.9763 4.05469C14.2861 4.05469 13.7266 4.61422 13.7266 5.30444C13.7266 5.99466 14.2861 6.5542 14.9763 6.5542Z" stroke="white" stroke-width="0.7" stroke-miterlimit="10" stroke-linecap="round" stroke-linejoin="round"/>
<path d="M1.91406 4.76195C1.91406 3.03702 3.31241 1.63867 5.03733 1.63867C6.76226 1.63867 8.1606 3.03702 8.1606 4.76195C8.1606 6.48688 6.76226 7.88523 5.03733 7.88523C3.88895 7.88523 2.8853 7.26545 2.34272 6.3421" stroke="white" stroke-width="0.7" stroke-miterlimit="10" stroke-linecap="round" stroke-linejoin="round"/>
<path d="M6.5731 5.15451L4.14124 6.31689C3.94117 6.41255 3.73242 6.20273 3.82905 6.0031L4.35362 4.91956C4.40218 4.81921 4.40218 4.70218 4.35362 4.60183L3.82905 3.51829C3.73242 3.3187 3.94117 3.10889 4.14124 3.2045L6.5731 4.36688C6.90411 4.52508 6.90411 4.99627 6.5731 5.15451Z" stroke="white" stroke-width="0.7" stroke-miterlimit="10" stroke-linecap="round" stroke-linejoin="round"/>
<path d="M5.09296 4.7627H4.39062" stroke="white" stroke-width="0.7" stroke-miterlimit="10" stroke-linecap="round" stroke-linejoin="round"/>
</svg>
