<svg width="39" height="39" viewBox="0 0 39 39" fill="none" xmlns="http://www.w3.org/2000/svg">
<path d="M6.68811 30.2734L11.2399 35.2059C11.88 35.9076 11.7275 37.06 10.93 37.548C10.3674 37.8922 9.65606 37.7865 9.20458 37.2916L4.21875 31.7754" stroke="white" stroke-width="1.5" stroke-miterlimit="10" stroke-linecap="round" stroke-linejoin="round"/>
<path d="M4.08035 25.4811L1.49622 27.0623C0.782645 27.499 0.538141 28.466 0.950128 29.2223L2.06905 31.2764C2.48103 32.0327 3.39351 32.2918 4.10709 31.8552L6.69122 30.274L16.5816 27.8737L10.9868 17.6035L4.08035 25.4811Z" stroke="white" stroke-width="1.5" stroke-miterlimit="10" stroke-linecap="round" stroke-linejoin="round"/>
<path d="M6.68906 30.2762L4.07812 25.4834" stroke="white" stroke-width="1.5" stroke-miterlimit="10" stroke-linecap="round" stroke-linejoin="round"/>
<path d="M37.7524 16.7202V3.12181C37.7524 1.8119 36.7505 0.75 35.5145 0.75H16.4176C15.1816 0.75 14.1797 1.8119 14.1797 3.12181V16.7202C14.1797 18.0301 15.1816 19.092 16.4176 19.092H19.6999V23.6775L30.1436 19.092H35.5146C36.7505 19.092 37.7524 18.0301 37.7524 16.7202Z" stroke="white" stroke-width="1.5" stroke-miterlimit="10" stroke-linecap="round" stroke-linejoin="round"/>
<path d="M31.1856 16.0097H20.7419C19.918 16.0097 19.25 15.3018 19.25 14.4285V6.52246H32.6776V14.4285C32.6776 15.3018 32.0096 16.0097 31.1856 16.0097Z" stroke="white" stroke-width="1.5" stroke-miterlimit="10" stroke-linecap="round" stroke-linejoin="round"/>
<path d="M23.7266 6.51997V4.85969C23.7266 4.20474 24.2276 3.67383 24.8456 3.67383H27.0835C27.7015 3.67383 28.2025 4.20474 28.2025 4.85969V6.28092" stroke="white" stroke-width="1.5" stroke-miterlimit="10" stroke-linecap="round" stroke-linejoin="round"/>
<path d="M19.25 10.4756H32.6776" stroke="white" stroke-width="1.5" stroke-miterlimit="10" stroke-linecap="round" stroke-linejoin="round"/>
<path d="M23.3516 10.4756V12.6893" stroke="white" stroke-width="1.5" stroke-miterlimit="10" stroke-linecap="round" stroke-linejoin="round"/>
<path d="M28.5781 10.4756V12.6893" stroke="white" stroke-width="1.5" stroke-miterlimit="10" stroke-linecap="round" stroke-linejoin="round"/>
</svg>
