<svg width="25" height="27" viewBox="0 0 25 27" fill="none" xmlns="http://www.w3.org/2000/svg">
<path d="M9.21464 4.27633H8.57724H2.08488C1.20967 4.27633 0.5 4.98135 0.5 5.85144V8.0226V20.0543C0.5 20.9239 1.20967 21.6289 2.08488 21.6289H6.83121" stroke="white" stroke-miterlimit="10" stroke-linecap="round" stroke-linejoin="round"/>
<path d="M18.1647 21.6289H22.911C23.7862 21.6289 24.4958 20.9239 24.4958 20.0543V8.0226V5.85144C24.4958 4.98135 23.7862 4.27633 22.911 4.27633H16.4187H15.7812" stroke="white" stroke-miterlimit="10" stroke-linecap="round" stroke-linejoin="round"/>
<path d="M15.7831 4.27725H22.9126C23.788 4.27725 24.4977 4.98232 24.4977 5.85203V8.02351C24.4977 8.90206 23.7809 9.61426 22.8966 9.61426H2.10106C1.21684 9.61426 0.5 8.90206 0.5 8.02351V5.85203C0.5 4.98232 1.20961 4.27725 2.08504 4.27725H9.21464H15.7831Z" stroke="white" stroke-miterlimit="10" stroke-linecap="round" stroke-linejoin="round"/>
<path d="M16.4218 4.27637H8.57812V1.81624C8.57812 1.08953 9.17106 0.500434 9.9025 0.500434H15.0975C15.8289 0.500434 16.4218 1.08953 16.4218 1.81624V4.27637Z" stroke="white" stroke-miterlimit="10" stroke-linecap="round" stroke-linejoin="round"/>
<path d="M18.221 20.8106C18.221 23.9533 15.6567 26.501 12.4936 26.501C9.33045 26.501 6.76562 23.9533 6.76562 20.8106C6.76562 20.7518 6.76671 20.6936 6.76834 20.6353C6.86172 17.5731 9.38963 15.1198 12.4936 15.1198C13.1478 15.1198 13.776 15.2287 14.3613 15.4294C16.6074 16.1986 18.221 18.3174 18.221 20.8106Z" stroke="white" stroke-miterlimit="10" stroke-linecap="round" stroke-linejoin="round"/>
<path d="M10.7344 22.5576L14.252 19.0627" stroke="white" stroke-miterlimit="10" stroke-linecap="round" stroke-linejoin="round"/>
<path d="M14.252 22.5576L10.7344 19.0627" stroke="white" stroke-miterlimit="10" stroke-linecap="round" stroke-linejoin="round"/>
<path d="M7.01542 12.8506H3.75781V9.61407H7.01542V12.8506Z" stroke="white" stroke-miterlimit="10" stroke-linecap="round" stroke-linejoin="round"/>
<path d="M17.9844 12.8506H21.242V9.61407H17.9844V12.8506Z" stroke="white" stroke-miterlimit="10" stroke-linecap="round" stroke-linejoin="round"/>
</svg>
