<svg width="17" height="17" viewBox="0 0 17 17" fill="none" xmlns="http://www.w3.org/2000/svg">
<path d="M12.8516 4.09766C13.9033 5.21738 14.5477 6.72516 14.5477 8.38364C14.5477 9.03903 14.4471 9.67089 14.2604 10.2645" stroke="white" stroke-width="0.6" stroke-miterlimit="10" stroke-linecap="round" stroke-linejoin="round"/>
<path d="M6.35938 2.43628C6.97089 2.23616 7.6239 2.12793 8.30215 2.12793C9.6915 2.12793 10.9749 2.58199 12.0125 3.34996" stroke="white" stroke-width="0.6" stroke-miterlimit="10" stroke-linecap="round" stroke-linejoin="round"/>
<path d="M2.18391 9.65561C2.09918 9.24485 2.05469 8.81939 2.05469 8.38349C2.05469 7.67111 2.17358 6.98658 2.39256 6.34863" stroke="white" stroke-width="0.6" stroke-miterlimit="10" stroke-linecap="round" stroke-linejoin="round"/>
<path d="M10.2755 14.3217C9.65467 14.5287 8.99058 14.6407 8.30035 14.6407C5.67967 14.6407 3.43579 13.0252 2.50781 10.7344" stroke="white" stroke-width="0.6" stroke-miterlimit="10" stroke-linecap="round" stroke-linejoin="round"/>
<path d="M2.30469 7.83633H3.3682C3.67677 7.83633 3.97273 7.95908 4.19094 8.17758L4.40499 8.39193C4.6232 8.61042 4.74579 8.90676 4.74579 9.21579C4.74579 9.52478 4.86838 9.82115 5.08659 10.0397L5.5468 10.5005C5.68967 10.6435 5.76996 10.8376 5.76996 11.0399V11.3727C5.76996 11.794 6.11108 12.1356 6.53185 12.1356C6.95265 12.1356 7.29374 11.794 7.29374 11.3727V11.1947C7.29374 10.9432 7.39348 10.7021 7.57102 10.5243C7.74857 10.3465 7.98938 10.2466 8.24046 10.2466H8.37528C8.67755 10.2466 8.96742 10.1264 9.18115 9.91236L9.27564 9.81774C9.48937 9.60372 9.60945 9.31346 9.60945 9.01078C9.60945 8.7081 9.48937 8.41784 9.27564 8.20382L9.26649 8.19464C9.05276 7.98062 8.76289 7.86038 8.46063 7.86038C7.97921 7.86038 7.51752 7.66886 7.17711 7.328L7.11504 7.26583C6.93298 7.08352 6.8307 6.83627 6.8307 6.57847C6.8307 6.32066 6.93298 6.07342 7.11504 5.89111L7.47203 5.53363C7.7213 5.284 7.86138 4.94545 7.86138 4.59242C7.86138 4.23939 7.72134 3.90084 7.47203 3.65121C7.34635 3.52537 7.27575 3.35468 7.27575 3.17671V2.33984" stroke="white" stroke-width="0.6" stroke-miterlimit="10" stroke-linecap="round" stroke-linejoin="round"/>
<path d="M10.5267 10.5689C10.4783 10.4747 10.4524 10.3696 10.4524 10.2616C10.4524 10.0833 10.5231 9.91237 10.6491 9.78627L10.7053 9.72996C10.8257 9.60943 10.8933 9.44602 10.8933 9.27565C10.8933 9.10528 10.8257 8.9419 10.7053 8.82134L10.4982 8.61395C10.3532 8.46869 10.2717 8.27179 10.2717 8.06653C10.2717 7.86123 10.3532 7.66437 10.4982 7.51911L10.5512 7.46606C10.7518 7.26523 11.0239 7.1524 11.3077 7.1524C11.5226 7.1524 11.7286 7.06699 11.8804 6.91497L11.8877 6.9076C12.113 6.68202 12.2395 6.37628 12.2395 6.05746C12.2395 5.84244 12.1541 5.63621 12.0022 5.48407C11.8776 5.35925 11.7084 5.2891 11.532 5.2891C11.3558 5.2891 11.1869 5.21905 11.0624 5.0944L11.0415 5.07353C10.8924 4.92419 10.8086 4.72176 10.8086 4.5107C10.8086 4.27114 10.7135 4.04138 10.5441 3.87195L10.4121 3.73989C10.1582 3.48591 10.0156 3.14148 10.0156 2.78239V2.4873" stroke="white" stroke-width="0.6" stroke-miterlimit="10" stroke-linecap="round" stroke-linejoin="round"/>
<path d="M5.73438 13.9119L6.03912 13.6067C6.16998 13.4757 6.34747 13.402 6.53255 13.402C6.758 13.402 6.96954 13.293 7.10054 13.1092L7.21511 12.9484C7.43097 12.6456 7.77966 12.4658 8.15127 12.4658C8.53102 12.4658 8.88631 12.6536 9.10069 12.9675C9.22936 13.1684 9.45137 13.29 9.68979 13.29C9.83618 13.29 9.98034 13.3118 10.1179 13.3537" stroke="white" stroke-width="0.6" stroke-miterlimit="10" stroke-linecap="round" stroke-linejoin="round"/>
<path d="M0.741358 1.79335C0.467778 2.24583 0.306779 2.77412 0.297314 3.33931C0.268468 5.05822 1.66576 6.48258 3.38303 6.48345C4.01189 6.48378 4.59743 6.29567 5.08558 5.97248L5.8352 6.161C5.95912 6.19217 6.07221 6.08129 6.04366 5.95661L5.87506 5.22041C6.25105 4.7084 6.47325 4.07603 6.47334 3.39134C6.47354 1.67903 5.07257 0.286984 3.36223 0.299894C2.65687 0.305206 2.00775 0.547268 1.49018 0.950588" stroke="white" stroke-width="0.6" stroke-miterlimit="10" stroke-linecap="round" stroke-linejoin="round"/>
<path d="M3.83594 4.0791V4.499C3.83594 4.56422 3.87946 4.62143 3.9423 4.63882L4.47916 4.78742C4.59863 4.82048 4.70761 4.88365 4.79569 4.97089C4.93373 5.10511 5.00462 5.29518 5.00398 5.48712V6.0196" stroke="white" stroke-width="0.6" stroke-miterlimit="10" stroke-linecap="round" stroke-linejoin="round"/>
<path d="M2.93354 4.0791V4.499C2.93354 4.56422 2.89002 4.62143 2.82718 4.63882L2.29032 4.78742C2.17085 4.82048 2.06187 4.88365 1.97379 4.97089C1.83584 5.10501 1.76502 5.29492 1.76563 5.4867V6.01963" stroke="white" stroke-width="0.6" stroke-miterlimit="10" stroke-linecap="round" stroke-linejoin="round"/>
<path d="M4.01229 4.69824C3.74691 5.19882 3.031 5.19882 2.76562 4.69824" stroke="white" stroke-width="0.6" stroke-miterlimit="10" stroke-linecap="round" stroke-linejoin="round"/>
<path d="M2.91157 4.00036L3.04301 4.07511C3.25291 4.19452 3.51004 4.19452 3.71995 4.07511L3.85139 4.00036C4.21202 3.79526 4.43483 3.41183 4.43483 2.99638V2.61759C4.43483 2.20281 4.19193 1.82659 3.81434 1.65648C3.53905 1.53247 3.22391 1.53247 2.94862 1.65648C2.57102 1.82659 2.32812 2.20281 2.32812 2.61759V2.99634C2.32812 3.41183 2.55094 3.79526 2.91157 4.00036Z" stroke="white" stroke-width="0.6" stroke-miterlimit="10" stroke-linecap="round" stroke-linejoin="round"/>
<path d="M13.3166 10.1182C14.9836 10.1777 16.3212 11.5778 16.2932 13.2602C16.2649 14.9356 14.9056 16.2868 13.228 16.2996C11.5179 16.3125 10.1169 14.9205 10.1172 13.2081C10.1172 12.5233 10.3393 11.8911 10.7153 11.3789L10.5466 10.6429C10.5183 10.5183 10.6313 10.4073 10.7553 10.4385L11.5047 10.6271C11.7162 10.4871 11.9461 10.3725 12.1898 10.2875" stroke="white" stroke-width="0.6" stroke-miterlimit="10" stroke-linecap="round" stroke-linejoin="round"/>
<path d="M13.6562 13.877V14.2969C13.6562 14.3621 13.6998 14.4193 13.7626 14.4367L14.2995 14.5853C14.4189 14.6183 14.5279 14.6815 14.616 14.7687C14.754 14.903 14.8249 15.093 14.8243 15.285V15.8174" stroke="white" stroke-width="0.6" stroke-miterlimit="10" stroke-linecap="round" stroke-linejoin="round"/>
<path d="M12.7539 13.877V14.2969C12.7539 14.3621 12.7103 14.4193 12.6475 14.4367L12.1106 14.5853C11.9912 14.6183 11.8822 14.6815 11.7941 14.7687C11.6562 14.9029 11.5853 15.0928 11.5859 15.2845V15.8175" stroke="white" stroke-width="0.6" stroke-miterlimit="10" stroke-linecap="round" stroke-linejoin="round"/>
<path d="M13.8326 14.4961C13.5672 14.9967 12.8513 14.9967 12.5859 14.4961" stroke="white" stroke-width="0.6" stroke-miterlimit="10" stroke-linecap="round" stroke-linejoin="round"/>
<path d="M12.7397 13.7982L12.8711 13.8729C13.081 13.9923 13.3382 13.9923 13.5481 13.8729L13.6795 13.7982C14.0401 13.5931 14.263 13.2097 14.263 12.7942V12.4154C14.263 12.0007 14.0201 11.6244 13.6425 11.4543C13.3671 11.3303 13.052 11.3303 12.7767 11.4543C12.3991 11.6244 12.1562 12.0006 12.1562 12.4154V12.7942C12.1562 13.2096 12.3791 13.593 12.7397 13.7982Z" stroke="white" stroke-width="0.6" stroke-miterlimit="10" stroke-linecap="round" stroke-linejoin="round"/>
</svg>
