<svg width="26" height="26" viewBox="0 0 26 26" fill="none" xmlns="http://www.w3.org/2000/svg">
<path d="M19.4375 6.29688C21.0151 7.97643 21.9817 10.2381 21.9817 12.7257C21.9817 13.7088 21.8307 14.6566 21.5508 15.5471" stroke="#008037" stroke-width="1.2" stroke-miterlimit="10" stroke-linecap="round" stroke-linejoin="round"/>
<path d="M9.69531 3.80431C10.6126 3.50415 11.5921 3.3418 12.6094 3.3418C14.6934 3.3418 16.6185 4.02287 18.1749 5.17482" stroke="#008037" stroke-width="1.2" stroke-miterlimit="10" stroke-linecap="round" stroke-linejoin="round"/>
<path d="M3.42821 14.6342C3.30111 14.0181 3.23438 13.3799 3.23438 12.7261C3.23438 11.6575 3.41271 10.6307 3.74117 9.67383" stroke="#008037" stroke-width="1.2" stroke-miterlimit="10" stroke-linecap="round" stroke-linejoin="round"/>
<path d="M15.5732 21.6329C14.642 21.9433 13.6459 22.1114 12.6106 22.1114C8.67959 22.1114 5.31382 19.6881 3.92188 16.252" stroke="#008037" stroke-width="1.2" stroke-miterlimit="10" stroke-linecap="round" stroke-linejoin="round"/>
<path d="M3.60938 11.9048H5.20462C5.66747 11.9048 6.1114 12.0889 6.4387 12.4166L6.75978 12.7381C7.08709 13.0659 7.27097 13.5104 7.27097 13.9739C7.27097 14.4374 7.45486 14.8819 7.78216 15.2097L8.47246 15.9009C8.68677 16.1155 8.80721 16.4066 8.80721 16.7101V17.2092C8.80721 17.8412 9.31888 18.3536 9.95002 18.3536C10.5812 18.3536 11.0928 17.8412 11.0928 17.2092V16.9422C11.0928 16.565 11.2424 16.2033 11.5088 15.9366C11.7751 15.67 12.1363 15.5201 12.5129 15.5201H12.7151C13.1685 15.5201 13.6033 15.3398 13.9239 15.0188L14.0656 14.8768C14.3862 14.5558 14.5664 14.1204 14.5664 13.6664C14.5664 13.2124 14.3862 12.777 14.0656 12.456L14.0519 12.4422C13.7313 12.1212 13.2965 11.9408 12.8431 11.9408C12.121 11.9408 11.4285 11.6536 10.9179 11.1423L10.8248 11.049C10.5517 10.7756 10.3983 10.4047 10.3983 10.018C10.3983 9.63129 10.5517 9.26043 10.8248 8.98697L11.3603 8.45076C11.7342 8.07632 11.9443 7.56851 11.9443 7.03897C11.9443 6.50943 11.7342 6.00162 11.3603 5.62718C11.1717 5.43842 11.0658 5.18238 11.0658 4.91544V3.66016" stroke="#008037" stroke-width="1.2" stroke-miterlimit="10" stroke-linecap="round" stroke-linejoin="round"/>
<path d="M15.9463 16.003C15.8738 15.8618 15.8348 15.704 15.8348 15.5421C15.8348 15.2747 15.9409 15.0183 16.1299 14.8291L16.2142 14.7447C16.3948 14.5639 16.4963 14.3188 16.4963 14.0632C16.4963 13.8077 16.3948 13.5626 16.2142 13.3818L15.9036 13.0707C15.686 12.8528 15.5638 12.5575 15.5638 12.2496C15.5638 11.9416 15.686 11.6463 15.9036 11.4285L15.983 11.3489C16.2839 11.0476 16.6921 10.8784 17.1178 10.8784C17.4401 10.8784 17.7491 10.7503 17.9768 10.5223L17.9878 10.5112C18.3256 10.1728 18.5154 9.71422 18.5154 9.23601C18.5154 8.91349 18.3874 8.60415 18.1595 8.37593C17.9726 8.18871 17.7188 8.08349 17.4542 8.08349C17.1899 8.08349 16.9365 7.97841 16.7498 7.79144L16.7185 7.76014C16.4948 7.53613 16.3692 7.23249 16.3692 6.9159C16.3692 6.55658 16.2265 6.21194 15.9724 5.95779L15.7744 5.75971C15.3936 5.37875 15.1797 4.8621 15.1797 4.32348V3.88086" stroke="#008037" stroke-width="1.2" stroke-miterlimit="10" stroke-linecap="round" stroke-linejoin="round"/>
<path d="M8.75781 21.0186L9.21492 20.5609C9.41122 20.3644 9.67744 20.2539 9.95505 20.2539C10.2932 20.2539 10.6105 20.0903 10.807 19.8147L10.9789 19.5735C11.3027 19.1193 11.8257 18.8496 12.3831 18.8496C12.9527 18.8496 13.4856 19.1313 13.8072 19.6021C14.0002 19.9035 14.3332 20.0859 14.6908 20.0859C14.9104 20.0859 15.1267 20.1186 15.333 20.1814" stroke="#008037" stroke-width="1.2" stroke-miterlimit="10" stroke-linecap="round" stroke-linejoin="round"/>
<path d="M1.26828 2.83989C0.857913 3.5186 0.616418 4.31103 0.602221 5.1588C0.558953 7.73712 2.65486 9.87364 5.23072 9.87494C6.174 9.87542 7.05229 9.59327 7.78451 9.10849L8.90893 9.39127C9.09479 9.43802 9.26443 9.27171 9.2216 9.08468L8.96871 7.9804C9.53268 7.2124 9.86598 6.26385 9.86612 5.23683C9.86641 2.66841 7.765 0.580379 5.19952 0.599743C4.1415 0.607711 3.16784 0.970799 2.39149 1.57577" stroke="#008037" stroke-width="1.2" stroke-miterlimit="10" stroke-linecap="round" stroke-linejoin="round"/>
<path d="M5.91406 6.26953V6.89937C5.91406 6.9972 5.97935 7.08302 6.07361 7.10909L6.87889 7.332C7.05809 7.38159 7.22155 7.47633 7.35367 7.6072C7.56073 7.80852 7.66707 8.09362 7.6661 8.38152V9.18023" stroke="#008037" stroke-width="1.2" stroke-miterlimit="10" stroke-linecap="round" stroke-linejoin="round"/>
<path d="M4.55654 6.26953V6.89937C4.55654 6.9972 4.49125 7.08302 4.39699 7.10909L3.59171 7.332C3.41251 7.38159 3.24905 7.47633 3.11693 7.6072C2.91001 7.80837 2.80378 8.09323 2.80469 8.38089V9.18027" stroke="#008037" stroke-width="1.2" stroke-miterlimit="10" stroke-linecap="round" stroke-linejoin="round"/>
<path d="M6.16684 7.19922C5.76879 7.95007 4.69493 7.95007 4.29688 7.19922" stroke="#008037" stroke-width="1.2" stroke-miterlimit="10" stroke-linecap="round" stroke-linejoin="round"/>
<path d="M4.5314 6.15136L4.72857 6.26349C5.04341 6.4426 5.4291 6.4426 5.74395 6.26349L5.94111 6.15136C6.48205 5.84371 6.81626 5.26858 6.81626 4.64541V4.07724C6.81626 3.45507 6.45192 2.89076 5.88553 2.6356C5.47261 2.44959 4.9999 2.44959 4.58698 2.6356C4.02059 2.89076 3.65625 3.45507 3.65625 4.07724V4.64536C3.65625 5.26858 3.99046 5.84371 4.5314 6.15136Z" stroke="#008037" stroke-width="1.2" stroke-miterlimit="10" stroke-linecap="round" stroke-linejoin="round"/>
<path d="M20.1349 15.3281C22.6354 15.4175 24.6418 17.5176 24.5998 20.0412C24.5573 22.5542 22.5185 24.5809 20.0021 24.6002C17.437 24.6195 15.3355 22.5315 15.3359 19.9629C15.3359 18.9358 15.6691 17.9874 16.2332 17.2191L15.9801 16.1152C15.9376 15.9284 16.1071 15.7618 16.293 15.8086L17.4172 16.0916C17.7345 15.8815 18.0793 15.7096 18.4448 15.5821" stroke="#008037" stroke-width="1.2" stroke-miterlimit="10" stroke-linecap="round" stroke-linejoin="round"/>
<path d="M20.6484 20.9648V21.5947C20.6484 21.6925 20.7137 21.7783 20.808 21.8044L21.6133 22.0273C21.7925 22.0769 21.9559 22.1716 22.088 22.3025C22.2951 22.5038 22.4014 22.7889 22.4005 23.0768V23.8755" stroke="#008037" stroke-width="1.2" stroke-miterlimit="10" stroke-linecap="round" stroke-linejoin="round"/>
<path d="M19.2909 20.9648V21.5947C19.2909 21.6925 19.2256 21.7783 19.1314 21.8044L18.3261 22.0273C18.1469 22.0769 17.9834 22.1716 17.8513 22.3025C17.6444 22.5037 17.5382 22.7885 17.5391 23.0762V23.8756" stroke="#008037" stroke-width="1.2" stroke-miterlimit="10" stroke-linecap="round" stroke-linejoin="round"/>
<path d="M20.9012 21.8945C20.5032 22.6454 19.4293 22.6454 19.0312 21.8945" stroke="#008037" stroke-width="1.2" stroke-miterlimit="10" stroke-linecap="round" stroke-linejoin="round"/>
<path d="M19.2658 20.8466L19.4629 20.9588C19.7778 21.1379 20.1635 21.1379 20.4783 20.9588L20.6755 20.8466C21.2164 20.539 21.5506 19.9638 21.5506 19.3407V18.7725C21.5506 18.1504 21.1863 17.5861 20.6199 17.3309C20.2069 17.1449 19.7343 17.1449 19.3214 17.3309C18.755 17.586 18.3906 18.1503 18.3906 18.7725V19.3407C18.3906 19.9638 18.7248 20.5389 19.2658 20.8466Z" stroke="#008037" stroke-width="1.2" stroke-miterlimit="10" stroke-linecap="round" stroke-linejoin="round"/>
</svg>
