<svg width="32" height="24" viewBox="0 0 32 24" fill="none" xmlns="http://www.w3.org/2000/svg">
<path d="M30.6004 3.93468V8.08376C30.6004 8.28301 30.4289 8.44457 30.2173 8.44457H26.7581C26.5466 8.44457 26.375 8.28301 26.375 8.08376V0.960421C26.375 0.76117 26.5466 0.599609 26.7581 0.599609H30.2173C30.4289 0.599609 30.6004 0.76117 30.6004 0.960421V1.85026" stroke="#008037" stroke-width="1.2" stroke-miterlimit="10" stroke-linecap="round" stroke-linejoin="round"/>
<path d="M26.3804 1.72234C26.3804 1.72234 24.1701 1.72234 23.1474 1.72234C22.1248 1.72234 17.7183 1.19218 17.7183 1.19218C17.14 1.13573 16.5632 1.30775 16.1251 1.66777C15.2198 2.41167 13.6463 3.71968 12.7934 4.51537C12.2036 5.06549 11.7602 5.73856 11.4983 6.48036L11.0082 7.86869C10.7606 8.56997 11.1855 9.32388 11.941 9.52375C12.6179 9.70282 13.3293 9.37203 13.5898 8.75699L14.1599 7.41107C14.3929 6.86107 14.7945 6.38884 15.3135 6.05458L15.9383 5.65221C16.417 5.34392 17.0313 5.29185 17.5608 5.51464L19.1005 6.16253C19.766 6.4425 20.0046 7.21853 19.6012 7.79013L18.2548 9.7458C17.8868 10.2957 17.9678 11.0118 18.5864 11.4065C19.1402 11.7599 19.8636 11.7184 20.3227 11.2671L21.8018 9.22138C22.0974 8.82356 22.4899 8.49817 22.9465 8.27254L24.4944 7.50754C24.7253 7.39339 24.9819 7.33274 25.2427 7.33063L26.3804 7.32137V1.72234H26.3804Z" stroke="#008037" stroke-width="1.2" stroke-miterlimit="10" stroke-linecap="round" stroke-linejoin="round"/>
<path d="M16.8098 12.916H17.4113C18.7448 12.916 19.8258 13.9341 19.8258 15.1899V18.3734C19.8258 18.8129 19.4475 19.1692 18.9808 19.1692H12.2201C11.7534 19.1692 11.375 18.8129 11.375 18.3734V15.1899C11.375 13.9341 12.456 12.916 13.7895 12.916H14.391" stroke="#008037" stroke-width="1.2" stroke-miterlimit="10" stroke-linecap="round" stroke-linejoin="round"/>
<path d="M16.4329 13.1776L16.804 15.9501C16.8333 16.1688 16.7408 16.3863 16.5592 16.5254L15.833 17.0818C15.6973 17.1859 15.5027 17.1859 15.367 17.0818L14.6408 16.5254C14.4592 16.3862 14.3666 16.1688 14.396 15.9501L14.7702 13.1543" stroke="#008037" stroke-width="1.2" stroke-miterlimit="10" stroke-linecap="round" stroke-linejoin="round"/>
<path d="M13.5781 11.3543V10.0468C13.5781 8.99402 14.4843 8.14062 15.6022 8.14062C16.72 8.14062 17.6262 8.99402 17.6262 10.0468V11.3471C17.6262 12.4019 16.7183 13.2568 15.5984 13.2568C14.4826 13.2568 13.5781 12.405 13.5781 11.3543Z" stroke="#008037" stroke-width="1.2" stroke-miterlimit="10" stroke-linecap="round" stroke-linejoin="round"/>
<path d="M13.6562 10.2363H17.5195" stroke="#008037" stroke-width="1.2" stroke-miterlimit="10" stroke-linecap="round" stroke-linejoin="round"/>
<path d="M27.5832 16.3457H28.1848C29.5182 16.3457 30.5993 17.3638 30.5993 18.6196V21.8031C30.5993 22.2426 30.2209 22.5989 29.7542 22.5989H22.9935C22.5268 22.5989 22.1484 22.2426 22.1484 21.8031V18.6196C22.1484 17.3638 23.2295 16.3457 24.563 16.3457H25.1645" stroke="#008037" stroke-width="1.2" stroke-miterlimit="10" stroke-linecap="round" stroke-linejoin="round"/>
<path d="M27.2063 16.6092L27.5775 19.3817C27.6068 19.6004 27.5142 19.8179 27.3327 19.9571L26.6065 20.5135C26.4707 20.6175 26.2761 20.6175 26.1404 20.5135L25.4142 19.9571C25.2327 19.8179 25.1401 19.6004 25.1694 19.3817L25.5437 16.5859" stroke="#008037" stroke-width="1.2" stroke-miterlimit="10" stroke-linecap="round" stroke-linejoin="round"/>
<path d="M24.3516 14.7859V13.4784C24.3516 12.4257 25.2578 11.5723 26.3756 11.5723C27.4935 11.5723 28.3996 12.4257 28.3996 13.4784V14.7788C28.3996 15.8335 27.4917 16.6885 26.3718 16.6885C25.256 16.6885 24.3516 15.8367 24.3516 14.7859Z" stroke="#008037" stroke-width="1.2" stroke-miterlimit="10" stroke-linecap="round" stroke-linejoin="round"/>
<path d="M24.4375 13.668H28.3007" stroke="#008037" stroke-width="1.2" stroke-miterlimit="10" stroke-linecap="round" stroke-linejoin="round"/>
<path d="M3.02617 22.5989H1.44665C0.979919 22.5989 0.601562 22.2426 0.601562 21.8031V18.6196C0.601562 17.3638 1.68261 16.3457 3.01609 16.3457H3.61761" stroke="#008037" stroke-width="1.2" stroke-miterlimit="10" stroke-linecap="round" stroke-linejoin="round"/>
<path d="M6.03577 16.3457H6.63728C7.97077 16.3457 9.05181 17.3638 9.05181 18.6196V21.8031C9.05181 22.2426 8.67345 22.5989 8.20673 22.5989H5.21875" stroke="#008037" stroke-width="1.2" stroke-miterlimit="10" stroke-linecap="round" stroke-linejoin="round"/>
<path d="M5.65943 16.6092L6.03061 19.3817C6.05988 19.6004 5.96735 19.8179 5.78577 19.9571L5.05961 20.5135C4.92385 20.6175 4.72924 20.6175 4.59354 20.5135L3.86737 19.9571C3.6858 19.8179 3.5932 19.6004 3.62254 19.3817L3.99679 16.5859" stroke="#008037" stroke-width="1.2" stroke-miterlimit="10" stroke-linecap="round" stroke-linejoin="round"/>
<path d="M2.80469 14.784V13.4765C2.80469 12.4237 3.71086 11.5703 4.82872 11.5703C5.94659 11.5703 6.85276 12.4237 6.85276 13.4765V14.7768C6.85276 15.8315 5.94484 16.6865 4.82492 16.6865C3.70917 16.6866 2.80469 15.8348 2.80469 14.784Z" stroke="#008037" stroke-width="1.2" stroke-miterlimit="10" stroke-linecap="round" stroke-linejoin="round"/>
<path d="M2.88281 13.668H6.74606" stroke="#008037" stroke-width="1.2" stroke-miterlimit="10" stroke-linecap="round" stroke-linejoin="round"/>
</svg>
