<svg width="22" height="22" viewBox="0 0 22 22" fill="none" xmlns="http://www.w3.org/2000/svg">
<mask id="mask0_249_5711" style="mask-type:luminance" maskUnits="userSpaceOnUse" x="0" y="0" width="22" height="22">
<path d="M21.6504 21.6504V0.349609H0.349609V21.6504H21.6504Z" fill="white" stroke="white" stroke-width="0.7"/>
</mask>
<g mask="url(#mask0_249_5711)">
<path d="M0.320312 2.51388V2.20734C0.320312 1.82363 0.631363 1.51254 1.01512 1.51254H20.9908C21.3745 1.51254 21.6856 1.82363 21.6856 2.20734V5.14941H0.320312V3.98926" stroke="white" stroke-width="0.7" stroke-miterlimit="10" stroke-linecap="round" stroke-linejoin="round"/>
<path d="M3.32031 2.24219V0.781809" stroke="white" stroke-width="0.7" stroke-miterlimit="10" stroke-linecap="round" stroke-linejoin="round"/>
<path d="M5.88281 2.24219V0.781809" stroke="white" stroke-width="0.7" stroke-miterlimit="10" stroke-linecap="round" stroke-linejoin="round"/>
<path d="M8.44531 2.24219V0.781809" stroke="white" stroke-width="0.7" stroke-miterlimit="10" stroke-linecap="round" stroke-linejoin="round"/>
<path d="M11 2.24219V0.781809" stroke="white" stroke-width="0.7" stroke-miterlimit="10" stroke-linecap="round" stroke-linejoin="round"/>
<path d="M13.5625 2.24219V0.781809" stroke="white" stroke-width="0.7" stroke-miterlimit="10" stroke-linecap="round" stroke-linejoin="round"/>
<path d="M16.125 2.24219V0.781809" stroke="white" stroke-width="0.7" stroke-miterlimit="10" stroke-linecap="round" stroke-linejoin="round"/>
<path d="M18.6875 2.24219V0.781809" stroke="white" stroke-width="0.7" stroke-miterlimit="10" stroke-linecap="round" stroke-linejoin="round"/>
<path d="M20.9908 21.2207H1.01512C0.631406 21.2207 0.320312 20.9097 0.320312 20.5259V5.1494H21.6856V20.5259C21.6856 20.9097 21.3746 21.2207 20.9908 21.2207Z" stroke="white" stroke-width="0.7" stroke-miterlimit="10" stroke-linecap="round" stroke-linejoin="round"/>
<path d="M4.71094 10.0471V21.2207" stroke="white" stroke-width="0.7" stroke-miterlimit="10" stroke-linecap="round" stroke-linejoin="round"/>
<path d="M4.71094 5.14924V8.35059" stroke="white" stroke-width="0.7" stroke-miterlimit="10" stroke-linecap="round" stroke-linejoin="round"/>
<path d="M8.90625 14.6506V21.2207" stroke="white" stroke-width="0.7" stroke-miterlimit="10" stroke-linecap="round" stroke-linejoin="round"/>
<path d="M8.90625 11.5695V13.1279" stroke="white" stroke-width="0.7" stroke-miterlimit="10" stroke-linecap="round" stroke-linejoin="round"/>
<path d="M8.90625 5.15019V10.0479" stroke="white" stroke-width="0.7" stroke-miterlimit="10" stroke-linecap="round" stroke-linejoin="round"/>
<path d="M13.1016 19.2542V21.2207" stroke="white" stroke-width="0.7" stroke-miterlimit="10" stroke-linecap="round" stroke-linejoin="round"/>
<path d="M13.1016 11.5684V17.7305" stroke="white" stroke-width="0.7" stroke-miterlimit="10" stroke-linecap="round" stroke-linejoin="round"/>
<path d="M13.1016 5.15019V10.0479" stroke="white" stroke-width="0.7" stroke-miterlimit="10" stroke-linecap="round" stroke-linejoin="round"/>
<path d="M17.2969 11.6379V21.2207" stroke="white" stroke-width="0.7" stroke-miterlimit="10" stroke-linecap="round" stroke-linejoin="round"/>
<path d="M17.2969 5.1482V9.94824" stroke="white" stroke-width="0.7" stroke-miterlimit="10" stroke-linecap="round" stroke-linejoin="round"/>
<path d="M2.10938 7.11523H3.11854" stroke="white" stroke-width="0.7" stroke-miterlimit="10" stroke-linecap="round" stroke-linejoin="round"/>
<path d="M6.30469 7.11523H7.31385" stroke="white" stroke-width="0.7" stroke-miterlimit="10" stroke-linecap="round" stroke-linejoin="round"/>
<path d="M10.5 7.11523H11.5092" stroke="white" stroke-width="0.7" stroke-miterlimit="10" stroke-linecap="round" stroke-linejoin="round"/>
<path d="M14.6953 7.11523H15.7045" stroke="white" stroke-width="0.7" stroke-miterlimit="10" stroke-linecap="round" stroke-linejoin="round"/>
<path d="M18.8906 7.11523H19.8998" stroke="white" stroke-width="0.7" stroke-miterlimit="10" stroke-linecap="round" stroke-linejoin="round"/>
<path d="M8.90905 10.0479H2.21022C2.15454 10.0479 2.10938 10.0026 2.10938 9.94696V8.62614C2.10938 8.57046 2.15454 8.5253 2.21022 8.5253H8.90905V10.0479Z" stroke="white" stroke-width="0.7" stroke-miterlimit="10" stroke-linecap="round" stroke-linejoin="round"/>
<path d="M19.8032 11.5674H4.71094V10.0448H19.8032C19.859 10.0448 19.9041 10.09 19.9041 10.1457V11.4665C19.9041 11.5222 19.859 11.5674 19.8032 11.5674Z" stroke="white" stroke-width="0.7" stroke-miterlimit="10" stroke-linecap="round" stroke-linejoin="round"/>
<path d="M13.1044 14.6494H4.71094V13.1269H13.1044V14.6494Z" stroke="white" stroke-width="0.7" stroke-miterlimit="10" stroke-linecap="round" stroke-linejoin="round"/>
<path d="M13.103 16.1738H8.90625V14.6512H13.103V16.1738Z" stroke="white" stroke-width="0.7" stroke-miterlimit="10" stroke-linecap="round" stroke-linejoin="round"/>
<path d="M14.3158 19.2529H8.90625V17.7304H17.2997V19.2529H15.8172" stroke="white" stroke-width="0.7" stroke-miterlimit="10" stroke-linecap="round" stroke-linejoin="round"/>
</g>
</svg>
