<svg width="25" height="25" viewBox="0 0 25 25" fill="none" xmlns="http://www.w3.org/2000/svg">
<path d="M5.56646 20.0606L3.98739 20.7113C3.08414 21.0835 2.05016 20.6531 1.67789 19.75L0.633919 17.2175C0.261654 16.3144 0.692108 15.2807 1.59537 14.9085L3.17444 14.2578L5.56646 20.0606Z" stroke="black" stroke-miterlimit="10" stroke-linecap="round" stroke-linejoin="round"/>
<path d="M4.51133 13.706L3.17188 14.2578L5.56366 20.0609L6.90312 19.5091L4.51133 13.706Z" stroke="black" stroke-miterlimit="10" stroke-linecap="round" stroke-linejoin="round"/>
<path d="M14.4702 18.8492L14.8 19.6494C14.9525 20.0192 14.7762 20.4425 14.4063 20.5949C14.0365 20.7473 13.6131 20.5711 13.4606 20.2013L8.8125 8.92578" stroke="black" stroke-miterlimit="10" stroke-linecap="round" stroke-linejoin="round"/>
<path d="M10.4062 8.98438L13.8362 17.3047" stroke="black" stroke-miterlimit="10" stroke-linecap="round" stroke-linejoin="round"/>
<path d="M14.1072 14.7967L13.1439 15.6386L11.6719 12.0677L12.9487 11.9865C13.4025 11.9577 13.8243 12.221 13.9976 12.6413L14.39 13.5933C14.5633 14.0136 14.4496 14.4975 14.1072 14.7967Z" stroke="black" stroke-miterlimit="10" stroke-linecap="round" stroke-linejoin="round"/>
<path d="M8.29756 24.1633L7.7203 24.4012C7.05294 24.6762 6.289 24.3582 6.01394 23.691L4.67188 20.4354L6.90421 19.5156L8.56016 23.5327C8.66185 23.7793 8.54427 24.0617 8.29756 24.1633Z" stroke="black" stroke-miterlimit="10" stroke-linecap="round" stroke-linejoin="round"/>
<path d="M8.53757 19.6718L8.75714 20.2044C8.86763 20.4724 8.73986 20.7792 8.4718 20.8897L7.61775 21.2416L6.90625 19.5156" stroke="black" stroke-miterlimit="10" stroke-linecap="round" stroke-linejoin="round"/>
<path d="M13.3509 19.9372L6.9077 19.5112L4.51562 13.7084L8.78752 8.86719L13.3509 19.9372Z" stroke="black" stroke-miterlimit="10" stroke-linecap="round" stroke-linejoin="round"/>
<path d="M10.4297 5.96408C10.4297 5.96408 10.7901 6.3267 11.1826 6.10887C11.3763 6.0014 11.4932 5.79404 11.4932 5.57258V3.16016" stroke="black" stroke-miterlimit="10" stroke-linecap="round" stroke-linejoin="round"/>
<path d="M18.3373 3.85466C18.3373 4.23823 18.0262 4.5492 17.6426 4.5492C17.4523 4.5492 16.7656 4.55229 16.7656 4.55229C16.7656 4.55229 16.7656 4.04806 16.7656 3.8547C16.7656 3.69591 16.7656 3.16016 16.7656 3.16016C16.7656 3.16016 17.4177 3.16016 17.6426 3.16016C18.0262 3.16011 18.3373 3.47108 18.3373 3.85466Z" stroke="black" stroke-miterlimit="10" stroke-linecap="round" stroke-linejoin="round"/>
<path d="M18.6084 5.36713C18.6084 5.81584 18.2445 6.17958 17.7957 6.17958C17.5732 6.17958 16.7656 6.18315 16.7656 6.18315C16.7656 6.18315 16.7656 5.59327 16.7656 5.36713C16.7656 5.18135 16.7656 4.55469 16.7656 4.55469C16.7656 4.55469 17.5327 4.55469 17.7957 4.55469C18.2445 4.55469 18.6084 4.91847 18.6084 5.36713Z" stroke="black" stroke-miterlimit="10" stroke-linecap="round" stroke-linejoin="round"/>
<path d="M21.3919 3.47045C21.3919 3.47045 20.8502 3.01518 20.2114 3.20757C19.6248 3.38422 19.5428 4.06047 19.9672 4.33707C19.9672 4.33707 20.3836 4.5228 20.8455 4.69313C21.9573 5.10311 21.4783 6.17854 20.5833 6.17854C20.1351 6.17854 19.7589 5.98228 19.5312 5.73113" stroke="black" stroke-miterlimit="10" stroke-linecap="round" stroke-linejoin="round"/>
<path d="M14.1345 6.17849C14.9682 6.17849 15.644 5.50281 15.644 4.66932C15.644 3.83583 14.9682 3.16016 14.1345 3.16016C13.3008 3.16016 12.625 3.83583 12.625 4.66932C12.625 5.50281 13.3008 6.17849 14.1345 6.17849Z" stroke="black" stroke-miterlimit="10" stroke-linecap="round" stroke-linejoin="round"/>
<path d="M21.7109 0.5H23.216C23.9272 0.5 24.5037 1.07641 24.5037 1.78747V7.57891C24.5037 8.28997 23.9272 8.86638 23.216 8.86638H18.448C18.3605 8.86638 18.2745 8.88936 18.1986 8.93296L15.7294 10.3524C15.6312 10.4089 15.5099 10.3321 15.5189 10.2192L15.5954 9.25783C15.6122 9.04685 15.4455 8.86638 15.2338 8.86638H9.13149C8.42028 8.86638 7.84375 8.28997 7.84375 7.57891V1.78747C7.84375 1.07641 8.42028 0.5 9.13149 0.5H20.0208" stroke="#008037" stroke-miterlimit="10" stroke-linecap="round" stroke-linejoin="round"/>
<path d="M22.7153 11.286L19.9228 12.0208C19.7341 12.0704 19.7341 12.3381 19.9228 12.3878L22.7153 13.1225C22.8063 13.1464 22.8953 13.0778 22.8953 12.9838V11.4247C22.8953 11.3307 22.8063 11.2621 22.7153 11.286Z" stroke="#008037" stroke-miterlimit="10" stroke-linecap="round" stroke-linejoin="round"/>
<path d="M22.0765 15.001L19.2653 14.3414C19.0753 14.2969 18.9498 14.5334 19.0932 14.6656L21.2156 16.6233C21.2847 16.6871 21.3955 16.6682 21.4396 16.5851L22.1705 15.2079C22.2146 15.1248 22.1681 15.0225 22.0765 15.001Z" stroke="#008037" stroke-miterlimit="10" stroke-linecap="round" stroke-linejoin="round"/>
<path d="M19.7979 18.1819L17.704 16.1938C17.5626 16.0595 17.3348 16.2003 17.3918 16.3869L18.2356 19.1479C18.2631 19.2378 18.3682 19.2774 18.4483 19.2279L19.7745 18.4079C19.8546 18.3584 19.8661 18.2467 19.7979 18.1819Z" stroke="#008037" stroke-miterlimit="10" stroke-linecap="round" stroke-linejoin="round"/>
</svg>
