<svg width="15" height="14" viewBox="0 0 15 14" fill="none" xmlns="http://www.w3.org/2000/svg">
<path d="M13.3531 8.49443C13.3531 9.27458 12.716 9.90723 11.9304 9.90723C11.1449 9.90723 10.5078 9.27458 10.5078 8.49443C10.5078 7.71429 11.1449 7.08164 11.9304 7.08164C12.716 7.08164 13.3531 7.71429 13.3531 8.49443Z" stroke="white" stroke-width="0.6" stroke-miterlimit="10" stroke-linecap="round" stroke-linejoin="round"/>
<path d="M4.16642 13.2998H0.296875V12.7347C0.296875 11.4863 1.4014 10.4742 2.65844 10.4742C3.42694 10.4742 4.19174 10.8523 4.60374 11.4315" stroke="white" stroke-width="0.6" stroke-miterlimit="10" stroke-linecap="round" stroke-linejoin="round"/>
<path d="M9.99219 11.4315C10.4042 10.8523 11.169 10.4742 11.9375 10.4742C13.1945 10.4742 14.299 11.4863 14.299 12.7347V13.2998H10.4295" stroke="white" stroke-width="0.6" stroke-miterlimit="10" stroke-linecap="round" stroke-linejoin="round"/>
<path d="M4.07963 8.49443C4.07963 9.27458 3.44258 9.90723 2.657 9.90723C1.87143 9.90723 1.23438 9.27458 1.23438 8.49443C1.23438 7.71429 1.87143 7.08164 2.657 7.08164C3.44258 7.08164 4.07963 7.71429 4.07963 8.49443Z" stroke="white" stroke-width="0.6" stroke-miterlimit="10" stroke-linecap="round" stroke-linejoin="round"/>
<path d="M9.28804 7.36486C9.28804 8.45723 8.39634 9.34277 7.29637 9.34277C6.19639 9.34277 5.30469 8.45723 5.30469 7.36486C5.30469 6.27249 6.19639 5.38695 7.29637 5.38695C8.39634 5.38695 9.28804 6.27249 9.28804 7.36486Z" stroke="white" stroke-width="0.6" stroke-miterlimit="10" stroke-linecap="round" stroke-linejoin="round"/>
<path d="M7.28827 0.300236L6.67284 1.54999L5.29688 1.74835L6.29271 2.71216L6.0577 4.07324L7.28827 3.4307C7.75062 3.67201 8.06989 3.83872 8.51915 4.07324L8.28382 2.71216L9.27966 1.74835L7.9037 1.54999L7.28827 0.300236Z" stroke="white" stroke-width="0.6" stroke-miterlimit="10" stroke-linecap="round" stroke-linejoin="round"/>
<path d="M12.1131 5.06528L12.9892 5.52246L12.8219 4.55385L13.5306 3.86751L12.551 3.72624L12.1131 2.84465L11.6749 3.72624L10.6953 3.86751L11.4041 4.55385L11.2368 5.52246L12.1131 5.06528Z" stroke="white" stroke-width="0.6" stroke-miterlimit="10" stroke-linecap="round" stroke-linejoin="round"/>
<path d="M2.44123 5.06528L3.31728 5.52246L3.14998 4.55385L3.85873 3.86751L2.87911 3.72624L2.44123 2.84465L2.00306 3.72624L1.02344 3.86751L1.73219 4.55385L1.56489 5.52246L2.44123 5.06528Z" stroke="white" stroke-width="0.6" stroke-miterlimit="10" stroke-linecap="round" stroke-linejoin="round"/>
<path d="M10.4236 13.2998H4.16406V13.0172C4.16406 12.438 4.32368 11.8958 4.60138 11.4315C5.1471 10.52 6.14863 9.9091 7.29384 9.9091C8.15823 9.9091 8.94067 10.2569 9.50688 10.8195C9.69097 11.0023 9.85229 11.2077 9.98631 11.4315C10.264 11.8958 10.4236 12.438 10.4236 13.0172V13.2998Z" stroke="white" stroke-width="0.6" stroke-miterlimit="10" stroke-linecap="round" stroke-linejoin="round"/>
<path d="M8.39062 11.3603C8.69507 11.5589 8.94175 11.8381 9.09938 12.167" stroke="white" stroke-width="0.6" stroke-miterlimit="10" stroke-linecap="round" stroke-linejoin="round"/>
</svg>
