<svg width="16" height="16" viewBox="0 0 16 16" fill="none" xmlns="http://www.w3.org/2000/svg">
<path d="M1.3335 7.99935C1.3335 5.48519 1.3335 4.22812 2.11454 3.44706C2.8956 2.66602 4.15267 2.66602 6.66683 2.66602H9.3335C11.8476 2.66602 13.1048 2.66602 13.8858 3.44706C14.6668 4.22812 14.6668 5.48519 14.6668 7.99935V9.33268C14.6668 11.8468 14.6668 13.1039 13.8858 13.8849C13.1048 14.666 11.8476 14.666 9.3335 14.666H6.66683C4.15267 14.666 2.8956 14.666 2.11454 13.8849C1.3335 13.1039 1.3335 11.8468 1.3335 9.33268V7.99935Z" stroke="#797979"/>
<path d="M4.6665 2.66602V1.66602" stroke="#797979" stroke-width="1.5" stroke-linecap="round"/>
<path d="M11.3335 2.66602V1.66602" stroke="#797979" stroke-width="1.5" stroke-linecap="round"/>
<path d="M1.6665 6H14.3332" stroke="#797979" stroke-linecap="round"/>
<path d="M11.9998 11.3327C11.9998 11.7009 11.7014 11.9993 11.3332 11.9993C10.965 11.9993 10.6665 11.7009 10.6665 11.3327C10.6665 10.9645 10.965 10.666 11.3332 10.666C11.7014 10.666 11.9998 10.9645 11.9998 11.3327Z" fill="#797979"/>
<path d="M11.9998 8.66667C11.9998 9.03487 11.7014 9.33333 11.3332 9.33333C10.965 9.33333 10.6665 9.03487 10.6665 8.66667C10.6665 8.29847 10.965 8 11.3332 8C11.7014 8 11.9998 8.29847 11.9998 8.66667Z" fill="#797979"/>
<path d="M8.66683 11.3327C8.66683 11.7009 8.36836 11.9993 8.00016 11.9993C7.63196 11.9993 7.3335 11.7009 7.3335 11.3327C7.3335 10.9645 7.63196 10.666 8.00016 10.666C8.36836 10.666 8.66683 10.9645 8.66683 11.3327Z" fill="#797979"/>
<path d="M8.66683 8.66667C8.66683 9.03487 8.36836 9.33333 8.00016 9.33333C7.63196 9.33333 7.3335 9.03487 7.3335 8.66667C7.3335 8.29847 7.63196 8 8.00016 8C8.36836 8 8.66683 8.29847 8.66683 8.66667Z" fill="#797979"/>
<path d="M5.33333 11.3327C5.33333 11.7009 5.03485 11.9993 4.66667 11.9993C4.29848 11.9993 4 11.7009 4 11.3327C4 10.9645 4.29848 10.666 4.66667 10.666C5.03485 10.666 5.33333 10.9645 5.33333 11.3327Z" fill="#797979"/>
<path d="M5.33333 8.66667C5.33333 9.03487 5.03485 9.33333 4.66667 9.33333C4.29848 9.33333 4 9.03487 4 8.66667C4 8.29847 4.29848 8 4.66667 8C5.03485 8 5.33333 8.29847 5.33333 8.66667Z" fill="#797979"/>
</svg>
