<svg width="1010" height="592" viewBox="0 0 1010 592" fill="none" xmlns="http://www.w3.org/2000/svg">
<path d="M302.372 93.3645H238.516V73.1442C238.516 56.2634 252.81 42.5791 270.443 42.5791C288.076 42.5791 302.371 56.2634 302.371 73.1442V93.3645H302.372Z" fill="white" stroke="black" stroke-miterlimit="10" stroke-linecap="round" stroke-linejoin="round"/>
<path d="M270.445 42.5791V8.72119" stroke="black" stroke-miterlimit="10" stroke-linecap="round" stroke-linejoin="round"/>
<path d="M765.083 93.3645H701.227V73.1442C701.227 56.2634 715.521 42.5791 733.154 42.5791C750.787 42.5791 765.082 56.2634 765.082 73.1442L765.083 93.3645Z" fill="white" stroke="black" stroke-miterlimit="10" stroke-linecap="round" stroke-linejoin="round"/>
<path d="M733.156 42.5791V8.72119" stroke="black" stroke-miterlimit="10" stroke-linecap="round" stroke-linejoin="round"/>
<path d="M968.406 87.2988H790.43V295.543H968.406V87.2988Z" fill="white" stroke="black" stroke-miterlimit="10" stroke-linecap="round" stroke-linejoin="round"/>
<path d="M968.408 87.3042H790.438V295.548H968.408V87.3042Z" fill="white" stroke="black" stroke-miterlimit="10" stroke-linecap="round" stroke-linejoin="round"/>
<path d="M968.402 87.3042V167.855C958.298 177.432 945.85 186.404 931.103 192.114C884.936 209.988 824.999 190.229 859.38 127.222C868.091 111.274 874.343 98.092 878.827 87.3042H968.402Z" fill="white" stroke="black" stroke-miterlimit="10" stroke-linecap="round" stroke-linejoin="round"/>
<path d="M968.407 218.987V295.548H953.459C932.072 288.517 908.686 277.55 905.567 262.648C901.313 242.255 944.275 226.28 968.407 218.987Z" fill="white" stroke="black" stroke-miterlimit="10" stroke-linecap="round" stroke-linejoin="round"/>
<path d="M864.043 295.548H790.438V263.322C821.412 234.55 868.312 196.435 876.088 221.272C885 249.686 866.444 278.623 864.043 295.548Z" fill="white" stroke="black" stroke-miterlimit="10" stroke-linecap="round" stroke-linejoin="round"/>
<path d="M838.761 162.957C838.761 175.561 812.414 183.679 790.438 188.275V114.026C808.663 125.929 838.761 147.876 838.761 162.957Z" fill="white" stroke="black" stroke-miterlimit="10" stroke-linecap="round" stroke-linejoin="round"/>
<path d="M902.122 173.304C915.957 173.304 927.173 163.409 927.173 151.203C927.173 138.997 915.957 129.102 902.122 129.102C888.286 129.102 877.07 138.997 877.07 151.203C877.07 163.409 888.286 173.304 902.122 173.304Z" fill="white" stroke="black" stroke-miterlimit="10" stroke-linecap="round" stroke-linejoin="round"/>
<path d="M836.791 206.221C836.791 210.377 832.833 213.745 827.95 213.745C823.068 213.745 819.109 210.377 819.109 206.221C819.109 202.066 823.068 198.697 827.95 198.697C832.833 198.697 836.791 202.067 836.791 206.221Z" fill="white" stroke="black" stroke-miterlimit="10" stroke-linecap="round" stroke-linejoin="round"/>
<path d="M914.401 228.793C914.401 234.506 909.563 239.138 903.595 239.138C897.627 239.138 892.789 234.506 892.789 228.793C892.789 223.08 897.627 218.448 903.595 218.448C909.563 218.448 914.401 223.08 914.401 228.793Z" fill="white" stroke="black" stroke-miterlimit="10" stroke-linecap="round" stroke-linejoin="round"/>
<path d="M937 257.948C937 260.025 935.241 261.71 933.07 261.71C930.9 261.71 929.141 260.025 929.141 257.948C929.141 255.87 930.9 254.186 933.07 254.186C935.241 254.186 937 255.87 937 257.948Z" fill="white" stroke="black" stroke-miterlimit="10" stroke-linecap="round" stroke-linejoin="round"/>
<path d="M867.665 128.575C874.954 121.597 874.954 110.284 867.665 103.305C860.376 96.3274 848.558 96.3274 841.268 103.305C833.979 110.284 833.979 121.597 841.268 128.575C848.558 135.554 860.376 135.554 867.665 128.575Z" fill="white" stroke="black" stroke-miterlimit="10" stroke-linecap="round" stroke-linejoin="round"/>
<path d="M910.357 409.381C918.411 409.381 924.94 392.986 924.94 372.763C924.94 352.539 918.411 336.145 910.357 336.145C902.303 336.145 895.773 352.539 895.773 372.763C895.773 392.986 902.303 409.381 910.357 409.381Z" fill="#008037" stroke="black" stroke-miterlimit="10"/>
<path d="M865.045 350.181C869.604 363.918 878.362 373.513 884.607 371.614C890.852 369.715 892.219 357.039 887.66 343.304C883.101 329.567 874.343 319.973 868.098 321.871C861.853 323.769 860.486 336.445 865.045 350.181Z" fill="#008037" stroke="black" stroke-miterlimit="10"/>
<path d="M972.05 433.008C986.894 430.602 998.04 423.636 996.945 417.451C995.851 411.266 982.929 408.205 968.086 410.613C953.243 413.019 942.096 419.985 943.191 426.17C944.287 432.353 957.207 435.415 972.05 433.008Z" fill="#008037" stroke="black" stroke-miterlimit="10"/>
<path d="M851.321 399.154C863.72 410.925 878.367 416.03 884.039 410.555C889.711 405.08 884.258 391.099 871.859 379.329C859.461 367.557 844.813 362.454 839.141 367.929C833.471 373.403 838.923 387.383 851.321 399.154Z" fill="#008037" stroke="black" stroke-miterlimit="10"/>
<path d="M936.748 366.866C924.759 383.519 921.187 401.072 928.769 406.076C936.351 411.079 952.217 401.635 964.205 384.983C976.194 368.331 979.766 350.777 972.184 345.774C964.602 340.772 948.737 350.215 936.748 366.866Z" fill="#008037" stroke="black" stroke-miterlimit="10"/>
<path d="M909.339 407.555L908.211 518.952" stroke="black" stroke-miterlimit="10" stroke-linecap="round"/>
<path d="M910.696 359.147L909.336 407.555" stroke="black" stroke-miterlimit="10" stroke-linecap="round"/>
<path d="M910.602 351.25L910.699 354.959" stroke="black" stroke-miterlimit="10" stroke-linecap="round"/>
<path d="M928.825 403.698C921.515 418.395 915.572 436.248 914.422 456.528V525.427" stroke="black" stroke-miterlimit="10" stroke-linecap="round"/>
<path d="M953.878 367.01C947.079 374.523 937.083 387.099 928.828 403.699" stroke="black" stroke-miterlimit="10" stroke-linecap="round"/>
<path d="M961.755 359.032C961.755 359.032 960.243 360.354 957.758 362.883" stroke="black" stroke-miterlimit="10" stroke-linecap="round"/>
<path d="M883.133 408.868C891.64 420.125 900.185 434.86 906.774 453.783" stroke="black" stroke-miterlimit="10" stroke-linecap="round"/>
<path d="M866.352 390.411C871.5 395.087 877.307 401.163 883.128 408.867" stroke="black" stroke-miterlimit="10" stroke-linecap="round"/>
<path d="M848.438 377.341C848.438 377.341 853.639 379.893 861.213 386.007" stroke="black" stroke-miterlimit="10" stroke-linecap="round"/>
<path d="M883.742 368.209C891.82 392.548 902.666 428.514 907.725 459.733" stroke="black" stroke-miterlimit="10" stroke-linecap="round"/>
<path d="M878.82 353.771C880.258 357.876 881.931 362.749 883.742 368.208" stroke="black" stroke-miterlimit="10" stroke-linecap="round"/>
<path d="M873.781 339.806C873.781 339.806 875.194 343.531 877.465 349.922" stroke="black" stroke-miterlimit="10" stroke-linecap="round"/>
<path d="M943.943 422.795C933.85 426.46 920.047 436.681 915.258 450.068" stroke="black" stroke-miterlimit="10" stroke-linecap="round"/>
<path d="M962.583 419.167C957.149 419.472 950.493 420.416 943.938 422.795" stroke="black" stroke-miterlimit="10" stroke-linecap="round"/>
<path d="M974.667 419.452C974.667 419.452 972.87 419.205 969.906 419.095" stroke="black" stroke-miterlimit="10" stroke-linecap="round"/>
<path d="M942.932 486.552C956.574 492.651 969.879 492.987 972.652 487.302C975.425 481.62 966.614 472.067 952.972 465.97C939.33 459.873 926.025 459.537 923.252 465.22C920.48 470.905 929.29 480.455 942.932 486.552Z" fill="#008037" stroke="black" stroke-miterlimit="10"/>
<path d="M943.368 470.014C938.716 467.309 932.679 464.464 925.872 462.854C925.872 462.854 921.313 459.941 916.485 463.022C914.64 464.199 915.255 473.031 915.255 473.031V518.953" stroke="black" stroke-miterlimit="10" stroke-linecap="round"/>
<path d="M953.134 476.824C953.134 476.824 951.801 475.645 949.43 473.94" stroke="black" stroke-miterlimit="10" stroke-linecap="round"/>
<path d="M845.024 433.008C830.18 430.602 819.034 423.636 820.129 417.451C821.223 411.266 834.144 408.205 848.988 410.613C863.831 413.019 874.978 419.985 873.882 426.17C872.787 432.353 859.867 435.415 845.024 433.008Z" fill="#008037" stroke="black" stroke-miterlimit="10"/>
<path d="M872.812 422.681C874.59 423.314 876.363 424.052 878.102 424.909C890.368 430.956 897.868 443.274 897.868 456.483V517.186" stroke="black" stroke-miterlimit="10" stroke-linecap="round"/>
<path d="M852.93 419.094C858.534 419.298 865.722 420.157 872.817 422.681" stroke="black" stroke-miterlimit="10" stroke-linecap="round"/>
<path d="M842.406 419.452C842.406 419.452 843.591 419.29 845.62 419.17" stroke="black" stroke-miterlimit="10" stroke-linecap="round"/>
<path d="M859.927 474.589C846.883 481.787 833.657 483.216 830.386 477.78C827.114 472.345 835.036 462.105 848.079 454.908C861.123 447.712 874.349 446.282 877.621 451.717C880.892 457.153 872.971 467.393 859.927 474.589Z" fill="#008037" stroke="black" stroke-miterlimit="10"/>
<path d="M856.758 459.045C861.214 455.784 867.325 452.061 874.474 449.68C874.474 449.68 890.654 447.124 894.346 457.133" stroke="black" stroke-miterlimit="10" stroke-linecap="round"/>
<path d="M848.891 465.736C848.891 465.736 849.696 464.89 851.18 463.558" stroke="black" stroke-miterlimit="10" stroke-linecap="round"/>
<path d="M891.886 457.722C891.886 457.722 910.951 454.19 910.951 466.554C910.951 478.917 897.421 488.926 891.886 503.056C886.351 517.186 875.896 517.775 870.361 503.645C864.825 489.515 872.821 463.609 891.886 457.722Z" fill="#008037" stroke="black" stroke-miterlimit="10"/>
<path d="M904.797 458.312C904.797 458.312 888.193 464.788 883.273 485.394L904.797 458.312Z" fill="#008037"/>
<path d="M904.797 458.312C904.797 458.312 888.193 464.788 883.273 485.394" stroke="black" stroke-miterlimit="10"/>
<path d="M903.57 485.394V518.952" stroke="black" stroke-miterlimit="10" stroke-linecap="round"/>
<path d="M873.029 584.304C868.674 571.303 866.133 556.294 866.133 541.348C866.133 532.089 867.116 523.239 868.891 515.083H946.569C948.344 523.239 949.327 532.09 949.327 541.348C949.327 556.294 946.784 571.305 942.429 584.304H873.029Z" fill="black"/>
<path d="M948.565 527.362C948.788 529.379 948.959 531.429 949.086 533.502H866.383C866.509 531.428 866.68 529.379 866.903 527.362H948.565Z" fill="#7A7A7A"/>
<path d="M867.265 558.743C867.006 556.708 866.78 554.662 866.609 552.603H948.862C948.691 554.662 948.465 556.708 948.207 558.743H867.265Z" fill="#7A7A7A"/>
<path d="M939.289 541.689C939.289 543.398 940.788 544.782 942.637 544.782C944.485 544.782 945.984 543.398 945.984 541.689C945.984 539.98 944.486 538.596 942.637 538.596C940.788 538.594 939.289 539.98 939.289 541.689Z" fill="#8C8C8C"/>
<path d="M922.555 541.689C922.555 543.398 924.054 544.782 925.902 544.782C927.751 544.782 929.25 543.398 929.25 541.689C929.25 539.98 927.751 538.596 925.902 538.596C924.054 538.594 922.555 539.98 922.555 541.689Z" fill="#8C8C8C"/>
<path d="M905.82 541.689C905.82 543.398 907.319 544.782 909.168 544.782C911.016 544.782 912.515 543.398 912.515 541.689C912.515 539.98 911.016 538.596 909.168 538.596C907.319 538.594 905.82 539.98 905.82 541.689Z" fill="#8C8C8C"/>
<path d="M889.086 541.689C889.086 543.398 890.585 544.782 892.434 544.782C894.282 544.782 895.781 543.398 895.781 541.689C895.781 539.98 894.282 538.596 892.434 538.596C890.585 538.594 889.086 539.98 889.086 541.689Z" fill="#8C8C8C"/>
<path d="M872.352 541.689C872.352 543.398 873.849 544.782 875.699 544.782C877.548 544.782 879.047 543.398 879.047 541.689C879.047 539.98 877.549 538.596 875.699 538.596C873.851 538.594 872.352 539.98 872.352 541.689Z" fill="#8C8C8C"/>
<path d="M738.197 277.616L735.626 269.136C735.626 269.136 734.769 262.024 733.341 260.382C731.912 258.74 726.483 256.005 724.482 254.091C722.482 252.177 720.768 252.176 720.482 253.817C720.196 255.459 720.768 257.92 721.625 258.468C722.482 259.016 725.339 261.477 725.339 261.477C725.339 261.477 718.969 257.659 717.254 256.291C715.539 254.923 709.337 251.903 708.481 252.997C707.624 254.091 708.767 256.553 708.767 256.553C708.767 256.553 705.055 255.775 705.055 258.237C705.055 260.698 706.776 261.531 706.776 261.531C706.776 261.531 704.328 262.311 704.899 264.227C705.471 266.142 708.808 267.671 708.808 267.671C708.808 267.671 705.53 268.177 707.244 270.366C708.959 272.554 716.195 277.07 719.91 278.712C723.624 280.353 728.196 281.721 728.196 281.721L737.341 288.012L738.197 277.616Z" fill="white" stroke="black" stroke-miterlimit="10" stroke-linecap="round" stroke-linejoin="round"/>
<path d="M708.766 256.554C708.766 256.554 714.194 260.384 715.337 261.478C716.48 262.571 719.6 264.227 719.6 264.227" stroke="black" stroke-miterlimit="10" stroke-linecap="round" stroke-linejoin="round"/>
<path d="M706.945 261.772L716.09 266.969L717.408 267.821" stroke="black" stroke-miterlimit="10" stroke-linecap="round" stroke-linejoin="round"/>
<path d="M725.336 261.477L726.479 266.128" stroke="black" stroke-miterlimit="10" stroke-linecap="round" stroke-linejoin="round"/>
<path d="M762.766 290.474L738.192 277.616L733.906 288.832L759.337 310.99L762.766 290.474Z" fill="#008037" stroke="black" stroke-miterlimit="10" stroke-linecap="round" stroke-linejoin="round"/>
<path d="M781.442 234.275C781.442 234.275 759.754 255.584 757.756 267.605C755.758 279.625 754.617 341.365 754.617 341.365C754.617 341.365 769.742 343.824 771.168 343.824C772.594 343.824 780.299 343.824 780.299 343.824C780.299 343.824 776.59 288.913 779.158 270.064C781.727 251.214 791.144 234.275 791.144 234.275C791.144 234.275 787.15 232.636 781.442 234.275Z" fill="#008037" stroke="black" stroke-miterlimit="10" stroke-linecap="round" stroke-linejoin="round"/>
<path d="M765.607 337.61L767.048 374.379C767.048 374.379 758.406 400.577 764.647 429.074C770.888 457.57 771.368 481.011 771.368 481.011C771.368 481.011 774.249 501.234 774.249 510.886C774.249 520.537 770.888 559.146 770.888 559.146C770.888 559.146 767.528 563.742 763.687 568.338C759.847 572.934 750.244 575.691 748.804 579.369C747.363 583.046 754.564 581.667 760.327 581.667C766.087 581.667 776.17 579.369 779.051 577.99C781.931 576.612 788.172 577.531 789.614 576.612C791.054 575.692 792.974 570.177 792.494 566.04C792.014 561.904 796.335 525.594 799.215 511.345C802.096 497.097 797.775 469.52 797.775 469.52C797.775 469.52 806.418 395.062 806.896 390.466C807.376 385.87 812.657 364.728 811.697 356.914C810.737 349.101 809.777 336.691 809.777 334.853C809.778 333.014 765.607 337.61 765.607 337.61Z" fill="black" stroke="black" stroke-miterlimit="10" stroke-linecap="round" stroke-linejoin="round"/>
<path d="M787.211 379.894C787.211 379.894 782.41 427.236 784.33 449.297C786.25 471.358 789.611 496.177 792.011 502.153C794.412 508.128 797.292 539.382 797.292 548.114C797.292 556.846 797.772 571.555 797.772 571.555C797.772 571.555 789.131 579.827 782.888 582.586C776.648 585.343 774.247 587.641 777.608 589.02C780.968 590.399 787.209 591.778 797.772 590.399C808.335 589.02 817.456 589.02 818.897 585.343C820.337 581.667 819.857 572.014 819.857 572.014C819.857 572.014 822.257 527.891 822.257 506.749C822.257 485.607 815.536 461.248 815.536 461.248L821.297 421.721C821.297 421.721 832.82 400.578 833.3 380.815C833.78 361.051 822.258 338.071 821.297 336.692C820.337 335.313 780.008 339.45 780.008 339.45" fill="black"/>
<path d="M787.211 379.894C787.211 379.894 782.41 427.236 784.33 449.297C786.25 471.358 789.611 496.177 792.011 502.153C794.412 508.128 797.292 539.382 797.292 548.114C797.292 556.846 797.772 571.555 797.772 571.555C797.772 571.555 789.131 579.827 782.888 582.586C776.648 585.343 774.247 587.641 777.608 589.02C780.968 590.399 787.209 591.778 797.772 590.399C808.335 589.02 817.456 589.02 818.897 585.343C820.337 581.667 819.857 572.014 819.857 572.014C819.857 572.014 822.257 527.891 822.257 506.749C822.257 485.607 815.536 461.248 815.536 461.248L821.297 421.721C821.297 421.721 832.82 400.578 833.3 380.815C833.78 361.051 822.258 338.071 821.297 336.692C820.337 335.313 780.008 339.45 780.008 339.45" stroke="black" stroke-miterlimit="10" stroke-linecap="round" stroke-linejoin="round"/>
<path d="M773.766 378.516C773.766 378.516 775.206 384.031 781.927 387.248" stroke="white" stroke-miterlimit="10" stroke-linecap="round" stroke-linejoin="round"/>
<path d="M792.494 566.04C792.483 565.948 792.478 565.82 792.471 565.696C782.329 570.358 772.328 566.959 772.328 566.959C772.328 566.959 772.328 566.959 772.328 565.121C772.328 563.282 770.888 559.146 770.888 559.146C770.888 559.146 767.528 563.742 763.687 568.338C759.847 572.934 750.244 575.691 748.804 579.369C747.363 583.046 754.564 581.667 760.327 581.667C766.089 581.667 776.17 579.369 779.051 577.99C781.931 576.612 788.172 577.531 789.614 576.612C791.054 575.692 792.974 570.176 792.494 566.04Z" fill="white" stroke="black" stroke-miterlimit="10" stroke-linecap="round" stroke-linejoin="round"/>
<path d="M818.895 585.344C820.005 582.51 819.975 576.144 819.903 573.366C812.952 575.273 804.013 576.152 804.013 576.152C804.013 576.152 804.013 576.152 802.573 572.935C801.133 569.718 797.772 571.556 797.772 571.556C797.772 571.556 789.131 579.829 782.888 582.588C776.648 585.345 774.247 587.643 777.608 589.022C780.968 590.4 787.209 591.779 797.772 590.4C808.334 589.02 817.455 589.02 818.895 585.344Z" fill="white" stroke="black" stroke-miterlimit="10" stroke-linecap="round" stroke-linejoin="round"/>
<path d="M780.868 240.285C780.868 240.285 760.037 264.599 759.466 270.336C758.895 276.072 764.032 340.272 764.888 340.819C765.743 341.365 776.303 343.824 780.297 343.824C784.292 343.824 789.144 343.278 789.144 343.278C789.144 343.278 786.862 279.898 788.573 266.512C790.285 253.126 801.701 241.105 803.983 235.369C806.266 229.632 797.134 229.359 794.566 230.179C791.997 230.996 780.868 240.285 780.868 240.285Z" fill="white" stroke="black" stroke-miterlimit="10" stroke-linecap="round" stroke-linejoin="round"/>
<path d="M770.029 168.71C770.029 168.71 760.612 181.277 761.182 184.829C761.753 188.38 762.324 191.111 761.182 193.024C760.041 194.937 753.763 196.848 754.333 199.853C754.904 202.858 760.041 205.317 760.041 205.317C760.041 205.317 762.894 220.616 766.033 222.254C769.172 223.893 777.449 221.708 777.449 221.708L779.447 235.914C779.447 235.914 771.456 247.661 776.878 247.935C782.3 248.209 806.27 229.631 806.27 229.631L803.988 221.436C803.988 221.436 809.125 210.509 809.409 199.581C809.695 188.652 798.851 170.623 790.29 166.797C781.729 162.972 775.165 165.157 770.029 168.71Z" fill="white" stroke="black" stroke-miterlimit="10" stroke-linecap="round" stroke-linejoin="round"/>
<path d="M777.445 221.708L785.149 220.069L778.871 229.631L777.445 221.708Z" fill="black" stroke="black" stroke-miterlimit="10" stroke-linecap="round" stroke-linejoin="round"/>
<path d="M764.891 205.59C764.891 205.59 769.742 207.228 773.737 202.038" stroke="black" stroke-miterlimit="10" stroke-linecap="round" stroke-linejoin="round"/>
<path d="M771.17 191.111C771.17 192.619 770.468 193.843 769.601 193.843C768.734 193.843 768.031 192.619 768.031 191.111C768.031 189.603 768.734 188.38 769.601 188.38C770.468 188.379 771.17 189.602 771.17 191.111Z" fill="black"/>
<path d="M766.031 184.555C766.031 184.555 770.882 180.729 773.451 185.375" stroke="black" stroke-miterlimit="10" stroke-linecap="round" stroke-linejoin="round"/>
<path d="M772.309 168.983C772.309 168.983 779.728 179.909 785.15 186.74C790.572 193.569 796.279 202.858 794.567 207.776C792.855 212.694 786.862 210.781 788.575 214.059C790.287 217.337 800.275 222.254 806.553 221.708C812.832 221.162 819.11 214.059 823.961 207.228C828.812 200.398 835.947 187.832 827.386 172.534C818.825 157.236 806.555 150.133 794.284 149.586C782.014 149.04 761.467 153.138 759.469 161.333C757.471 169.529 765.461 175.539 765.461 175.539L772.309 168.983Z" fill="black" stroke="black" stroke-miterlimit="10" stroke-linecap="round" stroke-linejoin="round"/>
<path d="M792.572 237.827C792.572 237.827 769.743 269.244 768.602 277.713C767.461 286.182 774.024 345.464 774.024 345.464C774.024 345.464 788.863 347.377 803.131 345.464C817.4 343.552 831.382 336.995 831.382 336.995C831.382 336.995 823.392 305.032 823.392 300.114C823.392 295.196 825.39 261.594 820.253 250.94C815.116 240.286 806.27 229.631 806.27 229.631C806.27 229.631 804.558 229.357 803.702 229.357C802.846 229.357 797.425 232.909 792.572 237.827Z" fill="#008037" stroke="black" stroke-miterlimit="10" stroke-linecap="round" stroke-linejoin="round"/>
<path d="M740.35 285.634L732.931 281.81C732.931 281.81 730.362 274.433 728.936 272.248C727.509 270.063 723.515 270.609 721.802 270.882C720.09 271.156 714.953 269.789 711.813 268.423C708.674 267.057 707.247 268.697 708.39 270.336C709.531 271.974 712.1 273.887 712.1 273.887C712.1 273.887 698.972 274.433 698.117 274.433C697.262 274.433 692.125 273.067 693.266 276.618C694.407 280.17 704.109 286.453 708.962 287.273C713.813 288.093 726.369 287.547 726.369 287.547L733.789 293.011L740.35 285.634Z" fill="white" stroke="black" stroke-miterlimit="10" stroke-linecap="round" stroke-linejoin="round"/>
<path d="M712.102 273.887L719.236 276.072L722.946 277.165" stroke="black" stroke-miterlimit="10" stroke-linecap="round" stroke-linejoin="round"/>
<path d="M693.766 274.901C693.766 274.901 699.843 278.641 701.143 279.265C702.446 279.888 712.211 280.511 712.211 280.511" stroke="black" stroke-miterlimit="10" stroke-linecap="round" stroke-linejoin="round"/>
<path d="M695.938 280.094C695.938 280.094 705.92 283.834 707.005 283.834C708.09 283.834 712.865 283.626 712.865 283.626" stroke="black" stroke-miterlimit="10" stroke-linecap="round" stroke-linejoin="round"/>
<path d="M794.568 255.584L775.163 302.299L740.347 285.634L730.359 297.655C730.359 297.655 771.453 327.979 774.59 329.346C777.73 330.712 783.437 331.258 784.579 330.438C785.72 329.618 817.11 279.352 817.11 279.352" fill="#008037"/>
<path d="M794.568 255.584L775.163 302.299L740.347 285.634L730.359 297.655C730.359 297.655 771.453 327.979 774.59 329.346C777.73 330.712 783.437 331.258 784.579 330.438C785.72 329.618 817.11 279.352 817.11 279.352" stroke="black" stroke-miterlimit="10" stroke-linecap="round" stroke-linejoin="round"/>
<path d="M786.412 389.101C786.412 389.101 783.464 441.524 786.412 461.686C789.361 481.849 794.415 512.093 794.415 512.093" stroke="white" stroke-miterlimit="10" stroke-linecap="round" stroke-linejoin="round"/>
<path d="M591.303 343.227C591.303 343.227 587.84 401.982 587.188 412.964C586.535 423.947 587.852 480.488 591.762 486.184C595.672 491.879 600.436 547.607 600.436 547.607C600.436 547.607 596.965 548.827 596.844 550.861C596.723 552.895 596.809 558.59 596.809 558.59C596.809 558.59 585.23 567.54 578.712 569.979C572.194 572.42 572.45 575.267 576.225 576.08C580.001 576.894 590.502 578.927 598.248 577.301C605.993 575.673 613.859 572.013 617.307 571.2C620.755 570.386 625.381 571.2 627.65 568.759C629.92 566.318 628.679 558.589 628.679 558.589C628.679 558.589 630.075 556.555 628.81 549.233C627.545 541.912 626.063 538.25 626.184 536.216C626.305 534.183 625.946 468.692 625.946 468.692L626.069 395.066C626.069 395.066 632.415 467.065 633.898 470.726C635.38 474.387 646.445 531.334 647.126 534.183C647.806 537.029 647.956 548.826 647.956 548.826C647.956 548.826 644.716 553.301 644.642 554.521C644.571 555.742 646.163 564.691 646.163 564.691C646.163 564.691 635.714 576.08 630.02 578.929C624.327 581.776 630.884 585.843 636.384 586.25C641.883 586.658 648.233 587.064 656.051 584.217C663.868 581.37 674.244 571.2 676.514 568.76C678.783 566.319 677.302 562.659 676.571 560.624C675.843 558.59 674.664 556.964 675.186 555.336C675.708 553.708 678.556 541.506 678.896 535.81C679.233 530.115 679.548 524.827 679.548 524.827C679.548 524.827 680.231 491.879 678.078 478.049C675.925 464.218 671.049 438.998 671.049 438.998C671.049 438.998 667.073 377.169 667.667 374.32C668.261 371.473 670.648 361.763 669.773 353.168C668.899 344.574 667.595 339.744 667.595 339.744L591.303 343.227Z" fill="black" stroke="black" stroke-miterlimit="10" stroke-linecap="round" stroke-linejoin="round"/>
<path d="M624.274 229.532C624.274 229.532 590.538 240.039 590.481 242.464C590.425 244.888 582.177 296.616 582.177 296.616L540.953 323.583C540.953 323.583 546.774 327.355 547.819 330.857C548.863 334.359 548.863 334.359 548.863 334.359L592.016 321.132C592.016 321.132 589.848 341.609 590.936 343.224C592.024 344.841 598.459 346.458 598.459 346.458C598.459 346.458 636.964 348.613 649.641 348.075C662.319 347.535 667.684 346.727 668.578 344.573C669.472 342.418 670.017 343.226 670.093 339.992C670.169 336.76 693.277 239.229 693.316 237.613C693.354 235.997 692.286 233.572 690.059 232.495C687.833 231.417 657.916 223.065 657.916 223.065L624.274 229.532Z" fill="white" stroke="black" stroke-miterlimit="10" stroke-linecap="round" stroke-linejoin="round"/>
<path d="M618.937 241.118L621.978 255.53L607.43 325.036L612.512 344.475L627.777 323.269L627.529 254.941L639.593 239.037L634.263 229.853L618.937 241.118Z" fill="#008037" stroke="black" stroke-miterlimit="10" stroke-linecap="round" stroke-linejoin="round"/>
<path d="M608.586 319.525L623.651 329.003L627.779 323.269L627.767 320.067L610.718 309.341L608.586 319.525Z" fill="black"/>
<path d="M617.189 278.41L614.891 289.391L627.693 300.428L627.647 287.426L617.189 278.41Z" fill="black"/>
<path d="M620.062 246.436L621.981 255.53L621.008 260.181L627.573 265.812L627.534 254.941L628.497 253.671L620.062 246.436Z" fill="black"/>
<path d="M597.805 266.27L598.51 259.978" stroke="black" stroke-miterlimit="10" stroke-linecap="round" stroke-linejoin="round"/>
<path d="M592.109 317.094L597.022 273.275" stroke="black" stroke-miterlimit="10" stroke-linecap="round" stroke-linejoin="round"/>
<path d="M622.996 248.729L613.867 229.264L625.857 221.989L622.996 248.729Z" fill="white" stroke="black" stroke-miterlimit="10" stroke-linecap="round" stroke-linejoin="round"/>
<path d="M613.867 229.264L610.398 245.159L618.936 241.118L613.867 229.264Z" fill="white" stroke="black" stroke-miterlimit="10" stroke-linecap="round" stroke-linejoin="round"/>
<path d="M624.004 156.201C624.004 156.201 614.383 187.29 613.694 200.244C613.004 213.198 617.126 218.75 620.58 219.86L623.647 220.971L622.997 248.729L633.378 234.665L634.263 229.853L654.422 210.977L658.961 198.763C658.961 198.763 666.658 200.244 669.134 193.581C671.609 186.919 668.604 183.219 668.604 183.219C668.604 183.219 678.898 172.856 675.326 160.273C671.755 147.689 662.385 135.105 644.6 135.105C626.816 135.105 614.59 145.468 624.004 156.201Z" fill="white" stroke="black" stroke-miterlimit="10" stroke-linecap="round" stroke-linejoin="round"/>
<path d="M675.325 160.273C671.754 147.689 662.384 135.105 644.6 135.105C626.815 135.105 614.588 145.468 624.003 156.201C624.003 156.201 630.075 161.013 634.346 160.273C638.616 159.532 641.391 156.571 648.65 160.273C655.908 163.974 656.613 166.934 654.181 171.746C651.749 176.557 652.084 178.777 653.199 180.628C653.323 180.831 653.449 181.071 653.577 181.328L646.606 198.023C646.606 198.023 644.39 193.581 635.198 189.881C626.006 186.18 615.051 191.732 615.051 191.732C607.856 221.649 623.645 220.971 623.645 220.971C623.645 220.971 642.28 217.639 647.805 212.829C653.33 208.017 654.181 204.687 654.69 199.505C654.991 196.428 654.973 189.565 654.908 184.498C655.403 185.826 655.758 186.922 655.758 186.922C655.758 186.922 657.382 183.59 661.274 182.48C665.166 181.369 668.603 183.22 668.603 183.22C668.603 183.22 678.896 172.856 675.325 160.273Z" fill="black" stroke="black" stroke-miterlimit="10" stroke-linecap="round" stroke-linejoin="round"/>
<path d="M631.359 172.116L628.05 181.368C628.05 181.368 617.077 187.66 619.38 188.399C621.683 189.14 629.466 186.919 629.466 186.919" stroke="black" stroke-miterlimit="10" stroke-linecap="round" stroke-linejoin="round"/>
<path d="M619.172 197.283C619.172 197.283 623.707 201.725 632.342 196.172" stroke="white" stroke-miterlimit="10" stroke-linecap="round" stroke-linejoin="round"/>
<path d="M638.796 180.313C638.537 181.601 637.619 182.529 636.742 182.386C635.865 182.243 635.365 181.083 635.622 179.795C635.881 178.507 636.799 177.578 637.676 177.722C638.553 177.865 639.055 179.025 638.796 180.313Z" fill="black"/>
<path d="M625.155 178.494C624.896 179.782 623.978 180.71 623.101 180.567C622.224 180.424 621.724 179.264 621.982 177.976C622.24 176.688 623.159 175.76 624.036 175.903C624.912 176.046 625.414 177.204 625.155 178.494Z" fill="black"/>
<path d="M622.031 170.774C622.031 170.774 624.92 169.137 629.063 170.774" stroke="black" stroke-miterlimit="10" stroke-linecap="round" stroke-linejoin="round"/>
<path d="M636.648 171.684C636.648 171.684 641.222 171.137 644.554 174.959" stroke="black" stroke-miterlimit="10" stroke-linecap="round" stroke-linejoin="round"/>
<path d="M633.375 234.663L636.838 245.697L661.896 221.181L654.419 210.977L634.26 229.853L633.375 234.663Z" fill="white" stroke="black" stroke-miterlimit="10" stroke-linecap="round" stroke-linejoin="round"/>
<path d="M562.218 343.818C562.218 343.818 556.82 341.108 559.257 340.72C561.693 340.333 565.904 341.881 565.904 341.881C565.904 341.881 560.731 338.202 563.356 338.396C565.98 338.59 570.156 341.687 570.156 341.687C570.156 341.687 568.818 338.396 571.424 339.363C574.031 340.332 575.409 341.88 575.409 341.88C575.409 341.88 572.5 345.171 570.065 345.559C567.629 345.946 568.227 346.334 566.623 345.753C565.017 345.174 562.218 343.818 562.218 343.818Z" fill="white" stroke="black" stroke-miterlimit="10" stroke-linecap="round" stroke-linejoin="round"/>
<path d="M599.209 326.523C599.209 326.523 585.389 326.528 583.363 328.114C581.336 329.701 578.588 333.826 577.579 334.462C576.57 335.096 565.623 335.414 565.902 337.635C566.181 339.857 572.804 340.173 572.804 340.173L568.051 344.934C568.051 344.934 557.856 341.443 557.148 343.348C556.441 345.252 567.947 349.377 570.599 349.377C573.251 349.377 578.592 347.791 579.61 346.839C580.626 345.887 591.535 336.402 591.535 336.402C592.011 337.45 599.939 335.681 600.28 334.573C600.577 333.603 599.209 326.523 599.209 326.523Z" fill="white" stroke="black" stroke-miterlimit="10" stroke-linecap="round" stroke-linejoin="round"/>
<path d="M572.805 340.173C572.805 340.173 578.877 340.719 581.314 340.333C583.75 339.946 586.659 336.653 586.659 336.653" stroke="black" stroke-miterlimit="10" stroke-linecap="round" stroke-linejoin="round"/>
<path d="M666.511 252.433L653.198 304.161L599.203 326.522L600.626 337.839C600.626 337.839 647.019 332.771 658.339 330.077C669.66 327.382 683.626 319.839 685.453 313.911C687.28 307.983 696.524 244.62 696.357 239.77C696.189 234.921 695.638 234.381 693.419 233.034C691.2 231.687 674.665 228.723 674.665 228.723" fill="white"/>
<path d="M666.511 252.433L653.198 304.161L599.203 326.522L600.626 337.839C600.626 337.839 647.019 332.771 658.339 330.077C669.66 327.382 683.626 319.839 685.453 313.911C687.28 307.983 696.524 244.62 696.357 239.77C696.189 234.921 695.638 234.381 693.419 233.034C691.2 231.687 674.665 228.723 674.665 228.723" stroke="black" stroke-miterlimit="10" stroke-linecap="round" stroke-linejoin="round"/>
<path d="M607.438 323.56L609.417 335.144" stroke="black" stroke-miterlimit="10" stroke-linecap="round" stroke-linejoin="round"/>
<path d="M546.375 320.352C546.375 320.352 555.35 321.699 554.29 330.859" stroke="black" stroke-miterlimit="10" stroke-linecap="round" stroke-linejoin="round"/>
<path d="M540.953 323.584L533.354 327.097C533.354 327.097 528.411 325.827 527.086 325.827C525.759 325.827 524.065 327.414 520.125 325.827C516.184 324.241 512.921 322.018 512.854 324.875C512.786 327.732 514.723 329.952 516.698 330.587C518.673 331.221 520.97 332.173 520.97 332.173L508.422 344.233C508.422 344.233 501.983 350.262 503.617 351.214C505.251 352.167 519.912 348.992 522.248 348.358C524.584 347.724 537.962 342.646 540.01 340.107C542.059 337.569 543.091 335.982 543.091 335.982L548.863 334.36C548.863 334.36 547.41 326.419 540.953 323.584Z" stroke="black" stroke-miterlimit="10" stroke-linecap="round" stroke-linejoin="round"/>
<path d="M535.449 336.618C535.449 336.618 528.841 335.666 526.159 336.936C523.477 338.206 519.697 343.918 519.697 343.918C519.697 343.918 511.018 346.456 508.984 348.361" stroke="black" stroke-miterlimit="10" stroke-linecap="round" stroke-linejoin="round"/>
<path d="M1009.28 574.736H0.5" stroke="black" stroke-miterlimit="10" stroke-linecap="round" stroke-linejoin="round"/>
<path d="M215.853 379.014C215.853 379.014 217.106 387.285 218.239 389.814C219.372 392.343 220.503 395.955 218.994 398.484C217.484 401.013 205.358 406.186 205.358 406.186L205.031 373.919L215.262 372.364L215.853 379.014Z" fill="white" stroke="black" stroke-miterlimit="10" stroke-linecap="round" stroke-linejoin="round"/>
<path d="M212.896 386.655C212.896 386.655 212.578 390.173 211.822 394.147C211.066 398.121 210.92 402.724 206.391 402.363" fill="white"/>
<path d="M212.896 386.655C212.896 386.655 212.578 390.173 211.822 394.147C211.066 398.121 210.92 402.724 206.391 402.363" stroke="black" stroke-miterlimit="10" stroke-linecap="round" stroke-linejoin="round"/>
<path d="M203.148 236.276L210.695 315.394L215.977 375.362L203.531 375.719L197.109 322.257L203.148 236.276Z" fill="white" stroke="black" stroke-miterlimit="10" stroke-linecap="round" stroke-linejoin="round"/>
<path d="M122.568 329.398C122.568 329.398 118.91 360.239 119.656 364.203C120.402 368.169 122.93 457.163 122.93 457.163C122.93 457.163 117.412 488.443 117.621 494.17C117.829 499.897 119.66 562.899 119.66 562.899C119.66 562.899 115.916 574.794 115.34 577.438C114.763 580.081 115.509 584.047 117.312 584.927C119.114 585.808 131.021 587.13 136.122 586.25C141.223 585.369 147.244 584.487 148.436 578.32C149.627 572.152 145.873 563.34 146.449 560.697C147.026 558.054 147.7 553.208 147.835 550.124C147.97 547.04 148.086 544.397 148.086 544.397C148.086 544.397 157.547 486.242 157.625 484.481C157.702 482.719 163.345 427.648 163.345 427.648C163.345 427.648 162.696 505.187 162.154 517.522C161.612 529.858 159.63 543.516 159.552 545.278C159.474 547.039 157.604 568.628 157.987 570.39C158.369 572.152 161.533 573.473 164.275 573.914C167.018 574.354 174.4 573.914 175.78 573.914C177.161 573.914 187.188 576.117 193.631 576.117C200.075 576.117 207.476 575.236 206.27 571.27C205.064 567.305 194.653 563.34 191.51 561.578C188.366 559.815 184.228 549.242 184.228 549.242C184.228 549.242 187.357 540.872 187.551 536.466C187.745 532.06 201.639 467.297 203.813 449.234C205.988 431.172 204.089 348.785 204.089 348.785L205.788 329.846C205.793 329.844 151.576 339.531 122.568 329.398Z" fill="black" stroke="black" stroke-miterlimit="10" stroke-linecap="round" stroke-linejoin="round"/>
<path d="M136.725 212.795C136.725 212.795 118.612 226.884 110.31 231.219C102.008 235.554 92.5731 241.334 92.5731 241.334C92.5731 241.334 81.6293 329.844 82.7619 333.096C83.8945 336.347 88.4221 382.95 88.4221 382.95L105.026 382.227L109.177 325.509L117.857 298.053L118.99 330.567C118.99 330.567 118.235 335.263 122.386 337.07C126.537 338.876 162.764 342.128 180.879 341.044C198.992 339.959 204.652 333.458 205.407 329.844C206.161 326.232 207.29 262.797 207.666 255.934C208.044 249.07 204.32 231.138 195.36 221.124C192.905 218.38 165.406 213.519 165.406 213.519C165.406 213.519 146.536 207.737 136.725 212.795Z" fill="white" stroke="black" stroke-miterlimit="10" stroke-linecap="round" stroke-linejoin="round"/>
<path d="M160.336 229.685L170.57 242.939L166.958 323.615C166.958 323.615 174.783 333.411 175.987 335.14C177.192 336.87 186.822 321.31 186.822 321.31L175.385 244.09L180.2 230.26L177.469 222.169L163.947 218.16L160.336 229.685Z" fill="#008037" stroke="black" stroke-miterlimit="10" stroke-linecap="round" stroke-linejoin="round"/>
<path d="M169.086 276.026L179.19 269.802L177.453 258.066L169.675 262.856L169.086 276.026Z" fill="black"/>
<path d="M170.57 242.939L170.354 247.764L175.447 244.499L175.387 244.092L180.202 230.262L179.71 228.803L166.297 237.403L170.57 242.939Z" fill="black"/>
<path d="M186.826 321.31L185.448 312.004L167.099 320.541L166.961 323.615C166.961 323.615 169.676 327.014 172.154 330.162L184.995 324.188C186.088 322.503 186.826 321.31 186.826 321.31Z" fill="black"/>
<path d="M168.339 292.767L167.742 306.089L183.114 296.278L181.364 284.454L168.339 292.767Z" fill="black"/>
<path d="M117.859 298.053L131.822 268.429" stroke="black" stroke-miterlimit="10" stroke-linecap="round" stroke-linejoin="round"/>
<path d="M173.018 234.54L180.594 212.781L170.492 207.946L173.018 234.54Z" fill="white" stroke="black" stroke-miterlimit="10" stroke-linecap="round" stroke-linejoin="round"/>
<path d="M180.594 212.781L190.695 224.566L177.469 222.169L180.594 212.781Z" fill="white" stroke="black" stroke-miterlimit="10" stroke-linecap="round" stroke-linejoin="round"/>
<path d="M168.915 144.483C168.915 144.483 172.388 158.385 176.175 166.545C179.964 174.704 180.91 179.841 179.648 188.001C178.385 196.16 178.385 199.786 176.492 200.693C174.597 201.6 169.546 202.507 169.546 202.507L173.019 234.54L165.127 223.962L139.556 200.693L125.668 165.335C125.668 165.335 118.408 156.873 127.877 146.297C137.349 135.72 162.603 136.928 168.915 144.483Z" fill="white" stroke="black" stroke-miterlimit="10" stroke-linecap="round" stroke-linejoin="round"/>
<path d="M129.142 175.912L133.562 174.099C133.562 174.099 129.773 171.077 131.037 166.543C132.3 162.011 145.242 159.29 143.664 155.665C142.086 152.039 127.248 151.433 137.035 147.204C146.82 142.972 164.183 148.714 169.865 149.319C175.547 149.923 170.181 138.137 170.181 138.137C170.181 138.137 180.283 136.324 172.39 129.373C164.498 122.423 131.984 126.653 122.83 136.022C113.675 145.39 115.57 152.946 118.41 158.084C121.251 163.222 126.302 175.31 126.302 175.31L129.142 175.912Z" fill="black" stroke="black" stroke-miterlimit="10" stroke-linecap="round" stroke-linejoin="round"/>
<path d="M133.562 177.726C133.562 177.726 127.247 171.38 123.776 174.402C120.304 177.423 125.354 184.979 129.458 187.698C133.562 190.418 137.35 187.094 137.35 187.094" fill="white"/>
<path d="M133.562 177.726C133.562 177.726 127.247 171.38 123.776 174.402C120.304 177.423 125.354 184.979 129.458 187.698C133.562 190.418 137.35 187.094 137.35 187.094" stroke="black" stroke-miterlimit="10" stroke-linecap="round" stroke-linejoin="round"/>
<path d="M168.913 155.967C168.913 155.967 165.757 153.549 164.179 156.874C162.6 160.198 163.548 163.824 163.548 163.824L173.649 178.33L163.864 180.445" stroke="black" stroke-miterlimit="10" stroke-linecap="round" stroke-linejoin="round"/>
<path d="M167.336 186.187C167.336 186.187 160.707 188.908 154.078 183.77" stroke="black" stroke-miterlimit="10" stroke-linecap="round" stroke-linejoin="round"/>
<path d="M155.655 158.686C155.655 158.686 147.447 155.665 143.344 162.917" stroke="black" stroke-miterlimit="10" stroke-linecap="round" stroke-linejoin="round"/>
<path d="M154.873 171.378C156.006 171.378 156.925 170.025 156.925 168.357C156.925 166.688 156.006 165.335 154.873 165.335C153.739 165.335 152.82 166.688 152.82 168.357C152.82 170.025 153.739 171.378 154.873 171.378Z" fill="black"/>
<path d="M172.707 164.428C172.707 166.098 171.788 167.45 170.654 167.45C169.521 167.45 168.602 166.098 168.602 164.428C168.602 162.759 169.52 161.407 170.654 161.407C171.788 161.407 172.707 162.759 172.707 164.428Z" fill="black"/>
<path d="M169.545 202.506L155.023 201.297L171.123 221.242L169.545 202.506Z" fill="black" stroke="black" stroke-miterlimit="10"/>
<path d="M139.559 200.693L132.93 211.874L153.764 240.583L165.129 223.962L139.559 200.693Z" fill="white" stroke="black" stroke-miterlimit="10" stroke-linecap="round" stroke-linejoin="round"/>
<path d="M116.735 418.035H82.9375V404.305C82.9375 401.038 85.7044 398.39 89.1166 398.39H110.557C113.97 398.39 116.736 401.037 116.736 404.305L116.735 418.035Z" stroke="black" stroke-width="4" stroke-miterlimit="10" stroke-linecap="round" stroke-linejoin="round"/>
<path d="M141.911 479.007H56.8394C52.3017 479.007 48.625 475.486 48.625 471.143V421.962C48.625 417.619 52.3031 414.098 56.8394 414.098H141.911C146.448 414.098 150.125 417.619 150.125 421.962V471.143C150.125 475.486 146.448 479.007 141.911 479.007Z" fill="#636363" stroke="black" stroke-miterlimit="10" stroke-linecap="round" stroke-linejoin="round"/>
<path d="M105.026 382.227C105.026 382.227 107.668 386.201 110.31 389.813C112.952 393.425 117.857 395.232 117.479 397.038C117.103 398.845 114.838 399.928 113.328 399.567C111.819 399.206 105.781 394.509 105.781 394.509L106.914 403.902C106.914 403.902 108.423 407.153 105.781 408.238C103.139 409.322 99.3661 409.322 98.6115 408.238C97.8569 407.153 97.1023 405.348 97.1023 405.348C97.1023 405.348 90.6875 405.348 88.8003 404.264C86.913 403.179 84.6492 401.374 85.0258 396.678C85.4038 391.982 88.4222 382.949 88.4222 382.949L105.026 382.227Z" fill="white" stroke="black" stroke-miterlimit="10" stroke-linecap="round" stroke-linejoin="round"/>
<path d="M376.769 360.512H339.328V373.953H376.769V360.512Z" fill="white" stroke="black" stroke-miterlimit="10" stroke-linecap="round" stroke-linejoin="round"/>
<path d="M430.508 366.783H285.589C282.309 366.783 279.648 364.237 279.648 361.096V264.012C279.648 260.872 282.307 258.325 285.589 258.325H430.509C433.789 258.325 436.45 260.871 436.45 264.012V361.096C436.449 364.237 433.79 366.783 430.508 366.783Z" fill="black" stroke="black" stroke-miterlimit="10" stroke-linecap="round" stroke-linejoin="round"/>
<path d="M279.648 349.312V361.097C279.648 364.237 282.307 366.784 285.589 366.784H430.509C433.789 366.784 436.45 364.239 436.45 361.097V349.312H279.648Z" fill="white" stroke="black" stroke-miterlimit="10" stroke-linecap="round" stroke-linejoin="round"/>
<path d="M537.255 258.853L489.146 259.234C489.146 259.234 485.965 258.853 485.17 261.137C485.17 261.137 476.821 281.311 476.423 288.543C476.024 295.775 478.014 294.633 474.831 304.15C471.651 313.665 462.506 336.122 457.336 354.394C450.39 378.95 448.579 405.012 448.139 430.358C448.068 434.425 445.529 469.421 452.142 469.421C457.629 469.421 508.247 475.843 508.857 466.501C511.288 429.268 504.264 392.887 517.773 356.674C523.019 342.612 529.036 327.758 533.488 313.046C537.956 298.273 538.718 283.043 541.629 267.988C543.616 257.711 537.255 258.853 537.255 258.853Z" fill="black" stroke="black" stroke-miterlimit="10"/>
<path d="M541.966 263.413C541.492 258.098 537.255 258.853 537.255 258.853L489.146 259.235C489.146 259.235 485.965 258.853 485.17 261.138C485.17 261.138 476.821 281.311 476.423 288.543C476.269 291.339 476.471 292.883 476.594 294.276L477.616 295.776C477.616 295.776 479.205 309.098 498.29 309.859C517.375 310.62 528.11 302.247 532.086 294.254C536.062 286.261 537.653 273.319 540.834 265.706C541.153 264.941 541.547 264.176 541.966 263.413Z" fill="#BABABA" stroke="black" stroke-miterlimit="10" stroke-linecap="round" stroke-linejoin="round"/>
<path d="M530.812 278.281C527.586 289.401 529.522 292.49 526.295 311.639C523.068 330.789 511.453 352.412 506.935 372.179C502.418 391.947 504.354 461.753 504.999 464.842C505.245 466.018 505.303 467.912 505.281 469.805C507.447 469.03 508.759 467.959 508.854 466.501C511.285 429.268 504.26 392.887 517.77 356.673C523.016 342.61 529.034 327.757 533.484 313.044C537.953 298.272 538.713 283.042 541.625 267.987C542.847 261.673 540.917 259.675 539.247 259.069L539.199 259.13C539.199 259.13 534.038 267.16 530.812 278.281Z" fill="#BABABA" stroke="black" stroke-miterlimit="10" stroke-linecap="round" stroke-linejoin="round"/>
<path d="M437.893 559.357L437.572 559.109V516.113H444.025V488.932H420.148V516.113H426.6V559.848L369.492 577.271V581.596C369.492 584.326 371.803 586.538 374.655 586.538C377.507 586.538 379.818 584.326 379.818 581.596V580.978L427.569 575.662V582.213C427.569 584.602 429.591 586.538 432.085 586.538C434.58 586.538 436.603 584.602 436.603 582.213V575.448L486.29 580.979V581.597C486.29 584.327 488.601 586.54 491.451 586.54C494.303 586.54 496.614 584.327 496.614 581.597V577.272L437.893 559.357Z" fill="black" stroke="black" stroke-miterlimit="10"/>
<path d="M506.768 493.94H363.367C360.191 493.94 357.617 491.476 357.617 488.436V467.917C357.617 464.878 360.191 462.413 363.367 462.413H506.768C509.943 462.413 512.517 464.878 512.517 467.917V488.436C512.517 491.477 509.944 493.94 506.768 493.94Z" fill="black" stroke="black" stroke-miterlimit="10"/>
<path d="M294.719 584.316H288.287L284.102 404.762H300.343L294.719 584.316Z" fill="black" stroke="black" stroke-miterlimit="10"/>
<path d="M612.774 584.316H606.342L602.156 404.762H618.398L612.774 584.316Z" fill="black" stroke="black" stroke-miterlimit="10"/>
<path d="M251 376.989L256.534 590.666H263.194L268.728 413.491H644.398L649.216 590.666H659.296L661.456 376.989H251Z" fill="white" stroke="black" stroke-miterlimit="10" stroke-linecap="round" stroke-linejoin="round"/>
<path d="M661.147 382.118H251.18V388.029H661.147V382.118Z" fill="#757575" stroke="black" stroke-miterlimit="10"/>
<path d="M664.338 373.485H242.352V382.827H664.338V373.485Z" fill="white" stroke="black" stroke-miterlimit="10" stroke-linecap="round" stroke-linejoin="round"/>
<path d="M292.577 39.8425C292.542 39.5986 292.556 39.342 292.622 39.0895C292.891 38.0731 293.931 37.4621 294.948 37.7309C295.494 37.874 296.036 38.0235 296.573 38.1793C297.582 38.4718 298.168 39.5256 297.882 40.5389C297.59 41.553 296.536 42.1378 295.526 41.8452C295.013 41.6974 294.501 41.5551 293.984 41.4246C293.213 41.2171 292.681 40.5799 292.577 39.8425ZM311.708 47.601C311.651 47.2018 311.716 46.7854 311.929 46.4103C312.443 45.4891 313.602 45.161 314.523 45.6696C320.605 49.0497 326.643 53.3071 332.461 58.3363C333.255 59.0269 333.347 60.2298 332.656 61.0233C331.965 61.8168 330.762 61.9081 329.968 61.2175C324.349 56.3635 318.531 52.2505 312.671 49.0029C312.13 48.7006 311.789 48.172 311.708 47.601ZM342.84 73.4763C342.753 72.8665 342.967 72.2198 343.459 71.7824C344.248 71.0825 345.453 71.1551 346.153 71.9437C350.653 77.0127 355.204 82.7587 359.689 89.0344C360.303 89.8919 360.104 91.0795 359.246 91.693C358.388 92.3065 357.2 92.1073 356.586 91.2498C352.179 85.0874 347.711 79.4428 343.304 74.4738C343.041 74.1773 342.89 73.8311 342.84 73.4763ZM366.811 106.27C366.709 105.549 367.027 104.803 367.681 104.388C368.569 103.827 369.75 104.095 370.312 104.982C373.051 109.328 375.784 113.788 378.435 118.106L381.674 123.382C382.226 124.282 381.946 125.453 381.051 126.004C380.155 126.555 378.978 126.275 378.427 125.38L375.18 120.094C372.543 115.791 369.811 111.337 367.086 107.012C366.94 106.778 366.847 106.525 366.811 106.27ZM388.362 140.747C388.262 140.043 388.565 139.304 389.201 138.886C390.081 138.309 391.264 138.549 391.842 139.428C396.233 146.079 400.318 151.778 404.331 156.843C404.986 157.666 404.845 158.868 404.015 159.517C403.191 160.171 401.989 160.03 401.339 159.201C397.262 154.043 393.113 148.263 388.658 141.519C388.495 141.288 388.401 141.019 388.362 140.747ZM413.584 172.544C413.503 171.973 413.683 171.37 414.119 170.93C414.862 170.185 416.066 170.179 416.817 170.921C418.958 173.049 421.161 175.09 423.359 176.984C426.441 179.635 429.73 182.156 433.142 184.461C434.012 185.05 434.242 186.233 433.653 187.108C433.064 187.978 431.88 188.208 431.004 187.619C427.467 185.23 424.059 182.625 420.866 179.871C418.596 177.913 416.329 175.814 414.123 173.627C413.819 173.325 413.641 172.943 413.584 172.544ZM446.805 195.595C446.755 195.246 446.8 194.883 446.955 194.544C447.39 193.584 448.519 193.164 449.481 193.599C455.85 196.486 462.595 198.839 469.533 200.593C470.554 200.85 471.171 201.888 470.915 202.908C470.658 203.929 469.619 204.545 468.598 204.288C461.438 202.481 454.477 200.051 447.902 197.068C447.291 196.787 446.894 196.221 446.805 195.595ZM485.951 205.982C485.93 205.832 485.925 205.68 485.943 205.525C486.043 204.476 486.981 203.715 488.026 203.816C495.062 204.51 502.215 204.628 509.295 204.157C510.349 204.087 511.255 204.886 511.324 205.934C511.395 206.987 510.601 207.891 509.547 207.961C502.264 208.444 494.896 208.323 487.653 207.607C486.758 207.519 486.071 206.83 485.951 205.982ZM526.391 203.687C526.252 202.705 526.895 201.772 527.877 201.559C534.861 200.05 541.693 197.951 548.182 195.307C549.155 194.909 550.269 195.379 550.667 196.352C551.066 197.324 550.596 198.437 549.623 198.835C542.93 201.559 535.882 203.728 528.683 205.279C527.656 205.498 526.641 204.845 526.416 203.819C526.41 203.775 526.398 203.731 526.391 203.687ZM564.015 188.766C563.911 188.034 564.239 187.281 564.906 186.875C570.992 183.146 576.678 178.84 581.798 174.088C582.568 173.374 583.774 173.418 584.494 174.187C585.209 174.957 585.165 176.162 584.396 176.882C579.092 181.807 573.206 186.265 566.902 190.127C566.006 190.678 564.829 190.398 564.277 189.498C564.136 189.264 564.05 189.016 564.015 188.766Z" fill="black"/>
</svg>
