<svg width="235" height="260" viewBox="0 0 235 260" fill="none" xmlns="http://www.w3.org/2000/svg">
<path d="M223.84 39.6113V184.889H17.9219V39.6113C17.9219 31.518 24.4406 24.9609 32.4864 24.9609H209.285C217.322 24.9609 223.84 31.518 223.84 39.6113Z" fill="#797979" stroke="#EFEFED" stroke-width="1.639" stroke-linecap="round" stroke-linejoin="round"/>
<path d="M223.84 39.6121V40.2677H17.9219V39.6121C17.9219 31.5188 24.4406 24.9609 32.4864 24.9609H209.285C217.322 24.9609 223.84 31.5188 223.84 39.6121Z" fill="#008037" stroke="#DFDDD7" stroke-width="1.639" stroke-linecap="round" stroke-linejoin="round"/>
<path d="M195.968 32.6165C195.968 34.0874 194.782 35.2798 193.32 35.2798C191.858 35.2798 190.672 34.0874 190.672 32.6165C190.672 31.1455 191.858 29.9531 193.32 29.9531C194.782 29.9531 195.968 31.1455 195.968 32.6165Z" fill="#EFEFED"/>
<path d="M204.609 32.6165C204.609 34.0874 203.424 35.2798 201.962 35.2798C200.499 35.2798 199.312 34.0874 199.312 32.6165C199.312 31.1455 200.499 29.9531 201.962 29.9531C203.424 29.9531 204.609 31.1455 204.609 32.6165Z" fill="#DFDDD7"/>
<path d="M213.257 32.6165C213.257 34.0874 212.071 35.2798 210.61 35.2798C209.148 35.2798 207.961 34.0874 207.961 32.6165C207.961 31.1455 209.148 29.9531 210.61 29.9531C212.071 29.9531 213.257 31.1455 213.257 32.6165Z" fill="#EFEFED"/>
<path d="M221.646 112.065C208.376 111.41 197.384 123.456 193.981 137.291C193.882 137.676 193.794 138.1 193.714 138.557C193.402 140.254 193.151 142.446 192.954 144.989C191.543 163.252 192.874 199.59 193.009 200.425C193.062 200.722 183.614 200.399 170.523 199.805C165.701 199.581 160.379 199.329 154.852 199.05C126.714 197.658 93.2998 195.781 93.2998 195.781L91.2735 173.089C91.2735 173.089 87.0677 180.249 72.6725 194.236C58.2781 208.232 35.2576 200.425 37.7309 182.836C39.2846 171.795 45.7679 163.71 53.6172 150.19C56.0455 146.005 58.6087 141.297 61.1895 135.826C64.6266 128.541 67.9754 121.596 71.1726 115.317C72.5746 112.55 73.9589 109.919 75.2982 107.439C80.3524 98.0695 84.8792 90.9724 88.5226 87.6575C99.4887 77.6775 122.973 83.4264 129.232 85.4479C135.493 87.4694 144.162 89.9309 158.049 90.9094C171.934 91.8887 193.009 97.9072 204.171 101.815C214.984 105.589 221.244 111.67 221.629 112.047C221.637 112.056 221.646 112.065 221.646 112.065Z" fill="#008037"/>
<path d="M230.978 132.789C218.831 120.524 200.38 115.17 181.865 131.769C160.331 151.074 143.808 154.426 119.591 126.245C102.071 105.861 95.9911 100.661 75.2891 107.439C80.3432 98.0691 84.8709 90.9728 88.5142 87.6579C99.4795 77.6771 122.965 83.4268 129.224 85.4475C135.484 87.469 144.155 89.9305 158.04 90.9098C171.926 91.8891 193 97.9076 204.162 101.815C214.976 105.588 221.235 111.67 221.62 112.048C221.628 112.057 221.637 112.066 221.637 112.066C226.406 115.901 229.237 123.609 230.978 132.789Z" fill="#008037"/>
<path d="M70.8165 167.862C63.1013 176.307 56.118 157.989 53.6094 150.192C56.0377 146.006 58.6009 141.3 61.1817 135.829C64.6188 128.543 67.9677 121.599 71.1648 115.32C76.8706 124.097 69.1554 132.137 68.6201 136.107C67.1997 146.725 81.907 155.735 70.8165 167.862Z" fill="#008037"/>
<path d="M119.594 92.8954C125.548 104.022 141.359 114.71 160.43 99.9514C160.43 99.9514 162.486 93.8222 162.273 93.8222C162.06 93.8222 122.288 88.9727 122.288 88.9727L119.594 92.8954Z" fill="#FEFEFE"/>
<path d="M135.299 79.1496C130.386 78.0355 123.258 79.2884 118.345 86.8764C113.432 94.4644 112.809 100.729 113.086 100.66C113.363 100.59 120.781 95.8562 124.165 96.2041C127.549 96.5529 134.981 98.7682 134.981 98.7682L135.299 79.1496Z" fill="#797979"/>
<path d="M157.437 81.3789C157.437 81.3789 168.302 81.4483 169.755 89.1057C171.207 96.764 167.194 105.952 162.281 110.199C157.368 114.445 160.066 104.073 142.422 99.1996L157.437 81.3789Z" fill="#797979"/>
<path d="M91.2632 173.087C89.4071 151.756 89.4062 134.477 89.4062 134.477" stroke="#008037" stroke-width="0.615" stroke-linecap="round" stroke-linejoin="round"/>
<path d="M178.976 224.969C177.779 224.52 176.717 223.972 175.78 223.343C169.047 218.879 168.474 210.175 170.52 199.808C172.1 191.867 175.215 182.946 178.27 174.206C181.743 164.243 185.146 154.522 186.101 146.734C186.235 145.647 186.316 144.605 186.352 143.608C186.549 137.499 187.682 131.445 189.575 126.073C195.129 110.37 207.229 100.479 221.625 112.05C221.633 112.058 221.642 112.068 221.642 112.068C226.409 115.904 229.241 123.611 230.983 132.792C231.608 136.072 232.089 139.539 232.482 143.086V143.114C233.803 155.143 233.991 168.078 234.58 177.708C237.456 224.331 226.347 242.954 178.976 224.969Z" fill="#008037"/>
<path d="M230.985 132.791C220.529 122.237 205.393 116.802 189.578 126.072C195.133 110.37 207.232 100.479 221.627 112.05C221.636 112.059 221.645 112.068 221.645 112.068C226.414 115.903 229.244 123.611 230.985 132.791Z" fill="#008037"/>
<path d="M193.007 200.424C193.06 200.721 183.613 200.398 170.521 199.804C165.7 199.58 160.377 199.329 154.849 199.049C145.384 194.764 139.5 188.566 144.545 179.682C158.261 155.534 183.46 188.989 184.773 165.049C185.666 148.654 189.622 145.096 192.953 144.988C191.542 163.251 192.873 199.589 193.007 200.424Z" fill="#008037"/>
<path d="M196.228 130.172C194.502 134.374 193.341 139.311 192.95 144.989C191.692 163.262 192.87 199.588 193.004 200.425" stroke="#008037" stroke-width="0.615" stroke-linecap="round" stroke-linejoin="round"/>
<path d="M178.978 224.965C177.781 224.516 176.719 223.968 175.781 223.339C186.63 225.684 202.846 227.795 210.017 221.659C221.287 212.002 214.125 199.624 220.358 192.815C226.582 186.005 235.574 183.795 232.484 143.109C233.806 155.138 233.994 168.074 234.583 177.704C237.458 224.327 226.349 242.95 178.978 224.965Z" fill="#008037"/>
<path d="M21.2459 103.469C20.5913 97.4053 47.0069 85.3216 51.5762 94.1099L43.0921 102.999C43.0921 102.999 25.2324 110.549 21.2459 103.469Z" fill="#008037"/>
<path d="M33.3676 59.7618C29.2232 47.74 28.914 46.2568 31.4857 45.2705C34.0574 44.2833 40.9219 57.9222 41.6981 59.5827C42.4742 61.2432 46.1538 68.1223 48.0356 76.0704C49.3019 81.4195 51.0722 93.754 51.3771 96.732C52.6631 109.28 32.1416 113.54 31.0352 103.783C29.9289 94.0246 29.7686 90.8618 29.7686 90.8618C29.7686 90.8618 19.146 92.1141 17.4948 84.1384C15.8436 76.1619 16.0486 65.2578 16.0486 65.2578C16.0486 65.2578 -0.180192 62.9065 0.284001 58.6111C0.748192 54.3157 32.5883 62.2947 32.5883 62.2947L33.3676 59.7618Z" fill="#FFBE9D"/>
<path d="M32.5872 62.2894C31.3664 66.7884 31.5673 72.7669 33.5975 78.4839" stroke="#882618" stroke-width="0.615" stroke-linecap="round" stroke-linejoin="round"/>
<path d="M24.8161 53.1634C27.3795 54.4326 29.3865 54.6713 30.065 51.0213C30.7436 47.3714 27.1697 47.3562 26.0305 47.5712C24.2597 47.9065 23.7169 52.6186 24.8161 53.1634Z" fill="black"/>
<path d="M25.3002 52.2252C24.7719 54.1867 24.4056 56.6284 24.4201 56.5562C24.8443 56.7586 27.2996 57.5505 27.6596 56.6981C28.0195 55.8449 28.361 52.1594 28.361 52.1594L25.3002 52.2252Z" fill="#2D2D2D"/>
<path d="M23.1257 57.7954C21.9237 63.7814 15.7697 96.6224 15.5653 97.6935C15.3609 98.7646 15.7686 103.709 16.1891 103.891C16.6095 104.072 18.9171 100.479 19.7504 98.6702C20.5845 96.862 27.518 60.8171 27.9631 59.1392C29.0495 55.0396 23.9125 53.8758 23.1257 57.7954Z" fill="black"/>
<path d="M17.4898 76.4787C14.1854 77.3201 13.315 80.5188 15.8046 82.5793C18.487 84.7996 24.9424 83.6401 25.1831 80.7287C25.4239 77.8165 20.2394 75.7784 17.4898 76.4787Z" fill="#FFBE9D"/>
<path d="M17.4898 76.4787C14.1854 77.3201 13.315 80.5188 15.8046 82.5793C18.487 84.7996 24.9424 83.6401 25.1831 80.7287C25.4239 77.8165 20.2394 75.7784 17.4898 76.4787Z" stroke="#882618" stroke-width="0.615" stroke-linecap="round" stroke-linejoin="round"/>
<path d="M17.0784 71.2663C13.6651 70.8374 12.9002 74.2373 15.3919 76.8541C17.8837 79.4718 25.9015 79.8452 26.2854 76.7176C26.67 73.5891 19.1718 71.5297 17.0784 71.2663Z" fill="#FFBE9D"/>
<path d="M17.0784 71.2663C13.6651 70.8374 12.9002 74.2373 15.3919 76.8541C17.8837 79.4718 25.9015 79.8452 26.2854 76.7176C26.67 73.5891 19.1718 71.5297 17.0784 71.2663Z" stroke="#882618" stroke-width="0.615" stroke-linecap="round" stroke-linejoin="round"/>
<path d="M13.9547 65.4801C18.2021 64.3681 27.5936 70.4937 27.2709 72.4572C26.8658 74.9272 22.5268 75.3936 16.2705 72.8868C10.4108 70.5386 11.8681 66.0264 13.9547 65.4801Z" fill="#FFBE9D"/>
<path d="M13.9547 65.4801C18.2021 64.3681 27.5936 70.4937 27.2709 72.4572C26.8658 74.9272 22.5268 75.3936 16.2705 72.8868C10.4108 70.5386 11.8681 66.0264 13.9547 65.4801Z" stroke="#882618" stroke-width="0.615" stroke-linecap="round" stroke-linejoin="round"/>
<path d="M21.2474 103.469C33.2557 105.744 51.5777 94.1095 51.5777 94.1095C51.5777 94.1095 62.7768 139.828 65.6665 149.952C68.5569 160.076 86.4821 199.62 53.2313 201.971C31.8896 203.481 29.5862 162.656 28.0424 149.233C26.4986 135.81 21.2474 103.469 21.2474 103.469Z" fill="#008037"/>
<path d="M29.2824 108.548C38.4916 109.002 48.6009 102.559 48.6009 102.559" stroke="#797979" stroke-width="0.615" stroke-linecap="round" stroke-linejoin="round"/>
<path d="M51.5781 94.1094C51.5781 94.1094 62.7781 139.828 65.6685 149.952C67.2451 155.476 73.2973 169.755 73.0721 181.975" stroke="#797979" stroke-width="0.615" stroke-linecap="round" stroke-linejoin="round"/>
<path d="M134.535 161.048C133.902 153.09 124.706 156.3 124.706 156.3C123.428 149.178 113.797 150.075 113.761 157.424C105.726 157.466 104.085 160.422 104.206 164.642L134.535 161.048Z" fill="#DFDDD7"/>
<path d="M121.552 155.645C121.925 156.865 121.244 158.158 120.032 158.533C118.82 158.909 117.533 158.225 117.16 157.005C116.787 155.785 117.468 154.492 118.68 154.117C119.893 153.741 121.179 154.425 121.552 155.645Z" fill="#FAFBFB"/>
<path d="M121.552 155.645C121.925 156.865 121.244 158.158 120.032 158.533C118.82 158.909 117.533 158.225 117.16 157.005C116.787 155.785 117.468 154.492 118.68 154.117C119.893 153.741 121.179 154.425 121.552 155.645Z" stroke="#DFDDD7" stroke-width="0.82" stroke-linecap="round" stroke-linejoin="round"/>
<path d="M88.5479 163.443L97.7282 242.532L155.595 236.734L147.293 157.254L88.5479 163.443Z" fill="#FAFBFB"/>
<path d="M88.5479 163.443L97.7282 242.532L155.595 236.734L147.293 157.254L88.5479 163.443Z" stroke="#DFDDD7" stroke-width="0.82" stroke-linecap="round" stroke-linejoin="round"/>
<path d="M120.508 207.837C119.959 215.982 122.144 223.685 124.196 225.852C124.196 225.852 129.692 225.213 130.55 209.425L120.508 207.837Z" fill="#008037"/>
<path d="M123.25 191.567C109.473 191.122 102.718 190.362 100.287 190.449C97.8554 190.536 89.5257 192.354 88.6292 194.06C87.7323 195.763 88.1514 197.44 89.1149 199.044C90.0784 200.648 89.0833 202.341 89.4481 204.15C89.8131 205.961 92.0451 205.84 92.1449 207.712C92.2448 209.583 91.448 211.921 92.9821 213.538C94.5175 215.155 93.2291 217.742 95.76 219.526C98.2909 221.31 116.998 216.753 120.763 214.636L129.771 215.746C129.771 215.746 139.313 197.009 123.25 191.567Z" fill="#FFBE9D"/>
<path d="M100.287 190.449C97.856 190.535 89.5258 192.355 88.6291 194.059C87.7322 195.763 88.1513 197.44 89.1148 199.044C90.0783 200.648 89.0832 202.34 89.448 204.15C89.813 205.96 92.045 205.84 92.1448 207.711C92.2447 209.583 91.4482 211.922 92.9823 213.538C94.5176 215.156 93.2293 217.743 95.7599 219.526" stroke="#FFBE9D" stroke-width="0.615" stroke-linecap="round" stroke-linejoin="round"/>
<path d="M213.121 218.913L213.115 218.924C211.674 225.818 204.419 231.175 187.591 231.264C183.04 231.291 178.627 231.22 174.379 231.079C167.349 230.85 160.791 230.427 154.877 229.908C136.317 228.306 124.193 225.847 124.193 225.847C124.193 225.847 126.25 221.939 127.027 215.411C127.264 213.467 127.382 211.288 127.298 208.907C127.114 203.908 126.04 198.018 123.246 191.571C125.539 191.556 127.99 191.502 130.562 191.42C136.789 191.22 143.725 190.868 150.774 190.575C171.893 189.702 194.029 189.342 201.236 195.185C201.896 195.723 202.54 196.274 203.158 196.854C203.404 197.079 203.653 197.312 203.893 197.548C203.96 197.612 204.023 197.668 204.08 197.734C204.371 198.011 204.647 198.302 204.923 198.592C205.414 199.098 205.879 199.612 206.33 200.14C211.301 205.941 214.356 212.993 213.121 218.913Z" fill="#008037"/>
<path d="M123.25 191.57C147.703 191.427 190.636 186.593 201.24 195.189C203.074 196.674 204.794 198.349 206.331 200.143" stroke="#008037" stroke-width="0.615" stroke-linecap="round" stroke-linejoin="round"/>
<path d="M130.56 191.419C136.265 205.094 133.172 220.883 133.172 220.883" stroke="#008037" stroke-width="0.615" stroke-linecap="round" stroke-linejoin="round"/>
<path d="M213.118 218.924C211.676 225.819 204.421 231.176 187.592 231.265C183.042 231.292 178.628 231.221 174.381 231.079C184.126 230.684 206.919 228.71 213.118 218.924Z" fill="#008037"/>
<path d="M162.706 90.1322C162.706 90.1322 156.777 99.4284 143.333 99.7903C129.9 100.162 127.213 92.1253 127.213 92.1253C128.631 88.4488 130.292 80.6237 131.351 75.1421C132.027 71.6786 132.462 69.1432 132.462 69.1432C132.462 69.1432 134.437 47.455 157.532 48.4881L157.969 52.0354L162.706 90.1322Z" fill="#FFBE9D"/>
<path d="M131.352 75.3167C132.027 71.8589 132.462 69.3203 132.462 69.3203L132.443 69.3205C132.462 69.3203 145.506 62.9691 145.506 62.9691C145.506 62.9691 147.78 78.0709 131.352 75.3167Z" fill="#FFBE9D"/>
<path d="M157.531 48.668L157.974 52.2121C149.943 65.1354 138.828 69.2994 132.461 69.3199L132.443 69.3201C121.904 66.8028 118.204 57.3321 117.478 47.1435C117.299 44.7381 117.288 42.2773 117.403 39.8676C117.793 31.1313 119.69 22.9602 120.63 19.3467C120.63 19.3467 152.015 4.2005 154.545 33.8264C154.545 33.8264 161.29 32.4983 162.637 40.0565C163.754 46.2957 157.531 48.668 157.531 48.668Z" fill="#FFBE9D"/>
<path d="M121.187 38.5596C121.195 39.2587 121.765 39.8196 122.46 39.8114C123.156 39.8032 123.714 39.2291 123.706 38.53C123.698 37.8301 123.127 37.27 122.431 37.2782C121.735 37.2864 121.178 37.8597 121.187 38.5596Z" fill="#562509"/>
<path d="M129.944 36.8408C129.952 37.5407 130.522 38.1008 131.218 38.0926C131.914 38.0845 132.471 37.5112 132.462 36.8113C132.454 36.1114 131.884 35.5513 131.189 35.5595C130.493 35.5676 129.936 36.1409 129.944 36.8408Z" fill="#562509"/>
<path d="M129.202 30.0355C129.356 31.7639 135.241 32.3683 135.568 31.3802C136.06 29.8897 128.842 25.9779 129.202 30.0355Z" fill="#4D2D19"/>
<path d="M118.028 32.7457C117.989 33.6843 124.439 34.0462 124.173 30.7181C123.981 28.3209 118.137 30.1398 118.028 32.7457Z" fill="#4D2D19"/>
<path d="M153.006 43.2127C155.592 39.2625 159.759 39.6496 160.201 40.3816" stroke="#882618" stroke-width="0.615" stroke-linecap="round" stroke-linejoin="round"/>
<path d="M154.101 41.8645C157.955 39.5199 160.139 44.6445 155.225 44.7022" stroke="#882618" stroke-width="0.615" stroke-linecap="round" stroke-linejoin="round"/>
<path d="M125.798 34.8229C126.881 36.8892 126.815 38.143 126.116 39.4842C125.415 40.8246 123.332 43.888 124.476 46.5663" stroke="#882618" stroke-width="0.615" stroke-linecap="round" stroke-linejoin="round"/>
<path d="M132.822 46.9349C131.932 50.1619 128.11 52.2236 126.329 51.8303C126.329 51.8303 128.218 56.8033 131.425 55.4893C135.11 53.9791 132.822 46.9349 132.822 46.9349Z" fill="#FEFEFE"/>
<path d="M132.822 46.9349C131.932 50.1619 128.11 52.2236 126.329 51.8303C126.329 51.8303 128.218 56.8033 131.425 55.4893C135.11 53.9791 132.822 46.9349 132.822 46.9349Z" stroke="#882618" stroke-width="0.615" stroke-linecap="round" stroke-linejoin="round"/>
<path d="M152.469 47.8008C155.015 49.4995 157.532 48.6731 157.532 48.6731" stroke="#882618" stroke-width="0.615" stroke-linecap="round" stroke-linejoin="round"/>
<path d="M163.744 30.6563C167.427 35.6172 162.005 37.8462 162.005 37.8462C161.351 36.9375 160.612 36.2906 159.848 35.8773C157.457 34.5756 154.808 35.6037 153.775 38.176C146.357 38.4253 149.486 32.5578 149.486 32.5578C142.865 35.3038 142.57 28.4526 145.402 25.3207C140.272 31.2561 133.606 25.4591 134.626 20.1645C132.853 25.9531 126.301 26.2536 127.121 21.4563C126.456 22.6049 125.788 23.5105 125.117 24.1917C120.669 28.7991 116.577 23.9778 118.231 20.3567C111.548 26.9127 108.544 19.6969 114.937 15.732C109.799 11.5875 115.739 5.52548 119.899 8.58507C118.876 1.14098 126.497 0.718975 129.904 5.0364C131.131 -3.1712 141.362 1.18247 141.809 5.05826C149.248 -0.302739 155.097 3.5186 154.446 12.0965C157.426 7.9835 163.945 10.2977 161.575 20.7737C167.793 20.2696 168.965 28.0349 163.744 30.6563Z" fill="#4D2D19"/>
<path d="M159.852 35.8755C157.461 34.5738 154.812 35.602 153.779 38.1743C146.36 38.4236 149.49 32.556 149.49 32.556C142.869 35.302 142.575 28.4509 145.405 25.3182C140.276 31.2536 133.61 25.4565 134.63 20.1619C132.856 25.9506 126.305 26.2519 127.125 21.4537C126.46 22.6024 125.791 23.5088 125.121 24.19C123.244 18.6694 127.231 11.3095 133.484 14.5512C134.254 10.0863 144.39 7.0746 144.458 18.3576C148.165 13.0226 156.704 14.7383 152.794 24.8642C155.936 22.4012 163.279 26.4472 159.852 35.8755Z" fill="#331E13"/>
<path d="M146.202 37.9954C147.123 39.7923 145.462 42.4971 142.495 44.0352C139.526 45.5734 136.375 45.3625 135.455 43.5655C134.535 41.7686 136.194 39.0647 139.161 37.5265C142.129 35.9884 145.282 36.1985 146.202 37.9954Z" fill="#FFBE9D"/>
<path d="M121.395 45.1686C120.945 46.4495 119.4 47.1595 117.48 47.1457C117.3 44.7402 117.29 42.2787 117.404 39.8697C120.258 41.0667 122.035 43.3638 121.395 45.1686Z" fill="#FFBE9D"/>
</svg>
