<svg width="235" height="260" viewBox="0 0 235 260" fill="none" xmlns="http://www.w3.org/2000/svg">
<path d="M223.84 39.6152V184.893H17.9219V39.6152C17.9219 31.5219 24.4406 24.9648 32.4864 24.9648H209.285C217.322 24.9648 223.84 31.5219 223.84 39.6152Z" fill="#797979" stroke="#EFEFED" stroke-width="1.639" stroke-linecap="round" stroke-linejoin="round"/>
<path d="M223.84 39.616V40.2716H17.9219V39.616C17.9219 31.5227 24.4406 24.9648 32.4864 24.9648H209.285C217.322 24.9648 223.84 31.5227 223.84 39.616Z" fill="#008037" stroke="#DFDDD7" stroke-width="1.639" stroke-linecap="round" stroke-linejoin="round"/>
<path d="M195.968 32.6204C195.968 34.0913 194.782 35.2837 193.32 35.2837C191.858 35.2837 190.672 34.0913 190.672 32.6204C190.672 31.1494 191.858 29.957 193.32 29.957C194.782 29.957 195.968 31.1494 195.968 32.6204Z" fill="#EFEFED"/>
<path d="M204.609 32.6204C204.609 34.0913 203.424 35.2837 201.962 35.2837C200.499 35.2837 199.312 34.0913 199.312 32.6204C199.312 31.1494 200.499 29.957 201.962 29.957C203.424 29.957 204.609 31.1494 204.609 32.6204Z" fill="#DFDDD7"/>
<path d="M213.257 32.6204C213.257 34.0913 212.071 35.2837 210.61 35.2837C209.148 35.2837 207.961 34.0913 207.961 32.6204C207.961 31.1494 209.148 29.957 210.61 29.957C212.071 29.957 213.257 31.1494 213.257 32.6204Z" fill="#EFEFED"/>
<path d="M221.646 112.069C208.376 111.414 197.384 123.46 193.981 137.295C193.882 137.68 193.794 138.103 193.714 138.561C193.402 140.258 193.151 142.45 192.954 144.993C191.543 163.256 192.874 199.594 193.009 200.429C193.062 200.725 183.614 200.403 170.523 199.809C165.701 199.585 160.379 199.333 154.852 199.054C126.714 197.662 93.2998 195.785 93.2998 195.785L91.2735 173.093C91.2735 173.093 87.0677 180.253 72.6725 194.239C58.2781 208.236 35.2576 200.429 37.7309 182.84C39.2846 171.799 45.7679 163.714 53.6172 150.194C56.0455 146.009 58.6087 141.3 61.1895 135.83C64.6266 128.545 67.9754 121.6 71.1726 115.321C72.5746 112.554 73.9589 109.922 75.2982 107.443C80.3524 98.0734 84.8792 90.9763 88.5226 87.6614C99.4887 77.6814 122.973 83.4303 129.232 85.4518C135.493 87.4733 144.162 89.9348 158.049 90.9133C171.934 91.8926 193.009 97.9111 204.171 101.819C214.984 105.593 221.244 111.673 221.629 112.051C221.637 112.06 221.646 112.069 221.646 112.069Z" fill="#008037"/>
<path d="M230.978 132.793C218.831 120.528 200.38 115.174 181.865 131.773C160.331 151.078 143.808 154.429 119.591 126.249C102.071 105.865 95.9911 100.665 75.2891 107.443C80.3432 98.073 84.8709 90.9767 88.5142 87.6618C99.4795 77.681 122.965 83.4307 129.224 85.4514C135.484 87.4729 144.155 89.9344 158.04 90.9137C171.926 91.893 193 97.9115 204.162 101.819C214.976 105.592 221.235 111.674 221.62 112.052C221.628 112.061 221.637 112.069 221.637 112.069C226.406 115.905 229.237 123.612 230.978 132.793Z" fill="#008037"/>
<path d="M70.8165 167.866C63.1013 176.311 56.118 157.993 53.6094 150.195C56.0377 146.01 58.6009 141.304 61.1817 135.833C64.6188 128.547 67.9677 121.603 71.1648 115.324C76.8706 124.101 69.1554 132.141 68.6201 136.111C67.1997 146.729 81.907 155.739 70.8165 167.866Z" fill="#008037"/>
<path d="M119.594 92.9032C125.548 104.03 141.359 114.718 160.43 99.9592C160.43 99.9592 162.486 93.83 162.273 93.83C162.06 93.83 122.288 88.9805 122.288 88.9805L119.594 92.9032Z" fill="#FEFEFE"/>
<path d="M135.299 79.1535C130.386 78.0394 123.258 79.2923 118.345 86.8803C113.432 94.4683 112.809 100.733 113.086 100.664C113.363 100.594 120.781 95.8601 124.165 96.208C127.549 96.5568 134.981 98.7721 134.981 98.7721L135.299 79.1535Z" fill="#797979"/>
<path d="M157.437 81.3789C157.437 81.3789 168.302 81.4483 169.755 89.1057C171.207 96.764 167.194 105.952 162.281 110.199C157.368 114.445 160.066 104.073 142.422 99.1996L157.437 81.3789Z" fill="#797979"/>
<path d="M91.2632 173.091C89.4071 151.759 89.4062 134.48 89.4062 134.48" stroke="#008037" stroke-width="0.615" stroke-linecap="round" stroke-linejoin="round"/>
<path d="M178.976 224.973C177.779 224.524 176.717 223.976 175.78 223.347C169.047 218.883 168.474 210.179 170.52 199.812C172.1 191.871 175.215 182.95 178.27 174.21C181.743 164.247 185.146 154.526 186.101 146.738C186.235 145.651 186.316 144.609 186.352 143.612C186.549 137.503 187.682 131.449 189.575 126.077C195.129 110.374 207.229 100.483 221.625 112.054C221.633 112.062 221.642 112.072 221.642 112.072C226.409 115.908 229.241 123.615 230.983 132.796C231.608 136.076 232.089 139.543 232.482 143.09V143.117C233.803 155.146 233.991 168.082 234.58 177.712C237.456 224.335 226.347 242.958 178.976 224.973Z" fill="#008037"/>
<path d="M230.985 132.795C220.529 122.24 205.393 116.806 189.578 126.076C195.133 110.374 207.232 100.483 221.627 112.054C221.636 112.063 221.645 112.071 221.645 112.071C226.414 115.907 229.244 123.614 230.985 132.795Z" fill="#008037"/>
<path d="M193.007 200.424C193.06 200.721 183.613 200.398 170.521 199.804C165.7 199.58 160.377 199.329 154.849 199.049C145.384 194.764 139.5 188.566 144.545 179.682C158.261 155.534 183.46 188.989 184.773 165.049C185.666 148.654 189.622 145.096 192.953 144.988C191.542 163.251 192.873 199.589 193.007 200.424Z" fill="#008037"/>
<path d="M196.228 130.176C194.502 134.378 193.341 139.315 192.95 144.992C191.692 163.266 192.87 199.592 193.004 200.429" stroke="#008037" stroke-width="0.615" stroke-linecap="round" stroke-linejoin="round"/>
<path d="M178.978 224.969C177.781 224.52 176.719 223.972 175.781 223.343C186.63 225.688 202.846 227.799 210.017 221.663C221.287 212.006 214.125 199.628 220.358 192.819C226.582 186.009 235.574 183.799 232.484 143.113C233.806 155.142 233.994 168.078 234.583 177.708C237.458 224.331 226.349 242.953 178.978 224.969Z" fill="#008037"/>
<path d="M21.2459 103.476C20.5913 97.4132 47.0069 85.3294 51.5762 94.1177L43.0921 103.007C43.0921 103.007 25.2324 110.557 21.2459 103.476Z" fill="#008037"/>
<path d="M33.3676 59.7696C29.2232 47.7478 28.914 46.2646 31.4857 45.2783C34.0574 44.2911 40.9219 57.93 41.6981 59.5905C42.4742 61.251 46.1538 68.1301 48.0356 76.0782C49.3019 81.4274 51.0722 93.7618 51.3771 96.7398C52.6631 109.288 32.1416 113.548 31.0352 103.791C29.9289 94.0324 29.7686 90.8696 29.7686 90.8696C29.7686 90.8696 19.146 92.1219 17.4948 84.1462C15.8436 76.1697 16.0486 65.2656 16.0486 65.2656C16.0486 65.2656 -0.180192 62.9143 0.284001 58.6189C0.748192 54.3235 32.5883 62.3025 32.5883 62.3025L33.3676 59.7696Z" fill="#FFBE9D"/>
<path d="M32.5872 62.2972C31.3664 66.7962 31.5673 72.7747 33.5975 78.4918" stroke="#882618" stroke-width="0.615" stroke-linecap="round" stroke-linejoin="round"/>
<path d="M24.8161 53.1674C27.3795 54.4365 29.3865 54.6752 30.065 51.0252C30.7436 47.3753 27.1697 47.3601 26.0305 47.5751C24.2597 47.9104 23.7169 52.6225 24.8161 53.1674Z" fill="black"/>
<path d="M25.3002 52.233C24.7719 54.1945 24.4056 56.6362 24.4201 56.564C24.8443 56.7664 27.2996 57.5583 27.6596 56.7059C28.0195 55.8527 28.361 52.1672 28.361 52.1672L25.3002 52.233Z" fill="#2D2D2D"/>
<path d="M23.1257 57.7993C21.9237 63.7853 15.7697 96.6263 15.5653 97.6974C15.3609 98.7685 15.7686 103.713 16.1891 103.894C16.6095 104.076 18.9171 100.483 19.7504 98.6741C20.5845 96.8659 27.518 60.821 27.9631 59.1431C29.0495 55.0435 23.9125 53.8797 23.1257 57.7993Z" fill="black"/>
<path d="M17.4898 76.4787C14.1854 77.3201 13.315 80.5188 15.8046 82.5793C18.487 84.7996 24.9424 83.6401 25.1831 80.7287C25.4239 77.8165 20.2394 75.7784 17.4898 76.4787Z" fill="#FFBE9D"/>
<path d="M17.4898 76.4787C14.1854 77.3201 13.315 80.5188 15.8046 82.5793C18.487 84.7996 24.9424 83.6401 25.1831 80.7287C25.4239 77.8165 20.2394 75.7784 17.4898 76.4787Z" stroke="#882618" stroke-width="0.615" stroke-linecap="round" stroke-linejoin="round"/>
<path d="M17.0862 71.2663C13.6729 70.8374 12.908 74.2373 15.3997 76.8541C17.8915 79.4718 25.9094 79.8452 26.2932 76.7176C26.6778 73.5891 19.1796 71.5297 17.0862 71.2663Z" fill="#FFBE9D"/>
<path d="M17.0862 71.2663C13.6729 70.8374 12.908 74.2373 15.3997 76.8541C17.8915 79.4718 25.9094 79.8452 26.2932 76.7176C26.6778 73.5891 19.1796 71.5297 17.0862 71.2663Z" stroke="#882618" stroke-width="0.615" stroke-linecap="round" stroke-linejoin="round"/>
<path d="M13.9547 65.4801C18.2021 64.3681 27.5936 70.4937 27.2709 72.4572C26.8658 74.9272 22.5268 75.3936 16.2705 72.8868C10.4108 70.5386 11.8681 66.0264 13.9547 65.4801Z" fill="#FFBE9D"/>
<path d="M13.9547 65.4801C18.2021 64.3681 27.5936 70.4937 27.2709 72.4572C26.8658 74.9272 22.5268 75.3936 16.2705 72.8868C10.4108 70.5386 11.8681 66.0264 13.9547 65.4801Z" stroke="#882618" stroke-width="0.615" stroke-linecap="round" stroke-linejoin="round"/>
<path d="M21.2474 103.473C33.2557 105.748 51.5777 94.1134 51.5777 94.1134C51.5777 94.1134 62.7768 139.832 65.6665 149.956C68.5569 160.08 86.4821 199.624 53.2313 201.975C31.8896 203.485 29.5862 162.66 28.0424 149.236C26.4986 135.813 21.2474 103.473 21.2474 103.473Z" fill="#008037"/>
<path d="M29.2824 108.552C38.4916 109.006 48.6009 102.563 48.6009 102.563" stroke="#797979" stroke-width="0.615" stroke-linecap="round" stroke-linejoin="round"/>
<path d="M51.5781 94.1133C51.5781 94.1133 62.7781 139.832 65.6685 149.956C67.2451 155.48 73.2973 169.759 73.0721 181.979" stroke="#797979" stroke-width="0.615" stroke-linecap="round" stroke-linejoin="round"/>
<path d="M134.527 161.048C133.894 153.09 124.699 156.3 124.699 156.3C123.42 149.178 113.789 150.075 113.753 157.424C105.718 157.466 104.077 160.422 104.198 164.642L134.527 161.048Z" fill="#DFDDD7"/>
<path d="M121.552 155.641C121.925 156.861 121.244 158.154 120.032 158.53C118.82 158.905 117.533 158.221 117.16 157.001C116.787 155.781 117.468 154.488 118.68 154.113C119.893 153.737 121.179 154.421 121.552 155.641Z" fill="#FAFBFB"/>
<path d="M121.552 155.641C121.925 156.861 121.244 158.154 120.032 158.53C118.82 158.905 117.533 158.221 117.16 157.001C116.787 155.781 117.468 154.488 118.68 154.113C119.893 153.737 121.179 154.421 121.552 155.641Z" stroke="#DFDDD7" stroke-width="0.82" stroke-linecap="round" stroke-linejoin="round"/>
<path d="M88.5479 163.443L97.7282 242.532L155.595 236.734L147.293 157.254L88.5479 163.443Z" fill="#FAFBFB"/>
<path d="M88.5479 163.443L97.7282 242.532L155.595 236.734L147.293 157.254L88.5479 163.443Z" stroke="#DFDDD7" stroke-width="0.82" stroke-linecap="round" stroke-linejoin="round"/>
<path d="M120.508 207.837C119.959 215.982 122.144 223.685 124.196 225.852C124.196 225.852 129.692 225.213 130.55 209.425L120.508 207.837Z" fill="#008037"/>
<path d="M123.25 191.567C109.473 191.122 102.718 190.362 100.287 190.449C97.8554 190.536 89.5257 192.354 88.6292 194.06C87.7323 195.763 88.1514 197.44 89.1149 199.044C90.0784 200.648 89.0833 202.341 89.4481 204.15C89.8131 205.961 92.0451 205.84 92.1449 207.712C92.2448 209.583 91.448 211.921 92.9821 213.538C94.5175 215.155 93.2291 217.742 95.76 219.526C98.2909 221.31 116.998 216.753 120.763 214.636L129.771 215.746C129.771 215.746 139.313 197.009 123.25 191.567Z" fill="#FFBE9D"/>
<path d="M100.287 190.449C97.856 190.535 89.5258 192.355 88.6291 194.059C87.7322 195.763 88.1513 197.44 89.1148 199.044C90.0783 200.648 89.0832 202.34 89.448 204.15C89.813 205.96 92.045 205.84 92.1448 207.711C92.2447 209.583 91.4482 211.922 92.9823 213.538C94.5176 215.156 93.2293 217.743 95.7599 219.526" stroke="#FFBE9D" stroke-width="0.615" stroke-linecap="round" stroke-linejoin="round"/>
<path d="M213.121 218.913L213.115 218.924C211.674 225.818 204.419 231.175 187.591 231.264C183.04 231.291 178.627 231.22 174.379 231.079C167.349 230.85 160.791 230.427 154.877 229.908C136.317 228.306 124.193 225.847 124.193 225.847C124.193 225.847 126.25 221.939 127.027 215.411C127.264 213.467 127.382 211.288 127.298 208.907C127.114 203.908 126.04 198.018 123.246 191.571C125.539 191.556 127.99 191.502 130.562 191.42C136.789 191.22 143.725 190.868 150.774 190.575C171.893 189.702 194.029 189.342 201.236 195.185C201.896 195.723 202.54 196.274 203.158 196.854C203.404 197.079 203.653 197.312 203.893 197.548C203.96 197.612 204.023 197.668 204.08 197.734C204.371 198.011 204.647 198.302 204.923 198.592C205.414 199.098 205.879 199.612 206.33 200.14C211.301 205.941 214.356 212.993 213.121 218.913Z" fill="#008037"/>
<path d="M123.25 191.566C147.703 191.423 190.636 186.589 201.24 195.185C203.074 196.67 204.794 198.345 206.331 200.139" stroke="#008037" stroke-width="0.615" stroke-linecap="round" stroke-linejoin="round"/>
<path d="M130.56 191.419C136.265 205.094 133.172 220.883 133.172 220.883" stroke="#008037" stroke-width="0.615" stroke-linecap="round" stroke-linejoin="round"/>
<path d="M213.118 218.924C211.676 225.819 204.421 231.176 187.592 231.265C183.042 231.292 178.628 231.221 174.381 231.079C184.126 230.684 206.919 228.71 213.118 218.924Z" fill="#008037"/>
<path d="M162.706 90.1322C162.706 90.1322 156.777 99.4284 143.333 99.7903C129.9 100.162 127.213 92.1253 127.213 92.1253C128.631 88.4488 130.292 80.6237 131.351 75.1421C132.027 71.6786 132.462 69.1432 132.462 69.1432C132.462 69.1432 134.437 47.455 157.532 48.4881L157.969 52.0354L162.706 90.1322Z" fill="#FFBE9D"/>
<path d="M131.352 75.3167C132.027 71.8589 132.462 69.3203 132.462 69.3203L132.443 69.3205C132.462 69.3203 145.506 62.9691 145.506 62.9691C145.506 62.9691 147.78 78.0709 131.352 75.3167Z" fill="#FFBE9D"/>
<path d="M157.531 48.668L157.974 52.2121C149.943 65.1354 138.828 69.2994 132.461 69.3199L132.443 69.3201C121.904 66.8028 118.204 57.3321 117.478 47.1435C117.299 44.7381 117.288 42.2773 117.403 39.8676C117.793 31.1313 119.69 22.9602 120.63 19.3467C120.63 19.3467 152.015 4.2005 154.545 33.8264C154.545 33.8264 161.29 32.4983 162.637 40.0565C163.754 46.2957 157.531 48.668 157.531 48.668Z" fill="#FFBE9D"/>
<path d="M121.187 38.5596C121.195 39.2587 121.765 39.8196 122.46 39.8114C123.156 39.8032 123.714 39.2291 123.706 38.53C123.698 37.8301 123.127 37.27 122.431 37.2782C121.735 37.2864 121.178 37.8597 121.187 38.5596Z" fill="#562509"/>
<path d="M129.944 36.8408C129.952 37.5407 130.522 38.1008 131.218 38.0926C131.914 38.0845 132.471 37.5112 132.462 36.8113C132.454 36.1114 131.884 35.5513 131.189 35.5595C130.493 35.5676 129.936 36.1409 129.944 36.8408Z" fill="#562509"/>
<path d="M129.202 30.0316C129.356 31.76 135.241 32.3644 135.568 31.3763C136.06 29.8858 128.842 25.974 129.202 30.0316Z" fill="#4D2D19"/>
<path d="M118.028 32.7457C117.989 33.6843 124.439 34.0462 124.173 30.7181C123.981 28.3209 118.137 30.1398 118.028 32.7457Z" fill="#4D2D19"/>
<path d="M153.006 43.2088C155.592 39.2586 159.759 39.6457 160.201 40.3777" stroke="#882618" stroke-width="0.615" stroke-linecap="round" stroke-linejoin="round"/>
<path d="M154.101 41.8606C157.955 39.516 160.139 44.6406 155.225 44.6982" stroke="#882618" stroke-width="0.615" stroke-linecap="round" stroke-linejoin="round"/>
<path d="M125.798 34.819C126.881 36.8853 126.815 38.1391 126.116 39.4803C125.415 40.8207 123.332 43.8841 124.476 46.5624" stroke="#882618" stroke-width="0.615" stroke-linecap="round" stroke-linejoin="round"/>
<path d="M132.822 46.9349C131.932 50.1619 128.11 52.2236 126.329 51.8303C126.329 51.8303 128.218 56.8033 131.425 55.4893C135.11 53.9791 132.822 46.9349 132.822 46.9349Z" fill="#FEFEFE"/>
<path d="M132.822 46.9349C131.932 50.1619 128.11 52.2236 126.329 51.8303C126.329 51.8303 128.218 56.8033 131.425 55.4893C135.11 53.9791 132.822 46.9349 132.822 46.9349Z" stroke="#882618" stroke-width="0.615" stroke-linecap="round" stroke-linejoin="round"/>
<path d="M152.469 47.8008C155.015 49.4995 157.532 48.6731 157.532 48.6731" stroke="#882618" stroke-width="0.615" stroke-linecap="round" stroke-linejoin="round"/>
<path d="M163.744 30.6563C167.427 35.6172 162.005 37.8462 162.005 37.8462C161.351 36.9375 160.612 36.2906 159.848 35.8773C157.457 34.5756 154.808 35.6037 153.775 38.176C146.357 38.4253 149.486 32.5578 149.486 32.5578C142.865 35.3038 142.57 28.4526 145.402 25.3207C140.272 31.2561 133.606 25.4591 134.626 20.1645C132.853 25.9531 126.301 26.2536 127.121 21.4563C126.456 22.6049 125.788 23.5105 125.117 24.1917C120.669 28.7991 116.577 23.9778 118.231 20.3567C111.548 26.9127 108.544 19.6969 114.937 15.732C109.799 11.5875 115.739 5.52548 119.899 8.58507C118.876 1.14098 126.497 0.718975 129.904 5.0364C131.131 -3.1712 141.362 1.18247 141.809 5.05826C149.248 -0.302739 155.097 3.5186 154.446 12.0965C157.426 7.9835 163.945 10.2977 161.575 20.7737C167.793 20.2696 168.965 28.0349 163.744 30.6563Z" fill="#4D2D19"/>
<path d="M159.844 35.8755C157.454 34.5738 154.804 35.602 153.771 38.1743C146.352 38.4236 149.483 32.556 149.483 32.556C142.861 35.302 142.567 28.4509 145.397 25.3182C140.269 31.2536 133.602 25.4565 134.622 20.1619C132.849 25.9506 126.298 26.2519 127.118 21.4537C126.452 22.6024 125.784 23.5088 125.113 24.19C123.236 18.6694 127.223 11.3095 133.476 14.5512C134.246 10.0863 144.382 7.0746 144.451 18.3576C148.158 13.0226 156.696 14.7383 152.787 24.8642C155.928 22.4012 163.271 26.4472 159.844 35.8755Z" fill="#331E13"/>
<path d="M146.21 37.9954C147.131 39.7923 145.47 42.4971 142.503 44.0352C139.534 45.5734 136.383 45.3625 135.463 43.5655C134.543 41.7686 136.202 39.0647 139.169 37.5265C142.137 35.9884 145.29 36.1985 146.21 37.9954Z" fill="#FFBE9D"/>
<path d="M121.395 45.1686C120.945 46.4495 119.4 47.1595 117.48 47.1457C117.3 44.7402 117.29 42.2787 117.404 39.8697C120.258 41.0667 122.035 43.3638 121.395 45.1686Z" fill="#FFBE9D"/>
</svg>
