<svg width="22" height="22" viewBox="0 0 22 22" fill="none" xmlns="http://www.w3.org/2000/svg">
<path d="M15.75 7.75391C17.925 7.76591 19.103 7.86291 19.871 8.63091C20.75 9.50991 20.75 10.9239 20.75 13.7519V14.7519C20.75 17.5809 20.75 18.9949 19.871 19.8739C18.993 20.7519 17.578 20.7519 14.75 20.7519H6.75C3.922 20.7519 2.507 20.7519 1.629 19.8739C0.75 18.9939 0.75 17.5809 0.75 14.7519V13.7519C0.75 10.9239 0.75 9.50991 1.629 8.63091C2.397 7.86291 3.575 7.76591 5.75 7.75391" stroke="white" stroke-width="1.5" stroke-linecap="round"/>
<path d="M10.75 13.75L10.75 0.75M10.75 0.75L13.75 4.25M10.75 0.75L7.75 4.25" stroke="white" stroke-width="1.5" stroke-linecap="round" stroke-linejoin="round"/>
</svg>
