<svg width="24" height="24" viewBox="0 0 24 24" fill="none" xmlns="http://www.w3.org/2000/svg">
<path d="M8.14145 13.3224C8.73033 13.3224 9.2951 13.5563 9.7115 13.9727C10.1279 14.3891 10.3618 14.9539 10.3618 15.5428V21.4638C10.3618 22.0527 10.1279 22.6175 9.7115 23.0339C9.2951 23.4503 8.73033 23.6842 8.14145 23.6842H2.22039C1.63151 23.6842 1.06674 23.4503 0.650339 23.0339C0.233934 22.6175 0 22.0527 0 21.4638V15.5428C0 14.9539 0.233934 14.3891 0.650339 13.9727C1.06674 13.5563 1.63151 13.3224 2.22039 13.3224H8.14145ZM21.4638 13.3224C22.0527 13.3224 22.6175 13.5563 23.0339 13.9727C23.4503 14.3891 23.6842 14.9539 23.6842 15.5428V21.4638C23.6842 22.0527 23.4503 22.6175 23.0339 23.0339C22.6175 23.4503 22.0527 23.6842 21.4638 23.6842H15.5428C14.9539 23.6842 14.3891 23.4503 13.9727 23.0339C13.5563 22.6175 13.3224 22.0527 13.3224 21.4638V15.5428C13.3224 14.9539 13.5563 14.3891 13.9727 13.9727C14.3891 13.5563 14.9539 13.3224 15.5428 13.3224H21.4638ZM8.14145 14.8026H2.22039C2.0241 14.8026 1.83584 14.8806 1.69704 15.0194C1.55824 15.1582 1.48026 15.3465 1.48026 15.5428V21.4638C1.48026 21.6601 1.55824 21.8484 1.69704 21.9872C1.83584 22.126 2.0241 22.2039 2.22039 22.2039H8.14145C8.33774 22.2039 8.526 22.126 8.6648 21.9872C8.8036 21.8484 8.88158 21.6601 8.88158 21.4638V15.5428C8.88158 15.3465 8.8036 15.1582 8.6648 15.0194C8.526 14.8806 8.33774 14.8026 8.14145 14.8026ZM21.4638 14.8026H15.5428C15.3465 14.8026 15.1582 14.8806 15.0194 15.0194C14.8806 15.1582 14.8026 15.3465 14.8026 15.5428V21.4638C14.8026 21.6601 14.8806 21.8484 15.0194 21.9872C15.1582 22.126 15.3465 22.2039 15.5428 22.2039H21.4638C21.6601 22.2039 21.8484 22.126 21.9872 21.9872C22.126 21.8484 22.2039 21.6601 22.2039 21.4638V15.5428C22.2039 15.3465 22.126 15.1582 21.9872 15.0194C21.8484 14.8806 21.6601 14.8026 21.4638 14.8026ZM8.14145 0C8.73033 0 9.2951 0.233934 9.7115 0.650339C10.1279 1.06674 10.3618 1.63151 10.3618 2.22039V8.14145C10.3618 8.73033 10.1279 9.2951 9.7115 9.7115C9.2951 10.1279 8.73033 10.3618 8.14145 10.3618H2.22039C1.63151 10.3618 1.06674 10.1279 0.650339 9.7115C0.233934 9.2951 0 8.73033 0 8.14145V2.22039C0 1.63151 0.233934 1.06674 0.650339 0.650339C1.06674 0.233934 1.63151 0 2.22039 0H8.14145ZM21.4638 0C22.0527 0 22.6175 0.233934 23.0339 0.650339C23.4503 1.06674 23.6842 1.63151 23.6842 2.22039V8.14145C23.6842 8.73033 23.4503 9.2951 23.0339 9.7115C22.6175 10.1279 22.0527 10.3618 21.4638 10.3618H15.5428C14.9539 10.3618 14.3891 10.1279 13.9727 9.7115C13.5563 9.2951 13.3224 8.73033 13.3224 8.14145V2.22039C13.3224 1.63151 13.5563 1.06674 13.9727 0.650339C14.3891 0.233934 14.9539 0 15.5428 0H21.4638ZM8.14145 1.48026H2.22039C2.0241 1.48026 1.83584 1.55824 1.69704 1.69704C1.55824 1.83584 1.48026 2.0241 1.48026 2.22039V8.14145C1.48026 8.33774 1.55824 8.526 1.69704 8.6648C1.83584 8.8036 2.0241 8.88158 2.22039 8.88158H8.14145C8.33774 8.88158 8.526 8.8036 8.6648 8.6648C8.8036 8.526 8.88158 8.33774 8.88158 8.14145V2.22039C8.88158 2.0241 8.8036 1.83584 8.6648 1.69704C8.526 1.55824 8.33774 1.48026 8.14145 1.48026ZM21.4638 1.48026H15.5428C15.3465 1.48026 15.1582 1.55824 15.0194 1.69704C14.8806 1.83584 14.8026 2.0241 14.8026 2.22039V8.14145C14.8026 8.33774 14.8806 8.526 15.0194 8.6648C15.1582 8.8036 15.3465 8.88158 15.5428 8.88158H21.4638C21.6601 8.88158 21.8484 8.8036 21.9872 8.6648C22.126 8.526 22.2039 8.33774 22.2039 8.14145V2.22039C22.2039 2.0241 22.126 1.83584 21.9872 1.69704C21.8484 1.55824 21.6601 1.48026 21.4638 1.48026Z" fill="white"/>
</svg>
