<svg width="220" height="254" viewBox="0 0 220 254" fill="none" xmlns="http://www.w3.org/2000/svg">
<path d="M17.0049 126.091L18.2438 125.725C22.4966 124.468 26.8741 125.796 30.2813 128.38C33.1392 130.548 35.3603 133.581 35.7571 137.278C36.1762 141.184 36.0979 141.636 36.7464 141.792L46.6556 144.168C46.9452 144.237 47.239 144.086 47.387 143.792L48.7968 140.994C50.5196 137.574 54.0115 135.463 57.6371 134.645C61.1931 133.842 64.9141 134.298 67.5555 136.644L69.9732 138.792C70.2087 139.001 70.5311 139.015 70.776 138.827L79.1581 132.402C79.4031 132.214 79.5167 131.865 79.4409 131.534L78.5749 127.742C77.7618 124.182 78.7123 120.488 80.6519 117.244C82.9198 113.451 86.5112 110.291 90.73 109.662L92.1931 109.444C92.4855 109.401 92.7196 109.147 92.7765 108.812L94.7215 97.3486C94.7784 97.0135 94.6452 96.6712 94.39 96.4965L92.6351 95.2943C89.151 92.9075 87.154 88.8666 86.4005 84.5716C85.6513 80.3014 86.1238 75.7494 88.6552 72.0612C89.9895 70.1172 90.1708 69.867 89.8604 69.3277C84.1945 59.8439 84.3683 58.9418 83.4772 59.2048L82.2386 59.5709C77.9858 60.828 73.6082 59.5004 70.2009 56.9159C67.343 54.7481 65.122 51.7154 64.7254 48.018C64.3067 44.1149 64.3845 43.66 63.7359 43.5041C53.8564 41.3436 53.5493 40.6021 53.0954 41.5037L51.7172 44.2395C49.9749 47.6981 46.4437 49.8313 42.7786 50.6665C39.2534 51.4699 35.5433 51.0789 32.9632 48.707C30.4905 46.4338 30.2443 46.0561 29.7062 46.4687C21.5065 52.9999 20.8081 52.7405 21.0413 53.7623L21.8881 57.4701C22.7132 61.0829 21.7463 64.8323 19.785 68.1283C17.5442 71.8936 14.024 75.0796 9.83329 75.5973C8.11275 75.8099 7.80693 75.8868 7.70576 76.4845C5.95389 87.8655 5.30519 88.2602 6.09216 88.7997L7.84707 90.0019C11.3312 92.3888 13.3283 96.4295 14.0818 100.725C14.831 104.995 14.3581 109.547 11.8253 113.235C10.4973 115.168 10.3108 115.427 10.6218 115.969C16.2877 125.452 16.1139 126.354 17.0049 126.091Z" fill="#797979"/>
<path d="M43.3175 126.033C41.6508 125.552 40.0213 124.907 38.459 124.109C37.9892 123.869 37.7453 123.277 37.8598 122.721C37.8735 122.655 37.8923 122.589 37.9164 122.524C38.1424 121.918 38.7536 121.645 39.2774 121.912C41.0744 122.83 42.9681 123.53 44.9048 123.995C59.4961 127.494 73.7065 116.966 77.1284 100.39C77.2158 99.9664 77.296 99.5391 77.3693 99.1082C80.3241 81.6918 70.4975 64.7944 55.5583 61.2074C40.64 57.6302 26.048 68.7252 23.0939 86.0945C21.3403 96.4342 24.459 102.751 24.2381 103.822C23.9994 104.978 22.6032 105.049 22.2556 103.927C20.356 97.8006 19.9309 90.9576 21.3198 84.2292C27.3135 55.1974 60.5184 48.6808 74.9072 73.6851C79.3354 81.3797 80.9318 90.5816 79.402 99.5958C79.3232 100.062 79.2359 100.525 79.1414 100.985C77.4041 109.404 73.0595 116.618 66.8096 121.409C60.2185 126.461 52.2974 128.215 44.5057 126.347C44.1079 126.252 43.7114 126.147 43.3175 126.033Z" fill="white"/>
<path d="M84.5992 55.8954L85.5406 56.052C88.7721 56.5897 91.4795 58.952 93.2206 61.8612C94.681 64.3016 95.4979 67.1283 94.8989 69.8109C94.2661 72.6447 94.1054 72.9308 94.5162 73.2524L100.793 78.1661C100.977 78.3096 101.215 78.3026 101.387 78.1486L103.02 76.6832C105.016 74.8923 107.924 74.5893 110.619 75.2226C113.263 75.8438 115.723 77.3876 116.992 79.8795L118.153 82.1604C118.267 82.3824 118.486 82.4987 118.699 82.4502L126 80.7854C126.213 80.7368 126.374 80.5338 126.4 80.2799L126.697 77.3773C126.977 74.6518 128.505 72.4165 130.609 70.8187C133.069 68.9506 136.293 67.957 139.353 68.9169L140.414 69.2498C140.626 69.3164 140.848 69.2184 140.966 69.0061L145.014 61.7381C145.133 61.5258 145.122 61.2456 144.987 61.0407L144.06 59.6314C142.219 56.833 141.794 53.3846 142.288 50.1717C142.779 46.9774 144.18 43.9924 146.797 42.2837C148.177 41.383 148.361 41.2703 148.274 40.7955C146.603 32.3789 146.936 31.8139 146.259 31.701L145.318 31.5444C142.086 31.0067 139.379 28.6441 137.637 25.7349C136.177 23.2947 135.36 20.4682 135.959 17.7858C136.592 14.9539 136.753 14.6657 136.342 14.3438C130.034 9.58876 129.997 8.97549 129.471 9.44766L127.875 10.8802C125.856 12.6912 122.915 12.9966 120.189 12.3621C117.567 11.7517 115.099 10.2561 113.878 7.76689C112.709 5.38119 112.628 5.03918 112.159 5.14609C104.959 6.94398 104.538 6.53423 104.458 7.31635L104.167 10.1549C103.884 12.9206 102.331 15.1885 100.2 16.8149C97.7648 18.6729 94.5836 19.7084 91.5695 18.6811C90.3319 18.2593 90.1027 18.2113 89.8919 18.5903C85.9964 25.8652 85.4555 25.9233 85.8713 26.5556L86.7986 27.9651C88.6394 30.7634 89.0637 34.2115 88.5699 37.4243C88.0789 40.6187 86.678 43.604 84.0597 45.3117C82.6869 46.2071 82.497 46.3246 82.5839 46.8008C84.2551 55.2173 83.9222 55.7825 84.5992 55.8954Z" fill="#797979"/>
<path d="M102.765 64.5401C101.728 63.6571 100.756 62.6738 99.8662 61.6071C99.5986 61.2863 99.57 60.7974 99.7802 60.4514C99.8054 60.4101 99.8339 60.371 99.8657 60.3345C100.165 59.9905 100.651 60.0038 100.95 60.3615C101.973 61.5884 103.115 62.697 104.341 63.6584C113.584 70.8935 125.876 68.3234 132.15 58.0154C132.31 57.7521 132.466 57.4837 132.619 57.2106C138.769 46.1683 135.977 31.261 126.514 23.8498C117.064 16.4522 104.375 19.2875 98.2364 30.2976C94.5856 36.8533 95.2465 42.2432 94.8414 42.9087C94.4037 43.628 93.4236 43.2155 93.4485 42.3266C93.5839 37.471 94.9058 32.6084 97.4525 28.4242C108.442 10.3703 132.894 16.8444 136.921 38.8533C138.16 45.6262 137.09 52.5037 133.906 58.2187C133.742 58.5144 133.572 58.8052 133.399 59.0912C130.212 64.3272 125.512 67.8695 120.068 69.111C114.326 70.4198 108.446 69.0129 103.511 65.1493C103.258 64.9522 103.01 64.7488 102.765 64.5401Z" fill="white"/>
<path d="M157.582 81.7188L158.508 81.445C161.688 80.5051 164.961 81.4976 167.509 83.4301C169.646 85.0511 171.307 87.3187 171.603 90.0833C171.917 93.0039 171.858 93.3419 172.343 93.4582L179.752 95.2348C179.969 95.2866 180.189 95.1739 180.299 94.9541L181.354 92.8615C182.642 90.3043 185.253 88.7259 187.964 88.1141C190.622 87.5142 193.405 87.8548 195.38 89.6092L197.187 91.2151C197.364 91.3714 197.605 91.382 197.788 91.2417L204.055 86.4371C204.238 86.2966 204.323 86.0361 204.267 85.7882L203.619 82.9531C203.011 80.291 203.722 77.5288 205.172 75.1033C206.868 72.2671 209.553 69.9046 212.708 69.4345L213.802 69.2714C214.02 69.2389 214.195 69.0489 214.238 68.7985L215.692 60.2271C215.735 59.9766 215.635 59.7208 215.444 59.5901L214.132 58.6912C211.527 56.9065 210.034 53.8851 209.47 50.6736C208.91 47.4807 209.264 44.0769 211.156 41.3192C212.154 39.8658 212.29 39.6787 212.058 39.2754C207.821 32.1842 207.951 31.5098 207.285 31.7064L206.359 31.9801C203.179 32.92 199.905 31.9273 197.358 29.9948C195.221 28.374 193.56 26.1064 193.264 23.3419C192.951 20.4234 193.009 20.0832 192.524 19.9667C185.137 18.3512 184.907 17.7967 184.568 18.4709L183.537 20.5166C182.234 23.1026 179.594 24.6976 176.854 25.3222C174.218 25.9228 171.444 25.6305 169.515 23.857C167.666 22.1573 167.481 21.8749 167.079 22.1833C160.948 27.0669 160.426 26.8729 160.6 27.6369L161.233 30.4093C161.85 33.1107 161.127 35.9142 159.661 38.3787C157.985 41.1941 155.353 43.5763 152.22 43.9633C150.933 44.1223 150.705 44.1797 150.629 44.6266C149.319 53.1365 148.834 53.4315 149.422 53.835L150.735 54.7339C153.34 56.5186 154.833 59.54 155.396 62.7514C155.957 65.9443 155.603 69.3483 153.709 72.1053C152.716 73.551 152.577 73.7451 152.809 74.1497C157.046 81.2409 156.916 81.9155 157.582 81.7188Z" fill="#797979"/>
<path d="M177.259 81.6717C176.013 81.3117 174.794 80.8295 173.626 80.2329C173.275 80.0536 173.092 79.6111 173.178 79.1954C173.188 79.1457 173.202 79.0966 173.22 79.0483C173.389 78.5947 173.846 78.3905 174.238 78.5905C175.582 79.2765 176.998 79.7998 178.446 80.1482C189.356 82.764 199.981 74.8918 202.54 62.4978C202.605 62.1813 202.665 61.8618 202.72 61.5395C204.929 48.517 197.582 35.8824 186.411 33.2004C175.257 30.5257 164.346 38.8215 162.137 51.8089C160.826 59.5401 163.158 64.2637 162.993 65.0639C162.814 65.9288 161.77 65.9815 161.51 65.1429C160.09 60.5617 159.772 55.4452 160.811 50.4141C165.292 28.7066 190.12 23.8341 200.879 42.5303C204.19 48.2836 205.384 55.164 204.24 61.904C204.181 62.2527 204.116 62.5989 204.045 62.9428C202.746 69.238 199.497 74.6316 194.824 78.2143C189.896 81.992 183.973 83.3033 178.147 81.9064C177.85 81.8352 177.553 81.7568 177.259 81.6717Z" fill="white"/>
<path d="M137.993 98.3897C137.951 97.8643 137.858 97.1804 137.962 96.663C137.973 96.6041 137.977 96.5453 137.973 96.4869C137.887 95.4057 134.984 94.8416 131.487 95.2269C127.991 95.6123 125.226 96.8012 125.311 97.8824C125.352 98.408 125.445 99.0917 125.342 99.6093C125.33 99.6682 125.326 99.7268 125.331 99.7852C125.372 100.311 125.465 100.995 125.362 101.512C125.35 101.571 125.346 101.63 125.351 101.688C125.392 102.214 125.485 102.897 125.382 103.415C125.37 103.474 125.366 103.532 125.371 103.591C125.391 103.843 125.564 104.067 125.863 104.258C126.439 104.625 126.928 105.171 126.982 105.854C127.14 107.846 129.052 109.382 131.56 109.345C134.068 109.308 136.216 107.144 136.22 105.143C136.221 104.369 136.679 103.675 137.315 103.231C137.797 102.895 138.06 102.54 138.033 102.195C137.991 101.67 137.898 100.986 138.002 100.469C138.013 100.41 138.017 100.351 138.013 100.293C137.971 99.7671 137.878 99.0831 137.982 98.5657C137.993 98.5068 137.997 98.4481 137.993 98.3897Z" fill="#878787"/>
<path d="M129.973 105.068C128.934 105.083 127.982 105.007 127.194 104.84C127.148 104.831 127.118 104.779 127.126 104.725C127.134 104.671 127.178 104.635 127.224 104.645C128.456 104.905 130.099 104.942 131.85 104.749C133.283 104.591 134.621 104.298 135.72 103.901C135.765 103.885 135.812 103.914 135.825 103.967C135.839 104.02 135.814 104.075 135.769 104.091C134.659 104.492 133.309 104.788 131.866 104.947C131.215 105.019 130.58 105.059 129.973 105.068Z" fill="#F2F2F2"/>
<path d="M129.963 103.165C128.613 103.185 127.404 103.052 126.55 102.778C126.505 102.763 126.479 102.709 126.491 102.656C126.503 102.603 126.549 102.571 126.594 102.586C127.811 102.977 129.766 103.075 131.823 102.848C133.857 102.624 135.751 102.107 136.889 101.465C136.931 101.442 136.981 101.463 137.001 101.512C137.021 101.562 137.004 101.621 136.962 101.645C135.807 102.296 133.891 102.82 131.838 103.046C131.198 103.117 130.566 103.156 129.963 103.165Z" fill="#F2F2F2"/>
<path d="M129.933 101.265C128.475 101.286 127.197 101.129 126.335 100.806C126.291 100.79 126.266 100.734 126.28 100.682C126.294 100.629 126.341 100.6 126.386 100.617C127.586 101.065 129.614 101.189 131.81 100.947C133.844 100.722 135.738 100.206 136.877 99.5639C136.919 99.5404 136.969 99.5614 136.989 99.6109C137.009 99.6605 136.991 99.7199 136.949 99.7435C135.794 100.395 133.879 100.918 131.826 101.145C131.175 101.216 130.539 101.256 129.933 101.265Z" fill="#F2F2F2"/>
<path d="M129.93 99.3596C128.773 99.3766 127.72 99.2815 126.9 99.0785C126.854 99.0674 126.825 99.0147 126.834 98.9609C126.844 98.907 126.889 98.8725 126.934 98.8839C128.167 99.1891 129.939 99.2468 131.795 99.0423C133.811 98.82 135.696 98.3086 136.836 97.6742C136.878 97.6507 136.928 97.6721 136.948 97.7218C136.968 97.7715 136.95 97.8308 136.908 97.8542C135.751 98.4979 133.845 99.0161 131.811 99.2403C131.168 99.3112 130.534 99.3507 129.93 99.3596Z" fill="#F2F2F2"/>
<path d="M122.87 89.0054C122.426 87.2304 121.687 85.5762 120.699 84.1406C118.583 81.0645 115.117 74.7963 114.608 66.1792C113.868 53.6451 123.205 47.2271 131.794 47.9534C140.383 48.6796 148.928 56.1133 148.124 67.7957C147.629 74.9838 144.29 80.4798 141.794 83.6447C140.209 85.6543 139.089 88.1037 138.496 90.7616C137.771 94.0147 136.008 98.0815 131.717 98.391C126.165 98.7914 123.794 92.6992 122.87 89.0054Z" fill="#008037"/>
<path d="M133.109 95.869L135.868 72.7236C135.925 72.2454 136.12 71.9219 136.304 72.001C136.488 72.0803 136.59 72.5323 136.533 73.0103C136.532 73.0231 136.53 73.0388 136.528 73.0514L133.349 95.9883C133.325 96.1607 133.252 96.2705 133.187 96.2335C133.123 96.1975 133.089 96.0359 133.109 95.869Z" fill="#8CC63F"/>
<path d="M129.996 96.0961L126.751 73.0389C126.684 72.5626 126.482 72.245 126.3 72.3296C126.118 72.4141 126.025 72.8689 126.092 73.3452C126.094 73.3579 126.096 73.3736 126.098 73.3861L129.758 96.2224C129.786 96.3941 129.861 96.5017 129.926 96.4628C129.989 96.4249 130.019 96.2625 129.996 96.0961Z" fill="#8CC63F"/>
<path d="M135.823 70.7428C135.745 70.5989 135.568 70.5472 135.427 70.6276C134.574 71.1148 133.492 70.6894 133.203 69.7529L133.165 69.6287C133.133 69.5271 133.061 69.4377 132.959 69.3897C132.766 69.2987 132.536 69.386 132.447 69.5846L132.444 69.5909C131.974 70.6357 130.465 70.5516 130.122 69.4616L129.781 68.3739L129.778 68.3669C129.746 68.2644 129.679 68.1727 129.583 68.1122C129.367 67.9771 129.085 68.0472 128.953 68.2686L127.064 71.4272C126.987 71.5565 127.016 71.7279 127.136 71.8211C127.264 71.9204 127.447 71.8942 127.544 71.7625C128.27 70.7801 129.79 70.9761 130.234 72.1095L130.778 73.4978L130.78 73.5009C130.805 73.5648 130.851 73.6202 130.916 73.6546C131.059 73.7317 131.237 73.6745 131.313 73.5268L132.061 72.0657C132.333 71.536 133.1 71.5674 133.322 72.1173L133.327 72.13C133.331 72.14 133.336 72.15 133.341 72.1598C133.419 72.3036 133.596 72.3551 133.736 72.2748L135.709 71.1488C135.85 71.0685 135.901 70.8867 135.823 70.7428Z" fill="white"/>
<path d="M141.823 80.6687C141.744 80.6699 141.664 80.6423 141.596 80.5831C141.425 80.4374 141.387 80.1554 141.51 79.9534C142.013 79.1313 142.472 78.2822 142.876 77.4304C142.979 77.2133 143.212 77.136 143.395 77.2577C143.579 77.3796 143.644 77.6543 143.541 77.8716C143.123 78.7536 142.647 79.6319 142.128 80.4822C142.054 80.6025 141.94 80.667 141.823 80.6687Z" fill="white"/>
<path d="M144.242 75.6169C144.191 75.6177 144.14 75.6064 144.09 75.5819C143.896 75.4855 143.804 75.2211 143.886 74.9915C146.967 66.3015 144.155 59.0869 144.127 59.0151C144.036 58.7901 144.118 58.5211 144.308 58.4146C144.499 58.3082 144.726 58.4041 144.815 58.6291C144.939 58.9374 147.801 66.2828 144.589 75.3405C144.528 75.5115 144.389 75.6148 144.242 75.6169Z" fill="white"/>
<path d="M83.4856 237.95C82.4657 237.743 81.4817 238.428 81.3445 239.46C81.1902 240.62 81.0027 242.176 80.8756 243.725C80.7773 244.922 81.5496 245.971 82.5649 246.033C86.0141 246.242 93.3927 246.656 96.0424 246.546C96.4407 246.529 96.7049 246.05 96.5611 245.61C96.4406 245.242 96.2048 244.942 95.9026 244.774L84.0119 238.145C83.8476 238.053 83.67 237.987 83.4856 237.95Z" fill="black"/>
<path d="M82.7543 235.478C81.9046 235.626 81.3109 236.402 81.39 237.261L81.4679 238.106C81.5453 238.947 82.0301 239.736 82.8607 239.89C83.1402 239.941 83.447 239.968 83.7605 239.941C84.732 239.86 85.0661 238.753 84.8697 237.798L84.6593 236.776C84.4791 235.899 83.6355 235.325 82.7543 235.478Z" fill="#FFC09D"/>
<path d="M77.2761 166.054C79.8011 166.083 81.9926 168.389 81.9444 170.914C81.7014 183.629 81.5983 218.289 84.9449 235.62C85.0118 235.966 84.8607 236.321 84.5814 236.453C83.9233 236.762 82.6344 237.206 81.0938 237.25C80.6167 237.264 80.192 236.892 80.0619 236.349C78.8798 231.417 73.2242 206.707 72.6503 183.158C72.009 156.843 72.6576 182.262 72.6576 182.262L73.1344 169.992C73.2206 167.774 75.0568 166.028 77.2761 166.054Z" fill="black"/>
<path d="M69.2259 239.148C68.2295 239.073 67.3095 239.626 67.0262 240.584C66.7567 241.495 66.4176 242.843 66.0791 244.725C65.9444 245.474 66.3818 246.197 67.0251 246.279C68.1635 246.424 69.9161 246.615 71.3213 246.619C71.969 246.621 72.4798 245.96 72.4079 245.198C72.2861 243.908 71.9322 241.914 70.9195 240.144C70.5738 239.54 69.92 239.2 69.2259 239.148Z" fill="black"/>
<path d="M68.536 234.157C67.6917 234.209 67.0721 234.971 67.1948 235.808L67.6677 239.034C67.7465 239.57 67.5618 239.779 68.0439 240.028C68.9944 240.519 70.2984 239.35 70.2336 238.282L70.0657 235.511C70.0174 234.715 69.3324 234.109 68.536 234.157ZM66.9532 235.752C66.9608 234.802 67.7381 234.04 68.6873 234.051C69.6322 234.061 70.3905 234.834 70.3829 235.779L70.3575 238.947C70.3498 239.896 69.5725 240.659 68.6233 240.648C67.6784 240.637 66.9202 239.864 66.9278 238.919L66.9532 235.752Z" fill="#7F7F7F"/>
<path d="M71.7081 166.451C67.8267 166.995 64.744 170.024 64.3814 173.927C62.1166 198.303 65.5393 229.675 66.7995 236.27C66.8837 236.711 67.1813 237.051 67.5577 237.13C68.197 237.262 69.2506 237.377 70.2929 237.031C70.652 236.912 70.9067 236.533 70.9248 236.092C71.1642 230.283 71.1055 194.599 74.4763 180.536C74.647 179.823 75.0209 179.204 75.5347 178.78L80.1679 174.962C81.2727 174.051 81.9517 172.724 82.0439 171.295C82.2552 168.018 79.4042 165.373 76.1518 165.828L71.7081 166.451Z" fill="black"/>
<path d="M87.8172 120.327C83.4813 120.194 78.9548 120.686 75.1385 121.308C69.3605 122.251 65.1346 127.038 64.6515 132.872C63.8052 143.094 63.9387 153.152 64.2341 160.175C64.4789 165.996 71.6736 171.162 77.3549 169.87C82.2385 168.76 82.5952 165.404 83.6651 160.512C85.1929 153.525 87.3341 144.807 88.6995 139.35C89.4917 136.184 92.1699 133.932 95.2911 132.979C96.1826 132.707 97.0411 132.401 97.8678 132.066C100.72 130.908 101.084 126.806 100.022 123.917C98.8784 120.807 95.6943 119.479 92.4222 120.002C90.8159 120.259 89.2641 120.372 87.8172 120.327Z" fill="#008037"/>
<path d="M66.5764 137.748C68.2674 136.202 69.1762 133.833 68.4671 131.655L68.2803 131.081C67.0556 127.319 62.5336 126.051 60.0572 129.137C58.2297 131.414 56.3775 134.242 55.205 137.404C54.4964 139.315 55.2396 141.067 57.217 141.561C59.6412 142.167 63.4643 141.137 65.103 139.25C65.5791 138.702 66.0834 138.198 66.5764 137.748Z" fill="#008037"/>
<path d="M118.93 103.976C119.078 103.222 118.523 101.947 117.761 101.835C116.822 101.697 116.719 102.503 116.417 103.4C114.595 108.804 109.554 113.284 103.727 116.248C100.836 117.718 98.7317 120.204 99.7446 123.297C100.843 126.653 105.147 128.107 107.676 125.664C115.605 118.006 118.245 107.462 118.93 103.976Z" fill="#C78976"/>
<path d="M120.758 101.907C120.094 102.857 118.043 103.956 117.33 103.058C117.19 102.881 117.003 102.412 116.982 102.187C116.876 101.035 116.536 98.2743 116.882 97.6877C118.249 95.3731 120.485 92.6532 121.843 91.0752C122.458 90.3609 123.16 91.3725 123.16 91.3725L123.045 91.5216C121.917 92.9772 121.996 94.8357 122.426 96.6119C122.624 97.4294 122.53 98.3115 122.193 99.0696C121.855 99.8304 121.393 100.82 120.953 101.597C120.89 101.708 120.825 101.811 120.758 101.907Z" fill="#C78976"/>
<path d="M120.558 96.9199C120.972 96.08 119.893 96.009 119.246 96.6879L118.979 96.9685C118.699 97.2628 118.494 97.6196 118.38 98.0085L118.15 98.7927C118.065 99.0852 118.126 99.3996 118.314 99.6358C118.828 100.279 119.88 99.9816 120.021 99.1649C120.182 98.235 120.379 97.2823 120.558 96.9199Z" fill="#C78976"/>
<path d="M79.052 148.887C78.5989 147.865 77.3369 147.472 76.3405 147.979C73.0249 149.665 66.1652 152.378 63.4397 147.672C63.4027 147.608 63.367 147.544 63.3327 147.48C62.2548 145.47 60.8315 142.688 58.6645 141.978C55.8618 141.06 53.7131 143.336 54.1514 146.253C54.361 147.647 54.7667 149.063 55.4106 150.489C60.8289 162.486 74.5057 153.873 78.5051 151.005C79.1769 150.523 79.387 149.643 79.052 148.887Z" fill="#C78976"/>
<path d="M75.9304 158.362L81.9471 133.503C82.0154 133.221 82.2189 133.015 82.4654 132.981C83.5555 132.831 86.7143 132.408 90.3614 132.043C94.7545 131.603 99.8563 131.247 102.905 131.55C103.338 131.593 103.6 132.136 103.407 132.597C101.674 136.747 94.5428 153.626 90.9717 159.155C90.8534 159.338 90.6704 159.445 90.4756 159.443L76.5157 159.29C76.1095 159.285 75.8186 158.824 75.9304 158.362Z" fill="black"/>
<path d="M81.8353 150.058C79.2515 148.066 76.3354 150.211 76.8547 146.99C76.8635 146.936 76.8736 146.884 76.8851 146.835C77.2231 145.388 77.8783 143.528 80.0617 143.941C81.796 144.27 83.7777 145.024 84.5196 145.32C84.701 145.393 84.8122 145.574 84.7658 145.764C84.699 146.037 84.554 146.421 84.2457 146.649C84.0246 146.812 83.7649 147.391 83.9677 147.577C84.0259 147.63 84.0559 147.707 84.0396 147.784C84.0098 147.926 83.9403 148.162 83.7881 148.344C83.5915 148.579 83.1769 149.232 83.3633 149.476C83.4278 149.56 83.4394 149.674 83.3806 149.762C83.1786 150.065 82.6365 150.675 81.8353 150.058Z" fill="#C78976"/>
<path d="M82.7007 140.584C82.6669 140.72 82.5239 140.797 82.392 140.751C82.2761 140.71 82.2102 140.588 82.2399 140.469L83.4124 135.763C83.6122 134.962 84.1585 134.361 84.8378 134.194C88.4178 133.31 97.3904 133.075 99.108 133.037C99.2617 133.033 99.3822 133.156 99.3842 133.31C99.3862 133.463 99.2661 133.589 99.1132 133.593C97.4241 133.631 88.4234 133.876 84.9337 134.737C84.4239 134.863 84.0135 135.316 83.8626 135.92L82.7007 140.584Z" fill="#4D4D4D"/>
<path d="M80.0267 110.172C78.4054 110.153 76.9675 111.209 76.4997 112.762L73.8642 121.507C73.8076 121.696 73.8715 121.906 74.0186 122.004C74.9224 122.609 78.1821 124.363 82.1508 121.449C82.5642 121.145 82.848 120.646 82.915 120.075L83.6014 114.237C83.8539 112.089 82.1893 110.196 80.0267 110.172Z" fill="#C78976"/>
<path d="M81.0596 101.197C83.4601 100.592 85.9735 101.942 86.6518 104.361C87.3831 106.97 88.0703 110.132 87.7055 111.838C87.1359 114.503 83.9814 114.522 80.7827 112.747C79.3872 111.972 78.5402 110.521 78.1701 108.973L77.6704 106.882C77.0637 104.343 78.5638 101.827 81.0596 101.197Z" fill="#C78976"/>
<path d="M79.2083 107.069C79.3745 107 79.4496 106.774 79.3653 106.591C79.3099 106.471 79.2443 106.323 79.1744 106.157C78.5968 104.782 78.8285 103.214 80.2727 102.948C82.643 102.512 86.1803 101.822 87.0691 99.55C87.9358 97.3349 86.4609 91.415 83.1696 95.7047C83.0444 95.868 82.8222 95.8506 82.7209 95.6655C82.2839 94.867 81.1067 93.1833 79.2597 93.9591C77.5312 94.685 77.2446 96.113 77.2177 96.8441C77.2098 97.0592 77.0364 97.2103 76.861 97.1532C76.0307 96.8822 74.0181 96.5254 72.9057 98.8911C71.9895 100.84 72.4169 102.033 72.8392 102.637C72.976 102.833 72.8902 103.126 72.6805 103.18C72.1125 103.328 71.359 103.816 71.3256 105.359C71.2795 107.492 73.2994 107.497 73.8774 107.454C73.9721 107.448 74.0639 107.495 74.1216 107.584C74.5677 108.272 76.5891 111.207 78.9559 111.764C79.1609 111.812 79.3378 111.586 79.2859 111.346L78.4949 107.691C78.4582 107.522 78.5374 107.347 78.6771 107.289L79.2083 107.069Z" fill="#1A1A1A"/>
<path d="M79.7162 107.908C79.6353 107.716 79.5166 107.542 79.3587 107.406C78.7373 106.869 77.0806 105.595 76.8287 107.018C76.6146 108.227 77.7197 109.096 78.8528 109.344C79.6483 109.517 80.0342 108.664 79.7162 107.908Z" fill="#C78976"/>
<path d="M65.948 182.67L61.4152 184.188L60.9678 184.356C60.4217 184.562 60.183 185.207 60.4666 185.71C60.6392 186.015 60.97 186.196 61.323 186.176L66.721 185.879C68.2839 185.793 68.8644 183.761 67.5724 182.899C67.2203 182.664 66.8221 182.555 66.4247 182.578C66.2647 182.587 66.1047 182.618 65.948 182.67Z" fill="#FFC09D"/>
<path d="M52.9089 245.236C51.0224 245.236 49.6539 245.141 48.6601 245.003C47.7944 244.883 47.1667 245.824 48.0407 245.824H61.5936C62.3603 245.824 61.6605 244.895 60.896 244.953C59.1128 245.088 56.3707 245.236 52.9089 245.236Z" fill="black"/>
<path d="M61.942 244.864C62.0981 244.85 62.2119 244.694 62.1255 244.564C61.0931 243.004 59.0192 240.555 56.1981 240.602C53.5873 240.646 52.0508 240.873 50.4635 240.892C48.7347 240.911 47.0826 241.928 46.6554 243.603C46.5167 244.148 46.9321 244.638 47.477 244.776C48.4636 245.026 50.1216 245.233 52.9163 245.233C57.1425 245.233 60.2963 245.012 61.942 244.864Z" fill="black"/>
<path d="M50.0561 237.803C49.1026 237.595 48.1568 238.183 47.9215 239.13L47.8272 239.509C47.5841 240.488 48.044 241.535 49.0408 241.684C49.3707 241.734 49.7308 241.754 50.1015 241.719C50.8679 241.646 51.3372 240.927 51.4213 240.162L51.4651 239.762C51.5658 238.845 50.9578 237.999 50.0561 237.803Z" fill="#FFC09D"/>
<path d="M27.2685 196.419C27.9986 195.414 29.1975 194.869 30.4328 195.001C36.1069 195.607 52.2292 197.484 56.0882 199.633C60.2271 201.938 54.1135 230.634 52.5819 237.508C52.3711 238.455 52.6887 238.948 51.7398 239.147C50.1782 239.474 48.2354 237.557 48.3875 235.969C48.8714 230.913 49.8208 219.831 49.6495 212.28C49.5555 208.139 46.3819 205.201 42.315 204.414L29.4393 201.922C26.92 201.435 25.7605 198.495 27.2685 196.419Z" fill="black"/>
<path d="M19.6585 194.653C16.6569 194.604 13.8825 196.524 13.915 199.526C13.9571 203.436 16.6143 206.609 19.9158 206.804L47.0301 208.267C47.6027 208.298 48.0872 208.767 48.2307 209.423C48.8678 212.339 51.9821 221.293 67.2059 239.16C67.6109 239.635 68.242 239.716 68.7242 239.356L70.8913 237.736C71.1188 237.566 71.1914 237.213 71.0555 236.938L55.2682 205.043C54.439 203.424 53.1061 202.255 51.5559 201.786L30.4493 195.403C29.1203 195.001 27.7418 194.786 26.3535 194.763L19.6585 194.653Z" fill="black"/>
<path d="M16.0925 184.895C14.6123 190.503 16.4295 195.852 22.2282 195.73C25.0504 195.671 29.2721 193.483 30.8005 191.109C31.4452 190.108 32.1879 188.963 32.9838 187.749C37.1417 181.406 46.5031 182.127 53.3098 185.472C55.3915 186.495 57.7753 187.313 60.4734 187.74C61.0545 187.832 61.6144 187.491 61.8225 186.941C62.0487 186.343 61.8041 185.668 61.2601 185.332C58.5638 183.667 50.9262 178.433 48.2353 171.108C44.9441 162.15 43.6222 158.329 40.628 155.991C38.7633 154.536 37.6467 153.541 37.0697 152.998C36.7537 152.701 36.3178 152.667 35.973 152.916C33.2065 154.91 21.5148 164.352 16.0925 184.895Z" fill="#008037"/>
<path d="M41.6109 174.8C41.4699 174.8 41.3306 174.725 41.2382 174.583C38.9071 170.987 37.6088 167.023 37.5547 166.856C37.4619 166.57 37.5827 166.249 37.8248 166.139C38.0673 166.029 38.3383 166.172 38.4314 166.458C38.4442 166.498 39.7379 170.443 41.9832 173.907C42.1409 174.15 42.1022 174.498 41.8963 174.686C41.8113 174.763 41.7107 174.8 41.6109 174.8Z" fill="#139B5A"/>
<path d="M76.3896 242.998C74.8222 244.449 73.6543 245.397 72.7844 246.012C72.0388 246.539 72.1901 247.628 72.8602 247.008L83.5353 237.13C84.0967 236.61 83.1131 236.344 82.5868 236.899C81.2547 238.304 79.1525 240.442 76.3896 242.998Z" fill="#4D4D4D"/>
<path d="M83.3429 236.089C83.4418 235.982 83.4337 235.802 83.2933 235.761C81.672 235.291 78.7691 234.883 76.5714 236.976C74.4479 238.998 73.3508 240.325 72.0394 241.537C70.7267 242.75 70.0521 244.579 70.6101 246.284C70.7717 246.777 71.3619 246.891 71.8117 246.636C72.7159 246.123 74.1412 245.076 76.3864 242.998C79.7506 239.885 82.1354 237.394 83.3429 236.089Z" fill="black"/>
<path d="M69.0981 237.355C68.2648 237.788 67.8554 239.035 68.2237 239.902C68.4148 240.352 68.6201 240.843 68.8142 241.312C69.3118 242.512 70.6915 243.237 71.6565 242.375C71.7508 242.291 71.8415 242.2 71.9266 242.104C72.4033 241.563 72.3037 240.774 72.0062 240.114L71.0735 238.046C70.7334 237.291 69.83 236.976 69.0981 237.355Z" fill="#FFC09D"/>
<path d="M66.7572 183.124L62.1695 184.39L61.7162 184.533C61.1624 184.709 60.8983 185.34 61.1618 185.857C61.3223 186.173 61.646 186.371 61.9997 186.371L67.4015 186.372C68.9672 186.372 69.628 184.375 68.3708 183.442C68.0283 183.188 67.6349 183.057 67.2371 183.058C67.0768 183.058 66.9158 183.08 66.7572 183.124Z" fill="#FFC09D"/>
<path d="M43.8483 147.226C42.6267 146.015 40.5559 146.362 39.7014 147.855C39.1052 148.897 38.3848 150.075 37.6043 151.184C36.6101 152.596 36.837 154.662 38.2783 155.614C39.8782 156.67 42.0835 155.787 42.8279 154.02C43.1389 153.282 43.5118 152.521 43.9498 151.82C44.815 150.436 45.0076 148.375 43.8483 147.226Z" fill="#FFC09D"/>
<path d="M38.3446 139.983C41.4673 135.801 48.8251 139.381 49.4631 144.609C49.8401 147.699 50.5555 149.656 47.5666 150.597C44.5777 151.538 41.8876 150.015 40.2724 147.065C40.2724 147.065 37.7476 142.524 38.0894 140.521C38.1192 140.346 38.2078 140.166 38.3446 139.983Z" fill="#FFC09D"/>
<path d="M41.1503 144.737C41.3362 144.718 41.4454 144.518 41.3675 144.346C40.9419 143.408 39.9214 140.87 41.0068 140.206C42.346 139.388 47.7502 137.488 48.7658 135.054C49.7449 132.708 48.5103 129.937 46.9232 129.291C46.8228 129.25 46.7129 129.316 46.6717 129.432L46.5662 129.728C46.494 129.931 46.2497 129.927 46.1825 129.722C46.1187 129.527 45.8878 129.507 45.8079 129.693C45.4958 130.422 44.5952 131.647 41.9985 132.498C38.314 133.706 35.9713 135.757 36.138 138.825C36.1486 139.02 35.9813 139.145 35.8338 139.058C35.5424 138.888 35.093 138.84 34.5454 139.49C33.5931 140.62 34.2111 143.23 36.6278 145.179C36.7426 145.271 36.7564 145.469 36.647 145.571C36.2617 145.928 35.7083 146.74 37.3611 147.574C39.0519 148.428 39.9992 148.217 40.3518 148.07C40.4467 148.031 40.5041 147.919 40.4892 147.802L40.1458 145.103C40.128 144.963 40.2134 144.835 40.3322 144.822L41.1503 144.737Z" fill="#A67C52"/>
<path d="M38.8258 142.814C37.8608 143.676 38.8095 145.422 39.8548 146.362C40.4415 146.889 41.1292 146.418 41.2411 145.644C41.274 145.416 41.2573 145.184 41.1796 144.966C40.9236 144.249 40.2504 142.615 39.4137 142.572C39.225 142.562 39.0282 142.633 38.8258 142.814Z" fill="#FFC09D"/>
<path d="M132.806 196.705C131.343 194.504 128.68 193.4 126.33 194.609C125.215 195.182 123.95 195.957 122.638 196.994C121.992 197.505 121.637 198.396 121.735 199.308C122.226 203.915 124.247 218.824 130.912 233.387C131.263 234.155 131.364 235.049 131.209 235.902L130.116 241.923C130.074 242.154 129.968 242.37 129.81 242.544C129.076 243.359 129.654 244.659 130.751 244.659H132.071C132.883 244.659 133.599 244.132 133.841 243.358L136.616 234.474C136.897 233.574 136.426 232.61 135.543 232.28C134.322 231.823 133.484 230.495 133.462 228.98L133.277 216.333C133.335 214.26 132.955 212.424 132.452 210.93C131.828 209.079 133.04 206.656 134.99 206.544C136.85 206.436 137.892 204.351 136.86 202.799L132.806 196.705Z" fill="#B7796A"/>
<path d="M125.741 245.801C125.443 246.262 127.392 246.811 129.654 246.829C132.679 246.854 134.893 244.46 136.01 241.648C137.034 239.069 138.13 235.839 138.286 233.505C138.308 233.179 138.447 233.158 138.262 232.889C137.455 231.713 135.401 233.276 135.166 234.683C134.654 237.749 133.683 242.742 132.675 243.518C132.491 243.66 132.289 243.768 132.075 243.849C129.935 244.658 126.983 243.879 125.741 245.801Z" fill="black"/>
<path d="M138.07 206.989C138.059 206.966 137.486 206.873 136.627 206.747C132.499 206.142 128.746 209.648 127.902 213.733C127.1 217.618 117.41 232.241 114.123 237.123C113.435 238.145 113.224 239.406 113.541 240.597C114.088 242.649 113.037 244.841 110.968 245.324C110.819 245.359 110.669 245.392 110.52 245.423C106.831 246.199 105.804 241.863 108.878 239.681C109.751 239.061 110.37 238.16 110.636 237.122C112.241 230.852 118.291 207.899 122.753 200.196C123.402 199.076 124.481 198.322 125.679 197.832C129.884 196.11 134.682 198.182 136.314 202.423L138.07 206.989Z" fill="#C78976"/>
<path d="M149.979 187.822C155.679 187.374 161.218 190.268 163.447 195.533C164.329 197.617 165.043 199.673 165.193 201.142C165.64 205.518 163.699 207.296 157.979 207.59C154.141 207.786 146.005 207.849 141.065 207.869C138.452 207.879 135.953 206.833 134.116 204.975L133.114 203.962C128.726 199.525 130.251 192.159 135.921 189.556C137.264 188.939 144.06 188.288 149.979 187.822Z" fill="black"/>
<path d="M111.579 243.321C113.006 242.867 114.486 242.618 114.764 244.09C114.94 245.023 113.92 246.253 112.988 246.43C109.824 247.031 102.392 248.311 99.2558 247.719C98.9188 247.655 98.7692 247.306 98.9601 247.021C99.4172 246.339 100.491 245.089 102.827 243.709C102.87 243.684 102.912 243.74 102.875 243.774C102.52 244.096 102.728 244.767 103.175 244.737C105.11 244.607 108.647 244.253 111.579 243.321Z" fill="black"/>
<path d="M138.468 125.5C149.77 125.781 153.212 137.511 152.475 139.644C152.378 139.927 152.572 140.23 152.83 140.207C154.151 140.092 157.009 140.217 158.316 143.158C159.471 145.755 157.991 147.623 156.876 148.58C156.607 148.811 156.721 149.311 157.053 149.336C159.419 149.515 164.452 150.571 164.372 156.321C164.298 161.683 161.008 162.454 159.131 162.456C158.813 162.456 158.665 162.916 158.896 163.173C159.689 164.056 160.509 165.694 159.638 168.362C158.273 172.545 151.151 170.562 150.321 170.315C150.269 170.299 150.221 170.27 150.18 170.228L139.937 159.861C139.857 159.78 139.812 159.661 139.814 159.537L140.063 143.147C140.066 142.917 140.155 142.668 140.071 142.449L136.883 134.162C135.523 130.627 134.631 126.749 138.037 125.628C138.286 125.545 138.447 125.499 138.468 125.5Z" fill="#534741"/>
<path d="M133.565 183.146C131.541 182.182 130.999 179.552 132.477 177.867C133.49 176.712 135.154 176.385 136.528 177.072L140.014 178.814C140.436 179.025 140.875 179.201 141.329 179.333C143.163 179.87 148.182 181.285 149.823 181.183C151.267 181.094 152.997 180.321 153.866 179.888C154.242 179.701 154.622 179.522 155.016 179.377L158.459 178.109C160.774 177.256 163.329 178.534 164.036 180.898C164.368 182.006 164.035 183.235 163.225 183.916C162.506 184.52 161.664 185.184 161.127 185.462C160.131 185.977 138.591 183.869 134.744 183.487C134.352 183.448 133.977 183.342 133.621 183.173L133.565 183.146Z" fill="#B47562"/>
<path d="M149.322 185.31C146.332 185.675 143.348 184.554 141.415 182.244C139.36 179.789 136.751 176.548 135.073 174.004C133.384 171.443 132.853 168.072 133.634 164.958C135.061 159.271 137.597 153.381 137.828 152.464C137.959 151.945 139.012 151.626 140.289 151.43C143.512 150.934 146.711 152.178 149.028 154.473C153.169 158.574 159.789 166.296 163.732 176.887C164.395 178.668 163.422 180.606 161.638 181.263C159.925 181.894 158.01 181.142 157.127 179.544C155.727 177.01 153.536 173.273 151.361 170.495C151.361 170.495 153.081 173.184 154.749 176.318C157.016 180.579 154.112 184.724 149.322 185.31Z" fill="#008037"/>
<path d="M137.821 142.961C137.199 143.452 136.871 144.238 136.945 145.065C137.148 147.319 137.548 151.664 137.638 151.8C137.699 151.893 138.731 152.232 139.999 152.399C142.189 152.687 143.253 150.511 142.71 148.306L141.776 144.507C141.329 142.691 139.21 141.863 137.821 142.961Z" fill="#C78976"/>
<path d="M130.996 132.891C130.996 132.891 129.45 136.791 130.997 142.859C132.543 148.927 135.306 149.547 137.102 148.125C138.898 146.702 141.245 144.129 141.666 138.698C142.088 133.266 133.115 127.965 130.996 132.891Z" fill="#C78976"/>
<path d="M138.503 138.143C138.363 138.186 138.21 138.108 138.153 137.964C137.629 136.641 135.013 130.799 130.963 134.584C130.762 134.771 130.63 135.031 130.575 135.308C130.401 136.193 129.497 136.663 128.789 136.065C127.696 135.142 126.538 133.445 127.465 130.684C129.024 126.037 133.356 123.894 137.965 127.106C142.575 130.317 145.063 133.103 144.703 137.37C144.672 137.73 144.626 138.049 144.565 138.331C144.022 140.866 142.348 137.452 139.97 136.312C138.931 135.813 138.727 137.35 138.688 137.9C138.68 138.014 138.609 138.11 138.503 138.143Z" fill="#534741"/>
<path d="M139.554 138.568C139.391 138.43 139.268 138.251 139.207 138.047C138.914 137.071 138.184 134.119 140.055 134.06C141.732 134.006 141.586 136.308 141.203 138.101C141.042 138.856 140.157 139.085 139.554 138.568Z" fill="#C78976"/>
<path d="M135.651 186.708C133.627 185.745 133.085 183.114 134.563 181.429C135.576 180.274 137.24 179.948 138.614 180.634L142.1 182.377C142.522 182.588 142.961 182.763 143.415 182.896C145.249 183.433 150.268 184.847 151.909 184.746C153.353 184.656 155.083 183.884 155.952 183.45C156.328 183.263 156.708 183.085 157.102 182.94L160.545 181.672C162.86 180.819 165.415 182.096 166.122 184.46C166.453 185.568 166.121 186.798 165.311 187.478C164.592 188.082 163.75 188.746 163.213 189.024C162.217 189.54 140.677 187.431 136.83 187.05C136.438 187.011 136.063 186.905 135.707 186.735L135.651 186.708Z" fill="#C78976"/>
<path d="M178.982 241.618C179.74 242.108 180.254 242.899 180.352 243.797C180.432 244.518 180.519 245.457 180.57 246.469C180.618 247.413 180.027 248.233 179.232 248.324C176.462 248.642 170.158 249.229 166.132 248.541C165.568 248.445 165.399 247.738 165.761 247.166C167.199 245.42 170.957 242.183 176.901 241.163C177.626 241.038 178.365 241.218 178.982 241.618Z" fill="black"/>
<path d="M180.011 237.437C180.891 237.859 181.315 238.873 180.997 239.795L180.154 242.238C179.962 242.794 179.485 243.14 178.98 243.077C178.637 243.035 178.231 242.957 177.836 242.815C177.046 242.531 176.6 241.54 176.837 240.604L177.318 238.698C177.616 237.522 178.916 236.912 180.011 237.437Z" fill="#FFC09D"/>
<path d="M209.324 249.854C208.21 246.044 203.494 247.121 201.932 250.77C201.763 251.164 201.61 251.573 201.482 251.992C201.181 252.972 201.816 254.003 202.697 254.003H208.467C209.312 254.003 209.959 253.104 209.812 252.12C209.711 251.443 209.557 250.649 209.324 249.854Z" fill="black"/>
<path d="M206.758 241.799C207.886 241.932 208.665 242.994 208.442 244.108C208.258 245.029 208.038 246.099 207.845 246.971C207.766 247.327 207.445 247.522 207.152 247.398C206.279 247.029 205.568 246.865 205.052 246.947C204.813 246.985 204.604 246.75 204.601 246.465L204.571 243.765C204.558 242.585 205.585 241.661 206.758 241.799Z" fill="#FFC09D"/>
<path d="M199.647 172.853C196.077 174.379 193.395 177.448 192.362 181.192L177.756 234.091C177.298 235.746 177.47 237.261 178.94 238.148C180.325 238.983 182.217 238.307 182.829 236.81L186.194 228.568C190.391 218.289 204.404 220.493 204.253 231.595C204.219 234.174 204.137 236.722 203.999 239.188C203.906 240.853 205.135 242.307 206.796 242.457C208.379 242.6 209.799 241.524 210.044 239.954C211.468 230.808 215.756 200.902 214.323 180.704C213.808 173.438 206.345 169.989 199.647 172.853Z" fill="black"/>
<path d="M201.913 189.254C201.92 189.254 201.927 189.254 201.934 189.253C202.024 189.239 202.088 189.141 202.077 189.034L201.415 182.819C201.404 182.712 201.322 182.638 201.231 182.65C201.14 182.663 201.076 182.761 201.087 182.868L201.749 189.083C201.76 189.182 201.831 189.254 201.913 189.254Z" fill="black"/>
<path d="M190.793 120.828C190.793 120.828 200.833 121.883 202.586 129.409C203.259 132.295 203.305 135.361 204.393 138.118C206.861 144.371 211.363 156.926 213.866 170.968C213.982 171.62 213.613 172.256 213.058 172.368L190.046 177.03C189.411 177.158 188.799 176.69 188.638 175.952L185.202 160.244C184.76 158.22 181.852 158.285 181.5 160.327C181.307 161.448 180.173 162.144 179.086 161.809L177.281 161.253C175.589 160.731 174.54 159.041 174.825 157.293L179.92 126.055C179.92 126.055 180.719 121.043 190.793 120.828Z" fill="#B0B0B0"/>
<path d="M183.027 149.685C183.039 149.685 183.051 149.684 183.064 149.681C183.156 149.657 183.215 149.549 183.195 149.439L181.276 139.019C181.256 138.91 181.166 138.841 181.072 138.864C180.98 138.888 180.921 138.996 180.941 139.105L182.86 149.526C182.877 149.62 182.948 149.685 183.027 149.685Z" fill="#939393"/>
<path d="M184.417 180.696C185.142 180.225 185.991 180.094 186.794 180.331L188.395 180.802C188.735 180.903 189.072 180.625 189.111 180.213L190.452 166.094C190.601 164.528 192.892 163.616 194.461 163.725C195.895 163.824 196.555 165.102 196.293 166.515L193.53 181.423C193.223 183.075 191.782 184.274 190.101 184.274H185.612C183.702 184.274 182.891 181.844 184.417 180.696Z" fill="#FFC09D"/>
<path d="M150.977 142.977C150.108 142.9 149.54 142.052 149.755 141.206C149.987 140.294 150.557 139.556 151.305 139.2L156.295 136.826C157.725 136.145 158.5 134.527 157.058 133.87C155.522 133.17 157.327 131.775 158.796 132.608C159.588 133.057 160.47 133.563 161.352 134.079C162.419 134.702 163.392 135.892 164.079 137.03C164.683 138.03 165.196 139.088 165.854 140.053L179.729 160.377C180.526 161.544 180.295 163.128 179.198 164.02C176.646 166.094 173.136 165.075 171.686 161.839L165.469 147.323C164.073 144.062 160.375 142.543 156.849 142.931C154.9 143.146 152.942 143.152 150.977 142.977Z" fill="#FFC09D"/>
<path d="M195.468 163.97C196.412 163.97 197.085 163.885 197.158 163.876C197.231 163.866 197.289 163.81 197.302 163.738L202.312 136.105C202.332 135.995 202.273 135.888 202.18 135.864C202.087 135.84 201.997 135.91 201.977 136.02L197.717 159.514C197.291 161.868 195.92 163.762 193.552 163.427C191.64 163.157 190.351 160.936 190.694 159.037L194.102 140.183C194.36 138.758 194.181 137.289 193.588 135.967C193.544 135.868 193.44 135.831 193.356 135.883C193.272 135.936 193.241 136.058 193.285 136.157C193.84 137.394 194.008 138.769 193.767 140.103L189.779 162.164C189.766 162.236 189.791 162.309 189.845 162.357C191.37 163.713 193.827 163.97 195.468 163.97Z" fill="#939393"/>
<path d="M183.188 113.39C184.38 109.899 187.169 111.593 188.16 115.164L189.464 119.865C190.131 122.27 190.052 124.534 187.796 125.566C185.983 126.396 183.721 124.761 183.251 122.812L182.634 120.261C182.238 118.619 182.176 116.91 182.614 115.286C182.775 114.689 182.968 114.036 183.188 113.39Z" fill="#FFC09D"/>
<path d="M174.048 104.15C174.045 104.288 175.585 109.865 176.703 113.895C177.304 116.063 179.671 117.217 181.734 116.354C183.285 115.705 184.195 114.089 183.951 112.418L183.365 108.407C182.786 104.445 179.403 100.59 175.711 102.091C174.749 102.481 174.07 103.122 174.048 104.15Z" fill="#FFC09D"/>
<path d="M179.53 98.7075C179.283 99.1053 178.836 99.2231 178.46 99.0103C178.246 98.8891 177.985 98.876 177.698 99.1478C177.311 99.5139 176.737 99.3812 176.469 98.8878C175.954 97.9399 175.003 96.9804 173.344 97.5594C170.401 98.587 170.453 102.573 171.475 104.771C172.498 106.968 175.636 105.639 177.138 104.25C178.28 103.194 179.968 103.899 180.712 104.297C180.947 104.423 181.119 104.67 181.183 104.967L182.696 111.997C182.715 112.087 182.724 112.177 182.722 112.27C182.71 112.84 182.548 114.794 180.868 114.476C179.343 114.188 177.948 113.951 177.047 114.419C176.643 114.63 176.439 115.168 176.578 115.664C176.923 116.901 177.745 119.672 178.769 121.95C178.976 122.412 179.45 122.604 179.858 122.4C181.086 121.784 183.644 120.399 185.482 118.715C185.731 118.487 185.857 118.119 185.807 117.751C185.563 115.957 184.839 110.502 184.836 108.945C184.833 107.483 186.243 106.411 186.862 106.01C187.064 105.879 187.212 105.657 187.272 105.393C187.484 104.458 187.693 102.336 185.409 101.797C184.931 101.684 184.63 101.13 184.74 100.569C184.959 99.4503 184.933 97.7938 183.142 97.1289C182.815 97.0077 182.509 96.9491 182.223 96.9403C180.915 96.9 180.029 97.9005 179.53 98.7075Z" fill="#7F7F7F"/>
<path d="M184.891 106.411C184.728 106.576 184.619 106.794 184.554 107.047C183.824 109.857 187.759 111.419 187.872 108.512C187.948 106.589 187.193 105.785 186.333 105.759C185.842 105.744 185.316 105.983 184.891 106.411Z" fill="#7F7F7F"/>
<path d="M12.7577 210.607C11.9422 210.383 11.2001 210.786 11.064 211.62C10.1474 217.243 8.13335 237.903 7.78246 246.161C7.75545 246.796 8.18476 247.325 8.7221 247.325C9.18559 247.325 9.57991 246.926 9.65138 246.384L14.1028 212.635C14.2237 211.718 13.6495 210.853 12.7577 210.607Z" fill="#CCCCCC"/>
<path d="M30.478 210.607C31.2934 210.383 32.0356 210.786 32.1716 211.62C33.0883 217.243 35.1023 237.903 35.4532 246.161C35.4802 246.796 35.051 247.325 34.5135 247.325C34.0501 247.325 33.6558 246.926 33.5843 246.384L29.1329 212.635C29.012 211.718 29.5862 210.853 30.478 210.607Z" fill="#CCCCCC"/>
<path d="M7.51797 208.239L7.51575 208.516C7.50036 210.51 8.95262 212.146 10.7711 212.183L32.3221 212.617C34.1144 212.653 35.6083 211.12 35.6952 209.157L35.7066 208.903C35.7972 206.855 34.3274 205.13 32.4583 205.091L10.8981 204.634C9.05288 204.594 7.53358 206.215 7.51797 208.239Z" fill="#534741"/>
<path d="M56.4507 188.917C56.4685 188.918 56.4863 188.918 56.5042 188.918L79.7845 188.891C80.3599 188.89 80.8259 188.339 80.8253 187.659C80.8247 186.979 80.3559 186.418 79.782 186.43L56.5017 186.457C55.9263 186.458 55.4603 187.009 55.4609 187.689C55.4616 188.347 55.9002 188.885 56.4507 188.917Z" fill="black"/>
<path d="M88.7991 161.947C88.7908 161.966 88.7828 161.985 88.7754 162.004L78.9801 186.99C78.7377 187.608 78.9639 188.34 79.4851 188.626C80.0064 188.912 80.6345 188.646 80.8673 188.025L90.6626 163.039C90.9048 162.422 90.6786 161.689 90.1575 161.403C89.6526 161.126 89.056 161.37 88.7991 161.947Z" fill="black"/>
<path d="M149.762 244.24C149.762 244.918 149.212 245.468 148.533 245.468C147.855 245.468 147.305 244.918 147.305 244.24V215.26C147.305 214.581 147.855 214.031 148.533 214.031C149.212 214.031 149.762 214.581 149.762 215.26V244.24Z" fill="#CCCCCC"/>
<path d="M157.695 244.18C159.212 244.18 158.064 246.072 156.547 246.072H140.521C139.003 246.072 137.856 244.18 139.373 244.18H157.695Z" fill="#CCCCCC"/>
<path d="M162.488 212.937C162.488 214.657 161.299 216.063 159.845 216.063H138.072C136.619 216.063 135.43 214.657 135.43 212.937V210.11C135.43 208.391 136.619 206.984 138.072 206.984H159.845C161.299 206.984 162.488 208.391 162.488 210.11V212.937Z" fill="#534741"/>
<path d="M149.268 188.93C149.247 188.932 149.227 188.932 149.206 188.932L122.147 188.897C121.478 188.897 120.937 188.254 120.938 187.463C120.938 186.671 121.483 186.017 122.15 186.031L149.209 186.066C149.877 186.067 150.419 186.709 150.418 187.501C150.418 188.267 149.908 188.893 149.268 188.93Z" fill="black"/>
<path d="M97.8248 159.867H120.359C122.022 159.867 123.535 161.002 124.244 162.781L126.468 168.361C130.395 178.212 123.139 188.916 112.534 188.916H106.657C105.586 188.916 104.623 188.141 104.23 186.962L96.1511 162.779C95.6844 161.382 96.5548 159.867 97.8248 159.867Z" fill="black"/>
<path d="M113.699 173.264C114.188 175.059 113.827 176.802 112.893 177.158C111.96 177.513 110.808 176.346 110.319 174.551C109.831 172.756 110.192 171.013 111.125 170.657C112.058 170.302 113.211 171.469 113.699 173.264Z" fill="#4D4D4D"/>
<path d="M44.6265 248.584C44.5109 248.584 44.3935 248.554 44.2805 248.491C43.8357 248.244 43.6303 247.578 43.8216 247.004L62.2081 191.81C62.3993 191.236 62.9147 190.971 63.3599 191.217C63.8047 191.464 64.0101 192.13 63.8187 192.705L45.4323 247.898C45.2896 248.327 44.9662 248.584 44.6265 248.584Z" fill="#CCCCCC"/>
<path d="M65.342 248.584C65.0022 248.584 64.6788 248.327 64.5362 247.899L46.1497 192.705C45.9584 192.13 46.1638 191.465 46.6086 191.217C47.0531 190.97 47.5689 191.235 47.7604 191.81L66.1469 247.004C66.3382 247.578 66.1327 248.244 65.688 248.491C65.5751 248.554 65.4575 248.584 65.342 248.584Z" fill="#CCCCCC"/>
<path d="M169.408 248.584C169.292 248.584 169.175 248.554 169.062 248.491C168.617 248.244 168.411 247.578 168.603 247.004L186.989 191.81C187.181 191.236 187.696 190.971 188.141 191.217C188.586 191.464 188.791 192.13 188.6 192.705L170.214 247.898C170.071 248.327 169.748 248.584 169.408 248.584Z" fill="#CCCCCC"/>
<path d="M190.123 248.584C189.783 248.584 189.46 248.327 189.317 247.899L170.931 192.705C170.74 192.13 170.945 191.465 171.39 191.217C171.834 190.97 172.35 191.235 172.542 191.81L190.928 247.004C191.119 247.578 190.914 248.244 190.469 248.491C190.356 248.554 190.239 248.584 190.123 248.584Z" fill="#CCCCCC"/>
<path d="M166.742 187.908L191.747 187.908C192.644 187.908 193.372 187.18 193.372 186.282C193.372 185.384 192.644 184.656 191.747 184.656H166.742C167.312 184.656 167.312 187.908 166.742 187.908Z" fill="#91B3FA"/>
<path d="M166.181 183.927C166.043 183.927 165.93 184.06 165.93 184.223V184.366C165.93 184.529 166.043 184.662 166.181 184.662H193.123C193.26 184.662 193.373 184.795 193.373 184.958V187.618C193.373 187.78 193.26 187.913 193.123 187.913H166.181C166.043 187.913 165.93 188.046 165.93 188.209V188.353C165.93 188.515 166.043 188.649 166.181 188.649H194.963C195.562 188.649 196.048 188.074 196.048 187.366V185.288C196.048 184.536 195.533 183.927 194.897 183.927H166.181ZM191.278 182.583C194.476 183.484 196.44 186.697 195.785 189.954C195.055 193.582 191.393 195.821 187.831 194.818L170.701 189.992C167.502 189.091 165.538 185.879 166.193 182.621C166.923 178.994 170.585 176.755 174.147 177.758L191.278 182.583Z" fill="#7F7F7F"/>
<path d="M197.236 190.099C197.325 189.736 197.203 189.36 196.904 189.075C196.604 188.79 196.157 188.625 195.686 188.625H36.1208C35.5014 188.625 34.9246 188.873 34.5909 189.282C34.2571 189.692 34.2123 190.207 34.4721 190.648L36.2013 193.585C36.5972 194.258 37.4552 194.688 38.3992 194.688H194.591C195.47 194.688 196.224 194.2 196.391 193.523L197.236 190.099Z" fill="#736357"/>
</svg>
