<svg width="40" height="40" viewBox="0 0 40 40" fill="none" xmlns="http://www.w3.org/2000/svg">
<path d="M10 0C8.625 0 7.5 1.125 7.5 2.5V37.5C7.5 38.875 8.625 40 10 40H35C36.375 40 37.5 38.875 37.5 37.5V10L27.5 0H10Z" fill="#E2E5E7"/>
<path d="M30 10H37.5L27.5 0V7.5C27.5 8.875 28.625 10 30 10Z" fill="#B0B7BD"/>
<path d="M37.5 17.5L30 10H37.5V17.5Z" fill="#CAD1D8"/>
<path d="M32.5 32.5C32.5 33.1875 31.9375 33.75 31.25 33.75H3.75C3.0625 33.75 2.5 33.1875 2.5 32.5V20C2.5 19.3125 3.0625 18.75 3.75 18.75H31.25C31.9375 18.75 32.5 19.3125 32.5 20V32.5Z" fill="#F15642"/>
<path d="M7.94531 23.6822C7.94531 23.3522 8.20531 22.9922 8.62406 22.9922H10.9328C12.2328 22.9922 13.4028 23.8622 13.4028 25.5297C13.4028 27.1097 12.2328 27.9897 10.9328 27.9897H9.26406V29.3097C9.26406 29.7497 8.98406 29.9984 8.62406 29.9984C8.29406 29.9984 7.94531 29.7497 7.94531 29.3097V23.6822ZM9.26406 24.2509V26.7409H10.9328C11.6028 26.7409 12.1328 26.1497 12.1328 25.5297C12.1328 24.8309 11.6028 24.2509 10.9328 24.2509H9.26406Z" fill="white"/>
<path d="M15.3619 29.9983C15.0319 29.9983 14.6719 29.8183 14.6719 29.3795V23.702C14.6719 23.3433 15.0319 23.082 15.3619 23.082H17.6506C22.2181 23.082 22.1181 29.9983 17.7406 29.9983H15.3619ZM15.9919 24.302V28.7795H17.6506C20.3494 28.7795 20.4694 24.302 17.6506 24.302H15.9919Z" fill="white"/>
<path d="M23.7372 24.3833V25.972H26.2859C26.6459 25.972 27.0059 26.332 27.0059 26.6808C27.0059 27.0108 26.6459 27.2808 26.2859 27.2808H23.7372V29.3795C23.7372 29.7295 23.4884 29.9983 23.1384 29.9983C22.6984 29.9983 22.4297 29.7295 22.4297 29.3795V23.702C22.4297 23.3433 22.6997 23.082 23.1384 23.082H26.6472C27.0872 23.082 27.3472 23.3433 27.3472 23.702C27.3472 24.022 27.0872 24.382 26.6472 24.382H23.7372V24.3833Z" fill="white"/>
<path d="M31.25 33.75H7.5V35H31.25C31.9375 35 32.5 34.4375 32.5 33.75V32.5C32.5 33.1875 31.9375 33.75 31.25 33.75Z" fill="#CAD1D8"/>
</svg>
