<svg width="25" height="22" viewBox="0 0 25 22" fill="none" xmlns="http://www.w3.org/2000/svg">
<path d="M23.6811 10.6591H8.60938M23.6811 19.1854H8.60938M23.6811 2.13281H8.60938" stroke="#008037" stroke-width="1.14286" stroke-linecap="round" stroke-linejoin="round"/>
<path d="M2.15137 17.624C2.50572 17.6242 2.90668 17.8054 3.22949 18.125C3.55264 18.445 3.73242 18.8396 3.73242 19.1846C3.7323 19.5294 3.55245 19.9233 3.22949 20.2432C2.90668 20.5628 2.50572 20.744 2.15137 20.7441C1.79711 20.7441 1.39653 20.5636 1.07422 20.2441C0.751641 19.9244 0.571414 19.5299 0.571289 19.1846C0.571289 18.8392 0.751616 18.4449 1.07422 18.125C1.39656 17.8055 1.79703 17.624 2.15137 17.624ZM2.15137 9.09766C2.50572 9.0978 2.90668 9.27905 3.22949 9.59863C3.55266 9.91866 3.73242 10.3133 3.73242 10.6582C3.73231 11.003 3.55245 11.3969 3.22949 11.7168C2.90668 12.0364 2.50572 12.2176 2.15137 12.2178C1.7971 12.2178 1.39653 12.0372 1.07422 11.7178C0.751625 11.398 0.571396 11.0035 0.571289 10.6582C0.571289 10.3129 0.7516 9.9185 1.07422 9.59863C1.39656 9.27909 1.79703 9.09766 2.15137 9.09766ZM2.15137 0.571289C2.50572 0.571429 2.90668 0.752679 3.22949 1.07227C3.55268 1.3923 3.73242 1.78689 3.73242 2.13184C3.73233 2.47678 3.55271 2.87142 3.22949 3.19141C2.90669 3.51095 2.50569 3.69127 2.15137 3.69141C1.79709 3.69141 1.39653 3.51085 1.07422 3.19141C0.751609 2.8716 0.571378 2.47716 0.571289 2.13184C0.571289 1.78648 0.751584 1.39214 1.07422 1.07227C1.39656 0.752718 1.79703 0.571289 2.15137 0.571289Z" fill="#008037" stroke="#008037" stroke-width="1.14286"/>
</svg>
