<svg width="17" height="17" viewBox="0 0 17 17" fill="none" xmlns="http://www.w3.org/2000/svg">
<path d="M16.2068 2.79492H1.48438" stroke="white" stroke-width="0.4" stroke-miterlimit="10" stroke-linecap="round" stroke-linejoin="round"/>
<path d="M13.306 5.54492H1.48438" stroke="white" stroke-width="0.4" stroke-miterlimit="10" stroke-linecap="round" stroke-linejoin="round"/>
<path d="M16.2039 5.54492H14.4297" stroke="white" stroke-width="0.4" stroke-miterlimit="10" stroke-linecap="round" stroke-linejoin="round"/>
<path d="M16.2068 8.29492H1.48438" stroke="white" stroke-width="0.4" stroke-miterlimit="10" stroke-linecap="round" stroke-linejoin="round"/>
<path d="M16.2049 11.0449H6.90625" stroke="white" stroke-width="0.4" stroke-miterlimit="10" stroke-linecap="round" stroke-linejoin="round"/>
<path d="M1.48438 9.2151V0.811932C1.48438 0.473543 1.75319 0.199219 2.08478 0.199219H15.6064C15.938 0.199219 16.2068 0.473543 16.2068 0.811932V13.1828C16.2068 13.5211 15.938 13.7955 15.6064 13.7955H6.614" stroke="white" stroke-width="0.4" stroke-miterlimit="10" stroke-linecap="round" stroke-linejoin="round"/>
<path d="M6.32752 11.5429H0.779962C0.461378 11.5429 0.203125 11.2793 0.203125 10.9542V9.80351C0.203125 9.47839 0.461378 9.21484 0.779962 9.21484H6.32752C6.6461 9.21484 6.90435 9.47839 6.90435 9.80351V10.9542C6.90439 11.2793 6.6461 11.5429 6.32752 11.5429Z" stroke="white" stroke-width="0.4" stroke-miterlimit="10" stroke-linecap="round" stroke-linejoin="round"/>
<path d="M2.63918 13.8713H6.32755C6.64626 13.8713 6.90445 13.6075 6.90445 13.2825V12.1317C6.90445 11.8068 6.64626 11.543 6.32755 11.543H0.780026C0.461314 11.543 0.203125 11.8068 0.203125 12.1317V13.2825C0.203125 13.6075 0.461314 13.8713 0.780026 13.8713H1.52272" stroke="white" stroke-width="0.4" stroke-miterlimit="10" stroke-linecap="round" stroke-linejoin="round"/>
<path d="M6.32752 13.8711C6.6461 13.8711 6.90435 14.1346 6.90435 14.4598V15.6105C6.90435 15.9356 6.6461 16.1991 6.32752 16.1991H0.779962C0.461378 16.1991 0.203125 15.9356 0.203125 15.6105V14.4598C0.203125 14.1346 0.461378 13.8711 0.779962 13.8711" stroke="white" stroke-width="0.4" stroke-miterlimit="10" stroke-linecap="round" stroke-linejoin="round"/>
<path d="M1.48122 10.8689C1.747 10.8689 1.96245 10.649 1.96245 10.3778C1.96245 10.1066 1.747 9.88672 1.48122 9.88672C1.21545 9.88672 1 10.1066 1 10.3778C1 10.649 1.21545 10.8689 1.48122 10.8689Z" stroke="white" stroke-width="0.4" stroke-miterlimit="10" stroke-linecap="round" stroke-linejoin="round"/>
<path d="M3.07497 10.8689C3.34075 10.8689 3.5562 10.649 3.5562 10.3778C3.5562 10.1066 3.34075 9.88672 3.07497 9.88672C2.8092 9.88672 2.59375 10.1066 2.59375 10.3778C2.59375 10.649 2.8092 10.8689 3.07497 10.8689Z" stroke="white" stroke-width="0.4" stroke-miterlimit="10" stroke-linecap="round" stroke-linejoin="round"/>
<path d="M1.48122 13.197C1.747 13.197 1.96245 12.9772 1.96245 12.7059C1.96245 12.4347 1.747 12.2148 1.48122 12.2148C1.21545 12.2148 1 12.4347 1 12.7059C1 12.9772 1.21545 13.197 1.48122 13.197Z" stroke="white" stroke-width="0.4" stroke-miterlimit="10" stroke-linecap="round" stroke-linejoin="round"/>
<path d="M3.07497 13.197C3.34075 13.197 3.5562 12.9772 3.5562 12.7059C3.5562 12.4347 3.34075 12.2148 3.07497 12.2148C2.8092 12.2148 2.59375 12.4347 2.59375 12.7059C2.59375 12.9772 2.8092 13.197 3.07497 13.197Z" stroke="white" stroke-width="0.4" stroke-miterlimit="10" stroke-linecap="round" stroke-linejoin="round"/>
<path d="M1.48122 15.5251C1.747 15.5251 1.96245 15.3053 1.96245 15.0341C1.96245 14.7628 1.747 14.543 1.48122 14.543C1.21545 14.543 1 14.7628 1 15.0341C1 15.3053 1.21545 15.5251 1.48122 15.5251Z" stroke="white" stroke-width="0.4" stroke-miterlimit="10" stroke-linecap="round" stroke-linejoin="round"/>
<path d="M3.07497 15.5251C3.34075 15.5251 3.5562 15.3053 3.5562 15.0341C3.5562 14.7628 3.34075 14.543 3.07497 14.543C2.8092 14.543 2.59375 14.7628 2.59375 15.0341C2.59375 15.3053 2.8092 15.5251 3.07497 15.5251Z" stroke="white" stroke-width="0.4" stroke-miterlimit="10" stroke-linecap="round" stroke-linejoin="round"/>
<path d="M4.52344 12.707H6.03278" stroke="white" stroke-width="0.4" stroke-miterlimit="10" stroke-linecap="round" stroke-linejoin="round"/>
<path d="M4.52344 15.0352H6.03278" stroke="white" stroke-width="0.4" stroke-miterlimit="10" stroke-linecap="round" stroke-linejoin="round"/>
<path d="M4.52344 10.3789H6.03278" stroke="white" stroke-width="0.4" stroke-miterlimit="10" stroke-linecap="round" stroke-linejoin="round"/>
<path d="M8.84375 0.199219V13.7954" stroke="white" stroke-width="0.4" stroke-miterlimit="10" stroke-linecap="round" stroke-linejoin="round"/>
<path d="M2.875 1.46484H4.06257" stroke="white" stroke-width="0.4" stroke-miterlimit="10" stroke-linecap="round" stroke-linejoin="round"/>
<path d="M9.91406 1.46484H11.1016" stroke="white" stroke-width="0.4" stroke-miterlimit="10" stroke-linecap="round" stroke-linejoin="round"/>
<path d="M11.9531 1.46484H13.1407" stroke="white" stroke-width="0.4" stroke-miterlimit="10" stroke-linecap="round" stroke-linejoin="round"/>
<path d="M14.0156 1.46484H15.2032" stroke="white" stroke-width="0.4" stroke-miterlimit="10" stroke-linecap="round" stroke-linejoin="round"/>
<path d="M5.03125 1.46484H7.51692" stroke="white" stroke-width="0.4" stroke-miterlimit="10" stroke-linecap="round" stroke-linejoin="round"/>
<path d="M4.75 3.50391H5.03468V4.86301" stroke="white" stroke-width="0.4" stroke-miterlimit="10" stroke-linecap="round" stroke-linejoin="round"/>
<path d="M5.39572 7.63846C5.39572 7.63846 4.74773 7.64677 4.71705 7.63632C4.68637 7.62587 4.76628 7.57071 5.1911 6.95126C5.27045 6.83559 5.31411 6.73798 5.33268 6.65621L5.33925 6.60364C5.33925 6.41158 5.18669 6.25586 4.99845 6.25586C4.83285 6.25586 4.69484 6.3764 4.66406 6.53623" stroke="white" stroke-width="0.4" stroke-miterlimit="10" stroke-linecap="round" stroke-linejoin="round"/>
</svg>
