<svg width="100" height="100" viewBox="0 0 100 100" fill="none" xmlns="http://www.w3.org/2000/svg">
<g clip-path="url(#clip0_322_2323)">
<path d="M74.9961 78.5692C73.2462 78.5692 71.8713 76.9978 71.8713 74.9978C71.8713 72.9978 73.2462 71.4263 74.9961 71.4263C85.3081 71.4263 93.7451 61.7835 93.7451 49.9978C93.7451 38.2121 85.3081 28.5692 74.9961 28.5692H68.4339C67.309 28.5692 66.3091 27.9263 65.7466 26.7835C61.7468 18.9263 54.7472 14.2835 46.9351 14.2835C34.8732 14.2835 25.0612 25.4978 25.0612 39.2835C25.0612 41.2835 23.6863 42.8549 21.9364 42.8549H18.8115C11.9369 42.8549 6.31217 49.2835 6.31217 57.1406C6.31217 64.9978 11.9369 71.4263 18.8115 71.4263C20.5614 71.4263 21.9364 72.9978 21.9364 74.9978C21.9364 76.9978 20.5614 78.5692 18.8115 78.5692C8.49956 78.5692 0.0625 68.9263 0.0625 57.1406C0.0625 45.3549 8.49956 35.7121 18.8115 35.7121H18.999C20.5614 19.6406 32.4983 7.14062 46.9351 7.14062C56.2471 7.14062 64.9966 12.5692 70.1838 21.4263H75.0586C88.8704 21.4263 100.057 34.2121 100.057 49.9978C100.057 65.7835 88.8704 78.5692 75.0586 78.5692H74.9961Z" fill="#797979"/>
<path d="M62.4982 66.0714C62.0884 66.0771 61.682 65.9848 61.3053 65.8002C60.9286 65.6157 60.5898 65.3431 60.3108 65L46.874 49.6429L33.4372 65C32.1873 66.4286 30.2499 66.4286 29 65C27.75 63.5714 27.75 61.3571 29 59.9286L44.6241 42.0714C45.8741 40.6429 47.8115 40.6429 49.0614 42.0714L64.6856 59.9286C65.9355 61.3571 65.9355 63.5714 64.6856 65C64.0606 65.7143 63.2482 66.0714 62.4982 66.0714Z" fill="#797979"/>
<path d="M46.8748 92.8594C45.1249 92.8594 43.75 91.2879 43.75 89.2879V46.4308C43.75 44.4308 45.1249 42.8594 46.8748 42.8594C48.6247 42.8594 49.9997 44.4308 49.9997 46.4308V89.2879C49.9997 91.2879 48.6247 92.8594 46.8748 92.8594Z" fill="#797979"/>
</g>
<defs>
<clipPath id="clip0_322_2323">
<rect width="100" height="100" fill="white"/>
</clipPath>
</defs>
</svg>
