<svg width="20" height="20" viewBox="0 0 20 20" fill="none" xmlns="http://www.w3.org/2000/svg">
<path d="M1.66406 9.9987C1.66406 6.856 1.66406 5.28466 2.64037 4.30834C3.61669 3.33203 5.18803 3.33203 8.33073 3.33203H11.6641C14.8067 3.33203 16.3781 3.33203 17.3544 4.30834C18.3307 5.28466 18.3307 6.856 18.3307 9.9987V11.6654C18.3307 14.808 18.3307 16.3794 17.3544 17.3557C16.3781 18.332 14.8067 18.332 11.6641 18.332H8.33073C5.18803 18.332 3.61669 18.332 2.64037 17.3557C1.66406 16.3794 1.66406 14.808 1.66406 11.6654V9.9987Z" stroke="#6A6A75" stroke-width="1.5"/>
<path d="M5.83594 3.33203V2.08203" stroke="#6A6A75" stroke-width="1.5" stroke-linecap="round"/>
<path d="M14.1641 3.33203V2.08203" stroke="#6A6A75" stroke-width="1.5" stroke-linecap="round"/>
<path d="M2.08594 7.5H17.9193" stroke="#6A6A75" stroke-width="1.5" stroke-linecap="round"/>
<path d="M15.0026 14.1654C15.0026 14.6256 14.6295 14.9987 14.1693 14.9987C13.709 14.9987 13.3359 14.6256 13.3359 14.1654C13.3359 13.7051 13.709 13.332 14.1693 13.332C14.6295 13.332 15.0026 13.7051 15.0026 14.1654Z" fill="#6A6A75"/>
<path d="M15.0026 10.8333C15.0026 11.2936 14.6295 11.6667 14.1693 11.6667C13.709 11.6667 13.3359 11.2936 13.3359 10.8333C13.3359 10.3731 13.709 10 14.1693 10C14.6295 10 15.0026 10.3731 15.0026 10.8333Z" fill="#6A6A75"/>
<path d="M10.8307 14.1654C10.8307 14.6256 10.4576 14.9987 9.9974 14.9987C9.53715 14.9987 9.16406 14.6256 9.16406 14.1654C9.16406 13.7051 9.53715 13.332 9.9974 13.332C10.4576 13.332 10.8307 13.7051 10.8307 14.1654Z" fill="#6A6A75"/>
<path d="M10.8307 10.8333C10.8307 11.2936 10.4576 11.6667 9.9974 11.6667C9.53715 11.6667 9.16406 11.2936 9.16406 10.8333C9.16406 10.3731 9.53715 10 9.9974 10C10.4576 10 10.8307 10.3731 10.8307 10.8333Z" fill="#6A6A75"/>
<path d="M6.66667 14.1654C6.66667 14.6256 6.29357 14.9987 5.83333 14.9987C5.3731 14.9987 5 14.6256 5 14.1654C5 13.7051 5.3731 13.332 5.83333 13.332C6.29357 13.332 6.66667 13.7051 6.66667 14.1654Z" fill="#6A6A75"/>
<path d="M6.66667 10.8333C6.66667 11.2936 6.29357 11.6667 5.83333 11.6667C5.3731 11.6667 5 11.2936 5 10.8333C5 10.3731 5.3731 10 5.83333 10C6.29357 10 6.66667 10.3731 6.66667 10.8333Z" fill="#6A6A75"/>
</svg>
