<svg width="20" height="18" viewBox="0 0 20 18" fill="none" xmlns="http://www.w3.org/2000/svg">
<ellipse cx="9.73906" cy="9.63542" rx="2.7" ry="2.66667" stroke="white" stroke-width="1.5"/>
<path d="M7.75 16.75H11.75C14.5589 16.75 15.9634 16.75 16.9723 16.0963C17.409 15.8133 17.784 15.4497 18.0759 15.0262C18.75 14.0478 18.75 12.6859 18.75 9.96212C18.75 7.23832 18.75 5.87641 18.0759 4.89809C17.784 4.47457 17.409 4.11093 16.9723 3.82794C16.324 3.4079 15.5124 3.25776 14.2698 3.20409C13.6768 3.20409 13.1663 2.76838 13.05 2.20455C12.8756 1.35879 12.1098 0.75 11.2203 0.75H8.27971C7.39025 0.75 6.62444 1.35879 6.45 2.20455C6.33371 2.76838 5.82317 3.20409 5.2302 3.20409C3.9876 3.25776 3.176 3.4079 2.52772 3.82794C2.09096 4.11093 1.71596 4.47457 1.42412 4.89809C0.75 5.87641 0.75 7.23832 0.75 9.96212C0.75 12.6859 0.75 14.0478 1.42412 15.0262C1.71596 15.4497 2.09096 15.8133 2.52772 16.0963C3.53661 16.75 4.94108 16.75 7.75 16.75Z" stroke="white" stroke-width="1.5"/>
<path d="M16.0406 6.96875H15.1406" stroke="white" stroke-width="1.5" stroke-linecap="round"/>
</svg>
