<svg width="235" height="260" viewBox="0 0 235 260" fill="none" xmlns="http://www.w3.org/2000/svg">
<path d="M223.838 39.6113V184.889H17.9199V39.6113C17.9199 31.518 24.4386 24.9609 32.4844 24.9609H209.283C217.32 24.9609 223.838 31.518 223.838 39.6113Z" fill="#797979" stroke="#EFEFED" stroke-width="1.639" stroke-linecap="round" stroke-linejoin="round"/>
<path d="M223.838 39.6121V40.2677H17.9199V39.6121C17.9199 31.5188 24.4386 24.9609 32.4844 24.9609H209.283C217.32 24.9609 223.838 31.5188 223.838 39.6121Z" fill="#008037" stroke="#DFDDD7" stroke-width="1.639" stroke-linecap="round" stroke-linejoin="round"/>
<path d="M195.97 32.6165C195.97 34.0874 194.784 35.2798 193.322 35.2798C191.86 35.2798 190.674 34.0874 190.674 32.6165C190.674 31.1455 191.86 29.9531 193.322 29.9531C194.784 29.9531 195.97 31.1455 195.97 32.6165Z" fill="#EFEFED"/>
<path d="M204.609 32.6165C204.609 34.0874 203.424 35.2798 201.962 35.2798C200.499 35.2798 199.312 34.0874 199.312 32.6165C199.312 31.1455 200.499 29.9531 201.962 29.9531C203.424 29.9531 204.609 31.1455 204.609 32.6165Z" fill="#DFDDD7"/>
<path d="M213.254 32.6165C213.254 34.0874 212.067 35.2798 210.606 35.2798C209.144 35.2798 207.957 34.0874 207.957 32.6165C207.957 31.1455 209.144 29.9531 210.606 29.9531C212.067 29.9531 213.254 31.1455 213.254 32.6165Z" fill="#EFEFED"/>
<path d="M221.64 112.065C208.37 111.41 197.378 123.456 193.975 137.291C193.877 137.676 193.788 138.1 193.708 138.557C193.396 140.254 193.145 142.446 192.948 144.989C191.537 163.252 192.869 199.59 193.003 200.425C193.056 200.722 183.608 200.399 170.518 199.805C165.695 199.581 160.373 199.329 154.846 199.05C126.708 197.658 93.294 195.781 93.294 195.781L91.2677 173.089C91.2677 173.089 87.0618 180.249 72.6666 194.236C58.2722 208.232 35.2518 200.425 37.7251 182.836C39.2787 171.795 45.7621 163.71 53.6113 150.19C56.0397 146.005 58.6028 141.297 61.1837 135.826C64.6208 128.541 67.9696 121.596 71.1667 115.317C72.5687 112.55 73.953 109.919 75.2924 107.439C80.3465 98.0695 84.8734 90.9724 88.5167 87.6575C99.4828 77.6775 122.967 83.4264 129.227 85.4479C135.487 87.4694 144.156 89.9309 158.043 90.9094C171.928 91.8887 193.003 97.9072 204.165 101.815C214.978 105.589 221.239 111.67 221.623 112.047C221.631 112.056 221.64 112.065 221.64 112.065Z" fill="#008037"/>
<path d="M230.978 132.789C218.831 120.524 200.38 115.17 181.865 131.769C160.331 151.074 143.808 154.426 119.591 126.245C102.071 105.861 95.9911 100.661 75.2891 107.439C80.3432 98.0691 84.8709 90.9728 88.5142 87.6579C99.4795 77.6771 122.965 83.4268 129.224 85.4475C135.484 87.469 144.155 89.9305 158.04 90.9098C171.926 91.8891 193 97.9076 204.162 101.815C214.976 105.588 221.235 111.67 221.62 112.048C221.628 112.057 221.637 112.066 221.637 112.066C226.406 115.901 229.237 123.609 230.978 132.789Z" fill="#008037"/>
<path d="M70.8185 167.862C63.1033 176.307 56.1199 157.989 53.6113 150.192C56.0397 146.006 58.6029 141.3 61.1837 135.829C64.6208 128.543 67.9696 121.599 71.1668 115.32C76.8725 124.097 69.1573 132.137 68.622 136.107C67.2016 146.725 81.909 155.735 70.8185 167.862Z" fill="#008037"/>
<path d="M119.594 92.8993C125.548 104.026 141.359 114.714 160.43 99.9553C160.43 99.9553 162.486 93.8261 162.273 93.8261C162.06 93.8261 122.288 88.9766 122.288 88.9766L119.594 92.8993Z" fill="#FEFEFE"/>
<path d="M135.293 79.1496C130.38 78.0355 123.252 79.2884 118.339 86.8764C113.426 94.4644 112.804 100.729 113.08 100.66C113.357 100.59 120.776 95.8562 124.159 96.2041C127.543 96.5529 134.975 98.7682 134.975 98.7682L135.293 79.1496Z" fill="#797979"/>
<path d="M157.435 81.375C157.435 81.375 168.3 81.4444 169.753 89.1018C171.205 96.76 167.192 105.948 162.279 110.195C157.366 114.441 160.064 104.069 142.42 99.1957L157.435 81.375Z" fill="#797979"/>
<path d="M91.2652 173.087C89.409 151.756 89.4082 134.477 89.4082 134.477" stroke="#008037" stroke-width="0.615" stroke-linecap="round" stroke-linejoin="round"/>
<path d="M178.974 224.969C177.777 224.52 176.715 223.972 175.778 223.343C169.045 218.879 168.473 210.175 170.518 199.808C172.098 191.867 175.214 182.946 178.268 174.206C181.741 164.243 185.144 154.522 186.099 146.734C186.233 145.647 186.314 144.605 186.35 143.608C186.547 137.499 187.68 131.445 189.573 126.073C195.127 110.37 207.228 100.479 221.623 112.05C221.631 112.058 221.64 112.068 221.64 112.068C226.407 115.904 229.239 123.611 230.981 132.792C231.606 136.072 232.087 139.539 232.48 143.086V143.114C233.801 155.143 233.989 168.078 234.578 177.708C237.454 224.331 226.345 242.954 178.974 224.969Z" fill="#008037"/>
<path d="M230.98 132.791C220.523 122.237 205.387 116.802 189.572 126.072C195.127 110.37 207.226 100.479 221.622 112.05C221.63 112.059 221.639 112.068 221.639 112.068C226.408 115.903 229.238 123.611 230.98 132.791Z" fill="#008037"/>
<path d="M193.003 200.42C193.056 200.717 183.609 200.394 170.517 199.8C165.696 199.576 160.373 199.325 154.845 199.046C145.38 194.76 139.496 188.563 144.541 179.678C158.257 155.53 183.456 188.985 184.769 165.045C185.662 148.65 189.618 145.093 192.949 144.984C191.538 163.248 192.869 199.585 193.003 200.42Z" fill="#008037"/>
<path d="M196.224 130.172C194.498 134.374 193.337 139.311 192.946 144.989C191.688 163.262 192.866 199.588 193 200.425" stroke="#008037" stroke-width="0.615" stroke-linecap="round" stroke-linejoin="round"/>
<path d="M178.972 224.965C177.775 224.516 176.713 223.968 175.775 223.339C186.624 225.684 202.84 227.795 210.012 221.659C221.281 212.002 214.119 199.624 220.352 192.815C226.576 186.005 235.568 183.795 232.478 143.109C233.8 155.138 233.988 168.074 234.577 177.704C237.452 224.327 226.343 242.95 178.972 224.965Z" fill="#008037"/>
<path d="M21.2479 103.472C20.5933 97.4092 47.0088 85.3255 51.5782 94.1138L43.0941 103.003C43.0941 103.003 25.2343 110.553 21.2479 103.472Z" fill="#008037"/>
<path d="M33.3676 59.7657C29.2232 47.7439 28.914 46.2607 31.4857 45.2744C34.0574 44.2872 40.9219 57.9261 41.6981 59.5866C42.4742 61.2471 46.1538 68.1262 48.0356 76.0743C49.3019 81.4235 51.0722 93.7579 51.3771 96.7359C52.6631 109.284 32.1416 113.544 31.0352 103.787C29.9289 94.0285 29.7686 90.8657 29.7686 90.8657C29.7686 90.8657 19.146 92.118 17.4948 84.1423C15.8436 76.1658 16.0486 65.2617 16.0486 65.2617C16.0486 65.2617 -0.180192 62.9104 0.284001 58.615C0.748192 54.3196 32.5883 62.2986 32.5883 62.2986L33.3676 59.7657Z" fill="#FFBE9D"/>
<path d="M32.5892 62.2933C31.3684 66.7923 31.5693 72.7708 33.5995 78.4878" stroke="#882618" stroke-width="0.615" stroke-linecap="round" stroke-linejoin="round"/>
<path d="M24.8141 53.1634C27.3775 54.4326 29.3845 54.6713 30.0631 51.0213C30.7417 47.3714 27.1678 47.3562 26.0285 47.5712C24.2577 47.9065 23.7149 52.6186 24.8141 53.1634Z" fill="black"/>
<path d="M25.3021 52.2291C24.7739 54.1906 24.4076 56.6323 24.4221 56.5601C24.8462 56.7625 27.3016 57.5544 27.6615 56.702C28.0215 55.8488 28.363 52.1633 28.363 52.1633L25.3021 52.2291Z" fill="#2D2D2D"/>
<path d="M23.1277 57.7954C21.9256 63.7814 15.7717 96.6224 15.5673 97.6935C15.3629 98.7646 15.7706 103.709 16.191 103.891C16.6115 104.072 18.9191 100.479 19.7524 98.6702C20.5864 96.862 27.5199 60.8171 27.9651 59.1392C29.0515 55.0396 23.9145 53.8758 23.1277 57.7954Z" fill="black"/>
<path d="M17.4937 76.4748C14.1893 77.3162 13.319 80.5149 15.8085 82.5754C18.4909 84.7957 24.9463 83.6362 25.187 80.7248C25.4278 77.8126 20.2433 75.7745 17.4937 76.4748Z" fill="#FFBE9D"/>
<path d="M17.4937 76.4748C14.1893 77.3162 13.319 80.5149 15.8085 82.5754C18.4909 84.7957 24.9463 83.6362 25.187 80.7248C25.4278 77.8126 20.2433 75.7745 17.4937 76.4748Z" stroke="#882618" stroke-width="0.615" stroke-linecap="round" stroke-linejoin="round"/>
<path d="M17.0823 71.2624C13.669 70.8335 12.9041 74.2334 15.3958 76.8502C17.8876 79.4679 25.9054 79.8413 26.2893 76.7137C26.6739 73.5852 19.1757 71.5258 17.0823 71.2624Z" fill="#FFBE9D"/>
<path d="M17.0823 71.2624C13.669 70.8335 12.9041 74.2334 15.3958 76.8502C17.8876 79.4679 25.9054 79.8413 26.2893 76.7137C26.6739 73.5852 19.1757 71.5258 17.0823 71.2624Z" stroke="#882618" stroke-width="0.615" stroke-linecap="round" stroke-linejoin="round"/>
<path d="M13.9527 65.4762C18.2002 64.3642 27.5916 70.4898 27.2689 72.4533C26.8639 74.9233 22.5249 75.3897 16.2685 72.8829C10.4088 70.5347 11.8661 66.0225 13.9527 65.4762Z" fill="#FFBE9D"/>
<path d="M13.9527 65.4762C18.2002 64.3642 27.5916 70.4898 27.2689 72.4533C26.8639 74.9233 22.5249 75.3897 16.2685 72.8829C10.4088 70.5347 11.8661 66.0225 13.9527 65.4762Z" stroke="#882618" stroke-width="0.615" stroke-linecap="round" stroke-linejoin="round"/>
<path d="M21.2474 103.469C33.2557 105.744 51.5777 94.1095 51.5777 94.1095C51.5777 94.1095 62.7768 139.828 65.6665 149.952C68.5569 160.076 86.4821 199.62 53.2313 201.971C31.8896 203.481 29.5862 162.656 28.0424 149.233C26.4986 135.81 21.2474 103.469 21.2474 103.469Z" fill="#008037"/>
<path d="M29.2844 108.548C38.4936 109.002 48.6029 102.559 48.6029 102.559" stroke="#797979" stroke-width="0.615" stroke-linecap="round" stroke-linejoin="round"/>
<path d="M51.5762 94.1094C51.5762 94.1094 62.7761 139.828 65.6665 149.952C67.2432 155.476 73.2954 169.755 73.0702 181.975" stroke="#797979" stroke-width="0.615" stroke-linecap="round" stroke-linejoin="round"/>
<path d="M134.531 161.028C133.898 153.071 124.702 156.281 124.702 156.281C123.424 149.158 113.793 150.056 113.757 157.405C105.722 157.447 104.081 160.402 104.202 164.623L134.531 161.028Z" fill="#DFDDD7"/>
<path d="M121.552 155.622C121.925 156.842 121.244 158.135 120.032 158.51C118.82 158.885 117.533 158.202 117.16 156.982C116.787 155.762 117.468 154.469 118.68 154.093C119.893 153.718 121.179 154.402 121.552 155.622Z" fill="#FAFBFB"/>
<path d="M121.552 155.622C121.925 156.842 121.244 158.135 120.032 158.51C118.82 158.885 117.533 158.202 117.16 156.982C116.787 155.762 117.468 154.469 118.68 154.093C119.893 153.718 121.179 154.402 121.552 155.622Z" stroke="#DFDDD7" stroke-width="0.82" stroke-linecap="round" stroke-linejoin="round"/>
<path d="M88.5499 163.423L97.7302 242.513L155.597 236.715L147.295 157.235L88.5499 163.423Z" fill="#FAFBFB"/>
<path d="M88.5499 163.423L97.7302 242.513L155.597 236.715L147.295 157.235L88.5499 163.423Z" stroke="#DFDDD7" stroke-width="0.82" stroke-linecap="round" stroke-linejoin="round"/>
<path d="M120.506 207.818C119.957 215.963 122.142 223.666 124.194 225.833C124.194 225.833 129.69 225.193 130.548 209.406L120.506 207.818Z" fill="#008037"/>
<path d="M123.25 191.547C109.473 191.103 102.718 190.343 100.287 190.43C97.8554 190.516 89.5257 192.335 88.6292 194.04C87.7323 195.744 88.1514 197.421 89.1149 199.025C90.0784 200.628 89.0833 202.321 89.4481 204.131C89.8131 205.941 92.0451 205.821 92.1449 207.692C92.2448 209.563 91.448 211.902 92.9821 213.518C94.5175 215.136 93.2291 217.723 95.76 219.507C98.2909 221.291 116.998 216.734 120.763 214.617L129.771 215.726C129.771 215.726 139.313 196.99 123.25 191.547Z" fill="#FFBE9D"/>
<path d="M100.287 190.429C97.856 190.516 89.5258 192.335 88.6291 194.04C87.7322 195.743 88.1513 197.42 89.1148 199.024C90.0783 200.628 89.0832 202.321 89.448 204.13C89.813 205.941 92.045 205.82 92.1448 207.692C92.2447 209.563 91.4482 211.902 92.9823 213.519C94.5176 215.136 93.2293 217.723 95.7599 219.506" stroke="#FFBE9D" stroke-width="0.615" stroke-linecap="round" stroke-linejoin="round"/>
<path d="M213.121 218.893L213.115 218.904C211.674 225.799 204.419 231.156 187.591 231.245C183.04 231.272 178.627 231.201 174.379 231.059C167.349 230.831 160.791 230.407 154.877 229.889C136.317 228.287 124.193 225.827 124.193 225.827C124.193 225.827 126.25 221.92 127.027 215.391C127.264 213.448 127.382 211.268 127.298 208.887C127.114 203.888 126.04 197.999 123.246 191.551C125.539 191.536 127.99 191.482 130.562 191.4C136.789 191.201 143.725 190.848 150.774 190.556C171.893 189.683 194.029 189.323 201.236 195.166C201.896 195.704 202.54 196.255 203.158 196.835C203.404 197.06 203.653 197.292 203.893 197.528C203.96 197.593 204.023 197.648 204.08 197.715C204.371 197.992 204.647 198.282 204.923 198.572C205.414 199.078 205.879 199.592 206.33 200.12C211.301 205.922 214.356 212.974 213.121 218.893Z" fill="#008037"/>
<path d="M123.25 191.547C147.703 191.404 190.636 186.57 201.24 195.165C203.074 196.651 204.794 198.325 206.331 200.119" stroke="#008037" stroke-width="0.615" stroke-linecap="round" stroke-linejoin="round"/>
<path d="M130.562 191.4C136.267 205.074 133.174 220.863 133.174 220.863" stroke="#008037" stroke-width="0.615" stroke-linecap="round" stroke-linejoin="round"/>
<path d="M213.118 218.905C211.676 225.799 204.421 231.156 187.592 231.245C183.042 231.272 178.628 231.202 174.381 231.06C184.126 230.665 206.919 228.691 213.118 218.905Z" fill="#008037"/>
<path d="M162.71 90.1361C162.71 90.1361 156.781 99.4323 143.337 99.7943C129.904 100.166 127.217 92.1292 127.217 92.1292C128.635 88.4527 130.296 80.6276 131.355 75.146C132.03 71.6825 132.466 69.1471 132.466 69.1471C132.466 69.1471 134.441 47.4589 157.536 48.492L157.972 52.0393L162.71 90.1361Z" fill="#FFBE9D"/>
<path d="M131.358 75.3206C132.033 71.8628 132.467 69.3242 132.467 69.3242L132.449 69.3244C132.467 69.3242 145.512 62.973 145.512 62.973C145.512 62.973 147.786 78.0749 131.358 75.3206Z" fill="#FFBE9D"/>
<path d="M157.534 48.672L157.978 52.216C149.947 65.1393 138.832 69.3033 132.465 69.3238L132.447 69.3241C121.907 66.8067 118.208 57.3361 117.482 47.1475C117.303 44.742 117.292 42.2812 117.407 39.8715C117.797 31.1352 119.694 22.9641 120.634 19.3506C120.634 19.3506 152.018 4.20441 154.549 33.8303C154.549 33.8303 161.294 32.5022 162.641 40.0604C163.758 46.2996 157.534 48.672 157.534 48.672Z" fill="#FFBE9D"/>
<path d="M121.189 38.5635C121.197 39.2626 121.766 39.8235 122.462 39.8153C123.158 39.8071 123.716 39.233 123.708 38.5339C123.7 37.834 123.129 37.274 122.433 37.2821C121.737 37.2903 121.18 37.8636 121.189 38.5635Z" fill="#562509"/>
<path d="M129.95 36.8447C129.958 37.5446 130.528 38.1047 131.224 38.0965C131.92 38.0884 132.476 37.5151 132.468 36.8152C132.46 36.1153 131.89 35.5552 131.195 35.5634C130.499 35.5715 129.942 36.1448 129.95 36.8447Z" fill="#562509"/>
<path d="M129.208 30.0355C129.362 31.7639 135.247 32.3683 135.574 31.3802C136.066 29.8897 128.847 25.9779 129.208 30.0355Z" fill="#4D2D19"/>
<path d="M118.032 32.7496C117.993 33.6882 124.443 34.0501 124.177 30.722C123.985 28.3248 118.141 30.1437 118.032 32.7496Z" fill="#4D2D19"/>
<path d="M153.006 43.2127C155.592 39.2625 159.759 39.6496 160.201 40.3816" stroke="#882618" stroke-width="0.615" stroke-linecap="round" stroke-linejoin="round"/>
<path d="M154.106 41.8645C157.961 39.5199 160.145 44.6445 155.231 44.7022" stroke="#882618" stroke-width="0.615" stroke-linecap="round" stroke-linejoin="round"/>
<path d="M125.804 34.8229C126.887 36.8892 126.821 38.143 126.122 39.4842C125.421 40.8246 123.338 43.888 124.482 46.5663" stroke="#882618" stroke-width="0.615" stroke-linecap="round" stroke-linejoin="round"/>
<path d="M132.824 46.9388C131.934 50.1658 128.112 52.2275 126.331 51.8342C126.331 51.8342 128.219 56.8072 131.426 55.4932C135.112 53.983 132.824 46.9388 132.824 46.9388Z" fill="#FEFEFE"/>
<path d="M132.824 46.9388C131.934 50.1658 128.112 52.2275 126.331 51.8342C126.331 51.8342 128.219 56.8072 131.426 55.4932C135.112 53.983 132.824 46.9388 132.824 46.9388Z" stroke="#882618" stroke-width="0.615" stroke-linecap="round" stroke-linejoin="round"/>
<path d="M152.475 47.8047C155.021 49.5034 157.538 48.677 157.538 48.677" stroke="#882618" stroke-width="0.615" stroke-linecap="round" stroke-linejoin="round"/>
<path d="M163.748 30.6602C167.431 35.6211 162.009 37.8501 162.009 37.8501C161.355 36.9414 160.616 36.2945 159.852 35.8812C157.461 34.5795 154.812 35.6076 153.779 38.1799C146.361 38.4292 149.49 32.5617 149.49 32.5617C142.869 35.3077 142.574 28.4565 145.406 25.3246C140.276 31.26 133.61 25.463 134.63 20.1684C132.857 25.957 126.305 26.2575 127.125 21.4602C126.459 22.6088 125.792 23.5144 125.121 24.1956C120.673 28.803 116.581 23.9817 118.235 20.3606C111.551 26.9166 108.548 19.7008 114.941 15.7359C109.802 11.5914 115.743 5.52938 119.903 8.58897C118.88 1.14488 126.5 0.722881 129.908 5.0403C131.135 -3.1673 141.366 1.18637 141.813 5.06217C149.252 -0.298833 155.1 3.5225 154.45 12.1004C157.43 7.9874 163.949 10.3016 161.579 20.7776C167.797 20.2735 168.969 28.0388 163.748 30.6602Z" fill="#4D2D19"/>
<path d="M159.852 35.8794C157.461 34.5777 154.812 35.6059 153.779 38.1782C146.36 38.4275 149.49 32.5599 149.49 32.5599C142.869 35.3059 142.575 28.4548 145.405 25.3221C140.276 31.2575 133.61 25.4604 134.63 20.1658C132.856 25.9545 126.305 26.2558 127.125 21.4576C126.46 22.6063 125.791 23.5127 125.121 24.1939C123.244 18.6733 127.231 11.3134 133.484 14.5551C134.254 10.0902 144.39 7.07851 144.458 18.3615C148.165 13.0266 156.704 14.7422 152.794 24.8681C155.936 22.4051 163.279 26.4511 159.852 35.8794Z" fill="#331E13"/>
<path d="M146.21 37.9993C147.131 39.7962 145.47 42.501 142.503 44.0391C139.534 45.5773 136.383 45.3664 135.463 43.5695C134.543 41.7725 136.202 39.0686 139.169 37.5304C142.137 35.9923 145.29 36.2024 146.21 37.9993Z" fill="#FFBE9D"/>
<path d="M121.397 45.1725C120.947 46.4534 119.402 47.1634 117.482 47.1496C117.302 44.7441 117.291 42.2826 117.406 39.8736C120.26 41.0706 122.037 43.3677 121.397 45.1725Z" fill="#FFBE9D"/>
</svg>
