<svg width="20" height="20" viewBox="0 0 20 20" fill="none" xmlns="http://www.w3.org/2000/svg">
<path d="M18.75 8.4V9.75C18.75 13.9926 18.75 16.114 17.4319 17.4319C16.114 18.75 13.9926 18.75 9.75 18.75C5.50736 18.75 3.38604 18.75 2.06802 17.4319C0.75 16.114 0.75 13.9926 0.75 9.75C0.75 5.50736 0.75 3.38604 2.06802 2.06802C3.38604 0.75 5.50736 0.75 9.75 0.75H11.1" stroke="white" stroke-width="1.5" stroke-linecap="round"/>
<path d="M13.9352 2.05956L14.5192 1.47562C15.4867 0.508127 17.0554 0.508127 18.0229 1.47562C18.9903 2.44312 18.9903 4.01174 18.0229 4.97923L17.4388 5.56316M13.9352 2.05956C13.9352 2.05956 14.0082 3.30041 15.1032 4.39529C16.198 5.49017 17.4388 5.56316 17.4388 5.56316M13.9352 2.05956L8.56692 7.42794C8.20332 7.79155 8.02152 7.97331 7.86513 8.17383C7.68068 8.41026 7.52255 8.66613 7.39354 8.93685C7.28416 9.16635 7.20285 9.41025 7.04024 9.89814L6.51962 11.46M17.4388 5.56316L12.0705 10.9315C11.7069 11.2951 11.5251 11.4769 11.3246 11.6333C11.0882 11.8178 10.8323 11.9759 10.5616 12.1049C10.3321 12.2143 10.0882 12.2956 9.6003 12.4582L8.03844 12.9788M6.51962 11.46L6.18274 12.4706C6.10272 12.7107 6.1652 12.9753 6.34414 13.1543C6.52307 13.3333 6.78775 13.3957 7.02782 13.3157L8.03844 12.9788M6.51962 11.46L8.03844 12.9788" stroke="white" stroke-width="1.5"/>
</svg>
