<svg width="42" height="42" viewBox="0 0 42 42" fill="none" xmlns="http://www.w3.org/2000/svg">
<path d="M1 21C1 11.5719 1 6.85786 3.92893 3.92893C6.85786 1 11.5719 1 21 1C30.4281 1 35.1421 1 38.0711 3.92893C41 6.85786 41 11.5719 41 21C41 30.4281 41 35.1421 38.0711 38.0711C35.1421 41 30.4281 41 21 41C11.5719 41 6.85786 41 3.92893 38.0711C1 35.1421 1 30.4281 1 21Z" stroke="#2D2D2D" stroke-width="2" stroke-linecap="round"/>
<ellipse cx="29.002" cy="13" rx="4" ry="4" stroke="#2D2D2D" stroke-width="2" stroke-linecap="round"/>
<path d="M1 22.0081L4.50317 18.9428C6.32571 17.3481 9.07255 17.4396 10.785 19.152L19.3644 27.7315C20.7389 29.1059 22.9025 29.2933 24.4928 28.1757L25.0892 27.7565C27.3777 26.1482 30.4739 26.3346 32.5529 28.2057L39 34.0081" stroke="#2D2D2D" stroke-width="2" stroke-linecap="round"/>
</svg>
