<svg width="25" height="28" viewBox="0 0 25 28" fill="none" xmlns="http://www.w3.org/2000/svg">
<path d="M6.35372 2.36807C6.35372 3.26178 5.60381 3.98633 4.67881 3.98633C3.75382 3.98633 3.00391 3.26178 3.00391 2.36807C3.00391 1.47436 3.75382 0.749813 4.67881 0.749813C5.60381 0.749813 6.35372 1.47436 6.35372 2.36807Z" stroke="#008037" stroke-width="1.5" stroke-miterlimit="10"/>
<path d="M3.00367 22.7044C3.00367 23.1512 2.64141 23.5135 2.19454 23.5135H2.001C1.59431 23.5135 1.22791 23.7591 1.07345 24.1354L0.916706 24.5171C0.479515 25.582 1.26258 26.75 2.41371 26.75H6.92061C8.05838 26.75 8.8409 25.6069 8.42922 24.5462L8.27467 24.148C8.12621 23.7655 7.75805 23.5135 7.34776 23.5135H7.16261C6.71575 23.5135 6.35349 23.1512 6.35349 22.7044C6.35349 22.2575 5.99123 21.8952 5.54436 21.8952H3.8128C3.36593 21.8952 3.00367 22.2575 3.00367 22.7044Z" stroke="#008037" stroke-width="1.5" stroke-miterlimit="10"/>
<path d="M4.67969 3.98679V21.8955" stroke="#008037" stroke-width="1.5" stroke-miterlimit="10"/>
<path d="M4.67969 6.01574C5.53149 6.32596 7.02981 7.20904 8.4202 7.22085C11.8858 7.2373 12.4792 5.1908 17.6289 4.148C18.3198 4.02078 19.2968 3.9363 20.5014 4.03403C22.0918 4.16306 22.0337 6.23642 20.722 7.14491C20.01 7.63801 20.0615 8.54529 20.4649 9.31168C20.4865 9.35273 20.5077 9.39386 20.5286 9.43507C21.1872 10.7378 19.635 11.7754 18.3082 12.3839C17.8583 12.5902 17.3626 12.9169 16.776 13.3956C13.6589 15.7028 8.39776 15.8206 4.67969 14.7388" stroke="#008037" stroke-width="1.5" stroke-miterlimit="10"/>
</svg>
