<svg width="27" height="29" viewBox="0 0 27 29" fill="none" xmlns="http://www.w3.org/2000/svg">
<path d="M20.0428 13.4204C20.6125 12.7212 21.1415 11.9841 21.6254 11.2119C22.1847 10.3196 23.2333 9.82768 24.2576 10.0722C25.1611 10.2879 25.9618 9.45666 25.6995 8.57601L23.6208 1.60631C23.3578 0.725656 22.2288 0.456191 21.5882 1.12116L16.5172 6.38335C15.8765 7.04832 16.2043 8.14954 17.1079 8.36522C17.8679 8.54664 18.2359 9.41141 17.7846 10.0493C14.3804 14.8615 8.77089 17.8248 2.67857 17.8248C1.61335 17.8248 0.75 18.6777 0.75 19.73C0.75 20.7818 1.61335 21.6348 2.67857 21.6348C8.96435 21.6348 14.824 19.0265 18.9655 14.6471" stroke="#008037" stroke-width="1.5" stroke-miterlimit="10" stroke-linecap="round" stroke-linejoin="round"/>
<path d="M3.70043 23.937C2.93607 23.937 2.31641 24.5492 2.31641 25.3043V26.366C2.31641 27.1304 2.93606 27.75 3.70043 27.75C4.46481 27.75 5.08446 27.1304 5.08446 26.366V25.3043C5.08446 24.5492 4.46479 23.937 3.70043 23.937Z" stroke="#008037" stroke-width="1.5" stroke-miterlimit="10" stroke-linecap="round" stroke-linejoin="round"/>
<path d="M9.79517 24.6137V26.3661C9.79517 27.1304 9.17557 27.75 8.41126 27.75C7.64694 27.75 7.02734 27.1304 7.02734 26.3661V23.7987C7.02734 23.0436 7.64657 22.4313 8.41098 22.4313C8.88283 22.4313 9.29913 22.6644 9.5488 23.0208" stroke="#008037" stroke-width="1.5" stroke-miterlimit="10" stroke-linecap="round" stroke-linejoin="round"/>
<path d="M13.1262 21.1505C12.3619 21.1505 11.7422 21.7627 11.7422 22.5178V26.366C11.7422 27.1304 12.3618 27.75 13.1262 27.75C13.8906 27.75 14.5102 27.1304 14.5102 26.366V22.5178C14.5102 21.7627 13.8906 21.1505 13.1262 21.1505Z" stroke="#008037" stroke-width="1.5" stroke-miterlimit="10" stroke-linecap="round" stroke-linejoin="round"/>
<path d="M17.8372 18.2649C17.0728 18.2649 16.4531 18.877 16.4531 19.6321V26.366C16.4531 27.1304 17.0728 27.75 17.8371 27.75C18.6015 27.75 19.2211 27.1304 19.2211 26.366V19.6321C19.2211 18.877 18.6015 18.2649 17.8372 18.2649Z" stroke="#008037" stroke-width="1.5" stroke-miterlimit="10" stroke-linecap="round" stroke-linejoin="round"/>
<path d="M22.5481 13.9878C21.7837 13.9878 21.1641 14.6 21.1641 15.3551V26.366C21.1641 27.1304 21.7837 27.75 22.5481 27.75C23.3125 27.75 23.9321 27.1304 23.9321 26.366V15.3551C23.9321 14.6 23.3124 13.9878 22.5481 13.9878Z" stroke="#008037" stroke-width="1.5" stroke-miterlimit="10" stroke-linecap="round" stroke-linejoin="round"/>
</svg>
