<svg width="221" height="254" viewBox="0 0 221 254" fill="none" xmlns="http://www.w3.org/2000/svg">
<path d="M159.623 154.529L125.642 246.192" stroke="#256440" stroke-width="3" stroke-miterlimit="10"/>
<path d="M162.749 246.192V156.113" stroke="#256440" stroke-width="3" stroke-miterlimit="10"/>
<path d="M165.869 154.529L199.85 246.192" stroke="#256440" stroke-width="3" stroke-miterlimit="10"/>
<path d="M193.827 158.53H131.662C128.973 158.53 126.794 156.353 126.794 153.666V150.529H198.694V153.666C198.694 156.353 196.515 158.53 193.827 158.53Z" fill="#256440"/>
<path d="M193.827 158.53H131.662C128.973 158.53 126.794 156.353 126.794 153.666V150.529H198.694V153.666C198.694 156.353 196.515 158.53 193.827 158.53Z" stroke="#256440" stroke-miterlimit="10"/>
<path d="M210.747 153.237H115.151C110.042 153.237 105.899 149.097 105.899 143.991V20.2456C105.899 15.1397 110.042 11 115.151 11H210.747C215.856 11 219.998 15.1397 219.998 20.2456V143.991C219.998 149.097 215.856 153.237 210.747 153.237Z" fill="white"/>
<path d="M210.747 153.237H115.151C110.042 153.237 105.899 149.097 105.899 143.991V20.2456C105.899 15.1397 110.042 11 115.151 11H210.747C215.856 11 219.998 15.1397 219.998 20.2456V143.991C219.998 149.097 215.856 153.237 210.747 153.237Z" stroke="#256440" stroke-miterlimit="10"/>
<path d="M140.845 32.7155H115.142V20.0938H140.845V32.7155Z" fill="#008037"/>
<path d="M150.091 40.585H115.142V37.4619H150.091V40.585Z" fill="#608570"/>
<path d="M129.369 47.1456H115.142V44.0225H129.369V47.1456Z" fill="#608570"/>
<g opacity="0.717852">
<path d="M141.848 50.582L136.948 55.4798" stroke="#797979" stroke-width="3" stroke-linecap="round" stroke-linejoin="round"/>
<path d="M136.948 50.582L141.848 55.4798" stroke="#797979" stroke-width="3" stroke-linecap="round" stroke-linejoin="round"/>
</g>
<g opacity="0.717852">
<path d="M168.652 36.5908L163.752 41.4886" stroke="#797979" stroke-width="3" stroke-linecap="round" stroke-linejoin="round"/>
<path d="M163.752 36.5908L168.652 41.4886" stroke="#797979" stroke-width="3" stroke-linecap="round" stroke-linejoin="round"/>
</g>
<g opacity="0.717852">
<path d="M188.207 59.2822L183.307 64.18" stroke="#797979" stroke-width="3" stroke-linecap="round" stroke-linejoin="round"/>
<path d="M183.307 59.2822L188.207 64.18" stroke="#797979" stroke-width="3" stroke-linecap="round" stroke-linejoin="round"/>
</g>
<path d="M145.499 84.2708C145.499 86.6305 143.584 88.5431 141.223 88.5431C138.862 88.5431 136.948 86.6305 136.948 84.2708C136.948 81.9112 138.862 79.998 141.223 79.998C143.584 79.998 145.499 81.9112 145.499 84.2708Z" stroke="#256440" stroke-width="3" stroke-linecap="round" stroke-linejoin="round"/>
<path d="M138.599 77.3169C138.271 74.878 138.428 72.3731 139.095 70.0033C140.347 65.5486 143.381 61.6213 147.376 59.2829C153.668 55.6004 161.286 56.0785 168.656 55.4785" stroke="#256440" stroke-width="3" stroke-miterlimit="10" stroke-dasharray="6 6"/>
<path d="M168.653 55.4791C171.597 55.2394 174.501 54.8279 177.265 53.9104C182.769 52.0837 187.56 48.1939 190.477 43.1845C193.394 38.1751 194.41 32.0898 193.279 26.4053" stroke="#256440" stroke-width="3" stroke-miterlimit="10"/>
<path d="M189.278 32.5986L193.347 26.2695L198.348 31.8954" stroke="#256440" stroke-width="3" stroke-linecap="round" stroke-linejoin="round"/>
<path d="M114.394 94.8174V139.267H170.793" stroke="#838A86" stroke-miterlimit="10"/>
<path d="M129.325 139.267H120.615V107.987H129.325V139.267Z" fill="white"/>
<path d="M129.325 139.267H120.615V121.569H129.325V139.267Z" fill="#3BBD74"/>
<path d="M129.325 139.267H120.615V107.987H129.325V139.267Z" stroke="#838A86" stroke-width="0.999775" stroke-miterlimit="10"/>
<path d="M141.665 139.267H132.955V118.898H141.665V139.267Z" fill="white"/>
<path d="M141.665 139.266H132.955V127.742H141.665V139.266Z" fill="#008037"/>
<path d="M141.665 139.267H132.955V118.898H141.665V139.267Z" stroke="#838A86" stroke-width="1.00361" stroke-miterlimit="10"/>
<path d="M154.003 139.251H145.293V112.507H154.003V139.251Z" fill="white"/>
<path d="M154.003 139.251H145.293V116.918H154.003V139.251Z" fill="#53916E"/>
<path d="M154.003 139.251H145.293V112.507H154.003V139.251Z" stroke="#838A86" stroke-width="1.0022" stroke-miterlimit="10"/>
<path d="M166.343 139.268H157.633V99.2715H166.343V139.268Z" fill="white"/>
<path d="M166.343 139.265H157.633V112.278H166.343V139.265Z" fill="#9E9E9E"/>
<path d="M166.343 139.268H157.633V99.2715H166.343V139.268Z" stroke="#838A86" stroke-width="0.998984" stroke-miterlimit="10"/>
<path d="M211.098 106.978H191.967V109.427H211.098V106.978Z" fill="#608570"/>
<path d="M211.099 112.951H206.169V115.402H211.099V112.951Z" fill="#608570"/>
<path d="M202.981 112.951H191.967V115.402H202.981V112.951Z" fill="#608570"/>
<path d="M187.515 107.087V115.29C187.515 116.622 186.435 117.701 185.102 117.701H176.893C175.56 117.701 174.48 116.622 174.48 115.29V107.087C174.48 105.755 175.56 104.676 176.893 104.676H185.102C186.435 104.676 187.515 105.755 187.515 107.087Z" fill="#608570"/>
<path d="M189.754 123.73H181.857V124.742H189.754V123.73Z" fill="#608570"/>
<path d="M189.749 126.194H187.714V127.206H189.749V126.194Z" fill="#608570"/>
<path d="M186.403 126.194H181.857V127.206H186.403V126.194Z" fill="#608570"/>
<path d="M180.014 123.777V127.163C180.014 127.713 179.569 128.159 179.019 128.159H175.63C175.08 128.159 174.634 127.713 174.634 127.163V123.777C174.634 123.227 175.08 122.781 175.63 122.781H179.019C179.569 122.781 180.014 123.227 180.014 123.777Z" fill="#608570"/>
<path d="M82.4606 38.3662C81.1024 36.2885 79.0234 34.7736 76.613 34.0406C72.7758 32.8737 69.4362 30.1204 67.6495 26.1534C64.4151 18.9713 67.466 10.6446 74.5717 7.23851C81.7576 3.79325 90.377 6.82296 93.8244 14.0046C95.6746 17.8593 95.6593 22.1265 94.1359 25.7851C93.1935 28.0487 93.1524 30.5679 93.922 32.8717L82.4606 38.3662Z" fill="#797979"/>
<path d="M82.4606 38.3662C81.1024 36.2885 79.0234 34.7736 76.613 34.0406C72.7758 32.8737 69.4362 30.1204 67.6495 26.1534C64.4151 18.9713 67.466 10.6446 74.5717 7.2385C81.7576 3.79325 90.377 6.82296 93.8244 14.0046C95.6746 17.8593 95.6593 22.1265 94.1359 25.7851C93.1935 28.0487 93.1524 30.5679 93.922 32.8717L82.4606 38.3662Z" stroke="#256440" stroke-miterlimit="10"/>
<g opacity="0.15">
<path d="M71.0004 24.946C73.5989 30.3598 80.0966 32.6427 85.5137 30.0458C90.9307 27.4489 93.2156 20.9552 90.6171 15.5414C88.0186 10.1277 81.5204 7.84419 76.1033 10.4411C70.6863 13.038 68.402 19.5323 71.0004 24.946Z" fill="white"/>
</g>
<g opacity="0.15">
<path d="M73.8986 23.5556C75.73 27.3706 80.3094 28.9805 84.1268 27.1502C87.9442 25.3198 89.5545 20.7433 87.7231 16.9282C85.8916 13.1131 81.3123 11.5033 77.4949 13.3336C73.6775 15.1639 72.0672 19.7405 73.8986 23.5556Z" fill="white"/>
</g>
<path d="M85.9912 36.7341L81.8262 28.6214C81.6772 28.3313 81.4449 28.092 81.1598 27.9335L77.6377 25.9808C78.4403 25.5962 78.0128 24.7047 78.8154 24.3201C79.6176 23.9356 80.0456 24.8261 80.8477 24.4416C81.6503 24.057 81.2223 23.166 82.0249 22.7814C82.8275 22.3968 83.2555 23.2874 84.0581 22.9028C84.8623 22.5172 84.4343 21.6262 85.2384 21.2406C86.0426 20.8551 86.4696 21.7466 87.2737 21.361L86.5936 25.3285C86.5387 25.6501 86.5804 25.9808 86.7135 26.2785L90.4379 34.6021" stroke="white" stroke-linecap="round" stroke-linejoin="round"/>
<path d="M85.3456 41.988C86.4075 44.2004 89.0624 45.1336 91.2761 44.0723C93.4897 43.0111 94.4235 40.3573 93.3617 38.145C92.2998 35.9327 89.6444 35 87.4307 36.0612C85.217 37.1224 84.2838 39.7757 85.3456 41.988Z" fill="#256440"/>
<path d="M95.1709 31.9173L96.6156 34.9272C97.0451 35.8228 96.6664 36.9008 95.7702 37.3301L84.4289 42.7657C83.5327 43.1949 82.4561 42.82 82.024 41.9209L80.5794 38.911C80.1499 38.0154 80.5286 36.9369 81.4248 36.5076L92.7661 31.072C93.6623 30.6428 94.7389 31.0182 95.1709 31.9173Z" fill="white"/>
<path d="M95.1709 31.9173L96.6156 34.9272C97.0451 35.8228 96.6664 36.9008 95.7702 37.3301L84.4289 42.7657C83.5327 43.1949 82.4561 42.82 82.024 41.9209L80.5794 38.911C80.1499 38.0154 80.5286 36.9369 81.4248 36.5076L92.7661 31.072C93.6623 30.6428 94.7389 31.0182 95.1709 31.9173Z" stroke="#256440" stroke-miterlimit="10"/>
<g opacity="0.717852">
<path d="M71.9308 2.85618L72.7004 4.45914C72.8565 4.78482 73.2473 4.92199 73.5732 4.76602C73.899 4.61003 74.0362 4.21882 73.8802 3.89315L73.1106 2.29019C72.9546 1.96451 72.5637 1.82734 72.2378 1.98331C72.0752 2.06156 71.9598 2.19975 71.9024 2.35573C71.8495 2.51323 71.8525 2.69359 71.9308 2.85618Z" fill="#008037"/>
<path d="M82.1049 0.603937L81.9692 2.37711C81.9418 2.73733 82.2117 3.05131 82.5721 3.07875C82.9324 3.10618 83.2466 2.83691 83.274 2.47669L83.4098 0.703519C83.4372 0.343297 83.1678 0.0293116 82.8074 0.0018754C82.6275 -0.0118388 82.4582 0.0506544 82.3306 0.156841C82.2061 0.26709 82.1186 0.424086 82.1049 0.603937Z" fill="#008037"/>
<path d="M92.04 3.73812L91.0356 5.20594C90.8318 5.50417 90.908 5.91114 91.2064 6.11488C91.5048 6.31861 91.9119 6.2424 92.1158 5.94417L93.1202 4.47686C93.324 4.17862 93.2478 3.77115 92.9494 3.56741C92.8005 3.46529 92.6231 3.4348 92.4594 3.46325C92.2962 3.49628 92.1422 3.58926 92.04 3.73812Z" fill="#008037"/>
<path d="M99.0801 11.4166L97.4764 12.1853C97.1506 12.3413 97.0133 12.7325 97.1694 13.0582C97.3254 13.3839 97.7163 13.5211 98.0421 13.3651L99.6464 12.5959C99.9722 12.4399 100.109 12.0492 99.9534 11.7235C99.8751 11.5609 99.7368 11.4456 99.5808 11.3882C99.4232 11.3353 99.2428 11.3384 99.0801 11.4166Z" fill="#008037"/>
<path d="M63.361 29.9894L64.9647 29.2202C65.2906 29.0642 65.4278 28.6735 65.2717 28.3478C65.1157 28.0221 64.7248 27.885 64.399 28.0409L62.7948 28.8096C62.4689 28.9656 62.3317 29.3568 62.4877 29.6825C62.566 29.8451 62.7043 29.9604 62.8603 30.0178C63.0179 30.0707 63.1984 30.0676 63.361 29.9894Z" fill="#008037"/>
<path d="M61.1115 19.8218L62.8855 19.9574C63.2459 19.9849 63.5601 19.7151 63.5875 19.3548C63.615 18.9946 63.3456 18.6806 62.9852 18.6532L61.2117 18.5175C60.8513 18.4901 60.5366 18.7594 60.5092 19.1196C60.4955 19.2995 60.558 19.4687 60.6642 19.5962C60.7745 19.7207 60.9316 19.808 61.1115 19.8218Z" fill="#008037"/>
<path d="M64.246 9.89124L65.7145 10.8947C66.0129 11.0984 66.4201 11.0227 66.6239 10.7245C66.8277 10.4262 66.7515 10.0188 66.4531 9.81504L64.9851 8.8116C64.6867 8.60786 64.2796 8.68356 64.0758 8.98179C63.9736 9.13067 63.9431 9.30849 63.9716 9.47209C64.0046 9.63518 64.0971 9.78912 64.246 9.89124Z" fill="#008037"/>
</g>
<path d="M104.022 87.9677C103.284 88.1665 102.57 88.3798 101.919 88.7738C98.9713 90.5453 83.4745 103.213 75.236 102.963C74.6429 102.95 74.0798 102.866 73.5501 102.712C70.2372 101.742 66.3803 96.8286 62.9767 91.3618C58.0594 83.4607 54.0929 74.3969 54.0929 74.3969L61.4395 61.4464C70.7423 66.486 74.3214 75.4027 79.9896 84.5995L94.6657 76.3431C95.643 75.9865 96.4586 75.3382 97.2041 74.6183C99.9931 71.9251 108.023 86.8842 104.022 87.9677Z" fill="#797979"/>
<path d="M75.2365 102.963C74.6434 102.95 74.0803 102.866 73.5507 102.712C70.2377 101.742 66.3808 96.8286 62.9772 91.3618C65.1796 84.3447 67.6377 76.6965 67.6377 76.6965C67.6377 76.6965 69.7584 97.2353 75.2365 102.963Z" fill="#595E5B"/>
<path d="M98.2141 76.8219C98.2141 76.8219 105.14 67.9427 107.197 68.1658C108.782 68.3378 107.207 72.7998 107.207 72.7998C107.207 72.7998 120.991 66.3689 121.763 68.0519C122.536 69.7349 114.67 72.7222 114.67 72.7222C114.67 72.7222 116.478 72.5609 116.552 73.8011C116.623 75.0071 115.46 75.2849 115.46 75.2849C115.46 75.2849 116.688 75.1391 117.08 76.0919C117.477 77.0571 116.119 77.7991 116.119 77.7991C116.119 77.7991 117.284 78.2554 116.732 79.4728C115.97 81.1532 106.653 84.7009 105.354 84.9936C104.056 85.2864 103.296 86.7493 103.296 86.7493C101.179 87.8321 96.0968 77.9046 98.2141 76.8219Z" fill="#F1F1EC"/>
<path d="M112.7 73.9987C112.7 73.9987 108.638 75.3309 109.24 77.1003C109.654 78.3147 115.53 75.2653 115.53 75.2653" stroke="#38423C" stroke-miterlimit="10"/>
<path d="M111.306 77.1479C111.306 77.1479 109.572 78.1207 109.843 79.192C110.337 81.1397 116.105 77.6046 116.105 77.6046" stroke="#38423C" stroke-miterlimit="10"/>
<path d="M111.32 79.6298C111.32 79.6298 109.528 80.049 109.834 81.3133C110.139 82.5776 114.443 81.209 114.443 81.209" stroke="#38423C" stroke-miterlimit="10"/>
<path d="M107.202 72.8003C107.202 72.8003 106.568 76.6193 103.813 77.0162" stroke="#38423C" stroke-miterlimit="10"/>
<path d="M76.1431 249.867L63.4105 242.989L59.9728 239.955L46.1021 242.042L46.1128 252.912C45.9969 253.479 46.4254 254 46.9932 254H76.6875C77.1867 254 77.5913 253.596 77.5913 253.097V252.021C77.5913 251.071 77.0235 250.226 76.1431 249.867Z" fill="#595E5B"/>
<path d="M59.9731 239.955L57.9597 228.626L46.0938 232.874L46.1024 242.042C51.7309 244.413 56.8175 243.597 59.9731 239.955Z" fill="#F1F1EC"/>
<path d="M66.7198 245.229C66.7198 245.229 64.9143 245.392 63.9414 247.208" stroke="white" stroke-miterlimit="10"/>
<path d="M69.4962 246.776C69.4962 246.776 67.6907 246.94 66.7178 248.756" stroke="white" stroke-miterlimit="10"/>
<path d="M68.096 234.251C68.096 234.916 67.825 235.518 67.3889 235.954C66.9528 236.39 66.3469 236.661 65.681 236.661H41.2944C39.958 236.661 38.8789 235.582 38.8789 234.251C38.8789 233.581 39.1498 232.98 39.586 232.544C40.0221 232.108 40.6239 231.837 41.2944 231.837H65.681C67.0128 231.837 68.096 232.916 68.096 234.251Z" fill="#53916E"/>
<path d="M15.0945 240.842L16.5523 226.451L18.033 222.113L10.7728 210.118L0.736268 214.307C0.167469 214.418 -0.148696 215.014 0.069369 215.538L11.4855 242.934C11.6771 243.394 12.2068 243.612 12.6673 243.42L13.662 243.006C14.5389 242.641 15.1016 241.792 15.0945 240.842Z" fill="#595E5B"/>
<path d="M18.0289 222.114L27.7193 215.901L22.991 202.917L10.7687 210.119C10.7423 216.224 13.4516 220.603 18.0289 222.114Z" fill="#F1F1EC"/>
<path d="M15.7538 230.366C15.7538 230.366 14.9084 228.763 12.8574 228.563" stroke="white" stroke-miterlimit="10"/>
<path d="M15.3929 233.524C15.3929 233.524 14.5471 231.921 12.4961 231.722" stroke="white" stroke-miterlimit="10"/>
<path d="M27.251 223.649C26.667 223.969 26.0092 224.02 25.417 223.846C24.8248 223.673 24.2962 223.272 23.9765 222.688L12.2717 201.307C11.6302 200.136 12.0587 198.672 13.2268 198.033C13.8149 197.712 14.4726 197.661 15.0648 197.834C15.657 198.007 16.1831 198.405 16.5049 198.992L28.2102 220.373C28.8491 221.541 28.4232 223.008 27.251 223.649Z" fill="#53916E"/>
<path d="M61.1799 107.146L25.5276 108.909C25.767 111.167 27.6447 113.6 28.6024 116.255C32.1372 126.065 65.38 164.427 65.38 164.427L16.5107 198.994L28.2156 220.379C28.2156 220.379 86.8535 189.76 92.3108 170.155C95.2666 159.536 73.1297 123.107 61.1799 107.146Z" fill="#008037"/>
<path d="M33.5782 217.548L18.6182 202.85L28.212 220.374L33.5782 217.548Z" fill="#595E5B"/>
<path d="M49.5441 107.146H21.9785L42.0165 234.747H65.3256L57.4107 170.753L49.5441 107.146Z" fill="#008037"/>
<path d="M64.3451 226.805C64.3451 226.805 45.8213 231.839 46.0968 231.839C46.3723 231.839 64.9678 231.839 64.9678 231.839L64.3451 226.805Z" fill="#595E5B"/>
<path d="M38.309 214.245L33.3906 187.055" stroke="white" stroke-miterlimit="10"/>
<path d="M57.3389 170.17L60.9753 199.572" stroke="white" stroke-miterlimit="10"/>
<path d="M52.0186 127.13L55.3581 154.133" stroke="white" stroke-miterlimit="10"/>
<path d="M65.6874 114.308C64.1736 115.351 62.3381 116.276 60.2551 117.059C50.2012 120.838 34.4772 121.398 22.502 117.144C21.7426 116.878 21.003 116.589 20.2771 116.281C18.0563 115.314 16.505 112.293 19.2188 108.391C19.3657 108.182 19.5223 107.969 19.6931 107.756C20.2812 107.016 19.0907 76.1799 19.2473 72.7992C19.4277 68.8159 20.0443 65.6536 21.4203 64.2358C29.4673 55.9569 46.2725 57.6115 46.2725 57.6115C46.2725 57.6115 61.9864 59.4703 65.5593 65.5114C68.0124 69.6653 63.6902 101.212 65.5832 105.223C65.9105 105.916 66.3472 106.893 66.6887 107.978C67.3912 110.202 67.6754 112.858 65.6874 114.308Z" fill="#797979"/>
<path d="M29.5488 68.5156C29.5488 68.5156 31.2506 70.7442 32.4462 75.1826C33.6417 79.621 36.3749 97.7155 36.3749 97.7155L57.64 104.334H34.9232L29.5488 68.5156Z" fill="#595E5B"/>
<path d="M56.5713 30.5018C56.5713 30.5018 56.2272 36.6512 52.2456 37.6149C48.264 38.5785 47.1523 34.7563 47.1523 34.7563L48.9634 30.0304L52.5567 29.9893" fill="#595E5B"/>
<path d="M34.4863 54.937L36.9013 59.8285L43.7076 60.465L47.4604 61.2804L46.3157 55.3845L46.394 53.9159L46.6064 50.0333L35.049 42.7734C35.0968 43.2819 35.1334 43.7879 35.1598 44.2832C35.4953 50.1867 34.4863 54.937 34.4863 54.937Z" fill="#F1F1EC"/>
<path d="M35.0498 42.7734C35.0976 43.2819 35.1342 43.7879 35.1606 44.2832C35.2338 44.2944 35.304 44.302 35.3736 44.3061C35.5037 44.6099 35.5973 44.9604 35.6577 45.3505C37.2518 50.5656 42.3883 53.892 46.3947 53.9159L46.6072 50.0333L35.0498 42.7734Z" fill="#C1C1C1"/>
<path d="M34.4883 54.9385C35.6899 57.6944 40.1178 59.2194 43.7095 60.4645C43.7095 60.4645 42.7076 66.8064 41.629 66.7967C40.6352 66.7881 31.569 63.6177 31.6351 58.6896C33.0482 57.6558 33.4061 56.3939 34.4883 54.9385Z" fill="#008037"/>
<path d="M43.708 60.4648C43.708 60.4648 45.8027 65.2522 47.2179 65.6342C48.8287 66.0691 50.038 61.555 49.7782 59.1765L46.3161 55.3838C46.6338 57.0226 47.226 58.4729 43.708 60.4648Z" fill="#008037"/>
<path d="M45.9608 52.4416C41.902 52.6697 36.4412 49.292 34.7852 43.8833C34.7267 43.4952 34.6347 43.1431 34.503 42.8393C33.5474 42.7743 32.513 42.1932 31.7607 41.2142C30.5692 39.6598 30.5357 37.6709 31.7007 36.7901C32.3641 36.2821 33.2536 36.2343 34.1325 36.5914C34.7191 30.9023 37.8345 26.5229 41.9167 26.1962C44.6413 25.9783 47.2219 27.6039 49.0844 30.3441C49.3091 30.6732 49.5251 31.0202 49.7264 31.3819C50.8863 33.4449 51.6701 35.9981 51.8852 38.7936C52.4809 46.1332 50.2271 52.1987 45.9608 52.4416Z" fill="#F1F1EC"/>
<path d="M26.8572 43.8081C27.5231 45.3702 28.9957 46.4929 30.608 47.0415C32.3317 47.6201 33.8521 48.6356 35.562 48.0128L35.3765 47.7182C35.3872 46.3257 34.9632 44.9917 34.7818 43.8807C34.7284 43.4957 34.6359 43.1416 34.5037 42.8373C33.5491 42.7728 32.5132 42.1911 31.7609 41.2152C30.5714 39.6552 30.5399 37.6689 31.7009 36.7865C32.3648 36.2775 33.2558 36.2318 34.1296 36.5899C34.1296 36.5899 36.1115 37.6089 35.9992 39.4017L37.3538 39.9046L38.0837 36.6636C38.0837 36.6636 40.3635 35.0903 39.353 33.2528C39.353 33.2528 56.1673 38.2196 56.5607 30.819C56.9542 23.4185 49.2076 25.6897 49.2076 25.6897C49.2076 25.6897 49.8963 24.6306 50.4001 23.2991C51.4121 20.6626 51.715 16.9567 44.5438 18.3476C36.3102 19.9458 33.4744 26.3506 32.5899 29.2915C31.5393 28.9846 30.1943 29.3194 29.3952 30.0382C28.3461 30.9902 28.1849 32.7657 29.0496 33.8863C28.5133 33.1477 27.3579 33.0634 26.5919 33.5556C25.8299 34.0479 25.4238 34.9699 25.3369 35.8757C25.1742 37.5312 25.9926 39.2467 27.3742 40.1662C26.0826 41.2721 26.1959 42.246 26.8572 43.8081Z" fill="#595E5B"/>
<path d="M48.6909 39.835L49.8992 44.3918L47.6377 44.6855L48.6909 39.835Z" fill="#C1C1C1"/>
<path d="M23.5237 62.4756C23.5237 62.4756 16.0719 65.6638 15.7329 76.9384C15.3491 89.6892 21.9368 111.058 25.315 112.822C28.4614 114.465 57.6348 117.089 57.6348 117.089C60.3232 121.371 64.8085 99.6947 57.6348 104.333L35.0486 98.824C35.0486 98.824 32.8207 83.3371 30.6934 72.1251C29.2523 64.5284 23.5237 62.4756 23.5237 62.4756Z" fill="#797979"/>
<path d="M62.4189 107.453C62.4189 107.453 67.6652 103.557 69.7701 104.739C71.875 105.92 65.8841 108.908 65.8841 108.908" fill="#F1F1EC"/>
<path d="M65.3469 123.738L83.3787 126.925C84.6784 127.155 85.9451 126.384 86.336 125.123L93.5555 101.857C94.0232 100.351 93.066 98.7796 91.5106 98.5048L73.4834 95.3186C72.1837 95.089 70.917 95.8602 70.5261 97.1215L63.3066 120.387C62.8389 121.893 63.7961 123.464 65.3469 123.738Z" fill="#256440"/>
<path d="M65.3469 123.738L83.3787 126.925C84.6784 127.155 85.9451 126.384 86.336 125.123L93.5555 101.857C94.0232 100.351 93.066 98.7796 91.5106 98.5048L73.4834 95.3186C72.1837 95.089 70.917 95.8602 70.5261 97.1215L63.3066 120.387C62.8389 121.893 63.7961 123.464 65.3469 123.738Z" stroke="#256440" stroke-miterlimit="10"/>
<path d="M66.2727 123.903L84.305 127.09C85.6047 127.32 86.8709 126.548 87.2618 125.287L94.4818 102.021C94.9495 100.515 93.9923 98.9437 92.4369 98.6689L74.4097 95.4827C73.11 95.2531 71.8433 96.0242 71.4524 97.2856L64.2324 120.551C63.7647 122.057 64.7219 123.628 66.2727 123.903Z" fill="white"/>
<path d="M66.2727 123.903L84.305 127.091C85.345 127.274 86.3692 126.814 86.9294 125.975C86.8008 125.971 86.665 125.957 86.5349 125.934L68.5027 122.747C66.9518 122.472 65.9947 120.902 66.4623 119.396L73.6823 96.13C73.7601 95.8805 73.8735 95.6468 74.0148 95.4421C72.8609 95.4152 71.8016 96.1518 71.4524 97.2862L64.2324 120.552C63.7647 122.058 64.7219 123.629 66.2727 123.903Z" fill="#608570"/>
<path d="M66.2727 123.903L84.305 127.09C85.6047 127.32 86.8709 126.548 87.2618 125.287L94.4818 102.021C94.9495 100.515 93.9923 98.9437 92.4369 98.6689L74.4097 95.4827C73.11 95.2531 71.8433 96.0242 71.4524 97.2856L64.2324 120.551C63.7647 122.057 64.7219 123.628 66.2727 123.903Z" stroke="#256440" stroke-miterlimit="10"/>
<path d="M79.3803 115.155C80.9215 115.428 82.5638 114.429 83.0523 112.926C83.5367 111.423 82.6807 109.987 81.1396 109.715C79.5984 109.442 77.957 110.437 77.4686 111.939C76.9841 113.443 77.8391 114.883 79.3803 115.155Z" fill="#608570"/>
<path d="M79.3803 115.154C80.0909 115.28 80.832 115.137 81.4639 114.786C81.1518 114.829 80.8397 114.826 80.5281 114.771C78.9869 114.498 78.1319 113.058 78.6163 111.555C78.8781 110.753 79.4662 110.095 80.1956 109.701C78.9792 109.867 77.8559 110.743 77.4685 111.938C76.9841 113.442 77.8391 114.882 79.3803 115.154Z" fill="#ECECEC"/>
<path d="M59.8547 106.42L59.8446 106.505L63.6762 107.206C63.6762 107.206 65.4909 106.289 67.8682 106.305C70.2466 106.316 76.5527 106.622 76.635 107.546C76.7758 109.093 71.7558 108.899 70.0758 108.453C70.0758 108.453 76.4149 110.83 76.3443 111.53C76.2751 112.192 70.0783 110.509 69.3057 110.3C70.0112 110.56 75.3149 112.499 74.9688 113.285C74.6201 114.085 68.8823 112.258 68.3115 112.08C68.8055 112.283 73.5709 114.242 73.0128 115.135C72.4216 116.081 66.2132 115.277 66.2132 115.277C66.2132 115.277 64.5937 116.233 63.3041 116.251C62.4537 116.264 60.2446 115.816 58.8295 115.508L58.8208 115.584C56.6727 115.341 57.7066 106.177 59.8547 106.42Z" fill="#F1F1EC"/>
</svg>
