<svg width="220" height="254" viewBox="0 0 220 254" fill="none" xmlns="http://www.w3.org/2000/svg">
<path d="M17.0049 126.093L18.2438 125.727C22.4966 124.47 26.8741 125.798 30.2813 128.382C33.1392 130.55 35.3603 133.583 35.7571 137.28C36.1762 141.186 36.0979 141.638 36.7464 141.794L46.6556 144.17C46.9452 144.239 47.239 144.088 47.387 143.794L48.7968 140.996C50.5196 137.576 54.0115 135.465 57.6371 134.647C61.1931 133.844 64.9141 134.3 67.5555 136.646L69.9732 138.794C70.2087 139.003 70.5311 139.017 70.776 138.829L79.1581 132.404C79.4031 132.216 79.5167 131.867 79.4409 131.536L78.5749 127.744C77.7618 124.184 78.7123 120.49 80.6519 117.246C82.9198 113.453 86.5112 110.293 90.73 109.664L92.1931 109.446C92.4855 109.403 92.7196 109.149 92.7765 108.814L94.7215 97.3505C94.7784 97.0155 94.6452 96.6732 94.39 96.4985L92.6351 95.2963C89.151 92.9094 87.154 88.8685 86.4005 84.5735C85.6513 80.3033 86.1238 75.7513 88.6552 72.0631C89.9895 70.1192 90.1708 69.8689 89.8604 69.3296C84.1945 59.8458 84.3683 58.9438 83.4772 59.2068L82.2386 59.5729C77.9858 60.83 73.6082 59.5024 70.2009 56.9179C67.343 54.75 65.122 51.7174 64.7254 48.0199C64.3067 44.1169 64.3845 43.662 63.7359 43.5061C53.8564 41.3456 53.5493 40.6041 53.0954 41.5056L51.7172 44.2414C49.9749 47.7 46.4437 49.8333 42.7786 50.6685C39.2534 51.4718 35.5433 51.0809 32.9632 48.7089C30.4905 46.4357 30.2443 46.058 29.7062 46.4706C21.5065 53.0019 20.8081 52.7425 21.0413 53.7642L21.8881 57.472C22.7132 61.0849 21.7463 64.8343 19.785 68.1302C17.5442 71.8956 14.024 75.0816 9.83329 75.5993C8.11275 75.8119 7.80693 75.8887 7.70576 76.4865C5.95389 87.8674 5.30519 88.2621 6.09216 88.8016L7.84707 90.0039C11.3312 92.3908 13.3283 96.4315 14.0818 100.726C14.831 104.997 14.3581 109.549 11.8253 113.236C10.4973 115.17 10.3108 115.429 10.6218 115.971C16.2877 125.454 16.1139 126.356 17.0049 126.093Z" fill="#797979"/>
<path d="M43.3155 126.032C41.6489 125.551 40.0194 124.906 38.457 124.108C37.9873 123.868 37.7434 123.276 37.8578 122.72C37.8715 122.654 37.8903 122.588 37.9145 122.523C38.1404 121.917 38.7516 121.644 39.2755 121.911C41.0724 122.829 42.9661 123.529 44.9029 123.995C59.4942 127.493 73.7046 116.965 77.1265 100.389C77.2138 99.9654 77.294 99.5381 77.3673 99.1072C80.3221 81.6909 70.4955 64.7934 55.5563 61.2064C40.638 57.6292 26.0461 68.7242 23.0919 86.0935C21.3383 96.4333 24.457 102.751 24.2361 103.821C23.9974 104.977 22.6013 105.048 22.2537 103.926C20.3541 97.7996 19.9289 90.9566 21.3178 84.2282C27.3115 55.1964 60.5164 48.6798 74.9052 73.6841C79.3335 81.3787 80.9299 90.5806 79.4001 99.5948C79.3212 100.061 79.234 100.524 79.1394 100.984C77.4022 109.403 73.0576 116.617 66.8077 121.408C60.2165 126.46 52.2954 128.214 44.5037 126.346C44.106 126.251 43.7094 126.146 43.3155 126.032Z" fill="white"/>
<path d="M84.5953 55.8954L85.5367 56.052C88.7682 56.5897 91.4756 58.952 93.2167 61.8612C94.6771 64.3016 95.494 67.1283 94.895 69.8109C94.2622 72.6447 94.1015 72.9308 94.5123 73.2524L100.79 78.1661C100.973 78.3096 101.211 78.3026 101.383 78.1486L103.016 76.6832C105.013 74.8923 107.921 74.5893 110.616 75.2226C113.259 75.8438 115.719 77.3876 116.988 79.8795L118.149 82.1604C118.263 82.3824 118.482 82.4987 118.695 82.4502L125.996 80.7854C126.21 80.7368 126.37 80.5338 126.396 80.2799L126.694 77.3773C126.973 74.6518 128.501 72.4165 130.605 70.8187C133.065 68.9506 136.29 67.957 139.349 68.9169L140.41 69.2498C140.622 69.3164 140.844 69.2184 140.962 69.0061L145.01 61.7381C145.129 61.5258 145.118 61.2456 144.983 61.0407L144.056 59.6314C142.215 56.833 141.79 53.3846 142.284 50.1717C142.775 46.9774 144.176 43.9924 146.793 42.2837C148.173 41.383 148.357 41.2703 148.27 40.7955C146.599 32.3789 146.932 31.8139 146.255 31.701L145.314 31.5444C142.082 31.0067 139.375 28.6441 137.633 25.7349C136.173 23.2947 135.356 20.4682 135.955 17.7858C136.588 14.9539 136.749 14.6657 136.338 14.3438C130.03 9.58876 129.994 8.97549 129.467 9.44766L127.871 10.8802C125.852 12.6912 122.912 12.9966 120.185 12.3621C117.563 11.7517 115.095 10.2561 113.874 7.76689C112.705 5.38119 112.624 5.03918 112.155 5.14609C104.955 6.94398 104.534 6.53423 104.454 7.31635L104.163 10.1549C103.88 12.9206 102.328 15.1885 100.196 16.8149C97.7609 18.6729 94.5797 19.7084 91.5656 18.6811C90.328 18.2593 90.0988 18.2113 89.888 18.5903C85.9925 25.8652 85.4516 25.9233 85.8674 26.5556L86.7947 27.9651C88.6355 30.7634 89.0598 34.2115 88.566 37.4243C88.075 40.6187 86.6741 43.604 84.0558 45.3117C82.683 46.2071 82.4931 46.3246 82.5799 46.8008C84.2512 55.2173 83.9183 55.7825 84.5953 55.8954Z" fill="#797979"/>
<path d="M102.763 64.543C101.726 63.66 100.754 62.6767 99.8642 61.61C99.5966 61.2893 99.568 60.8003 99.7783 60.4543C99.8035 60.4131 99.8319 60.3739 99.8638 60.3374C100.163 59.9934 100.649 60.0067 100.948 60.3644C101.971 61.5913 103.113 62.6999 104.339 63.6614C113.582 70.8964 125.874 68.3263 132.148 58.0184C132.308 57.7551 132.464 57.4867 132.617 57.2135C138.767 46.1712 135.975 31.2639 126.512 23.8527C117.062 16.4552 104.373 19.2904 98.2344 30.3006C94.5836 36.8563 95.2446 42.2461 94.8395 42.9117C94.4017 43.6309 93.4216 43.2184 93.4465 42.3295C93.5819 37.474 94.9038 32.6114 97.4505 28.4271C108.44 10.3733 132.892 16.8473 136.919 38.8563C138.158 45.6292 137.088 52.5066 133.904 58.2216C133.74 58.5174 133.57 58.8081 133.397 59.0942C130.21 64.3301 125.51 67.8724 120.066 69.1139C114.325 70.4227 108.444 69.0158 103.509 65.1523C103.257 64.9551 103.008 64.7518 102.763 64.543Z" fill="white"/>
<path d="M157.582 81.7217L158.508 81.4479C161.688 80.508 164.961 81.5005 167.509 83.433C169.646 85.054 171.307 87.3216 171.603 90.0863C171.917 93.0068 171.858 93.3448 172.343 93.4611L179.752 95.2378C179.969 95.2896 180.189 95.1768 180.299 94.9571L181.354 92.8645C182.642 90.3072 185.253 88.7288 187.964 88.1171C190.622 87.5171 193.405 87.8577 195.38 89.6122L197.187 91.218C197.364 91.3743 197.605 91.3849 197.788 91.2447L204.055 86.44C204.238 86.2995 204.323 86.039 204.267 85.7911L203.619 82.956C203.011 80.294 203.722 77.5317 205.172 75.1062C206.868 72.27 209.553 69.9076 212.708 69.4374L213.802 69.2743C214.02 69.2418 214.195 69.0519 214.238 68.8014L215.692 60.2301C215.735 59.9795 215.635 59.7237 215.444 59.593L214.132 58.6941C211.527 56.9094 210.034 53.888 209.47 50.6766C208.91 47.4836 209.264 44.0799 211.156 41.3221C212.154 39.8687 212.29 39.6816 212.058 39.2784C207.821 32.1871 207.951 31.5127 207.285 31.7093L206.359 31.983C203.179 32.923 199.905 31.9303 197.358 29.9977C195.221 28.3769 193.56 26.1094 193.264 23.3448C192.951 20.4263 193.009 20.0861 192.524 19.9696C185.137 18.3542 184.907 17.7996 184.568 18.4738L183.537 20.5195C182.234 23.1055 179.594 24.7006 176.854 25.3251C174.218 25.9257 171.444 25.6334 169.515 23.86C167.666 22.1602 167.481 21.8778 167.079 22.1863C160.948 27.0699 160.426 26.8759 160.6 27.6398L161.233 30.4122C161.85 33.1136 161.127 35.9172 159.661 38.3816C157.985 41.197 155.353 43.5792 152.22 43.9663C150.933 44.1252 150.705 44.1827 150.629 44.6296C149.319 53.1394 148.834 53.4345 149.422 53.8379L150.735 54.7368C153.34 56.5216 154.833 59.5429 155.396 62.7544C155.957 65.9473 155.603 69.3512 153.709 72.1083C152.716 73.5539 152.577 73.748 152.809 74.1526C157.046 81.2439 156.916 81.9184 157.582 81.7217Z" fill="#797979"/>
<path d="M177.255 81.6746C176.009 81.3146 174.79 80.8324 173.622 80.2359C173.271 80.0565 173.088 79.6141 173.174 79.1983C173.184 79.1486 173.198 79.0995 173.216 79.0512C173.385 78.5976 173.842 78.3934 174.234 78.5934C175.578 79.2794 176.994 79.8027 178.442 80.1511C189.352 82.7669 199.977 74.8948 202.536 62.5007C202.601 62.1842 202.661 61.8647 202.716 61.5424C204.925 48.52 197.578 35.8853 186.407 33.2033C175.253 30.5286 164.342 38.8244 162.133 51.8118C160.822 59.543 163.154 64.2667 162.989 65.0669C162.81 65.9317 161.766 65.9844 161.506 65.1458C160.086 60.5646 159.768 55.4481 160.807 50.4171C165.288 28.7095 190.116 23.837 200.875 42.5332C204.186 48.2866 205.38 55.167 204.236 61.907C204.177 62.2556 204.112 62.6019 204.041 62.9457C202.742 69.2409 199.494 74.6346 194.82 78.2172C189.892 81.995 183.969 83.3062 178.143 81.9093C177.846 81.8381 177.549 81.7597 177.255 81.6746Z" fill="white"/>
<path d="M137.998 98.3897C137.957 97.8643 137.864 97.1804 137.967 96.663C137.979 96.6041 137.983 96.5453 137.978 96.4869C137.893 95.4057 134.99 94.8416 131.493 95.2269C127.997 95.6123 125.231 96.8012 125.316 97.8824C125.358 98.408 125.451 99.0917 125.347 99.6093C125.336 99.6682 125.332 99.7268 125.336 99.7852C125.378 100.311 125.471 100.995 125.367 101.512C125.356 101.571 125.352 101.63 125.356 101.688C125.398 102.214 125.491 102.897 125.387 103.415C125.376 103.474 125.372 103.532 125.376 103.591C125.396 103.843 125.57 104.067 125.869 104.258C126.445 104.625 126.934 105.171 126.988 105.854C127.146 107.846 129.058 109.382 131.566 109.345C134.074 109.308 136.222 107.144 136.226 105.143C136.227 104.369 136.685 103.675 137.321 103.231C137.803 102.895 138.066 102.54 138.038 102.195C137.997 101.67 137.904 100.986 138.007 100.469C138.019 100.41 138.023 100.351 138.018 100.293C137.977 99.7671 137.884 99.0831 137.987 98.5657C137.999 98.5068 138.003 98.4481 137.998 98.3897Z" fill="#878787"/>
<path d="M129.973 105.073C128.934 105.088 127.982 105.012 127.194 104.845C127.148 104.836 127.118 104.784 127.126 104.73C127.134 104.676 127.178 104.64 127.224 104.65C128.456 104.91 130.099 104.947 131.85 104.754C133.283 104.596 134.621 104.303 135.72 103.906C135.765 103.89 135.812 103.919 135.825 103.972C135.839 104.024 135.814 104.08 135.769 104.096C134.659 104.497 133.309 104.793 131.866 104.952C131.215 105.024 130.58 105.064 129.973 105.073Z" fill="#F2F2F2"/>
<path d="M129.969 103.167C128.619 103.187 127.41 103.054 126.556 102.78C126.511 102.765 126.485 102.711 126.497 102.658C126.509 102.605 126.555 102.573 126.6 102.588C127.817 102.979 129.772 103.076 131.828 102.85C133.863 102.626 135.757 102.109 136.895 101.467C136.937 101.444 136.987 101.465 137.007 101.514C137.027 101.564 137.01 101.623 136.968 101.647C135.812 102.298 133.897 102.822 131.844 103.048C131.203 103.118 130.572 103.158 129.969 103.167Z" fill="#F2F2F2"/>
<path d="M129.933 101.266C128.475 101.287 127.197 101.13 126.335 100.807C126.291 100.791 126.266 100.735 126.28 100.683C126.294 100.63 126.341 100.601 126.386 100.618C127.586 101.066 129.614 101.19 131.81 100.948C133.844 100.723 135.738 100.207 136.877 99.5649C136.919 99.5414 136.969 99.5624 136.989 99.6119C137.009 99.6615 136.991 99.7209 136.949 99.7445C135.794 100.396 133.879 100.919 131.826 101.146C131.175 101.217 130.539 101.257 129.933 101.266Z" fill="#F2F2F2"/>
<path d="M129.924 99.3625C128.767 99.3795 127.714 99.2844 126.894 99.0814C126.848 99.0703 126.819 99.0176 126.829 98.9638C126.838 98.9099 126.883 98.8755 126.928 98.8868C128.161 99.1921 129.933 99.2497 131.789 99.0452C133.805 98.8229 135.69 98.3115 136.83 97.6771C136.872 97.6536 136.922 97.675 136.942 97.7247C136.962 97.7745 136.944 97.8337 136.902 97.8571C135.745 98.5009 133.839 99.019 131.805 99.2432C131.162 99.3141 130.529 99.3536 129.924 99.3625Z" fill="#F2F2F2"/>
<path d="M122.87 89.0063C122.426 87.2314 121.687 85.5772 120.699 84.1416C118.583 81.0655 115.117 74.7972 114.608 66.1801C113.868 53.6461 123.205 47.2281 131.794 47.9544C140.383 48.6806 148.928 56.1143 148.124 67.7967C147.629 74.9848 144.29 80.4808 141.794 83.6456C140.209 85.6553 139.089 88.1046 138.496 90.7626C137.771 94.0157 136.008 98.0825 131.717 98.392C126.165 98.7923 123.794 92.7002 122.87 89.0063Z" fill="#008037"/>
<path d="M133.111 95.87L135.87 72.7246C135.927 72.2464 136.122 71.9229 136.306 72.002C136.49 72.0812 136.592 72.5332 136.535 73.0113C136.534 73.0241 136.532 73.0398 136.53 73.0523L133.351 95.9893C133.327 96.1617 133.254 96.2715 133.188 96.2345C133.125 96.1985 133.091 96.0369 133.111 95.87Z" fill="#8CC63F"/>
<path d="M129.998 96.1009L126.753 73.0438C126.686 72.5674 126.484 72.2499 126.302 72.3345C126.12 72.419 126.027 72.8738 126.094 73.3501C126.096 73.3627 126.098 73.3784 126.1 73.391L129.76 96.2273C129.788 96.399 129.863 96.5066 129.928 96.4677C129.991 96.4298 130.021 96.2673 129.998 96.1009Z" fill="#8CC63F"/>
<path d="M135.825 70.7418C135.747 70.5979 135.57 70.5462 135.429 70.6266C134.576 71.1138 133.494 70.6884 133.205 69.752L133.167 69.6277C133.135 69.5261 133.063 69.4367 132.961 69.3887C132.768 69.2977 132.538 69.3851 132.449 69.5836L132.446 69.5899C131.976 70.6347 130.467 70.5506 130.124 69.4606L129.783 68.373L129.78 68.3659C129.748 68.2634 129.681 68.1718 129.585 68.1112C129.369 67.9762 129.087 68.0462 128.955 68.2676L127.066 71.4262C126.989 71.5555 127.018 71.7269 127.138 71.8201C127.266 71.9194 127.449 71.8932 127.546 71.7615C128.272 70.7791 129.792 70.9752 130.236 72.1085L130.78 73.4968L130.782 73.4999C130.807 73.5638 130.853 73.6193 130.918 73.6536C131.061 73.7307 131.239 73.6735 131.315 73.5258L132.063 72.0648C132.335 71.535 133.102 71.5664 133.324 72.1164L133.329 72.129C133.333 72.139 133.338 72.149 133.343 72.1588C133.421 72.3026 133.598 72.3541 133.738 72.2738L135.711 71.1478C135.852 71.0676 135.903 70.8857 135.825 70.7418Z" fill="white"/>
<path d="M141.827 80.6667C141.748 80.6679 141.668 80.6404 141.599 80.5811C141.429 80.4354 141.391 80.1535 141.514 79.9515C142.017 79.1294 142.476 78.2803 142.88 77.4285C142.983 77.2114 143.215 77.134 143.399 77.2558C143.583 77.3777 143.648 77.6523 143.545 77.8696C143.127 78.7516 142.651 79.6299 142.132 80.4802C142.058 80.6005 141.944 80.665 141.827 80.6667Z" fill="white"/>
<path d="M144.246 75.615C144.195 75.6157 144.144 75.6045 144.094 75.5799C143.9 75.4836 143.808 75.2192 143.89 74.9896C146.971 66.2995 144.159 59.085 144.13 59.0131C144.04 58.7881 144.121 58.5191 144.312 58.4126C144.503 58.3063 144.729 58.4021 144.819 58.6272C144.943 58.9354 147.805 66.2808 144.593 75.3386C144.532 75.5095 144.393 75.6128 144.246 75.615Z" fill="white"/>
<path d="M83.4875 237.946C82.4676 237.739 81.4836 238.424 81.3464 239.456C81.1922 240.616 81.0047 242.172 80.8776 243.721C80.7793 244.918 81.5516 245.967 82.5669 246.029C86.0161 246.238 93.3946 246.652 96.0443 246.542C96.4427 246.525 96.7068 246.046 96.563 245.606C96.4425 245.238 96.2067 244.938 95.9045 244.77L84.0139 238.141C83.8495 238.049 83.672 237.984 83.4875 237.946Z" fill="black"/>
<path d="M82.7582 235.481C81.9085 235.629 81.3148 236.405 81.394 237.264L81.4718 238.109C81.5492 238.95 82.034 239.739 82.8646 239.892C83.1441 239.944 83.4509 239.971 83.7644 239.944C84.7359 239.863 85.07 238.756 84.8736 237.801L84.6632 236.778C84.483 235.902 83.6394 235.328 82.7582 235.481Z" fill="#FFC09D"/>
<path d="M77.2761 166.049C79.8011 166.078 81.9926 168.385 81.9444 170.909C81.7014 183.624 81.5983 218.285 84.9449 235.615C85.0118 235.961 84.8607 236.316 84.5814 236.448C83.9233 236.757 82.6344 237.201 81.0938 237.245C80.6167 237.259 80.192 236.887 80.0619 236.344C78.8798 231.412 73.2242 206.702 72.6503 183.153C72.009 156.838 72.6576 182.257 72.6576 182.257L73.1344 169.987C73.2206 167.769 75.0568 166.023 77.2761 166.049Z" fill="black"/>
<path d="M69.2298 239.146C68.2334 239.071 67.3134 239.624 67.0301 240.582C66.7606 241.493 66.4216 242.841 66.083 244.723C65.9483 245.472 66.3857 246.195 67.029 246.277C68.1674 246.422 69.92 246.613 71.3252 246.617C71.9729 246.619 72.4838 245.958 72.4118 245.196C72.29 243.906 71.9361 241.912 70.9234 240.142C70.5777 239.538 69.9239 239.199 69.2298 239.146Z" fill="black"/>
<path d="M68.5399 234.157C67.6956 234.209 67.076 234.971 67.1987 235.808L67.6716 239.034C67.7504 239.57 67.5657 239.779 68.0478 240.028C68.9983 240.519 70.3023 239.35 70.2376 238.282L70.0696 235.511C70.0213 234.715 69.3363 234.109 68.5399 234.157ZM66.9571 235.752C66.9648 234.802 67.742 234.04 68.6912 234.051C69.6361 234.061 70.3944 234.834 70.3868 235.779L70.3614 238.947C70.3538 239.896 69.5764 240.659 68.6272 240.648C67.6823 240.637 66.9241 239.864 66.9317 238.919L66.9571 235.752Z" fill="#7F7F7F"/>
<path d="M71.7121 166.448C67.8306 166.992 64.7479 170.022 64.3853 173.924C62.1205 198.3 65.5432 229.672 66.8034 236.267C66.8876 236.708 67.1852 237.048 67.5616 237.127C68.201 237.259 69.2545 237.374 70.2968 237.028C70.6559 236.909 70.9106 236.53 70.9287 236.089C71.1681 230.28 71.1094 194.596 74.4802 180.533C74.651 179.82 75.0248 179.201 75.5387 178.777L80.1718 174.959C81.2766 174.048 81.9556 172.721 82.0478 171.292C82.2592 168.015 79.4081 165.37 76.1557 165.825L71.7121 166.448Z" fill="black"/>
<path d="M87.8211 120.326C83.4852 120.193 78.9587 120.685 75.1424 121.307C69.3644 122.25 65.1385 127.037 64.6554 132.871C63.8091 143.093 63.9426 153.151 64.238 160.174C64.4828 165.995 71.6775 171.161 77.3588 169.87C82.2424 168.759 82.5991 165.403 83.669 160.511C85.1968 153.524 87.338 144.806 88.7034 139.349C89.4956 136.183 92.1739 133.931 95.295 132.978C96.1865 132.706 97.045 132.4 97.8717 132.065C100.724 130.907 101.087 126.805 100.026 123.916C98.8823 120.806 95.6982 119.478 92.4261 120.001C90.8198 120.258 89.268 120.371 87.8211 120.326Z" fill="#008037"/>
<path d="M66.5784 137.748C68.2693 136.202 69.1782 133.833 68.4691 131.655L68.2823 131.081C67.0576 127.319 62.5356 126.051 60.0591 129.137C58.2316 131.414 56.3795 134.242 55.207 137.404C54.4983 139.315 55.2415 141.067 57.2189 141.561C59.6431 142.167 63.4663 141.137 65.1049 139.25C65.5811 138.702 66.0853 138.198 66.5784 137.748Z" fill="#008037"/>
<path d="M118.932 103.973C119.08 103.219 118.525 101.944 117.763 101.832C116.824 101.695 116.721 102.5 116.419 103.397C114.597 108.801 109.556 113.281 103.729 116.245C100.838 117.715 98.7337 120.201 99.7465 123.294C100.845 126.65 105.149 128.104 107.678 125.661C115.607 118.003 118.247 107.459 118.932 103.973Z" fill="#C78976"/>
<path d="M120.76 101.905C120.095 102.855 118.045 103.954 117.332 103.056C117.192 102.879 117.005 102.41 116.984 102.185C116.878 101.033 116.538 98.2724 116.884 97.6858C118.251 95.3712 120.486 92.6513 121.845 91.0732C122.46 90.359 123.162 91.3705 123.162 91.3705L123.047 91.5197C121.919 92.9752 121.998 94.8338 122.428 96.6099C122.626 97.4275 122.532 98.3095 122.195 99.0676C121.857 99.8285 121.395 100.818 120.955 101.595C120.892 101.706 120.827 101.809 120.76 101.905Z" fill="#C78976"/>
<path d="M120.564 96.9189C120.978 96.0791 119.899 96.008 119.252 96.6869L118.985 96.9676C118.705 97.2618 118.499 97.6186 118.386 98.0076L118.156 98.7918C118.071 99.0843 118.132 99.3986 118.32 99.6348C118.833 100.278 119.886 99.9806 120.027 99.164C120.188 98.234 120.385 97.2814 120.564 96.9189Z" fill="#C78976"/>
<path d="M79.052 148.887C78.5989 147.865 77.3369 147.472 76.3405 147.979C73.0249 149.665 66.1652 152.378 63.4397 147.672C63.4027 147.608 63.367 147.544 63.3327 147.48C62.2548 145.47 60.8315 142.688 58.6645 141.978C55.8618 141.06 53.7131 143.336 54.1514 146.253C54.361 147.647 54.7667 149.063 55.4106 150.489C60.8289 162.486 74.5057 153.873 78.5051 151.005C79.1769 150.523 79.387 149.643 79.052 148.887Z" fill="#C78976"/>
<path d="M75.9343 158.363L81.951 133.504C82.0193 133.222 82.2228 133.016 82.4693 132.982C83.5594 132.832 86.7182 132.409 90.3653 132.044C94.7584 131.604 99.8602 131.248 102.909 131.551C103.342 131.594 103.604 132.137 103.411 132.598C101.678 136.747 94.5467 153.627 90.9756 159.156C90.8573 159.339 90.6743 159.446 90.4795 159.444L76.5196 159.291C76.1134 159.286 75.8225 158.825 75.9343 158.363Z" fill="black"/>
<path d="M81.8372 150.056C79.2535 148.064 76.3373 150.209 76.8566 146.988C76.8655 146.934 76.8756 146.882 76.887 146.833C77.2251 145.386 77.8802 143.526 80.0636 143.939C81.798 144.268 83.7797 145.022 84.5215 145.318C84.703 145.391 84.8142 145.572 84.7678 145.762C84.7009 146.036 84.556 146.419 84.2477 146.647C84.0266 146.81 83.7669 147.389 83.9696 147.575C84.0278 147.628 84.0579 147.705 84.0416 147.782C84.0117 147.924 83.9422 148.16 83.7901 148.342C83.5935 148.577 83.1788 149.231 83.3652 149.474C83.4297 149.558 83.4414 149.672 83.3825 149.76C83.1805 150.063 82.6384 150.673 81.8372 150.056Z" fill="#C78976"/>
<path d="M82.6968 140.586C82.663 140.722 82.52 140.799 82.388 140.753C82.2722 140.712 82.2063 140.59 82.236 140.471L83.4085 135.765C83.6083 134.964 84.1546 134.363 84.8339 134.196C88.4139 133.311 97.3865 133.076 99.1041 133.039C99.2578 133.035 99.3783 133.158 99.3803 133.312C99.3823 133.465 99.2622 133.591 99.1093 133.595C97.4202 133.633 88.4194 133.878 84.9298 134.739C84.42 134.865 84.0096 135.318 83.8587 135.922L82.6968 140.586Z" fill="#4D4D4D"/>
<path d="M80.0306 110.174C78.4093 110.156 76.9714 111.212 76.5036 112.765L73.8681 121.51C73.8115 121.698 73.8754 121.908 74.0225 122.007C74.9263 122.611 78.186 124.366 82.1547 121.452C82.5681 121.148 82.8519 120.649 82.9189 120.078L83.6053 114.24C83.8578 112.092 82.1932 110.199 80.0306 110.174Z" fill="#C78976"/>
<path d="M81.0596 101.195C83.4601 100.59 85.9735 101.94 86.6518 104.359C87.3831 106.968 88.0703 110.13 87.7055 111.836C87.1359 114.502 83.9814 114.52 80.7827 112.745C79.3872 111.971 78.5402 110.519 78.1701 108.971L77.6704 106.88C77.0637 104.341 78.5638 101.825 81.0596 101.195Z" fill="#C78976"/>
<path d="M79.2122 107.071C79.3784 107.002 79.4535 106.776 79.3692 106.593C79.3138 106.473 79.2482 106.325 79.1783 106.159C78.6007 104.784 78.8324 103.216 80.2766 102.95C82.6469 102.514 86.1843 101.824 87.073 99.5519C87.9397 97.3368 86.4648 91.4169 83.1735 95.7066C83.0483 95.8699 82.8261 95.8526 82.7248 95.6675C82.2878 94.869 81.1106 93.1853 79.2636 93.961C77.5351 94.6869 77.2485 96.115 77.2216 96.8461C77.2137 97.0611 77.0403 97.2123 76.8649 97.1551C76.0346 96.8842 74.022 96.5273 72.9096 98.893C71.9934 100.842 72.4208 102.035 72.8431 102.639C72.9799 102.835 72.8941 103.128 72.6844 103.182C72.1164 103.33 71.3629 103.817 71.3295 105.361C71.2834 107.494 73.3033 107.499 73.8813 107.456C73.976 107.45 74.0678 107.497 74.1255 107.586C74.5716 108.274 76.593 111.209 78.9599 111.766C79.1648 111.814 79.3417 111.588 79.2898 111.348L78.4988 107.693C78.4621 107.524 78.5413 107.349 78.681 107.291L79.2122 107.071Z" fill="#1A1A1A"/>
<path d="M79.7142 107.907C79.6334 107.715 79.5147 107.541 79.3567 107.405C78.7353 106.868 77.0786 105.594 76.8267 107.017C76.6126 108.226 77.7178 109.095 78.8508 109.343C79.6464 109.516 80.0323 108.663 79.7142 107.907Z" fill="#C78976"/>
<path d="M65.95 182.668L61.4172 184.186L60.9698 184.354C60.4237 184.56 60.1849 185.205 60.4686 185.708C60.6412 186.013 60.972 186.194 61.3249 186.174L66.723 185.877C68.2858 185.791 68.8663 183.759 67.5743 182.897C67.2222 182.662 66.824 182.553 66.4267 182.576C66.2666 182.585 66.1067 182.616 65.95 182.668Z" fill="#FFC09D"/>
<path d="M52.9128 245.237C51.0263 245.237 49.6578 245.142 48.664 245.004C47.7983 244.884 47.1706 245.825 48.0446 245.825H61.5975C62.3642 245.825 61.6644 244.896 60.8999 244.954C59.1167 245.089 56.3746 245.237 52.9128 245.237Z" fill="black"/>
<path d="M61.94 244.869C62.0961 244.855 62.21 244.699 62.1235 244.569C61.0912 243.009 59.0172 240.56 56.1961 240.607C53.5853 240.651 52.0489 240.878 50.4616 240.897C48.7327 240.916 47.0807 241.933 46.6535 243.608C46.5147 244.153 46.9302 244.643 47.475 244.781C48.4617 245.031 50.1197 245.238 52.9144 245.238C57.1406 245.238 60.2943 245.017 61.94 244.869Z" fill="black"/>
<path d="M50.0542 237.809C49.1007 237.601 48.1549 238.189 47.9195 239.136L47.8252 239.515C47.5822 240.493 48.0421 241.541 49.0388 241.69C49.3687 241.74 49.7289 241.76 50.0995 241.725C50.8659 241.652 51.3353 240.933 51.4193 240.168L51.4632 239.768C51.5639 238.851 50.9559 238.005 50.0542 237.809Z" fill="#FFC09D"/>
<path d="M27.2685 196.422C27.9986 195.417 29.1975 194.872 30.4328 195.004C36.1069 195.61 52.2292 197.487 56.0882 199.636C60.2271 201.941 54.1135 230.637 52.5819 237.511C52.3711 238.458 52.6887 238.951 51.7398 239.15C50.1782 239.477 48.2354 237.56 48.3875 235.972C48.8714 230.916 49.8208 219.834 49.6495 212.283C49.5555 208.142 46.3819 205.204 42.315 204.417L29.4393 201.925C26.92 201.438 25.7605 198.498 27.2685 196.422Z" fill="black"/>
<path d="M19.6585 194.658C16.6569 194.608 13.8825 196.529 13.915 199.531C13.9571 203.441 16.6143 206.614 19.9158 206.809L47.0301 208.272C47.6027 208.303 48.0872 208.772 48.2307 209.428C48.8678 212.344 51.9821 221.298 67.2059 239.165C67.6109 239.64 68.242 239.721 68.7242 239.36L70.8913 237.741C71.1188 237.571 71.1914 237.218 71.0555 236.943L55.2682 205.048C54.439 203.429 53.1061 202.26 51.5559 201.791L30.4493 195.408C29.1203 195.006 27.7418 194.79 26.3535 194.768L19.6585 194.658Z" fill="black"/>
<path d="M16.0925 184.897C14.6123 190.505 16.4295 195.854 22.2282 195.732C25.0504 195.673 29.2721 193.485 30.8005 191.111C31.4452 190.11 32.1879 188.965 32.9838 187.75C37.1417 181.407 46.5031 182.129 53.3098 185.474C55.3915 186.497 57.7753 187.314 60.4734 187.742C61.0545 187.834 61.6144 187.493 61.8225 186.943C62.0487 186.345 61.8041 185.67 61.2601 185.334C58.5638 183.669 50.9262 178.435 48.2353 171.11C44.9441 162.152 43.6222 158.331 40.628 155.993C38.7633 154.538 37.6467 153.543 37.0697 153C36.7537 152.703 36.3178 152.669 35.973 152.918C33.2065 154.912 21.5148 164.354 16.0925 184.897Z" fill="#008037"/>
<path d="M41.6109 174.801C41.4699 174.801 41.3306 174.726 41.2382 174.584C38.9071 170.988 37.6088 167.024 37.5547 166.857C37.4619 166.571 37.5827 166.25 37.8248 166.14C38.0673 166.03 38.3383 166.173 38.4314 166.459C38.4442 166.499 39.7379 170.444 41.9832 173.908C42.1409 174.151 42.1022 174.499 41.8963 174.687C41.8113 174.764 41.7107 174.801 41.6109 174.801Z" fill="#139B5A"/>
<path d="M76.3857 242.997C74.8183 244.448 73.6504 245.396 72.7805 246.011C72.0349 246.538 72.1862 247.627 72.8563 247.007L83.5314 237.129C84.0928 236.609 83.1092 236.343 82.5829 236.898C81.2508 238.303 79.1486 240.441 76.3857 242.997Z" fill="#4D4D4D"/>
<path d="M83.3407 236.09C83.4396 235.983 83.4315 235.803 83.2911 235.762C81.6698 235.292 78.7669 234.884 76.5692 236.977C74.4457 238.999 73.3486 240.326 72.0372 241.538C70.7245 242.751 70.0499 244.58 70.6079 246.285C70.7695 246.778 71.3597 246.892 71.8095 246.637C72.7137 246.124 74.139 245.077 76.3842 242.999C79.7484 239.886 82.1332 237.395 83.3407 236.09Z" fill="black"/>
<path d="M69.0961 237.355C68.2628 237.788 67.8534 239.035 68.2217 239.902C68.4129 240.352 68.6181 240.843 68.8123 241.312C69.3099 242.512 70.6895 243.237 71.6546 242.375C71.7489 242.291 71.8395 242.2 71.9246 242.104C72.4013 241.563 72.3017 240.774 72.0042 240.114L71.0716 238.046C70.7314 237.291 69.8281 236.976 69.0961 237.355Z" fill="#FFC09D"/>
<path d="M66.7592 183.123L62.1715 184.389L61.7182 184.532C61.1643 184.708 60.9003 185.339 61.1638 185.856C61.3242 186.172 61.648 186.37 62.0017 186.37L67.4035 186.371C68.9692 186.371 69.6299 184.374 68.3727 183.442C68.0303 183.187 67.6368 183.056 67.239 183.057C67.0787 183.057 66.9178 183.079 66.7592 183.123Z" fill="#FFC09D"/>
<path d="M43.8522 147.228C42.6306 146.017 40.5598 146.364 39.7053 147.857C39.1091 148.899 38.3887 150.077 37.6083 151.186C36.614 152.598 36.8409 154.664 38.2822 155.616C39.8821 156.672 42.0874 155.789 42.8318 154.022C43.1428 153.284 43.5157 152.523 43.9537 151.822C44.8189 150.438 45.0115 148.377 43.8522 147.228Z" fill="#FFC09D"/>
<path d="M38.3544 139.988C41.4771 135.806 48.8349 139.386 49.4728 144.613C49.8499 147.704 50.5653 149.66 47.5763 150.602C44.5874 151.543 41.8974 150.02 40.2822 147.07C40.2822 147.07 37.7574 142.529 38.0991 140.526C38.129 140.351 38.2176 140.171 38.3544 139.988Z" fill="#FFC09D"/>
<path d="M41.1542 144.738C41.3401 144.719 41.4493 144.519 41.3714 144.347C40.9458 143.409 39.9253 140.871 41.0107 140.207C42.3499 139.389 47.7541 137.489 48.7698 135.055C49.7488 132.709 48.5142 129.938 46.9271 129.292C46.8267 129.251 46.7168 129.317 46.6756 129.433L46.5701 129.729C46.4979 129.932 46.2536 129.928 46.1864 129.723C46.1226 129.528 45.8917 129.508 45.8119 129.694C45.4997 130.423 44.5991 131.648 42.0024 132.499C38.3179 133.707 35.9752 135.758 36.1419 138.826C36.1525 139.021 35.9852 139.146 35.8377 139.059C35.5463 138.889 35.0969 138.841 34.5493 139.491C33.597 140.621 34.215 143.231 36.6317 145.18C36.7465 145.272 36.7603 145.47 36.6509 145.572C36.2656 145.929 35.7122 146.741 37.365 147.575C39.0558 148.429 40.0032 148.218 40.3557 148.071C40.4506 148.032 40.508 147.92 40.4931 147.803L40.1497 145.104C40.1319 144.964 40.2173 144.836 40.3362 144.823L41.1542 144.738Z" fill="#A67C52"/>
<path d="M38.8238 142.812C37.8588 143.674 38.8075 145.42 39.8528 146.36C40.4396 146.887 41.1273 146.416 41.2392 145.642C41.272 145.415 41.2553 145.182 41.1777 144.964C40.9217 144.247 40.2484 142.613 39.4117 142.57C39.2231 142.56 39.0263 142.631 38.8238 142.812Z" fill="#FFC09D"/>
<path d="M132.806 196.698C131.343 194.497 128.68 193.393 126.33 194.602C125.215 195.175 123.95 195.95 122.638 196.988C121.992 197.498 121.637 198.389 121.735 199.301C122.226 203.908 124.247 218.818 130.912 233.38C131.263 234.148 131.364 235.042 131.209 235.895L130.116 241.916C130.074 242.148 129.968 242.363 129.81 242.538C129.076 243.352 129.654 244.652 130.751 244.652H132.071C132.883 244.652 133.599 244.125 133.841 243.351L136.616 234.467C136.897 233.567 136.426 232.604 135.543 232.273C134.322 231.816 133.484 230.488 133.462 228.973L133.277 216.326C133.335 214.253 132.955 212.417 132.452 210.923C131.828 209.073 133.04 206.649 134.99 206.537C136.85 206.43 137.892 204.344 136.86 202.793L132.806 196.698Z" fill="#B7796A"/>
<path d="M125.745 245.799C125.447 246.26 127.396 246.809 129.658 246.827C132.683 246.852 134.897 244.458 136.014 241.646C137.038 239.067 138.134 235.837 138.29 233.503C138.312 233.177 138.45 233.156 138.266 232.887C137.459 231.711 135.405 233.274 135.17 234.681C134.658 237.747 133.687 242.74 132.679 243.516C132.495 243.658 132.292 243.766 132.079 243.847C129.939 244.656 126.987 243.877 125.745 245.799Z" fill="black"/>
<path d="M138.07 206.988C138.059 206.965 137.486 206.872 136.627 206.746C132.499 206.141 128.746 209.647 127.902 213.732C127.1 217.617 117.41 232.24 114.123 237.122C113.435 238.144 113.224 239.405 113.541 240.596C114.088 242.648 113.037 244.84 110.968 245.323C110.819 245.358 110.669 245.391 110.52 245.422C106.831 246.198 105.804 241.862 108.878 239.68C109.751 239.06 110.37 238.159 110.636 237.121C112.241 230.851 118.291 207.898 122.753 200.195C123.402 199.075 124.481 198.321 125.679 197.831C129.884 196.109 134.682 198.181 136.314 202.422L138.07 206.988Z" fill="#C78976"/>
<path d="M149.979 187.819C155.679 187.37 161.218 190.264 163.447 195.529C164.329 197.613 165.043 199.669 165.193 201.138C165.64 205.514 163.699 207.292 157.979 207.586C154.141 207.782 146.005 207.845 141.065 207.865C138.452 207.875 135.953 206.829 134.116 204.971L133.114 203.958C128.726 199.521 130.251 192.155 135.921 189.552C137.264 188.935 144.06 188.284 149.979 187.819Z" fill="black"/>
<path d="M111.583 243.317C113.01 242.863 114.49 242.614 114.768 244.087C114.944 245.02 113.924 246.249 112.991 246.426C109.828 247.027 102.396 248.307 99.2597 247.715C98.9227 247.651 98.7731 247.302 98.964 247.017C99.4211 246.335 100.495 245.085 102.831 243.705C102.874 243.68 102.916 243.736 102.879 243.77C102.524 244.092 102.732 244.763 103.178 244.733C105.114 244.603 108.651 244.249 111.583 243.317Z" fill="black"/>
<path d="M138.468 125.497C149.77 125.778 153.212 137.508 152.475 139.641C152.378 139.925 152.572 140.227 152.83 140.204C154.151 140.089 157.009 140.214 158.316 143.155C159.471 145.752 157.991 147.62 156.876 148.577C156.607 148.808 156.721 149.308 157.053 149.333C159.419 149.512 164.452 150.568 164.372 156.318C164.298 161.68 161.008 162.451 159.131 162.453C158.813 162.453 158.665 162.913 158.896 163.17C159.689 164.053 160.509 165.691 159.638 168.359C158.273 172.542 151.151 170.559 150.321 170.312C150.269 170.296 150.221 170.267 150.18 170.225L139.937 159.858C139.857 159.777 139.812 159.658 139.814 159.534L140.063 143.144C140.066 142.914 140.155 142.665 140.071 142.446L136.883 134.159C135.523 130.624 134.631 126.746 138.037 125.625C138.286 125.543 138.447 125.497 138.468 125.497Z" fill="#534741"/>
<path d="M133.565 183.148C131.541 182.184 130.999 179.554 132.477 177.869C133.49 176.714 135.154 176.387 136.528 177.074L140.014 178.816C140.436 179.027 140.875 179.203 141.329 179.335C143.163 179.872 148.182 181.287 149.823 181.185C151.267 181.096 152.997 180.323 153.866 179.89C154.242 179.703 154.622 179.524 155.016 179.379L158.459 178.111C160.774 177.258 163.329 178.536 164.036 180.9C164.368 182.008 164.035 183.237 163.225 183.918C162.506 184.522 161.664 185.186 161.127 185.464C160.131 185.979 138.591 183.871 134.744 183.489C134.352 183.45 133.977 183.344 133.621 183.175L133.565 183.148Z" fill="#B47562"/>
<path d="M149.324 185.312C146.334 185.677 143.35 184.556 141.417 182.246C139.362 179.791 136.753 176.55 135.075 174.006C133.386 171.445 132.855 168.074 133.636 164.96C135.063 159.273 137.599 153.383 137.83 152.466C137.961 151.947 139.014 151.628 140.291 151.432C143.514 150.936 146.713 152.18 149.03 154.475C153.171 158.576 159.791 166.298 163.734 176.889C164.397 178.669 163.423 180.608 161.64 181.265C159.927 181.895 158.012 181.144 157.129 179.546C155.729 177.012 153.538 173.275 151.363 170.497C151.363 170.497 153.083 173.186 154.751 176.32C157.018 180.581 154.114 184.726 149.324 185.312Z" fill="#008037"/>
<path d="M137.821 142.963C137.199 143.454 136.871 144.24 136.945 145.067C137.148 147.321 137.548 151.666 137.638 151.802C137.699 151.895 138.731 152.234 139.999 152.401C142.189 152.689 143.253 150.513 142.71 148.308L141.776 144.509C141.329 142.693 139.21 141.865 137.821 142.963Z" fill="#C78976"/>
<path d="M131 132.892C131 132.892 129.454 136.792 131 142.86C132.547 148.928 135.31 149.548 137.106 148.126C138.902 146.703 141.249 144.13 141.67 138.699C142.092 133.267 133.119 127.965 131 132.892Z" fill="#C78976"/>
<path d="M138.501 138.144C138.361 138.187 138.208 138.109 138.151 137.965C137.627 136.642 135.011 130.8 130.961 134.585C130.76 134.772 130.628 135.031 130.573 135.309C130.4 136.194 129.495 136.664 128.787 136.066C127.694 135.143 126.537 133.446 127.463 130.685C129.022 126.038 133.354 123.895 137.963 127.107C142.573 130.318 145.061 133.104 144.701 137.371C144.67 137.731 144.624 138.05 144.563 138.331C144.02 140.867 142.346 137.453 139.968 136.313C138.929 135.814 138.725 137.351 138.686 137.901C138.678 138.015 138.607 138.111 138.501 138.144Z" fill="#534741"/>
<path d="M139.552 138.571C139.389 138.433 139.266 138.254 139.205 138.05C138.912 137.074 138.183 134.122 140.053 134.063C141.73 134.009 141.584 136.311 141.201 138.104C141.04 138.859 140.156 139.087 139.552 138.571Z" fill="#C78976"/>
<path d="M135.651 186.706C133.627 185.742 133.085 183.111 134.563 181.426C135.576 180.271 137.24 179.945 138.614 180.632L142.1 182.374C142.522 182.585 142.961 182.76 143.415 182.893C145.249 183.43 150.268 184.844 151.909 184.743C153.353 184.653 155.083 183.881 155.952 183.447C156.328 183.26 156.708 183.082 157.102 182.937L160.545 181.669C162.86 180.816 165.415 182.093 166.122 184.458C166.453 185.565 166.121 186.795 165.311 187.475C164.592 188.079 163.75 188.744 163.213 189.021C162.217 189.537 140.677 187.428 136.83 187.047C136.438 187.008 136.063 186.902 135.707 186.732L135.651 186.706Z" fill="#C78976"/>
<path d="M178.984 241.614C179.742 242.104 180.256 242.895 180.354 243.793C180.434 244.514 180.521 245.453 180.572 246.465C180.62 247.409 180.029 248.229 179.234 248.32C176.464 248.638 170.16 249.225 166.134 248.538C165.57 248.441 165.401 247.734 165.763 247.162C167.201 245.416 170.959 242.179 176.903 241.159C177.628 241.035 178.367 241.215 178.984 241.614Z" fill="black"/>
<path d="M180.011 237.438C180.891 237.86 181.315 238.874 180.997 239.796L180.154 242.239C179.962 242.795 179.485 243.141 178.98 243.078C178.637 243.036 178.231 242.958 177.836 242.816C177.046 242.532 176.6 241.541 176.837 240.605L177.318 238.699C177.616 237.523 178.916 236.913 180.011 237.438Z" fill="#FFC09D"/>
<path d="M209.323 249.851C208.208 246.041 203.492 247.118 201.93 250.767C201.761 251.161 201.609 251.57 201.48 251.99C201.179 252.969 201.814 254 202.695 254H208.465C209.31 254 209.957 253.101 209.81 252.117C209.709 251.44 209.555 250.646 209.323 249.851Z" fill="black"/>
<path d="M206.762 241.795C207.89 241.928 208.669 242.99 208.446 244.104C208.262 245.025 208.042 246.095 207.849 246.967C207.77 247.323 207.449 247.518 207.156 247.394C206.283 247.025 205.572 246.861 205.055 246.944C204.817 246.981 204.608 246.746 204.605 246.461L204.575 243.761C204.562 242.581 205.589 241.657 206.762 241.795Z" fill="#FFC09D"/>
<path d="M199.646 172.852C196.075 174.378 193.393 177.447 192.36 181.191L177.754 234.09C177.296 235.745 177.468 237.26 178.938 238.147C180.323 238.982 182.215 238.306 182.827 236.809L186.192 228.567C190.389 218.288 204.402 220.492 204.252 231.594C204.217 234.173 204.136 236.721 203.997 239.187C203.904 240.852 205.133 242.306 206.794 242.456C208.377 242.599 209.797 241.523 210.042 239.953C211.466 230.807 215.754 200.901 214.321 180.703C213.806 173.437 206.343 169.988 199.646 172.852Z" fill="black"/>
<path d="M201.917 189.25C201.924 189.25 201.931 189.25 201.938 189.249C202.028 189.235 202.092 189.138 202.081 189.031L201.419 182.815C201.408 182.708 201.326 182.634 201.234 182.646C201.144 182.659 201.08 182.757 201.091 182.864L201.753 189.079C201.764 189.178 201.835 189.25 201.917 189.25Z" fill="black"/>
<path d="M190.797 120.825C190.797 120.825 200.837 121.88 202.59 129.406C203.263 132.292 203.309 135.358 204.397 138.115C206.865 144.368 211.367 156.923 213.87 170.965C213.986 171.617 213.617 172.253 213.062 172.365L190.05 177.027C189.415 177.156 188.803 176.687 188.642 175.949L185.206 160.241C184.763 158.217 181.856 158.282 181.504 160.324C181.311 161.445 180.177 162.141 179.09 161.806L177.285 161.25C175.592 160.728 174.544 159.038 174.829 157.29L179.924 126.052C179.924 126.052 180.723 121.041 190.797 120.825Z" fill="#B0B0B0"/>
<path d="M183.025 149.685C183.037 149.685 183.049 149.684 183.062 149.681C183.154 149.657 183.213 149.549 183.193 149.439L181.274 139.019C181.254 138.91 181.164 138.841 181.071 138.864C180.978 138.888 180.919 138.996 180.939 139.105L182.858 149.526C182.875 149.62 182.946 149.685 183.025 149.685Z" fill="#939393"/>
<path d="M184.414 180.692C185.138 180.22 185.987 180.09 186.79 180.326L188.391 180.797C188.731 180.898 189.068 180.62 189.108 180.208L190.448 166.089C190.597 164.523 192.888 163.611 194.457 163.72C195.891 163.819 196.552 165.097 196.29 166.51L193.526 181.418C193.219 183.07 191.778 184.269 190.097 184.269H185.608C183.698 184.269 182.887 181.839 184.414 180.692Z" fill="#FFC09D"/>
<path d="M150.977 142.972C150.108 142.895 149.54 142.047 149.755 141.202C149.987 140.289 150.557 139.551 151.305 139.195L156.295 136.821C157.725 136.14 158.5 134.522 157.058 133.865C155.522 133.165 157.327 131.77 158.796 132.603C159.588 133.053 160.47 133.558 161.352 134.074C162.419 134.698 163.392 135.887 164.079 137.025C164.683 138.025 165.196 139.083 165.854 140.048L179.729 160.372C180.526 161.539 180.295 163.123 179.198 164.015C176.646 166.09 173.136 165.07 171.686 161.834L165.469 147.318C164.073 144.057 160.375 142.538 156.849 142.926C154.9 143.141 152.942 143.147 150.977 142.972Z" fill="#FFC09D"/>
<path d="M195.47 163.963C196.413 163.963 197.087 163.878 197.159 163.869C197.233 163.859 197.291 163.803 197.304 163.731L202.314 136.098C202.334 135.989 202.275 135.881 202.182 135.857C202.089 135.833 201.999 135.904 201.979 136.013L197.719 159.507C197.293 161.861 195.922 163.756 193.554 163.421C191.642 163.15 190.353 160.929 190.696 159.03L194.104 140.176C194.362 138.751 194.182 137.282 193.59 135.96C193.546 135.862 193.442 135.824 193.358 135.876C193.274 135.929 193.243 136.052 193.287 136.15C193.842 137.387 194.01 138.762 193.768 140.096L189.781 162.158C189.768 162.229 189.793 162.302 189.847 162.35C191.372 163.706 193.829 163.963 195.47 163.963Z" fill="#939393"/>
<path d="M183.196 113.386C184.388 109.896 187.177 111.589 188.168 115.161L189.472 119.861C190.139 122.266 190.06 124.531 187.803 125.563C185.991 126.392 183.729 124.757 183.259 122.808L182.642 120.257C182.246 118.615 182.184 116.906 182.622 115.282C182.783 114.685 182.975 114.032 183.196 113.386Z" fill="#FFC09D"/>
<path d="M174.054 104.153C174.051 104.291 175.591 109.868 176.709 113.898C177.31 116.066 179.676 117.22 181.74 116.357C183.29 115.708 184.201 114.092 183.956 112.421L183.371 108.41C182.792 104.448 179.409 100.593 175.717 102.094C174.755 102.484 174.076 103.125 174.054 104.153Z" fill="#FFC09D"/>
<path d="M179.533 98.7065C179.287 99.1043 178.84 99.2221 178.464 99.0093C178.25 98.8881 177.989 98.875 177.702 99.1468C177.314 99.5129 176.74 99.3802 176.473 98.8868C175.958 97.9389 175.007 96.9794 173.348 97.5585C170.405 98.5861 170.457 102.572 171.479 104.77C172.502 106.967 175.639 105.638 177.142 104.249C178.284 103.193 179.972 103.898 180.716 104.296C180.951 104.422 181.123 104.669 181.187 104.966L182.7 111.996C182.719 112.086 182.728 112.176 182.726 112.269C182.714 112.839 182.552 114.794 180.872 114.475C179.347 114.187 177.952 113.95 177.051 114.418C176.646 114.629 176.443 115.167 176.582 115.663C176.927 116.9 177.749 119.671 178.773 121.949C178.98 122.411 179.454 122.603 179.862 122.399C181.09 121.783 183.648 120.398 185.486 118.714C185.735 118.486 185.861 118.118 185.811 117.751C185.567 115.956 184.843 110.501 184.839 108.944C184.837 107.482 186.246 106.41 186.866 106.009C187.068 105.878 187.216 105.656 187.276 105.392C187.488 104.458 187.697 102.335 185.413 101.796C184.935 101.683 184.634 101.129 184.744 100.568C184.963 99.4493 184.937 97.7928 183.146 97.1279C182.819 97.0068 182.513 96.9481 182.227 96.9393C180.919 96.899 180.033 97.8995 179.533 98.7065Z" fill="#7F7F7F"/>
<path d="M184.897 106.41C184.734 106.575 184.625 106.793 184.559 107.046C183.83 109.856 187.764 111.418 187.878 108.511C187.954 106.588 187.199 105.784 186.339 105.758C185.848 105.743 185.322 105.982 184.897 106.41Z" fill="#7F7F7F"/>
<path d="M12.7577 210.606C11.9422 210.382 11.2001 210.785 11.064 211.619C10.1474 217.242 8.13335 237.902 7.78246 246.16C7.75545 246.795 8.18476 247.324 8.7221 247.324C9.18559 247.324 9.57991 246.925 9.65138 246.383L14.1028 212.634C14.2237 211.717 13.6495 210.852 12.7577 210.606Z" fill="#CCCCCC"/>
<path d="M30.4819 210.606C31.2974 210.382 32.0395 210.785 32.1756 211.619C33.0922 217.242 35.1062 237.902 35.4571 246.16C35.4841 246.795 35.0549 247.324 34.5174 247.324C34.054 247.324 33.6597 246.925 33.5883 246.383L29.1368 212.634C29.0159 211.717 29.5901 210.852 30.4819 210.606Z" fill="#CCCCCC"/>
<path d="M7.51797 208.242L7.51575 208.519C7.50036 210.513 8.95262 212.149 10.7711 212.186L32.3221 212.62C34.1144 212.656 35.6083 211.123 35.6952 209.16L35.7066 208.906C35.7972 206.858 34.3274 205.133 32.4583 205.094L10.8981 204.636C9.05288 204.597 7.53358 206.218 7.51797 208.242Z" fill="#534741"/>
<path d="M56.4507 188.919C56.4685 188.92 56.4863 188.92 56.5042 188.92L79.7845 188.893C80.3599 188.892 80.8259 188.341 80.8253 187.661C80.8247 186.981 80.3559 186.42 79.782 186.432L56.5017 186.459C55.9263 186.46 55.4603 187.011 55.4609 187.691C55.4616 188.349 55.9002 188.887 56.4507 188.919Z" fill="black"/>
<path d="M88.8011 161.946C88.7928 161.965 88.7848 161.984 88.7773 162.003L78.982 186.989C78.7397 187.607 78.9659 188.339 79.487 188.625C80.0084 188.911 80.6365 188.645 80.8692 188.024L90.6645 163.038C90.9068 162.421 90.6806 161.688 90.1595 161.402C89.6545 161.125 89.0579 161.369 88.8011 161.946Z" fill="black"/>
<path d="M149.762 244.24C149.762 244.918 149.212 245.468 148.533 245.468C147.855 245.468 147.305 244.918 147.305 244.24V215.26C147.305 214.581 147.855 214.031 148.533 214.031C149.212 214.031 149.762 214.581 149.762 215.26V244.24Z" fill="#CCCCCC"/>
<path d="M157.693 244.183C159.21 244.183 158.062 246.075 156.545 246.075H140.519C139.002 246.075 137.854 244.183 139.371 244.183H157.693Z" fill="#CCCCCC"/>
<path d="M162.49 212.939C162.49 214.658 161.301 216.065 159.847 216.065H138.074C136.621 216.065 135.432 214.658 135.432 212.939V210.112C135.432 208.393 136.621 206.986 138.074 206.986H159.847C161.301 206.986 162.49 208.393 162.49 210.112V212.939Z" fill="#534741"/>
<path d="M149.268 188.933C149.247 188.935 149.227 188.935 149.206 188.935L122.147 188.9C121.478 188.9 120.937 188.257 120.938 187.466C120.938 186.674 121.483 186.02 122.15 186.034L149.209 186.069C149.877 186.07 150.419 186.712 150.418 187.504C150.418 188.27 149.908 188.896 149.268 188.933Z" fill="black"/>
<path d="M97.8248 159.869H120.359C122.022 159.869 123.535 161.004 124.244 162.783L126.468 168.363C130.395 178.214 123.139 188.918 112.534 188.918H106.657C105.586 188.918 104.623 188.143 104.23 186.964L96.1511 162.781C95.6844 161.384 96.5548 159.869 97.8248 159.869Z" fill="black"/>
<path d="M113.697 173.269C114.186 175.064 113.825 176.807 112.891 177.162C111.958 177.518 110.806 176.351 110.317 174.556C109.829 172.761 110.19 171.018 111.123 170.662C112.056 170.307 113.209 171.474 113.697 173.269Z" fill="#4D4D4D"/>
<path d="M44.6285 248.584C44.5129 248.584 44.3955 248.554 44.2824 248.491C43.8376 248.244 43.6322 247.578 43.8235 247.004L62.21 191.81C62.4012 191.236 62.9166 190.971 63.3618 191.217C63.8066 191.464 64.012 192.13 63.8207 192.705L45.4343 247.898C45.2915 248.327 44.9682 248.584 44.6285 248.584Z" fill="#CCCCCC"/>
<path d="M65.34 248.584C65.0002 248.584 64.6769 248.327 64.5342 247.899L46.1478 192.705C45.9564 192.13 46.1619 191.465 46.6067 191.217C47.0511 190.97 47.5669 191.235 47.7584 191.81L66.1449 247.004C66.3363 247.578 66.1308 248.244 65.686 248.491C65.5732 248.554 65.4556 248.584 65.34 248.584Z" fill="#CCCCCC"/>
<path d="M169.41 248.584C169.294 248.584 169.177 248.554 169.064 248.491C168.619 248.244 168.413 247.578 168.605 247.004L186.991 191.81C187.183 191.236 187.698 190.971 188.143 191.217C188.588 191.464 188.793 192.13 188.602 192.705L170.215 247.898C170.073 248.327 169.749 248.584 169.41 248.584Z" fill="#CCCCCC"/>
<path d="M190.123 248.584C189.783 248.584 189.46 248.327 189.317 247.899L170.931 192.705C170.74 192.13 170.945 191.465 171.39 191.217C171.834 190.97 172.35 191.235 172.542 191.81L190.928 247.004C191.119 247.578 190.914 248.244 190.469 248.491C190.356 248.554 190.239 248.584 190.123 248.584Z" fill="#CCCCCC"/>
<path d="M166.744 187.909L191.748 187.909C192.646 187.909 193.374 187.181 193.374 186.283C193.374 185.385 192.646 184.657 191.749 184.657H166.744C167.314 184.657 167.314 187.909 166.744 187.909Z" fill="#91B3FA"/>
<path d="M166.184 183.925C166.047 183.925 165.934 184.058 165.934 184.221V184.364C165.934 184.527 166.047 184.66 166.184 184.66H193.127C193.264 184.66 193.377 184.793 193.377 184.956V187.616C193.377 187.778 193.264 187.911 193.127 187.911H166.184C166.047 187.911 165.934 188.045 165.934 188.207V188.351C165.934 188.513 166.047 188.647 166.184 188.647H194.967C195.566 188.647 196.051 188.072 196.051 187.364V185.286C196.051 184.534 195.537 183.925 194.901 183.925H166.184ZM191.281 182.581C194.48 183.482 196.444 186.695 195.789 189.952C195.059 193.58 191.397 195.819 187.835 194.816L170.704 189.99C167.506 189.089 165.542 185.877 166.197 182.619C166.927 178.992 170.589 176.753 174.151 177.756L191.281 182.581Z" fill="#7F7F7F"/>
<path d="M197.236 190.103C197.325 189.74 197.203 189.364 196.904 189.079C196.604 188.794 196.157 188.629 195.686 188.629H36.1208C35.5014 188.629 34.9246 188.877 34.5909 189.286C34.2571 189.696 34.2123 190.211 34.4721 190.652L36.2013 193.589C36.5972 194.262 37.4552 194.692 38.3992 194.692H194.591C195.47 194.692 196.224 194.203 196.391 193.527L197.236 190.103Z" fill="#736357"/>
</svg>
