<svg width="18" height="18" viewBox="0 0 18 18" fill="none" xmlns="http://www.w3.org/2000/svg">
<path d="M16.75 7.55V8.75C16.75 12.5212 16.75 14.4069 15.5784 15.5784C14.4069 16.75 12.5212 16.75 8.75 16.75C4.97876 16.75 3.09314 16.75 1.92158 15.5784C0.75 14.4069 0.75 12.5212 0.75 8.75C0.75 4.97876 0.75 3.09314 1.92158 1.92158C3.09314 0.75 4.97876 0.75 8.75 0.75H9.95" fill="#F1F2ED"/>
<path d="M16.75 7.55V8.75C16.75 12.5212 16.75 14.4069 15.5784 15.5784C14.4069 16.75 12.5212 16.75 8.75 16.75C4.97876 16.75 3.09314 16.75 1.92158 15.5784C0.75 14.4069 0.75 12.5212 0.75 8.75C0.75 4.97876 0.75 3.09314 1.92158 1.92158C3.09314 0.75 4.97876 0.75 8.75 0.75H9.95" stroke="#008037" stroke-width="1.5" stroke-linecap="round"/>
<path d="M12.4697 1.91405L12.9888 1.39499C13.8488 0.535002 15.2431 0.535002 16.1031 1.39499C16.9631 2.25499 16.9631 3.64932 16.1031 4.50931L15.584 5.02836M12.4697 1.91405C12.4697 1.91405 12.5346 3.01703 13.5079 3.99026C14.4811 4.96348 15.584 5.02836 15.584 5.02836M12.4697 1.91405L7.69786 6.68595C7.37466 7.00915 7.21306 7.17072 7.07404 7.34896C6.91009 7.55912 6.76953 7.78656 6.65485 8.0272C6.55763 8.2312 6.48535 8.448 6.34081 8.88168L5.87803 10.27M15.584 5.02836L10.8122 9.80024C10.489 10.1234 10.3274 10.285 10.1491 10.4241C9.93898 10.588 9.71154 10.7286 9.4709 10.8433C9.2669 10.9405 9.0501 11.0127 8.61642 11.1573L7.2281 11.6201M7.2281 11.6201L6.32977 11.9195C6.11638 11.9906 5.88111 11.9351 5.72205 11.7761C5.56299 11.617 5.50746 11.3818 5.57859 11.1683L5.87803 10.27M7.2281 11.6201L5.87803 10.27L7.2281 11.6201Z" fill="#F1F2ED"/>
<path d="M12.4697 1.91405L12.9888 1.39499C13.8488 0.535002 15.2431 0.535002 16.1031 1.39499C16.9631 2.25499 16.9631 3.64932 16.1031 4.50931L15.584 5.02836M12.4697 1.91405C12.4697 1.91405 12.5346 3.01703 13.5079 3.99026C14.4811 4.96348 15.584 5.02836 15.584 5.02836M12.4697 1.91405L7.69786 6.68595C7.37466 7.00915 7.21306 7.17072 7.07404 7.34896C6.91009 7.55912 6.76953 7.78656 6.65485 8.0272C6.55763 8.2312 6.48535 8.448 6.34081 8.88168L5.87803 10.27M15.584 5.02836L10.8122 9.80024C10.489 10.1234 10.3274 10.285 10.1491 10.4241C9.93898 10.588 9.71154 10.7286 9.4709 10.8433C9.2669 10.9405 9.0501 11.0127 8.61642 11.1573L7.2281 11.6201M5.87803 10.27L5.57859 11.1683C5.50746 11.3818 5.56299 11.617 5.72205 11.7761C5.88111 11.9351 6.11638 11.9906 6.32977 11.9195L7.2281 11.6201M5.87803 10.27L7.2281 11.6201" stroke="#008037" stroke-width="1.5"/>
</svg>
