<svg width="29" height="29" viewBox="0 0 29 29" fill="none" xmlns="http://www.w3.org/2000/svg">
<path d="M4.4824 13.1289L4.26989 13.2044C2.9954 13.657 1.98019 14.6402 1.48742 15.8991L0.820623 17.6027C0.608742 18.144 0.5 18.7201 0.5 19.3014V28.5002H6.06224V24.2632C6.95733 23.6175 7.52894 22.6988 7.91223 21.8223L10.1646 19.3042C10.7177 18.6858 10.6417 17.731 9.99776 17.2079C9.42198 16.7402 8.58623 16.7807 8.05853 17.3021L5.82755 19.5064H5.06476" stroke="#008037" stroke-miterlimit="10" stroke-linejoin="round"/>
<path d="M24.5171 15.8713L24.7297 15.7958C26.0041 15.3432 27.0193 14.36 27.5121 13.1011L28.1789 11.3975C28.3908 10.8562 28.4995 10.2801 28.4995 9.69886V0.5H22.9373V4.73703C22.0422 5.38269 21.4706 6.30143 21.0873 7.17794L18.8349 9.69606C18.2818 10.3144 18.3579 11.2692 19.0018 11.7923C19.5776 12.2601 20.4133 12.2195 20.941 11.6981L23.172 9.49383H24.5172" stroke="#008037" stroke-miterlimit="10" stroke-linejoin="round"/>
<path d="M14.5 19.5066H17.7711C17.5628 20.141 17.7105 20.8667 18.2152 21.371C18.9297 22.0851 20.088 22.0851 20.8025 21.371C21.3072 20.8666 21.4548 20.141 21.2466 19.5066H24.5177V9.49414H23.1725" stroke="#008037" stroke-miterlimit="10" stroke-linejoin="round"/>
<path d="M19.0163 9.49414H14.5" stroke="#008037" stroke-miterlimit="10" stroke-linejoin="round"/>
<path d="M9.98182 19.5063H14.4981V16.2369C15.1328 16.4451 15.8589 16.2975 16.3635 15.7931C17.0779 15.0789 17.0779 13.9212 16.3635 13.2071C15.8588 12.7027 15.1328 12.5551 14.4981 12.7632V9.49379H11.227C11.4353 8.85939 11.2876 8.13374 10.7829 7.62934C10.0684 6.91522 8.91007 6.91522 8.19559 7.62934C7.69093 8.13374 7.54325 8.85939 7.75147 9.49379H4.48047V19.5063H5.82568" stroke="#008037" stroke-miterlimit="10" stroke-linejoin="round"/>
<path d="M10.9083 4.31276L9.35938 2.76465" stroke="#797979" stroke-miterlimit="10" stroke-linecap="round" stroke-linejoin="round"/>
<path d="M18.1094 4.31276L19.6583 2.76465" stroke="#797979" stroke-miterlimit="10" stroke-linecap="round" stroke-linejoin="round"/>
<path d="M14.5078 4.31355V1.13184" stroke="#797979" stroke-miterlimit="10" stroke-linecap="round" stroke-linejoin="round"/>
<path d="M10.9083 24.7012L9.35938 26.2493" stroke="#797979" stroke-miterlimit="10" stroke-linecap="round" stroke-linejoin="round"/>
<path d="M18.1094 24.7012L19.6583 26.2493" stroke="#797979" stroke-miterlimit="10" stroke-linecap="round" stroke-linejoin="round"/>
<path d="M14.5078 24.7012V27.8829" stroke="#797979" stroke-miterlimit="10" stroke-linecap="round" stroke-linejoin="round"/>
</svg>
