<svg width="25" height="29" viewBox="0 0 25 29" fill="none" xmlns="http://www.w3.org/2000/svg">
<path d="M3.30038 11.0381H1.88462C1.1199 11.0381 0.5 11.6521 0.5 12.4095V27.1288C0.5 27.8862 1.1199 28.5002 1.88462 28.5002H23.1154C23.8801 28.5002 24.5 27.8862 24.5 27.1288V12.4095C24.5 11.6521 23.8801 11.0381 23.1154 11.0381H21.6996" stroke="#797979" stroke-miterlimit="10" stroke-linejoin="round"/>
<path d="M8.52718 8.26465H4.6854C3.92069 8.26465 3.30078 8.87865 3.30078 9.63608V21.5816C3.30078 22.339 3.92069 22.953 4.6854 22.953H20.3154C21.0801 22.953 21.7 22.339 21.7 21.5816V9.63608C21.7 8.87865 21.0801 8.26465 20.3154 8.26465H16.6932" stroke="#008037" stroke-miterlimit="10" stroke-linejoin="round"/>
<path d="M3.30078 21.5811V24.3548C3.30078 25.1122 3.92069 25.7262 4.6854 25.7262H20.3154C21.0801 25.7262 21.7 25.1122 21.7 24.3548V21.5811" stroke="#008037" stroke-miterlimit="10" stroke-linejoin="round"/>
<path d="M12.5 15.1709V25.7259" stroke="#008037" stroke-miterlimit="10" stroke-linejoin="round"/>
<path d="M9.92518 11.8369H5.88672" stroke="#008037" stroke-miterlimit="10" stroke-linecap="round" stroke-linejoin="round"/>
<path d="M9.92518 14.3516H5.88672" stroke="#008037" stroke-miterlimit="10" stroke-linecap="round" stroke-linejoin="round"/>
<path d="M9.92518 16.8652H5.88672" stroke="#008037" stroke-miterlimit="10" stroke-linecap="round" stroke-linejoin="round"/>
<path d="M9.92518 19.3799H5.88672" stroke="#008037" stroke-miterlimit="10" stroke-linecap="round" stroke-linejoin="round"/>
<path d="M15.0781 11.8369H19.1166" stroke="#008037" stroke-miterlimit="10" stroke-linecap="round" stroke-linejoin="round"/>
<path d="M15.0781 14.3516H19.1166" stroke="#008037" stroke-miterlimit="10" stroke-linecap="round" stroke-linejoin="round"/>
<path d="M15.0781 16.8652H19.1166" stroke="#008037" stroke-miterlimit="10" stroke-linecap="round" stroke-linejoin="round"/>
<path d="M15.0781 19.3799H19.1166" stroke="#008037" stroke-miterlimit="10" stroke-linecap="round" stroke-linejoin="round"/>
<path d="M12.5 9.52539V12.2072" stroke="#797979" stroke-miterlimit="10" stroke-linejoin="round"/>
<path d="M12.5036 9.526C13.2046 9.526 13.7728 8.96316 13.7728 8.26886C13.7728 7.57456 13.2046 7.01172 12.5036 7.01172C11.8026 7.01172 11.2344 7.57456 11.2344 8.26886C11.2344 8.96316 11.8026 9.526 12.5036 9.526Z" stroke="#797979" stroke-miterlimit="10" stroke-linejoin="round"/>
<path d="M16.4704 8.2643C16.4704 6.11104 14.7248 4.3291 12.5584 4.3291C10.361 4.3291 8.53526 6.06653 8.5235 8.2427C8.51663 9.51379 9.11802 10.6451 10.0563 11.3691C10.3187 11.5716 10.4781 11.8779 10.478 12.2074L10.4775 14.0281C10.4774 14.6594 10.994 15.1713 11.6314 15.1713H13.3623C13.9998 15.1713 14.5165 14.6592 14.5161 14.0278L14.5151 12.2026C14.515 11.876 14.6729 11.5724 14.9332 11.372C15.8684 10.6522 16.4704 9.52824 16.4704 8.2643Z" stroke="#797979" stroke-miterlimit="10" stroke-linejoin="round"/>
<path d="M10.4805 12.207H14.5175" stroke="#797979" stroke-miterlimit="10" stroke-linejoin="round"/>
<path d="M12.5 0.5V1.81434" stroke="#797979" stroke-miterlimit="10" stroke-linecap="round" stroke-linejoin="round"/>
<path d="M8.57812 1.54004L9.24159 2.67827" stroke="#797979" stroke-miterlimit="10" stroke-linecap="round" stroke-linejoin="round"/>
<path d="M5.71094 4.38184L6.86011 5.03898" stroke="#797979" stroke-miterlimit="10" stroke-linecap="round" stroke-linejoin="round"/>
<path d="M19.2898 4.38184L18.1406 5.03898" stroke="#797979" stroke-miterlimit="10" stroke-linecap="round" stroke-linejoin="round"/>
<path d="M16.4154 1.54004L15.752 2.67827" stroke="#797979" stroke-miterlimit="10" stroke-linecap="round" stroke-linejoin="round"/>
</svg>
