<svg width="29" height="29" viewBox="0 0 29 29" fill="none" xmlns="http://www.w3.org/2000/svg">
<path d="M14.5 1.09389C14.907 0.724857 15.4472 0.5 16.0399 0.5C17.1419 0.5 18.0622 1.27731 18.2828 2.31354C18.4479 2.2724 18.6207 2.25046 18.7985 2.25046C19.9733 2.25046 20.9257 3.2028 20.9257 4.3776C20.9257 4.66783 20.8675 4.9444 20.7622 5.19646C22.153 5.36709 23.2301 6.55229 23.2301 7.98926C23.2301 8.25384 23.1935 8.50989 23.1253 8.75269C23.8071 9.25721 24.2494 10.0672 24.2494 10.9805C24.2494 11.7868 23.9048 12.5124 23.355 13.0185C23.6126 13.4178 23.7621 13.8933 23.7621 14.4038C23.7621 15.5 23.0728 16.4351 22.1041 16.7997C22.2579 17.1286 22.344 17.4955 22.344 17.8826C22.344 19.1847 21.3717 20.2596 20.1134 20.4209C19.7919 21.1893 19.1513 21.7909 18.3573 22.0602" stroke="#008037" stroke-miterlimit="2.6131" stroke-linecap="round" stroke-linejoin="round"/>
<path d="M22.1026 16.7988C21.8145 16.9072 21.5092 16.9627 21.2015 16.9627C20.9778 16.9627 20.7551 16.9334 20.5391 16.8755" stroke="#008037" stroke-miterlimit="2.6131" stroke-linecap="round" stroke-linejoin="round"/>
<path d="M17.293 2.87302C17.5657 2.60033 17.9073 2.40691 18.2815 2.31348" stroke="#008037" stroke-miterlimit="2.6131" stroke-linecap="round" stroke-linejoin="round"/>
<path d="M14.4994 21.7745C14.4994 15.7074 14.4994 7.16078 14.4994 1.09375C9.13436 1.09375 4.78516 5.44295 4.78516 10.808C4.78516 13.0627 5.55333 15.1378 6.84218 16.786C8.66293 19.1145 10.6423 19.4219 10.6423 22.0602V27.357L11.7851 28.4998H17.2137L18.3566 27.357V22.0602" stroke="#008037" stroke-miterlimit="2.6131" stroke-linecap="round" stroke-linejoin="round"/>
<path d="M18.3583 22.0605H10.9297" stroke="#008037" stroke-miterlimit="2.6131" stroke-linecap="round" stroke-linejoin="round"/>
<path d="M1.92857 10.8086H0.5" stroke="#008037" stroke-miterlimit="2.6131" stroke-linecap="round" stroke-linejoin="round"/>
<path d="M2.35645 14.0615L0.976562 14.4313" stroke="#008037" stroke-miterlimit="2.6131" stroke-linecap="round" stroke-linejoin="round"/>
<path d="M2.35645 7.55434L0.976562 7.18457" stroke="#008037" stroke-miterlimit="2.6131" stroke-linecap="round" stroke-linejoin="round"/>
<path d="M27.0703 10.8086H28.4989" stroke="#008037" stroke-miterlimit="2.6131" stroke-linecap="round" stroke-linejoin="round"/>
<path d="M26.6445 14.0615L28.0244 14.4313" stroke="#008037" stroke-miterlimit="2.6131" stroke-linecap="round" stroke-linejoin="round"/>
<path d="M26.6445 7.55434L28.0244 7.18457" stroke="#008037" stroke-miterlimit="2.6131" stroke-linecap="round" stroke-linejoin="round"/>
</svg>
