<svg width="29" height="29" viewBox="0 0 29 29" fill="none" xmlns="http://www.w3.org/2000/svg">
<path d="M14.5004 14.2605C15.6914 14.2605 16.657 13.295 16.657 12.1039C16.657 10.9128 15.6914 9.94727 14.5004 9.94727C13.3093 9.94727 12.3438 10.9128 12.3438 12.1039C12.3438 13.295 13.3093 14.2605 14.5004 14.2605Z" stroke="#797979" stroke-miterlimit="10" stroke-linecap="round" stroke-linejoin="round"/>
<path d="M15.4887 19.0519H17.8098C18.1242 19.0519 18.3788 18.7973 18.3788 18.4829V16.4164C18.3788 15.2254 17.4132 14.2598 16.2222 14.2598H12.7777C11.5867 14.2598 10.6211 15.2254 10.6211 16.4164V18.4829C10.6211 18.7973 10.8757 19.0519 11.1901 19.0519H13.5112" stroke="#797979" stroke-miterlimit="10" stroke-linecap="round" stroke-linejoin="round"/>
<path d="M16.3421 2.53311L16.6401 2.92072C16.928 3.2948 16.661 3.83678 16.1888 3.83678H15.6367V6.30496C15.6367 6.61933 15.3821 6.87398 15.0677 6.87398H13.9297C13.6153 6.87398 13.3607 6.61933 13.3607 6.30496V3.83678H12.8086C12.3365 3.83678 12.0694 3.2948 12.3573 2.92072L14.0474 0.721832C14.2756 0.426056 14.7218 0.426056 14.95 0.721832L15.137 0.965214" stroke="#008037" stroke-miterlimit="10" stroke-linecap="round" stroke-linejoin="round"/>
<path d="M4.43852 5.07759L4.79796 7.82729C4.85914 8.29541 5.43086 8.48977 5.76466 8.15597L6.15497 7.76566L7.9002 9.5109C8.12246 9.73316 8.48279 9.73316 8.70505 9.5109L9.50989 8.70606C9.73214 8.4838 9.73214 8.12346 9.50989 7.90121L7.76465 6.15596L8.15496 5.76564C8.48876 5.43184 8.2944 4.86012 7.82629 4.79894L5.0766 4.4395C4.70596 4.39105 4.39007 4.70699 4.43852 5.07759Z" stroke="#008037" stroke-miterlimit="10" stroke-linecap="round" stroke-linejoin="round"/>
<path d="M0.722253 14.9518L2.92073 16.642C3.29498 16.9297 3.83667 16.6629 3.83667 16.1908V15.6388H6.30483C6.61914 15.6388 6.87396 15.384 6.87396 15.0697V13.9315C6.87396 13.6172 6.61914 13.3624 6.30483 13.3624H3.83667V12.8104C3.83667 12.3383 3.29498 12.0715 2.92073 12.3592L0.722253 14.0493C0.425916 14.2772 0.425916 14.724 0.722253 14.9518Z" stroke="#008037" stroke-miterlimit="10" stroke-linecap="round" stroke-linejoin="round"/>
<path d="M4.73767 21.6345L4.79795 21.1737C4.85936 20.7055 5.43063 20.5111 5.76471 20.8447L6.15513 21.2351L7.90048 19.4897C8.12245 19.2677 8.48301 19.2677 8.70499 19.4897L9.51005 20.2948C9.73203 20.5168 9.73203 20.8773 9.51005 21.0993L7.76471 22.8447L8.15513 23.2351C8.48865 23.5692 8.29428 24.1405 7.82612 24.2019L5.07683 24.5613C4.70612 24.6097 4.39007 24.2937 4.43852 23.923L4.48134 23.5951" stroke="#008037" stroke-miterlimit="10" stroke-linecap="round" stroke-linejoin="round"/>
<path d="M14.9498 28.2777L16.64 26.0792C16.9277 25.705 16.6609 25.1633 16.1888 25.1633H15.6368V22.6951C15.6368 22.3808 15.382 22.126 15.0677 22.126H13.9295C13.6152 22.126 13.3604 22.3808 13.3604 22.6951V25.1633H12.8084C12.3363 25.1633 12.0695 25.705 12.3572 26.0792L14.0474 28.2777C14.2753 28.5741 14.722 28.5741 14.9498 28.2777Z" stroke="#008037" stroke-miterlimit="10" stroke-linecap="round" stroke-linejoin="round"/>
<path d="M24.5623 23.9233L24.2028 21.1735C24.1417 20.7054 23.5699 20.5111 23.2361 20.8449L22.8458 21.2352L21.1006 19.4899C20.8783 19.2677 20.518 19.2677 20.2958 19.4899L19.4909 20.2948C19.2687 20.517 19.2687 20.8774 19.4909 21.0996L21.2361 22.8449L20.8458 23.2352C20.512 23.569 20.7064 24.1407 21.1745 24.2019L23.9242 24.5613C24.2948 24.6097 24.6107 24.2938 24.5623 23.9233Z" stroke="#008037" stroke-miterlimit="10" stroke-linecap="round" stroke-linejoin="round"/>
<path d="M28.2767 14.0494L26.0782 12.3592C25.704 12.0715 25.1623 12.3383 25.1623 12.8104V13.3624H22.6941C22.3798 13.3624 22.125 13.6172 22.125 13.9315V15.0697C22.125 15.384 22.3798 15.6388 22.6941 15.6388H25.1623V16.1908C25.1623 16.6629 25.704 16.9297 26.0782 16.642L28.2767 14.9518C28.573 14.724 28.573 14.2772 28.2767 14.0494Z" stroke="#008037" stroke-miterlimit="10" stroke-linecap="round" stroke-linejoin="round"/>
<path d="M23.9242 4.4395L21.1745 4.79894C20.7064 4.86012 20.512 5.43184 20.8458 5.76564L21.2361 6.15596L19.4909 7.90121C19.2687 8.12346 19.2687 8.4838 19.4909 8.70606L20.2958 9.5109C20.518 9.73316 20.8783 9.73316 21.1006 9.5109L22.8458 7.76566L23.2361 8.15597C23.5699 8.48977 24.1417 8.29541 24.2028 7.82729L24.5623 5.07759C24.6107 4.70699 24.2948 4.39105 23.9242 4.4395Z" stroke="#008037" stroke-miterlimit="10" stroke-linecap="round" stroke-linejoin="round"/>
</svg>
