<svg width="27" height="29" viewBox="0 0 27 29" fill="none" xmlns="http://www.w3.org/2000/svg">
<path d="M13.5004 18.5316C14.8004 18.5316 15.8641 19.5559 15.8641 20.808V21.9462C15.8641 23.1983 14.8004 24.2227 13.5004 24.2227C12.2004 24.2227 11.1367 23.1983 11.1367 21.9462V20.808C11.1367 19.5559 12.2004 18.5316 13.5004 18.5316Z" stroke="#008037" stroke-miterlimit="22.926" stroke-linecap="round" stroke-linejoin="round"/>
<path d="M15.3416 23.504C16.6989 24.1594 17.6362 25.5135 17.6362 27.0681V28.5H9.36328V27.0681C9.36328 25.5113 10.3031 24.1558 11.6633 23.5013" stroke="#008037" stroke-miterlimit="22.926" stroke-linecap="round" stroke-linejoin="round"/>
<path d="M6.75253 19.9559C7.86683 19.9559 8.77856 20.834 8.77856 21.9071V22.8828C8.77856 23.956 7.86683 24.834 6.75253 24.834C5.63829 24.834 4.72656 23.956 4.72656 22.8828V21.9071C4.72656 20.834 5.63829 19.9559 6.75253 19.9559Z" stroke="#008037" stroke-miterlimit="22.926" stroke-linecap="round" stroke-linejoin="round"/>
<path d="M9.3656 28.5H3.20312V27.2727C3.20312 25.9382 4.00873 24.7764 5.1745 24.2155M8.32741 24.2177C8.90072 24.4946 9.38652 24.9171 9.73197 25.4337" stroke="#008037" stroke-miterlimit="22.926" stroke-linecap="round" stroke-linejoin="round"/>
<path d="M20.2565 19.9559C21.3708 19.9559 22.2825 20.834 22.2825 21.9071V22.8828C22.2825 23.956 21.3708 24.834 20.2565 24.834C19.1422 24.834 18.2305 23.956 18.2305 22.8828V21.9071C18.2305 20.834 19.1422 19.9559 20.2565 19.9559Z" stroke="#008037" stroke-miterlimit="22.926" stroke-linecap="round" stroke-linejoin="round"/>
<path d="M17.2695 25.4337C17.6159 24.9156 18.1034 24.4923 18.6789 24.2155M21.8317 24.2177C22.995 24.7795 23.7984 25.9401 23.7984 27.2727V28.5H17.6359" stroke="#008037" stroke-miterlimit="22.926" stroke-linecap="round" stroke-linejoin="round"/>
<path d="M8.27061 1.55359C13.0331 -0.459637 18.793 0.410989 22.6923 4.16632C27.7692 9.05589 27.7692 16.9834 22.6923 21.8729C22.5574 22.0029 22.4126 22.1255 22.2792 22.2539M4.72013 22.2533C4.58043 22.1299 4.44257 22.0033 4.30719 21.8729C-0.651993 17.0967 -0.766041 9.4224 3.96316 4.51177" stroke="#008037" stroke-miterlimit="2.613" stroke-linecap="round" stroke-linejoin="round"/>
<path d="M0.597656 13.8966C2.07248 13.9861 2.2153 13.0678 3.12355 13.7911C3.63723 14.2003 4.47995 15.6271 5.37365 14.2965C5.9212 13.4812 3.42923 11.6935 5.67095 11.131C6.24644 10.9866 6.66056 12.242 7.50818 12.2674C8.31768 12.2917 9.48829 12.054 9.10242 10.9449C8.83657 10.1807 8.285 9.82367 7.27937 9.35677C6.7544 9.11302 5.38329 8.87445 5.23319 8.37631C4.54885 6.10493 4.34327 7.68461 2.50243 6.49762" stroke="#797979" stroke-miterlimit="2.613" stroke-linecap="round" stroke-linejoin="round"/>
<path d="M12.5766 0.641513C12.589 1.06328 12.8174 1.1997 12.8235 1.52665C12.8348 2.13406 12.1813 2.12632 12.5508 2.77852C13.2549 4.02157 15.486 3.59184 14.9327 4.87046C14.5528 5.74843 15.3415 6.55844 13.3632 6.85455C12.5894 6.97036 12.5446 8.29599 12.7093 8.48278C13.2593 9.10669 13.7128 8.06163 14.9081 9.33468C15.6408 10.115 16.2677 9.35875 16.7136 9.92502C17.4146 11.5906 18.1187 10.9472 18.1187 12.7078C18.1187 13.7675 19.6358 13.5699 20.0927 11.9274C20.4142 10.772 21.1891 10.7218 21.9118 11.9035C23.4031 14.3419 23.9701 12.0806 24.5364 12.6261C25.1791 13.2451 25.8395 12.1833 26.4662 12.4463" stroke="#797979" stroke-miterlimit="2.613" stroke-linecap="round" stroke-linejoin="round"/>
<path d="M5.96094 2.81934H5.96138" stroke="#008037" stroke-miterlimit="2.613" stroke-linecap="round" stroke-linejoin="round"/>
</svg>
