<svg width="30" height="30" viewBox="0 0 30 30" fill="none" xmlns="http://www.w3.org/2000/svg">
<path d="M16.3501 10.2922L18.479 8.16504" stroke="#008037" stroke-width="1.2" stroke-miterlimit="10" stroke-linecap="round" stroke-linejoin="round"/>
<path d="M9.65088 6.77148L13.2384 10.2923" stroke="#008037" stroke-width="1.2" stroke-miterlimit="10" stroke-linecap="round" stroke-linejoin="round"/>
<path d="M12.6001 11.8894C12.6001 10.6824 13.5793 9.7041 14.7871 9.7041C15.995 9.7041 16.9742 10.6825 16.9742 11.8894" stroke="#008037" stroke-width="1.2" stroke-miterlimit="10" stroke-linecap="round" stroke-linejoin="round"/>
<path d="M9.38135 8.07989V6.48926H10.9733" stroke="#008037" stroke-width="1.2" stroke-miterlimit="10" stroke-linecap="round" stroke-linejoin="round"/>
<path d="M17.5181 7.52832H19.11V9.11901" stroke="#008037" stroke-width="1.2" stroke-miterlimit="10" stroke-linecap="round" stroke-linejoin="round"/>
<path d="M10.8744 26.5313H9.89307V23.9502H10.8744C11.5842 23.9502 12.1649 24.5309 12.1649 25.2408C12.1648 25.9535 11.5871 26.5313 10.8744 26.5313Z" stroke="#008037" stroke-width="1.2" stroke-miterlimit="10" stroke-linecap="round" stroke-linejoin="round"/>
<path d="M9.89307 26.5303V28.5987" stroke="#008037" stroke-width="1.2" stroke-miterlimit="10" stroke-linecap="round" stroke-linejoin="round"/>
<path d="M10.8735 26.5303L12.1643 28.5414" stroke="#008037" stroke-width="1.2" stroke-miterlimit="10" stroke-linecap="round" stroke-linejoin="round"/>
<path d="M27.3897 19.1349H26.4712V16.7188H27.3897C28.0542 16.7188 28.5978 17.2623 28.5978 17.9268C28.5978 18.594 28.0569 19.1349 27.3897 19.1349Z" stroke="#008037" stroke-width="1.2" stroke-miterlimit="10" stroke-linecap="round" stroke-linejoin="round"/>
<path d="M26.4712 19.1338V21.07" stroke="#008037" stroke-width="1.2" stroke-miterlimit="10" stroke-linecap="round" stroke-linejoin="round"/>
<path d="M27.3931 19.1338L28.6014 21.0163" stroke="#008037" stroke-width="1.2" stroke-miterlimit="10" stroke-linecap="round" stroke-linejoin="round"/>
<path d="M3.16072 24.4944C2.92067 24.1661 2.51416 23.9502 2.05309 23.9502H1.93578C1.19808 23.9502 0.600098 24.5027 0.600098 25.1843C0.600098 25.7867 1.1286 26.2749 1.78047 26.2749H2.2084C2.86032 26.2749 3.38877 26.7632 3.38877 27.3656C3.38877 28.0472 2.79078 28.5997 2.05309 28.5997H1.93578C1.39825 28.5997 0.934832 28.3063 0.722952 27.8833" stroke="#008037" stroke-width="1.2" stroke-miterlimit="10" stroke-linecap="round" stroke-linejoin="round"/>
<path d="M7.58414 23.9502H5.69385V28.5997H7.58414" stroke="#008037" stroke-width="1.2" stroke-miterlimit="10" stroke-linecap="round" stroke-linejoin="round"/>
<path d="M7.37375 26.2754H5.70557" stroke="#008037" stroke-width="1.2" stroke-miterlimit="10" stroke-linecap="round" stroke-linejoin="round"/>
<path d="M28.5998 23.9502H26.7095V28.5997H28.5998" stroke="#008037" stroke-width="1.2" stroke-miterlimit="10" stroke-linecap="round" stroke-linejoin="round"/>
<path d="M28.3894 26.2754H26.7212" stroke="#008037" stroke-width="1.2" stroke-miterlimit="10" stroke-linecap="round" stroke-linejoin="round"/>
<path d="M18.0743 21.0711C17.3852 21.0711 16.8267 20.5125 16.8267 19.8234V17.9664C16.8267 17.2773 17.3852 16.7188 18.0743 16.7188C18.7634 16.7188 19.3219 17.2773 19.3219 17.9664V19.8234C19.3219 20.5125 18.7634 21.0711 18.0743 21.0711Z" stroke="#008037" stroke-width="1.2" stroke-miterlimit="10" stroke-linecap="round" stroke-linejoin="round"/>
<path d="M16.978 23.9502V26.4328C16.978 26.9341 16.8067 27.4204 16.4924 27.8111L15.9415 28.4959C15.8301 28.6344 15.6191 28.6344 15.5077 28.4959L14.9568 27.8111C14.6425 27.4204 14.4712 26.9341 14.4712 26.4328V23.9502" stroke="#008037" stroke-width="1.2" stroke-miterlimit="10" stroke-linecap="round" stroke-linejoin="round"/>
<path d="M19.436 23.9502V28.5997" stroke="#008037" stroke-width="1.2" stroke-miterlimit="10" stroke-linecap="round" stroke-linejoin="round"/>
<path d="M24.3672 27.4241C24.3672 28.0733 23.8404 28.5997 23.1907 28.5997H23.0485C22.4126 28.5997 21.897 28.0845 21.897 27.4491V25.1008C21.897 24.4653 22.4126 23.9502 23.0485 23.9502H23.1907C23.8405 23.9502 24.3672 24.4765 24.3672 25.1258" stroke="#008037" stroke-width="1.2" stroke-miterlimit="10" stroke-linecap="round" stroke-linejoin="round"/>
<path d="M12.2407 16.7188V21.0711" stroke="#008037" stroke-width="1.2" stroke-miterlimit="10" stroke-linecap="round" stroke-linejoin="round"/>
<path d="M14.4751 16.7188V21.0711" stroke="#008037" stroke-width="1.2" stroke-miterlimit="10" stroke-linecap="round" stroke-linejoin="round"/>
<path d="M12.2407 18.8193H14.4783" stroke="#008037" stroke-width="1.2" stroke-miterlimit="10" stroke-linecap="round" stroke-linejoin="round"/>
<path d="M24.1831 16.7188V19.8216C24.1831 20.5117 23.6232 21.0711 22.9326 21.0711C22.242 21.0711 21.6821 20.5117 21.6821 19.8216V16.7188" stroke="#008037" stroke-width="1.2" stroke-miterlimit="10" stroke-linecap="round" stroke-linejoin="round"/>
<path d="M9.39828 19.003H5.59038C5.39998 19.003 5.28073 18.7973 5.37553 18.6323L7.63764 14.6946C7.72278 14.5465 7.88072 14.4551 8.05174 14.4551C8.31545 14.4551 8.52922 14.6687 8.52922 14.9322V20.9922" stroke="#797979" stroke-width="1.2" stroke-miterlimit="10" stroke-linecap="round" stroke-linejoin="round"/>
<path d="M4.13583 21.041H0.855977L3.14695 17.7944C3.63642 17.0575 3.92881 16.5423 3.83716 15.8571C3.73099 15.0636 3.02586 14.5039 2.21611 14.5039C1.41573 14.5039 0.748722 15.0744 0.600098 15.8305" stroke="#797979" stroke-width="1.2" stroke-miterlimit="10" stroke-linecap="round" stroke-linejoin="round"/>
<path d="M21.8657 4.85898L22.6276 4.11035" stroke="#797979" stroke-width="1.2" stroke-miterlimit="10" stroke-linecap="round" stroke-linejoin="round"/>
<path d="M6.86572 4.02344L7.70182 4.85887" stroke="#797979" stroke-width="1.2" stroke-miterlimit="10" stroke-linecap="round" stroke-linejoin="round"/>
<path d="M14.7876 3.68421V0.626953" stroke="#797979" stroke-width="1.2" stroke-miterlimit="10" stroke-linecap="round" stroke-linejoin="round"/>
<path d="M3.42822 11.9466C3.42822 5.67984 8.51221 0.599609 14.7836 0.599609C21.055 0.599609 26.139 5.67984 26.139 11.9466H3.42822Z" stroke="#797979" stroke-width="1.2" stroke-miterlimit="10" stroke-linecap="round" stroke-linejoin="round"/>
</svg>
