<svg width="29" height="29" viewBox="0 0 29 29" fill="none" xmlns="http://www.w3.org/2000/svg">
<path d="M14.5307 0.463222L15.3821 2.14874C15.3989 2.18198 15.4314 2.20502 15.469 2.21037L17.3729 2.48068C17.4675 2.49409 17.5052 2.60767 17.4368 2.67285L16.0591 3.98485C16.0319 4.01071 16.0195 4.04801 16.0259 4.08457L16.3512 5.93713C16.3673 6.02919 16.2684 6.09938 16.1838 6.05589L14.481 5.18124C14.4474 5.16401 14.4072 5.16401 14.3737 5.18124L12.6707 6.05589C12.5861 6.09933 12.4872 6.02913 12.5034 5.93713L12.8286 4.08457C12.835 4.04801 12.8226 4.01071 12.7955 3.98485L11.4178 2.67285C11.3493 2.60767 11.3871 2.49409 11.4817 2.48068L13.3856 2.21037C13.4231 2.20502 13.4556 2.18198 13.4724 2.14874L14.3239 0.463222C14.3662 0.379447 14.4884 0.379447 14.5307 0.463222Z" stroke="#797979" stroke-width="0.8" stroke-miterlimit="10" stroke-linecap="round" stroke-linejoin="round"/>
<path d="M7.59086 2.6515L8.28107 4.01781C8.29468 4.0448 8.32103 4.06344 8.35148 4.06778L9.89485 4.28688C9.97155 4.29775 10.0022 4.38981 9.9467 4.44265L8.82988 5.5062C8.80785 5.52716 8.79781 5.55741 8.803 5.58705L9.06665 7.08879C9.07974 7.16338 8.99959 7.22029 8.93102 7.18507L7.55061 6.47606C7.52339 6.46209 7.49081 6.46209 7.46359 6.47606L6.08318 7.18507C6.01461 7.22029 5.93446 7.16338 5.94755 7.08879L6.2112 5.58705C6.21639 5.55741 6.20635 5.52716 6.18432 5.5062L5.06739 4.44265C5.01191 4.38981 5.04253 4.29775 5.11923 4.28688L6.66261 4.06778C6.69305 4.06344 6.71941 4.0448 6.73302 4.01781L7.42322 2.6515C7.45748 2.58361 7.55655 2.58361 7.59086 2.6515Z" stroke="#797979" stroke-width="0.8" stroke-miterlimit="10" stroke-linecap="round" stroke-linejoin="round"/>
<path d="M21.4228 2.6515L22.113 4.01781C22.1267 4.0448 22.153 4.06344 22.1835 4.06778L23.7268 4.28688C23.8035 4.29775 23.8341 4.38981 23.7786 4.44265L22.6618 5.5062C22.6398 5.52716 22.6297 5.55741 22.6349 5.58705L22.8986 7.08879C22.9117 7.16338 22.8315 7.22029 22.7629 7.18507L21.3825 6.47606C21.3553 6.46209 21.3227 6.46209 21.2955 6.47606L19.9151 7.18507C19.8465 7.22029 19.7664 7.16338 19.7795 7.08879L20.0431 5.58705C20.0483 5.55741 20.0383 5.52716 20.0162 5.5062L18.8994 4.44265C18.8439 4.38981 18.8746 4.29775 18.9512 4.28688L20.4946 4.06778C20.525 4.06344 20.5514 4.0448 20.565 4.01781L21.2552 2.6515C21.2895 2.58361 21.3885 2.58361 21.4228 2.6515Z" stroke="#797979" stroke-width="0.8" stroke-miterlimit="10" stroke-linecap="round" stroke-linejoin="round"/>
<path d="M1.96868 23.8721L4.5625 23.8721L4.5625 22.182L1.96868 22.182L1.96868 23.8721Z" stroke="#008037" stroke-width="0.8" stroke-miterlimit="10" stroke-linecap="round" stroke-linejoin="round"/>
<path d="M1.96868 27.252L4.5625 27.252L4.5625 25.5619L1.96868 25.5619L1.96868 27.252Z" stroke="#008037" stroke-width="0.8" stroke-miterlimit="10" stroke-linecap="round" stroke-linejoin="round"/>
<path d="M0.969351 16.6048V16.6054L0.477458 17.2302C0.29581 17.4611 0.464195 17.7947 0.762329 17.7947H1.97274V20.5411H4.55792V17.7947H5.76833C6.06647 17.7947 6.23485 17.4611 6.0532 17.2302L3.54991 14.0471C3.40632 13.8645 3.12434 13.8645 2.98075 14.0471L2.19937 15.0409" stroke="#008037" stroke-width="0.8" stroke-miterlimit="10" stroke-linecap="round" stroke-linejoin="round"/>
<path d="M24.2421 16.999L26.8359 16.999L26.8359 15.3089L24.2421 15.3089L24.2421 16.999Z" stroke="#008037" stroke-width="0.8" stroke-miterlimit="10" stroke-linecap="round" stroke-linejoin="round"/>
<path d="M24.2421 20.3789L26.8359 20.3789L26.8359 18.6888L24.2421 18.6888L24.2421 20.3789Z" stroke="#008037" stroke-width="0.8" stroke-miterlimit="10" stroke-linecap="round" stroke-linejoin="round"/>
<path d="M27.7546 9.62922L28.3267 10.3571C28.5083 10.5881 28.3399 10.9216 28.0418 10.9216H26.8314V13.6681H24.2456V10.9216H23.0352C22.7376 10.9216 22.5693 10.5881 22.7509 10.3571L25.2542 7.17401C25.3978 6.99148 25.6798 6.99148 25.8234 7.17401L26.5246 8.06584" stroke="#008037" stroke-width="0.8" stroke-miterlimit="10" stroke-linecap="round" stroke-linejoin="round"/>
<path d="M10.0078 10.1289C11.16 8.95704 12.7481 8.29395 14.4383 8.29395C16.3061 8.29395 18.0424 9.10352 19.2015 10.5154C19.4997 10.8782 19.7482 11.2635 19.9443 11.6652C20.326 12.4461 20.3185 13.3294 19.972 14.0821" stroke="#008037" stroke-width="0.8" stroke-miterlimit="10" stroke-linecap="round" stroke-linejoin="round"/>
<path d="M8.88728 14.1014C8.54762 13.3741 8.52513 12.524 8.86537 11.7617" stroke="#008037" stroke-width="0.8" stroke-miterlimit="10" stroke-linecap="round" stroke-linejoin="round"/>
<path d="M18.1936 13.9941H19.574C19.8925 13.9941 20.1506 14.2464 20.1506 14.5575V15.8076C20.1506 16.4299 19.6343 16.9344 18.9973 16.9344H18.0039" stroke="#008037" stroke-width="0.8" stroke-miterlimit="10" stroke-linecap="round" stroke-linejoin="round"/>
<path d="M18.1034 13.5488V15.9113C18.1034 17.5003 17.1132 18.9292 15.6031 19.5193C14.8454 19.8154 14.0002 19.8154 13.2425 19.5193C11.7324 18.9292 10.7422 17.5003 10.7422 15.9113V14.9908V13.994" stroke="#008037" stroke-width="0.8" stroke-miterlimit="10" stroke-linecap="round" stroke-linejoin="round"/>
<path d="M15.1572 12.6533C14.7204 13.4513 13.8593 13.9942 12.8683 13.9942H9.27197C8.95348 13.9942 8.69531 14.2464 8.69531 14.5576V15.8077C8.69531 16.43 9.21166 16.9344 9.84864 16.9344H10.7423" stroke="#008037" stroke-width="0.8" stroke-miterlimit="10" stroke-linecap="round" stroke-linejoin="round"/>
<path d="M13.8398 10.8662C13.8398 11.9071 14.7036 12.7509 15.769 12.7509H17.307C17.7464 12.7509 18.1025 13.0988 18.1025 13.5281V13.8183" stroke="#008037" stroke-width="0.8" stroke-miterlimit="10" stroke-linecap="round" stroke-linejoin="round"/>
<path d="M21.1289 23.9668C21.7038 24.4079 22.0625 25.0924 22.0625 25.844V28.4" stroke="#008037" stroke-width="0.8" stroke-miterlimit="10" stroke-linecap="round" stroke-linejoin="round"/>
<path d="M6.78125 28.4007V25.901C6.78125 24.7805 7.57877 23.754 8.69923 23.5123L11.4401 22.9207C11.8847 22.825 12.2105 22.4605 12.2555 22.0255C12.2618 21.9669 12.312 21.9219 12.3726 21.9219H16.4697C16.5303 21.9219 16.5805 21.9669 16.5868 22.0255C16.6318 22.4605 16.9576 22.825 17.4022 22.9207L19.2193 23.3129" stroke="#008037" stroke-width="0.8" stroke-miterlimit="10" stroke-linecap="round" stroke-linejoin="round"/>
<path d="M19.2773 26.8691V28.4002" stroke="#008037" stroke-width="0.8" stroke-miterlimit="10" stroke-linecap="round" stroke-linejoin="round"/>
<path d="M9.57422 26.8691V28.4002" stroke="#008037" stroke-width="0.8" stroke-miterlimit="10" stroke-linecap="round" stroke-linejoin="round"/>
<path d="M16.0352 19.418V21.865" stroke="#008037" stroke-width="0.8" stroke-miterlimit="10" stroke-linecap="round" stroke-linejoin="round"/>
<path d="M12.8086 19.418V21.865" stroke="#008037" stroke-width="0.8" stroke-miterlimit="10" stroke-linecap="round" stroke-linejoin="round"/>
</svg>
