<svg width="29" height="30" viewBox="0 0 29 30" fill="none" xmlns="http://www.w3.org/2000/svg">
<path d="M10.8412 28.5996H1.73023C1.10607 28.5996 0.600098 28.09 0.600098 27.4614V1.73784C0.600098 1.10921 1.10607 0.599609 1.73023 0.599609H21.586C22.2102 0.599609 22.7162 1.10921 22.7162 1.73784V14.6005" stroke="#008037" stroke-width="1.2" stroke-miterlimit="10" stroke-linecap="round" stroke-linejoin="round"/>
<path d="M26.4652 28.5997H9.55904C8.93233 28.5997 8.42432 28.088 8.42432 27.4568V15.7434C8.42432 15.1122 8.93233 14.6006 9.55904 14.6006H26.4652C27.0919 14.6006 27.5999 15.1122 27.5999 15.7434V27.4568C27.5999 28.088 27.0918 28.5997 26.4652 28.5997Z" stroke="#008037" stroke-width="1.2" stroke-miterlimit="10" stroke-linecap="round" stroke-linejoin="round"/>
<path d="M14.8416 25.5161H11.6782V23.1872C11.6782 22.7138 12.0593 22.3301 12.5293 22.3301H14.8416V25.5161Z" stroke="#797979" stroke-width="1.2" stroke-miterlimit="10" stroke-linecap="round" stroke-linejoin="round"/>
<path d="M18.0096 25.5165H14.8462V21.5778C14.8462 21.1045 15.2272 20.7207 15.6972 20.7207H18.0096V25.5165Z" stroke="#797979" stroke-width="1.2" stroke-miterlimit="10" stroke-linecap="round" stroke-linejoin="round"/>
<path d="M21.1737 25.5158H18.0103V20.2351C18.0103 19.7617 18.3913 19.3779 18.8613 19.3779H21.1736V25.5158H21.1737Z" stroke="#797979" stroke-width="1.2" stroke-miterlimit="10" stroke-linecap="round" stroke-linejoin="round"/>
<path d="M24.3338 25.5159H21.1704V18.5407C21.1704 18.0674 21.5515 17.6836 22.0215 17.6836H23.4828C23.9528 17.6836 24.3338 18.0674 24.3338 18.5407V25.5159Z" stroke="#797979" stroke-width="1.2" stroke-miterlimit="10" stroke-linecap="round" stroke-linejoin="round"/>
<path d="M8.28289 11.538C10.4474 11.538 12.202 9.77073 12.202 7.59075C12.202 5.41078 10.4474 3.64355 8.28289 3.64355C6.11842 3.64355 4.36377 5.41078 4.36377 7.59075C4.36377 9.77073 6.11842 11.538 8.28289 11.538Z" stroke="#797979" stroke-width="1.2" stroke-miterlimit="10" stroke-linecap="round" stroke-linejoin="round"/>
<path d="M8.2887 7.59075L8.27588 3.64355C8.28013 3.64355 8.28445 3.64355 8.2887 3.64355C10.4387 3.64355 12.2078 5.42538 12.2078 7.59075H8.2887Z" stroke="#797979" stroke-width="1.2" stroke-miterlimit="10" stroke-linecap="round" stroke-linejoin="round"/>
<path d="M15.3208 4.10352H18.9513" stroke="#797979" stroke-width="1.2" stroke-miterlimit="10" stroke-linecap="round" stroke-linejoin="round"/>
<path d="M15.3208 6.72461H18.9513" stroke="#797979" stroke-width="1.2" stroke-miterlimit="10" stroke-linecap="round" stroke-linejoin="round"/>
<path d="M15.3208 9.3457H18.9513" stroke="#797979" stroke-width="1.2" stroke-miterlimit="10" stroke-linecap="round" stroke-linejoin="round"/>
</svg>
