<svg width="29" height="27" viewBox="0 0 29 27" fill="none" xmlns="http://www.w3.org/2000/svg">
<path d="M0.613281 6.92285H28.3847" stroke="#008037" stroke-miterlimit="10" stroke-linecap="round" stroke-linejoin="round"/>
<path d="M24.9109 2.48931H27.1794C27.9087 2.48931 28.5 3.07422 28.5 3.7957V25.1939C28.5 25.9154 27.9087 26.5003 27.1794 26.5003H1.82063C1.09126 26.5003 0.5 25.9154 0.5 25.1939V3.7957C0.5 3.07416 1.09126 2.48926 1.82063 2.48926H4.12554" stroke="#008037" stroke-miterlimit="10" stroke-linecap="round" stroke-linejoin="round"/>
<path d="M6.94531 2.48926H22.0407" stroke="#008037" stroke-miterlimit="10" stroke-linecap="round" stroke-linejoin="round"/>
<path d="M8.67547 20.8448C7.79405 19.7184 7.26953 18.3049 7.26953 16.7703C7.26953 15.0357 7.93965 13.4559 9.03776 12.2705" stroke="#008037" stroke-miterlimit="10" stroke-linecap="round" stroke-linejoin="round"/>
<path d="M14.002 20.9536C11.6704 20.9536 9.77344 19.0771 9.77344 16.7705C9.77344 15.5259 10.3257 14.4066 11.2005 13.6396" stroke="#008037" stroke-miterlimit="10" stroke-linecap="round" stroke-linejoin="round"/>
<path d="M19.3773 20.9534H22.1946V19.6846L25.7873 22.1928L22.1946 24.7011V23.4323H14.0039" stroke="#008037" stroke-miterlimit="10" stroke-linecap="round" stroke-linejoin="round"/>
<path d="M9.61216 16.7695H7.47656" stroke="#008037" stroke-miterlimit="10" stroke-linecap="round" stroke-linejoin="round"/>
<path d="M6.11275 4.4775H4.95915C4.58201 4.4775 4.27344 4.17224 4.27344 3.79915V1.17835C4.27344 0.805257 4.58201 0.5 4.95915 0.5H6.11275C6.48989 0.5 6.79847 0.805257 6.79847 1.17835V3.79915C6.79847 4.17224 6.48989 4.4775 6.11275 4.4775Z" stroke="#797979" stroke-miterlimit="10" stroke-linecap="round" stroke-linejoin="round"/>
<path d="M24.0385 4.4775H22.8849C22.5078 4.4775 22.1992 4.17224 22.1992 3.79915V1.17835C22.1992 0.805257 22.5078 0.5 22.8849 0.5H24.0385C24.4157 0.5 24.7242 0.805257 24.7242 1.17835V3.79915C24.7242 4.17224 24.4157 4.4775 24.0385 4.4775Z" stroke="#797979" stroke-miterlimit="10" stroke-linecap="round" stroke-linejoin="round"/>
<path d="M14.0025 20.9532C16.3341 20.9532 18.2311 19.0767 18.2311 16.77C18.2311 14.4634 16.3341 12.5869 14.0025 12.5869C13.3515 12.5869 12.7344 12.7331 12.1831 12.9942L12.1831 14.2928L8.28678 11.5654L12.1831 8.83789L12.1831 10.3539C12.7618 10.1937 13.372 10.108 14.0025 10.108C17.7218 10.108 20.7369 13.0907 20.7369 16.77C20.7369 20.4494 17.7218 23.4321 14.0025 23.4321H3.44141V20.9532H14.0025Z" stroke="#797979" stroke-miterlimit="10" stroke-linecap="round" stroke-linejoin="round"/>
<path d="M14.0039 20.9531V23.1504" stroke="#797979" stroke-miterlimit="10" stroke-linecap="round" stroke-linejoin="round"/>
<path d="M18.3828 16.7705H20.5469" stroke="#797979" stroke-miterlimit="10" stroke-linecap="round" stroke-linejoin="round"/>
</svg>
