<svg width="25" height="25" viewBox="0 0 25 25" fill="none" xmlns="http://www.w3.org/2000/svg">
<path d="M15.7495 17.2287L16.0035 15.4724" stroke="#008037" stroke-width="0.7" stroke-miterlimit="10" stroke-linecap="round" stroke-linejoin="round"/>
<path d="M16.1372 6.5896V9.41933" stroke="#008037" stroke-width="0.7" stroke-miterlimit="10" stroke-linecap="round" stroke-linejoin="round"/>
<path d="M19.0125 18.0361L18.1265 22.3778" stroke="#008037" stroke-width="0.7" stroke-miterlimit="10" stroke-linecap="round" stroke-linejoin="round"/>
<path d="M17.462 22.373L16.0034 19.2551" stroke="#008037" stroke-width="0.7" stroke-miterlimit="10" stroke-linecap="round" stroke-linejoin="round"/>
<path d="M22.4795 15.553L19.9634 16.7709" stroke="#008037" stroke-width="0.7" stroke-miterlimit="10" stroke-linecap="round" stroke-linejoin="round"/>
<path d="M19.812 17.5605L21.3501 18.6036" stroke="#008037" stroke-width="0.7" stroke-miterlimit="10" stroke-linecap="round" stroke-linejoin="round"/>
<path d="M16.7329 15.0515L18.5606 16.6034" stroke="#008037" stroke-width="0.7" stroke-miterlimit="10" stroke-linecap="round" stroke-linejoin="round"/>
<path d="M12.9888 17.0557L14.6531 17.893" stroke="#008037" stroke-width="0.7" stroke-miterlimit="10" stroke-linecap="round" stroke-linejoin="round"/>
<path d="M14.888 19.0588L12.8481 21.0971" stroke="#008037" stroke-width="0.7" stroke-miterlimit="10" stroke-linecap="round" stroke-linejoin="round"/>
<path d="M18.3326 17.4338L16.5708 18.0291" stroke="#008037" stroke-width="0.7" stroke-miterlimit="10" stroke-linecap="round" stroke-linejoin="round"/>
<path d="M18.9019 13.7634L19.123 16.3075" stroke="#008037" stroke-width="0.7" stroke-miterlimit="10" stroke-linecap="round" stroke-linejoin="round"/>
<path d="M19.7007 13.3926L22.4388 14.6868" stroke="#008037" stroke-width="0.7" stroke-miterlimit="10" stroke-linecap="round" stroke-linejoin="round"/>
<path d="M16.8481 14.1342L18.1272 13.3926" stroke="#008037" stroke-width="0.7" stroke-miterlimit="10" stroke-linecap="round" stroke-linejoin="round"/>
<path d="M18.979 12.1192L19.3974 9.63696" stroke="#008037" stroke-width="0.7" stroke-miterlimit="10" stroke-linecap="round" stroke-linejoin="round"/>
<path d="M16.9839 23.0724L13.1001 21.8696" stroke="#008037" stroke-width="0.7" stroke-miterlimit="10" stroke-linecap="round" stroke-linejoin="round"/>
<path d="M21.575 19.6477L18.6167 22.6606" stroke="#008037" stroke-width="0.7" stroke-miterlimit="10" stroke-linecap="round" stroke-linejoin="round"/>
<path d="M23.0688 16.0583L22.3267 18.399" stroke="#008037" stroke-width="0.7" stroke-miterlimit="10" stroke-linecap="round" stroke-linejoin="round"/>
<path d="M23.3802 11.0942L23.3687 14.1381" stroke="#008037" stroke-width="0.7" stroke-miterlimit="10" stroke-linecap="round" stroke-linejoin="round"/>
<path d="M22.7456 7.84253L23.1975 9.61652" stroke="#008037" stroke-width="0.7" stroke-miterlimit="10" stroke-linecap="round" stroke-linejoin="round"/>
<path d="M21.3784 4.3501L22.2653 6.42484" stroke="#008037" stroke-width="0.7" stroke-miterlimit="10" stroke-linecap="round" stroke-linejoin="round"/>
<path d="M17.812 1.49121L20.1501 2.92622" stroke="#008037" stroke-width="0.7" stroke-miterlimit="10" stroke-linecap="round" stroke-linejoin="round"/>
<path d="M13.2593 2.30982L16.4585 1.32202" stroke="#008037" stroke-width="0.7" stroke-miterlimit="10" stroke-linecap="round" stroke-linejoin="round"/>
<path d="M20.7294 4.39307L19.8354 7.65638" stroke="#008037" stroke-width="0.7" stroke-miterlimit="10" stroke-linecap="round" stroke-linejoin="round"/>
<path d="M21.8218 11.2493L22.6972 10.7415" stroke="#008037" stroke-width="0.7" stroke-miterlimit="10" stroke-linecap="round" stroke-linejoin="round"/>
<path d="M19.5542 12.5648L20.46 12.0393" stroke="#008037" stroke-width="0.7" stroke-miterlimit="10" stroke-linecap="round" stroke-linejoin="round"/>
<path d="M16.7329 10.791L18.1928 12.314" stroke="#008037" stroke-width="0.7" stroke-miterlimit="10" stroke-linecap="round" stroke-linejoin="round"/>
<path d="M20.6118 9.10913L22.5599 9.97738" stroke="#008037" stroke-width="0.7" stroke-miterlimit="10" stroke-linecap="round" stroke-linejoin="round"/>
<path d="M16.8745 6.25732L18.7607 7.92945" stroke="#008037" stroke-width="0.7" stroke-miterlimit="10" stroke-linecap="round" stroke-linejoin="round"/>
<path d="M20.6001 8.11487L21.8922 7.45581" stroke="#008037" stroke-width="0.7" stroke-miterlimit="10" stroke-linecap="round" stroke-linejoin="round"/>
<path d="M16.8755 9.8411L18.5829 9.08032" stroke="#008037" stroke-width="0.7" stroke-miterlimit="10" stroke-linecap="round" stroke-linejoin="round"/>
<path d="M17.1753 5.14097L19.9893 3.88745" stroke="#008037" stroke-width="0.7" stroke-miterlimit="10" stroke-linecap="round" stroke-linejoin="round"/>
<path d="M13.2026 3.29614L15.3144 4.95638" stroke="#008037" stroke-width="0.7" stroke-miterlimit="10" stroke-linecap="round" stroke-linejoin="round"/>
<path d="M12.3501 3.73853V7.22325" stroke="#008037" stroke-width="0.7" stroke-miterlimit="10" stroke-linecap="round" stroke-linejoin="round"/>
<path d="M10.478 0.544922C11.0347 0.699793 11.5151 1.03829 11.8497 1.49106" stroke="#008037" stroke-width="0.7" stroke-miterlimit="10" stroke-linecap="round" stroke-linejoin="round"/>
<path d="M2.88188 20.5435C2.77381 20.2103 2.71543 19.8547 2.71543 19.4854C2.71543 19.1499 2.76367 18.8259 2.85349 18.5195C2.09577 18.1252 1.57825 17.3326 1.57825 16.4189C1.57825 15.893 1.74973 15.4072 2.03976 15.0144C1.04668 14.5931 0.350098 13.6086 0.350098 12.4612C0.350098 11.5946 0.747571 10.8209 1.36998 10.3126C1.10888 10.0104 0.950919 9.61658 0.950919 9.18575C0.950919 8.3477 1.5487 7.64935 2.3408 7.49434C2.30139 7.30815 2.28063 7.11511 2.28063 6.91713C2.28063 5.74987 3.00164 4.75116 4.02225 4.3425C3.97043 4.14771 3.94276 3.94312 3.94276 3.732C3.94276 2.42523 5.00142 1.36592 6.30732 1.36592C6.77312 1.36592 7.20749 1.50074 7.57353 1.73346C7.86949 1.22071 8.33795 0.820223 8.89951 0.611328" stroke="#008037" stroke-width="0.7" stroke-miterlimit="10" stroke-linecap="round" stroke-linejoin="round"/>
<path d="M12.1089 22.3777C11.6413 23.4862 10.5448 24.2643 9.26676 24.2643C8.18613 24.2643 7.23535 23.7081 6.6847 22.8661C6.50656 22.8947 6.32388 22.9097 6.13768 22.9097C5.1884 22.9097 4.32937 22.5229 3.70947 21.8982" stroke="#008037" stroke-width="0.7" stroke-miterlimit="10" stroke-linecap="round" stroke-linejoin="round"/>
<path d="M12.3501 17.4846V20.7191" stroke="#008037" stroke-width="0.7" stroke-miterlimit="10" stroke-linecap="round" stroke-linejoin="round"/>
<path d="M3.94019 3.73853C3.94019 5.04433 4.99802 6.10286 6.30296 6.10286" stroke="#008037" stroke-width="0.7" stroke-miterlimit="10" stroke-linecap="round" stroke-linejoin="round"/>
<path d="M6.13283 16.0583C4.24431 16.0583 2.71338 17.5903 2.71338 19.4801" stroke="#008037" stroke-width="0.7" stroke-miterlimit="10" stroke-linecap="round" stroke-linejoin="round"/>
<path d="M2.40246 9.78467C1.22062 10.1004 0.350098 11.179 0.350098 12.4612C0.350098 13.991 1.58945 15.2312 3.11826 15.2312" stroke="#008037" stroke-width="0.7" stroke-miterlimit="10" stroke-linecap="round" stroke-linejoin="round"/>
<path d="M8.28955 7.64492C9.40871 7.339 10.0682 6.18314 9.76249 5.06323" stroke="#008037" stroke-width="0.7" stroke-miterlimit="10" stroke-linecap="round" stroke-linejoin="round"/>
<path d="M7.8501 19.4609C8.64282 19.3881 9.22655 18.6861 9.15383 17.8928" stroke="#008037" stroke-width="0.7" stroke-miterlimit="10" stroke-linecap="round" stroke-linejoin="round"/>
<path d="M6.35054 12.7743C6.34832 12.0482 5.75832 11.4614 5.03271 11.4636" stroke="#008037" stroke-width="0.7" stroke-miterlimit="10" stroke-linecap="round" stroke-linejoin="round"/>
<path d="M6.17822 21.1721C6.17822 22.875 7.55781 24.2555 9.25959 24.2555" stroke="#008037" stroke-width="0.7" stroke-miterlimit="10" stroke-linecap="round" stroke-linejoin="round"/>
<path d="M15.3254 9.70093L13.1001 8.41528" stroke="#008037" stroke-width="0.7" stroke-miterlimit="10" stroke-linecap="round" stroke-linejoin="round"/>
<path d="M16.1372 13.7332V10.9204" stroke="#008037" stroke-width="0.7" stroke-miterlimit="10" stroke-linecap="round" stroke-linejoin="round"/>
<path d="M12.9995 16.3589L15.4881 14.9211" stroke="#008037" stroke-width="0.7" stroke-miterlimit="10" stroke-linecap="round" stroke-linejoin="round"/>
<path d="M11.7044 8.35498L8.56299 10.1699V14.546L11.6003 16.3007" stroke="#008037" stroke-width="0.7" stroke-miterlimit="10" stroke-linecap="round" stroke-linejoin="round"/>
<path d="M19.5651 9.62855C20.1094 9.62855 20.5506 9.18704 20.5506 8.6424C20.5506 8.09777 20.1094 7.65625 19.5651 7.65625C19.0208 7.65625 18.5796 8.09777 18.5796 8.6424C18.5796 9.18704 19.0208 9.62855 19.5651 9.62855Z" stroke="#008037" stroke-width="0.7" stroke-miterlimit="10" stroke-linecap="round" stroke-linejoin="round"/>
<path d="M15.5856 19.348C16.1299 19.348 16.5711 18.9065 16.5711 18.3619C16.5711 17.8172 16.1299 17.3757 15.5856 17.3757C15.0413 17.3757 14.6001 17.8172 14.6001 18.3619C14.6001 18.9065 15.0413 19.348 15.5856 19.348Z" stroke="#008037" stroke-width="0.7" stroke-miterlimit="10" stroke-linecap="round" stroke-linejoin="round"/>
<path d="M12.318 3.58681C12.8623 3.58681 13.3035 3.14529 13.3035 2.60065C13.3035 2.05602 12.8623 1.6145 12.318 1.6145C11.7737 1.6145 11.3325 2.05602 11.3325 2.60065C11.3325 3.14529 11.7737 3.58681 12.318 3.58681Z" stroke="#008037" stroke-width="0.7" stroke-miterlimit="10" stroke-linecap="round" stroke-linejoin="round"/>
<path d="M20.9899 4.42787C21.5342 4.42787 21.9754 3.98636 21.9754 3.44172C21.9754 2.89708 21.5342 2.45557 20.9899 2.45557C20.4456 2.45557 20.0044 2.89708 20.0044 3.44172C20.0044 3.98636 20.4456 4.42787 20.9899 4.42787Z" stroke="#008037" stroke-width="0.7" stroke-miterlimit="10" stroke-linecap="round" stroke-linejoin="round"/>
<path d="M23.3649 16.1105C23.9092 16.1105 24.3504 15.669 24.3504 15.1243C24.3504 14.5797 23.9092 14.1382 23.3649 14.1382C22.8206 14.1382 22.3794 14.5797 22.3794 15.1243C22.3794 15.669 22.8206 16.1105 23.3649 16.1105Z" stroke="#008037" stroke-width="0.7" stroke-miterlimit="10" stroke-linecap="round" stroke-linejoin="round"/>
<path d="M17.9254 24.35C18.4697 24.35 18.9109 23.9085 18.9109 23.3638C18.9109 22.8192 18.4697 22.3777 17.9254 22.3777C17.3812 22.3777 16.9399 22.8192 16.9399 23.3638C16.9399 23.9085 17.3812 24.35 17.9254 24.35Z" stroke="#008037" stroke-width="0.7" stroke-miterlimit="10" stroke-linecap="round" stroke-linejoin="round"/>
<path d="M22.56 7.86547C22.9743 7.86547 23.31 7.52947 23.31 7.11499C23.31 6.70051 22.9743 6.3645 22.56 6.3645C22.1458 6.3645 21.8101 6.70051 21.8101 7.11499C21.8101 7.52947 22.1458 7.86547 22.56 7.86547Z" stroke="#008037" stroke-width="0.7" stroke-miterlimit="10" stroke-linecap="round" stroke-linejoin="round"/>
<path d="M23.3823 11.0942C23.7965 11.0942 24.1323 10.7582 24.1323 10.3437C24.1323 9.92927 23.7965 9.59326 23.3823 9.59326C22.9681 9.59326 22.6323 9.92927 22.6323 10.3437C22.6323 10.7582 22.9681 11.0942 23.3823 11.0942Z" stroke="#008037" stroke-width="0.7" stroke-miterlimit="10" stroke-linecap="round" stroke-linejoin="round"/>
<path d="M18.8335 13.7331C19.2477 13.7331 19.5835 13.3971 19.5835 12.9827C19.5835 12.5682 19.2477 12.2322 18.8335 12.2322C18.4193 12.2322 18.0835 12.5682 18.0835 12.9827C18.0835 13.3971 18.4193 13.7331 18.8335 13.7331Z" stroke="#008037" stroke-width="0.7" stroke-miterlimit="10" stroke-linecap="round" stroke-linejoin="round"/>
<path d="M19.1958 17.8928C19.61 17.8928 19.9458 17.5568 19.9458 17.1423C19.9458 16.7278 19.61 16.3918 19.1958 16.3918C18.7816 16.3918 18.4458 16.7278 18.4458 17.1423C18.4458 17.5568 18.7816 17.8928 19.1958 17.8928Z" stroke="#008037" stroke-width="0.7" stroke-miterlimit="10" stroke-linecap="round" stroke-linejoin="round"/>
<path d="M22.1001 19.8628C22.5143 19.8628 22.8501 19.5268 22.8501 19.1123C22.8501 18.6978 22.5143 18.3618 22.1001 18.3618C21.6859 18.3618 21.3501 18.6978 21.3501 19.1123C21.3501 19.5268 21.6859 19.8628 22.1001 19.8628Z" stroke="#008037" stroke-width="0.7" stroke-miterlimit="10" stroke-linecap="round" stroke-linejoin="round"/>
<path d="M12.3179 22.3777C12.7321 22.3777 13.0678 22.0417 13.0678 21.6272C13.0678 21.2127 12.7321 20.8767 12.3179 20.8767C11.9037 20.8767 11.5679 21.2127 11.5679 21.6272C11.5679 22.0417 11.9037 22.3777 12.3179 22.3777Z" stroke="#008037" stroke-width="0.7" stroke-miterlimit="10" stroke-linecap="round" stroke-linejoin="round"/>
<path d="M16.3647 4.61742L17.0075 1.82959" stroke="#008037" stroke-width="0.7" stroke-miterlimit="10" stroke-linecap="round" stroke-linejoin="round"/>
<path d="M12.9888 7.58076L15.0962 6.25732" stroke="#008037" stroke-width="0.7" stroke-miterlimit="10" stroke-linecap="round" stroke-linejoin="round"/>
<path d="M17.1753 1.85107C17.5895 1.85107 17.9253 1.51507 17.9253 1.10058C17.9253 0.686102 17.5895 0.350098 17.1753 0.350098C16.7611 0.350098 16.4253 0.686102 16.4253 1.10058C16.4253 1.51507 16.7611 1.85107 17.1753 1.85107Z" stroke="#008037" stroke-width="0.7" stroke-miterlimit="10" stroke-linecap="round" stroke-linejoin="round"/>
<path d="M16.1374 6.58974C16.6816 6.58974 17.1229 6.14822 17.1229 5.60358C17.1229 5.05895 16.6816 4.61743 16.1374 4.61743C15.5931 4.61743 15.1519 5.05895 15.1519 5.60358C15.1519 6.14822 15.5931 6.58974 16.1374 6.58974Z" stroke="#008037" stroke-width="0.7" stroke-miterlimit="10" stroke-linecap="round" stroke-linejoin="round"/>
<path d="M10.3833 13.6749L11.3572 11.1162C11.3771 11.0674 11.446 11.0674 11.466 11.1161L12.431 13.6749" stroke="#008037" stroke-width="0.7" stroke-miterlimit="10" stroke-linecap="round" stroke-linejoin="round"/>
<path d="M10.687 13.0376H12.1322" stroke="#008037" stroke-width="0.7" stroke-miterlimit="10" stroke-linecap="round" stroke-linejoin="round"/>
<path d="M14.0269 11.041V13.6363" stroke="#008037" stroke-width="0.7" stroke-miterlimit="10" stroke-linecap="round" stroke-linejoin="round"/>
<path d="M12.3501 8.72412C12.7643 8.72412 13.1001 8.38811 13.1001 7.97363C13.1001 7.55915 12.7643 7.22314 12.3501 7.22314C11.9359 7.22314 11.6001 7.55915 11.6001 7.97363C11.6001 8.38811 11.9359 8.72412 12.3501 8.72412Z" stroke="#008037" stroke-width="0.7" stroke-miterlimit="10" stroke-linecap="round" stroke-linejoin="round"/>
<path d="M16.1372 10.9204C16.5514 10.9204 16.8872 10.5844 16.8872 10.1699C16.8872 9.75544 16.5514 9.41943 16.1372 9.41943C15.723 9.41943 15.3872 9.75544 15.3872 10.1699C15.3872 10.5844 15.723 10.9204 16.1372 10.9204Z" stroke="#008037" stroke-width="0.7" stroke-miterlimit="10" stroke-linecap="round" stroke-linejoin="round"/>
<path d="M16.1372 15.2966C16.5514 15.2966 16.8872 14.9606 16.8872 14.5461C16.8872 14.1317 16.5514 13.7957 16.1372 13.7957C15.723 13.7957 15.3872 14.1317 15.3872 14.5461C15.3872 14.9606 15.723 15.2966 16.1372 15.2966Z" stroke="#008037" stroke-width="0.7" stroke-miterlimit="10" stroke-linecap="round" stroke-linejoin="round"/>
<path d="M12.3501 17.4846C12.7643 17.4846 13.1001 17.1486 13.1001 16.7341C13.1001 16.3196 12.7643 15.9836 12.3501 15.9836C11.9359 15.9836 11.6001 16.3196 11.6001 16.7341C11.6001 17.1486 11.9359 17.4846 12.3501 17.4846Z" stroke="#008037" stroke-width="0.7" stroke-miterlimit="10" stroke-linecap="round" stroke-linejoin="round"/>
</svg>
