<svg width="25" height="25" viewBox="0 0 25 25" fill="none" xmlns="http://www.w3.org/2000/svg">
<path d="M10.5474 13.9893V19.8299" stroke="#008037" stroke-width="0.7" stroke-miterlimit="10" stroke-linecap="round" stroke-linejoin="round"/>
<path d="M0.350098 6.3537V5.44123C0.350098 5.09411 0.637439 4.81274 0.991926 4.81274H10.5478V11.5282" stroke="#008037" stroke-width="0.7" stroke-miterlimit="10" stroke-linecap="round" stroke-linejoin="round"/>
<path d="M10.5478 19.8298H0.991926C0.637439 19.8298 0.350098 19.5484 0.350098 19.2013V7.93384" stroke="#008037" stroke-width="0.7" stroke-miterlimit="10" stroke-linecap="round" stroke-linejoin="round"/>
<path d="M10.5474 6.31641H1.8833V18.3281H10.5474" stroke="#008037" stroke-width="0.7" stroke-miterlimit="10" stroke-linecap="round" stroke-linejoin="round"/>
<path d="M6.1001 22.8484L6.6105 19.8298" stroke="#008037" stroke-width="0.7" stroke-miterlimit="10" stroke-linecap="round" stroke-linejoin="round"/>
<path d="M10.5474 19.8298V22.8484" stroke="#008037" stroke-width="0.7" stroke-miterlimit="10" stroke-linecap="round" stroke-linejoin="round"/>
<path d="M10.5469 22.8484H5.0082C4.81733 22.8484 4.6626 22.9999 4.6626 23.1868V24.0117C4.6626 24.1986 4.81733 24.3501 5.0082 24.3501H10.5469V22.8484Z" stroke="#008037" stroke-width="0.7" stroke-miterlimit="10" stroke-linecap="round" stroke-linejoin="round"/>
<path d="M10.5474 17.8905H18.3127C18.5036 17.8905 18.6583 17.739 18.6583 17.5521V7.09257C18.6583 6.90566 18.5036 6.75415 18.3127 6.75415H10.5474" stroke="#008037" stroke-width="0.7" stroke-miterlimit="10" stroke-linecap="round" stroke-linejoin="round"/>
<path d="M13.6157 6.75406V4.85742" stroke="#008037" stroke-width="0.7" stroke-miterlimit="10" stroke-linecap="round" stroke-linejoin="round"/>
<path d="M12.0809 6.75419V2.57324H10.5474" stroke="#008037" stroke-width="0.7" stroke-miterlimit="10" stroke-linecap="round" stroke-linejoin="round"/>
<path d="M15.145 6.75416V3.34789H16.6844V1.84619" stroke="#008037" stroke-width="0.7" stroke-miterlimit="10" stroke-linecap="round" stroke-linejoin="round"/>
<path d="M16.6841 6.75414V4.80762H18.2133" stroke="#008037" stroke-width="0.7" stroke-miterlimit="10" stroke-linecap="round" stroke-linejoin="round"/>
<path d="M13.6157 17.8904L13.623 21.1462H15.1522V22.6479" stroke="#008037" stroke-width="0.7" stroke-miterlimit="10" stroke-linecap="round" stroke-linejoin="round"/>
<path d="M15.1561 19.3807L15.1489 17.8904" stroke="#008037" stroke-width="0.7" stroke-miterlimit="10" stroke-linecap="round" stroke-linejoin="round"/>
<path d="M16.6821 17.8904L16.6894 19.3306H18.2186V21.3502" stroke="#008037" stroke-width="0.7" stroke-miterlimit="10" stroke-linecap="round" stroke-linejoin="round"/>
<path d="M14.1742 16.4065H10.5474" stroke="#008037" stroke-width="0.7" stroke-miterlimit="10" stroke-linecap="round" stroke-linejoin="round"/>
<path d="M10.5474 8.23804H16.7849C16.9758 8.23804 17.1305 8.38955 17.1305 8.57645V16.0681C17.1305 16.255 16.9758 16.4066 16.7849 16.4066H15.788" stroke="#008037" stroke-width="0.7" stroke-miterlimit="10" stroke-linecap="round" stroke-linejoin="round"/>
<path d="M18.6665 8.58008H19.7527" stroke="#008037" stroke-width="0.7" stroke-miterlimit="10" stroke-linecap="round" stroke-linejoin="round"/>
<path d="M18.6665 10.0818H22.8214" stroke="#008037" stroke-width="0.7" stroke-miterlimit="10" stroke-linecap="round" stroke-linejoin="round"/>
<path d="M18.6665 11.5835H20.8354L22.0647 12.7982" stroke="#008037" stroke-width="0.7" stroke-miterlimit="10" stroke-linecap="round" stroke-linejoin="round"/>
<path d="M18.6665 13.0852H19.7527" stroke="#008037" stroke-width="0.7" stroke-miterlimit="10" stroke-linecap="round" stroke-linejoin="round"/>
<path d="M18.6665 14.5869H20.7439V16.1363" stroke="#008037" stroke-width="0.7" stroke-miterlimit="10" stroke-linecap="round" stroke-linejoin="round"/>
<path d="M23.5896 10.8271C24.0099 10.8271 24.3506 10.4934 24.3506 10.0819C24.3506 9.6703 24.0099 9.33667 23.5896 9.33667C23.1693 9.33667 22.8286 9.6703 22.8286 10.0819C22.8286 10.4934 23.1693 10.8271 23.5896 10.8271Z" stroke="#008037" stroke-width="0.7" stroke-miterlimit="10" stroke-linecap="round" stroke-linejoin="round"/>
<path d="M22.8299 14.3053C23.2502 14.3053 23.5909 13.9717 23.5909 13.5601C23.5909 13.1486 23.2502 12.8149 22.8299 12.8149C22.4096 12.8149 22.0688 13.1486 22.0688 13.5601C22.0688 13.9717 22.4096 14.3053 22.8299 14.3053Z" stroke="#008037" stroke-width="0.7" stroke-miterlimit="10" stroke-linecap="round" stroke-linejoin="round"/>
<path d="M20.7439 17.6322C21.1642 17.6322 21.5049 17.2986 21.5049 16.887C21.5049 16.4755 21.1642 16.1418 20.7439 16.1418C20.3236 16.1418 19.9829 16.4755 19.9829 16.887C19.9829 17.2986 20.3236 17.6322 20.7439 17.6322Z" stroke="#008037" stroke-width="0.7" stroke-miterlimit="10" stroke-linecap="round" stroke-linejoin="round"/>
<path d="M16.6814 1.84049C17.1017 1.84049 17.4424 1.50685 17.4424 1.09529C17.4424 0.683732 17.1017 0.350098 16.6814 0.350098C16.2611 0.350098 15.9204 0.683732 15.9204 1.09529C15.9204 1.50685 16.2611 1.84049 16.6814 1.84049Z" stroke="#008037" stroke-width="0.7" stroke-miterlimit="10" stroke-linecap="round" stroke-linejoin="round"/>
<path d="M18.9822 5.55289C19.4025 5.55289 19.7432 5.21925 19.7432 4.80769C19.7432 4.39613 19.4025 4.0625 18.9822 4.0625C18.5619 4.0625 18.2212 4.39613 18.2212 4.80769C18.2212 5.21925 18.5619 5.55289 18.9822 5.55289Z" stroke="#008037" stroke-width="0.7" stroke-miterlimit="10" stroke-linecap="round" stroke-linejoin="round"/>
<path d="M9.78103 3.31827C10.2013 3.31827 10.542 2.98463 10.542 2.57307C10.542 2.16152 10.2013 1.82788 9.78103 1.82788C9.36074 1.82788 9.02002 2.16152 9.02002 2.57307C9.02002 2.98463 9.36074 3.31827 9.78103 3.31827Z" stroke="#008037" stroke-width="0.7" stroke-miterlimit="10" stroke-linecap="round" stroke-linejoin="round"/>
<path d="M15.1521 24.3424C15.5724 24.3424 15.9131 24.0088 15.9131 23.5972C15.9131 23.1857 15.5724 22.8521 15.1521 22.8521C14.7318 22.8521 14.3911 23.1857 14.3911 23.5972C14.3911 24.0088 14.7318 24.3424 15.1521 24.3424Z" stroke="#008037" stroke-width="0.7" stroke-miterlimit="10" stroke-linecap="round" stroke-linejoin="round"/>
<path d="M18.2185 22.8407C18.6388 22.8407 18.9795 22.5071 18.9795 22.0955C18.9795 21.684 18.6388 21.3503 18.2185 21.3503C17.7982 21.3503 17.4575 21.684 17.4575 22.0955C17.4575 22.5071 17.7982 22.8407 18.2185 22.8407Z" stroke="#008037" stroke-width="0.7" stroke-miterlimit="10" stroke-linecap="round" stroke-linejoin="round"/>
<path d="M13.1316 14.3279L14.8286 12.6662C15.0313 12.4677 15.0313 12.1458 14.8286 11.9473L13.1469 10.3006C12.855 10.0147 12.3794 9.98839 12.074 10.2605C11.748 10.5511 11.7391 11.0457 12.0472 11.3475L12.2248 11.5214L12.2275 11.5712H9.01771C8.59184 11.5712 8.24658 11.9092 8.24658 12.3263C8.24658 12.7433 8.59184 13.0814 9.01771 13.0814H12.2359L12.0625 13.2511C11.7706 13.537 11.7438 14.0027 12.0217 14.3017C12.3183 14.6209 12.8235 14.6297 13.1316 14.3279Z" stroke="#008037" stroke-width="0.7" stroke-miterlimit="10" stroke-linecap="round" stroke-linejoin="round"/>
<path d="M5.42395 15.6518L5.64672 15.8699C5.93865 16.1558 6.41424 16.1821 6.7196 15.9099C7.04565 15.6194 7.05459 15.1247 6.74641 14.823L6.56882 14.6491L6.56611 14.5993H9.77594C10.2018 14.5993 10.5471 14.2612 10.5471 13.8442C10.5471 13.4272 10.2018 13.0891 9.77594 13.0891H6.55777L6.73111 12.9193C7.02304 12.6335 7.0499 12.1678 6.77199 11.8687C6.47527 11.5495 5.97015 11.5407 5.66202 11.8425L3.96503 13.5042C3.76231 13.7027 3.76231 14.0246 3.96503 14.2231L4.28288 14.5344" stroke="#008037" stroke-width="0.7" stroke-miterlimit="10" stroke-linecap="round" stroke-linejoin="round"/>
<path d="M12.0806 17.8904V20.3671" stroke="#008037" stroke-width="0.7" stroke-miterlimit="10" stroke-linecap="round" stroke-linejoin="round"/>
</svg>
