<svg width="25" height="25" viewBox="0 0 25 25" fill="none" xmlns="http://www.w3.org/2000/svg">
<path d="M2.76946 0.399902H1.40624C0.849657 0.399902 0.398438 0.910998 0.398438 1.54144V19.3515C0.398438 19.982 0.849657 20.4931 1.40624 20.4931H3.90051C4.27156 20.4931 4.57236 20.8338 4.57236 21.2541V23.6375C4.57236 24.2756 5.22403 24.6303 5.6639 24.2317L9.6057 20.6598C9.72483 20.5519 9.87284 20.4931 10.0254 20.4931H23.3906C23.9472 20.4931 24.3984 19.982 24.3984 19.3515V1.54144C24.3984 0.910998 23.9472 0.399902 23.3906 0.399902H4.4596" stroke="black" stroke-width="0.8" stroke-miterlimit="10" stroke-linecap="round" stroke-linejoin="round"/>
<path d="M10.1484 12.8694V16.541" stroke="black" stroke-width="0.8" stroke-miterlimit="10" stroke-linecap="round" stroke-linejoin="round"/>
<path d="M13.1484 10.3755V12.0199H11.6484V10.3755" stroke="black" stroke-width="0.8" stroke-miterlimit="10" stroke-linecap="round" stroke-linejoin="round"/>
<path d="M13.1484 12.0198H11.6484V14.8419C11.6484 14.9929 11.7566 15.1153 11.8899 15.1153H12.907C13.0403 15.1153 13.1484 14.9929 13.1484 14.8419V12.0198Z" stroke="black" stroke-width="0.8" stroke-miterlimit="10" stroke-linecap="round" stroke-linejoin="round"/>
<path d="M14.6484 12.8694V16.541" stroke="black" stroke-width="0.8" stroke-miterlimit="10" stroke-linecap="round" stroke-linejoin="round"/>
<path d="M12.962 16.541H15.907C16.0403 16.541 16.1484 16.4185 16.1484 16.2675V11.9617C16.1484 11.0554 15.4998 10.3208 14.6997 10.3208H10.0971C9.29702 10.3208 8.64844 11.0554 8.64844 11.9617V16.2675C8.64844 16.4185 8.75656 16.541 8.88989 16.541H11.2719" stroke="black" stroke-width="0.8" stroke-miterlimit="10" stroke-linecap="round" stroke-linejoin="round"/>
<path d="M12.3968 3.52441C11.4053 3.52441 10.6016 4.4348 10.6016 5.5578V6.58814C10.6016 7.71114 11.4053 8.62153 12.3968 8.62153C13.3882 8.62153 14.192 7.71114 14.192 6.58814V5.5578C14.192 4.4348 13.3882 3.52441 12.3968 3.52441Z" stroke="black" stroke-width="0.8" stroke-miterlimit="10" stroke-linecap="round" stroke-linejoin="round"/>
<path d="M10.6289 6.38005L11.4377 5.46392C11.5736 5.31005 11.7578 5.22363 11.9499 5.22363H12.8498C13.0419 5.22363 13.2262 5.31005 13.3621 5.46392L14.1735 6.38306" stroke="black" stroke-width="0.8" stroke-miterlimit="10" stroke-linecap="round" stroke-linejoin="round"/>
<path d="M8.64844 12.811C8.64844 12.0558 8.10793 11.4436 7.44119 11.4436H3.85568C3.18894 11.4436 2.64844 12.0558 2.64844 12.811V15.4177C2.64844 15.5687 2.75656 15.6912 2.88989 15.6912H8.60015" stroke="black" stroke-width="0.8" stroke-miterlimit="10" stroke-linecap="round" stroke-linejoin="round"/>
<path d="M5.64841 9.74472C6.47683 9.74472 7.14839 8.98404 7.14839 8.0457C7.14839 7.10736 6.47683 6.34668 5.64841 6.34668C4.82 6.34668 4.14844 7.10736 4.14844 8.0457C4.14844 8.98404 4.82 9.74472 5.64841 9.74472Z" stroke="black" stroke-width="0.8" stroke-miterlimit="10" stroke-linecap="round" stroke-linejoin="round"/>
<path d="M4.14844 15.6914V13.1428" stroke="black" stroke-width="0.8" stroke-miterlimit="10" stroke-linecap="round" stroke-linejoin="round"/>
<path d="M7.14844 15.6914V13.1428" stroke="black" stroke-width="0.8" stroke-miterlimit="10" stroke-linecap="round" stroke-linejoin="round"/>
<path d="M5.64844 11.4436V13.9922" stroke="black" stroke-width="0.8" stroke-miterlimit="10" stroke-linecap="round" stroke-linejoin="round"/>
<path d="M22.147 14.8711V15.4178C22.147 15.5688 22.0389 15.6913 21.9056 15.6913H16.1953" stroke="black" stroke-width="0.8" stroke-miterlimit="10" stroke-linecap="round" stroke-linejoin="round"/>
<path d="M16.1484 12.811C16.1484 12.0558 16.6889 11.4436 17.3557 11.4436H20.9412C21.6079 11.4436 22.1484 12.0558 22.1484 12.811V12.9566" stroke="black" stroke-width="0.8" stroke-miterlimit="10" stroke-linecap="round" stroke-linejoin="round"/>
<path d="M19.1484 9.74472C19.9768 9.74472 20.6484 8.98404 20.6484 8.0457C20.6484 7.10736 19.9768 6.34668 19.1484 6.34668C18.32 6.34668 17.6484 7.10736 17.6484 8.0457C17.6484 8.98404 18.32 9.74472 19.1484 9.74472Z" stroke="black" stroke-width="0.8" stroke-miterlimit="10" stroke-linecap="round" stroke-linejoin="round"/>
<path d="M20.6484 15.6914V13.1428" stroke="black" stroke-width="0.8" stroke-miterlimit="10" stroke-linecap="round" stroke-linejoin="round"/>
<path d="M17.6484 15.6914V13.1428" stroke="black" stroke-width="0.8" stroke-miterlimit="10" stroke-linecap="round" stroke-linejoin="round"/>
<path d="M19.1484 11.4436V13.9922" stroke="black" stroke-width="0.8" stroke-miterlimit="10" stroke-linecap="round" stroke-linejoin="round"/>
</svg>
