<svg width="29" height="29" viewBox="0 0 29 29" fill="none" xmlns="http://www.w3.org/2000/svg">
<path d="M11.5308 5.24552C10.4538 6.56819 9.01817 7.51688 7.37892 7.98904C6.84307 8.14343 6.5338 8.70282 6.68815 9.23865C6.83374 9.74392 7.33965 10.0477 7.84619 9.95118C7.87681 9.94537 7.90743 9.93809 7.93794 9.92932C8.77196 9.68912 9.56353 9.34945 10.2995 8.91935" stroke="black" stroke-width="0.8" stroke-miterlimit="10" stroke-linecap="round" stroke-linejoin="round"/>
<path d="M14.405 11.4546L15.5044 8.31466C15.836 8.36616 16.1691 8.39262 16.5011 8.39262C17.9977 8.39262 19.4678 7.8746 20.6495 6.89319L20.785 6.78057C21.2061 6.43076 21.2927 5.80548 20.9581 5.37225C20.6069 4.91733 19.9516 4.84785 19.5131 5.21205L19.359 5.34009C19.096 5.5585 18.8122 5.74362 18.5138 5.89419C17.35 6.48124 15.9514 6.1773 15.0646 5.22196C14.6307 4.75453 14.0104 4.4577 13.3114 4.4577C12.2217 4.4577 11.2695 5.19373 10.9952 6.24821L9.64062 11.4546H14.405Z" stroke="black" stroke-width="0.8" stroke-miterlimit="10" stroke-linecap="round" stroke-linejoin="round"/>
<path d="M15.4825 22.0429L18.7296 18.7964L21.1483 21.2147L26.1902 16.1735L27.4096 17.3928L28.3967 12.4883L23.4916 13.4753L24.5577 14.5413L21.1483 17.9502L18.7296 15.5318L7.49219 26.7677L9.12467 28.3999L12.2629 25.2621" stroke="black" stroke-width="0.8" stroke-miterlimit="10" stroke-linecap="round" stroke-linejoin="round"/>
<path d="M16.8164 2.429C16.8164 1.3084 15.9079 0.400001 14.7871 0.400001C13.6663 0.400001 12.7578 1.3084 12.7578 2.429C12.7578 3.54961 13.6663 4.45801 14.7871 4.45801C15.9079 4.45801 16.8164 3.54961 16.8164 2.429Z" stroke="black" stroke-width="0.8" stroke-miterlimit="10" stroke-linecap="round" stroke-linejoin="round"/>
<path d="M6.01124 20.9695L5.66053 21.889C5.40203 22.5667 5.84266 23.3084 6.56149 23.4057L6.58807 23.4092C7.0801 23.4758 7.55408 23.2264 7.77485 22.7887C8.90034 20.5575 12.2228 13.9893 12.2228 13.9893H13.5722L12.8841 18.3149C12.7822 18.9551 13.277 19.5347 13.9254 19.5347C14.3989 19.5347 14.8143 19.2192 14.9412 18.7631L16.2345 14.117C16.6068 12.7791 15.6007 11.4549 14.2118 11.4549H13.5958" stroke="black" stroke-width="0.8" stroke-miterlimit="10" stroke-linecap="round" stroke-linejoin="round"/>
<path d="M9.64307 11.4548L7.63672 16.7151" stroke="black" stroke-width="0.8" stroke-miterlimit="10" stroke-linecap="round" stroke-linejoin="round"/>
<path d="M4.82144 15.725L0.615111 11.5192C0.326213 11.2304 0.326213 10.7619 0.615111 10.4731L3.66841 7.42019C3.95736 7.13128 4.42583 7.13128 4.71478 7.42019L8.92105 11.6259C9.21001 11.9148 9.21001 12.3832 8.92105 12.6721L5.86782 15.725C5.57886 16.0139 5.1104 16.0139 4.82144 15.725Z" stroke="black" stroke-width="0.8" stroke-miterlimit="10" stroke-linecap="round" stroke-linejoin="round"/>
<path d="M2.14453 8.94669L4.0609 10.8628" stroke="black" stroke-width="0.8" stroke-miterlimit="10" stroke-linecap="round" stroke-linejoin="round"/>
<path d="M7.25621 14.0596L5.33984 12.1435" stroke="black" stroke-width="0.8" stroke-miterlimit="10" stroke-linecap="round" stroke-linejoin="round"/>
<path d="M4.1455 12.2307L3.97145 12.0567C3.66577 11.751 3.66577 11.2554 3.97145 10.9497L4.69905 10.2222L5.9802 11.5032L5.2526 12.2307C4.94691 12.5364 4.45124 12.5364 4.1455 12.2307Z" stroke="black" stroke-width="0.8" stroke-miterlimit="10" stroke-linecap="round" stroke-linejoin="round"/>
</svg>
