<svg width="25" height="25" viewBox="0 0 25 25" fill="none" xmlns="http://www.w3.org/2000/svg">
<path d="M3.44447 16.1787L3.726 15.8971C4.49112 15.132 5.73163 15.132 6.49674 15.8971L9.46242 18.8628C10.2891 19.6895 10.7535 20.8107 10.7535 21.9799V24.5001H6.02477V22.63L1.61914 18.2244C0.902565 17.5078 0.5 16.5359 0.5 15.5226V11.6289H1.0881C2.17011 11.6289 3.04729 12.5061 3.04729 13.5881V15.5226C3.04729 15.8604 3.1815 16.1844 3.42032 16.4232L5.99866 19.0015" stroke="black" stroke-miterlimit="10" stroke-linecap="round" stroke-linejoin="round"/>
<path d="M21.5551 16.1787L21.2736 15.8971C20.5085 15.132 19.268 15.132 18.5029 15.8971L15.5372 18.8628C14.7105 19.6895 14.2461 20.8107 14.2461 21.9799V24.5001H18.9748V22.63L23.3805 18.2244C24.0971 17.5078 24.4996 16.5359 24.4996 15.5226V11.6289H23.9115C22.8295 11.6289 21.9523 12.5061 21.9523 13.5881V15.5226C21.9523 15.8604 21.8181 16.1844 21.5793 16.4232L19.001 19.0015" stroke="black" stroke-miterlimit="10" stroke-linecap="round" stroke-linejoin="round"/>
<path d="M12.4982 15.6447C16.6803 15.6447 20.0705 12.2544 20.0705 8.07234C20.0705 3.89025 16.6803 0.5 12.4982 0.5C8.31605 0.5 4.92578 3.89025 4.92578 8.07234C4.92578 12.2544 8.31605 15.6447 12.4982 15.6447Z" stroke="black" stroke-miterlimit="10" stroke-linejoin="round"/>
<path d="M17.0703 4.90039H7.92578V11.2443H17.0703V4.90039Z" stroke="black" stroke-miterlimit="10" stroke-linejoin="round"/>
<path d="M8.09375 5.04126L12.5007 8.79741L16.9076 5.04126" stroke="black" stroke-miterlimit="10" stroke-linejoin="round"/>
</svg>
