<svg width="24" height="24" viewBox="0 0 24 24" fill="none" xmlns="http://www.w3.org/2000/svg">
<mask id="mask0_6_8371" style="mask-type:luminance" maskUnits="userSpaceOnUse" x="0" y="0" width="24" height="24">
<path d="M23.6504 23.6504V0.349609H0.349609V23.6504H23.6504Z" fill="white" stroke="white" stroke-width="0.7"/>
</mask>
<g mask="url(#mask0_6_8371)">
<path d="M7.96094 1.58916C8.79067 0.821015 9.90081 0.351562 11.1205 0.351562H12.9912C15.4972 0.351562 17.5288 2.38308 17.5288 4.88902V5.625" stroke="black" stroke-width="0.7" stroke-miterlimit="10" stroke-linecap="round" stroke-linejoin="round"/>
<path d="M6.46875 5.625V5.00438C6.46875 4.19264 6.67659 3.42952 7.04198 2.76525" stroke="black" stroke-width="0.7" stroke-miterlimit="10" stroke-linecap="round" stroke-linejoin="round"/>
<path d="M10.6523 12.9375V11.6231" stroke="black" stroke-width="0.7" stroke-miterlimit="10" stroke-linecap="round" stroke-linejoin="round"/>
<path d="M13.3477 12.9375V11.6231" stroke="black" stroke-width="0.7" stroke-miterlimit="10" stroke-linecap="round" stroke-linejoin="round"/>
<path d="M15.5445 6.6935V8.34631C15.5445 10.3024 13.9593 11.8882 12.0031 11.8882H11.9985C10.0424 11.8882 8.45703 10.3024 8.45703 8.34631V6.6935" stroke="black" stroke-width="0.7" stroke-miterlimit="10" stroke-linecap="round" stroke-linejoin="round"/>
<path d="M8.45703 6.69385C8.81891 6.47593 9.16109 6.01463 9.19391 5.62135C9.24125 5.05322 9.62141 4.28353 10.5191 4.63135C10.9677 4.80572 11.4842 4.89291 12.0008 4.89291C12.5173 4.89291 13.0339 4.80572 13.4825 4.63135C14.3802 4.28353 14.7603 5.05322 14.8072 5.62135C14.84 6.01463 15.1827 6.47593 15.5445 6.69385" stroke="black" stroke-width="0.7" stroke-miterlimit="10" stroke-linecap="round" stroke-linejoin="round"/>
<path d="M7.74573 5.52734C7.73448 5.2475 7.74854 4.94 7.80948 4.62359C8.08135 3.21172 8.86557 1.86406 11.9992 1.86406C15.1328 1.86406 15.917 3.21172 16.1889 4.62359C16.2498 4.94 16.2639 5.2475 16.2526 5.52734" stroke="black" stroke-width="0.7" stroke-miterlimit="10" stroke-linecap="round" stroke-linejoin="round"/>
<path d="M8.00473 9.46484H6.87973C6.37438 9.46484 5.96094 9.05141 5.96094 8.546V6.44595C5.96094 5.94055 6.37438 5.52711 6.87973 5.52711H8.00473C8.25228 5.52711 8.45483 5.72966 8.45483 5.9772V9.01475C8.45483 9.2623 8.25228 9.46484 8.00473 9.46484Z" stroke="black" stroke-width="0.7" stroke-miterlimit="10" stroke-linecap="round" stroke-linejoin="round"/>
<path d="M15.9931 9.46484H17.1181C17.6234 9.46484 18.0369 9.05141 18.0369 8.546V6.44595C18.0369 5.94055 17.6234 5.52711 17.1181 5.52711H15.9931C15.7456 5.52711 15.543 5.72966 15.543 5.9772V9.01475C15.543 9.2623 15.7456 9.46484 15.9931 9.46484Z" stroke="black" stroke-width="0.7" stroke-miterlimit="10" stroke-linecap="round" stroke-linejoin="round"/>
<path d="M16.9783 15.2064C17.0946 15.4846 17.159 15.79 17.159 16.1105V16.9922H6.83984V16.1105C6.83984 14.8158 7.88891 13.7667 9.18359 13.7667H9.59703" stroke="black" stroke-width="0.7" stroke-miterlimit="10" stroke-linecap="round" stroke-linejoin="round"/>
<path d="M14.4023 13.7668H14.8158C15.2559 13.7668 15.6676 13.888 16.0194 14.0989" stroke="black" stroke-width="0.7" stroke-miterlimit="10" stroke-linecap="round" stroke-linejoin="round"/>
<path d="M10.5423 12.945L9.6314 13.7039C9.59048 13.738 9.58617 13.7993 9.62179 13.8387L10.9241 15.2825C10.9659 15.3289 11.0407 15.3221 11.0735 15.2689L12.0003 13.7664L10.6514 12.9372C10.6171 12.9161 10.5732 12.9192 10.5423 12.945Z" stroke="black" stroke-width="0.7" stroke-miterlimit="10" stroke-linecap="round" stroke-linejoin="round"/>
<path d="M13.458 12.9453L14.369 13.7042C14.4098 13.7382 14.4142 13.7995 14.3785 13.839L13.0762 15.2828C13.0344 15.3292 12.9597 15.3224 12.9269 15.2692L12 13.7666L13.3489 12.9374C13.3832 12.9163 13.4271 12.9195 13.458 12.9453Z" stroke="black" stroke-width="0.7" stroke-miterlimit="10" stroke-linecap="round" stroke-linejoin="round"/>
<path d="M7.44531 9.46523C7.44531 9.46523 7.70495 10.6626 8.70011 11.6577" stroke="black" stroke-width="0.7" stroke-miterlimit="10" stroke-linecap="round" stroke-linejoin="round"/>
<path d="M0.809344 22.0059C0.518391 21.5115 0.351562 20.9354 0.351562 20.3203C0.351562 18.4822 1.84158 16.9922 3.67969 16.9922H20.3203C22.1584 16.9922 23.6484 18.4822 23.6484 20.3203C23.6484 22.1584 22.1584 23.6484 20.3203 23.6484H3.67969C2.9985 23.6484 2.36508 23.4438 1.83759 23.0926" stroke="black" stroke-width="0.7" stroke-miterlimit="10" stroke-linecap="round" stroke-linejoin="round"/>
<path d="M5.74636 18.3461L6.16233 19.1888C6.21441 19.2944 6.31505 19.3675 6.43148 19.3844L7.36158 19.5196C7.65478 19.5621 7.77183 19.9225 7.55967 20.1293L6.88664 20.7854C6.80241 20.8675 6.76397 20.9857 6.78384 21.1018L6.9427 22.0281C6.99281 22.3201 6.6863 22.5428 6.42408 22.4049L5.59214 21.9676C5.48803 21.9128 5.36358 21.9128 5.25947 21.9676L4.42758 22.4049C4.16531 22.5428 3.8588 22.3201 3.9089 22.0281L4.06776 21.1018C4.08769 20.9857 4.0492 20.8675 3.96497 20.7854L3.29194 20.1293C3.07978 19.9225 3.19683 19.5621 3.49008 19.5196L4.42017 19.3844C4.53656 19.3675 4.63725 19.2944 4.68933 19.1888L5.10525 18.3461C5.23641 18.0804 5.61525 18.0804 5.74636 18.3461Z" stroke="black" stroke-width="0.7" stroke-miterlimit="10" stroke-linecap="round" stroke-linejoin="round"/>
<path d="M18.7932 18.3461L19.2092 19.1888C19.2613 19.2944 19.3619 19.3675 19.4783 19.3844L20.4084 19.5196C20.7016 19.5621 20.8187 19.9225 20.6066 20.1293L19.9335 20.7854C19.8493 20.8675 19.8108 20.9857 19.8308 21.1018L19.9896 22.0281C20.0397 22.3201 19.7332 22.5428 19.4709 22.4049L18.639 21.9676C18.5349 21.9128 18.4105 21.9128 18.3063 21.9676L17.4744 22.4049C17.2122 22.5428 16.9057 22.3201 16.9558 22.0281L17.1146 21.1018C17.1345 20.9857 17.0961 20.8675 17.0118 20.7854L16.3388 20.1293C16.1266 19.9225 16.2437 19.5621 16.5369 19.5196L17.467 19.3844C17.5834 19.3675 17.6841 19.2944 17.7362 19.1888L18.1521 18.3461C18.2833 18.0804 18.6621 18.0804 18.7932 18.3461Z" stroke="black" stroke-width="0.7" stroke-miterlimit="10" stroke-linecap="round" stroke-linejoin="round"/>
<path d="M12.3206 18.3461L12.7365 19.1888C12.7886 19.2944 12.8892 19.3675 13.0057 19.3844L13.9358 19.5196C14.229 19.5621 14.3461 19.9225 14.1339 20.1293L13.4609 20.7854C13.3766 20.8675 13.3382 20.9857 13.3581 21.1018L13.5169 22.0281C13.5671 22.3201 13.2605 22.5428 12.9983 22.4049L12.1664 21.9676C12.0622 21.9128 11.9378 21.9128 11.8337 21.9676L11.0018 22.4049C10.7396 22.5428 10.433 22.3201 10.4831 22.0281L10.642 21.1018C10.6619 20.9857 10.6234 20.8675 10.5392 20.7854L9.86618 20.1293C9.65397 19.9225 9.77107 19.5621 10.0643 19.5196L10.9944 19.3844C11.1108 19.3675 11.2114 19.2944 11.2635 19.1888L11.6795 18.3461C11.8106 18.0804 12.1894 18.0804 12.3206 18.3461Z" stroke="black" stroke-width="0.7" stroke-miterlimit="10" stroke-linecap="round" stroke-linejoin="round"/>
</g>
</svg>
