<svg width="315" height="200" viewBox="0 0 315 200" fill="none" xmlns="http://www.w3.org/2000/svg">
<path d="M161.888 186.943C156.375 189.517 149.439 187.823 146.396 183.16L130.339 158.553C127.296 153.89 129.298 148.023 134.812 145.449C140.324 142.875 147.259 144.569 150.303 149.233L166.359 173.839C169.402 178.502 167.4 184.369 161.888 186.943Z" fill="#008037"/>
<path d="M149.249 189.198C143.872 186.427 142.168 180.493 145.443 175.944L162.726 151.939C166.002 147.39 173.016 145.948 178.394 148.719C183.772 151.49 185.476 157.424 182.201 161.973L164.917 185.978C161.642 190.526 154.628 191.968 149.249 189.198Z" fill="#008037"/>
<path d="M187.093 144.984C190.208 148.836 189.041 154.094 184.487 156.729C179.933 159.363 173.716 158.376 170.601 154.524C167.487 150.672 168.654 145.413 173.208 142.778C177.762 140.144 183.979 141.131 187.093 144.984Z" fill="#FFC09D"/>
<path d="M172.143 148.605C170.755 148.922 169.325 148.229 168.949 147.055L168.021 144.156C167.646 142.982 168.466 141.773 169.854 141.455C171.242 141.137 172.671 141.831 173.047 143.004L173.974 145.903C174.351 147.077 173.53 148.287 172.143 148.605Z" fill="#FFC09D"/>
<path d="M182.014 138.488L178.585 146.105C178.054 147.286 176.492 147.877 175.098 147.428C173.703 146.979 173.003 145.658 173.534 144.478L176.963 136.862C177.495 135.682 179.055 135.09 180.451 135.539C181.845 135.988 182.545 137.309 182.014 138.488Z" fill="#FFC09D"/>
<path d="M188.271 140.012L184.102 147.359C183.457 148.498 181.843 148.978 180.497 148.432C179.151 147.886 178.585 146.521 179.23 145.382L183.398 138.034C184.044 136.896 185.657 136.416 187.003 136.962C188.349 137.508 188.917 138.873 188.271 140.012Z" fill="#FFC09D"/>
<path d="M192.975 144.029L187.099 150.488C186.189 151.489 184.492 151.676 183.309 150.906C182.126 150.136 181.906 148.701 182.816 147.7L188.691 141.242C189.602 140.241 191.298 140.054 192.481 140.825C193.664 141.595 193.885 143.029 192.975 144.029Z" fill="#FFC09D"/>
<path d="M126.38 135.39L122.502 135.307C119.896 135.251 117.837 133.418 117.903 131.214L118.426 113.78L131.741 114.066L131.218 131.5C131.152 133.704 128.986 135.446 126.38 135.39Z" fill="#FFC09D"/>
<path d="M131.729 113.454L118.414 113.168L118.281 117.592C118.151 121.927 122.384 125.681 127.491 125.306C127.809 125.283 128.127 125.245 128.445 125.193C129.51 125.019 130.499 124.687 131.406 124.237L131.729 113.454Z" fill="#797979"/>
<path d="M138.126 96.1308C141.651 101.378 137.784 108.211 129.489 111.395C121.194 114.578 111.612 112.906 108.087 107.66C104.562 102.413 108.429 95.5792 116.724 92.3954C125.019 89.2122 134.601 90.8846 138.126 96.1308Z" fill="#2D2D2D"/>
<path d="M147.379 97.6174C149.729 101.74 145.377 106.705 137.66 108.708C129.943 110.709 121.783 108.99 119.433 104.867C117.084 100.744 121.435 95.7787 129.152 93.7764C136.869 91.7747 145.029 93.4943 147.379 97.6174Z" fill="#2D2D2D"/>
<path d="M134.499 87.4071C139.129 89.7755 138.69 95.9456 133.52 101.188C128.348 106.43 120.402 108.76 115.772 106.392C111.142 104.023 111.58 97.854 116.752 92.6114C121.923 87.3689 129.869 85.0387 134.499 87.4071Z" fill="#2D2D2D"/>
<path d="M139.393 110.572C140.805 116.766 137.058 122.587 131.025 123.571C124.992 124.555 118.957 120.331 117.544 114.137L116.432 109.262C115.019 103.068 118.765 97.2476 124.797 96.2633C130.831 95.2783 136.868 99.5024 138.28 105.697L139.393 110.572Z" fill="#FFC09D"/>
<path d="M126.225 95.5081C122.838 92.9861 117.036 94.2935 113.267 98.4286C109.498 102.564 109.187 107.959 112.575 110.481C115.963 113.003 121.764 111.695 125.533 107.561C129.303 103.426 129.613 98.0296 126.225 95.5081Z" fill="#2D2D2D"/>
<path d="M128.663 109.318C128.47 109.321 128.278 109.245 128.157 109.103C127.965 108.871 128.027 108.552 128.3 108.388C128.379 108.342 130.289 107.211 132.351 108.194C132.644 108.334 132.748 108.649 132.582 108.896C132.419 109.143 132.051 109.231 131.754 109.09C130.373 108.431 129.061 109.193 129.005 109.225C128.9 109.287 128.782 109.317 128.663 109.318Z" fill="#3F3D56"/>
<path d="M139.15 109.197C139.031 109.198 138.911 109.17 138.804 109.11C138.747 109.079 137.41 108.349 136.051 109.041C135.762 109.188 135.391 109.109 135.217 108.865C135.043 108.623 135.137 108.305 135.424 108.158C137.456 107.121 139.399 108.211 139.481 108.257C139.76 108.416 139.833 108.735 139.645 108.971C139.53 109.116 139.342 109.195 139.15 109.197Z" fill="#3F3D56"/>
<path d="M131.42 110.669C131.411 110.965 131.119 111.2 130.769 111.192C130.418 111.185 130.142 110.939 130.152 110.642C130.16 110.345 130.451 110.112 130.801 110.12C131.151 110.127 131.429 110.373 131.42 110.669Z" fill="#3F3D56"/>
<path d="M137.512 110.8C137.503 111.096 137.211 111.331 136.861 111.323C136.51 111.315 136.234 111.069 136.243 110.773C136.252 110.476 136.544 110.243 136.894 110.25C137.244 110.258 137.521 110.504 137.512 110.8Z" fill="#3F3D56"/>
<path d="M139.046 114.518C138.979 114.518 138.911 114.518 138.843 114.516C137.512 114.489 136.271 114.023 135.352 113.205C134.435 112.388 133.947 111.315 133.981 110.188C134.015 109.061 134.566 108.013 135.531 107.237C136.499 106.46 137.755 106.04 139.097 106.076C140.43 106.103 141.669 106.57 142.589 107.387C143.507 108.204 143.995 109.275 143.961 110.403C143.927 111.531 143.375 112.58 142.409 113.356C141.492 114.094 140.304 114.503 139.046 114.518ZM138.907 106.788C137.862 106.8 136.876 107.14 136.113 107.753C135.31 108.399 134.852 109.269 134.824 110.207C134.796 111.143 135.201 112.034 135.965 112.713C136.727 113.392 137.758 113.78 138.864 113.804C139.98 113.806 141.025 113.485 141.828 112.839C142.631 112.193 143.089 111.322 143.117 110.385C143.145 109.447 142.74 108.558 141.977 107.878C141.213 107.199 140.183 106.813 139.076 106.788C139.019 106.787 138.963 106.787 138.907 106.788Z" fill="#2D2D2D"/>
<path d="M128.333 114.808C128.257 114.809 128.182 114.808 128.107 114.806C125.017 114.739 122.567 112.56 122.646 109.948C122.684 108.681 123.303 107.504 124.388 106.631C125.471 105.757 126.895 105.286 128.391 105.328C129.887 105.359 131.279 105.883 132.311 106.8C133.343 107.718 133.889 108.92 133.852 110.187C133.813 111.453 133.194 112.63 132.109 113.502C131.08 114.331 129.745 114.791 128.333 114.808ZM128.178 106.128C127.004 106.142 125.896 106.523 125.04 107.211C124.138 107.937 123.624 108.915 123.593 109.968C123.527 112.139 125.563 113.949 128.13 114.005C129.361 114.041 130.554 113.647 131.456 112.922C132.358 112.197 132.872 111.218 132.904 110.166C132.935 109.113 132.481 108.115 131.623 107.353C130.767 106.591 129.61 106.154 128.366 106.129C128.304 106.127 128.241 106.128 128.178 106.128Z" fill="#2D2D2D"/>
<path d="M132.892 110.752L134.955 110.796C135.194 110.802 135.394 110.641 135.4 110.438C135.406 110.236 135.217 110.067 134.977 110.061L132.914 110.017C132.674 110.012 132.475 110.173 132.469 110.375C132.462 110.579 132.653 110.747 132.892 110.752Z" fill="#2D2D2D"/>
<path d="M136.709 116.473C136.666 117.895 135.155 119.017 133.333 118.978C131.511 118.938 130.436 117.426 130.479 116.003C132.612 115.817 134.692 115.959 136.709 116.473Z" fill="#3F3D56"/>
<path d="M129.351 119.593L125.773 119.633C124.329 119.65 122.937 119.216 121.851 118.409L119.584 116.726C119.403 116.592 119.385 116.36 119.544 116.208C119.702 116.055 119.976 116.041 120.156 116.173L122.424 117.856C123.347 118.543 124.532 118.913 125.761 118.898L129.339 118.859C129.578 118.856 129.775 119.018 129.778 119.222C129.782 119.425 129.59 119.59 129.351 119.593Z" fill="white"/>
<path d="M129.353 119.961L129.352 119.961L127.902 119.977C127.422 119.982 127.028 119.657 127.022 119.25C127.017 118.846 127.399 118.513 127.878 118.507L129.329 118.491C129.809 118.486 130.204 118.812 130.21 119.217C130.216 119.622 129.833 119.955 129.353 119.961Z" fill="#2D2D2D"/>
<path d="M124.862 113.096C124.76 116.494 121.421 119.179 117.405 119.093C113.388 119.006 110.214 116.183 110.316 112.785C110.418 109.387 113.757 106.702 117.773 106.789C121.789 106.875 124.963 109.699 124.862 113.096Z" fill="#008037"/>
<path d="M122.203 113.039C122.116 115.94 119.504 118.237 116.37 118.17C113.235 118.103 110.764 115.697 110.851 112.796C110.938 109.896 113.549 107.598 116.684 107.666C119.819 107.734 122.29 110.139 122.203 113.039Z" fill="#797979"/>
<path d="M117.411 112.938C117.376 114.113 116.474 115.047 115.397 115.024C114.319 115.001 113.474 114.03 113.509 112.855C113.544 111.68 114.445 110.746 115.523 110.769C116.601 110.792 117.446 111.763 117.411 112.938Z" fill="#2D2D2D"/>
<path d="M136.582 198.641L101.799 199.881C95.9951 199.756 91.4093 195.675 91.5564 190.766L92.9415 141.481C93.0181 138.905 94.9946 136.645 97.8841 135.829L123.71 128.536L144.584 136.698C147.205 137.723 148.856 139.968 148.782 142.411L147.357 189.976C147.21 194.886 142.386 198.766 136.582 198.641Z" fill="#008037"/>
<path d="M148.787 142.41C148.992 147.546 149.006 152.677 148.992 157.807C148.996 162.937 148.864 168.065 148.733 173.193C148.56 178.319 148.383 183.447 148.072 188.57C148.004 189.815 147.952 191.218 147.418 192.498C146.914 193.777 146.091 194.963 144.993 195.923C142.789 197.831 139.627 198.885 136.586 198.641C139.624 198.55 142.516 197.363 144.359 195.443C145.306 194.507 145.99 193.397 146.369 192.225C146.776 191.05 146.744 189.851 146.736 188.541C146.733 183.41 146.864 178.283 146.998 173.155C147.173 168.029 147.349 162.902 147.662 157.778C147.954 152.654 148.276 147.53 148.787 142.41Z" fill="#797979"/>
<path d="M133.392 137.742L114.595 136.94L115.159 127.488C115.23 126.313 116.412 125.409 117.801 125.468L131.567 126.056C132.956 126.116 134.026 127.116 133.955 128.291L133.392 137.742Z" fill="#008037"/>
<path d="M80.8359 182.888C74.9873 180.914 72.138 175.303 74.4718 170.356L86.7856 144.251C89.1194 139.304 95.7523 136.894 101.6 138.868C107.449 140.842 110.298 146.453 107.964 151.4L95.6498 177.505C93.3166 182.452 86.6838 184.862 80.8359 182.888Z" fill="#008037"/>
<path d="M101.6 138.868C103.645 139.402 105.519 140.487 106.918 141.936C108.289 143.398 109.181 145.218 109.4 147.116C109.733 149.001 109.048 151.022 108.255 152.656L105.931 157.692C104.334 161.033 102.733 164.374 101.008 167.672L98.414 172.618C97.4898 174.247 96.6225 175.893 95.6502 177.506C96.2567 175.77 96.9675 174.07 97.6228 172.351L99.7666 167.253C101.199 163.856 102.757 160.502 104.318 157.148L106.732 152.141C107.143 151.286 107.572 150.53 107.77 149.707C107.992 148.889 108.117 148.043 108.073 147.195C107.963 143.79 105.444 140.47 101.6 138.868Z" fill="#797979"/>
<path d="M133.666 168.66L127.856 168.412C125.678 168.319 123.996 166.743 124.106 164.901L124.239 162.685C124.348 160.843 126.209 159.42 128.387 159.513L134.197 159.761L133.666 168.66ZM128.256 161.715C127.513 161.683 126.878 162.169 126.841 162.797L126.709 165.012C126.672 165.64 127.245 166.178 127.987 166.21L131.195 166.347L131.463 161.852L128.256 161.715Z" fill="#3F3D56"/>
<path d="M139.428 175.655L134.402 175.441C131.35 175.31 129.002 173.112 129.156 170.531L129.972 156.865C130.063 155.34 146.139 156.027 146.048 157.551L145.232 171.217C145.078 173.799 142.479 175.786 139.428 175.655Z" fill="#797979"/>
<path d="M144.455 157.94C144.423 158.489 141.445 158.807 137.805 158.652C134.166 158.497 131.241 157.926 131.274 157.377C131.307 156.828 134.284 156.509 137.924 156.664C141.564 156.819 144.487 157.391 144.455 157.94Z" fill="#3F3D56"/>
<path d="M74.3769 174.292C74.388 168.965 79.5017 164.656 85.7987 164.665L119.024 164.716C125.321 164.726 130.416 169.052 130.404 174.378C130.393 179.705 125.279 184.015 118.982 184.005L85.7567 183.954C79.4597 183.944 74.3657 179.618 74.3769 174.292Z" fill="#008037"/>
<path d="M85.8021 164.665C90.0636 164.369 94.3238 164.233 98.585 164.123C102.847 163.995 107.108 163.982 111.368 163.97L117.758 164.018C119.847 164.006 122.321 164.218 124.264 165.181C126.266 166.061 127.929 167.439 129.025 169.06C130.093 170.699 130.585 172.574 130.407 174.379C130.08 170.764 127.376 167.551 123.682 166.198C122.767 165.849 121.795 165.63 120.815 165.501C119.838 165.351 118.848 165.405 117.756 165.41L111.365 165.439C107.105 165.414 102.843 165.388 98.5823 165.248C94.3225 165.123 90.0617 164.976 85.8021 164.665Z" fill="#797979"/>
<path d="M141.815 171.354C142.403 175.995 138.432 180.16 132.947 180.657C127.461 181.154 122.537 177.795 121.95 173.155C121.362 168.514 125.333 164.35 130.818 163.853C136.304 163.355 141.227 166.714 141.815 171.354Z" fill="#FFC09D"/>
<path d="M126.655 168.265C125.402 167.916 124.723 166.773 125.137 165.713L126.159 163.097C126.573 162.037 127.924 161.463 129.176 161.812C130.429 162.162 131.109 163.305 130.696 164.364L129.673 166.981C129.259 168.041 127.908 168.616 126.655 168.265Z" fill="#FFC09D"/>
<path d="M145.8 169.145L136.946 169.948C135.576 170.072 134.344 169.232 134.197 168.072C134.05 166.912 135.043 165.871 136.415 165.747L145.267 164.944C146.639 164.82 147.87 165.66 148.017 166.82C148.163 167.98 147.17 169.021 145.8 169.145Z" fill="#FFC09D"/>
<path d="M144.031 176.062L135.139 175.682C133.761 175.624 132.7 174.632 132.77 173.466C132.84 172.301 134.013 171.404 135.39 171.463L144.282 171.843C145.66 171.902 146.721 172.894 146.651 174.059C146.581 175.224 145.408 176.121 144.031 176.062Z" fill="#FFC09D"/>
<path d="M149.709 37.245C148.682 36.4249 147.752 35.5149 146.946 34.5418C146.616 34.142 146.731 33.5933 147.201 33.3135C147.675 33.0329 148.323 33.1472 148.654 33.5298C149.908 35.0463 151.508 36.3931 153.288 37.4406C153.757 37.7228 153.875 38.2691 153.548 38.6691C153.219 39.0687 152.571 39.1666 152.096 38.8893C151.262 38.3968 150.459 37.8434 149.709 37.245ZM158.261 41.2409C157.993 41.027 157.87 40.7005 157.966 40.3786C158.108 39.9071 158.677 39.623 159.235 39.7426C161.367 40.2061 163.562 40.3421 165.762 40.1505C166.334 40.0999 166.846 40.4539 166.905 40.9363C166.964 41.4199 166.549 41.8535 165.976 41.9026C163.532 42.1169 161.089 41.965 158.718 41.4525C158.54 41.4131 158.384 41.3393 158.261 41.2409ZM144.196 29.362C144.059 29.2527 143.954 29.1089 143.903 28.9426C143.291 26.9361 143.106 24.8705 143.352 22.8035C143.41 22.319 143.921 21.9655 144.494 22.0143C145.067 22.0651 145.485 22.4974 145.428 22.9807C145.206 24.8393 145.372 26.6972 145.921 28.5012C146.066 28.9735 145.731 29.4537 145.173 29.5756C144.812 29.6541 144.448 29.5631 144.196 29.362ZM171.794 40.0485C171.706 39.9782 171.633 39.8936 171.575 39.7964C171.32 39.3601 171.533 38.8304 172.049 38.6152C174.015 37.793 175.785 36.686 177.307 35.3216C177.701 34.9681 178.361 34.9523 178.779 35.2863C179.197 35.6199 179.217 36.1777 178.822 36.5312C177.13 38.0478 175.161 39.2823 172.972 40.1971C172.57 40.3641 172.101 40.2936 171.794 40.0485ZM145.576 17.9157C145.252 17.6566 145.151 17.24 145.358 16.8844C146.264 15.3285 147.444 13.8945 148.864 12.6189C149.13 12.38 149.401 12.1497 149.68 11.928C150.097 11.5922 150.773 11.6318 151.153 11.9623C151.547 12.3152 151.53 12.8743 151.11 13.2085C150.863 13.4072 150.618 13.6141 150.381 13.8269C149.103 14.9752 148.042 16.2666 147.228 17.6631C146.974 18.0995 146.35 18.2791 145.833 18.0642C145.737 18.0251 145.65 17.9747 145.576 17.9157ZM180.168 33.3346C179.827 33.0624 179.736 32.6201 179.977 32.2596C181.059 30.635 181.783 28.8779 182.126 27.033C182.215 26.5517 182.75 26.2234 183.318 26.2994C183.888 26.3722 184.276 26.8251 184.186 27.3072C183.802 29.3616 182.998 31.3181 181.793 33.1244C181.509 33.5496 180.873 33.6997 180.373 33.4605C180.297 33.4245 180.227 33.3817 180.168 33.3346ZM155.455 9.99852C155.354 9.91783 155.27 9.81681 155.212 9.70164C154.987 9.2531 155.232 8.73574 155.762 8.54527C158.015 7.73239 160.404 7.26993 162.858 7.17318C163.435 7.14631 163.923 7.52474 163.949 8.01118C163.978 8.49755 163.532 8.91078 162.958 8.93322C160.75 9.02155 158.604 9.43665 156.579 10.168C156.185 10.3093 155.747 10.2317 155.455 9.99852ZM182.3 21.9633C182.148 21.8417 182.037 21.6821 181.994 21.4949C181.564 19.6665 180.758 17.9338 179.6 16.3477C179.297 15.9329 179.449 15.3892 179.937 15.1337C180.428 14.8797 181.067 15.0029 181.373 15.4196C182.664 17.1855 183.56 19.1146 184.039 21.1507C184.151 21.6294 183.784 22.0921 183.22 22.1879C182.875 22.2465 182.538 22.1533 182.3 21.9633ZM169.043 9.44746C168.762 9.22314 168.641 8.87394 168.766 8.54018C168.939 8.07512 169.524 7.81804 170.073 7.96616C172.409 8.59098 174.575 9.55822 176.512 10.8387C176.952 11.1284 177.046 11.6923 176.692 12.0766C176.337 12.4598 175.683 12.5284 175.228 12.2283C173.488 11.0787 171.541 10.2092 169.445 9.64654C169.29 9.60537 169.154 9.53587 169.043 9.44746Z" fill="#008037"/>
<path d="M163.563 14.8976C156.046 15.4628 150.311 19.3282 150.753 23.5318L150.755 23.5537C150.876 24.6509 151.979 25.3259 152.899 24.9083L156.336 23.3504C157.164 22.9753 157.469 21.885 156.989 21.0219L156.443 20.0419C156.443 20.0419 163.113 20.5372 171.593 18.9029L171.287 20.2367C171.093 21.0814 171.553 21.972 172.333 22.259L176.037 23.625C176.938 23.9571 177.885 23.3494 177.978 22.3417C178.005 22.0584 178.003 21.7728 177.973 21.4853C177.531 17.2817 171.08 14.3325 163.563 14.8976Z" fill="#008037"/>
<path d="M173.295 32.944H154.357L157.164 25.5067C157.69 24.1122 159.221 23.166 160.952 23.166H166.702C168.432 23.166 169.963 24.1122 170.49 25.5067L173.295 32.944Z" fill="#797979"/>
<path d="M294.531 111.103V109.681C294.531 108.633 295.535 107.784 296.773 107.784C298.011 107.784 299.015 108.633 299.015 109.681V112.04H294.531" fill="#008037"/>
<path d="M297.851 123.654H273.611V112.026H297.851V123.654Z" fill="#797979"/>
<path d="M297.848 123.654H285.728H273.607L284.495 118.736C285.236 118.3 286.219 118.3 286.961 118.736L297.848 123.654Z" fill="#008037"/>
<path d="M294.568 109.654V121.739H278.041V109.654C278.041 108.607 279.045 107.758 280.283 107.758H296.622L296.169 107.837C295.243 108.071 294.568 108.795 294.568 109.654Z" fill="#2D2D2D"/>
<path d="M279.076 112.907H282.74V109.726H279.076V112.907Z" fill="#008037"/>
<path d="M279.076 113.979H293.179" stroke="#008037" stroke-width="0.329" stroke-linecap="round" stroke-linejoin="round"/>
<path d="M279.076 115.05H293.179" stroke="#008037" stroke-width="0.329" stroke-linecap="round" stroke-linejoin="round"/>
<path d="M279.076 116.099H293.179" stroke="#008037" stroke-width="0.329" stroke-linecap="round" stroke-linejoin="round"/>
<path d="M279.076 117.171H285.93" stroke="#008037" stroke-width="0.329" stroke-linecap="round" stroke-linejoin="round"/>
<path d="M283.861 109.709H293.177" stroke="#008037" stroke-width="0.329" stroke-linecap="round" stroke-linejoin="round"/>
<path d="M283.861 110.778H293.177" stroke="#008037" stroke-width="0.329" stroke-linecap="round" stroke-linejoin="round"/>
<path d="M283.861 111.851H293.177" stroke="#008037" stroke-width="0.329" stroke-linecap="round" stroke-linejoin="round"/>
<path d="M283.945 112.921H293.261" stroke="#008037" stroke-width="0.329" stroke-linecap="round" stroke-linejoin="round"/>
<path d="M291.896 123.654H273.611V112.026L291.896 123.654Z" fill="#008037"/>
<path d="M279.564 123.654H297.849V112.026L279.564 123.654Z" fill="#008037"/>
<path d="M300.023 127.836C298.991 128.66 297.864 129.393 296.668 130.015C296.177 130.269 295.534 130.14 295.233 129.726C294.932 129.31 295.096 128.767 295.574 128.512C297.434 127.546 299.124 126.264 300.456 124.825C300.818 124.447 301.467 124.376 301.921 124.677C302.374 124.978 302.452 125.532 302.098 125.915C301.472 126.588 300.772 127.235 300.023 127.836ZM305.233 120.847C304.966 121.061 304.573 121.146 304.2 121.046C303.65 120.898 303.347 120.402 303.523 119.939C304.19 118.162 304.48 116.316 304.381 114.45C304.354 113.963 304.798 113.55 305.374 113.529C305.948 113.507 306.436 113.883 306.461 114.37C306.573 116.444 306.252 118.498 305.508 120.473C305.453 120.622 305.357 120.749 305.233 120.847ZM290.4 132.035C290.263 132.145 290.087 132.225 289.887 132.258C287.484 132.658 285.035 132.694 282.612 132.367C282.044 132.29 281.656 131.837 281.747 131.357C281.84 130.876 282.374 130.549 282.941 130.624C285.121 130.921 287.323 130.887 289.484 130.528C290.05 130.433 290.597 130.744 290.708 131.222C290.781 131.531 290.652 131.834 290.4 132.035ZM304.609 109.349C304.521 109.419 304.417 109.476 304.299 109.519C303.769 109.709 303.157 109.5 302.933 109.051C302.077 107.343 300.873 105.784 299.351 104.42C298.956 104.066 298.975 103.509 299.394 103.175C299.812 102.841 300.471 102.857 300.866 103.211C302.558 104.727 303.9 106.462 304.853 108.363C305.028 108.713 304.916 109.104 304.609 109.349ZM276.967 130.207C276.643 130.466 276.145 130.528 275.738 130.333C273.953 129.477 272.33 128.398 270.909 127.125C270.644 126.887 270.389 126.645 270.142 126.397C269.771 126.024 269.883 125.425 270.266 125.155C270.706 124.842 271.364 124.889 271.734 125.26C271.957 125.483 272.187 125.702 272.425 125.915C273.702 127.06 275.163 128.031 276.765 128.798C277.266 129.037 277.442 129.576 277.158 129.999C277.107 130.078 277.041 130.148 276.967 130.207ZM297.173 101.887C296.832 102.159 296.305 102.21 295.894 101.986C294.04 100.979 292.007 100.267 289.851 99.8692C289.288 99.7663 288.931 99.2959 289.054 98.821C289.174 98.3424 289.731 98.0433 290.294 98.1462C292.695 98.5879 294.959 99.3824 297.02 100.503C297.504 100.766 297.644 101.312 297.333 101.721C297.287 101.784 297.232 101.84 297.173 101.887ZM268.199 121.406C268.098 121.487 267.975 121.552 267.836 121.594C267.293 121.759 266.696 121.521 266.502 121.062C265.675 119.11 265.268 117.067 265.295 114.989C265.295 114.499 265.773 114.112 266.348 114.117C266.924 114.121 267.384 114.52 267.378 115.007C267.355 116.875 267.721 118.713 268.464 120.467C268.609 120.808 268.49 121.174 268.199 121.406ZM283.879 99.4296C283.727 99.5508 283.532 99.6352 283.309 99.6615C281.121 99.9187 279.029 100.499 277.094 101.384C276.587 101.616 275.955 101.456 275.681 101.029C275.409 100.601 275.597 100.071 276.101 99.8331C278.258 98.8477 280.586 98.2016 283.021 97.9139C283.592 97.8471 284.117 98.1843 284.197 98.6662C284.246 98.9607 284.117 99.2396 283.879 99.4296ZM268.337 109.897C268.056 110.122 267.637 110.204 267.25 110.078C266.711 109.905 266.441 109.396 266.647 108.941C267.521 107.003 268.789 105.23 270.413 103.67C270.804 103.296 271.454 103.27 271.884 103.59C272.316 103.912 272.358 104.47 271.978 104.835C270.52 106.236 269.379 107.829 268.594 109.569C268.536 109.698 268.448 109.809 268.337 109.897Z" fill="#008037"/>
<path d="M215.32 75.8262H172.67C168.476 75.8262 165.075 78.7024 165.075 82.2503V103.055C165.075 106.444 168.18 109.214 172.114 109.455L163.32 121.646L186.498 109.479H215.32C219.514 109.479 222.914 106.603 222.914 103.055V82.2503C222.914 78.7024 219.514 75.8262 215.32 75.8262Z" fill="#797979"/>
<mask id="mask0_6263_6906" style="mask-type:alpha" maskUnits="userSpaceOnUse" x="163" y="75" width="60" height="47">
<path d="M215.32 75.8262H172.67C168.476 75.8262 165.075 78.7024 165.075 82.2503V103.055C165.075 106.444 168.18 109.214 172.114 109.455L163.32 121.646L186.498 109.479H215.32C219.514 109.479 222.914 106.603 222.914 103.055V82.2503C222.914 78.7024 219.514 75.8262 215.32 75.8262Z" fill="#91A8F6"/>
</mask>
<g mask="url(#mask0_6263_6906)">
<path d="M196.919 87.6053C196.919 89.964 194.659 91.8767 191.87 91.8767C189.081 91.8767 186.82 89.964 186.82 87.6053C186.82 85.2466 189.081 83.334 191.87 83.334C194.659 83.334 196.919 85.2466 196.919 87.6053Z" fill="#008037"/>
<path d="M196.919 87.6053C196.919 89.964 194.659 91.8767 191.87 91.8767C189.081 91.8767 186.82 89.964 186.82 87.6053C186.82 85.2466 189.081 83.334 191.87 83.334C194.659 83.334 196.919 85.2466 196.919 87.6053Z" stroke="#008037" stroke-width="1.3805" stroke-linecap="round" stroke-linejoin="round"/>
<path d="M205.929 101.971H182.059C182.059 98.3971 185.484 95.5 189.709 95.5H198.279C202.504 95.5 205.929 98.3971 205.929 101.971Z" fill="#008037"/>
<path d="M205.929 101.971H182.059C182.059 98.3971 185.484 95.5 189.709 95.5H198.279C202.504 95.5 205.929 98.3971 205.929 101.971Z" stroke="#008037" stroke-width="1.3805" stroke-linecap="round" stroke-linejoin="round"/>
</g>
<path d="M75.8782 128.012C67.7459 128.479 55.9661 128.136 44.8652 124.076" stroke="#008037" stroke-width="1.5" stroke-linecap="round" stroke-dasharray="5.8 5.8"/>
<path d="M222.23 26.1484H279.083C286.19 26.1484 291.951 31.0219 291.951 37.0335V61.8391C291.951 67.8514 286.19 72.7248 279.083 72.7248H241.905L228.533 82.7053V72.7248H222.23C215.122 72.7248 209.361 67.8514 209.361 61.8391V37.0335C209.361 31.0219 215.122 26.1484 222.23 26.1484Z" fill="#008037"/>
<path d="M154.755 193.083H216.551C218.385 193.083 219.963 191.978 220.303 190.454L228.632 160.222C229.081 158.23 227.275 156.386 224.878 156.386H163.085C161.248 156.386 159.673 157.491 159.33 159.016L151.001 189.247C150.556 191.239 152.359 193.083 154.755 193.083Z" fill="#2D2D2D"/>
<path d="M159.33 159.017C159.515 158.178 160.082 157.468 160.854 156.997C162.009 157.703 162.671 158.928 162.378 160.223L154.051 190.456C153.862 191.295 153.301 192.003 152.528 192.474C151.374 191.769 150.711 190.542 151.002 189.249L159.33 159.017Z" fill="#797979"/>
<path d="M198.197 178.593H188.063C185.984 178.593 184.299 177.167 184.299 175.409C184.299 173.65 185.984 172.225 188.063 172.225H198.197C200.275 172.225 201.961 173.65 201.961 175.409C201.961 177.167 200.275 178.593 198.197 178.593Z" fill="white"/>
<path d="M127.335 195.693H213.412C215.814 195.693 216.553 194.047 216.553 192.015H122.986C122.986 194.047 124.934 195.693 127.335 195.693Z" fill="#797979"/>
<path d="M122.34 192.015H152.851C152.851 194.047 150.641 195.693 147.914 195.693H127.918C127.89 195.693 122.237 195.692 122.21 195.692C119.397 195.658 119.527 192.015 122.34 192.015Z" fill="#797979"/>
<path d="M262.622 199.902H2.60614C1.16642 199.902 0 198.915 0 197.698C0 196.48 1.16642 195.493 2.60614 195.493H262.622C264.061 195.493 265.228 196.48 265.228 197.698C265.228 198.915 264.061 199.902 262.622 199.902Z" fill="#2D2D2D"/>
<path d="M131.556 193.028H128.516C127.916 193.028 127.43 192.617 127.43 192.109C127.43 191.602 127.916 191.19 128.516 191.19H131.556C132.155 191.19 132.642 191.602 132.642 192.109C132.642 192.617 132.155 193.028 131.556 193.028Z" fill="#797979"/>
<path d="M137.49 193.028H134.449C133.849 193.028 133.363 192.617 133.363 192.109C133.363 191.602 133.849 191.19 134.449 191.19H137.49C138.089 191.19 138.576 191.602 138.576 192.109C138.576 192.617 138.089 193.028 137.49 193.028Z" fill="#797979"/>
<path d="M143.423 193.028H140.383C139.782 193.028 139.297 192.617 139.297 192.109C139.297 191.602 139.782 191.19 140.383 191.19H143.423C144.022 191.19 144.508 191.602 144.508 192.109C144.508 192.617 144.022 193.028 143.423 193.028Z" fill="#797979"/>
<path d="M149.362 193.028H146.322C145.722 193.028 145.236 192.617 145.236 192.109C145.236 191.602 145.722 191.19 146.322 191.19H149.362C149.962 191.19 150.448 191.602 150.448 192.109C150.448 192.617 149.962 193.028 149.362 193.028Z" fill="#797979"/>
<path d="M40.6408 181.804C40.6408 181.804 41.0478 169.538 38.1914 166.118" stroke="#2D2D2D" stroke-width="0.4135" stroke-miterlimit="10" stroke-linecap="round"/>
<path d="M40.1156 159.05C40.5409 161.733 39.9118 164.019 38.7116 164.156C37.5116 164.291 36.194 162.226 35.7695 159.542C35.766 159.515 35.7616 159.488 35.7572 159.462C35.4192 157.076 39.6874 156.593 40.1027 158.969C40.1077 158.996 40.1113 159.023 40.1156 159.05Z" fill="#2D2D2D"/>
<path d="M44.4471 165.511C41.2748 165.871 38.5714 165.339 38.4112 164.324C38.2509 163.309 40.6924 162.194 43.8652 161.835C43.8969 161.831 43.9286 161.828 43.9603 161.824C46.7803 161.538 47.3517 165.149 44.5421 165.5C44.5104 165.504 44.4787 165.507 44.4471 165.511Z" fill="#2D2D2D"/>
<path d="M33.5944 166.739C36.7672 166.38 39.2093 165.266 39.0484 164.251C38.8875 163.236 36.1854 162.704 33.0133 163.063C32.9809 163.067 32.9494 163.07 32.9183 163.074C30.1088 163.425 30.6793 167.037 33.4994 166.75L33.5944 166.739Z" fill="#2D2D2D"/>
<path d="M38.1255 170.344C39.4678 167.886 39.6654 165.545 38.566 165.115C37.4666 164.686 35.4869 166.33 34.1446 168.788C34.1318 168.813 34.1183 168.838 34.1048 168.862C32.9495 171.057 36.8584 172.584 38.0844 170.417C38.0985 170.393 38.1119 170.369 38.1255 170.344Z" fill="#2D2D2D"/>
<path d="M41.1896 169.997C39.1299 167.924 38.2115 165.709 39.1391 165.05C40.0654 164.391 42.487 165.537 44.5468 167.61C44.567 167.631 44.5873 167.652 44.6075 167.673C46.4048 169.533 43.1086 171.876 41.2513 170.059C41.2311 170.038 41.21 170.018 41.1896 169.997Z" fill="#2D2D2D"/>
<path d="M40.0695 164.686C40.1794 165.379 39.6034 166.017 38.7825 166.111C37.9626 166.203 37.2083 165.716 37.0991 165.022C36.9887 164.328 37.5647 163.69 38.3848 163.597C39.2061 163.505 39.9597 163.992 40.0695 164.686Z" fill="#797979"/>
<path d="M49.959 178.332C45.6747 181.594 41.0181 183.127 39.5593 181.756C38.1004 180.384 40.3916 176.628 44.6766 173.367C48.9615 170.104 55.0763 169.943 55.0763 169.943C55.0763 169.943 54.2439 175.069 49.959 178.332Z" fill="#008037"/>
<path d="M36.4967 173.835C40.2586 176.708 42.268 180.013 40.9829 181.216C39.6985 182.42 35.6061 181.067 31.8442 178.195C28.0823 175.322 27.3592 170.814 27.3592 170.814C27.3592 170.814 32.7348 170.962 36.4967 173.835Z" fill="#008037"/>
<path d="M46.7753 196.226H33.0258L30.6191 181.594H49.1813L46.7753 196.226Z" fill="#2D2D2D"/>
<path d="M49.8961 185.347H29.8955C29.3555 185.347 28.918 184.976 28.918 184.52V180.733C28.918 180.276 29.3555 179.906 29.8955 179.906H49.8961C50.4361 179.906 50.873 180.276 50.873 180.733V184.52C50.873 184.976 50.4361 185.347 49.8961 185.347Z" fill="#2D2D2D"/>
</svg>
