<svg width="140" height="134" viewBox="0 0 140 134" fill="none" xmlns="http://www.w3.org/2000/svg">
<rect width="140" height="134" rx="67" fill="url(#paint0_linear_6263_10167)" fill-opacity="0.5"/>
<rect x="16" y="16" width="108" height="102" rx="51" fill="url(#paint1_linear_6263_10167)" fill-opacity="0.25"/>
<rect x="36" y="36" width="68" height="62" rx="31" fill="url(#paint2_linear_6263_10167)" fill-opacity="0.15"/>
<path d="M65.9609 58H74.04" stroke="white" stroke-miterlimit="10" stroke-linecap="round" stroke-linejoin="round"/>
<path d="M62.2988 64.002H77.7011" stroke="white" stroke-miterlimit="10" stroke-linecap="round" stroke-linejoin="round"/>
<path d="M58.6377 69.998H81.3631" stroke="white" stroke-miterlimit="10" stroke-linecap="round" stroke-linejoin="round"/>
<path d="M54.9756 76H84.9092" stroke="white" stroke-miterlimit="10" stroke-linecap="round" stroke-linejoin="round"/>
<path d="M70.7598 58.002L72.2085 64.002" stroke="white" stroke-miterlimit="10" stroke-linecap="round" stroke-linejoin="round"/>
<path d="M70.7598 70L72.2085 76" stroke="white" stroke-miterlimit="10" stroke-linecap="round" stroke-linejoin="round"/>
<path d="M78.873 70L80.3217 76" stroke="white" stroke-miterlimit="10" stroke-linecap="round" stroke-linejoin="round"/>
<path d="M62.6476 70L60.4746 76" stroke="white" stroke-miterlimit="10" stroke-linecap="round" stroke-linejoin="round"/>
<path d="M66.7041 76L68.1528 82" stroke="white" stroke-miterlimit="10" stroke-linecap="round" stroke-linejoin="round"/>
<path d="M74.8174 76L76.2661 82" stroke="white" stroke-miterlimit="10" stroke-linecap="round" stroke-linejoin="round"/>
<path d="M58.591 76L56.418 82" stroke="white" stroke-miterlimit="10" stroke-linecap="round" stroke-linejoin="round"/>
<path d="M82.9297 76L84.3784 82" stroke="white" stroke-miterlimit="10" stroke-linecap="round" stroke-linejoin="round"/>
<path d="M74.8174 63.9981L76.2661 69.998" stroke="white" stroke-miterlimit="10" stroke-linecap="round" stroke-linejoin="round"/>
<path d="M79.8908 67.5881L87.8632 80.6519C88.208 81.2171 87.8613 82 87.2662 82H52.7338C52.1387 82 51.792 81.2171 52.1368 80.6519L69.403 52.3589C69.6951 51.8804 70.305 51.8804 70.5969 52.3589L78.7217 65.6724" stroke="white" stroke-miterlimit="10" stroke-linecap="round" stroke-linejoin="round"/>
<path d="M64.735 74.0966L62.9033 82" stroke="white" stroke-miterlimit="10" stroke-linecap="round" stroke-linejoin="round"/>
<path d="M69.8525 52.0163L65.2637 71.8164" stroke="white" stroke-miterlimit="10" stroke-linecap="round" stroke-linejoin="round"/>
<defs>
<linearGradient id="paint0_linear_6263_10167" x1="70" y1="0" x2="70" y2="184.978" gradientUnits="userSpaceOnUse">
<stop stop-color="#008037"/>
<stop offset="0.565952" stop-color="#1A1A1A" stop-opacity="0"/>
</linearGradient>
<linearGradient id="paint1_linear_6263_10167" x1="70" y1="16" x2="70" y2="118" gradientUnits="userSpaceOnUse">
<stop stop-color="#008037"/>
<stop offset="0.658009" stop-color="#1A1A1A" stop-opacity="0"/>
</linearGradient>
<linearGradient id="paint2_linear_6263_10167" x1="70" y1="36" x2="70" y2="98" gradientUnits="userSpaceOnUse">
<stop stop-color="#008037"/>
<stop offset="1" stop-color="#1A1A1A" stop-opacity="0"/>
</linearGradient>
</defs>
</svg>
