<svg width="140" height="140" viewBox="0 0 140 140" fill="none" xmlns="http://www.w3.org/2000/svg">
<rect width="140" height="140" rx="70" fill="url(#paint0_linear_6263_10212)" fill-opacity="0.5"/>
<rect x="14" y="14.5" width="112" height="111" rx="55.5" fill="url(#paint1_linear_6263_10212)" fill-opacity="0.25"/>
<rect x="34" y="34.5" width="72" height="71" rx="35.5" fill="url(#paint2_linear_6263_10212)" fill-opacity="0.15"/>
<path d="M70.7606 52.8279C70.6115 52.335 70.4325 51.842 70.2834 51.349L69.9851 50.5L69.6868 51.349C69.5377 51.842 69.3587 52.335 69.2095 52.8279C58.5608 53.2114 50 61.2907 50 71.1503C50 72.1362 50.0895 73.1222 50.2386 74.0534V74.1355V74.1629L50.2685 74.2451L50.2983 74.3546C50.2983 74.4094 50.3281 74.4368 50.3281 74.4916L50.3878 74.7655C50.7457 76.4635 51.3721 78.1067 52.267 79.6404L52.3266 79.7774L52.3863 79.8322C52.3863 79.8322 52.4459 79.9143 52.4459 79.9417L52.4758 80.0239L52.5354 80.0787C52.5652 80.1608 52.6249 80.2156 52.6547 80.2704C56.1745 85.967 62.8262 89.5 69.9851 89.5C77.1439 89.5 83.7957 85.967 87.3154 80.2704C87.3751 80.1882 87.4049 80.1334 87.4646 80.0513L87.5242 79.9965L87.5541 79.9143C87.5839 79.8869 87.6435 79.7774 87.6435 79.7774L87.7032 79.7226L87.733 79.6131C88.091 78.9831 88.4191 78.2985 88.7174 77.5864C88.777 77.3947 88.8665 77.2029 88.9262 77.0386C88.9262 77.0112 88.9858 76.9017 88.9858 76.9017C89.0157 76.8195 89.0455 76.71 89.0753 76.6278L89.135 76.4909C89.1648 76.4087 89.1946 76.3265 89.2245 76.2444L89.2543 76.1348V76.1074L89.2841 75.9705C89.2841 75.9431 89.3139 75.9157 89.3139 75.8883C89.3139 75.861 89.3438 75.8336 89.3438 75.7788C89.7614 74.2725 90 72.7114 90 71.1229C89.9702 61.2907 81.4094 53.2114 70.7606 52.8279ZM70.2834 53.3209C70.3132 53.4305 70.343 53.54 70.3729 53.6496C70.5518 54.2521 70.7308 54.8546 70.9098 55.4846L70.2834 55.2928V53.3209ZM70.2834 55.868L71.1186 56.0871C71.1782 56.3062 71.2379 56.5527 71.3274 56.7718L70.2834 56.5253V55.868ZM70.2834 57.1004L71.4765 57.4017C71.5362 57.6482 71.5958 57.8673 71.6555 58.1138L70.2834 57.7577V57.1004ZM70.2834 58.3055L71.8046 58.6889C72.1029 59.894 72.4012 61.1264 72.6995 62.3862L70.7905 62.2493C71.5362 61.948 72.0731 61.2633 72.0731 60.4691C72.0731 59.5105 71.2975 58.7163 70.2834 58.5794V58.3055ZM70.2834 59.1271C70.9694 59.264 71.4765 59.8118 71.4765 60.4691C71.4765 61.1264 70.9694 61.6742 70.2834 61.8111V59.1271ZM70.2834 62.7423L72.8188 62.934C72.9083 63.3448 72.9978 63.7556 73.0872 64.139L70.2834 63.9473V62.7423ZM72.2521 64.632L73.1767 64.7142C73.2066 64.9333 73.2662 65.1524 73.296 65.3715L72.2521 64.632ZM73.2066 65.974L70.5817 65.7549L71.8643 65.0428L73.2066 65.974ZM70.2834 64.4951L71.5362 64.5772L70.2834 65.2893V64.4951ZM70.2834 66.3027L73.5347 66.5492C73.5645 66.7409 73.5943 66.9326 73.654 67.1243L70.2834 66.8504V66.3027ZM70.2834 67.3982L73.7435 67.6721C73.7733 67.8638 73.8031 68.0555 73.8628 68.2472L70.2834 67.9733V67.3982ZM70.2834 68.5211L73.9523 68.7949C73.9821 68.9867 74.0119 69.1784 74.0418 69.3701L70.2834 69.0962V68.5211ZM70.2834 69.644L74.1312 69.9452C74.1611 70.1369 74.1909 70.3287 74.2207 70.5204L70.2834 70.2191V69.644ZM70.2834 70.7669L74.3102 71.0681C74.34 71.2598 74.3699 71.4515 74.3997 71.6433L70.2834 71.342V70.7669ZM73.0574 72.1088L74.519 72.2184C74.5488 72.4649 74.5787 72.684 74.6085 72.9305L73.0574 72.1088ZM74.0716 73.2865L70.9098 73.04L72.4907 72.4375L74.0716 73.2865ZM70.2834 71.8898L72.0731 72.0267L70.2834 72.684V71.8898ZM70.2834 73.533L74.7278 73.8617C74.7576 74.0534 74.7875 74.2451 74.8173 74.4368L70.2834 74.1081V73.533ZM70.2834 74.6559L74.877 75.0119C74.9068 75.2037 74.9366 75.3954 74.9366 75.5871L70.2834 75.231V74.6559ZM70.2834 75.7788L74.9963 76.1348C75.0261 76.3265 75.0559 76.5183 75.0559 76.71L70.2834 76.3539V75.7788ZM70.2834 76.9017L75.1454 77.2851C75.1752 77.4768 75.1752 77.6685 75.2051 77.8603L70.2834 77.4768V76.9017ZM70.2834 78.0246L75.2647 78.408C75.2946 78.5997 75.2946 78.7914 75.3244 78.9831L70.2834 78.5723V78.0246ZM73.1171 79.3392L75.3542 79.5035C75.4139 79.9691 75.4437 80.4347 75.4735 80.8729L73.1171 79.3392ZM74.6383 81.0098L70.9993 80.736L72.8188 79.8322L74.6383 81.0098ZM70.2834 79.1201L72.61 79.2844L70.2834 80.4347V79.1201ZM70.2834 81.2289L75.563 81.6397C75.563 81.8315 75.5928 82.0232 75.5928 82.2149L70.2834 81.8041V81.2289ZM70.2834 82.3518L75.6525 82.7626C75.6525 82.9544 75.6823 83.1461 75.6823 83.3378L70.2834 82.8996V82.3518ZM70.2834 83.4473L75.7122 83.8582C75.7122 84.0499 75.742 84.2416 75.742 84.4333L70.2834 84.0225V83.4473ZM70.2834 84.5702L75.8016 84.981C75.8016 85.1728 75.8315 85.3645 75.8315 85.5562L70.2834 85.1454V84.5702ZM70.2834 85.6931L75.8613 86.1039C75.8613 86.2957 75.8911 86.4874 75.8911 86.6791L70.2834 86.2683V85.6931ZM70.2834 86.816L75.8911 87.2542C75.8911 87.4459 75.8911 87.6376 75.921 87.8294L70.2834 87.3912V86.816ZM70.2834 87.9389L74.2804 88.2402C73.4452 88.4045 72.5802 88.5414 71.7151 88.6236L70.3132 88.514V87.9389H70.2834ZM76.2192 87.7198C76.3087 87.6924 76.3684 87.665 76.4579 87.6376C76.0999 87.7472 75.7122 87.8567 75.3244 87.9663C75.6227 87.9115 75.921 87.8294 76.2192 87.7198ZM75.2349 88.0211C74.9366 88.1032 74.6383 88.158 74.3102 88.2402C74.6085 88.158 74.9068 88.1032 75.2349 88.0211ZM69.6868 53.3209V55.3202L69.0306 55.4846C69.2095 54.8546 69.3885 54.2521 69.5675 53.6496C69.6271 53.54 69.657 53.4305 69.6868 53.3209ZM64.0492 87.802C64.0492 87.6376 64.0492 87.4459 64.079 87.2268L69.6868 86.7886V87.3638L64.0492 87.802ZM69.6868 87.9389V88.514L68.2849 88.6236C67.4198 88.5414 66.5548 88.4319 65.7196 88.2402L69.6868 87.9389ZM65.66 88.2402C65.3617 88.1854 65.0634 88.1032 64.7651 88.0211C65.0336 88.1032 65.3617 88.158 65.66 88.2402ZM64.6458 87.9937C64.2878 87.9115 63.9299 87.802 63.6018 87.6924C63.6614 87.7198 63.7211 87.7198 63.7808 87.7472C64.0492 87.8294 64.3475 87.9115 64.6458 87.9937ZM64.1089 86.7065C64.1089 86.5148 64.1387 86.323 64.1387 86.1313L69.7166 85.7205V86.2956L64.1089 86.7065ZM64.1387 85.5836C64.1387 85.3919 64.1685 85.2001 64.1685 85.0084L69.6868 84.5976V85.1728L64.1387 85.5836ZM64.1984 84.4333C64.1984 84.2416 64.2282 84.0499 64.2282 83.8582L69.657 83.4473V84.0225L64.1984 84.4333ZM64.2878 83.3104C64.2878 83.1187 64.3177 82.927 64.3177 82.7353L69.6868 82.3244V82.8996L64.2878 83.3104ZM64.3773 82.1875C64.3773 81.9958 64.4072 81.8041 64.4072 81.6124L69.6868 81.2289V81.8041L64.3773 82.1875ZM64.4668 80.9003C64.4966 80.4621 64.5563 79.9965 64.5861 79.5309L66.8233 79.3666L64.4668 80.9003ZM67.1514 79.8322L68.9709 80.736L65.3318 81.0098L67.1514 79.8322ZM67.39 79.3118L69.7166 79.1475V80.4895L67.39 79.3118ZM64.6458 78.9558C64.6756 78.764 64.6756 78.5723 64.7054 78.3806L69.6868 77.9972V78.5723L64.6458 78.9558ZM64.7651 77.8329C64.7949 77.6412 64.7949 77.4494 64.8248 77.2577L69.6868 76.8743V77.4494L64.7651 77.8329ZM64.8844 76.71C64.9142 76.5183 64.9142 76.3265 64.9441 76.1348L69.657 75.7788V76.3539L64.8844 76.71ZM65.0336 75.5871C65.0634 75.3954 65.0932 75.2037 65.0932 75.0119L69.6868 74.6559V75.231L65.0336 75.5871ZM65.1827 74.4642C65.2125 74.2725 65.2424 74.0808 65.2722 73.889L69.7166 73.5604V74.1355L65.1827 74.4642ZM65.3915 72.9031C65.4213 72.6566 65.4512 72.4375 65.481 72.191L66.9426 72.0815L65.3915 72.9031ZM67.4497 72.4375L69.0306 73.04L65.8986 73.2865L67.4497 72.4375ZM67.8971 72.0267L69.6868 71.8898V72.684L67.8971 72.0267ZM65.5705 71.6433C65.6003 71.4515 65.6301 71.2598 65.66 71.0681L69.6868 70.7669V71.342L65.5705 71.6433ZM65.7494 70.5204C65.7793 70.3287 65.8091 70.1369 65.8389 69.9452L69.6868 69.644V70.2191L65.7494 70.5204ZM65.9284 69.3975C65.9582 69.2058 65.9881 69.014 66.0179 68.8223L69.6868 68.5485V69.1236L65.9284 69.3975ZM66.1074 68.2472C66.1372 68.0555 66.167 67.8638 66.1969 67.6721L69.657 67.3982V67.9733L66.1074 68.2472ZM66.3162 67.1243C66.346 66.9326 66.3758 66.7409 66.4355 66.5492L69.6868 66.3027V66.8778L66.3162 67.1243ZM66.6443 65.3715C66.6741 65.1524 66.7338 64.9333 66.7636 64.7142L67.6883 64.632L66.6443 65.3715ZM68.1357 65.0428L69.4183 65.7549L66.7934 65.9466L68.1357 65.0428ZM68.434 64.5772L69.6868 64.4951V65.2893L68.434 64.5772ZM66.9128 64.139C67.0022 63.7282 67.0917 63.3448 67.1812 62.934L69.7166 62.7423V63.9473L66.9128 64.139ZM67.8971 60.4691C67.8971 61.2633 68.434 61.948 69.1797 62.2493L67.2707 62.3862C67.5392 61.1538 67.8374 59.9213 68.1357 58.6889L69.657 58.3055V58.552C68.6726 58.6889 67.8971 59.4831 67.8971 60.4691ZM69.6868 59.1271V61.8111C69.0007 61.6742 68.4937 61.1264 68.4937 60.4691C68.4937 59.8118 69.0007 59.2367 69.6868 59.1271ZM68.3147 58.0864C68.3743 57.8399 68.434 57.6208 68.4937 57.3743L69.6868 57.073V57.7303L68.3147 58.0864ZM68.6726 56.7718C68.7323 56.5253 68.7919 56.3062 68.8516 56.0871L69.6868 55.8954V56.5527L68.6726 56.7718ZM53.4004 79.8596C53.3408 79.7774 53.2811 79.6678 53.2215 79.5857C53.1916 79.5309 53.1618 79.5035 53.132 79.4487C53.1022 79.394 53.0723 79.3666 53.0425 79.3118C52.2073 77.8603 51.5809 76.2718 51.223 74.6285C51.1931 74.5464 51.1931 74.4368 51.1633 74.3546C51.1633 74.2999 51.1335 74.2725 51.1335 74.2451C51.1335 74.1903 51.1037 74.1629 51.1037 74.1081C51.1037 74.1081 51.1037 74.1082 51.1037 74.0808C51.1037 74.026 51.1037 73.9986 51.0738 73.9712C50.9247 73.0674 50.8352 72.1362 50.8352 71.1777C50.8949 61.7837 58.8889 54.1426 68.9709 53.6496C68.1059 56.4431 67.3602 59.3736 66.6741 62.4136L66.6443 62.6053C66.4952 63.2079 66.3758 63.8104 66.2565 64.3855L66.1969 64.7416C64.1387 74.9298 63.6316 83.8582 63.4825 87.6103C59.1872 86.2135 55.6376 83.4199 53.4004 79.8596ZM71.6257 88.6236C71.387 88.651 71.1782 88.651 70.9396 88.6784C71.1782 88.651 71.4169 88.651 71.6257 88.6236ZM88.4489 75.6145C88.4489 75.6419 88.4489 75.6692 88.4191 75.6966V75.7514C88.4191 75.8062 88.3893 75.8336 88.3893 75.8883C88.3893 75.9157 88.3594 75.9431 88.3594 75.9705C88.3296 76.0527 88.2998 76.1622 88.2699 76.2444C88.2401 76.2992 88.2401 76.3539 88.2103 76.4087C88.1805 76.4909 88.1506 76.6004 88.1208 76.6826C88.1208 76.71 88.091 76.7374 88.091 76.7647C88.0313 76.9565 87.9418 77.1208 87.8822 77.3125C87.6137 77.9972 87.2856 78.6545 86.8978 79.2844C86.868 79.3392 86.8382 79.3666 86.8382 79.4214C86.8084 79.4761 86.7785 79.5035 86.7487 79.5583C86.689 79.6405 86.6294 79.75 86.5697 79.8322C84.3326 83.3926 80.783 86.1861 76.5175 87.6103C76.3982 83.8308 75.8613 74.9298 73.8031 64.7416L73.7435 64.3855C73.6242 63.8104 73.5048 63.2079 73.3557 62.6053L73.296 62.4136C72.61 59.3736 71.8643 56.4431 70.9993 53.6496C81.0813 54.1426 89.0753 61.7837 89.0753 71.1503C89.0753 72.7114 88.8665 74.1903 88.4489 75.6145Z" fill="white"/>
<path d="M81.0214 68.1099C80.8126 68.0278 80.574 67.973 80.3354 67.973C79.5002 67.973 78.8141 68.5208 78.665 69.2602C77.7403 69.2876 77.0244 69.9723 77.0244 70.8213C77.0244 71.6703 77.7701 72.3824 78.7246 72.3824H85.1974C86.1221 72.3824 86.8976 71.6977 86.8976 70.8213C86.8976 69.9723 86.1519 69.2602 85.1974 69.2602C85.1676 69.2602 85.1378 69.2602 85.1079 69.2602C85.1079 69.2328 85.1079 69.1781 85.1079 69.1507C85.1079 68.0552 84.1236 67.1514 82.9305 67.1514C82.0953 67.1514 81.4092 67.5074 81.0214 68.1099ZM84.4815 69.1507C84.4815 69.2602 84.4517 69.3972 84.4219 69.5341L84.2727 70.0545L84.8096 69.8627C84.929 69.808 85.0483 69.808 85.1676 69.808C85.7642 69.808 86.2712 70.2462 86.2712 70.8213C86.2712 71.3691 85.794 71.8347 85.1676 71.8347H78.6948C78.0982 71.8347 77.5912 71.3965 77.5912 70.8213C77.5912 70.2736 78.0684 69.808 78.6948 69.808C78.7545 69.808 78.8141 69.808 78.8738 69.8354L79.2317 69.8901L79.2019 69.5341C79.2019 68.9863 79.709 68.5481 80.3055 68.5481C80.5442 68.5481 80.753 68.6029 80.9319 68.7399L81.2302 68.9316L81.3794 68.6029C81.618 68.0552 82.2146 67.6991 82.841 67.6991C83.7657 67.6991 84.4815 68.3564 84.4815 69.1507Z" fill="white"/>
<path d="M61.9309 64.3586C61.7818 63.7013 61.1554 63.181 60.3798 63.181C60.171 63.181 59.9622 63.2083 59.7534 63.2905C59.3955 62.7428 58.7393 62.3867 58.0234 62.3867C56.9197 62.3867 55.9951 63.2083 55.9951 64.2491V64.3312C55.1002 64.3039 54.3545 64.9612 54.3545 65.7828C54.3545 66.577 55.0704 67.2343 55.9354 67.2343H61.8414C62.7065 67.2343 63.4224 66.577 63.4224 65.7828C63.4522 65.0159 62.796 64.386 61.9309 64.3586ZM61.9011 66.6866H55.9652C55.4283 66.6866 54.9809 66.2758 54.9809 65.7828C54.9809 65.2898 55.4283 64.879 55.9652 64.879C56.0547 64.879 56.174 64.9064 56.2933 64.9338L56.8303 65.1255L56.6811 64.6051C56.6513 64.4682 56.6215 64.3586 56.6215 64.2491C56.6215 63.537 57.2479 62.9345 58.0532 62.9345C58.6498 62.9345 59.1569 63.2631 59.3657 63.7561L59.5148 64.0848L59.8131 63.893C59.9921 63.7835 60.171 63.7287 60.3798 63.7287C60.9168 63.7287 61.3344 64.1121 61.3642 64.6051V64.9612L61.7221 64.9064C61.7818 64.9064 61.8414 64.879 61.9011 64.879C62.438 64.879 62.8854 65.2898 62.8854 65.7828C62.8854 66.2758 62.438 66.6866 61.9011 66.6866Z" fill="white"/>
<defs>
<linearGradient id="paint0_linear_6263_10212" x1="70" y1="0" x2="70" y2="193.261" gradientUnits="userSpaceOnUse">
<stop stop-color="#008037"/>
<stop offset="0.565952" stop-color="#1A1A1A" stop-opacity="0"/>
</linearGradient>
<linearGradient id="paint1_linear_6263_10212" x1="70" y1="14.5" x2="70" y2="125.5" gradientUnits="userSpaceOnUse">
<stop stop-color="#008037"/>
<stop offset="0.658009" stop-color="#1A1A1A" stop-opacity="0"/>
</linearGradient>
<linearGradient id="paint2_linear_6263_10212" x1="70" y1="34.5" x2="70" y2="105.5" gradientUnits="userSpaceOnUse">
<stop stop-color="#008037"/>
<stop offset="1" stop-color="#1A1A1A" stop-opacity="0"/>
</linearGradient>
</defs>
</svg>
