<svg width="140" height="140" viewBox="0 0 140 140" fill="none" xmlns="http://www.w3.org/2000/svg">
<rect width="140" height="140" rx="70" fill="url(#paint0_linear_6263_10223)" fill-opacity="0.5"/>
<rect x="15" y="15" width="110" height="110" rx="55" fill="url(#paint1_linear_6263_10223)" fill-opacity="0.25"/>
<rect x="35" y="35" width="70" height="70" rx="35" fill="url(#paint2_linear_6263_10223)" fill-opacity="0.15"/>
<mask id="mask0_6263_10223" style="mask-type:luminance" maskUnits="userSpaceOnUse" x="51" y="51" width="38" height="38">
<path d="M88.5 88.5V51.5H51.5V88.5H88.5Z" fill="white" stroke="white"/>
</mask>
<g mask="url(#mask0_6263_10223)">
<path d="M58.9004 59.4869C57.5938 60.866 56.5412 62.4882 55.8182 64.2789L52.9324 63.5057C55.5505 56.6288 62.2043 51.742 70 51.742C77.7956 51.742 84.4493 56.629 87.0675 63.5057L84.1817 64.279C81.9168 58.6694 76.4213 54.7108 70 54.7108C68.0238 54.7108 66.1355 55.0863 64.4018 55.7688M54.8601 67.8641C54.7626 68.5622 54.7109 69.2749 54.7109 69.9998C54.7109 74.0704 56.3106 77.9327 59.1889 80.811C59.7684 81.3906 59.7684 82.3304 59.1889 82.91C58.6093 83.4896 57.6694 83.4896 57.0899 82.91C53.6774 79.4976 51.7422 74.8258 51.7422 69.9998C51.7422 69.0097 51.8221 68.0382 51.9738 67.0907L54.8601 67.8641ZM82.9101 82.91C82.3305 83.4896 81.3907 83.4896 80.8111 82.91C80.2315 82.3304 80.2315 81.3906 80.8111 80.811C83.6894 77.9327 85.289 74.0704 85.289 69.9998C85.289 69.2749 85.2376 68.5621 85.1398 67.8641L88.0261 67.0908C88.1781 68.0382 88.2578 69.0097 88.2578 69.9998C88.2578 74.8258 86.3225 79.4976 82.9101 82.91Z" stroke="white" stroke-miterlimit="22.926" stroke-linecap="round" stroke-linejoin="round"/>
<path d="M68.5148 87.5156V60.6485C68.5148 59.8321 69.1828 59.1642 69.9992 59.1642C70.8156 59.1642 71.4835 59.8322 71.4835 60.6485V87.5156M71.5892 78.8267C73.1863 79.4636 74.3226 81.0282 74.3226 82.8454V88.2578H65.6758V82.8454C65.6758 81.0256 66.8153 79.459 68.4159 78.824" stroke="white" stroke-miterlimit="22.926" stroke-linecap="round" stroke-linejoin="round"/>
<path d="M68.4089 65.3838C68.1065 64.9319 67.5685 64.3507 66.8954 63.8296C66.3131 63.3787 65.65 62.9939 64.9887 62.8168C64.1978 62.6054 63.7279 61.7929 63.9393 61.0019C64.1506 60.211 64.9632 59.7411 65.7542 59.9524C66.704 60.2069 67.6128 60.6926 68.4089 61.2662" stroke="white" stroke-miterlimit="22.926" stroke-linecap="round" stroke-linejoin="round"/>
<path d="M68.4108 70.7881C67.8104 70.0777 66.7269 69.2904 65.4761 68.6356C64.0619 67.8953 62.4922 67.372 61.2246 67.372C60.4048 67.372 59.7402 66.7075 59.7402 65.8876C59.7402 65.0678 60.4048 64.4033 61.2246 64.4033C62.9777 64.4033 65.041 65.0706 66.8445 66.0148C67.3905 66.3006 67.9178 66.616 68.4108 66.95" stroke="white" stroke-miterlimit="22.926" stroke-linecap="round" stroke-linejoin="round"/>
<path d="M68.4083 75.0244C67.5071 74.3184 66.4053 73.8566 65.2691 73.6235C63.7418 73.3103 62.1831 73.406 60.9763 73.8733C60.2141 74.1679 59.3574 73.789 59.0628 73.0267C58.7682 72.2646 59.1472 71.4079 59.9094 71.1133C61.628 70.4478 63.7894 70.2996 65.8605 70.7243C66.7332 70.9033 67.5952 71.1832 68.4083 71.568" stroke="white" stroke-miterlimit="22.926" stroke-linecap="round" stroke-linejoin="round"/>
<path d="M68.4106 78.689C67.7486 78.4568 67.0518 78.3515 66.3673 78.3489C65.2262 78.3446 64.1373 78.621 63.3043 79.0692C62.5838 79.4566 61.6855 79.1866 61.298 78.4661C60.9106 77.7455 61.1806 76.8474 61.9011 76.4599C63.1361 75.7956 64.7256 75.3855 66.3673 75.3918C67.0433 75.3943 67.7311 75.4668 68.4106 75.6201" stroke="white" stroke-miterlimit="22.926" stroke-linecap="round" stroke-linejoin="round"/>
<path d="M71.5898 65.3838C71.8923 64.9319 72.4302 64.3507 73.1034 63.8296C73.6856 63.3787 74.3488 62.9939 75.01 62.8168C75.8009 62.6054 76.2708 61.7929 76.0595 61.0019C75.8481 60.211 75.0356 59.7411 74.2446 59.9524C73.2947 60.2069 72.386 60.6926 71.5898 61.2662" stroke="white" stroke-miterlimit="22.926" stroke-linecap="round" stroke-linejoin="round"/>
<path d="M71.5898 70.7881C72.1903 70.0777 73.2738 69.2904 74.5246 68.6356C75.9388 67.8953 77.5085 67.372 78.7761 67.372C79.5959 67.372 80.2604 66.7075 80.2604 65.8876C80.2604 65.0678 79.5959 64.4033 78.7761 64.4033C77.023 64.4033 74.9597 65.0706 73.1562 66.0148C72.6102 66.3006 72.0829 66.616 71.5898 66.95" stroke="white" stroke-miterlimit="22.926" stroke-linecap="round" stroke-linejoin="round"/>
<path d="M71.5898 75.0244C72.4911 74.3184 73.5929 73.8566 74.7291 73.6235C76.2564 73.3103 77.8151 73.406 79.0219 73.8733C79.784 74.1679 80.6407 73.789 80.9354 73.0267C81.23 72.2646 80.8509 71.4079 80.0889 71.1133C78.3702 70.4478 76.2088 70.2996 74.1376 70.7243C73.265 70.9033 72.403 71.1832 71.5898 71.568" stroke="white" stroke-miterlimit="22.926" stroke-linecap="round" stroke-linejoin="round"/>
<path d="M71.5898 78.689C72.2519 78.4568 72.9487 78.3515 73.6332 78.3489C74.7742 78.3446 75.8632 78.621 76.6962 79.0692C77.4168 79.4566 78.315 79.1866 78.7024 78.4661C79.0899 77.7455 78.8199 76.8474 78.0993 76.4599C76.8643 75.7956 75.2749 75.3855 73.6332 75.3918C72.9572 75.3943 72.2694 75.4668 71.5898 75.6201" stroke="white" stroke-miterlimit="22.926" stroke-linecap="round" stroke-linejoin="round"/>
<path d="M61.4453 57.3262H61.4457" stroke="white" stroke-miterlimit="2.613" stroke-linecap="round" stroke-linejoin="round"/>
</g>
<defs>
<linearGradient id="paint0_linear_6263_10223" x1="70" y1="0" x2="70" y2="193.261" gradientUnits="userSpaceOnUse">
<stop stop-color="#008037"/>
<stop offset="0.565952" stop-color="#1A1A1A" stop-opacity="0"/>
</linearGradient>
<linearGradient id="paint1_linear_6263_10223" x1="70" y1="15" x2="70" y2="125" gradientUnits="userSpaceOnUse">
<stop stop-color="#008037"/>
<stop offset="0.658009" stop-color="#1A1A1A" stop-opacity="0"/>
</linearGradient>
<linearGradient id="paint2_linear_6263_10223" x1="70" y1="35" x2="70" y2="105" gradientUnits="userSpaceOnUse">
<stop stop-color="#008037"/>
<stop offset="1" stop-color="#1A1A1A" stop-opacity="0"/>
</linearGradient>
</defs>
</svg>
